G04 #@! TF.FileFunction,Legend,Top*
%FSLAX46Y46*%
G04 Gerber Fmt 4.6, Leading zero omitted, Abs format (unit mm)*
G04 Created by KiCad (PCBNEW 4.0.2-stable) date 2021 June 23, Wednesday 03:02:28*
%MOMM*%
G01*
G04 APERTURE LIST*
%ADD10C,0.100000*%
%ADD11C,0.150000*%
G04 APERTURE END LIST*
D10*
D11*
X96706000Y-97171000D02*
X96706000Y-99171000D01*
X94556000Y-99171000D02*
X94556000Y-97171000D01*
X104766000Y-97171000D02*
X104766000Y-99171000D01*
X106816000Y-99171000D02*
X106816000Y-97171000D01*
X54118000Y-128025000D02*
X56118000Y-128025000D01*
X56118000Y-125975000D02*
X54118000Y-125975000D01*
X51063000Y-111363000D02*
X51063000Y-109363000D01*
X49013000Y-109363000D02*
X49013000Y-111363000D01*
X42942000Y-116595000D02*
X44942000Y-116595000D01*
X44942000Y-114545000D02*
X42942000Y-114545000D01*
X110499000Y-83804000D02*
X110499000Y-81804000D01*
X108449000Y-81804000D02*
X108449000Y-83804000D01*
X92592000Y-99171000D02*
X92592000Y-97171000D01*
X90542000Y-97171000D02*
X90542000Y-99171000D01*
X94599000Y-101845000D02*
X92599000Y-101845000D01*
X92599000Y-103895000D02*
X94599000Y-103895000D01*
X94599000Y-113275000D02*
X92599000Y-113275000D01*
X92599000Y-115325000D02*
X94599000Y-115325000D01*
X94599000Y-124705000D02*
X92599000Y-124705000D01*
X92599000Y-126755000D02*
X94599000Y-126755000D01*
X61052000Y-80304000D02*
X61052000Y-78304000D01*
X59002000Y-78304000D02*
X59002000Y-80304000D01*
X114697000Y-74304000D02*
X116697000Y-74304000D01*
X116697000Y-72254000D02*
X114697000Y-72254000D01*
X68088000Y-131073000D02*
X70088000Y-131073000D01*
X70088000Y-129023000D02*
X68088000Y-129023000D01*
X52442000Y-40529000D02*
X52442000Y-42529000D01*
X54492000Y-42529000D02*
X54492000Y-40529000D01*
X77962000Y-129023000D02*
X75962000Y-129023000D01*
X75962000Y-131073000D02*
X77962000Y-131073000D01*
X85709000Y-60443000D02*
X83709000Y-60443000D01*
X83709000Y-62493000D02*
X85709000Y-62493000D01*
X83074000Y-117230000D02*
X85074000Y-117230000D01*
X85074000Y-115180000D02*
X83074000Y-115180000D01*
X72399000Y-119110000D02*
X72399000Y-117110000D01*
X70349000Y-117110000D02*
X70349000Y-119110000D01*
X91177000Y-75708000D02*
X91177000Y-77708000D01*
X93227000Y-77708000D02*
X93227000Y-75708000D01*
X93227000Y-86725000D02*
X93227000Y-84725000D01*
X91177000Y-84725000D02*
X91177000Y-86725000D01*
X106943000Y-77454000D02*
X106943000Y-75454000D01*
X104893000Y-75454000D02*
X104893000Y-77454000D01*
X46727000Y-126762000D02*
X46727000Y-128762000D01*
X48777000Y-128762000D02*
X48777000Y-126762000D01*
X52587000Y-122666000D02*
X52587000Y-120666000D01*
X50537000Y-120666000D02*
X50537000Y-122666000D01*
X53102000Y-116595000D02*
X55102000Y-116595000D01*
X55102000Y-114545000D02*
X53102000Y-114545000D01*
X30242000Y-131073000D02*
X32242000Y-131073000D01*
X32242000Y-129023000D02*
X30242000Y-129023000D01*
X132851000Y-92694000D02*
X132851000Y-90694000D01*
X130801000Y-90694000D02*
X130801000Y-92694000D01*
X32496000Y-119117000D02*
X30496000Y-119117000D01*
X30496000Y-121167000D02*
X32496000Y-121167000D01*
X138033000Y-88764000D02*
X136033000Y-88764000D01*
X136033000Y-90814000D02*
X138033000Y-90814000D01*
X42427000Y-125714000D02*
X42427000Y-123714000D01*
X40377000Y-123714000D02*
X40377000Y-125714000D01*
X145297000Y-99806000D02*
X145297000Y-97806000D01*
X143247000Y-97806000D02*
X143247000Y-99806000D01*
X143247000Y-90694000D02*
X143247000Y-92694000D01*
X145297000Y-92694000D02*
X145297000Y-90694000D01*
X130801000Y-82820000D02*
X130801000Y-84820000D01*
X132851000Y-84820000D02*
X132851000Y-82820000D01*
X38370000Y-121167000D02*
X40370000Y-121167000D01*
X40370000Y-119117000D02*
X38370000Y-119117000D01*
X139970000Y-104911000D02*
X141970000Y-104911000D01*
X141970000Y-102861000D02*
X139970000Y-102861000D01*
X102759000Y-126755000D02*
X104759000Y-126755000D01*
X104759000Y-124705000D02*
X102759000Y-124705000D01*
X102759000Y-115325000D02*
X104759000Y-115325000D01*
X104759000Y-113275000D02*
X102759000Y-113275000D01*
X102759000Y-103895000D02*
X104759000Y-103895000D01*
X104759000Y-101845000D02*
X102759000Y-101845000D01*
X129016000Y-127245000D02*
X127016000Y-127245000D01*
X127016000Y-129295000D02*
X129016000Y-129295000D01*
X129016000Y-114291000D02*
X127016000Y-114291000D01*
X127016000Y-116341000D02*
X129016000Y-116341000D01*
X114284000Y-115180000D02*
X112284000Y-115180000D01*
X112284000Y-117230000D02*
X114284000Y-117230000D01*
X123453000Y-132826000D02*
X123453000Y-130826000D01*
X121403000Y-130826000D02*
X121403000Y-132826000D01*
X61277500Y-43561000D02*
X60896500Y-43561000D01*
X62293500Y-43561000D02*
X61912500Y-43561000D01*
X61912500Y-43561000D02*
X61277500Y-43942000D01*
X61277500Y-43942000D02*
X61277500Y-43180000D01*
X61277500Y-43180000D02*
X61912500Y-43561000D01*
X61912500Y-44069000D02*
X61912500Y-43053000D01*
X63595000Y-42661000D02*
X60055000Y-42661000D01*
X63595000Y-44461000D02*
X60055000Y-44461000D01*
X47644500Y-43617000D02*
X48025500Y-43617000D01*
X46628500Y-43617000D02*
X47009500Y-43617000D01*
X47009500Y-43617000D02*
X47644500Y-43236000D01*
X47644500Y-43236000D02*
X47644500Y-43998000D01*
X47644500Y-43998000D02*
X47009500Y-43617000D01*
X47009500Y-43109000D02*
X47009500Y-44125000D01*
X45327000Y-44517000D02*
X48867000Y-44517000D01*
X45327000Y-42717000D02*
X48867000Y-42717000D01*
X65024000Y-80645000D02*
X61849000Y-80645000D01*
X61849000Y-80645000D02*
X61849000Y-82423000D01*
X61849000Y-82423000D02*
X65024000Y-82423000D01*
X65024000Y-76073000D02*
X61849000Y-76073000D01*
X61849000Y-76073000D02*
X61849000Y-77851000D01*
X61849000Y-77851000D02*
X65024000Y-77851000D01*
X71120000Y-82677000D02*
X65024000Y-82677000D01*
X65024000Y-82677000D02*
X65024000Y-75819000D01*
X65024000Y-75819000D02*
X72898000Y-75819000D01*
X73025000Y-75819000D02*
X73025000Y-82677000D01*
X72898000Y-82677000D02*
X71120000Y-82677000D01*
X114300000Y-78359000D02*
X114300000Y-75184000D01*
X114300000Y-75184000D02*
X112522000Y-75184000D01*
X112522000Y-75184000D02*
X112522000Y-78359000D01*
X118872000Y-78359000D02*
X118872000Y-75184000D01*
X118872000Y-75184000D02*
X117094000Y-75184000D01*
X117094000Y-75184000D02*
X117094000Y-78359000D01*
X112268000Y-84455000D02*
X112268000Y-78359000D01*
X112268000Y-78359000D02*
X119126000Y-78359000D01*
X119126000Y-78359000D02*
X119126000Y-86233000D01*
X119126000Y-86360000D02*
X112268000Y-86360000D01*
X112268000Y-86233000D02*
X112268000Y-84455000D01*
X95804000Y-75574000D02*
X95804000Y-76224000D01*
X101554000Y-75574000D02*
X101554000Y-76224000D01*
X101554000Y-86224000D02*
X101554000Y-85574000D01*
X95804000Y-86224000D02*
X95804000Y-85574000D01*
X95804000Y-75574000D02*
X101554000Y-75574000D01*
X95804000Y-86224000D02*
X101554000Y-86224000D01*
X95804000Y-76224000D02*
X94204000Y-76224000D01*
X36873000Y-127289000D02*
X36873000Y-127144000D01*
X32723000Y-127289000D02*
X32723000Y-127144000D01*
X32723000Y-122139000D02*
X32723000Y-122284000D01*
X36873000Y-122139000D02*
X36873000Y-122284000D01*
X36873000Y-127289000D02*
X32723000Y-127289000D01*
X36873000Y-122139000D02*
X32723000Y-122139000D01*
X36873000Y-127144000D02*
X38273000Y-127144000D01*
X139608000Y-94699000D02*
X139463000Y-94699000D01*
X139608000Y-98849000D02*
X139463000Y-98849000D01*
X134458000Y-98849000D02*
X134603000Y-98849000D01*
X134458000Y-94699000D02*
X134603000Y-94699000D01*
X139608000Y-94699000D02*
X139608000Y-98849000D01*
X134458000Y-94699000D02*
X134458000Y-98849000D01*
X139463000Y-94699000D02*
X139463000Y-93299000D01*
X55221000Y-122325000D02*
X55471000Y-122325000D01*
X55221000Y-118975000D02*
X55471000Y-118975000D01*
X58571000Y-118975000D02*
X58321000Y-118975000D01*
X58571000Y-122325000D02*
X58321000Y-122325000D01*
X55221000Y-122325000D02*
X55221000Y-118975000D01*
X58571000Y-122325000D02*
X58571000Y-118975000D01*
X55471000Y-122325000D02*
X55471000Y-123575000D01*
X58585100Y-150992840D02*
X47586900Y-151792940D01*
X58585100Y-150192740D02*
X47586900Y-150992840D01*
X58585100Y-149392640D02*
X47586900Y-150192740D01*
X58585100Y-148592540D02*
X47586900Y-149392640D01*
X58585100Y-147792440D02*
X47586900Y-148592540D01*
X58585100Y-146992340D02*
X47586900Y-147792440D01*
X54086760Y-161891980D02*
G75*
G03X54086760Y-161891980I-1000760J0D01*
G01*
X48285400Y-153890980D02*
X48285400Y-165892480D01*
X48285400Y-165892480D02*
X57886600Y-165892480D01*
X57886600Y-165892480D02*
X57886600Y-153890980D01*
X47586900Y-146392900D02*
X47586900Y-153890980D01*
X47586900Y-153890980D02*
X58585100Y-153890980D01*
X58585100Y-153890980D02*
X58585100Y-146392900D01*
X60886340Y-131991100D02*
X45285660Y-131991100D01*
X45285660Y-131991100D02*
X45285660Y-146392900D01*
X45285660Y-146392900D02*
X60886340Y-146392900D01*
X60886340Y-146392900D02*
X60886340Y-131991100D01*
X119269000Y-58742000D02*
X121269000Y-58742000D01*
X121269000Y-60892000D02*
X119269000Y-60892000D01*
X121269000Y-58098000D02*
X119269000Y-58098000D01*
X119269000Y-55948000D02*
X121269000Y-55948000D01*
X42442000Y-51729000D02*
X42442000Y-49729000D01*
X44592000Y-49729000D02*
X44592000Y-51729000D01*
X100652000Y-99171000D02*
X100652000Y-97171000D01*
X102802000Y-97171000D02*
X102802000Y-99171000D01*
X85233000Y-84650000D02*
X87233000Y-84650000D01*
X87233000Y-86800000D02*
X85233000Y-86800000D01*
X104843000Y-85582000D02*
X104843000Y-83582000D01*
X106993000Y-83582000D02*
X106993000Y-85582000D01*
X109617000Y-87444000D02*
X111617000Y-87444000D01*
X111617000Y-89594000D02*
X109617000Y-89594000D01*
X68088000Y-125925000D02*
X70088000Y-125925000D01*
X70088000Y-128075000D02*
X68088000Y-128075000D01*
X68088000Y-122623000D02*
X70088000Y-122623000D01*
X70088000Y-124773000D02*
X68088000Y-124773000D01*
X69147000Y-117110000D02*
X69147000Y-119110000D01*
X66997000Y-119110000D02*
X66997000Y-117110000D01*
X85074000Y-120455000D02*
X83074000Y-120455000D01*
X83074000Y-118305000D02*
X85074000Y-118305000D01*
X85074000Y-123630000D02*
X83074000Y-123630000D01*
X83074000Y-121480000D02*
X85074000Y-121480000D01*
X83074000Y-124655000D02*
X85074000Y-124655000D01*
X85074000Y-126805000D02*
X83074000Y-126805000D01*
X73855000Y-125206000D02*
X73855000Y-123206000D01*
X76005000Y-123206000D02*
X76005000Y-125206000D01*
X119269000Y-50360000D02*
X121269000Y-50360000D01*
X121269000Y-52510000D02*
X119269000Y-52510000D01*
X121269000Y-55304000D02*
X119269000Y-55304000D01*
X119269000Y-53154000D02*
X121269000Y-53154000D01*
X102092000Y-57082000D02*
X100092000Y-57082000D01*
X100092000Y-54932000D02*
X102092000Y-54932000D01*
X85412000Y-47228000D02*
X85412000Y-45228000D01*
X87562000Y-45228000D02*
X87562000Y-47228000D01*
X88460000Y-47228000D02*
X88460000Y-45228000D01*
X90610000Y-45228000D02*
X90610000Y-47228000D01*
X80332000Y-43799000D02*
X80332000Y-41799000D01*
X82482000Y-41799000D02*
X82482000Y-43799000D01*
X79942000Y-41799000D02*
X79942000Y-43799000D01*
X77792000Y-43799000D02*
X77792000Y-41799000D01*
X92261000Y-65548000D02*
X92261000Y-67548000D01*
X90111000Y-67548000D02*
X90111000Y-65548000D01*
X93159000Y-67548000D02*
X93159000Y-65548000D01*
X95309000Y-65548000D02*
X95309000Y-67548000D01*
X98282000Y-60384000D02*
X96282000Y-60384000D01*
X96282000Y-58234000D02*
X98282000Y-58234000D01*
X99583000Y-65477000D02*
X99583000Y-67477000D01*
X97433000Y-67477000D02*
X97433000Y-65477000D01*
X54118000Y-128973000D02*
X56118000Y-128973000D01*
X56118000Y-131123000D02*
X54118000Y-131123000D01*
X46677000Y-121396000D02*
X46677000Y-119396000D01*
X48827000Y-119396000D02*
X48827000Y-121396000D01*
X36052000Y-118296000D02*
X34052000Y-118296000D01*
X34052000Y-116146000D02*
X36052000Y-116146000D01*
X37100000Y-128973000D02*
X39100000Y-128973000D01*
X39100000Y-131123000D02*
X37100000Y-131123000D01*
X137684000Y-127195000D02*
X139684000Y-127195000D01*
X139684000Y-129345000D02*
X137684000Y-129345000D01*
X141970000Y-108771000D02*
X139970000Y-108771000D01*
X139970000Y-106621000D02*
X141970000Y-106621000D01*
X142553000Y-93869000D02*
X142553000Y-95869000D01*
X140403000Y-95869000D02*
X140403000Y-93869000D01*
X132529000Y-127238000D02*
X132529000Y-125238000D01*
X134679000Y-125238000D02*
X134679000Y-127238000D01*
X132529000Y-114792000D02*
X132529000Y-112792000D01*
X134679000Y-112792000D02*
X134679000Y-114792000D01*
X129016000Y-126043000D02*
X127016000Y-126043000D01*
X127016000Y-123893000D02*
X129016000Y-123893000D01*
X127016000Y-117289000D02*
X129016000Y-117289000D01*
X129016000Y-119439000D02*
X127016000Y-119439000D01*
X112284000Y-118305000D02*
X114284000Y-118305000D01*
X114284000Y-120455000D02*
X112284000Y-120455000D01*
X114284000Y-126805000D02*
X112284000Y-126805000D01*
X112284000Y-124655000D02*
X114284000Y-124655000D01*
X129016000Y-122741000D02*
X127016000Y-122741000D01*
X127016000Y-120591000D02*
X129016000Y-120591000D01*
X112284000Y-121480000D02*
X114284000Y-121480000D01*
X114284000Y-123630000D02*
X112284000Y-123630000D01*
X123503000Y-122698000D02*
X123503000Y-124698000D01*
X121353000Y-124698000D02*
X121353000Y-122698000D01*
X40805100Y-150992840D02*
X29806900Y-151792940D01*
X40805100Y-150192740D02*
X29806900Y-150992840D01*
X40805100Y-149392640D02*
X29806900Y-150192740D01*
X40805100Y-148592540D02*
X29806900Y-149392640D01*
X40805100Y-147792440D02*
X29806900Y-148592540D01*
X40805100Y-146992340D02*
X29806900Y-147792440D01*
X36306760Y-161891980D02*
G75*
G03X36306760Y-161891980I-1000760J0D01*
G01*
X30505400Y-153890980D02*
X30505400Y-165892480D01*
X30505400Y-165892480D02*
X40106600Y-165892480D01*
X40106600Y-165892480D02*
X40106600Y-153890980D01*
X29806900Y-146392900D02*
X29806900Y-153890980D01*
X29806900Y-153890980D02*
X40805100Y-153890980D01*
X40805100Y-153890980D02*
X40805100Y-146392900D01*
X43106340Y-131991100D02*
X27505660Y-131991100D01*
X27505660Y-131991100D02*
X27505660Y-146392900D01*
X27505660Y-146392900D02*
X43106340Y-146392900D01*
X43106340Y-146392900D02*
X43106340Y-131991100D01*
X142913100Y-150992840D02*
X131914900Y-151792940D01*
X142913100Y-150192740D02*
X131914900Y-150992840D01*
X142913100Y-149392640D02*
X131914900Y-150192740D01*
X142913100Y-148592540D02*
X131914900Y-149392640D01*
X142913100Y-147792440D02*
X131914900Y-148592540D01*
X142913100Y-146992340D02*
X131914900Y-147792440D01*
X138414760Y-161891980D02*
G75*
G03X138414760Y-161891980I-1000760J0D01*
G01*
X132613400Y-153890980D02*
X132613400Y-165892480D01*
X132613400Y-165892480D02*
X142214600Y-165892480D01*
X142214600Y-165892480D02*
X142214600Y-153890980D01*
X131914900Y-146392900D02*
X131914900Y-153890980D01*
X131914900Y-153890980D02*
X142913100Y-153890980D01*
X142913100Y-153890980D02*
X142913100Y-146392900D01*
X145214340Y-131991100D02*
X129613660Y-131991100D01*
X129613660Y-131991100D02*
X129613660Y-146392900D01*
X129613660Y-146392900D02*
X145214340Y-146392900D01*
X145214340Y-146392900D02*
X145214340Y-131991100D01*
X110363000Y-48641000D02*
X142875000Y-48641000D01*
X142875000Y-48641000D02*
X142875000Y-30861000D01*
X142875000Y-30861000D02*
X110363000Y-30861000D01*
X110363000Y-30861000D02*
X110363000Y-48641000D01*
X117475000Y-30861000D02*
X117475000Y-38481000D01*
X117475000Y-38481000D02*
X135763000Y-38481000D01*
X135763000Y-38481000D02*
X135763000Y-30861000D01*
X118999000Y-30861000D02*
X118999000Y-22225000D01*
X118999000Y-22225000D02*
X134239000Y-22225000D01*
X134239000Y-22225000D02*
X134239000Y-30861000D01*
X49657000Y-31623000D02*
X62357000Y-31623000D01*
X62357000Y-31623000D02*
X62357000Y-34163000D01*
X62357000Y-34163000D02*
X49657000Y-34163000D01*
X46837000Y-31343000D02*
X48387000Y-31343000D01*
X49657000Y-31623000D02*
X49657000Y-34163000D01*
X48387000Y-34443000D02*
X46837000Y-34443000D01*
X46837000Y-34443000D02*
X46837000Y-31343000D01*
X79159100Y-150992840D02*
X68160900Y-151792940D01*
X79159100Y-150192740D02*
X68160900Y-150992840D01*
X79159100Y-149392640D02*
X68160900Y-150192740D01*
X79159100Y-148592540D02*
X68160900Y-149392640D01*
X79159100Y-147792440D02*
X68160900Y-148592540D01*
X79159100Y-146992340D02*
X68160900Y-147792440D01*
X74660760Y-161891980D02*
G75*
G03X74660760Y-161891980I-1000760J0D01*
G01*
X68859400Y-153890980D02*
X68859400Y-165892480D01*
X68859400Y-165892480D02*
X78460600Y-165892480D01*
X78460600Y-165892480D02*
X78460600Y-153890980D01*
X68160900Y-146392900D02*
X68160900Y-153890980D01*
X68160900Y-153890980D02*
X79159100Y-153890980D01*
X79159100Y-153890980D02*
X79159100Y-146392900D01*
X81460340Y-131991100D02*
X65859660Y-131991100D01*
X65859660Y-131991100D02*
X65859660Y-146392900D01*
X65859660Y-146392900D02*
X81460340Y-146392900D01*
X81460340Y-146392900D02*
X81460340Y-131991100D01*
X32976000Y-34219000D02*
X30436000Y-34219000D01*
X35796000Y-34499000D02*
X34246000Y-34499000D01*
X32976000Y-34219000D02*
X32976000Y-31679000D01*
X34246000Y-31399000D02*
X35796000Y-31399000D01*
X35796000Y-31399000D02*
X35796000Y-34499000D01*
X32976000Y-31679000D02*
X30436000Y-31679000D01*
X30436000Y-31679000D02*
X30436000Y-34219000D01*
X104521000Y-139954000D02*
X105918000Y-139954000D01*
X104521000Y-137414000D02*
X105918000Y-137414000D01*
X104521000Y-134874000D02*
X105918000Y-134874000D01*
X93954472Y-137414000D02*
G75*
G03X93954472Y-137414000I-2514472J0D01*
G01*
X96012000Y-132080000D02*
X88011000Y-132080000D01*
X88011000Y-132080000D02*
X88011000Y-142748000D01*
X88011000Y-142748000D02*
X96012000Y-142748000D01*
X104521000Y-132080000D02*
X96012000Y-132080000D01*
X96012000Y-132080000D02*
X96012000Y-142748000D01*
X96012000Y-142748000D02*
X104521000Y-142748000D01*
X104521000Y-137414000D02*
X104521000Y-142748000D01*
X104521000Y-137414000D02*
X104521000Y-132080000D01*
X44831000Y-108966000D02*
X48006000Y-108966000D01*
X48006000Y-108966000D02*
X48006000Y-107188000D01*
X48006000Y-107188000D02*
X44831000Y-107188000D01*
X44831000Y-113538000D02*
X48006000Y-113538000D01*
X48006000Y-113538000D02*
X48006000Y-111760000D01*
X48006000Y-111760000D02*
X44831000Y-111760000D01*
X38735000Y-106934000D02*
X44831000Y-106934000D01*
X44831000Y-106934000D02*
X44831000Y-113792000D01*
X44831000Y-113792000D02*
X36957000Y-113792000D01*
X36830000Y-113792000D02*
X36830000Y-106934000D01*
X36957000Y-106934000D02*
X38735000Y-106934000D01*
X136906000Y-85217000D02*
X133731000Y-85217000D01*
X133731000Y-85217000D02*
X133731000Y-86995000D01*
X133731000Y-86995000D02*
X136906000Y-86995000D01*
X136906000Y-80645000D02*
X133731000Y-80645000D01*
X133731000Y-80645000D02*
X133731000Y-82423000D01*
X133731000Y-82423000D02*
X136906000Y-82423000D01*
X143002000Y-87249000D02*
X136906000Y-87249000D01*
X136906000Y-87249000D02*
X136906000Y-80391000D01*
X136906000Y-80391000D02*
X144780000Y-80391000D01*
X144907000Y-80391000D02*
X144907000Y-87249000D01*
X144780000Y-87249000D02*
X143002000Y-87249000D01*
X95504000Y-108585000D02*
G75*
G03X95504000Y-108585000I-3810000J0D01*
G01*
X95504000Y-120015000D02*
G75*
G03X95504000Y-120015000I-3810000J0D01*
G01*
X75605000Y-117102000D02*
X75605000Y-118102000D01*
X74255000Y-118102000D02*
X74255000Y-117102000D01*
X109474000Y-120015000D02*
G75*
G03X109474000Y-120015000I-3810000J0D01*
G01*
X109474000Y-108585000D02*
G75*
G03X109474000Y-108585000I-3810000J0D01*
G01*
X121753000Y-118102000D02*
X121753000Y-117102000D01*
X123103000Y-117102000D02*
X123103000Y-118102000D01*
X64135000Y-62595760D02*
X63934340Y-62194440D01*
X63934340Y-62194440D02*
X63832740Y-61595000D01*
X63832740Y-61595000D02*
X63934340Y-61094620D01*
X63934340Y-61094620D02*
X64333120Y-60396120D01*
X64333120Y-60396120D02*
X64935100Y-59994800D01*
X64935100Y-59994800D02*
X65534540Y-59794140D01*
X65534540Y-59794140D02*
X72133460Y-59794140D01*
X72133460Y-59794140D02*
X72834500Y-59994800D01*
X72834500Y-59994800D02*
X73233280Y-60294520D01*
X73233280Y-60294520D02*
X73634600Y-60794900D01*
X73634600Y-60794900D02*
X73835260Y-61394340D01*
X73835260Y-61394340D02*
X73835260Y-61894720D01*
X73835260Y-61894720D02*
X73634600Y-62395100D01*
X73634600Y-62395100D02*
X73134220Y-62994540D01*
X73134220Y-62994540D02*
X72633840Y-63294260D01*
X72633840Y-63294260D02*
X72133460Y-63395860D01*
X72034400Y-63395860D02*
X65432940Y-63395860D01*
X65432940Y-63395860D02*
X65034160Y-63294260D01*
X65034160Y-63294260D02*
X64533780Y-62994540D01*
X64533780Y-62994540D02*
X64033400Y-62494160D01*
X72024240Y-63924180D02*
X72483980Y-63875920D01*
X72483980Y-63875920D02*
X72882760Y-63764160D01*
X72882760Y-63764160D02*
X73314560Y-63545720D01*
X73314560Y-63545720D02*
X73604120Y-63314580D01*
X73604120Y-63314580D02*
X73934320Y-62964060D01*
X73934320Y-62964060D02*
X74223880Y-62425580D01*
X74223880Y-62425580D02*
X74353420Y-61826140D01*
X74353420Y-61826140D02*
X74353420Y-61315600D01*
X74353420Y-61315600D02*
X74183240Y-60614560D01*
X74183240Y-60614560D02*
X73784460Y-60025280D01*
X73784460Y-60025280D02*
X73324720Y-59654440D01*
X73324720Y-59654440D02*
X72903080Y-59446160D01*
X72903080Y-59446160D02*
X72453500Y-59286140D01*
X72453500Y-59286140D02*
X72014080Y-59255660D01*
X64673480Y-59474100D02*
X64295020Y-59695080D01*
X64295020Y-59695080D02*
X63974980Y-59974480D01*
X63974980Y-59974480D02*
X63723520Y-60304680D01*
X63723520Y-60304680D02*
X63423800Y-60855860D01*
X63423800Y-60855860D02*
X63314580Y-61325760D01*
X63314580Y-61325760D02*
X63294260Y-61785500D01*
X63294260Y-61785500D02*
X63383160Y-62245240D01*
X63383160Y-62245240D02*
X63573660Y-62694820D01*
X63573660Y-62694820D02*
X63934340Y-63164720D01*
X63934340Y-63164720D02*
X64284860Y-63484760D01*
X64284860Y-63484760D02*
X64673480Y-63715900D01*
X64673480Y-63715900D02*
X65102740Y-63855600D01*
X65102740Y-63855600D02*
X65544700Y-63924180D01*
X72034400Y-59265820D02*
X65582800Y-59265820D01*
X65582800Y-59265820D02*
X65163700Y-59303920D01*
X65163700Y-59303920D02*
X64673480Y-59474100D01*
X72034400Y-63924180D02*
X65582800Y-63924180D01*
X77851000Y-64008000D02*
G75*
G03X77851000Y-64008000I-254000J0D01*
G01*
X88331040Y-63007240D02*
X76332080Y-63007240D01*
X76332080Y-82806540D02*
X76332080Y-63007240D01*
X88531700Y-83804760D02*
X77431900Y-83804760D01*
X89529920Y-64305180D02*
X89529920Y-82806540D01*
X88531700Y-83804760D02*
G75*
G03X89529920Y-82806540I0J998220D01*
G01*
X89529920Y-64201040D02*
G75*
G03X88331040Y-63002160I-1198880J0D01*
G01*
X76332080Y-82806540D02*
G75*
G03X77330300Y-83804760I998220J0D01*
G01*
X143070580Y-123164600D02*
X141970760Y-120464580D01*
X141970760Y-120464580D02*
X144670780Y-121864120D01*
X144670780Y-121864120D02*
X142770860Y-119664480D01*
X142770860Y-119664480D02*
X145669000Y-120164860D01*
X145669000Y-120164860D02*
X143169640Y-118463060D01*
X143169640Y-118463060D02*
X146169380Y-118264940D01*
X146169380Y-118264940D02*
X142770860Y-117264180D01*
X142770860Y-117264180D02*
X145171160Y-115364260D01*
X145171160Y-115364260D02*
X141970760Y-116464080D01*
X141970760Y-116464080D02*
X143070580Y-113665000D01*
X138869420Y-123263660D02*
X140169900Y-120464580D01*
X140169900Y-120464580D02*
X137170160Y-121864120D01*
X137170160Y-121864120D02*
X139070080Y-119263160D01*
X139070080Y-119263160D02*
X135869680Y-119562880D01*
X135869680Y-119562880D02*
X138869420Y-118064280D01*
X138869420Y-118064280D02*
X136169400Y-116763800D01*
X136169400Y-116763800D02*
X139270740Y-116964460D01*
X139270740Y-116964460D02*
X137269220Y-114863880D01*
X137269220Y-114863880D02*
X139969240Y-116365020D01*
X139969240Y-116365020D02*
X138869420Y-113665000D01*
X143070580Y-118364000D02*
G75*
G03X143070580Y-118364000I-2100580J0D01*
G01*
X146270980Y-118364000D02*
G75*
G03X146270980Y-118364000I-5300980J0D01*
G01*
X36532000Y-65334000D02*
X36532000Y-63937000D01*
X33992000Y-65334000D02*
X33992000Y-63937000D01*
X31452000Y-65334000D02*
X31452000Y-63937000D01*
X36506472Y-78415000D02*
G75*
G03X36506472Y-78415000I-2514472J0D01*
G01*
X28658000Y-73843000D02*
X28658000Y-81844000D01*
X28658000Y-81844000D02*
X39326000Y-81844000D01*
X39326000Y-81844000D02*
X39326000Y-73843000D01*
X28658000Y-65334000D02*
X28658000Y-73843000D01*
X28658000Y-73843000D02*
X39326000Y-73843000D01*
X39326000Y-73843000D02*
X39326000Y-65334000D01*
X33992000Y-65334000D02*
X39326000Y-65334000D01*
X33992000Y-65334000D02*
X28658000Y-65334000D01*
X97345500Y-48450500D02*
X97345500Y-47688500D01*
X97345500Y-47688500D02*
X98869500Y-47688500D01*
X98869500Y-47688500D02*
X98869500Y-48450500D01*
X95821500Y-37274500D02*
X100393500Y-37274500D01*
X100393500Y-37274500D02*
X100393500Y-48450500D01*
X100393500Y-48450500D02*
X95821500Y-48450500D01*
X95821500Y-48450500D02*
X95821500Y-37274500D01*
X104886000Y-89526000D02*
X102886000Y-89526000D01*
X102886000Y-91576000D02*
X104886000Y-91576000D01*
X91431000Y-49927000D02*
X91431000Y-51927000D01*
X93481000Y-51927000D02*
X93481000Y-49927000D01*
X109236000Y-143900000D02*
X111236000Y-143900000D01*
X111236000Y-141850000D02*
X109236000Y-141850000D01*
X97679000Y-51317000D02*
X99679000Y-51317000D01*
X99679000Y-49267000D02*
X97679000Y-49267000D01*
X102861000Y-42688000D02*
X102861000Y-44688000D01*
X104911000Y-44688000D02*
X104911000Y-42688000D01*
X102556000Y-34210000D02*
X100556000Y-34210000D01*
X100556000Y-36260000D02*
X102556000Y-36260000D01*
X95901000Y-54111000D02*
X97901000Y-54111000D01*
X97901000Y-52061000D02*
X95901000Y-52061000D01*
X78823000Y-113213000D02*
G75*
G03X78823000Y-113213000I-76200J0D01*
G01*
X79077000Y-113213000D02*
G75*
G03X79077000Y-113213000I-1016000J0D01*
G01*
X118472400Y-113213000D02*
G75*
G03X118472400Y-113213000I-76200J0D01*
G01*
X120098000Y-113213000D02*
G75*
G03X120098000Y-113213000I-1016000J0D01*
G01*
X65127000Y-69394000D02*
X65127000Y-66394000D01*
X67627000Y-66394000D02*
X67627000Y-69394000D01*
X72580000Y-66354000D02*
X72580000Y-69354000D01*
X70080000Y-69354000D02*
X70080000Y-66354000D01*
X39199000Y-39426000D02*
X38437000Y-39426000D01*
X38437000Y-39426000D02*
X38437000Y-38410000D01*
X38437000Y-38410000D02*
X32341000Y-38410000D01*
X32341000Y-38410000D02*
X32341000Y-39426000D01*
X32341000Y-39426000D02*
X31579000Y-39426000D01*
X32341000Y-39426000D02*
X32341000Y-40442000D01*
X32341000Y-40442000D02*
X38437000Y-40442000D01*
X38437000Y-40442000D02*
X38437000Y-39426000D01*
X37929000Y-38410000D02*
X37929000Y-40442000D01*
X37675000Y-40442000D02*
X37675000Y-38410000D01*
X46092000Y-55618000D02*
X47362000Y-55618000D01*
X46092000Y-48268000D02*
X47362000Y-48268000D01*
X83702000Y-48268000D02*
X82432000Y-48268000D01*
X83702000Y-55618000D02*
X82432000Y-55618000D01*
X46092000Y-55618000D02*
X46092000Y-48268000D01*
X83702000Y-55618000D02*
X83702000Y-48268000D01*
X47362000Y-55618000D02*
X47362000Y-56903000D01*
X34400000Y-53510000D02*
X34400000Y-43630000D01*
X40212500Y-48570000D02*
G75*
G03X40212500Y-48570000I-5037500J0D01*
G01*
X95464334Y-102560381D02*
X95131000Y-102084190D01*
X94892905Y-102560381D02*
X94892905Y-101560381D01*
X95273858Y-101560381D01*
X95369096Y-101608000D01*
X95416715Y-101655619D01*
X95464334Y-101750857D01*
X95464334Y-101893714D01*
X95416715Y-101988952D01*
X95369096Y-102036571D01*
X95273858Y-102084190D01*
X94892905Y-102084190D01*
X96321477Y-101893714D02*
X96321477Y-102560381D01*
X96083381Y-101512762D02*
X95845286Y-102227048D01*
X96464334Y-102227048D01*
X105624334Y-102338143D02*
X105576715Y-102385762D01*
X105433858Y-102433381D01*
X105338620Y-102433381D01*
X105195762Y-102385762D01*
X105100524Y-102290524D01*
X105052905Y-102195286D01*
X105005286Y-102004810D01*
X105005286Y-101861952D01*
X105052905Y-101671476D01*
X105100524Y-101576238D01*
X105195762Y-101481000D01*
X105338620Y-101433381D01*
X105433858Y-101433381D01*
X105576715Y-101481000D01*
X105624334Y-101528619D01*
X105957667Y-101433381D02*
X106576715Y-101433381D01*
X106243381Y-101814333D01*
X106386239Y-101814333D01*
X106481477Y-101861952D01*
X106529096Y-101909571D01*
X106576715Y-102004810D01*
X106576715Y-102242905D01*
X106529096Y-102338143D01*
X106481477Y-102385762D01*
X106386239Y-102433381D01*
X106100524Y-102433381D01*
X106005286Y-102385762D01*
X105957667Y-102338143D01*
X59539143Y-127166666D02*
X59586762Y-127214285D01*
X59634381Y-127357142D01*
X59634381Y-127452380D01*
X59586762Y-127595238D01*
X59491524Y-127690476D01*
X59396286Y-127738095D01*
X59205810Y-127785714D01*
X59062952Y-127785714D01*
X58872476Y-127738095D01*
X58777238Y-127690476D01*
X58682000Y-127595238D01*
X58634381Y-127452380D01*
X58634381Y-127357142D01*
X58682000Y-127214285D01*
X58729619Y-127166666D01*
X58967714Y-126309523D02*
X59634381Y-126309523D01*
X58586762Y-126547619D02*
X59301048Y-126785714D01*
X59301048Y-126166666D01*
X48617143Y-110529666D02*
X48664762Y-110577285D01*
X48712381Y-110720142D01*
X48712381Y-110815380D01*
X48664762Y-110958238D01*
X48569524Y-111053476D01*
X48474286Y-111101095D01*
X48283810Y-111148714D01*
X48140952Y-111148714D01*
X47950476Y-111101095D01*
X47855238Y-111053476D01*
X47760000Y-110958238D01*
X47712381Y-110815380D01*
X47712381Y-110720142D01*
X47760000Y-110577285D01*
X47807619Y-110529666D01*
X47712381Y-109624904D02*
X47712381Y-110101095D01*
X48188571Y-110148714D01*
X48140952Y-110101095D01*
X48093333Y-110005857D01*
X48093333Y-109767761D01*
X48140952Y-109672523D01*
X48188571Y-109624904D01*
X48283810Y-109577285D01*
X48521905Y-109577285D01*
X48617143Y-109624904D01*
X48664762Y-109672523D01*
X48712381Y-109767761D01*
X48712381Y-110005857D01*
X48664762Y-110101095D01*
X48617143Y-110148714D01*
X40235143Y-116212857D02*
X40282762Y-116260476D01*
X40330381Y-116403333D01*
X40330381Y-116498571D01*
X40282762Y-116641429D01*
X40187524Y-116736667D01*
X40092286Y-116784286D01*
X39901810Y-116831905D01*
X39758952Y-116831905D01*
X39568476Y-116784286D01*
X39473238Y-116736667D01*
X39378000Y-116641429D01*
X39330381Y-116498571D01*
X39330381Y-116403333D01*
X39378000Y-116260476D01*
X39425619Y-116212857D01*
X40330381Y-115260476D02*
X40330381Y-115831905D01*
X40330381Y-115546191D02*
X39330381Y-115546191D01*
X39473238Y-115641429D01*
X39568476Y-115736667D01*
X39616095Y-115831905D01*
X39425619Y-114879524D02*
X39378000Y-114831905D01*
X39330381Y-114736667D01*
X39330381Y-114498571D01*
X39378000Y-114403333D01*
X39425619Y-114355714D01*
X39520857Y-114308095D01*
X39616095Y-114308095D01*
X39758952Y-114355714D01*
X40330381Y-114927143D01*
X40330381Y-114308095D01*
X108831143Y-78970143D02*
X108783524Y-79017762D01*
X108640667Y-79065381D01*
X108545429Y-79065381D01*
X108402571Y-79017762D01*
X108307333Y-78922524D01*
X108259714Y-78827286D01*
X108212095Y-78636810D01*
X108212095Y-78493952D01*
X108259714Y-78303476D01*
X108307333Y-78208238D01*
X108402571Y-78113000D01*
X108545429Y-78065381D01*
X108640667Y-78065381D01*
X108783524Y-78113000D01*
X108831143Y-78160619D01*
X109783524Y-79065381D02*
X109212095Y-79065381D01*
X109497809Y-79065381D02*
X109497809Y-78065381D01*
X109402571Y-78208238D01*
X109307333Y-78303476D01*
X109212095Y-78351095D01*
X110116857Y-78065381D02*
X110735905Y-78065381D01*
X110402571Y-78446333D01*
X110545429Y-78446333D01*
X110640667Y-78493952D01*
X110688286Y-78541571D01*
X110735905Y-78636810D01*
X110735905Y-78874905D01*
X110688286Y-78970143D01*
X110640667Y-79017762D01*
X110545429Y-79065381D01*
X110259714Y-79065381D01*
X110164476Y-79017762D01*
X110116857Y-78970143D01*
X90924143Y-102338143D02*
X90876524Y-102385762D01*
X90733667Y-102433381D01*
X90638429Y-102433381D01*
X90495571Y-102385762D01*
X90400333Y-102290524D01*
X90352714Y-102195286D01*
X90305095Y-102004810D01*
X90305095Y-101861952D01*
X90352714Y-101671476D01*
X90400333Y-101576238D01*
X90495571Y-101481000D01*
X90638429Y-101433381D01*
X90733667Y-101433381D01*
X90876524Y-101481000D01*
X90924143Y-101528619D01*
X91876524Y-102433381D02*
X91305095Y-102433381D01*
X91590809Y-102433381D02*
X91590809Y-101433381D01*
X91495571Y-101576238D01*
X91400333Y-101671476D01*
X91305095Y-101719095D01*
X92781286Y-101433381D02*
X92305095Y-101433381D01*
X92257476Y-101909571D01*
X92305095Y-101861952D01*
X92400333Y-101814333D01*
X92638429Y-101814333D01*
X92733667Y-101861952D01*
X92781286Y-101909571D01*
X92828905Y-102004810D01*
X92828905Y-102242905D01*
X92781286Y-102338143D01*
X92733667Y-102385762D01*
X92638429Y-102433381D01*
X92400333Y-102433381D01*
X92305095Y-102385762D01*
X92257476Y-102338143D01*
X97893143Y-103512857D02*
X97940762Y-103560476D01*
X97988381Y-103703333D01*
X97988381Y-103798571D01*
X97940762Y-103941429D01*
X97845524Y-104036667D01*
X97750286Y-104084286D01*
X97559810Y-104131905D01*
X97416952Y-104131905D01*
X97226476Y-104084286D01*
X97131238Y-104036667D01*
X97036000Y-103941429D01*
X96988381Y-103798571D01*
X96988381Y-103703333D01*
X97036000Y-103560476D01*
X97083619Y-103512857D01*
X97988381Y-102560476D02*
X97988381Y-103131905D01*
X97988381Y-102846191D02*
X96988381Y-102846191D01*
X97131238Y-102941429D01*
X97226476Y-103036667D01*
X97274095Y-103131905D01*
X96988381Y-101703333D02*
X96988381Y-101893810D01*
X97036000Y-101989048D01*
X97083619Y-102036667D01*
X97226476Y-102131905D01*
X97416952Y-102179524D01*
X97797905Y-102179524D01*
X97893143Y-102131905D01*
X97940762Y-102084286D01*
X97988381Y-101989048D01*
X97988381Y-101798571D01*
X97940762Y-101703333D01*
X97893143Y-101655714D01*
X97797905Y-101608095D01*
X97559810Y-101608095D01*
X97464571Y-101655714D01*
X97416952Y-101703333D01*
X97369333Y-101798571D01*
X97369333Y-101989048D01*
X97416952Y-102084286D01*
X97464571Y-102131905D01*
X97559810Y-102179524D01*
X97893143Y-114942857D02*
X97940762Y-114990476D01*
X97988381Y-115133333D01*
X97988381Y-115228571D01*
X97940762Y-115371429D01*
X97845524Y-115466667D01*
X97750286Y-115514286D01*
X97559810Y-115561905D01*
X97416952Y-115561905D01*
X97226476Y-115514286D01*
X97131238Y-115466667D01*
X97036000Y-115371429D01*
X96988381Y-115228571D01*
X96988381Y-115133333D01*
X97036000Y-114990476D01*
X97083619Y-114942857D01*
X97988381Y-113990476D02*
X97988381Y-114561905D01*
X97988381Y-114276191D02*
X96988381Y-114276191D01*
X97131238Y-114371429D01*
X97226476Y-114466667D01*
X97274095Y-114561905D01*
X96988381Y-113657143D02*
X96988381Y-112990476D01*
X97988381Y-113419048D01*
X98147143Y-126372857D02*
X98194762Y-126420476D01*
X98242381Y-126563333D01*
X98242381Y-126658571D01*
X98194762Y-126801429D01*
X98099524Y-126896667D01*
X98004286Y-126944286D01*
X97813810Y-126991905D01*
X97670952Y-126991905D01*
X97480476Y-126944286D01*
X97385238Y-126896667D01*
X97290000Y-126801429D01*
X97242381Y-126658571D01*
X97242381Y-126563333D01*
X97290000Y-126420476D01*
X97337619Y-126372857D01*
X98242381Y-125420476D02*
X98242381Y-125991905D01*
X98242381Y-125706191D02*
X97242381Y-125706191D01*
X97385238Y-125801429D01*
X97480476Y-125896667D01*
X97528095Y-125991905D01*
X97670952Y-124849048D02*
X97623333Y-124944286D01*
X97575714Y-124991905D01*
X97480476Y-125039524D01*
X97432857Y-125039524D01*
X97337619Y-124991905D01*
X97290000Y-124944286D01*
X97242381Y-124849048D01*
X97242381Y-124658571D01*
X97290000Y-124563333D01*
X97337619Y-124515714D01*
X97432857Y-124468095D01*
X97480476Y-124468095D01*
X97575714Y-124515714D01*
X97623333Y-124563333D01*
X97670952Y-124658571D01*
X97670952Y-124849048D01*
X97718571Y-124944286D01*
X97766190Y-124991905D01*
X97861429Y-125039524D01*
X98051905Y-125039524D01*
X98147143Y-124991905D01*
X98194762Y-124944286D01*
X98242381Y-124849048D01*
X98242381Y-124658571D01*
X98194762Y-124563333D01*
X98147143Y-124515714D01*
X98051905Y-124468095D01*
X97861429Y-124468095D01*
X97766190Y-124515714D01*
X97718571Y-124563333D01*
X97670952Y-124658571D01*
X59384143Y-83725143D02*
X59336524Y-83772762D01*
X59193667Y-83820381D01*
X59098429Y-83820381D01*
X58955571Y-83772762D01*
X58860333Y-83677524D01*
X58812714Y-83582286D01*
X58765095Y-83391810D01*
X58765095Y-83248952D01*
X58812714Y-83058476D01*
X58860333Y-82963238D01*
X58955571Y-82868000D01*
X59098429Y-82820381D01*
X59193667Y-82820381D01*
X59336524Y-82868000D01*
X59384143Y-82915619D01*
X60336524Y-83820381D02*
X59765095Y-83820381D01*
X60050809Y-83820381D02*
X60050809Y-82820381D01*
X59955571Y-82963238D01*
X59860333Y-83058476D01*
X59765095Y-83106095D01*
X60812714Y-83820381D02*
X61003190Y-83820381D01*
X61098429Y-83772762D01*
X61146048Y-83725143D01*
X61241286Y-83582286D01*
X61288905Y-83391810D01*
X61288905Y-83010857D01*
X61241286Y-82915619D01*
X61193667Y-82868000D01*
X61098429Y-82820381D01*
X60907952Y-82820381D01*
X60812714Y-82868000D01*
X60765095Y-82915619D01*
X60717476Y-83010857D01*
X60717476Y-83248952D01*
X60765095Y-83344190D01*
X60812714Y-83391810D01*
X60907952Y-83439429D01*
X61098429Y-83439429D01*
X61193667Y-83391810D01*
X61241286Y-83344190D01*
X61288905Y-83248952D01*
X111863143Y-73921857D02*
X111910762Y-73969476D01*
X111958381Y-74112333D01*
X111958381Y-74207571D01*
X111910762Y-74350429D01*
X111815524Y-74445667D01*
X111720286Y-74493286D01*
X111529810Y-74540905D01*
X111386952Y-74540905D01*
X111196476Y-74493286D01*
X111101238Y-74445667D01*
X111006000Y-74350429D01*
X110958381Y-74207571D01*
X110958381Y-74112333D01*
X111006000Y-73969476D01*
X111053619Y-73921857D01*
X111053619Y-73540905D02*
X111006000Y-73493286D01*
X110958381Y-73398048D01*
X110958381Y-73159952D01*
X111006000Y-73064714D01*
X111053619Y-73017095D01*
X111148857Y-72969476D01*
X111244095Y-72969476D01*
X111386952Y-73017095D01*
X111958381Y-73588524D01*
X111958381Y-72969476D01*
X111958381Y-72017095D02*
X111958381Y-72588524D01*
X111958381Y-72302810D02*
X110958381Y-72302810D01*
X111101238Y-72398048D01*
X111196476Y-72493286D01*
X111244095Y-72588524D01*
X73509143Y-130690857D02*
X73556762Y-130738476D01*
X73604381Y-130881333D01*
X73604381Y-130976571D01*
X73556762Y-131119429D01*
X73461524Y-131214667D01*
X73366286Y-131262286D01*
X73175810Y-131309905D01*
X73032952Y-131309905D01*
X72842476Y-131262286D01*
X72747238Y-131214667D01*
X72652000Y-131119429D01*
X72604381Y-130976571D01*
X72604381Y-130881333D01*
X72652000Y-130738476D01*
X72699619Y-130690857D01*
X72699619Y-130309905D02*
X72652000Y-130262286D01*
X72604381Y-130167048D01*
X72604381Y-129928952D01*
X72652000Y-129833714D01*
X72699619Y-129786095D01*
X72794857Y-129738476D01*
X72890095Y-129738476D01*
X73032952Y-129786095D01*
X73604381Y-130357524D01*
X73604381Y-129738476D01*
X72937714Y-128881333D02*
X73604381Y-128881333D01*
X72556762Y-129119429D02*
X73271048Y-129357524D01*
X73271048Y-128738476D01*
X51524143Y-42171857D02*
X51571762Y-42219476D01*
X51619381Y-42362333D01*
X51619381Y-42457571D01*
X51571762Y-42600429D01*
X51476524Y-42695667D01*
X51381286Y-42743286D01*
X51190810Y-42790905D01*
X51047952Y-42790905D01*
X50857476Y-42743286D01*
X50762238Y-42695667D01*
X50667000Y-42600429D01*
X50619381Y-42457571D01*
X50619381Y-42362333D01*
X50667000Y-42219476D01*
X50714619Y-42171857D01*
X50714619Y-41790905D02*
X50667000Y-41743286D01*
X50619381Y-41648048D01*
X50619381Y-41409952D01*
X50667000Y-41314714D01*
X50714619Y-41267095D01*
X50809857Y-41219476D01*
X50905095Y-41219476D01*
X51047952Y-41267095D01*
X51619381Y-41838524D01*
X51619381Y-41219476D01*
X50619381Y-40314714D02*
X50619381Y-40790905D01*
X51095571Y-40838524D01*
X51047952Y-40790905D01*
X51000333Y-40695667D01*
X51000333Y-40457571D01*
X51047952Y-40362333D01*
X51095571Y-40314714D01*
X51190810Y-40267095D01*
X51428905Y-40267095D01*
X51524143Y-40314714D01*
X51571762Y-40362333D01*
X51619381Y-40457571D01*
X51619381Y-40695667D01*
X51571762Y-40790905D01*
X51524143Y-40838524D01*
X81383143Y-130690857D02*
X81430762Y-130738476D01*
X81478381Y-130881333D01*
X81478381Y-130976571D01*
X81430762Y-131119429D01*
X81335524Y-131214667D01*
X81240286Y-131262286D01*
X81049810Y-131309905D01*
X80906952Y-131309905D01*
X80716476Y-131262286D01*
X80621238Y-131214667D01*
X80526000Y-131119429D01*
X80478381Y-130976571D01*
X80478381Y-130881333D01*
X80526000Y-130738476D01*
X80573619Y-130690857D01*
X80573619Y-130309905D02*
X80526000Y-130262286D01*
X80478381Y-130167048D01*
X80478381Y-129928952D01*
X80526000Y-129833714D01*
X80573619Y-129786095D01*
X80668857Y-129738476D01*
X80764095Y-129738476D01*
X80906952Y-129786095D01*
X81478381Y-130357524D01*
X81478381Y-129738476D01*
X80478381Y-128881333D02*
X80478381Y-129071810D01*
X80526000Y-129167048D01*
X80573619Y-129214667D01*
X80716476Y-129309905D01*
X80906952Y-129357524D01*
X81287905Y-129357524D01*
X81383143Y-129309905D01*
X81430762Y-129262286D01*
X81478381Y-129167048D01*
X81478381Y-128976571D01*
X81430762Y-128881333D01*
X81383143Y-128833714D01*
X81287905Y-128786095D01*
X81049810Y-128786095D01*
X80954571Y-128833714D01*
X80906952Y-128881333D01*
X80859333Y-128976571D01*
X80859333Y-129167048D01*
X80906952Y-129262286D01*
X80954571Y-129309905D01*
X81049810Y-129357524D01*
X81129143Y-61983857D02*
X81176762Y-62031476D01*
X81224381Y-62174333D01*
X81224381Y-62269571D01*
X81176762Y-62412429D01*
X81081524Y-62507667D01*
X80986286Y-62555286D01*
X80795810Y-62602905D01*
X80652952Y-62602905D01*
X80462476Y-62555286D01*
X80367238Y-62507667D01*
X80272000Y-62412429D01*
X80224381Y-62269571D01*
X80224381Y-62174333D01*
X80272000Y-62031476D01*
X80319619Y-61983857D01*
X80319619Y-61602905D02*
X80272000Y-61555286D01*
X80224381Y-61460048D01*
X80224381Y-61221952D01*
X80272000Y-61126714D01*
X80319619Y-61079095D01*
X80414857Y-61031476D01*
X80510095Y-61031476D01*
X80652952Y-61079095D01*
X81224381Y-61650524D01*
X81224381Y-61031476D01*
X80224381Y-60698143D02*
X80224381Y-60031476D01*
X81224381Y-60460048D01*
X88241143Y-116974857D02*
X88288762Y-117022476D01*
X88336381Y-117165333D01*
X88336381Y-117260571D01*
X88288762Y-117403429D01*
X88193524Y-117498667D01*
X88098286Y-117546286D01*
X87907810Y-117593905D01*
X87764952Y-117593905D01*
X87574476Y-117546286D01*
X87479238Y-117498667D01*
X87384000Y-117403429D01*
X87336381Y-117260571D01*
X87336381Y-117165333D01*
X87384000Y-117022476D01*
X87431619Y-116974857D01*
X87431619Y-116593905D02*
X87384000Y-116546286D01*
X87336381Y-116451048D01*
X87336381Y-116212952D01*
X87384000Y-116117714D01*
X87431619Y-116070095D01*
X87526857Y-116022476D01*
X87622095Y-116022476D01*
X87764952Y-116070095D01*
X88336381Y-116641524D01*
X88336381Y-116022476D01*
X87764952Y-115451048D02*
X87717333Y-115546286D01*
X87669714Y-115593905D01*
X87574476Y-115641524D01*
X87526857Y-115641524D01*
X87431619Y-115593905D01*
X87384000Y-115546286D01*
X87336381Y-115451048D01*
X87336381Y-115260571D01*
X87384000Y-115165333D01*
X87431619Y-115117714D01*
X87526857Y-115070095D01*
X87574476Y-115070095D01*
X87669714Y-115117714D01*
X87717333Y-115165333D01*
X87764952Y-115260571D01*
X87764952Y-115451048D01*
X87812571Y-115546286D01*
X87860190Y-115593905D01*
X87955429Y-115641524D01*
X88145905Y-115641524D01*
X88241143Y-115593905D01*
X88288762Y-115546286D01*
X88336381Y-115451048D01*
X88336381Y-115260571D01*
X88288762Y-115165333D01*
X88241143Y-115117714D01*
X88145905Y-115070095D01*
X87955429Y-115070095D01*
X87860190Y-115117714D01*
X87812571Y-115165333D01*
X87764952Y-115260571D01*
X70731143Y-114657143D02*
X70683524Y-114704762D01*
X70540667Y-114752381D01*
X70445429Y-114752381D01*
X70302571Y-114704762D01*
X70207333Y-114609524D01*
X70159714Y-114514286D01*
X70112095Y-114323810D01*
X70112095Y-114180952D01*
X70159714Y-113990476D01*
X70207333Y-113895238D01*
X70302571Y-113800000D01*
X70445429Y-113752381D01*
X70540667Y-113752381D01*
X70683524Y-113800000D01*
X70731143Y-113847619D01*
X71112095Y-113847619D02*
X71159714Y-113800000D01*
X71254952Y-113752381D01*
X71493048Y-113752381D01*
X71588286Y-113800000D01*
X71635905Y-113847619D01*
X71683524Y-113942857D01*
X71683524Y-114038095D01*
X71635905Y-114180952D01*
X71064476Y-114752381D01*
X71683524Y-114752381D01*
X72159714Y-114752381D02*
X72350190Y-114752381D01*
X72445429Y-114704762D01*
X72493048Y-114657143D01*
X72588286Y-114514286D01*
X72635905Y-114323810D01*
X72635905Y-113942857D01*
X72588286Y-113847619D01*
X72540667Y-113800000D01*
X72445429Y-113752381D01*
X72254952Y-113752381D01*
X72159714Y-113800000D01*
X72112095Y-113847619D01*
X72064476Y-113942857D01*
X72064476Y-114180952D01*
X72112095Y-114276190D01*
X72159714Y-114323810D01*
X72254952Y-114371429D01*
X72445429Y-114371429D01*
X72540667Y-114323810D01*
X72588286Y-114276190D01*
X72635905Y-114180952D01*
X91686143Y-73128143D02*
X91638524Y-73175762D01*
X91495667Y-73223381D01*
X91400429Y-73223381D01*
X91257571Y-73175762D01*
X91162333Y-73080524D01*
X91114714Y-72985286D01*
X91067095Y-72794810D01*
X91067095Y-72651952D01*
X91114714Y-72461476D01*
X91162333Y-72366238D01*
X91257571Y-72271000D01*
X91400429Y-72223381D01*
X91495667Y-72223381D01*
X91638524Y-72271000D01*
X91686143Y-72318619D01*
X92019476Y-72223381D02*
X92638524Y-72223381D01*
X92305190Y-72604333D01*
X92448048Y-72604333D01*
X92543286Y-72651952D01*
X92590905Y-72699571D01*
X92638524Y-72794810D01*
X92638524Y-73032905D01*
X92590905Y-73128143D01*
X92543286Y-73175762D01*
X92448048Y-73223381D01*
X92162333Y-73223381D01*
X92067095Y-73175762D01*
X92019476Y-73128143D01*
X93257571Y-72223381D02*
X93352810Y-72223381D01*
X93448048Y-72271000D01*
X93495667Y-72318619D01*
X93543286Y-72413857D01*
X93590905Y-72604333D01*
X93590905Y-72842429D01*
X93543286Y-73032905D01*
X93495667Y-73128143D01*
X93448048Y-73175762D01*
X93352810Y-73223381D01*
X93257571Y-73223381D01*
X93162333Y-73175762D01*
X93114714Y-73128143D01*
X93067095Y-73032905D01*
X93019476Y-72842429D01*
X93019476Y-72604333D01*
X93067095Y-72413857D01*
X93114714Y-72318619D01*
X93162333Y-72271000D01*
X93257571Y-72223381D01*
X91686143Y-90273143D02*
X91638524Y-90320762D01*
X91495667Y-90368381D01*
X91400429Y-90368381D01*
X91257571Y-90320762D01*
X91162333Y-90225524D01*
X91114714Y-90130286D01*
X91067095Y-89939810D01*
X91067095Y-89796952D01*
X91114714Y-89606476D01*
X91162333Y-89511238D01*
X91257571Y-89416000D01*
X91400429Y-89368381D01*
X91495667Y-89368381D01*
X91638524Y-89416000D01*
X91686143Y-89463619D01*
X92019476Y-89368381D02*
X92638524Y-89368381D01*
X92305190Y-89749333D01*
X92448048Y-89749333D01*
X92543286Y-89796952D01*
X92590905Y-89844571D01*
X92638524Y-89939810D01*
X92638524Y-90177905D01*
X92590905Y-90273143D01*
X92543286Y-90320762D01*
X92448048Y-90368381D01*
X92162333Y-90368381D01*
X92067095Y-90320762D01*
X92019476Y-90273143D01*
X93590905Y-90368381D02*
X93019476Y-90368381D01*
X93305190Y-90368381D02*
X93305190Y-89368381D01*
X93209952Y-89511238D01*
X93114714Y-89606476D01*
X93019476Y-89654095D01*
X105275143Y-80621143D02*
X105227524Y-80668762D01*
X105084667Y-80716381D01*
X104989429Y-80716381D01*
X104846571Y-80668762D01*
X104751333Y-80573524D01*
X104703714Y-80478286D01*
X104656095Y-80287810D01*
X104656095Y-80144952D01*
X104703714Y-79954476D01*
X104751333Y-79859238D01*
X104846571Y-79764000D01*
X104989429Y-79716381D01*
X105084667Y-79716381D01*
X105227524Y-79764000D01*
X105275143Y-79811619D01*
X105608476Y-79716381D02*
X106227524Y-79716381D01*
X105894190Y-80097333D01*
X106037048Y-80097333D01*
X106132286Y-80144952D01*
X106179905Y-80192571D01*
X106227524Y-80287810D01*
X106227524Y-80525905D01*
X106179905Y-80621143D01*
X106132286Y-80668762D01*
X106037048Y-80716381D01*
X105751333Y-80716381D01*
X105656095Y-80668762D01*
X105608476Y-80621143D01*
X106608476Y-79811619D02*
X106656095Y-79764000D01*
X106751333Y-79716381D01*
X106989429Y-79716381D01*
X107084667Y-79764000D01*
X107132286Y-79811619D01*
X107179905Y-79906857D01*
X107179905Y-80002095D01*
X107132286Y-80144952D01*
X106560857Y-80716381D01*
X107179905Y-80716381D01*
X46331143Y-128404857D02*
X46378762Y-128452476D01*
X46426381Y-128595333D01*
X46426381Y-128690571D01*
X46378762Y-128833429D01*
X46283524Y-128928667D01*
X46188286Y-128976286D01*
X45997810Y-129023905D01*
X45854952Y-129023905D01*
X45664476Y-128976286D01*
X45569238Y-128928667D01*
X45474000Y-128833429D01*
X45426381Y-128690571D01*
X45426381Y-128595333D01*
X45474000Y-128452476D01*
X45521619Y-128404857D01*
X45426381Y-128071524D02*
X45426381Y-127452476D01*
X45807333Y-127785810D01*
X45807333Y-127642952D01*
X45854952Y-127547714D01*
X45902571Y-127500095D01*
X45997810Y-127452476D01*
X46235905Y-127452476D01*
X46331143Y-127500095D01*
X46378762Y-127547714D01*
X46426381Y-127642952D01*
X46426381Y-127928667D01*
X46378762Y-128023905D01*
X46331143Y-128071524D01*
X45426381Y-127119143D02*
X45426381Y-126500095D01*
X45807333Y-126833429D01*
X45807333Y-126690571D01*
X45854952Y-126595333D01*
X45902571Y-126547714D01*
X45997810Y-126500095D01*
X46235905Y-126500095D01*
X46331143Y-126547714D01*
X46378762Y-126595333D01*
X46426381Y-126690571D01*
X46426381Y-126976286D01*
X46378762Y-127071524D01*
X46331143Y-127119143D01*
X50919143Y-118213143D02*
X50871524Y-118260762D01*
X50728667Y-118308381D01*
X50633429Y-118308381D01*
X50490571Y-118260762D01*
X50395333Y-118165524D01*
X50347714Y-118070286D01*
X50300095Y-117879810D01*
X50300095Y-117736952D01*
X50347714Y-117546476D01*
X50395333Y-117451238D01*
X50490571Y-117356000D01*
X50633429Y-117308381D01*
X50728667Y-117308381D01*
X50871524Y-117356000D01*
X50919143Y-117403619D01*
X51252476Y-117308381D02*
X51871524Y-117308381D01*
X51538190Y-117689333D01*
X51681048Y-117689333D01*
X51776286Y-117736952D01*
X51823905Y-117784571D01*
X51871524Y-117879810D01*
X51871524Y-118117905D01*
X51823905Y-118213143D01*
X51776286Y-118260762D01*
X51681048Y-118308381D01*
X51395333Y-118308381D01*
X51300095Y-118260762D01*
X51252476Y-118213143D01*
X52728667Y-117641714D02*
X52728667Y-118308381D01*
X52490571Y-117260762D02*
X52252476Y-117975048D01*
X52871524Y-117975048D01*
X58523143Y-116212857D02*
X58570762Y-116260476D01*
X58618381Y-116403333D01*
X58618381Y-116498571D01*
X58570762Y-116641429D01*
X58475524Y-116736667D01*
X58380286Y-116784286D01*
X58189810Y-116831905D01*
X58046952Y-116831905D01*
X57856476Y-116784286D01*
X57761238Y-116736667D01*
X57666000Y-116641429D01*
X57618381Y-116498571D01*
X57618381Y-116403333D01*
X57666000Y-116260476D01*
X57713619Y-116212857D01*
X57618381Y-115879524D02*
X57618381Y-115260476D01*
X57999333Y-115593810D01*
X57999333Y-115450952D01*
X58046952Y-115355714D01*
X58094571Y-115308095D01*
X58189810Y-115260476D01*
X58427905Y-115260476D01*
X58523143Y-115308095D01*
X58570762Y-115355714D01*
X58618381Y-115450952D01*
X58618381Y-115736667D01*
X58570762Y-115831905D01*
X58523143Y-115879524D01*
X57618381Y-114355714D02*
X57618381Y-114831905D01*
X58094571Y-114879524D01*
X58046952Y-114831905D01*
X57999333Y-114736667D01*
X57999333Y-114498571D01*
X58046952Y-114403333D01*
X58094571Y-114355714D01*
X58189810Y-114308095D01*
X58427905Y-114308095D01*
X58523143Y-114355714D01*
X58570762Y-114403333D01*
X58618381Y-114498571D01*
X58618381Y-114736667D01*
X58570762Y-114831905D01*
X58523143Y-114879524D01*
X31599143Y-131452857D02*
X31646762Y-131500476D01*
X31694381Y-131643333D01*
X31694381Y-131738571D01*
X31646762Y-131881429D01*
X31551524Y-131976667D01*
X31456286Y-132024286D01*
X31265810Y-132071905D01*
X31122952Y-132071905D01*
X30932476Y-132024286D01*
X30837238Y-131976667D01*
X30742000Y-131881429D01*
X30694381Y-131738571D01*
X30694381Y-131643333D01*
X30742000Y-131500476D01*
X30789619Y-131452857D01*
X30694381Y-131119524D02*
X30694381Y-130500476D01*
X31075333Y-130833810D01*
X31075333Y-130690952D01*
X31122952Y-130595714D01*
X31170571Y-130548095D01*
X31265810Y-130500476D01*
X31503905Y-130500476D01*
X31599143Y-130548095D01*
X31646762Y-130595714D01*
X31694381Y-130690952D01*
X31694381Y-130976667D01*
X31646762Y-131071905D01*
X31599143Y-131119524D01*
X30694381Y-129643333D02*
X30694381Y-129833810D01*
X30742000Y-129929048D01*
X30789619Y-129976667D01*
X30932476Y-130071905D01*
X31122952Y-130119524D01*
X31503905Y-130119524D01*
X31599143Y-130071905D01*
X31646762Y-130024286D01*
X31694381Y-129929048D01*
X31694381Y-129738571D01*
X31646762Y-129643333D01*
X31599143Y-129595714D01*
X31503905Y-129548095D01*
X31265810Y-129548095D01*
X31170571Y-129595714D01*
X31122952Y-129643333D01*
X31075333Y-129738571D01*
X31075333Y-129929048D01*
X31122952Y-130024286D01*
X31170571Y-130071905D01*
X31265810Y-130119524D01*
X131183143Y-96115143D02*
X131135524Y-96162762D01*
X130992667Y-96210381D01*
X130897429Y-96210381D01*
X130754571Y-96162762D01*
X130659333Y-96067524D01*
X130611714Y-95972286D01*
X130564095Y-95781810D01*
X130564095Y-95638952D01*
X130611714Y-95448476D01*
X130659333Y-95353238D01*
X130754571Y-95258000D01*
X130897429Y-95210381D01*
X130992667Y-95210381D01*
X131135524Y-95258000D01*
X131183143Y-95305619D01*
X131516476Y-95210381D02*
X132135524Y-95210381D01*
X131802190Y-95591333D01*
X131945048Y-95591333D01*
X132040286Y-95638952D01*
X132087905Y-95686571D01*
X132135524Y-95781810D01*
X132135524Y-96019905D01*
X132087905Y-96115143D01*
X132040286Y-96162762D01*
X131945048Y-96210381D01*
X131659333Y-96210381D01*
X131564095Y-96162762D01*
X131516476Y-96115143D01*
X132468857Y-95210381D02*
X133135524Y-95210381D01*
X132706952Y-96210381D01*
X27916143Y-120784857D02*
X27963762Y-120832476D01*
X28011381Y-120975333D01*
X28011381Y-121070571D01*
X27963762Y-121213429D01*
X27868524Y-121308667D01*
X27773286Y-121356286D01*
X27582810Y-121403905D01*
X27439952Y-121403905D01*
X27249476Y-121356286D01*
X27154238Y-121308667D01*
X27059000Y-121213429D01*
X27011381Y-121070571D01*
X27011381Y-120975333D01*
X27059000Y-120832476D01*
X27106619Y-120784857D01*
X27344714Y-119927714D02*
X28011381Y-119927714D01*
X26963762Y-120165810D02*
X27678048Y-120403905D01*
X27678048Y-119784857D01*
X27011381Y-119213429D02*
X27011381Y-119118190D01*
X27059000Y-119022952D01*
X27106619Y-118975333D01*
X27201857Y-118927714D01*
X27392333Y-118880095D01*
X27630429Y-118880095D01*
X27820905Y-118927714D01*
X27916143Y-118975333D01*
X27963762Y-119022952D01*
X28011381Y-119118190D01*
X28011381Y-119213429D01*
X27963762Y-119308667D01*
X27916143Y-119356286D01*
X27820905Y-119403905D01*
X27630429Y-119451524D01*
X27392333Y-119451524D01*
X27201857Y-119403905D01*
X27106619Y-119356286D01*
X27059000Y-119308667D01*
X27011381Y-119213429D01*
X138295143Y-88241143D02*
X138247524Y-88288762D01*
X138104667Y-88336381D01*
X138009429Y-88336381D01*
X137866571Y-88288762D01*
X137771333Y-88193524D01*
X137723714Y-88098286D01*
X137676095Y-87907810D01*
X137676095Y-87764952D01*
X137723714Y-87574476D01*
X137771333Y-87479238D01*
X137866571Y-87384000D01*
X138009429Y-87336381D01*
X138104667Y-87336381D01*
X138247524Y-87384000D01*
X138295143Y-87431619D01*
X139152286Y-87669714D02*
X139152286Y-88336381D01*
X138914190Y-87288762D02*
X138676095Y-88003048D01*
X139295143Y-88003048D01*
X140199905Y-88336381D02*
X139628476Y-88336381D01*
X139914190Y-88336381D02*
X139914190Y-87336381D01*
X139818952Y-87479238D01*
X139723714Y-87574476D01*
X139628476Y-87622095D01*
X43537143Y-125102857D02*
X43584762Y-125150476D01*
X43632381Y-125293333D01*
X43632381Y-125388571D01*
X43584762Y-125531429D01*
X43489524Y-125626667D01*
X43394286Y-125674286D01*
X43203810Y-125721905D01*
X43060952Y-125721905D01*
X42870476Y-125674286D01*
X42775238Y-125626667D01*
X42680000Y-125531429D01*
X42632381Y-125388571D01*
X42632381Y-125293333D01*
X42680000Y-125150476D01*
X42727619Y-125102857D01*
X42965714Y-124245714D02*
X43632381Y-124245714D01*
X42584762Y-124483810D02*
X43299048Y-124721905D01*
X43299048Y-124102857D01*
X42727619Y-123769524D02*
X42680000Y-123721905D01*
X42632381Y-123626667D01*
X42632381Y-123388571D01*
X42680000Y-123293333D01*
X42727619Y-123245714D01*
X42822857Y-123198095D01*
X42918095Y-123198095D01*
X43060952Y-123245714D01*
X43632381Y-123817143D01*
X43632381Y-123198095D01*
X142851143Y-100464857D02*
X142898762Y-100512476D01*
X142946381Y-100655333D01*
X142946381Y-100750571D01*
X142898762Y-100893429D01*
X142803524Y-100988667D01*
X142708286Y-101036286D01*
X142517810Y-101083905D01*
X142374952Y-101083905D01*
X142184476Y-101036286D01*
X142089238Y-100988667D01*
X141994000Y-100893429D01*
X141946381Y-100750571D01*
X141946381Y-100655333D01*
X141994000Y-100512476D01*
X142041619Y-100464857D01*
X142279714Y-99607714D02*
X142946381Y-99607714D01*
X141898762Y-99845810D02*
X142613048Y-100083905D01*
X142613048Y-99464857D01*
X141946381Y-99179143D02*
X141946381Y-98560095D01*
X142327333Y-98893429D01*
X142327333Y-98750571D01*
X142374952Y-98655333D01*
X142422571Y-98607714D01*
X142517810Y-98560095D01*
X142755905Y-98560095D01*
X142851143Y-98607714D01*
X142898762Y-98655333D01*
X142946381Y-98750571D01*
X142946381Y-99036286D01*
X142898762Y-99131524D01*
X142851143Y-99179143D01*
X143629143Y-88241143D02*
X143581524Y-88288762D01*
X143438667Y-88336381D01*
X143343429Y-88336381D01*
X143200571Y-88288762D01*
X143105333Y-88193524D01*
X143057714Y-88098286D01*
X143010095Y-87907810D01*
X143010095Y-87764952D01*
X143057714Y-87574476D01*
X143105333Y-87479238D01*
X143200571Y-87384000D01*
X143343429Y-87336381D01*
X143438667Y-87336381D01*
X143581524Y-87384000D01*
X143629143Y-87431619D01*
X144486286Y-87669714D02*
X144486286Y-88336381D01*
X144248190Y-87288762D02*
X144010095Y-88003048D01*
X144629143Y-88003048D01*
X145438667Y-87669714D02*
X145438667Y-88336381D01*
X145200571Y-87288762D02*
X144962476Y-88003048D01*
X145581524Y-88003048D01*
X131183143Y-80367143D02*
X131135524Y-80414762D01*
X130992667Y-80462381D01*
X130897429Y-80462381D01*
X130754571Y-80414762D01*
X130659333Y-80319524D01*
X130611714Y-80224286D01*
X130564095Y-80033810D01*
X130564095Y-79890952D01*
X130611714Y-79700476D01*
X130659333Y-79605238D01*
X130754571Y-79510000D01*
X130897429Y-79462381D01*
X130992667Y-79462381D01*
X131135524Y-79510000D01*
X131183143Y-79557619D01*
X132040286Y-79795714D02*
X132040286Y-80462381D01*
X131802190Y-79414762D02*
X131564095Y-80129048D01*
X132183143Y-80129048D01*
X133040286Y-79462381D02*
X132564095Y-79462381D01*
X132516476Y-79938571D01*
X132564095Y-79890952D01*
X132659333Y-79843333D01*
X132897429Y-79843333D01*
X132992667Y-79890952D01*
X133040286Y-79938571D01*
X133087905Y-80033810D01*
X133087905Y-80271905D01*
X133040286Y-80367143D01*
X132992667Y-80414762D01*
X132897429Y-80462381D01*
X132659333Y-80462381D01*
X132564095Y-80414762D01*
X132516476Y-80367143D01*
X43791143Y-120784857D02*
X43838762Y-120832476D01*
X43886381Y-120975333D01*
X43886381Y-121070571D01*
X43838762Y-121213429D01*
X43743524Y-121308667D01*
X43648286Y-121356286D01*
X43457810Y-121403905D01*
X43314952Y-121403905D01*
X43124476Y-121356286D01*
X43029238Y-121308667D01*
X42934000Y-121213429D01*
X42886381Y-121070571D01*
X42886381Y-120975333D01*
X42934000Y-120832476D01*
X42981619Y-120784857D01*
X43219714Y-119927714D02*
X43886381Y-119927714D01*
X42838762Y-120165810D02*
X43553048Y-120403905D01*
X43553048Y-119784857D01*
X42886381Y-118975333D02*
X42886381Y-119165810D01*
X42934000Y-119261048D01*
X42981619Y-119308667D01*
X43124476Y-119403905D01*
X43314952Y-119451524D01*
X43695905Y-119451524D01*
X43791143Y-119403905D01*
X43838762Y-119356286D01*
X43886381Y-119261048D01*
X43886381Y-119070571D01*
X43838762Y-118975333D01*
X43791143Y-118927714D01*
X43695905Y-118880095D01*
X43457810Y-118880095D01*
X43362571Y-118927714D01*
X43314952Y-118975333D01*
X43267333Y-119070571D01*
X43267333Y-119261048D01*
X43314952Y-119356286D01*
X43362571Y-119403905D01*
X43457810Y-119451524D01*
X137517143Y-104528857D02*
X137564762Y-104576476D01*
X137612381Y-104719333D01*
X137612381Y-104814571D01*
X137564762Y-104957429D01*
X137469524Y-105052667D01*
X137374286Y-105100286D01*
X137183810Y-105147905D01*
X137040952Y-105147905D01*
X136850476Y-105100286D01*
X136755238Y-105052667D01*
X136660000Y-104957429D01*
X136612381Y-104814571D01*
X136612381Y-104719333D01*
X136660000Y-104576476D01*
X136707619Y-104528857D01*
X136945714Y-103671714D02*
X137612381Y-103671714D01*
X136564762Y-103909810D02*
X137279048Y-104147905D01*
X137279048Y-103528857D01*
X136612381Y-103243143D02*
X136612381Y-102576476D01*
X137612381Y-103005048D01*
X100306143Y-126372857D02*
X100353762Y-126420476D01*
X100401381Y-126563333D01*
X100401381Y-126658571D01*
X100353762Y-126801429D01*
X100258524Y-126896667D01*
X100163286Y-126944286D01*
X99972810Y-126991905D01*
X99829952Y-126991905D01*
X99639476Y-126944286D01*
X99544238Y-126896667D01*
X99449000Y-126801429D01*
X99401381Y-126658571D01*
X99401381Y-126563333D01*
X99449000Y-126420476D01*
X99496619Y-126372857D01*
X99734714Y-125515714D02*
X100401381Y-125515714D01*
X99353762Y-125753810D02*
X100068048Y-125991905D01*
X100068048Y-125372857D01*
X99829952Y-124849048D02*
X99782333Y-124944286D01*
X99734714Y-124991905D01*
X99639476Y-125039524D01*
X99591857Y-125039524D01*
X99496619Y-124991905D01*
X99449000Y-124944286D01*
X99401381Y-124849048D01*
X99401381Y-124658571D01*
X99449000Y-124563333D01*
X99496619Y-124515714D01*
X99591857Y-124468095D01*
X99639476Y-124468095D01*
X99734714Y-124515714D01*
X99782333Y-124563333D01*
X99829952Y-124658571D01*
X99829952Y-124849048D01*
X99877571Y-124944286D01*
X99925190Y-124991905D01*
X100020429Y-125039524D01*
X100210905Y-125039524D01*
X100306143Y-124991905D01*
X100353762Y-124944286D01*
X100401381Y-124849048D01*
X100401381Y-124658571D01*
X100353762Y-124563333D01*
X100306143Y-124515714D01*
X100210905Y-124468095D01*
X100020429Y-124468095D01*
X99925190Y-124515714D01*
X99877571Y-124563333D01*
X99829952Y-124658571D01*
X100306143Y-114942857D02*
X100353762Y-114990476D01*
X100401381Y-115133333D01*
X100401381Y-115228571D01*
X100353762Y-115371429D01*
X100258524Y-115466667D01*
X100163286Y-115514286D01*
X99972810Y-115561905D01*
X99829952Y-115561905D01*
X99639476Y-115514286D01*
X99544238Y-115466667D01*
X99449000Y-115371429D01*
X99401381Y-115228571D01*
X99401381Y-115133333D01*
X99449000Y-114990476D01*
X99496619Y-114942857D01*
X99734714Y-114085714D02*
X100401381Y-114085714D01*
X99353762Y-114323810D02*
X100068048Y-114561905D01*
X100068048Y-113942857D01*
X100401381Y-113514286D02*
X100401381Y-113323810D01*
X100353762Y-113228571D01*
X100306143Y-113180952D01*
X100163286Y-113085714D01*
X99972810Y-113038095D01*
X99591857Y-113038095D01*
X99496619Y-113085714D01*
X99449000Y-113133333D01*
X99401381Y-113228571D01*
X99401381Y-113419048D01*
X99449000Y-113514286D01*
X99496619Y-113561905D01*
X99591857Y-113609524D01*
X99829952Y-113609524D01*
X99925190Y-113561905D01*
X99972810Y-113514286D01*
X100020429Y-113419048D01*
X100020429Y-113228571D01*
X99972810Y-113133333D01*
X99925190Y-113085714D01*
X99829952Y-113038095D01*
X100052143Y-103512857D02*
X100099762Y-103560476D01*
X100147381Y-103703333D01*
X100147381Y-103798571D01*
X100099762Y-103941429D01*
X100004524Y-104036667D01*
X99909286Y-104084286D01*
X99718810Y-104131905D01*
X99575952Y-104131905D01*
X99385476Y-104084286D01*
X99290238Y-104036667D01*
X99195000Y-103941429D01*
X99147381Y-103798571D01*
X99147381Y-103703333D01*
X99195000Y-103560476D01*
X99242619Y-103512857D01*
X99147381Y-102608095D02*
X99147381Y-103084286D01*
X99623571Y-103131905D01*
X99575952Y-103084286D01*
X99528333Y-102989048D01*
X99528333Y-102750952D01*
X99575952Y-102655714D01*
X99623571Y-102608095D01*
X99718810Y-102560476D01*
X99956905Y-102560476D01*
X100052143Y-102608095D01*
X100099762Y-102655714D01*
X100147381Y-102750952D01*
X100147381Y-102989048D01*
X100099762Y-103084286D01*
X100052143Y-103131905D01*
X99147381Y-101941429D02*
X99147381Y-101846190D01*
X99195000Y-101750952D01*
X99242619Y-101703333D01*
X99337857Y-101655714D01*
X99528333Y-101608095D01*
X99766429Y-101608095D01*
X99956905Y-101655714D01*
X100052143Y-101703333D01*
X100099762Y-101750952D01*
X100147381Y-101846190D01*
X100147381Y-101941429D01*
X100099762Y-102036667D01*
X100052143Y-102084286D01*
X99956905Y-102131905D01*
X99766429Y-102179524D01*
X99528333Y-102179524D01*
X99337857Y-102131905D01*
X99242619Y-102084286D01*
X99195000Y-102036667D01*
X99147381Y-101941429D01*
X124563143Y-128912857D02*
X124610762Y-128960476D01*
X124658381Y-129103333D01*
X124658381Y-129198571D01*
X124610762Y-129341429D01*
X124515524Y-129436667D01*
X124420286Y-129484286D01*
X124229810Y-129531905D01*
X124086952Y-129531905D01*
X123896476Y-129484286D01*
X123801238Y-129436667D01*
X123706000Y-129341429D01*
X123658381Y-129198571D01*
X123658381Y-129103333D01*
X123706000Y-128960476D01*
X123753619Y-128912857D01*
X123658381Y-128008095D02*
X123658381Y-128484286D01*
X124134571Y-128531905D01*
X124086952Y-128484286D01*
X124039333Y-128389048D01*
X124039333Y-128150952D01*
X124086952Y-128055714D01*
X124134571Y-128008095D01*
X124229810Y-127960476D01*
X124467905Y-127960476D01*
X124563143Y-128008095D01*
X124610762Y-128055714D01*
X124658381Y-128150952D01*
X124658381Y-128389048D01*
X124610762Y-128484286D01*
X124563143Y-128531905D01*
X124658381Y-127008095D02*
X124658381Y-127579524D01*
X124658381Y-127293810D02*
X123658381Y-127293810D01*
X123801238Y-127389048D01*
X123896476Y-127484286D01*
X123944095Y-127579524D01*
X124563143Y-115958857D02*
X124610762Y-116006476D01*
X124658381Y-116149333D01*
X124658381Y-116244571D01*
X124610762Y-116387429D01*
X124515524Y-116482667D01*
X124420286Y-116530286D01*
X124229810Y-116577905D01*
X124086952Y-116577905D01*
X123896476Y-116530286D01*
X123801238Y-116482667D01*
X123706000Y-116387429D01*
X123658381Y-116244571D01*
X123658381Y-116149333D01*
X123706000Y-116006476D01*
X123753619Y-115958857D01*
X123658381Y-115054095D02*
X123658381Y-115530286D01*
X124134571Y-115577905D01*
X124086952Y-115530286D01*
X124039333Y-115435048D01*
X124039333Y-115196952D01*
X124086952Y-115101714D01*
X124134571Y-115054095D01*
X124229810Y-115006476D01*
X124467905Y-115006476D01*
X124563143Y-115054095D01*
X124610762Y-115101714D01*
X124658381Y-115196952D01*
X124658381Y-115435048D01*
X124610762Y-115530286D01*
X124563143Y-115577905D01*
X123753619Y-114625524D02*
X123706000Y-114577905D01*
X123658381Y-114482667D01*
X123658381Y-114244571D01*
X123706000Y-114149333D01*
X123753619Y-114101714D01*
X123848857Y-114054095D01*
X123944095Y-114054095D01*
X124086952Y-114101714D01*
X124658381Y-114673143D01*
X124658381Y-114054095D01*
X117451143Y-116847857D02*
X117498762Y-116895476D01*
X117546381Y-117038333D01*
X117546381Y-117133571D01*
X117498762Y-117276429D01*
X117403524Y-117371667D01*
X117308286Y-117419286D01*
X117117810Y-117466905D01*
X116974952Y-117466905D01*
X116784476Y-117419286D01*
X116689238Y-117371667D01*
X116594000Y-117276429D01*
X116546381Y-117133571D01*
X116546381Y-117038333D01*
X116594000Y-116895476D01*
X116641619Y-116847857D01*
X116546381Y-115943095D02*
X116546381Y-116419286D01*
X117022571Y-116466905D01*
X116974952Y-116419286D01*
X116927333Y-116324048D01*
X116927333Y-116085952D01*
X116974952Y-115990714D01*
X117022571Y-115943095D01*
X117117810Y-115895476D01*
X117355905Y-115895476D01*
X117451143Y-115943095D01*
X117498762Y-115990714D01*
X117546381Y-116085952D01*
X117546381Y-116324048D01*
X117498762Y-116419286D01*
X117451143Y-116466905D01*
X116546381Y-115562143D02*
X116546381Y-114943095D01*
X116927333Y-115276429D01*
X116927333Y-115133571D01*
X116974952Y-115038333D01*
X117022571Y-114990714D01*
X117117810Y-114943095D01*
X117355905Y-114943095D01*
X117451143Y-114990714D01*
X117498762Y-115038333D01*
X117546381Y-115133571D01*
X117546381Y-115419286D01*
X117498762Y-115514524D01*
X117451143Y-115562143D01*
X121785143Y-135993143D02*
X121737524Y-136040762D01*
X121594667Y-136088381D01*
X121499429Y-136088381D01*
X121356571Y-136040762D01*
X121261333Y-135945524D01*
X121213714Y-135850286D01*
X121166095Y-135659810D01*
X121166095Y-135516952D01*
X121213714Y-135326476D01*
X121261333Y-135231238D01*
X121356571Y-135136000D01*
X121499429Y-135088381D01*
X121594667Y-135088381D01*
X121737524Y-135136000D01*
X121785143Y-135183619D01*
X122689905Y-135088381D02*
X122213714Y-135088381D01*
X122166095Y-135564571D01*
X122213714Y-135516952D01*
X122308952Y-135469333D01*
X122547048Y-135469333D01*
X122642286Y-135516952D01*
X122689905Y-135564571D01*
X122737524Y-135659810D01*
X122737524Y-135897905D01*
X122689905Y-135993143D01*
X122642286Y-136040762D01*
X122547048Y-136088381D01*
X122308952Y-136088381D01*
X122213714Y-136040762D01*
X122166095Y-135993143D01*
X123594667Y-135421714D02*
X123594667Y-136088381D01*
X123356571Y-135040762D02*
X123118476Y-135755048D01*
X123737524Y-135755048D01*
X62463905Y-45847381D02*
X62463905Y-44847381D01*
X62702000Y-44847381D01*
X62844858Y-44895000D01*
X62940096Y-44990238D01*
X62987715Y-45085476D01*
X63035334Y-45275952D01*
X63035334Y-45418810D01*
X62987715Y-45609286D01*
X62940096Y-45704524D01*
X62844858Y-45799762D01*
X62702000Y-45847381D01*
X62463905Y-45847381D01*
X63987715Y-45847381D02*
X63416286Y-45847381D01*
X63702000Y-45847381D02*
X63702000Y-44847381D01*
X63606762Y-44990238D01*
X63511524Y-45085476D01*
X63416286Y-45133095D01*
X45191905Y-46101381D02*
X45191905Y-45101381D01*
X45430000Y-45101381D01*
X45572858Y-45149000D01*
X45668096Y-45244238D01*
X45715715Y-45339476D01*
X45763334Y-45529952D01*
X45763334Y-45672810D01*
X45715715Y-45863286D01*
X45668096Y-45958524D01*
X45572858Y-46053762D01*
X45430000Y-46101381D01*
X45191905Y-46101381D01*
X46144286Y-45196619D02*
X46191905Y-45149000D01*
X46287143Y-45101381D01*
X46525239Y-45101381D01*
X46620477Y-45149000D01*
X46668096Y-45196619D01*
X46715715Y-45291857D01*
X46715715Y-45387095D01*
X46668096Y-45529952D01*
X46096667Y-46101381D01*
X46715715Y-46101381D01*
X62396810Y-79700381D02*
X62396810Y-78700381D01*
X63444429Y-79605143D02*
X63396810Y-79652762D01*
X63253953Y-79700381D01*
X63158715Y-79700381D01*
X63015857Y-79652762D01*
X62920619Y-79557524D01*
X62873000Y-79462286D01*
X62825381Y-79271810D01*
X62825381Y-79128952D01*
X62873000Y-78938476D01*
X62920619Y-78843238D01*
X63015857Y-78748000D01*
X63158715Y-78700381D01*
X63253953Y-78700381D01*
X63396810Y-78748000D01*
X63444429Y-78795619D01*
X64301572Y-79033714D02*
X64301572Y-79700381D01*
X64063476Y-78652762D02*
X63825381Y-79367048D01*
X64444429Y-79367048D01*
X116879810Y-87701381D02*
X116879810Y-86701381D01*
X117927429Y-87606143D02*
X117879810Y-87653762D01*
X117736953Y-87701381D01*
X117641715Y-87701381D01*
X117498857Y-87653762D01*
X117403619Y-87558524D01*
X117356000Y-87463286D01*
X117308381Y-87272810D01*
X117308381Y-87129952D01*
X117356000Y-86939476D01*
X117403619Y-86844238D01*
X117498857Y-86749000D01*
X117641715Y-86701381D01*
X117736953Y-86701381D01*
X117879810Y-86749000D01*
X117927429Y-86796619D01*
X118832191Y-86701381D02*
X118356000Y-86701381D01*
X118308381Y-87177571D01*
X118356000Y-87129952D01*
X118451238Y-87082333D01*
X118689334Y-87082333D01*
X118784572Y-87129952D01*
X118832191Y-87177571D01*
X118879810Y-87272810D01*
X118879810Y-87510905D01*
X118832191Y-87606143D01*
X118784572Y-87653762D01*
X118689334Y-87701381D01*
X118451238Y-87701381D01*
X118356000Y-87653762D01*
X118308381Y-87606143D01*
X97702810Y-77541381D02*
X97702810Y-76541381D01*
X98750429Y-77446143D02*
X98702810Y-77493762D01*
X98559953Y-77541381D01*
X98464715Y-77541381D01*
X98321857Y-77493762D01*
X98226619Y-77398524D01*
X98179000Y-77303286D01*
X98131381Y-77112810D01*
X98131381Y-76969952D01*
X98179000Y-76779476D01*
X98226619Y-76684238D01*
X98321857Y-76589000D01*
X98464715Y-76541381D01*
X98559953Y-76541381D01*
X98702810Y-76589000D01*
X98750429Y-76636619D01*
X99607572Y-76541381D02*
X99417095Y-76541381D01*
X99321857Y-76589000D01*
X99274238Y-76636619D01*
X99179000Y-76779476D01*
X99131381Y-76969952D01*
X99131381Y-77350905D01*
X99179000Y-77446143D01*
X99226619Y-77493762D01*
X99321857Y-77541381D01*
X99512334Y-77541381D01*
X99607572Y-77493762D01*
X99655191Y-77446143D01*
X99702810Y-77350905D01*
X99702810Y-77112810D01*
X99655191Y-77017571D01*
X99607572Y-76969952D01*
X99512334Y-76922333D01*
X99321857Y-76922333D01*
X99226619Y-76969952D01*
X99179000Y-77017571D01*
X99131381Y-77112810D01*
X34488381Y-125690190D02*
X33488381Y-125690190D01*
X34393143Y-124642571D02*
X34440762Y-124690190D01*
X34488381Y-124833047D01*
X34488381Y-124928285D01*
X34440762Y-125071143D01*
X34345524Y-125166381D01*
X34250286Y-125214000D01*
X34059810Y-125261619D01*
X33916952Y-125261619D01*
X33726476Y-125214000D01*
X33631238Y-125166381D01*
X33536000Y-125071143D01*
X33488381Y-124928285D01*
X33488381Y-124833047D01*
X33536000Y-124690190D01*
X33583619Y-124642571D01*
X34488381Y-124166381D02*
X34488381Y-123975905D01*
X34440762Y-123880666D01*
X34393143Y-123833047D01*
X34250286Y-123737809D01*
X34059810Y-123690190D01*
X33678857Y-123690190D01*
X33583619Y-123737809D01*
X33536000Y-123785428D01*
X33488381Y-123880666D01*
X33488381Y-124071143D01*
X33536000Y-124166381D01*
X33583619Y-124214000D01*
X33678857Y-124261619D01*
X33916952Y-124261619D01*
X34012190Y-124214000D01*
X34059810Y-124166381D01*
X34107429Y-124071143D01*
X34107429Y-123880666D01*
X34059810Y-123785428D01*
X34012190Y-123737809D01*
X33916952Y-123690190D01*
X134945619Y-97861381D02*
X134945619Y-96861381D01*
X135993238Y-97766143D02*
X135945619Y-97813762D01*
X135802762Y-97861381D01*
X135707524Y-97861381D01*
X135564666Y-97813762D01*
X135469428Y-97718524D01*
X135421809Y-97623286D01*
X135374190Y-97432810D01*
X135374190Y-97289952D01*
X135421809Y-97099476D01*
X135469428Y-97004238D01*
X135564666Y-96909000D01*
X135707524Y-96861381D01*
X135802762Y-96861381D01*
X135945619Y-96909000D01*
X135993238Y-96956619D01*
X136945619Y-97861381D02*
X136374190Y-97861381D01*
X136659904Y-97861381D02*
X136659904Y-96861381D01*
X136564666Y-97004238D01*
X136469428Y-97099476D01*
X136374190Y-97147095D01*
X137564666Y-96861381D02*
X137659905Y-96861381D01*
X137755143Y-96909000D01*
X137802762Y-96956619D01*
X137850381Y-97051857D01*
X137898000Y-97242333D01*
X137898000Y-97480429D01*
X137850381Y-97670905D01*
X137802762Y-97766143D01*
X137755143Y-97813762D01*
X137659905Y-97861381D01*
X137564666Y-97861381D01*
X137469428Y-97813762D01*
X137421809Y-97766143D01*
X137374190Y-97670905D01*
X137326571Y-97480429D01*
X137326571Y-97242333D01*
X137374190Y-97051857D01*
X137421809Y-96956619D01*
X137469428Y-96909000D01*
X137564666Y-96861381D01*
X54748381Y-122102381D02*
X53748381Y-122102381D01*
X54653143Y-121054762D02*
X54700762Y-121102381D01*
X54748381Y-121245238D01*
X54748381Y-121340476D01*
X54700762Y-121483334D01*
X54605524Y-121578572D01*
X54510286Y-121626191D01*
X54319810Y-121673810D01*
X54176952Y-121673810D01*
X53986476Y-121626191D01*
X53891238Y-121578572D01*
X53796000Y-121483334D01*
X53748381Y-121340476D01*
X53748381Y-121245238D01*
X53796000Y-121102381D01*
X53843619Y-121054762D01*
X54748381Y-120102381D02*
X54748381Y-120673810D01*
X54748381Y-120388096D02*
X53748381Y-120388096D01*
X53891238Y-120483334D01*
X53986476Y-120578572D01*
X54034095Y-120673810D01*
X53748381Y-119245238D02*
X53748381Y-119435715D01*
X53796000Y-119530953D01*
X53843619Y-119578572D01*
X53986476Y-119673810D01*
X54176952Y-119721429D01*
X54557905Y-119721429D01*
X54653143Y-119673810D01*
X54700762Y-119626191D01*
X54748381Y-119530953D01*
X54748381Y-119340476D01*
X54700762Y-119245238D01*
X54653143Y-119197619D01*
X54557905Y-119150000D01*
X54319810Y-119150000D01*
X54224571Y-119197619D01*
X54176952Y-119245238D01*
X54129333Y-119340476D01*
X54129333Y-119530953D01*
X54176952Y-119626191D01*
X54224571Y-119673810D01*
X54319810Y-119721429D01*
X51839905Y-129992381D02*
X51839905Y-128992381D01*
X52220858Y-128992381D01*
X52316096Y-129040000D01*
X52363715Y-129087619D01*
X52411334Y-129182857D01*
X52411334Y-129325714D01*
X52363715Y-129420952D01*
X52316096Y-129468571D01*
X52220858Y-129516190D01*
X51839905Y-129516190D01*
X53363715Y-129992381D02*
X52792286Y-129992381D01*
X53078000Y-129992381D02*
X53078000Y-128992381D01*
X52982762Y-129135238D01*
X52887524Y-129230476D01*
X52792286Y-129278095D01*
X116657381Y-59983666D02*
X116181190Y-60317000D01*
X116657381Y-60555095D02*
X115657381Y-60555095D01*
X115657381Y-60174142D01*
X115705000Y-60078904D01*
X115752619Y-60031285D01*
X115847857Y-59983666D01*
X115990714Y-59983666D01*
X116085952Y-60031285D01*
X116133571Y-60078904D01*
X116181190Y-60174142D01*
X116181190Y-60555095D01*
X116657381Y-59031285D02*
X116657381Y-59602714D01*
X116657381Y-59317000D02*
X115657381Y-59317000D01*
X115800238Y-59412238D01*
X115895476Y-59507476D01*
X115943095Y-59602714D01*
X116657381Y-57189666D02*
X116181190Y-57523000D01*
X116657381Y-57761095D02*
X115657381Y-57761095D01*
X115657381Y-57380142D01*
X115705000Y-57284904D01*
X115752619Y-57237285D01*
X115847857Y-57189666D01*
X115990714Y-57189666D01*
X116085952Y-57237285D01*
X116133571Y-57284904D01*
X116181190Y-57380142D01*
X116181190Y-57761095D01*
X115752619Y-56808714D02*
X115705000Y-56761095D01*
X115657381Y-56665857D01*
X115657381Y-56427761D01*
X115705000Y-56332523D01*
X115752619Y-56284904D01*
X115847857Y-56237285D01*
X115943095Y-56237285D01*
X116085952Y-56284904D01*
X116657381Y-56856333D01*
X116657381Y-56237285D01*
X43350334Y-55372381D02*
X43017000Y-54896190D01*
X42778905Y-55372381D02*
X42778905Y-54372381D01*
X43159858Y-54372381D01*
X43255096Y-54420000D01*
X43302715Y-54467619D01*
X43350334Y-54562857D01*
X43350334Y-54705714D01*
X43302715Y-54800952D01*
X43255096Y-54848571D01*
X43159858Y-54896190D01*
X42778905Y-54896190D01*
X43683667Y-54372381D02*
X44302715Y-54372381D01*
X43969381Y-54753333D01*
X44112239Y-54753333D01*
X44207477Y-54800952D01*
X44255096Y-54848571D01*
X44302715Y-54943810D01*
X44302715Y-55181905D01*
X44255096Y-55277143D01*
X44207477Y-55324762D01*
X44112239Y-55372381D01*
X43826524Y-55372381D01*
X43731286Y-55324762D01*
X43683667Y-55277143D01*
X101560334Y-102433381D02*
X101227000Y-101957190D01*
X100988905Y-102433381D02*
X100988905Y-101433381D01*
X101369858Y-101433381D01*
X101465096Y-101481000D01*
X101512715Y-101528619D01*
X101560334Y-101623857D01*
X101560334Y-101766714D01*
X101512715Y-101861952D01*
X101465096Y-101909571D01*
X101369858Y-101957190D01*
X100988905Y-101957190D01*
X102465096Y-101433381D02*
X101988905Y-101433381D01*
X101941286Y-101909571D01*
X101988905Y-101861952D01*
X102084143Y-101814333D01*
X102322239Y-101814333D01*
X102417477Y-101861952D01*
X102465096Y-101909571D01*
X102512715Y-102004810D01*
X102512715Y-102242905D01*
X102465096Y-102338143D01*
X102417477Y-102385762D01*
X102322239Y-102433381D01*
X102084143Y-102433381D01*
X101988905Y-102385762D01*
X101941286Y-102338143D01*
X82748381Y-85891666D02*
X82272190Y-86225000D01*
X82748381Y-86463095D02*
X81748381Y-86463095D01*
X81748381Y-86082142D01*
X81796000Y-85986904D01*
X81843619Y-85939285D01*
X81938857Y-85891666D01*
X82081714Y-85891666D01*
X82176952Y-85939285D01*
X82224571Y-85986904D01*
X82272190Y-86082142D01*
X82272190Y-86463095D01*
X81748381Y-85034523D02*
X81748381Y-85225000D01*
X81796000Y-85320238D01*
X81843619Y-85367857D01*
X81986476Y-85463095D01*
X82176952Y-85510714D01*
X82557905Y-85510714D01*
X82653143Y-85463095D01*
X82700762Y-85415476D01*
X82748381Y-85320238D01*
X82748381Y-85129761D01*
X82700762Y-85034523D01*
X82653143Y-84986904D01*
X82557905Y-84939285D01*
X82319810Y-84939285D01*
X82224571Y-84986904D01*
X82176952Y-85034523D01*
X82129333Y-85129761D01*
X82129333Y-85320238D01*
X82176952Y-85415476D01*
X82224571Y-85463095D01*
X82319810Y-85510714D01*
X105751334Y-89098381D02*
X105418000Y-88622190D01*
X105179905Y-89098381D02*
X105179905Y-88098381D01*
X105560858Y-88098381D01*
X105656096Y-88146000D01*
X105703715Y-88193619D01*
X105751334Y-88288857D01*
X105751334Y-88431714D01*
X105703715Y-88526952D01*
X105656096Y-88574571D01*
X105560858Y-88622190D01*
X105179905Y-88622190D01*
X106084667Y-88098381D02*
X106751334Y-88098381D01*
X106322762Y-89098381D01*
X115133381Y-88685666D02*
X114657190Y-89019000D01*
X115133381Y-89257095D02*
X114133381Y-89257095D01*
X114133381Y-88876142D01*
X114181000Y-88780904D01*
X114228619Y-88733285D01*
X114323857Y-88685666D01*
X114466714Y-88685666D01*
X114561952Y-88733285D01*
X114609571Y-88780904D01*
X114657190Y-88876142D01*
X114657190Y-89257095D01*
X114561952Y-88114238D02*
X114514333Y-88209476D01*
X114466714Y-88257095D01*
X114371476Y-88304714D01*
X114323857Y-88304714D01*
X114228619Y-88257095D01*
X114181000Y-88209476D01*
X114133381Y-88114238D01*
X114133381Y-87923761D01*
X114181000Y-87828523D01*
X114228619Y-87780904D01*
X114323857Y-87733285D01*
X114371476Y-87733285D01*
X114466714Y-87780904D01*
X114514333Y-87828523D01*
X114561952Y-87923761D01*
X114561952Y-88114238D01*
X114609571Y-88209476D01*
X114657190Y-88257095D01*
X114752429Y-88304714D01*
X114942905Y-88304714D01*
X115038143Y-88257095D01*
X115085762Y-88209476D01*
X115133381Y-88114238D01*
X115133381Y-87923761D01*
X115085762Y-87828523D01*
X115038143Y-87780904D01*
X114942905Y-87733285D01*
X114752429Y-87733285D01*
X114657190Y-87780904D01*
X114609571Y-87828523D01*
X114561952Y-87923761D01*
X65730381Y-127166666D02*
X65254190Y-127500000D01*
X65730381Y-127738095D02*
X64730381Y-127738095D01*
X64730381Y-127357142D01*
X64778000Y-127261904D01*
X64825619Y-127214285D01*
X64920857Y-127166666D01*
X65063714Y-127166666D01*
X65158952Y-127214285D01*
X65206571Y-127261904D01*
X65254190Y-127357142D01*
X65254190Y-127738095D01*
X65730381Y-126690476D02*
X65730381Y-126500000D01*
X65682762Y-126404761D01*
X65635143Y-126357142D01*
X65492286Y-126261904D01*
X65301810Y-126214285D01*
X64920857Y-126214285D01*
X64825619Y-126261904D01*
X64778000Y-126309523D01*
X64730381Y-126404761D01*
X64730381Y-126595238D01*
X64778000Y-126690476D01*
X64825619Y-126738095D01*
X64920857Y-126785714D01*
X65158952Y-126785714D01*
X65254190Y-126738095D01*
X65301810Y-126690476D01*
X65349429Y-126595238D01*
X65349429Y-126404761D01*
X65301810Y-126309523D01*
X65254190Y-126261904D01*
X65158952Y-126214285D01*
X65730381Y-124340857D02*
X65254190Y-124674191D01*
X65730381Y-124912286D02*
X64730381Y-124912286D01*
X64730381Y-124531333D01*
X64778000Y-124436095D01*
X64825619Y-124388476D01*
X64920857Y-124340857D01*
X65063714Y-124340857D01*
X65158952Y-124388476D01*
X65206571Y-124436095D01*
X65254190Y-124531333D01*
X65254190Y-124912286D01*
X65730381Y-123388476D02*
X65730381Y-123959905D01*
X65730381Y-123674191D02*
X64730381Y-123674191D01*
X64873238Y-123769429D01*
X64968476Y-123864667D01*
X65016095Y-123959905D01*
X64730381Y-122769429D02*
X64730381Y-122674190D01*
X64778000Y-122578952D01*
X64825619Y-122531333D01*
X64920857Y-122483714D01*
X65111333Y-122436095D01*
X65349429Y-122436095D01*
X65539905Y-122483714D01*
X65635143Y-122531333D01*
X65682762Y-122578952D01*
X65730381Y-122674190D01*
X65730381Y-122769429D01*
X65682762Y-122864667D01*
X65635143Y-122912286D01*
X65539905Y-122959905D01*
X65349429Y-123007524D01*
X65111333Y-123007524D01*
X64920857Y-122959905D01*
X64825619Y-122912286D01*
X64778000Y-122864667D01*
X64730381Y-122769429D01*
X67429143Y-114752381D02*
X67095809Y-114276190D01*
X66857714Y-114752381D02*
X66857714Y-113752381D01*
X67238667Y-113752381D01*
X67333905Y-113800000D01*
X67381524Y-113847619D01*
X67429143Y-113942857D01*
X67429143Y-114085714D01*
X67381524Y-114180952D01*
X67333905Y-114228571D01*
X67238667Y-114276190D01*
X66857714Y-114276190D01*
X68381524Y-114752381D02*
X67810095Y-114752381D01*
X68095809Y-114752381D02*
X68095809Y-113752381D01*
X68000571Y-113895238D01*
X67905333Y-113990476D01*
X67810095Y-114038095D01*
X69333905Y-114752381D02*
X68762476Y-114752381D01*
X69048190Y-114752381D02*
X69048190Y-113752381D01*
X68952952Y-113895238D01*
X68857714Y-113990476D01*
X68762476Y-114038095D01*
X88336381Y-120022857D02*
X87860190Y-120356191D01*
X88336381Y-120594286D02*
X87336381Y-120594286D01*
X87336381Y-120213333D01*
X87384000Y-120118095D01*
X87431619Y-120070476D01*
X87526857Y-120022857D01*
X87669714Y-120022857D01*
X87764952Y-120070476D01*
X87812571Y-120118095D01*
X87860190Y-120213333D01*
X87860190Y-120594286D01*
X88336381Y-119070476D02*
X88336381Y-119641905D01*
X88336381Y-119356191D02*
X87336381Y-119356191D01*
X87479238Y-119451429D01*
X87574476Y-119546667D01*
X87622095Y-119641905D01*
X87431619Y-118689524D02*
X87384000Y-118641905D01*
X87336381Y-118546667D01*
X87336381Y-118308571D01*
X87384000Y-118213333D01*
X87431619Y-118165714D01*
X87526857Y-118118095D01*
X87622095Y-118118095D01*
X87764952Y-118165714D01*
X88336381Y-118737143D01*
X88336381Y-118118095D01*
X88336381Y-123070857D02*
X87860190Y-123404191D01*
X88336381Y-123642286D02*
X87336381Y-123642286D01*
X87336381Y-123261333D01*
X87384000Y-123166095D01*
X87431619Y-123118476D01*
X87526857Y-123070857D01*
X87669714Y-123070857D01*
X87764952Y-123118476D01*
X87812571Y-123166095D01*
X87860190Y-123261333D01*
X87860190Y-123642286D01*
X88336381Y-122118476D02*
X88336381Y-122689905D01*
X88336381Y-122404191D02*
X87336381Y-122404191D01*
X87479238Y-122499429D01*
X87574476Y-122594667D01*
X87622095Y-122689905D01*
X87336381Y-121785143D02*
X87336381Y-121166095D01*
X87717333Y-121499429D01*
X87717333Y-121356571D01*
X87764952Y-121261333D01*
X87812571Y-121213714D01*
X87907810Y-121166095D01*
X88145905Y-121166095D01*
X88241143Y-121213714D01*
X88288762Y-121261333D01*
X88336381Y-121356571D01*
X88336381Y-121642286D01*
X88288762Y-121737524D01*
X88241143Y-121785143D01*
X88590381Y-126372857D02*
X88114190Y-126706191D01*
X88590381Y-126944286D02*
X87590381Y-126944286D01*
X87590381Y-126563333D01*
X87638000Y-126468095D01*
X87685619Y-126420476D01*
X87780857Y-126372857D01*
X87923714Y-126372857D01*
X88018952Y-126420476D01*
X88066571Y-126468095D01*
X88114190Y-126563333D01*
X88114190Y-126944286D01*
X88590381Y-125420476D02*
X88590381Y-125991905D01*
X88590381Y-125706191D02*
X87590381Y-125706191D01*
X87733238Y-125801429D01*
X87828476Y-125896667D01*
X87876095Y-125991905D01*
X87923714Y-124563333D02*
X88590381Y-124563333D01*
X87542762Y-124801429D02*
X88257048Y-125039524D01*
X88257048Y-124420476D01*
X74160143Y-128468381D02*
X73826809Y-127992190D01*
X73588714Y-128468381D02*
X73588714Y-127468381D01*
X73969667Y-127468381D01*
X74064905Y-127516000D01*
X74112524Y-127563619D01*
X74160143Y-127658857D01*
X74160143Y-127801714D01*
X74112524Y-127896952D01*
X74064905Y-127944571D01*
X73969667Y-127992190D01*
X73588714Y-127992190D01*
X75112524Y-128468381D02*
X74541095Y-128468381D01*
X74826809Y-128468381D02*
X74826809Y-127468381D01*
X74731571Y-127611238D01*
X74636333Y-127706476D01*
X74541095Y-127754095D01*
X76017286Y-127468381D02*
X75541095Y-127468381D01*
X75493476Y-127944571D01*
X75541095Y-127896952D01*
X75636333Y-127849333D01*
X75874429Y-127849333D01*
X75969667Y-127896952D01*
X76017286Y-127944571D01*
X76064905Y-128039810D01*
X76064905Y-128277905D01*
X76017286Y-128373143D01*
X75969667Y-128420762D01*
X75874429Y-128468381D01*
X75636333Y-128468381D01*
X75541095Y-128420762D01*
X75493476Y-128373143D01*
X116657381Y-52077857D02*
X116181190Y-52411191D01*
X116657381Y-52649286D02*
X115657381Y-52649286D01*
X115657381Y-52268333D01*
X115705000Y-52173095D01*
X115752619Y-52125476D01*
X115847857Y-52077857D01*
X115990714Y-52077857D01*
X116085952Y-52125476D01*
X116133571Y-52173095D01*
X116181190Y-52268333D01*
X116181190Y-52649286D01*
X116657381Y-51125476D02*
X116657381Y-51696905D01*
X116657381Y-51411191D02*
X115657381Y-51411191D01*
X115800238Y-51506429D01*
X115895476Y-51601667D01*
X115943095Y-51696905D01*
X115657381Y-50268333D02*
X115657381Y-50458810D01*
X115705000Y-50554048D01*
X115752619Y-50601667D01*
X115895476Y-50696905D01*
X116085952Y-50744524D01*
X116466905Y-50744524D01*
X116562143Y-50696905D01*
X116609762Y-50649286D01*
X116657381Y-50554048D01*
X116657381Y-50363571D01*
X116609762Y-50268333D01*
X116562143Y-50220714D01*
X116466905Y-50173095D01*
X116228810Y-50173095D01*
X116133571Y-50220714D01*
X116085952Y-50268333D01*
X116038333Y-50363571D01*
X116038333Y-50554048D01*
X116085952Y-50649286D01*
X116133571Y-50696905D01*
X116228810Y-50744524D01*
X116657381Y-54871857D02*
X116181190Y-55205191D01*
X116657381Y-55443286D02*
X115657381Y-55443286D01*
X115657381Y-55062333D01*
X115705000Y-54967095D01*
X115752619Y-54919476D01*
X115847857Y-54871857D01*
X115990714Y-54871857D01*
X116085952Y-54919476D01*
X116133571Y-54967095D01*
X116181190Y-55062333D01*
X116181190Y-55443286D01*
X116657381Y-53919476D02*
X116657381Y-54490905D01*
X116657381Y-54205191D02*
X115657381Y-54205191D01*
X115800238Y-54300429D01*
X115895476Y-54395667D01*
X115943095Y-54490905D01*
X115657381Y-53586143D02*
X115657381Y-52919476D01*
X116657381Y-53348048D01*
X97480381Y-56649857D02*
X97004190Y-56983191D01*
X97480381Y-57221286D02*
X96480381Y-57221286D01*
X96480381Y-56840333D01*
X96528000Y-56745095D01*
X96575619Y-56697476D01*
X96670857Y-56649857D01*
X96813714Y-56649857D01*
X96908952Y-56697476D01*
X96956571Y-56745095D01*
X97004190Y-56840333D01*
X97004190Y-57221286D01*
X97480381Y-55697476D02*
X97480381Y-56268905D01*
X97480381Y-55983191D02*
X96480381Y-55983191D01*
X96623238Y-56078429D01*
X96718476Y-56173667D01*
X96766095Y-56268905D01*
X96908952Y-55126048D02*
X96861333Y-55221286D01*
X96813714Y-55268905D01*
X96718476Y-55316524D01*
X96670857Y-55316524D01*
X96575619Y-55268905D01*
X96528000Y-55221286D01*
X96480381Y-55126048D01*
X96480381Y-54935571D01*
X96528000Y-54840333D01*
X96575619Y-54792714D01*
X96670857Y-54745095D01*
X96718476Y-54745095D01*
X96813714Y-54792714D01*
X96861333Y-54840333D01*
X96908952Y-54935571D01*
X96908952Y-55126048D01*
X96956571Y-55221286D01*
X97004190Y-55268905D01*
X97099429Y-55316524D01*
X97289905Y-55316524D01*
X97385143Y-55268905D01*
X97432762Y-55221286D01*
X97480381Y-55126048D01*
X97480381Y-54935571D01*
X97432762Y-54840333D01*
X97385143Y-54792714D01*
X97289905Y-54745095D01*
X97099429Y-54745095D01*
X97004190Y-54792714D01*
X96956571Y-54840333D01*
X96908952Y-54935571D01*
X85844143Y-42743381D02*
X85510809Y-42267190D01*
X85272714Y-42743381D02*
X85272714Y-41743381D01*
X85653667Y-41743381D01*
X85748905Y-41791000D01*
X85796524Y-41838619D01*
X85844143Y-41933857D01*
X85844143Y-42076714D01*
X85796524Y-42171952D01*
X85748905Y-42219571D01*
X85653667Y-42267190D01*
X85272714Y-42267190D01*
X86796524Y-42743381D02*
X86225095Y-42743381D01*
X86510809Y-42743381D02*
X86510809Y-41743381D01*
X86415571Y-41886238D01*
X86320333Y-41981476D01*
X86225095Y-42029095D01*
X87272714Y-42743381D02*
X87463190Y-42743381D01*
X87558429Y-42695762D01*
X87606048Y-42648143D01*
X87701286Y-42505286D01*
X87748905Y-42314810D01*
X87748905Y-41933857D01*
X87701286Y-41838619D01*
X87653667Y-41791000D01*
X87558429Y-41743381D01*
X87367952Y-41743381D01*
X87272714Y-41791000D01*
X87225095Y-41838619D01*
X87177476Y-41933857D01*
X87177476Y-42171952D01*
X87225095Y-42267190D01*
X87272714Y-42314810D01*
X87367952Y-42362429D01*
X87558429Y-42362429D01*
X87653667Y-42314810D01*
X87701286Y-42267190D01*
X87748905Y-42171952D01*
X89019143Y-42743381D02*
X88685809Y-42267190D01*
X88447714Y-42743381D02*
X88447714Y-41743381D01*
X88828667Y-41743381D01*
X88923905Y-41791000D01*
X88971524Y-41838619D01*
X89019143Y-41933857D01*
X89019143Y-42076714D01*
X88971524Y-42171952D01*
X88923905Y-42219571D01*
X88828667Y-42267190D01*
X88447714Y-42267190D01*
X89400095Y-41838619D02*
X89447714Y-41791000D01*
X89542952Y-41743381D01*
X89781048Y-41743381D01*
X89876286Y-41791000D01*
X89923905Y-41838619D01*
X89971524Y-41933857D01*
X89971524Y-42029095D01*
X89923905Y-42171952D01*
X89352476Y-42743381D01*
X89971524Y-42743381D01*
X90590571Y-41743381D02*
X90685810Y-41743381D01*
X90781048Y-41791000D01*
X90828667Y-41838619D01*
X90876286Y-41933857D01*
X90923905Y-42124333D01*
X90923905Y-42362429D01*
X90876286Y-42552905D01*
X90828667Y-42648143D01*
X90781048Y-42695762D01*
X90685810Y-42743381D01*
X90590571Y-42743381D01*
X90495333Y-42695762D01*
X90447714Y-42648143D01*
X90400095Y-42552905D01*
X90352476Y-42362429D01*
X90352476Y-42124333D01*
X90400095Y-41933857D01*
X90447714Y-41838619D01*
X90495333Y-41791000D01*
X90590571Y-41743381D01*
X80891143Y-39314381D02*
X80557809Y-38838190D01*
X80319714Y-39314381D02*
X80319714Y-38314381D01*
X80700667Y-38314381D01*
X80795905Y-38362000D01*
X80843524Y-38409619D01*
X80891143Y-38504857D01*
X80891143Y-38647714D01*
X80843524Y-38742952D01*
X80795905Y-38790571D01*
X80700667Y-38838190D01*
X80319714Y-38838190D01*
X81272095Y-38409619D02*
X81319714Y-38362000D01*
X81414952Y-38314381D01*
X81653048Y-38314381D01*
X81748286Y-38362000D01*
X81795905Y-38409619D01*
X81843524Y-38504857D01*
X81843524Y-38600095D01*
X81795905Y-38742952D01*
X81224476Y-39314381D01*
X81843524Y-39314381D01*
X82795905Y-39314381D02*
X82224476Y-39314381D01*
X82510190Y-39314381D02*
X82510190Y-38314381D01*
X82414952Y-38457238D01*
X82319714Y-38552476D01*
X82224476Y-38600095D01*
X77970143Y-39314381D02*
X77636809Y-38838190D01*
X77398714Y-39314381D02*
X77398714Y-38314381D01*
X77779667Y-38314381D01*
X77874905Y-38362000D01*
X77922524Y-38409619D01*
X77970143Y-38504857D01*
X77970143Y-38647714D01*
X77922524Y-38742952D01*
X77874905Y-38790571D01*
X77779667Y-38838190D01*
X77398714Y-38838190D01*
X78351095Y-38409619D02*
X78398714Y-38362000D01*
X78493952Y-38314381D01*
X78732048Y-38314381D01*
X78827286Y-38362000D01*
X78874905Y-38409619D01*
X78922524Y-38504857D01*
X78922524Y-38600095D01*
X78874905Y-38742952D01*
X78303476Y-39314381D01*
X78922524Y-39314381D01*
X79303476Y-38409619D02*
X79351095Y-38362000D01*
X79446333Y-38314381D01*
X79684429Y-38314381D01*
X79779667Y-38362000D01*
X79827286Y-38409619D01*
X79874905Y-38504857D01*
X79874905Y-38600095D01*
X79827286Y-38742952D01*
X79255857Y-39314381D01*
X79874905Y-39314381D01*
X90543143Y-63063381D02*
X90209809Y-62587190D01*
X89971714Y-63063381D02*
X89971714Y-62063381D01*
X90352667Y-62063381D01*
X90447905Y-62111000D01*
X90495524Y-62158619D01*
X90543143Y-62253857D01*
X90543143Y-62396714D01*
X90495524Y-62491952D01*
X90447905Y-62539571D01*
X90352667Y-62587190D01*
X89971714Y-62587190D01*
X90924095Y-62158619D02*
X90971714Y-62111000D01*
X91066952Y-62063381D01*
X91305048Y-62063381D01*
X91400286Y-62111000D01*
X91447905Y-62158619D01*
X91495524Y-62253857D01*
X91495524Y-62349095D01*
X91447905Y-62491952D01*
X90876476Y-63063381D01*
X91495524Y-63063381D01*
X91828857Y-62063381D02*
X92447905Y-62063381D01*
X92114571Y-62444333D01*
X92257429Y-62444333D01*
X92352667Y-62491952D01*
X92400286Y-62539571D01*
X92447905Y-62634810D01*
X92447905Y-62872905D01*
X92400286Y-62968143D01*
X92352667Y-63015762D01*
X92257429Y-63063381D01*
X91971714Y-63063381D01*
X91876476Y-63015762D01*
X91828857Y-62968143D01*
X93591143Y-63063381D02*
X93257809Y-62587190D01*
X93019714Y-63063381D02*
X93019714Y-62063381D01*
X93400667Y-62063381D01*
X93495905Y-62111000D01*
X93543524Y-62158619D01*
X93591143Y-62253857D01*
X93591143Y-62396714D01*
X93543524Y-62491952D01*
X93495905Y-62539571D01*
X93400667Y-62587190D01*
X93019714Y-62587190D01*
X93972095Y-62158619D02*
X94019714Y-62111000D01*
X94114952Y-62063381D01*
X94353048Y-62063381D01*
X94448286Y-62111000D01*
X94495905Y-62158619D01*
X94543524Y-62253857D01*
X94543524Y-62349095D01*
X94495905Y-62491952D01*
X93924476Y-63063381D01*
X94543524Y-63063381D01*
X95400667Y-62396714D02*
X95400667Y-63063381D01*
X95162571Y-62015762D02*
X94924476Y-62730048D01*
X95543524Y-62730048D01*
X93797381Y-59951857D02*
X93321190Y-60285191D01*
X93797381Y-60523286D02*
X92797381Y-60523286D01*
X92797381Y-60142333D01*
X92845000Y-60047095D01*
X92892619Y-59999476D01*
X92987857Y-59951857D01*
X93130714Y-59951857D01*
X93225952Y-59999476D01*
X93273571Y-60047095D01*
X93321190Y-60142333D01*
X93321190Y-60523286D01*
X92892619Y-59570905D02*
X92845000Y-59523286D01*
X92797381Y-59428048D01*
X92797381Y-59189952D01*
X92845000Y-59094714D01*
X92892619Y-59047095D01*
X92987857Y-58999476D01*
X93083095Y-58999476D01*
X93225952Y-59047095D01*
X93797381Y-59618524D01*
X93797381Y-58999476D01*
X92797381Y-58094714D02*
X92797381Y-58570905D01*
X93273571Y-58618524D01*
X93225952Y-58570905D01*
X93178333Y-58475667D01*
X93178333Y-58237571D01*
X93225952Y-58142333D01*
X93273571Y-58094714D01*
X93368810Y-58047095D01*
X93606905Y-58047095D01*
X93702143Y-58094714D01*
X93749762Y-58142333D01*
X93797381Y-58237571D01*
X93797381Y-58475667D01*
X93749762Y-58570905D01*
X93702143Y-58618524D01*
X97865143Y-62992381D02*
X97531809Y-62516190D01*
X97293714Y-62992381D02*
X97293714Y-61992381D01*
X97674667Y-61992381D01*
X97769905Y-62040000D01*
X97817524Y-62087619D01*
X97865143Y-62182857D01*
X97865143Y-62325714D01*
X97817524Y-62420952D01*
X97769905Y-62468571D01*
X97674667Y-62516190D01*
X97293714Y-62516190D01*
X98246095Y-62087619D02*
X98293714Y-62040000D01*
X98388952Y-61992381D01*
X98627048Y-61992381D01*
X98722286Y-62040000D01*
X98769905Y-62087619D01*
X98817524Y-62182857D01*
X98817524Y-62278095D01*
X98769905Y-62420952D01*
X98198476Y-62992381D01*
X98817524Y-62992381D01*
X99674667Y-61992381D02*
X99484190Y-61992381D01*
X99388952Y-62040000D01*
X99341333Y-62087619D01*
X99246095Y-62230476D01*
X99198476Y-62420952D01*
X99198476Y-62801905D01*
X99246095Y-62897143D01*
X99293714Y-62944762D01*
X99388952Y-62992381D01*
X99579429Y-62992381D01*
X99674667Y-62944762D01*
X99722286Y-62897143D01*
X99769905Y-62801905D01*
X99769905Y-62563810D01*
X99722286Y-62468571D01*
X99674667Y-62420952D01*
X99579429Y-62373333D01*
X99388952Y-62373333D01*
X99293714Y-62420952D01*
X99246095Y-62468571D01*
X99198476Y-62563810D01*
X59634381Y-130690857D02*
X59158190Y-131024191D01*
X59634381Y-131262286D02*
X58634381Y-131262286D01*
X58634381Y-130881333D01*
X58682000Y-130786095D01*
X58729619Y-130738476D01*
X58824857Y-130690857D01*
X58967714Y-130690857D01*
X59062952Y-130738476D01*
X59110571Y-130786095D01*
X59158190Y-130881333D01*
X59158190Y-131262286D01*
X58729619Y-130309905D02*
X58682000Y-130262286D01*
X58634381Y-130167048D01*
X58634381Y-129928952D01*
X58682000Y-129833714D01*
X58729619Y-129786095D01*
X58824857Y-129738476D01*
X58920095Y-129738476D01*
X59062952Y-129786095D01*
X59634381Y-130357524D01*
X59634381Y-129738476D01*
X58634381Y-129405143D02*
X58634381Y-128738476D01*
X59634381Y-129167048D01*
X46426381Y-121038857D02*
X45950190Y-121372191D01*
X46426381Y-121610286D02*
X45426381Y-121610286D01*
X45426381Y-121229333D01*
X45474000Y-121134095D01*
X45521619Y-121086476D01*
X45616857Y-121038857D01*
X45759714Y-121038857D01*
X45854952Y-121086476D01*
X45902571Y-121134095D01*
X45950190Y-121229333D01*
X45950190Y-121610286D01*
X45521619Y-120657905D02*
X45474000Y-120610286D01*
X45426381Y-120515048D01*
X45426381Y-120276952D01*
X45474000Y-120181714D01*
X45521619Y-120134095D01*
X45616857Y-120086476D01*
X45712095Y-120086476D01*
X45854952Y-120134095D01*
X46426381Y-120705524D01*
X46426381Y-120086476D01*
X45854952Y-119515048D02*
X45807333Y-119610286D01*
X45759714Y-119657905D01*
X45664476Y-119705524D01*
X45616857Y-119705524D01*
X45521619Y-119657905D01*
X45474000Y-119610286D01*
X45426381Y-119515048D01*
X45426381Y-119324571D01*
X45474000Y-119229333D01*
X45521619Y-119181714D01*
X45616857Y-119134095D01*
X45664476Y-119134095D01*
X45759714Y-119181714D01*
X45807333Y-119229333D01*
X45854952Y-119324571D01*
X45854952Y-119515048D01*
X45902571Y-119610286D01*
X45950190Y-119657905D01*
X46045429Y-119705524D01*
X46235905Y-119705524D01*
X46331143Y-119657905D01*
X46378762Y-119610286D01*
X46426381Y-119515048D01*
X46426381Y-119324571D01*
X46378762Y-119229333D01*
X46331143Y-119181714D01*
X46235905Y-119134095D01*
X46045429Y-119134095D01*
X45950190Y-119181714D01*
X45902571Y-119229333D01*
X45854952Y-119324571D01*
X31523381Y-117792857D02*
X31047190Y-118126191D01*
X31523381Y-118364286D02*
X30523381Y-118364286D01*
X30523381Y-117983333D01*
X30571000Y-117888095D01*
X30618619Y-117840476D01*
X30713857Y-117792857D01*
X30856714Y-117792857D01*
X30951952Y-117840476D01*
X30999571Y-117888095D01*
X31047190Y-117983333D01*
X31047190Y-118364286D01*
X30618619Y-117411905D02*
X30571000Y-117364286D01*
X30523381Y-117269048D01*
X30523381Y-117030952D01*
X30571000Y-116935714D01*
X30618619Y-116888095D01*
X30713857Y-116840476D01*
X30809095Y-116840476D01*
X30951952Y-116888095D01*
X31523381Y-117459524D01*
X31523381Y-116840476D01*
X31523381Y-116364286D02*
X31523381Y-116173810D01*
X31475762Y-116078571D01*
X31428143Y-116030952D01*
X31285286Y-115935714D01*
X31094810Y-115888095D01*
X30713857Y-115888095D01*
X30618619Y-115935714D01*
X30571000Y-115983333D01*
X30523381Y-116078571D01*
X30523381Y-116269048D01*
X30571000Y-116364286D01*
X30618619Y-116411905D01*
X30713857Y-116459524D01*
X30951952Y-116459524D01*
X31047190Y-116411905D01*
X31094810Y-116364286D01*
X31142429Y-116269048D01*
X31142429Y-116078571D01*
X31094810Y-115983333D01*
X31047190Y-115935714D01*
X30951952Y-115888095D01*
X42616381Y-130690857D02*
X42140190Y-131024191D01*
X42616381Y-131262286D02*
X41616381Y-131262286D01*
X41616381Y-130881333D01*
X41664000Y-130786095D01*
X41711619Y-130738476D01*
X41806857Y-130690857D01*
X41949714Y-130690857D01*
X42044952Y-130738476D01*
X42092571Y-130786095D01*
X42140190Y-130881333D01*
X42140190Y-131262286D01*
X41616381Y-130357524D02*
X41616381Y-129738476D01*
X41997333Y-130071810D01*
X41997333Y-129928952D01*
X42044952Y-129833714D01*
X42092571Y-129786095D01*
X42187810Y-129738476D01*
X42425905Y-129738476D01*
X42521143Y-129786095D01*
X42568762Y-129833714D01*
X42616381Y-129928952D01*
X42616381Y-130214667D01*
X42568762Y-130309905D01*
X42521143Y-130357524D01*
X41616381Y-129119429D02*
X41616381Y-129024190D01*
X41664000Y-128928952D01*
X41711619Y-128881333D01*
X41806857Y-128833714D01*
X41997333Y-128786095D01*
X42235429Y-128786095D01*
X42425905Y-128833714D01*
X42521143Y-128881333D01*
X42568762Y-128928952D01*
X42616381Y-129024190D01*
X42616381Y-129119429D01*
X42568762Y-129214667D01*
X42521143Y-129262286D01*
X42425905Y-129309905D01*
X42235429Y-129357524D01*
X41997333Y-129357524D01*
X41806857Y-129309905D01*
X41711619Y-129262286D01*
X41664000Y-129214667D01*
X41616381Y-129119429D01*
X143200381Y-128912857D02*
X142724190Y-129246191D01*
X143200381Y-129484286D02*
X142200381Y-129484286D01*
X142200381Y-129103333D01*
X142248000Y-129008095D01*
X142295619Y-128960476D01*
X142390857Y-128912857D01*
X142533714Y-128912857D01*
X142628952Y-128960476D01*
X142676571Y-129008095D01*
X142724190Y-129103333D01*
X142724190Y-129484286D01*
X142200381Y-128579524D02*
X142200381Y-127960476D01*
X142581333Y-128293810D01*
X142581333Y-128150952D01*
X142628952Y-128055714D01*
X142676571Y-128008095D01*
X142771810Y-127960476D01*
X143009905Y-127960476D01*
X143105143Y-128008095D01*
X143152762Y-128055714D01*
X143200381Y-128150952D01*
X143200381Y-128436667D01*
X143152762Y-128531905D01*
X143105143Y-128579524D01*
X143200381Y-127008095D02*
X143200381Y-127579524D01*
X143200381Y-127293810D02*
X142200381Y-127293810D01*
X142343238Y-127389048D01*
X142438476Y-127484286D01*
X142486095Y-127579524D01*
X145232381Y-108338857D02*
X144756190Y-108672191D01*
X145232381Y-108910286D02*
X144232381Y-108910286D01*
X144232381Y-108529333D01*
X144280000Y-108434095D01*
X144327619Y-108386476D01*
X144422857Y-108338857D01*
X144565714Y-108338857D01*
X144660952Y-108386476D01*
X144708571Y-108434095D01*
X144756190Y-108529333D01*
X144756190Y-108910286D01*
X144232381Y-108005524D02*
X144232381Y-107386476D01*
X144613333Y-107719810D01*
X144613333Y-107576952D01*
X144660952Y-107481714D01*
X144708571Y-107434095D01*
X144803810Y-107386476D01*
X145041905Y-107386476D01*
X145137143Y-107434095D01*
X145184762Y-107481714D01*
X145232381Y-107576952D01*
X145232381Y-107862667D01*
X145184762Y-107957905D01*
X145137143Y-108005524D01*
X144327619Y-107005524D02*
X144280000Y-106957905D01*
X144232381Y-106862667D01*
X144232381Y-106624571D01*
X144280000Y-106529333D01*
X144327619Y-106481714D01*
X144422857Y-106434095D01*
X144518095Y-106434095D01*
X144660952Y-106481714D01*
X145232381Y-107053143D01*
X145232381Y-106434095D01*
X140835143Y-91511381D02*
X140501809Y-91035190D01*
X140263714Y-91511381D02*
X140263714Y-90511381D01*
X140644667Y-90511381D01*
X140739905Y-90559000D01*
X140787524Y-90606619D01*
X140835143Y-90701857D01*
X140835143Y-90844714D01*
X140787524Y-90939952D01*
X140739905Y-90987571D01*
X140644667Y-91035190D01*
X140263714Y-91035190D01*
X141168476Y-90511381D02*
X141787524Y-90511381D01*
X141454190Y-90892333D01*
X141597048Y-90892333D01*
X141692286Y-90939952D01*
X141739905Y-90987571D01*
X141787524Y-91082810D01*
X141787524Y-91320905D01*
X141739905Y-91416143D01*
X141692286Y-91463762D01*
X141597048Y-91511381D01*
X141311333Y-91511381D01*
X141216095Y-91463762D01*
X141168476Y-91416143D01*
X142120857Y-90511381D02*
X142739905Y-90511381D01*
X142406571Y-90892333D01*
X142549429Y-90892333D01*
X142644667Y-90939952D01*
X142692286Y-90987571D01*
X142739905Y-91082810D01*
X142739905Y-91320905D01*
X142692286Y-91416143D01*
X142644667Y-91463762D01*
X142549429Y-91511381D01*
X142263714Y-91511381D01*
X142168476Y-91463762D01*
X142120857Y-91416143D01*
X132961143Y-122880381D02*
X132627809Y-122404190D01*
X132389714Y-122880381D02*
X132389714Y-121880381D01*
X132770667Y-121880381D01*
X132865905Y-121928000D01*
X132913524Y-121975619D01*
X132961143Y-122070857D01*
X132961143Y-122213714D01*
X132913524Y-122308952D01*
X132865905Y-122356571D01*
X132770667Y-122404190D01*
X132389714Y-122404190D01*
X133294476Y-121880381D02*
X133913524Y-121880381D01*
X133580190Y-122261333D01*
X133723048Y-122261333D01*
X133818286Y-122308952D01*
X133865905Y-122356571D01*
X133913524Y-122451810D01*
X133913524Y-122689905D01*
X133865905Y-122785143D01*
X133818286Y-122832762D01*
X133723048Y-122880381D01*
X133437333Y-122880381D01*
X133342095Y-122832762D01*
X133294476Y-122785143D01*
X134770667Y-122213714D02*
X134770667Y-122880381D01*
X134532571Y-121832762D02*
X134294476Y-122547048D01*
X134913524Y-122547048D01*
X132961143Y-110180381D02*
X132627809Y-109704190D01*
X132389714Y-110180381D02*
X132389714Y-109180381D01*
X132770667Y-109180381D01*
X132865905Y-109228000D01*
X132913524Y-109275619D01*
X132961143Y-109370857D01*
X132961143Y-109513714D01*
X132913524Y-109608952D01*
X132865905Y-109656571D01*
X132770667Y-109704190D01*
X132389714Y-109704190D01*
X133294476Y-109180381D02*
X133913524Y-109180381D01*
X133580190Y-109561333D01*
X133723048Y-109561333D01*
X133818286Y-109608952D01*
X133865905Y-109656571D01*
X133913524Y-109751810D01*
X133913524Y-109989905D01*
X133865905Y-110085143D01*
X133818286Y-110132762D01*
X133723048Y-110180381D01*
X133437333Y-110180381D01*
X133342095Y-110132762D01*
X133294476Y-110085143D01*
X134818286Y-109180381D02*
X134342095Y-109180381D01*
X134294476Y-109656571D01*
X134342095Y-109608952D01*
X134437333Y-109561333D01*
X134675429Y-109561333D01*
X134770667Y-109608952D01*
X134818286Y-109656571D01*
X134865905Y-109751810D01*
X134865905Y-109989905D01*
X134818286Y-110085143D01*
X134770667Y-110132762D01*
X134675429Y-110180381D01*
X134437333Y-110180381D01*
X134342095Y-110132762D01*
X134294476Y-110085143D01*
X124658381Y-125610857D02*
X124182190Y-125944191D01*
X124658381Y-126182286D02*
X123658381Y-126182286D01*
X123658381Y-125801333D01*
X123706000Y-125706095D01*
X123753619Y-125658476D01*
X123848857Y-125610857D01*
X123991714Y-125610857D01*
X124086952Y-125658476D01*
X124134571Y-125706095D01*
X124182190Y-125801333D01*
X124182190Y-126182286D01*
X123658381Y-125277524D02*
X123658381Y-124658476D01*
X124039333Y-124991810D01*
X124039333Y-124848952D01*
X124086952Y-124753714D01*
X124134571Y-124706095D01*
X124229810Y-124658476D01*
X124467905Y-124658476D01*
X124563143Y-124706095D01*
X124610762Y-124753714D01*
X124658381Y-124848952D01*
X124658381Y-125134667D01*
X124610762Y-125229905D01*
X124563143Y-125277524D01*
X123658381Y-123801333D02*
X123658381Y-123991810D01*
X123706000Y-124087048D01*
X123753619Y-124134667D01*
X123896476Y-124229905D01*
X124086952Y-124277524D01*
X124467905Y-124277524D01*
X124563143Y-124229905D01*
X124610762Y-124182286D01*
X124658381Y-124087048D01*
X124658381Y-123896571D01*
X124610762Y-123801333D01*
X124563143Y-123753714D01*
X124467905Y-123706095D01*
X124229810Y-123706095D01*
X124134571Y-123753714D01*
X124086952Y-123801333D01*
X124039333Y-123896571D01*
X124039333Y-124087048D01*
X124086952Y-124182286D01*
X124134571Y-124229905D01*
X124229810Y-124277524D01*
X124658381Y-119006857D02*
X124182190Y-119340191D01*
X124658381Y-119578286D02*
X123658381Y-119578286D01*
X123658381Y-119197333D01*
X123706000Y-119102095D01*
X123753619Y-119054476D01*
X123848857Y-119006857D01*
X123991714Y-119006857D01*
X124086952Y-119054476D01*
X124134571Y-119102095D01*
X124182190Y-119197333D01*
X124182190Y-119578286D01*
X123658381Y-118673524D02*
X123658381Y-118054476D01*
X124039333Y-118387810D01*
X124039333Y-118244952D01*
X124086952Y-118149714D01*
X124134571Y-118102095D01*
X124229810Y-118054476D01*
X124467905Y-118054476D01*
X124563143Y-118102095D01*
X124610762Y-118149714D01*
X124658381Y-118244952D01*
X124658381Y-118530667D01*
X124610762Y-118625905D01*
X124563143Y-118673524D01*
X123658381Y-117721143D02*
X123658381Y-117054476D01*
X124658381Y-117483048D01*
X117546381Y-120022857D02*
X117070190Y-120356191D01*
X117546381Y-120594286D02*
X116546381Y-120594286D01*
X116546381Y-120213333D01*
X116594000Y-120118095D01*
X116641619Y-120070476D01*
X116736857Y-120022857D01*
X116879714Y-120022857D01*
X116974952Y-120070476D01*
X117022571Y-120118095D01*
X117070190Y-120213333D01*
X117070190Y-120594286D01*
X116546381Y-119689524D02*
X116546381Y-119070476D01*
X116927333Y-119403810D01*
X116927333Y-119260952D01*
X116974952Y-119165714D01*
X117022571Y-119118095D01*
X117117810Y-119070476D01*
X117355905Y-119070476D01*
X117451143Y-119118095D01*
X117498762Y-119165714D01*
X117546381Y-119260952D01*
X117546381Y-119546667D01*
X117498762Y-119641905D01*
X117451143Y-119689524D01*
X116974952Y-118499048D02*
X116927333Y-118594286D01*
X116879714Y-118641905D01*
X116784476Y-118689524D01*
X116736857Y-118689524D01*
X116641619Y-118641905D01*
X116594000Y-118594286D01*
X116546381Y-118499048D01*
X116546381Y-118308571D01*
X116594000Y-118213333D01*
X116641619Y-118165714D01*
X116736857Y-118118095D01*
X116784476Y-118118095D01*
X116879714Y-118165714D01*
X116927333Y-118213333D01*
X116974952Y-118308571D01*
X116974952Y-118499048D01*
X117022571Y-118594286D01*
X117070190Y-118641905D01*
X117165429Y-118689524D01*
X117355905Y-118689524D01*
X117451143Y-118641905D01*
X117498762Y-118594286D01*
X117546381Y-118499048D01*
X117546381Y-118308571D01*
X117498762Y-118213333D01*
X117451143Y-118165714D01*
X117355905Y-118118095D01*
X117165429Y-118118095D01*
X117070190Y-118165714D01*
X117022571Y-118213333D01*
X116974952Y-118308571D01*
X117800381Y-126372857D02*
X117324190Y-126706191D01*
X117800381Y-126944286D02*
X116800381Y-126944286D01*
X116800381Y-126563333D01*
X116848000Y-126468095D01*
X116895619Y-126420476D01*
X116990857Y-126372857D01*
X117133714Y-126372857D01*
X117228952Y-126420476D01*
X117276571Y-126468095D01*
X117324190Y-126563333D01*
X117324190Y-126944286D01*
X116800381Y-126039524D02*
X116800381Y-125420476D01*
X117181333Y-125753810D01*
X117181333Y-125610952D01*
X117228952Y-125515714D01*
X117276571Y-125468095D01*
X117371810Y-125420476D01*
X117609905Y-125420476D01*
X117705143Y-125468095D01*
X117752762Y-125515714D01*
X117800381Y-125610952D01*
X117800381Y-125896667D01*
X117752762Y-125991905D01*
X117705143Y-126039524D01*
X117800381Y-124944286D02*
X117800381Y-124753810D01*
X117752762Y-124658571D01*
X117705143Y-124610952D01*
X117562286Y-124515714D01*
X117371810Y-124468095D01*
X116990857Y-124468095D01*
X116895619Y-124515714D01*
X116848000Y-124563333D01*
X116800381Y-124658571D01*
X116800381Y-124849048D01*
X116848000Y-124944286D01*
X116895619Y-124991905D01*
X116990857Y-125039524D01*
X117228952Y-125039524D01*
X117324190Y-124991905D01*
X117371810Y-124944286D01*
X117419429Y-124849048D01*
X117419429Y-124658571D01*
X117371810Y-124563333D01*
X117324190Y-124515714D01*
X117228952Y-124468095D01*
X124658381Y-122308857D02*
X124182190Y-122642191D01*
X124658381Y-122880286D02*
X123658381Y-122880286D01*
X123658381Y-122499333D01*
X123706000Y-122404095D01*
X123753619Y-122356476D01*
X123848857Y-122308857D01*
X123991714Y-122308857D01*
X124086952Y-122356476D01*
X124134571Y-122404095D01*
X124182190Y-122499333D01*
X124182190Y-122880286D01*
X123991714Y-121451714D02*
X124658381Y-121451714D01*
X123610762Y-121689810D02*
X124325048Y-121927905D01*
X124325048Y-121308857D01*
X123658381Y-120737429D02*
X123658381Y-120642190D01*
X123706000Y-120546952D01*
X123753619Y-120499333D01*
X123848857Y-120451714D01*
X124039333Y-120404095D01*
X124277429Y-120404095D01*
X124467905Y-120451714D01*
X124563143Y-120499333D01*
X124610762Y-120546952D01*
X124658381Y-120642190D01*
X124658381Y-120737429D01*
X124610762Y-120832667D01*
X124563143Y-120880286D01*
X124467905Y-120927905D01*
X124277429Y-120975524D01*
X124039333Y-120975524D01*
X123848857Y-120927905D01*
X123753619Y-120880286D01*
X123706000Y-120832667D01*
X123658381Y-120737429D01*
X117546381Y-123197857D02*
X117070190Y-123531191D01*
X117546381Y-123769286D02*
X116546381Y-123769286D01*
X116546381Y-123388333D01*
X116594000Y-123293095D01*
X116641619Y-123245476D01*
X116736857Y-123197857D01*
X116879714Y-123197857D01*
X116974952Y-123245476D01*
X117022571Y-123293095D01*
X117070190Y-123388333D01*
X117070190Y-123769286D01*
X116879714Y-122340714D02*
X117546381Y-122340714D01*
X116498762Y-122578810D02*
X117213048Y-122816905D01*
X117213048Y-122197857D01*
X117546381Y-121293095D02*
X117546381Y-121864524D01*
X117546381Y-121578810D02*
X116546381Y-121578810D01*
X116689238Y-121674048D01*
X116784476Y-121769286D01*
X116832095Y-121864524D01*
X121531143Y-127960381D02*
X121197809Y-127484190D01*
X120959714Y-127960381D02*
X120959714Y-126960381D01*
X121340667Y-126960381D01*
X121435905Y-127008000D01*
X121483524Y-127055619D01*
X121531143Y-127150857D01*
X121531143Y-127293714D01*
X121483524Y-127388952D01*
X121435905Y-127436571D01*
X121340667Y-127484190D01*
X120959714Y-127484190D01*
X122388286Y-127293714D02*
X122388286Y-127960381D01*
X122150190Y-126912762D02*
X121912095Y-127627048D01*
X122531143Y-127627048D01*
X122864476Y-127055619D02*
X122912095Y-127008000D01*
X123007333Y-126960381D01*
X123245429Y-126960381D01*
X123340667Y-127008000D01*
X123388286Y-127055619D01*
X123435905Y-127150857D01*
X123435905Y-127246095D01*
X123388286Y-127388952D01*
X122816857Y-127960381D01*
X123435905Y-127960381D01*
X28067143Y-133500762D02*
X28210000Y-133548381D01*
X28448096Y-133548381D01*
X28543334Y-133500762D01*
X28590953Y-133453143D01*
X28638572Y-133357905D01*
X28638572Y-133262667D01*
X28590953Y-133167429D01*
X28543334Y-133119810D01*
X28448096Y-133072190D01*
X28257619Y-133024571D01*
X28162381Y-132976952D01*
X28114762Y-132929333D01*
X28067143Y-132834095D01*
X28067143Y-132738857D01*
X28114762Y-132643619D01*
X28162381Y-132596000D01*
X28257619Y-132548381D01*
X28495715Y-132548381D01*
X28638572Y-132596000D01*
X28924286Y-132548381D02*
X29495715Y-132548381D01*
X29210000Y-133548381D02*
X29210000Y-132548381D01*
X30352858Y-133548381D02*
X29781429Y-133548381D01*
X30067143Y-133548381D02*
X30067143Y-132548381D01*
X29971905Y-132691238D01*
X29876667Y-132786476D01*
X29781429Y-132834095D01*
X130683143Y-134008762D02*
X130826000Y-134056381D01*
X131064096Y-134056381D01*
X131159334Y-134008762D01*
X131206953Y-133961143D01*
X131254572Y-133865905D01*
X131254572Y-133770667D01*
X131206953Y-133675429D01*
X131159334Y-133627810D01*
X131064096Y-133580190D01*
X130873619Y-133532571D01*
X130778381Y-133484952D01*
X130730762Y-133437333D01*
X130683143Y-133342095D01*
X130683143Y-133246857D01*
X130730762Y-133151619D01*
X130778381Y-133104000D01*
X130873619Y-133056381D01*
X131111715Y-133056381D01*
X131254572Y-133104000D01*
X131540286Y-133056381D02*
X132111715Y-133056381D01*
X131826000Y-134056381D02*
X131826000Y-133056381D01*
X132397429Y-133151619D02*
X132445048Y-133104000D01*
X132540286Y-133056381D01*
X132778382Y-133056381D01*
X132873620Y-133104000D01*
X132921239Y-133151619D01*
X132968858Y-133246857D01*
X132968858Y-133342095D01*
X132921239Y-133484952D01*
X132349810Y-134056381D01*
X132968858Y-134056381D01*
X126619143Y-36599762D02*
X126762000Y-36647381D01*
X127000096Y-36647381D01*
X127095334Y-36599762D01*
X127142953Y-36552143D01*
X127190572Y-36456905D01*
X127190572Y-36361667D01*
X127142953Y-36266429D01*
X127095334Y-36218810D01*
X127000096Y-36171190D01*
X126809619Y-36123571D01*
X126714381Y-36075952D01*
X126666762Y-36028333D01*
X126619143Y-35933095D01*
X126619143Y-35837857D01*
X126666762Y-35742619D01*
X126714381Y-35695000D01*
X126809619Y-35647381D01*
X127047715Y-35647381D01*
X127190572Y-35695000D01*
X127476286Y-35647381D02*
X128047715Y-35647381D01*
X127762000Y-36647381D02*
X127762000Y-35647381D01*
X128285810Y-35647381D02*
X128904858Y-35647381D01*
X128571524Y-36028333D01*
X128714382Y-36028333D01*
X128809620Y-36075952D01*
X128857239Y-36123571D01*
X128904858Y-36218810D01*
X128904858Y-36456905D01*
X128857239Y-36552143D01*
X128809620Y-36599762D01*
X128714382Y-36647381D01*
X128428667Y-36647381D01*
X128333429Y-36599762D01*
X128285810Y-36552143D01*
X43691762Y-34035857D02*
X43739381Y-33893000D01*
X43739381Y-33654904D01*
X43691762Y-33559666D01*
X43644143Y-33512047D01*
X43548905Y-33464428D01*
X43453667Y-33464428D01*
X43358429Y-33512047D01*
X43310810Y-33559666D01*
X43263190Y-33654904D01*
X43215571Y-33845381D01*
X43167952Y-33940619D01*
X43120333Y-33988238D01*
X43025095Y-34035857D01*
X42929857Y-34035857D01*
X42834619Y-33988238D01*
X42787000Y-33940619D01*
X42739381Y-33845381D01*
X42739381Y-33607285D01*
X42787000Y-33464428D01*
X42739381Y-33178714D02*
X42739381Y-32607285D01*
X43739381Y-32893000D02*
X42739381Y-32893000D01*
X42739381Y-31797761D02*
X42739381Y-32273952D01*
X43215571Y-32321571D01*
X43167952Y-32273952D01*
X43120333Y-32178714D01*
X43120333Y-31940618D01*
X43167952Y-31845380D01*
X43215571Y-31797761D01*
X43310810Y-31750142D01*
X43548905Y-31750142D01*
X43644143Y-31797761D01*
X43691762Y-31845380D01*
X43739381Y-31940618D01*
X43739381Y-32178714D01*
X43691762Y-32273952D01*
X43644143Y-32321571D01*
X66421143Y-133500762D02*
X66564000Y-133548381D01*
X66802096Y-133548381D01*
X66897334Y-133500762D01*
X66944953Y-133453143D01*
X66992572Y-133357905D01*
X66992572Y-133262667D01*
X66944953Y-133167429D01*
X66897334Y-133119810D01*
X66802096Y-133072190D01*
X66611619Y-133024571D01*
X66516381Y-132976952D01*
X66468762Y-132929333D01*
X66421143Y-132834095D01*
X66421143Y-132738857D01*
X66468762Y-132643619D01*
X66516381Y-132596000D01*
X66611619Y-132548381D01*
X66849715Y-132548381D01*
X66992572Y-132596000D01*
X67278286Y-132548381D02*
X67849715Y-132548381D01*
X67564000Y-133548381D02*
X67564000Y-132548381D01*
X68611620Y-132548381D02*
X68421143Y-132548381D01*
X68325905Y-132596000D01*
X68278286Y-132643619D01*
X68183048Y-132786476D01*
X68135429Y-132976952D01*
X68135429Y-133357905D01*
X68183048Y-133453143D01*
X68230667Y-133500762D01*
X68325905Y-133548381D01*
X68516382Y-133548381D01*
X68611620Y-133500762D01*
X68659239Y-133453143D01*
X68706858Y-133357905D01*
X68706858Y-133119810D01*
X68659239Y-133024571D01*
X68611620Y-132976952D01*
X68516382Y-132929333D01*
X68325905Y-132929333D01*
X68230667Y-132976952D01*
X68183048Y-133024571D01*
X68135429Y-133119810D01*
X37190762Y-34091857D02*
X37238381Y-33949000D01*
X37238381Y-33710904D01*
X37190762Y-33615666D01*
X37143143Y-33568047D01*
X37047905Y-33520428D01*
X36952667Y-33520428D01*
X36857429Y-33568047D01*
X36809810Y-33615666D01*
X36762190Y-33710904D01*
X36714571Y-33901381D01*
X36666952Y-33996619D01*
X36619333Y-34044238D01*
X36524095Y-34091857D01*
X36428857Y-34091857D01*
X36333619Y-34044238D01*
X36286000Y-33996619D01*
X36238381Y-33901381D01*
X36238381Y-33663285D01*
X36286000Y-33520428D01*
X36238381Y-33234714D02*
X36238381Y-32663285D01*
X37238381Y-32949000D02*
X36238381Y-32949000D01*
X36238381Y-32425190D02*
X36238381Y-31758523D01*
X37238381Y-32187095D01*
X101036619Y-133421381D02*
X101036619Y-132421381D01*
X102084238Y-133326143D02*
X102036619Y-133373762D01*
X101893762Y-133421381D01*
X101798524Y-133421381D01*
X101655666Y-133373762D01*
X101560428Y-133278524D01*
X101512809Y-133183286D01*
X101465190Y-132992810D01*
X101465190Y-132849952D01*
X101512809Y-132659476D01*
X101560428Y-132564238D01*
X101655666Y-132469000D01*
X101798524Y-132421381D01*
X101893762Y-132421381D01*
X102036619Y-132469000D01*
X102084238Y-132516619D01*
X103036619Y-133421381D02*
X102465190Y-133421381D01*
X102750904Y-133421381D02*
X102750904Y-132421381D01*
X102655666Y-132564238D01*
X102560428Y-132659476D01*
X102465190Y-132707095D01*
X103417571Y-132516619D02*
X103465190Y-132469000D01*
X103560428Y-132421381D01*
X103798524Y-132421381D01*
X103893762Y-132469000D01*
X103941381Y-132516619D01*
X103989000Y-132611857D01*
X103989000Y-132707095D01*
X103941381Y-132849952D01*
X103369952Y-133421381D01*
X103989000Y-133421381D01*
X36393381Y-111815381D02*
X35393381Y-111815381D01*
X36298143Y-110767762D02*
X36345762Y-110815381D01*
X36393381Y-110958238D01*
X36393381Y-111053476D01*
X36345762Y-111196334D01*
X36250524Y-111291572D01*
X36155286Y-111339191D01*
X35964810Y-111386810D01*
X35821952Y-111386810D01*
X35631476Y-111339191D01*
X35536238Y-111291572D01*
X35441000Y-111196334D01*
X35393381Y-111053476D01*
X35393381Y-110958238D01*
X35441000Y-110815381D01*
X35488619Y-110767762D01*
X36393381Y-109815381D02*
X36393381Y-110386810D01*
X36393381Y-110101096D02*
X35393381Y-110101096D01*
X35536238Y-110196334D01*
X35631476Y-110291572D01*
X35679095Y-110386810D01*
X35393381Y-109482048D02*
X35393381Y-108863000D01*
X35774333Y-109196334D01*
X35774333Y-109053476D01*
X35821952Y-108958238D01*
X35869571Y-108910619D01*
X35964810Y-108863000D01*
X36202905Y-108863000D01*
X36298143Y-108910619D01*
X36345762Y-108958238D01*
X36393381Y-109053476D01*
X36393381Y-109339191D01*
X36345762Y-109434429D01*
X36298143Y-109482048D01*
X146248381Y-85272381D02*
X145248381Y-85272381D01*
X146153143Y-84224762D02*
X146200762Y-84272381D01*
X146248381Y-84415238D01*
X146248381Y-84510476D01*
X146200762Y-84653334D01*
X146105524Y-84748572D01*
X146010286Y-84796191D01*
X145819810Y-84843810D01*
X145676952Y-84843810D01*
X145486476Y-84796191D01*
X145391238Y-84748572D01*
X145296000Y-84653334D01*
X145248381Y-84510476D01*
X145248381Y-84415238D01*
X145296000Y-84272381D01*
X145343619Y-84224762D01*
X146248381Y-83272381D02*
X146248381Y-83843810D01*
X146248381Y-83558096D02*
X145248381Y-83558096D01*
X145391238Y-83653334D01*
X145486476Y-83748572D01*
X145534095Y-83843810D01*
X145248381Y-82367619D02*
X145248381Y-82843810D01*
X145724571Y-82891429D01*
X145676952Y-82843810D01*
X145629333Y-82748572D01*
X145629333Y-82510476D01*
X145676952Y-82415238D01*
X145724571Y-82367619D01*
X145819810Y-82320000D01*
X146057905Y-82320000D01*
X146153143Y-82367619D01*
X146200762Y-82415238D01*
X146248381Y-82510476D01*
X146248381Y-82748572D01*
X146200762Y-82843810D01*
X146153143Y-82891429D01*
X94145361Y-108751666D02*
X94145361Y-109227857D01*
X93145361Y-109227857D01*
X94145361Y-107894523D02*
X94145361Y-108465952D01*
X94145361Y-108180238D02*
X93145361Y-108180238D01*
X93288218Y-108275476D01*
X93383456Y-108370714D01*
X93431075Y-108465952D01*
X94145361Y-120181666D02*
X94145361Y-120657857D01*
X93145361Y-120657857D01*
X93240599Y-119895952D02*
X93192980Y-119848333D01*
X93145361Y-119753095D01*
X93145361Y-119514999D01*
X93192980Y-119419761D01*
X93240599Y-119372142D01*
X93335837Y-119324523D01*
X93431075Y-119324523D01*
X93573932Y-119372142D01*
X94145361Y-119943571D01*
X94145361Y-119324523D01*
X77116381Y-119475666D02*
X77116381Y-119951857D01*
X76116381Y-119951857D01*
X76116381Y-119237571D02*
X76116381Y-118618523D01*
X76497333Y-118951857D01*
X76497333Y-118808999D01*
X76544952Y-118713761D01*
X76592571Y-118666142D01*
X76687810Y-118618523D01*
X76925905Y-118618523D01*
X77021143Y-118666142D01*
X77068762Y-118713761D01*
X77116381Y-118808999D01*
X77116381Y-119094714D01*
X77068762Y-119189952D01*
X77021143Y-119237571D01*
X108115361Y-120181666D02*
X108115361Y-120657857D01*
X107115361Y-120657857D01*
X107448694Y-119419761D02*
X108115361Y-119419761D01*
X107067742Y-119657857D02*
X107782028Y-119895952D01*
X107782028Y-119276904D01*
X108115361Y-108751666D02*
X108115361Y-109227857D01*
X107115361Y-109227857D01*
X107115361Y-107942142D02*
X107115361Y-108418333D01*
X107591551Y-108465952D01*
X107543932Y-108418333D01*
X107496313Y-108323095D01*
X107496313Y-108084999D01*
X107543932Y-107989761D01*
X107591551Y-107942142D01*
X107686790Y-107894523D01*
X107924885Y-107894523D01*
X108020123Y-107942142D01*
X108067742Y-107989761D01*
X108115361Y-108084999D01*
X108115361Y-108323095D01*
X108067742Y-108418333D01*
X108020123Y-108465952D01*
X121312381Y-119094666D02*
X121312381Y-119570857D01*
X120312381Y-119570857D01*
X120312381Y-118332761D02*
X120312381Y-118523238D01*
X120360000Y-118618476D01*
X120407619Y-118666095D01*
X120550476Y-118761333D01*
X120740952Y-118808952D01*
X121121905Y-118808952D01*
X121217143Y-118761333D01*
X121264762Y-118713714D01*
X121312381Y-118618476D01*
X121312381Y-118427999D01*
X121264762Y-118332761D01*
X121217143Y-118285142D01*
X121121905Y-118237523D01*
X120883810Y-118237523D01*
X120788571Y-118285142D01*
X120740952Y-118332761D01*
X120693333Y-118427999D01*
X120693333Y-118618476D01*
X120740952Y-118713714D01*
X120788571Y-118761333D01*
X120883810Y-118808952D01*
X69318119Y-61753738D02*
X69270500Y-61848976D01*
X69175262Y-61944214D01*
X69032405Y-62087071D01*
X68984786Y-62182310D01*
X68984786Y-62277548D01*
X69222881Y-62229929D02*
X69175262Y-62325167D01*
X69080024Y-62420405D01*
X68889548Y-62468024D01*
X68556214Y-62468024D01*
X68365738Y-62420405D01*
X68270500Y-62325167D01*
X68222881Y-62229929D01*
X68222881Y-62039452D01*
X68270500Y-61944214D01*
X68365738Y-61848976D01*
X68556214Y-61801357D01*
X68889548Y-61801357D01*
X69080024Y-61848976D01*
X69175262Y-61944214D01*
X69222881Y-62039452D01*
X69222881Y-62229929D01*
X69222881Y-60848976D02*
X69222881Y-61420405D01*
X69222881Y-61134691D02*
X68222881Y-61134691D01*
X68365738Y-61229929D01*
X68460976Y-61325167D01*
X68508595Y-61420405D01*
X82208762Y-73826619D02*
X82113524Y-73779000D01*
X82018286Y-73683762D01*
X81875429Y-73540905D01*
X81780190Y-73493286D01*
X81684952Y-73493286D01*
X81732571Y-73731381D02*
X81637333Y-73683762D01*
X81542095Y-73588524D01*
X81494476Y-73398048D01*
X81494476Y-73064714D01*
X81542095Y-72874238D01*
X81637333Y-72779000D01*
X81732571Y-72731381D01*
X81923048Y-72731381D01*
X82018286Y-72779000D01*
X82113524Y-72874238D01*
X82161143Y-73064714D01*
X82161143Y-73398048D01*
X82113524Y-73588524D01*
X82018286Y-73683762D01*
X81923048Y-73731381D01*
X81732571Y-73731381D01*
X83113524Y-72779000D02*
X83018286Y-72731381D01*
X82875429Y-72731381D01*
X82732571Y-72779000D01*
X82637333Y-72874238D01*
X82589714Y-72969476D01*
X82542095Y-73159952D01*
X82542095Y-73302810D01*
X82589714Y-73493286D01*
X82637333Y-73588524D01*
X82732571Y-73683762D01*
X82875429Y-73731381D01*
X82970667Y-73731381D01*
X83113524Y-73683762D01*
X83161143Y-73636143D01*
X83161143Y-73302810D01*
X82970667Y-73302810D01*
X84113524Y-73731381D02*
X83542095Y-73731381D01*
X83827809Y-73731381D02*
X83827809Y-72731381D01*
X83732571Y-72874238D01*
X83637333Y-72969476D01*
X83542095Y-73017095D01*
X140422381Y-119125905D02*
X140422381Y-118554476D01*
X141422381Y-118840191D02*
X140422381Y-118840191D01*
X141422381Y-117697333D02*
X141422381Y-118268762D01*
X141422381Y-117983048D02*
X140422381Y-117983048D01*
X140565238Y-118078286D01*
X140660476Y-118173524D01*
X140708095Y-118268762D01*
X32766890Y-84953221D02*
X32766890Y-83953221D01*
X33814509Y-84857983D02*
X33766890Y-84905602D01*
X33624033Y-84953221D01*
X33528795Y-84953221D01*
X33385937Y-84905602D01*
X33290699Y-84810364D01*
X33243080Y-84715126D01*
X33195461Y-84524650D01*
X33195461Y-84381792D01*
X33243080Y-84191316D01*
X33290699Y-84096078D01*
X33385937Y-84000840D01*
X33528795Y-83953221D01*
X33624033Y-83953221D01*
X33766890Y-84000840D01*
X33814509Y-84048459D01*
X34385937Y-84381792D02*
X34290699Y-84334173D01*
X34243080Y-84286554D01*
X34195461Y-84191316D01*
X34195461Y-84143697D01*
X34243080Y-84048459D01*
X34290699Y-84000840D01*
X34385937Y-83953221D01*
X34576414Y-83953221D01*
X34671652Y-84000840D01*
X34719271Y-84048459D01*
X34766890Y-84143697D01*
X34766890Y-84191316D01*
X34719271Y-84286554D01*
X34671652Y-84334173D01*
X34576414Y-84381792D01*
X34385937Y-84381792D01*
X34290699Y-84429411D01*
X34243080Y-84477030D01*
X34195461Y-84572269D01*
X34195461Y-84762745D01*
X34243080Y-84857983D01*
X34290699Y-84905602D01*
X34385937Y-84953221D01*
X34576414Y-84953221D01*
X34671652Y-84905602D01*
X34719271Y-84857983D01*
X34766890Y-84762745D01*
X34766890Y-84572269D01*
X34719271Y-84477030D01*
X34671652Y-84429411D01*
X34576414Y-84381792D01*
X97289881Y-43711690D02*
X96289881Y-43711690D01*
X97194643Y-42664071D02*
X97242262Y-42711690D01*
X97289881Y-42854547D01*
X97289881Y-42949785D01*
X97242262Y-43092643D01*
X97147024Y-43187881D01*
X97051786Y-43235500D01*
X96861310Y-43283119D01*
X96718452Y-43283119D01*
X96527976Y-43235500D01*
X96432738Y-43187881D01*
X96337500Y-43092643D01*
X96289881Y-42949785D01*
X96289881Y-42854547D01*
X96337500Y-42711690D01*
X96385119Y-42664071D01*
X96385119Y-42283119D02*
X96337500Y-42235500D01*
X96289881Y-42140262D01*
X96289881Y-41902166D01*
X96337500Y-41806928D01*
X96385119Y-41759309D01*
X96480357Y-41711690D01*
X96575595Y-41711690D01*
X96718452Y-41759309D01*
X97289881Y-42330738D01*
X97289881Y-41711690D01*
X100306143Y-91320857D02*
X100353762Y-91368476D01*
X100401381Y-91511333D01*
X100401381Y-91606571D01*
X100353762Y-91749429D01*
X100258524Y-91844667D01*
X100163286Y-91892286D01*
X99972810Y-91939905D01*
X99829952Y-91939905D01*
X99639476Y-91892286D01*
X99544238Y-91844667D01*
X99449000Y-91749429D01*
X99401381Y-91606571D01*
X99401381Y-91511333D01*
X99449000Y-91368476D01*
X99496619Y-91320857D01*
X100401381Y-90368476D02*
X100401381Y-90939905D01*
X100401381Y-90654191D02*
X99401381Y-90654191D01*
X99544238Y-90749429D01*
X99639476Y-90844667D01*
X99687095Y-90939905D01*
X99734714Y-89511333D02*
X100401381Y-89511333D01*
X99353762Y-89749429D02*
X100068048Y-89987524D01*
X100068048Y-89368476D01*
X92289334Y-55348143D02*
X92241715Y-55395762D01*
X92098858Y-55443381D01*
X92003620Y-55443381D01*
X91860762Y-55395762D01*
X91765524Y-55300524D01*
X91717905Y-55205286D01*
X91670286Y-55014810D01*
X91670286Y-54871952D01*
X91717905Y-54681476D01*
X91765524Y-54586238D01*
X91860762Y-54491000D01*
X92003620Y-54443381D01*
X92098858Y-54443381D01*
X92241715Y-54491000D01*
X92289334Y-54538619D01*
X93241715Y-55443381D02*
X92670286Y-55443381D01*
X92956000Y-55443381D02*
X92956000Y-54443381D01*
X92860762Y-54586238D01*
X92765524Y-54681476D01*
X92670286Y-54729095D01*
X114740143Y-143097666D02*
X114787762Y-143145285D01*
X114835381Y-143288142D01*
X114835381Y-143383380D01*
X114787762Y-143526238D01*
X114692524Y-143621476D01*
X114597286Y-143669095D01*
X114406810Y-143716714D01*
X114263952Y-143716714D01*
X114073476Y-143669095D01*
X113978238Y-143621476D01*
X113883000Y-143526238D01*
X113835381Y-143383380D01*
X113835381Y-143288142D01*
X113883000Y-143145285D01*
X113930619Y-143097666D01*
X113930619Y-142716714D02*
X113883000Y-142669095D01*
X113835381Y-142573857D01*
X113835381Y-142335761D01*
X113883000Y-142240523D01*
X113930619Y-142192904D01*
X114025857Y-142145285D01*
X114121095Y-142145285D01*
X114263952Y-142192904D01*
X114835381Y-142764333D01*
X114835381Y-142145285D01*
X103100143Y-50458666D02*
X103147762Y-50506285D01*
X103195381Y-50649142D01*
X103195381Y-50744380D01*
X103147762Y-50887238D01*
X103052524Y-50982476D01*
X102957286Y-51030095D01*
X102766810Y-51077714D01*
X102623952Y-51077714D01*
X102433476Y-51030095D01*
X102338238Y-50982476D01*
X102243000Y-50887238D01*
X102195381Y-50744380D01*
X102195381Y-50649142D01*
X102243000Y-50506285D01*
X102290619Y-50458666D01*
X102195381Y-49601523D02*
X102195381Y-49792000D01*
X102243000Y-49887238D01*
X102290619Y-49934857D01*
X102433476Y-50030095D01*
X102623952Y-50077714D01*
X103004905Y-50077714D01*
X103100143Y-50030095D01*
X103147762Y-49982476D01*
X103195381Y-49887238D01*
X103195381Y-49696761D01*
X103147762Y-49601523D01*
X103100143Y-49553904D01*
X103004905Y-49506285D01*
X102766810Y-49506285D01*
X102671571Y-49553904D01*
X102623952Y-49601523D01*
X102576333Y-49696761D01*
X102576333Y-49887238D01*
X102623952Y-49982476D01*
X102671571Y-50030095D01*
X102766810Y-50077714D01*
X103719334Y-48109143D02*
X103671715Y-48156762D01*
X103528858Y-48204381D01*
X103433620Y-48204381D01*
X103290762Y-48156762D01*
X103195524Y-48061524D01*
X103147905Y-47966286D01*
X103100286Y-47775810D01*
X103100286Y-47632952D01*
X103147905Y-47442476D01*
X103195524Y-47347238D01*
X103290762Y-47252000D01*
X103433620Y-47204381D01*
X103528858Y-47204381D01*
X103671715Y-47252000D01*
X103719334Y-47299619D01*
X104052667Y-47204381D02*
X104719334Y-47204381D01*
X104290762Y-48204381D01*
X97849143Y-35401666D02*
X97896762Y-35449285D01*
X97944381Y-35592142D01*
X97944381Y-35687380D01*
X97896762Y-35830238D01*
X97801524Y-35925476D01*
X97706286Y-35973095D01*
X97515810Y-36020714D01*
X97372952Y-36020714D01*
X97182476Y-35973095D01*
X97087238Y-35925476D01*
X96992000Y-35830238D01*
X96944381Y-35687380D01*
X96944381Y-35592142D01*
X96992000Y-35449285D01*
X97039619Y-35401666D01*
X97372952Y-34830238D02*
X97325333Y-34925476D01*
X97277714Y-34973095D01*
X97182476Y-35020714D01*
X97134857Y-35020714D01*
X97039619Y-34973095D01*
X96992000Y-34925476D01*
X96944381Y-34830238D01*
X96944381Y-34639761D01*
X96992000Y-34544523D01*
X97039619Y-34496904D01*
X97134857Y-34449285D01*
X97182476Y-34449285D01*
X97277714Y-34496904D01*
X97325333Y-34544523D01*
X97372952Y-34639761D01*
X97372952Y-34830238D01*
X97420571Y-34925476D01*
X97468190Y-34973095D01*
X97563429Y-35020714D01*
X97753905Y-35020714D01*
X97849143Y-34973095D01*
X97896762Y-34925476D01*
X97944381Y-34830238D01*
X97944381Y-34639761D01*
X97896762Y-34544523D01*
X97849143Y-34496904D01*
X97753905Y-34449285D01*
X97563429Y-34449285D01*
X97468190Y-34496904D01*
X97420571Y-34544523D01*
X97372952Y-34639761D01*
X101322143Y-53379666D02*
X101369762Y-53427285D01*
X101417381Y-53570142D01*
X101417381Y-53665380D01*
X101369762Y-53808238D01*
X101274524Y-53903476D01*
X101179286Y-53951095D01*
X100988810Y-53998714D01*
X100845952Y-53998714D01*
X100655476Y-53951095D01*
X100560238Y-53903476D01*
X100465000Y-53808238D01*
X100417381Y-53665380D01*
X100417381Y-53570142D01*
X100465000Y-53427285D01*
X100512619Y-53379666D01*
X101417381Y-52903476D02*
X101417381Y-52713000D01*
X101369762Y-52617761D01*
X101322143Y-52570142D01*
X101179286Y-52474904D01*
X100988810Y-52427285D01*
X100607857Y-52427285D01*
X100512619Y-52474904D01*
X100465000Y-52522523D01*
X100417381Y-52617761D01*
X100417381Y-52808238D01*
X100465000Y-52903476D01*
X100512619Y-52951095D01*
X100607857Y-52998714D01*
X100845952Y-52998714D01*
X100941190Y-52951095D01*
X100988810Y-52903476D01*
X101036429Y-52808238D01*
X101036429Y-52617761D01*
X100988810Y-52522523D01*
X100941190Y-52474904D01*
X100845952Y-52427285D01*
X74417810Y-111760381D02*
X74417810Y-110760381D01*
X75465429Y-111665143D02*
X75417810Y-111712762D01*
X75274953Y-111760381D01*
X75179715Y-111760381D01*
X75036857Y-111712762D01*
X74941619Y-111617524D01*
X74894000Y-111522286D01*
X74846381Y-111331810D01*
X74846381Y-111188952D01*
X74894000Y-110998476D01*
X74941619Y-110903238D01*
X75036857Y-110808000D01*
X75179715Y-110760381D01*
X75274953Y-110760381D01*
X75417810Y-110808000D01*
X75465429Y-110855619D01*
X75798762Y-110760381D02*
X76465429Y-110760381D01*
X76036857Y-111760381D01*
X120296619Y-111760381D02*
X120296619Y-110760381D01*
X121344238Y-111665143D02*
X121296619Y-111712762D01*
X121153762Y-111760381D01*
X121058524Y-111760381D01*
X120915666Y-111712762D01*
X120820428Y-111617524D01*
X120772809Y-111522286D01*
X120725190Y-111331810D01*
X120725190Y-111188952D01*
X120772809Y-110998476D01*
X120820428Y-110903238D01*
X120915666Y-110808000D01*
X121058524Y-110760381D01*
X121153762Y-110760381D01*
X121296619Y-110808000D01*
X121344238Y-110855619D01*
X122296619Y-111760381D02*
X121725190Y-111760381D01*
X122010904Y-111760381D02*
X122010904Y-110760381D01*
X121915666Y-110903238D01*
X121820428Y-110998476D01*
X121725190Y-111046095D01*
X123249000Y-111760381D02*
X122677571Y-111760381D01*
X122963285Y-111760381D02*
X122963285Y-110760381D01*
X122868047Y-110903238D01*
X122772809Y-110998476D01*
X122677571Y-111046095D01*
X65734143Y-71279143D02*
X65686524Y-71326762D01*
X65543667Y-71374381D01*
X65448429Y-71374381D01*
X65305571Y-71326762D01*
X65210333Y-71231524D01*
X65162714Y-71136286D01*
X65115095Y-70945810D01*
X65115095Y-70802952D01*
X65162714Y-70612476D01*
X65210333Y-70517238D01*
X65305571Y-70422000D01*
X65448429Y-70374381D01*
X65543667Y-70374381D01*
X65686524Y-70422000D01*
X65734143Y-70469619D01*
X66686524Y-71374381D02*
X66115095Y-71374381D01*
X66400809Y-71374381D02*
X66400809Y-70374381D01*
X66305571Y-70517238D01*
X66210333Y-70612476D01*
X66115095Y-70660095D01*
X67305571Y-70374381D02*
X67400810Y-70374381D01*
X67496048Y-70422000D01*
X67543667Y-70469619D01*
X67591286Y-70564857D01*
X67638905Y-70755333D01*
X67638905Y-70993429D01*
X67591286Y-71183905D01*
X67543667Y-71279143D01*
X67496048Y-71326762D01*
X67400810Y-71374381D01*
X67305571Y-71374381D01*
X67210333Y-71326762D01*
X67162714Y-71279143D01*
X67115095Y-71183905D01*
X67067476Y-70993429D01*
X67067476Y-70755333D01*
X67115095Y-70564857D01*
X67162714Y-70469619D01*
X67210333Y-70422000D01*
X67305571Y-70374381D01*
X70687143Y-71279143D02*
X70639524Y-71326762D01*
X70496667Y-71374381D01*
X70401429Y-71374381D01*
X70258571Y-71326762D01*
X70163333Y-71231524D01*
X70115714Y-71136286D01*
X70068095Y-70945810D01*
X70068095Y-70802952D01*
X70115714Y-70612476D01*
X70163333Y-70517238D01*
X70258571Y-70422000D01*
X70401429Y-70374381D01*
X70496667Y-70374381D01*
X70639524Y-70422000D01*
X70687143Y-70469619D01*
X71639524Y-71374381D02*
X71068095Y-71374381D01*
X71353809Y-71374381D02*
X71353809Y-70374381D01*
X71258571Y-70517238D01*
X71163333Y-70612476D01*
X71068095Y-70660095D01*
X72591905Y-71374381D02*
X72020476Y-71374381D01*
X72306190Y-71374381D02*
X72306190Y-70374381D01*
X72210952Y-70517238D01*
X72115714Y-70612476D01*
X72020476Y-70660095D01*
X30380381Y-40164095D02*
X29380381Y-40164095D01*
X29380381Y-39926000D01*
X29428000Y-39783142D01*
X29523238Y-39687904D01*
X29618476Y-39640285D01*
X29808952Y-39592666D01*
X29951810Y-39592666D01*
X30142286Y-39640285D01*
X30237524Y-39687904D01*
X30332762Y-39783142D01*
X30380381Y-39926000D01*
X30380381Y-40164095D01*
X29380381Y-39259333D02*
X29380381Y-38640285D01*
X29761333Y-38973619D01*
X29761333Y-38830761D01*
X29808952Y-38735523D01*
X29856571Y-38687904D01*
X29951810Y-38640285D01*
X30189905Y-38640285D01*
X30285143Y-38687904D01*
X30332762Y-38735523D01*
X30380381Y-38830761D01*
X30380381Y-39116476D01*
X30332762Y-39211714D01*
X30285143Y-39259333D01*
X85244381Y-52848190D02*
X84244381Y-52848190D01*
X85149143Y-51800571D02*
X85196762Y-51848190D01*
X85244381Y-51991047D01*
X85244381Y-52086285D01*
X85196762Y-52229143D01*
X85101524Y-52324381D01*
X85006286Y-52372000D01*
X84815810Y-52419619D01*
X84672952Y-52419619D01*
X84482476Y-52372000D01*
X84387238Y-52324381D01*
X84292000Y-52229143D01*
X84244381Y-52086285D01*
X84244381Y-51991047D01*
X84292000Y-51848190D01*
X84339619Y-51800571D01*
X85244381Y-50848190D02*
X85244381Y-51419619D01*
X85244381Y-51133905D02*
X84244381Y-51133905D01*
X84387238Y-51229143D01*
X84482476Y-51324381D01*
X84530095Y-51419619D01*
X34532143Y-55227143D02*
X34484524Y-55274762D01*
X34341667Y-55322381D01*
X34246429Y-55322381D01*
X34103571Y-55274762D01*
X34008333Y-55179524D01*
X33960714Y-55084286D01*
X33913095Y-54893810D01*
X33913095Y-54750952D01*
X33960714Y-54560476D01*
X34008333Y-54465238D01*
X34103571Y-54370000D01*
X34246429Y-54322381D01*
X34341667Y-54322381D01*
X34484524Y-54370000D01*
X34532143Y-54417619D01*
X34913095Y-54417619D02*
X34960714Y-54370000D01*
X35055952Y-54322381D01*
X35294048Y-54322381D01*
X35389286Y-54370000D01*
X35436905Y-54417619D01*
X35484524Y-54512857D01*
X35484524Y-54608095D01*
X35436905Y-54750952D01*
X34865476Y-55322381D01*
X35484524Y-55322381D01*
X35817857Y-54322381D02*
X36436905Y-54322381D01*
X36103571Y-54703333D01*
X36246429Y-54703333D01*
X36341667Y-54750952D01*
X36389286Y-54798571D01*
X36436905Y-54893810D01*
X36436905Y-55131905D01*
X36389286Y-55227143D01*
X36341667Y-55274762D01*
X36246429Y-55322381D01*
X35960714Y-55322381D01*
X35865476Y-55274762D01*
X35817857Y-55227143D01*
M02*
