G04 #@! TF.FileFunction,Copper,L2,Bot,Signal*
%FSLAX46Y46*%
G04 Gerber Fmt 4.6, Leading zero omitted, Abs format (unit mm)*
G04 Created by KiCad (PCBNEW 4.0.2-stable) date 2021 June 25, Friday 22:27:55*
%MOMM*%
G01*
G04 APERTURE LIST*
%ADD10C,0.100000*%
%ADD11O,2.032000X2.032000*%
%ADD12C,2.032000*%
%ADD13R,2.032000X2.032000*%
%ADD14C,2.000000*%
%ADD15C,1.905000*%
%ADD16C,1.800000*%
%ADD17R,2.413000X2.413000*%
%ADD18C,2.499360*%
%ADD19O,1.800000X3.600000*%
%ADD20C,1.778000*%
%ADD21O,1.800000X2.300000*%
%ADD22O,5.000000X5.000000*%
%ADD23O,2.100000X2.500000*%
%ADD24C,2.600000*%
%ADD25O,2.200000X2.000000*%
%ADD26O,2.000000X2.200000*%
%ADD27C,6.000000*%
%ADD28C,2.200000*%
%ADD29C,0.600000*%
%ADD30C,1.000000*%
%ADD31C,0.500000*%
%ADD32C,1.500000*%
%ADD33C,0.400000*%
%ADD34C,0.750000*%
%ADD35C,0.254000*%
G04 APERTURE END LIST*
D10*
D11*
X32766000Y-14986000D03*
D12*
X35306000Y-14986000D03*
X37846000Y-14986000D03*
X40386000Y-14986000D03*
X42926000Y-14986000D03*
X45466000Y-14986000D03*
D13*
X18625000Y-15042000D03*
D11*
X16085000Y-15042000D03*
D14*
X76073000Y-93218000D03*
X76073000Y-88138000D03*
X76073000Y-104648000D03*
X76073000Y-99568000D03*
D15*
X90043000Y-104648000D03*
X90043000Y-99568000D03*
X90043000Y-93218000D03*
X90043000Y-88138000D03*
D16*
X55653940Y-43688000D03*
X50772060Y-43688000D03*
D17*
X63500000Y-47879000D03*
D18*
X63500000Y-63119000D03*
X71120000Y-63119000D03*
X71120000Y-47879000D03*
D19*
X21038000Y-43744000D03*
X23578000Y-43744000D03*
X18498000Y-43744000D03*
D20*
X50756000Y-51237000D03*
X50756000Y-48737000D03*
X55709000Y-48697000D03*
X55709000Y-51197000D03*
D12*
X23578000Y-21519000D03*
X15958000Y-21519000D03*
D21*
X32766000Y-37846000D03*
X35306000Y-37846000D03*
X37846000Y-37846000D03*
X40386000Y-37846000D03*
X42926000Y-37846000D03*
X45466000Y-37846000D03*
X48006000Y-37846000D03*
X50546000Y-37846000D03*
X53086000Y-37846000D03*
X55626000Y-37846000D03*
X58166000Y-37846000D03*
X60706000Y-37846000D03*
X63246000Y-37846000D03*
X65786000Y-37846000D03*
X65786000Y-30226000D03*
X63246000Y-30226000D03*
X60706000Y-30226000D03*
X58166000Y-30226000D03*
X55626000Y-30226000D03*
X53086000Y-30226000D03*
X50546000Y-30226000D03*
X48006000Y-30226000D03*
X45466000Y-30226000D03*
X42926000Y-30226000D03*
X40386000Y-30226000D03*
X37846000Y-30226000D03*
X35306000Y-30226000D03*
X32766000Y-30226000D03*
D14*
X22054000Y-30663000D03*
X17054000Y-30663000D03*
D22*
X26179780Y-120548400D03*
X15981680Y-120548400D03*
D23*
X21082000Y-116283740D03*
X23581360Y-116283740D03*
D22*
X127322580Y-120548400D03*
X117124480Y-120548400D03*
D23*
X122224800Y-116283740D03*
X124724160Y-116283740D03*
D22*
X42518780Y-120477400D03*
X32320680Y-120477400D03*
D23*
X37421000Y-116212740D03*
X39920360Y-116212740D03*
D22*
X63136780Y-120548400D03*
X52938680Y-120548400D03*
D23*
X58039000Y-116283740D03*
X60538360Y-116283740D03*
D24*
X127586740Y-106956860D03*
X127586740Y-93957140D03*
X121587260Y-106956860D03*
X121587260Y-93957140D03*
D25*
X95079000Y-119436000D03*
D26*
X92539000Y-116896000D03*
X92539000Y-121976000D03*
D27*
X123647200Y-19227800D03*
X98247200Y-19227800D03*
D28*
X116408200Y-21767800D03*
X113614200Y-21767800D03*
X110820200Y-21767800D03*
X108153200Y-21767800D03*
X105359200Y-21767800D03*
X106756200Y-19227800D03*
X109550200Y-19227800D03*
X112217200Y-19227800D03*
X115011200Y-19227800D03*
D26*
X91567000Y-31750000D03*
D25*
X89027000Y-34290000D03*
X94107000Y-34290000D03*
D13*
X57023000Y-14986000D03*
D11*
X54483000Y-14986000D03*
D29*
X86824000Y-69906000D03*
X79458000Y-69906000D03*
X86658000Y-57499000D03*
X79458000Y-57460000D03*
X126956000Y-82860000D03*
X127083000Y-71811000D03*
X127210000Y-70033000D03*
X119463000Y-70033000D03*
X60325000Y-18542000D03*
X37846000Y-18542000D03*
X92075000Y-66929000D03*
X74803000Y-65786000D03*
X95333000Y-59746000D03*
X112605000Y-68001000D03*
X34373000Y-83241000D03*
X40469000Y-63429000D03*
X117939000Y-74224000D03*
X117177000Y-38029000D03*
X119844000Y-33711000D03*
X109938000Y-28123000D03*
X107398000Y-31425000D03*
X27813000Y-26416000D03*
D30*
X79458000Y-69906000D02*
X86824000Y-69906000D01*
X86619000Y-57460000D02*
X79458000Y-57460000D01*
X86658000Y-57499000D02*
X86619000Y-57460000D01*
D31*
X126956000Y-71938000D02*
X126956000Y-82677000D01*
D30*
X126956000Y-82677000D02*
X126956000Y-82860000D01*
X127083000Y-71811000D02*
X126956000Y-71938000D01*
X119463000Y-70033000D02*
X119888000Y-70033000D01*
D31*
X119888000Y-70033000D02*
X126873000Y-70033000D01*
D30*
X126873000Y-70033000D02*
X127210000Y-70033000D01*
D32*
X23578000Y-21519000D02*
X34869000Y-21519000D01*
X94107000Y-25400000D02*
X94107000Y-34290000D01*
X87249000Y-18542000D02*
X94107000Y-25400000D01*
X60325000Y-18542000D02*
X87249000Y-18542000D01*
X34869000Y-21519000D02*
X37846000Y-18542000D01*
X49486000Y-91623000D02*
X22054000Y-91623000D01*
X23578000Y-39680000D02*
X17863000Y-39680000D01*
X15831000Y-41712000D02*
X15831000Y-85400000D01*
X17863000Y-39680000D02*
X15831000Y-41712000D01*
X15831000Y-85400000D02*
X15831000Y-85273000D01*
X15831000Y-85273000D02*
X15831000Y-85400000D01*
X23578000Y-43744000D02*
X23578000Y-39680000D01*
X23578000Y-39680000D02*
X23578000Y-32187000D01*
X23578000Y-32187000D02*
X22054000Y-30663000D01*
X22054000Y-91623000D02*
X15831000Y-85400000D01*
X67901000Y-110038000D02*
X49486000Y-91623000D01*
X76537000Y-110038000D02*
X67901000Y-110038000D01*
X88546000Y-122047000D02*
X76537000Y-110038000D01*
X88546000Y-122047000D02*
X92583000Y-122047000D01*
X23578000Y-21519000D02*
X23578000Y-29139000D01*
X23578000Y-29139000D02*
X22054000Y-30663000D01*
D31*
X50772060Y-43688000D02*
X50772060Y-48720940D01*
X50772060Y-48720940D02*
X50756000Y-48737000D01*
X53086000Y-37846000D02*
X53086000Y-41374060D01*
X53086000Y-41374060D02*
X50772060Y-43688000D01*
X55653940Y-43688000D02*
X55653940Y-48641940D01*
X55653940Y-48641940D02*
X55709000Y-48697000D01*
X55626000Y-37846000D02*
X55626000Y-43660060D01*
X55626000Y-43660060D02*
X55653940Y-43688000D01*
D33*
X88900000Y-63754000D02*
X91821000Y-66675000D01*
X91821000Y-66675000D02*
X92075000Y-66929000D01*
X76835000Y-63754000D02*
X88900000Y-63754000D01*
D30*
X74803000Y-65786000D02*
X75057000Y-65532000D01*
D33*
X75057000Y-65532000D02*
X76835000Y-63754000D01*
D30*
X18498000Y-43744000D02*
X18498000Y-45903000D01*
X18498000Y-45903000D02*
X36087500Y-63492500D01*
X95333000Y-59746000D02*
X95333000Y-73716000D01*
X103588000Y-73716000D02*
X109303000Y-68001000D01*
X109303000Y-68001000D02*
X112605000Y-68001000D01*
X95333000Y-73716000D02*
X103588000Y-73716000D01*
X49867000Y-63429000D02*
X60154000Y-73716000D01*
X40469000Y-63429000D02*
X49867000Y-63429000D01*
X60154000Y-73716000D02*
X95333000Y-73716000D01*
X34373000Y-83241000D02*
X34373000Y-65207000D01*
X34373000Y-65207000D02*
X36087500Y-63492500D01*
X36087500Y-63492500D02*
X36151000Y-63429000D01*
X36151000Y-63429000D02*
X40469000Y-63429000D01*
D31*
X42926000Y-37846000D02*
X42926000Y-37096000D01*
X42926000Y-37096000D02*
X44533000Y-35489000D01*
X44533000Y-35489000D02*
X86697000Y-35489000D01*
X86697000Y-35489000D02*
X117939000Y-66731000D01*
X117939000Y-66731000D02*
X117939000Y-73914000D01*
D30*
X117939000Y-73914000D02*
X117939000Y-74224000D01*
D31*
X16085000Y-15042000D02*
X15958000Y-15169000D01*
D32*
X15958000Y-15169000D02*
X15958000Y-21519000D01*
D31*
X35306000Y-30226000D02*
X35306000Y-26428000D01*
X42926000Y-22110000D02*
X42926000Y-14986000D01*
X39326000Y-25710000D02*
X42926000Y-22110000D01*
X36024000Y-25710000D02*
X39326000Y-25710000D01*
X35306000Y-26428000D02*
X36024000Y-25710000D01*
X32766000Y-30226000D02*
X32766000Y-25666000D01*
X40386000Y-21983000D02*
X40386000Y-14986000D01*
X38691000Y-23678000D02*
X40386000Y-21983000D01*
X34754000Y-23678000D02*
X38691000Y-23678000D01*
X32766000Y-25666000D02*
X34754000Y-23678000D01*
D34*
X112224000Y-17963000D02*
X112224000Y-19233000D01*
X112859000Y-17328000D02*
X112224000Y-17963000D01*
X117304000Y-17328000D02*
X112859000Y-17328000D01*
X118320000Y-18344000D02*
X117304000Y-17328000D01*
X118320000Y-36886000D02*
X118320000Y-18344000D01*
D30*
X117177000Y-38029000D02*
X117475000Y-37731000D01*
D34*
X117475000Y-37731000D02*
X118320000Y-36886000D01*
X109557000Y-17582000D02*
X109557000Y-19233000D01*
X111208000Y-15931000D02*
X109557000Y-17582000D01*
X117939000Y-15931000D02*
X111208000Y-15931000D01*
X119844000Y-17836000D02*
X117939000Y-15931000D01*
D30*
X119844000Y-33711000D02*
X119844000Y-33274000D01*
D34*
X119844000Y-33274000D02*
X119844000Y-17836000D01*
X110827000Y-27234000D02*
X110827000Y-21773000D01*
D30*
X109938000Y-28123000D02*
X109982000Y-28079000D01*
D34*
X109982000Y-28079000D02*
X110827000Y-27234000D01*
X108160000Y-30663000D02*
X108160000Y-21773000D01*
D30*
X107398000Y-31425000D02*
X107442000Y-31381000D01*
D34*
X107442000Y-31381000D02*
X108160000Y-30663000D01*
D33*
X71120000Y-47879000D02*
X68199000Y-50800000D01*
X63373000Y-50800000D02*
X68199000Y-50800000D01*
X59055000Y-55118000D02*
X63373000Y-50800000D01*
X44196000Y-55118000D02*
X59055000Y-55118000D01*
X27813000Y-38735000D02*
X44196000Y-55118000D01*
X27813000Y-38735000D02*
X27813000Y-26797000D01*
D30*
X27813000Y-26797000D02*
X27813000Y-26416000D01*
D33*
X42926000Y-30226000D02*
X42926000Y-25781000D01*
X54483000Y-19431000D02*
X54483000Y-14986000D01*
X51816000Y-22098000D02*
X54483000Y-19431000D01*
X46609000Y-22098000D02*
X51816000Y-22098000D01*
X42926000Y-25781000D02*
X46609000Y-22098000D01*
D35*
G36*
X130481000Y-128703000D02*
X12775000Y-128703000D01*
X12775000Y-121163856D01*
X12907686Y-121163856D01*
X13372841Y-122286851D01*
X14236704Y-123152879D01*
X15366223Y-123622398D01*
X15854680Y-123522081D01*
X15854680Y-120675400D01*
X16108680Y-120675400D01*
X16108680Y-123522081D01*
X16597137Y-123622398D01*
X17726656Y-123152879D01*
X18590519Y-122286851D01*
X19055674Y-121163856D01*
X23105786Y-121163856D01*
X23570941Y-122286851D01*
X24434804Y-123152879D01*
X25564323Y-123622398D01*
X26052780Y-123522081D01*
X26052780Y-120675400D01*
X26306780Y-120675400D01*
X26306780Y-123522081D01*
X26795237Y-123622398D01*
X27924756Y-123152879D01*
X28788619Y-122286851D01*
X29253774Y-121163856D01*
X29239173Y-121092856D01*
X29246686Y-121092856D01*
X29711841Y-122215851D01*
X30575704Y-123081879D01*
X31705223Y-123551398D01*
X32193680Y-123451081D01*
X32193680Y-120604400D01*
X32447680Y-120604400D01*
X32447680Y-123451081D01*
X32936137Y-123551398D01*
X34065656Y-123081879D01*
X34929519Y-122215851D01*
X35394674Y-121092856D01*
X39444786Y-121092856D01*
X39909941Y-122215851D01*
X40773804Y-123081879D01*
X41903323Y-123551398D01*
X42391780Y-123451081D01*
X42391780Y-120604400D01*
X42645780Y-120604400D01*
X42645780Y-123451081D01*
X43134237Y-123551398D01*
X44263756Y-123081879D01*
X45127619Y-122215851D01*
X45563365Y-121163856D01*
X49864686Y-121163856D01*
X50329841Y-122286851D01*
X51193704Y-123152879D01*
X52323223Y-123622398D01*
X52811680Y-123522081D01*
X52811680Y-120675400D01*
X53065680Y-120675400D01*
X53065680Y-123522081D01*
X53554137Y-123622398D01*
X54683656Y-123152879D01*
X55547519Y-122286851D01*
X56012674Y-121163856D01*
X60062786Y-121163856D01*
X60527941Y-122286851D01*
X61391804Y-123152879D01*
X62521323Y-123622398D01*
X63009780Y-123522081D01*
X63009780Y-120675400D01*
X63263780Y-120675400D01*
X63263780Y-123522081D01*
X63752237Y-123622398D01*
X64881756Y-123152879D01*
X65431689Y-122601567D01*
X69849626Y-122601567D01*
X70177622Y-123395377D01*
X70784428Y-124003244D01*
X71577664Y-124332624D01*
X72436567Y-124333374D01*
X73230377Y-124005378D01*
X73838244Y-123398572D01*
X74167624Y-122605336D01*
X74168374Y-121746433D01*
X73840378Y-120952623D01*
X73233572Y-120344756D01*
X72440336Y-120015376D01*
X71581433Y-120014626D01*
X70787623Y-120342622D01*
X70179756Y-120949428D01*
X69850376Y-121742664D01*
X69849626Y-122601567D01*
X65431689Y-122601567D01*
X65745619Y-122286851D01*
X66210774Y-121163856D01*
X66110319Y-120675400D01*
X63263780Y-120675400D01*
X63009780Y-120675400D01*
X60163241Y-120675400D01*
X60062786Y-121163856D01*
X56012674Y-121163856D01*
X55912219Y-120675400D01*
X53065680Y-120675400D01*
X52811680Y-120675400D01*
X49965141Y-120675400D01*
X49864686Y-121163856D01*
X45563365Y-121163856D01*
X45592774Y-121092856D01*
X45492319Y-120604400D01*
X42645780Y-120604400D01*
X42391780Y-120604400D01*
X39545241Y-120604400D01*
X39444786Y-121092856D01*
X35394674Y-121092856D01*
X35294219Y-120604400D01*
X32447680Y-120604400D01*
X32193680Y-120604400D01*
X29347141Y-120604400D01*
X29246686Y-121092856D01*
X29239173Y-121092856D01*
X29153319Y-120675400D01*
X26306780Y-120675400D01*
X26052780Y-120675400D01*
X23206241Y-120675400D01*
X23105786Y-121163856D01*
X19055674Y-121163856D01*
X18955219Y-120675400D01*
X16108680Y-120675400D01*
X15854680Y-120675400D01*
X13008141Y-120675400D01*
X12907686Y-121163856D01*
X12775000Y-121163856D01*
X12775000Y-119932944D01*
X12907686Y-119932944D01*
X13008141Y-120421400D01*
X15854680Y-120421400D01*
X15854680Y-117574719D01*
X16108680Y-117574719D01*
X16108680Y-120421400D01*
X18955219Y-120421400D01*
X19055674Y-119932944D01*
X23105786Y-119932944D01*
X23206241Y-120421400D01*
X26052780Y-120421400D01*
X26052780Y-117574719D01*
X26306780Y-117574719D01*
X26306780Y-120421400D01*
X29153319Y-120421400D01*
X29253774Y-119932944D01*
X29224366Y-119861944D01*
X29246686Y-119861944D01*
X29347141Y-120350400D01*
X32193680Y-120350400D01*
X32193680Y-117503719D01*
X32447680Y-117503719D01*
X32447680Y-120350400D01*
X35294219Y-120350400D01*
X35394674Y-119861944D01*
X39444786Y-119861944D01*
X39545241Y-120350400D01*
X42391780Y-120350400D01*
X42391780Y-117503719D01*
X42645780Y-117503719D01*
X42645780Y-120350400D01*
X45492319Y-120350400D01*
X45578172Y-119932944D01*
X49864686Y-119932944D01*
X49965141Y-120421400D01*
X52811680Y-120421400D01*
X52811680Y-117574719D01*
X53065680Y-117574719D01*
X53065680Y-120421400D01*
X55912219Y-120421400D01*
X56012674Y-119932944D01*
X60062786Y-119932944D01*
X60163241Y-120421400D01*
X63009780Y-120421400D01*
X63009780Y-117574719D01*
X63263780Y-117574719D01*
X63263780Y-120421400D01*
X66110319Y-120421400D01*
X66210774Y-119932944D01*
X65745619Y-118809949D01*
X64881756Y-117943921D01*
X63752237Y-117474402D01*
X63263780Y-117574719D01*
X63009780Y-117574719D01*
X62521323Y-117474402D01*
X61391804Y-117943921D01*
X60527941Y-118809949D01*
X60062786Y-119932944D01*
X56012674Y-119932944D01*
X55547519Y-118809949D01*
X54683656Y-117943921D01*
X53554137Y-117474402D01*
X53065680Y-117574719D01*
X52811680Y-117574719D01*
X52323223Y-117474402D01*
X51193704Y-117943921D01*
X50329841Y-118809949D01*
X49864686Y-119932944D01*
X45578172Y-119932944D01*
X45592774Y-119861944D01*
X45127619Y-118738949D01*
X44263756Y-117872921D01*
X43134237Y-117403402D01*
X42645780Y-117503719D01*
X42391780Y-117503719D01*
X41903323Y-117403402D01*
X40773804Y-117872921D01*
X39909941Y-118738949D01*
X39444786Y-119861944D01*
X35394674Y-119861944D01*
X34929519Y-118738949D01*
X34065656Y-117872921D01*
X32936137Y-117403402D01*
X32447680Y-117503719D01*
X32193680Y-117503719D01*
X31705223Y-117403402D01*
X30575704Y-117872921D01*
X29711841Y-118738949D01*
X29246686Y-119861944D01*
X29224366Y-119861944D01*
X28788619Y-118809949D01*
X27924756Y-117943921D01*
X26795237Y-117474402D01*
X26306780Y-117574719D01*
X26052780Y-117574719D01*
X25564323Y-117474402D01*
X24434804Y-117943921D01*
X23570941Y-118809949D01*
X23105786Y-119932944D01*
X19055674Y-119932944D01*
X18590519Y-118809949D01*
X17726656Y-117943921D01*
X16597137Y-117474402D01*
X16108680Y-117574719D01*
X15854680Y-117574719D01*
X15366223Y-117474402D01*
X14236704Y-117943921D01*
X13372841Y-118809949D01*
X12907686Y-119932944D01*
X12775000Y-119932944D01*
X12775000Y-116046811D01*
X19397000Y-116046811D01*
X19397000Y-116520669D01*
X19525263Y-117165491D01*
X19890525Y-117712144D01*
X20437178Y-118077406D01*
X21082000Y-118205669D01*
X21726822Y-118077406D01*
X22273475Y-117712144D01*
X22351546Y-117595302D01*
X22530270Y-117806245D01*
X23116380Y-118107810D01*
X23193081Y-118123394D01*
X23454360Y-118004697D01*
X23454360Y-116410740D01*
X23708360Y-116410740D01*
X23708360Y-118004697D01*
X23969639Y-118123394D01*
X24046340Y-118107810D01*
X24632450Y-117806245D01*
X25058541Y-117303341D01*
X25259745Y-116675660D01*
X25110354Y-116410740D01*
X23708360Y-116410740D01*
X23454360Y-116410740D01*
X23434360Y-116410740D01*
X23434360Y-116156740D01*
X23454360Y-116156740D01*
X23454360Y-114562783D01*
X23708360Y-114562783D01*
X23708360Y-116156740D01*
X25110354Y-116156740D01*
X25212381Y-115975811D01*
X35736000Y-115975811D01*
X35736000Y-116449669D01*
X35864263Y-117094491D01*
X36229525Y-117641144D01*
X36776178Y-118006406D01*
X37421000Y-118134669D01*
X38065822Y-118006406D01*
X38612475Y-117641144D01*
X38690546Y-117524302D01*
X38869270Y-117735245D01*
X39455380Y-118036810D01*
X39532081Y-118052394D01*
X39793360Y-117933697D01*
X39793360Y-116339740D01*
X40047360Y-116339740D01*
X40047360Y-117933697D01*
X40308639Y-118052394D01*
X40385340Y-118036810D01*
X40971450Y-117735245D01*
X41397541Y-117232341D01*
X41598745Y-116604660D01*
X41449354Y-116339740D01*
X40047360Y-116339740D01*
X39793360Y-116339740D01*
X39773360Y-116339740D01*
X39773360Y-116085740D01*
X39793360Y-116085740D01*
X39793360Y-114491783D01*
X40047360Y-114491783D01*
X40047360Y-116085740D01*
X41449354Y-116085740D01*
X41471306Y-116046811D01*
X56354000Y-116046811D01*
X56354000Y-116520669D01*
X56482263Y-117165491D01*
X56847525Y-117712144D01*
X57394178Y-118077406D01*
X58039000Y-118205669D01*
X58683822Y-118077406D01*
X59230475Y-117712144D01*
X59308546Y-117595302D01*
X59487270Y-117806245D01*
X60073380Y-118107810D01*
X60150081Y-118123394D01*
X60411360Y-118004697D01*
X60411360Y-116410740D01*
X60665360Y-116410740D01*
X60665360Y-118004697D01*
X60926639Y-118123394D01*
X61003340Y-118107810D01*
X61589450Y-117806245D01*
X62015541Y-117303341D01*
X62216745Y-116675660D01*
X62067354Y-116410740D01*
X60665360Y-116410740D01*
X60411360Y-116410740D01*
X60391360Y-116410740D01*
X60391360Y-116156740D01*
X60411360Y-116156740D01*
X60411360Y-114562783D01*
X60665360Y-114562783D01*
X60665360Y-116156740D01*
X62067354Y-116156740D01*
X62216745Y-115891820D01*
X62015541Y-115264139D01*
X61589450Y-114761235D01*
X61003340Y-114459670D01*
X60926639Y-114444086D01*
X60665360Y-114562783D01*
X60411360Y-114562783D01*
X60150081Y-114444086D01*
X60073380Y-114459670D01*
X59487270Y-114761235D01*
X59308546Y-114972178D01*
X59230475Y-114855336D01*
X58683822Y-114490074D01*
X58039000Y-114361811D01*
X57394178Y-114490074D01*
X56847525Y-114855336D01*
X56482263Y-115401989D01*
X56354000Y-116046811D01*
X41471306Y-116046811D01*
X41598745Y-115820820D01*
X41397541Y-115193139D01*
X40971450Y-114690235D01*
X40385340Y-114388670D01*
X40308639Y-114373086D01*
X40047360Y-114491783D01*
X39793360Y-114491783D01*
X39532081Y-114373086D01*
X39455380Y-114388670D01*
X38869270Y-114690235D01*
X38690546Y-114901178D01*
X38612475Y-114784336D01*
X38065822Y-114419074D01*
X37421000Y-114290811D01*
X36776178Y-114419074D01*
X36229525Y-114784336D01*
X35864263Y-115330989D01*
X35736000Y-115975811D01*
X25212381Y-115975811D01*
X25259745Y-115891820D01*
X25058541Y-115264139D01*
X24632450Y-114761235D01*
X24046340Y-114459670D01*
X23969639Y-114444086D01*
X23708360Y-114562783D01*
X23454360Y-114562783D01*
X23193081Y-114444086D01*
X23116380Y-114459670D01*
X22530270Y-114761235D01*
X22351546Y-114972178D01*
X22273475Y-114855336D01*
X21726822Y-114490074D01*
X21082000Y-114361811D01*
X20437178Y-114490074D01*
X19890525Y-114855336D01*
X19525263Y-115401989D01*
X19397000Y-116046811D01*
X12775000Y-116046811D01*
X12775000Y-41712000D01*
X14446000Y-41712000D01*
X14446000Y-85400000D01*
X14551427Y-85930017D01*
X14851657Y-86379343D01*
X21074657Y-92602343D01*
X21523983Y-92902573D01*
X22054000Y-93008000D01*
X48912314Y-93008000D01*
X66921657Y-111017343D01*
X67370984Y-111317574D01*
X67901000Y-111423000D01*
X75963314Y-111423000D01*
X87566657Y-123026343D01*
X88015984Y-123326574D01*
X88546000Y-123432000D01*
X91631151Y-123432000D01*
X91913313Y-123620534D01*
X92539000Y-123744991D01*
X93164687Y-123620534D01*
X93695120Y-123266111D01*
X94049543Y-122735678D01*
X94174000Y-122109991D01*
X94174000Y-121842009D01*
X94049543Y-121216322D01*
X94014487Y-121163856D01*
X114050486Y-121163856D01*
X114515641Y-122286851D01*
X115379504Y-123152879D01*
X116509023Y-123622398D01*
X116997480Y-123522081D01*
X116997480Y-120675400D01*
X117251480Y-120675400D01*
X117251480Y-123522081D01*
X117739937Y-123622398D01*
X118869456Y-123152879D01*
X119733319Y-122286851D01*
X120198474Y-121163856D01*
X124248586Y-121163856D01*
X124713741Y-122286851D01*
X125577604Y-123152879D01*
X126707123Y-123622398D01*
X127195580Y-123522081D01*
X127195580Y-120675400D01*
X127449580Y-120675400D01*
X127449580Y-123522081D01*
X127938037Y-123622398D01*
X129067556Y-123152879D01*
X129931419Y-122286851D01*
X130396574Y-121163856D01*
X130296119Y-120675400D01*
X127449580Y-120675400D01*
X127195580Y-120675400D01*
X124349041Y-120675400D01*
X124248586Y-121163856D01*
X120198474Y-121163856D01*
X120098019Y-120675400D01*
X117251480Y-120675400D01*
X116997480Y-120675400D01*
X114150941Y-120675400D01*
X114050486Y-121163856D01*
X94014487Y-121163856D01*
X93695120Y-120685889D01*
X93164687Y-120331466D01*
X92539000Y-120207009D01*
X91913313Y-120331466D01*
X91418633Y-120662000D01*
X89119686Y-120662000D01*
X88274120Y-119816434D01*
X93388876Y-119816434D01*
X93641234Y-120374571D01*
X94102241Y-120815067D01*
X94696726Y-121045613D01*
X94952000Y-120911203D01*
X94952000Y-119563000D01*
X95206000Y-119563000D01*
X95206000Y-120911203D01*
X95461274Y-121045613D01*
X96055759Y-120815067D01*
X96516766Y-120374571D01*
X96716444Y-119932944D01*
X114050486Y-119932944D01*
X114150941Y-120421400D01*
X116997480Y-120421400D01*
X116997480Y-117574719D01*
X117251480Y-117574719D01*
X117251480Y-120421400D01*
X120098019Y-120421400D01*
X120198474Y-119932944D01*
X124248586Y-119932944D01*
X124349041Y-120421400D01*
X127195580Y-120421400D01*
X127195580Y-117574719D01*
X127449580Y-117574719D01*
X127449580Y-120421400D01*
X130296119Y-120421400D01*
X130396574Y-119932944D01*
X129931419Y-118809949D01*
X129067556Y-117943921D01*
X127938037Y-117474402D01*
X127449580Y-117574719D01*
X127195580Y-117574719D01*
X126707123Y-117474402D01*
X125577604Y-117943921D01*
X124713741Y-118809949D01*
X124248586Y-119932944D01*
X120198474Y-119932944D01*
X119733319Y-118809949D01*
X118869456Y-117943921D01*
X117739937Y-117474402D01*
X117251480Y-117574719D01*
X116997480Y-117574719D01*
X116509023Y-117474402D01*
X115379504Y-117943921D01*
X114515641Y-118809949D01*
X114050486Y-119932944D01*
X96716444Y-119932944D01*
X96769124Y-119816434D01*
X96649777Y-119563000D01*
X95206000Y-119563000D01*
X94952000Y-119563000D01*
X93508223Y-119563000D01*
X93388876Y-119816434D01*
X88274120Y-119816434D01*
X87513252Y-119055566D01*
X93388876Y-119055566D01*
X93508223Y-119309000D01*
X94952000Y-119309000D01*
X94952000Y-117960797D01*
X95206000Y-117960797D01*
X95206000Y-119309000D01*
X96649777Y-119309000D01*
X96769124Y-119055566D01*
X96516766Y-118497429D01*
X96055759Y-118056933D01*
X95461274Y-117826387D01*
X95206000Y-117960797D01*
X94952000Y-117960797D01*
X94696726Y-117826387D01*
X94102241Y-118056933D01*
X93641234Y-118497429D01*
X93388876Y-119055566D01*
X87513252Y-119055566D01*
X85219695Y-116762009D01*
X90904000Y-116762009D01*
X90904000Y-117029991D01*
X91028457Y-117655678D01*
X91382880Y-118186111D01*
X91913313Y-118540534D01*
X92539000Y-118664991D01*
X93164687Y-118540534D01*
X93695120Y-118186111D01*
X94049543Y-117655678D01*
X94174000Y-117029991D01*
X94174000Y-116762009D01*
X94049543Y-116136322D01*
X93989734Y-116046811D01*
X120539800Y-116046811D01*
X120539800Y-116520669D01*
X120668063Y-117165491D01*
X121033325Y-117712144D01*
X121579978Y-118077406D01*
X122224800Y-118205669D01*
X122869622Y-118077406D01*
X123416275Y-117712144D01*
X123494346Y-117595302D01*
X123673070Y-117806245D01*
X124259180Y-118107810D01*
X124335881Y-118123394D01*
X124597160Y-118004697D01*
X124597160Y-116410740D01*
X124851160Y-116410740D01*
X124851160Y-118004697D01*
X125112439Y-118123394D01*
X125189140Y-118107810D01*
X125775250Y-117806245D01*
X126201341Y-117303341D01*
X126402545Y-116675660D01*
X126253154Y-116410740D01*
X124851160Y-116410740D01*
X124597160Y-116410740D01*
X124577160Y-116410740D01*
X124577160Y-116156740D01*
X124597160Y-116156740D01*
X124597160Y-114562783D01*
X124851160Y-114562783D01*
X124851160Y-116156740D01*
X126253154Y-116156740D01*
X126402545Y-115891820D01*
X126201341Y-115264139D01*
X125775250Y-114761235D01*
X125189140Y-114459670D01*
X125112439Y-114444086D01*
X124851160Y-114562783D01*
X124597160Y-114562783D01*
X124335881Y-114444086D01*
X124259180Y-114459670D01*
X123673070Y-114761235D01*
X123494346Y-114972178D01*
X123416275Y-114855336D01*
X122869622Y-114490074D01*
X122224800Y-114361811D01*
X121579978Y-114490074D01*
X121033325Y-114855336D01*
X120668063Y-115401989D01*
X120539800Y-116046811D01*
X93989734Y-116046811D01*
X93695120Y-115605889D01*
X93164687Y-115251466D01*
X92539000Y-115127009D01*
X91913313Y-115251466D01*
X91382880Y-115605889D01*
X91028457Y-116136322D01*
X90904000Y-116762009D01*
X85219695Y-116762009D01*
X77516343Y-109058657D01*
X77067017Y-108758427D01*
X76537000Y-108653000D01*
X68474686Y-108653000D01*
X67161753Y-107340067D01*
X119651925Y-107340067D01*
X119945890Y-108051518D01*
X120489739Y-108596317D01*
X121200676Y-108891523D01*
X121970467Y-108892195D01*
X122681918Y-108598230D01*
X122954303Y-108326319D01*
X126396886Y-108326319D01*
X126532244Y-108624315D01*
X127250620Y-108900926D01*
X128020167Y-108881570D01*
X128641236Y-108624315D01*
X128776594Y-108326319D01*
X127586740Y-107136465D01*
X126396886Y-108326319D01*
X122954303Y-108326319D01*
X123226717Y-108054381D01*
X123521923Y-107343444D01*
X123522553Y-106620740D01*
X125642674Y-106620740D01*
X125662030Y-107390287D01*
X125919285Y-108011356D01*
X126217281Y-108146714D01*
X127407135Y-106956860D01*
X127766345Y-106956860D01*
X128956199Y-108146714D01*
X129254195Y-108011356D01*
X129530806Y-107292980D01*
X129511450Y-106523433D01*
X129254195Y-105902364D01*
X128956199Y-105767006D01*
X127766345Y-106956860D01*
X127407135Y-106956860D01*
X126217281Y-105767006D01*
X125919285Y-105902364D01*
X125642674Y-106620740D01*
X123522553Y-106620740D01*
X123522595Y-106573653D01*
X123228630Y-105862202D01*
X122954309Y-105587401D01*
X126396886Y-105587401D01*
X127586740Y-106777255D01*
X128776594Y-105587401D01*
X128641236Y-105289405D01*
X127922860Y-105012794D01*
X127153313Y-105032150D01*
X126532244Y-105289405D01*
X126396886Y-105587401D01*
X122954309Y-105587401D01*
X122684781Y-105317403D01*
X121973844Y-105022197D01*
X121204053Y-105021525D01*
X120492602Y-105315490D01*
X119947803Y-105859339D01*
X119652597Y-106570276D01*
X119651925Y-107340067D01*
X67161753Y-107340067D01*
X64793481Y-104971795D01*
X74437716Y-104971795D01*
X74686106Y-105572943D01*
X75145637Y-106033278D01*
X75746352Y-106282716D01*
X76396795Y-106283284D01*
X76997943Y-106034894D01*
X77458278Y-105575363D01*
X77707716Y-104974648D01*
X77707726Y-104962388D01*
X88455225Y-104962388D01*
X88696398Y-105546072D01*
X89142579Y-105993032D01*
X89725841Y-106235224D01*
X90357388Y-106235775D01*
X90941072Y-105994602D01*
X91388032Y-105548421D01*
X91630224Y-104965159D01*
X91630775Y-104333612D01*
X91389602Y-103749928D01*
X90943421Y-103302968D01*
X90360159Y-103060776D01*
X89728612Y-103060225D01*
X89144928Y-103301398D01*
X88697968Y-103747579D01*
X88455776Y-104330841D01*
X88455225Y-104962388D01*
X77707726Y-104962388D01*
X77708284Y-104324205D01*
X77459894Y-103723057D01*
X77000363Y-103262722D01*
X76399648Y-103013284D01*
X75749205Y-103012716D01*
X75148057Y-103261106D01*
X74687722Y-103720637D01*
X74438284Y-104321352D01*
X74437716Y-104971795D01*
X64793481Y-104971795D01*
X59713481Y-99891795D01*
X74437716Y-99891795D01*
X74686106Y-100492943D01*
X75145637Y-100953278D01*
X75746352Y-101202716D01*
X76396795Y-101203284D01*
X76997943Y-100954894D01*
X77458278Y-100495363D01*
X77707716Y-99894648D01*
X77707726Y-99882388D01*
X88455225Y-99882388D01*
X88696398Y-100466072D01*
X89142579Y-100913032D01*
X89725841Y-101155224D01*
X90357388Y-101155775D01*
X90941072Y-100914602D01*
X91388032Y-100468421D01*
X91630224Y-99885159D01*
X91630775Y-99253612D01*
X91389602Y-98669928D01*
X90943421Y-98222968D01*
X90360159Y-97980776D01*
X89728612Y-97980225D01*
X89144928Y-98221398D01*
X88697968Y-98667579D01*
X88455776Y-99250841D01*
X88455225Y-99882388D01*
X77707726Y-99882388D01*
X77708284Y-99244205D01*
X77459894Y-98643057D01*
X77000363Y-98182722D01*
X76399648Y-97933284D01*
X75749205Y-97932716D01*
X75148057Y-98181106D01*
X74687722Y-98640637D01*
X74438284Y-99241352D01*
X74437716Y-99891795D01*
X59713481Y-99891795D01*
X53363481Y-93541795D01*
X74437716Y-93541795D01*
X74686106Y-94142943D01*
X75145637Y-94603278D01*
X75746352Y-94852716D01*
X76396795Y-94853284D01*
X76997943Y-94604894D01*
X77458278Y-94145363D01*
X77707716Y-93544648D01*
X77707726Y-93532388D01*
X88455225Y-93532388D01*
X88696398Y-94116072D01*
X89142579Y-94563032D01*
X89725841Y-94805224D01*
X90357388Y-94805775D01*
X90941072Y-94564602D01*
X91165718Y-94340347D01*
X119651925Y-94340347D01*
X119945890Y-95051798D01*
X120489739Y-95596597D01*
X121200676Y-95891803D01*
X121970467Y-95892475D01*
X122681918Y-95598510D01*
X123226717Y-95054661D01*
X123521923Y-94343724D01*
X123521925Y-94340347D01*
X125651405Y-94340347D01*
X125945370Y-95051798D01*
X126489219Y-95596597D01*
X127200156Y-95891803D01*
X127969947Y-95892475D01*
X128681398Y-95598510D01*
X129226197Y-95054661D01*
X129521403Y-94343724D01*
X129522075Y-93573933D01*
X129228110Y-92862482D01*
X128684261Y-92317683D01*
X127973324Y-92022477D01*
X127203533Y-92021805D01*
X126492082Y-92315770D01*
X125947283Y-92859619D01*
X125652077Y-93570556D01*
X125651405Y-94340347D01*
X123521925Y-94340347D01*
X123522595Y-93573933D01*
X123228630Y-92862482D01*
X122684781Y-92317683D01*
X121973844Y-92022477D01*
X121204053Y-92021805D01*
X120492602Y-92315770D01*
X119947803Y-92859619D01*
X119652597Y-93570556D01*
X119651925Y-94340347D01*
X91165718Y-94340347D01*
X91388032Y-94118421D01*
X91630224Y-93535159D01*
X91630775Y-92903612D01*
X91389602Y-92319928D01*
X90943421Y-91872968D01*
X90360159Y-91630776D01*
X89728612Y-91630225D01*
X89144928Y-91871398D01*
X88697968Y-92317579D01*
X88455776Y-92900841D01*
X88455225Y-93532388D01*
X77707726Y-93532388D01*
X77708284Y-92894205D01*
X77459894Y-92293057D01*
X77000363Y-91832722D01*
X76399648Y-91583284D01*
X75749205Y-91582716D01*
X75148057Y-91831106D01*
X74687722Y-92290637D01*
X74438284Y-92891352D01*
X74437716Y-93541795D01*
X53363481Y-93541795D01*
X50465343Y-90643657D01*
X50016017Y-90343427D01*
X49486000Y-90238000D01*
X22627686Y-90238000D01*
X20851481Y-88461795D01*
X74437716Y-88461795D01*
X74686106Y-89062943D01*
X75145637Y-89523278D01*
X75746352Y-89772716D01*
X76396795Y-89773284D01*
X76997943Y-89524894D01*
X77458278Y-89065363D01*
X77707716Y-88464648D01*
X77707726Y-88452388D01*
X88455225Y-88452388D01*
X88696398Y-89036072D01*
X89142579Y-89483032D01*
X89725841Y-89725224D01*
X90357388Y-89725775D01*
X90941072Y-89484602D01*
X91388032Y-89038421D01*
X91630224Y-88455159D01*
X91630775Y-87823612D01*
X91389602Y-87239928D01*
X90943421Y-86792968D01*
X90360159Y-86550776D01*
X89728612Y-86550225D01*
X89144928Y-86791398D01*
X88697968Y-87237579D01*
X88455776Y-87820841D01*
X88455225Y-88452388D01*
X77707726Y-88452388D01*
X77708284Y-87814205D01*
X77459894Y-87213057D01*
X77000363Y-86752722D01*
X76399648Y-86503284D01*
X75749205Y-86502716D01*
X75148057Y-86751106D01*
X74687722Y-87210637D01*
X74438284Y-87811352D01*
X74437716Y-88461795D01*
X20851481Y-88461795D01*
X17216000Y-84826314D01*
X17216000Y-61010031D01*
X18502561Y-61010031D01*
X18887678Y-61942086D01*
X19600163Y-62655816D01*
X20531545Y-63042559D01*
X21540031Y-63043439D01*
X22472086Y-62658322D01*
X23185816Y-61945837D01*
X23572559Y-61014455D01*
X23573439Y-60005969D01*
X23188322Y-59073914D01*
X22475837Y-58360184D01*
X21544455Y-57973441D01*
X20535969Y-57972561D01*
X19603914Y-58357678D01*
X18890184Y-59070163D01*
X18503441Y-60001545D01*
X18502561Y-61010031D01*
X17216000Y-61010031D01*
X17216000Y-45482894D01*
X17363000Y-45702895D01*
X17363000Y-45903000D01*
X17449397Y-46337346D01*
X17673340Y-46672500D01*
X17695434Y-46705566D01*
X34482368Y-63492500D01*
X33570434Y-64404434D01*
X33324397Y-64772654D01*
X33238000Y-65207000D01*
X33238000Y-83241000D01*
X33324397Y-83675346D01*
X33570434Y-84043566D01*
X33938654Y-84289603D01*
X34373000Y-84376000D01*
X34807346Y-84289603D01*
X35175566Y-84043566D01*
X35421603Y-83675346D01*
X35508000Y-83241000D01*
X35508000Y-65677132D01*
X36621132Y-64564000D01*
X49396868Y-64564000D01*
X59351434Y-74518566D01*
X59719654Y-74764603D01*
X60154000Y-74851000D01*
X103588000Y-74851000D01*
X104022346Y-74764603D01*
X104390566Y-74518566D01*
X109773133Y-69136000D01*
X112605000Y-69136000D01*
X113039346Y-69049603D01*
X113407566Y-68803566D01*
X113653603Y-68435346D01*
X113740000Y-68001000D01*
X113653603Y-67566654D01*
X113407566Y-67198434D01*
X113039346Y-66952397D01*
X112605000Y-66866000D01*
X109303000Y-66866000D01*
X108868655Y-66952396D01*
X108500434Y-67198433D01*
X103117868Y-72581000D01*
X96468000Y-72581000D01*
X96468000Y-59746000D01*
X96381603Y-59311654D01*
X96135566Y-58943434D01*
X95767346Y-58697397D01*
X95333000Y-58611000D01*
X94898654Y-58697397D01*
X94530434Y-58943434D01*
X94284397Y-59311654D01*
X94198000Y-59746000D01*
X94198000Y-72581000D01*
X60624132Y-72581000D01*
X53829132Y-65786000D01*
X73668000Y-65786000D01*
X73754397Y-66220345D01*
X74000434Y-66588566D01*
X74368655Y-66834603D01*
X74803000Y-66921000D01*
X75237345Y-66834603D01*
X75605566Y-66588566D01*
X75859566Y-66334566D01*
X76105603Y-65966345D01*
X76180611Y-65589257D01*
X77180868Y-64589000D01*
X88554132Y-64589000D01*
X91182465Y-67217333D01*
X91281883Y-67457943D01*
X91544673Y-67721192D01*
X91888201Y-67863838D01*
X92260167Y-67864162D01*
X92603943Y-67722117D01*
X92867192Y-67459327D01*
X93009838Y-67115799D01*
X93010162Y-66743833D01*
X92868117Y-66400057D01*
X92605327Y-66136808D01*
X92363090Y-66036222D01*
X89490434Y-63163566D01*
X89332675Y-63058155D01*
X89219541Y-62982561D01*
X88900000Y-62919000D01*
X76835000Y-62919000D01*
X76515460Y-62982560D01*
X76244566Y-63163566D01*
X74999743Y-64408389D01*
X74622655Y-64483397D01*
X74254434Y-64729434D01*
X74000434Y-64983434D01*
X73754397Y-65351655D01*
X73668000Y-65786000D01*
X53829132Y-65786000D01*
X52495221Y-64452089D01*
X62346517Y-64452089D01*
X62475725Y-64744859D01*
X63175883Y-65013071D01*
X63925384Y-64992928D01*
X64524275Y-64744859D01*
X64653483Y-64452089D01*
X63500000Y-63298605D01*
X62346517Y-64452089D01*
X52495221Y-64452089D01*
X50838015Y-62794883D01*
X61605929Y-62794883D01*
X61626072Y-63544384D01*
X61874141Y-64143275D01*
X62166911Y-64272483D01*
X63320395Y-63119000D01*
X63679605Y-63119000D01*
X64833089Y-64272483D01*
X65125859Y-64143275D01*
X65375252Y-63492241D01*
X69234994Y-63492241D01*
X69521314Y-64185191D01*
X70051021Y-64715822D01*
X70743469Y-65003352D01*
X71493241Y-65004006D01*
X72186191Y-64717686D01*
X72716822Y-64187979D01*
X73004352Y-63495531D01*
X73005006Y-62745759D01*
X72718686Y-62052809D01*
X72188979Y-61522178D01*
X71496531Y-61234648D01*
X70746759Y-61233994D01*
X70053809Y-61520314D01*
X69523178Y-62050021D01*
X69235648Y-62742469D01*
X69234994Y-63492241D01*
X65375252Y-63492241D01*
X65394071Y-63443117D01*
X65373928Y-62693616D01*
X65125859Y-62094725D01*
X64833089Y-61965517D01*
X63679605Y-63119000D01*
X63320395Y-63119000D01*
X62166911Y-61965517D01*
X61874141Y-62094725D01*
X61605929Y-62794883D01*
X50838015Y-62794883D01*
X50669566Y-62626434D01*
X50396380Y-62443897D01*
X50301346Y-62380397D01*
X49867000Y-62294000D01*
X36494133Y-62294000D01*
X35986044Y-61785911D01*
X62346517Y-61785911D01*
X63500000Y-62939395D01*
X64653483Y-61785911D01*
X64524275Y-61493141D01*
X63824117Y-61224929D01*
X63074616Y-61245072D01*
X62475725Y-61493141D01*
X62346517Y-61785911D01*
X35986044Y-61785911D01*
X19741158Y-45541025D01*
X19777748Y-45486264D01*
X20042394Y-45819212D01*
X20567914Y-46110756D01*
X20673260Y-46135036D01*
X20911000Y-46014378D01*
X20911000Y-43871000D01*
X20891000Y-43871000D01*
X20891000Y-43617000D01*
X20911000Y-43617000D01*
X20911000Y-41473622D01*
X20673260Y-41352964D01*
X20567914Y-41377244D01*
X20042394Y-41668788D01*
X19777748Y-42001736D01*
X19583409Y-41710887D01*
X19085419Y-41378141D01*
X18498000Y-41261296D01*
X18176425Y-41325261D01*
X18436686Y-41065000D01*
X22193000Y-41065000D01*
X22193000Y-41869320D01*
X22033606Y-41668788D01*
X21508086Y-41377244D01*
X21402740Y-41352964D01*
X21165000Y-41473622D01*
X21165000Y-43617000D01*
X21185000Y-43617000D01*
X21185000Y-43871000D01*
X21165000Y-43871000D01*
X21165000Y-46014378D01*
X21402740Y-46135036D01*
X21508086Y-46110756D01*
X22033606Y-45819212D01*
X22298252Y-45486264D01*
X22492591Y-45777113D01*
X22990581Y-46109859D01*
X23578000Y-46226704D01*
X24165419Y-46109859D01*
X24663409Y-45777113D01*
X24996155Y-45279123D01*
X25113000Y-44691704D01*
X25113000Y-44496567D01*
X25907626Y-44496567D01*
X26235622Y-45290377D01*
X26842428Y-45898244D01*
X27635664Y-46227624D01*
X28494567Y-46228374D01*
X29288377Y-45900378D01*
X29896244Y-45293572D01*
X30225624Y-44500336D01*
X30226374Y-43641433D01*
X29898378Y-42847623D01*
X29291572Y-42239756D01*
X28498336Y-41910376D01*
X27639433Y-41909626D01*
X26845623Y-42237622D01*
X26237756Y-42844428D01*
X25908376Y-43637664D01*
X25907626Y-44496567D01*
X25113000Y-44496567D01*
X25113000Y-42796296D01*
X24996155Y-42208877D01*
X24963000Y-42159257D01*
X24963000Y-32187000D01*
X24857573Y-31656983D01*
X24557343Y-31207657D01*
X24012686Y-30663000D01*
X24557343Y-30118343D01*
X24670613Y-29948822D01*
X24857573Y-29669017D01*
X24963000Y-29139000D01*
X24963000Y-26416000D01*
X26678000Y-26416000D01*
X26678000Y-26797000D01*
X26764397Y-27231346D01*
X26978000Y-27551025D01*
X26978000Y-38735000D01*
X27041561Y-39054541D01*
X27149698Y-39216379D01*
X27222566Y-39325434D01*
X43605566Y-55708434D01*
X43876460Y-55889440D01*
X44196000Y-55953000D01*
X59055000Y-55953000D01*
X59374541Y-55889439D01*
X59645434Y-55708434D01*
X63718868Y-51635000D01*
X68199000Y-51635000D01*
X68518541Y-51571439D01*
X68789434Y-51390434D01*
X70512445Y-49667423D01*
X70743469Y-49763352D01*
X71493241Y-49764006D01*
X72186191Y-49477686D01*
X72716822Y-48947979D01*
X73004352Y-48255531D01*
X73005006Y-47505759D01*
X72718686Y-46812809D01*
X72188979Y-46282178D01*
X71496531Y-45994648D01*
X70746759Y-45993994D01*
X70053809Y-46280314D01*
X69523178Y-46810021D01*
X69235648Y-47502469D01*
X69234994Y-48252241D01*
X69331742Y-48486390D01*
X67853132Y-49965000D01*
X63373000Y-49965000D01*
X63053459Y-50028561D01*
X62849557Y-50164804D01*
X62782566Y-50209566D01*
X58709132Y-54283000D01*
X44541868Y-54283000D01*
X42568064Y-52309196D01*
X49863409Y-52309196D01*
X49948467Y-52564539D01*
X50517965Y-52772516D01*
X51123700Y-52746723D01*
X51563533Y-52564539D01*
X51648591Y-52309196D01*
X51608591Y-52269196D01*
X54816409Y-52269196D01*
X54901467Y-52524539D01*
X55470965Y-52732516D01*
X56076700Y-52706723D01*
X56516533Y-52524539D01*
X56601591Y-52269196D01*
X55709000Y-51376605D01*
X54816409Y-52269196D01*
X51608591Y-52269196D01*
X50756000Y-51416605D01*
X49863409Y-52309196D01*
X42568064Y-52309196D01*
X41257833Y-50998965D01*
X49220484Y-50998965D01*
X49246277Y-51604700D01*
X49428461Y-52044533D01*
X49683804Y-52129591D01*
X50576395Y-51237000D01*
X50935605Y-51237000D01*
X51828196Y-52129591D01*
X52083539Y-52044533D01*
X52291516Y-51475035D01*
X52269542Y-50958965D01*
X54173484Y-50958965D01*
X54199277Y-51564700D01*
X54381461Y-52004533D01*
X54636804Y-52089591D01*
X55529395Y-51197000D01*
X55888605Y-51197000D01*
X56781196Y-52089591D01*
X57036539Y-52004533D01*
X57244516Y-51435035D01*
X57218723Y-50829300D01*
X57036539Y-50389467D01*
X56781196Y-50304409D01*
X55888605Y-51197000D01*
X55529395Y-51197000D01*
X54636804Y-50304409D01*
X54381461Y-50389467D01*
X54173484Y-50958965D01*
X52269542Y-50958965D01*
X52265723Y-50869300D01*
X52083539Y-50429467D01*
X51828196Y-50344409D01*
X50935605Y-51237000D01*
X50576395Y-51237000D01*
X49683804Y-50344409D01*
X49428461Y-50429467D01*
X49220484Y-50998965D01*
X41257833Y-50998965D01*
X28648000Y-38389132D01*
X28648000Y-37561030D01*
X31231000Y-37561030D01*
X31231000Y-38130970D01*
X31347845Y-38718389D01*
X31680591Y-39216379D01*
X32178581Y-39549125D01*
X32766000Y-39665970D01*
X33353419Y-39549125D01*
X33851409Y-39216379D01*
X34036000Y-38940119D01*
X34220591Y-39216379D01*
X34718581Y-39549125D01*
X35306000Y-39665970D01*
X35893419Y-39549125D01*
X36391409Y-39216379D01*
X36576000Y-38940119D01*
X36760591Y-39216379D01*
X37258581Y-39549125D01*
X37846000Y-39665970D01*
X38433419Y-39549125D01*
X38931409Y-39216379D01*
X39116000Y-38940119D01*
X39300591Y-39216379D01*
X39798581Y-39549125D01*
X40386000Y-39665970D01*
X40973419Y-39549125D01*
X41471409Y-39216379D01*
X41656000Y-38940119D01*
X41840591Y-39216379D01*
X42338581Y-39549125D01*
X42926000Y-39665970D01*
X43513419Y-39549125D01*
X44011409Y-39216379D01*
X44196000Y-38940119D01*
X44380591Y-39216379D01*
X44878581Y-39549125D01*
X45466000Y-39665970D01*
X46053419Y-39549125D01*
X46551409Y-39216379D01*
X46736000Y-38940119D01*
X46920591Y-39216379D01*
X47418581Y-39549125D01*
X48006000Y-39665970D01*
X48593419Y-39549125D01*
X49091409Y-39216379D01*
X49278801Y-38935926D01*
X49541260Y-39269647D01*
X50066877Y-39564806D01*
X50181260Y-39587036D01*
X50419000Y-39466378D01*
X50419000Y-37973000D01*
X50399000Y-37973000D01*
X50399000Y-37719000D01*
X50419000Y-37719000D01*
X50419000Y-37699000D01*
X50673000Y-37699000D01*
X50673000Y-37719000D01*
X50693000Y-37719000D01*
X50693000Y-37973000D01*
X50673000Y-37973000D01*
X50673000Y-39466378D01*
X50910740Y-39587036D01*
X51025123Y-39564806D01*
X51550740Y-39269647D01*
X51813199Y-38935926D01*
X52000591Y-39216379D01*
X52201000Y-39350288D01*
X52201000Y-41007481D01*
X51055234Y-42153247D01*
X50468069Y-42152735D01*
X49903689Y-42385932D01*
X49471509Y-42817357D01*
X49237327Y-43381330D01*
X49236795Y-43991991D01*
X49469992Y-44556371D01*
X49887060Y-44974169D01*
X49887060Y-47451041D01*
X49464769Y-47872596D01*
X49232265Y-48432528D01*
X49231736Y-49038812D01*
X49463262Y-49599149D01*
X49891596Y-50028231D01*
X49906800Y-50034544D01*
X49863409Y-50164804D01*
X50756000Y-51057395D01*
X51648591Y-50164804D01*
X51605359Y-50035023D01*
X51618149Y-50029738D01*
X52047231Y-49601404D01*
X52279735Y-49041472D01*
X52280264Y-48435188D01*
X52048738Y-47874851D01*
X51657060Y-47482489D01*
X51657060Y-44973468D01*
X52072611Y-44558643D01*
X52306793Y-43994670D01*
X52307307Y-43404332D01*
X53711787Y-41999852D01*
X53711790Y-41999850D01*
X53903633Y-41712735D01*
X53971000Y-41374060D01*
X53971000Y-39350288D01*
X54171409Y-39216379D01*
X54356000Y-38940119D01*
X54540591Y-39216379D01*
X54741000Y-39350288D01*
X54741000Y-42430423D01*
X54353389Y-42817357D01*
X54119207Y-43381330D01*
X54118675Y-43991991D01*
X54351872Y-44556371D01*
X54768940Y-44974169D01*
X54768940Y-47482037D01*
X54417769Y-47832596D01*
X54185265Y-48392528D01*
X54184736Y-48998812D01*
X54416262Y-49559149D01*
X54844596Y-49988231D01*
X54859800Y-49994544D01*
X54816409Y-50124804D01*
X55709000Y-51017395D01*
X56601591Y-50124804D01*
X56558359Y-49995023D01*
X56571149Y-49989738D01*
X57000231Y-49561404D01*
X57232735Y-49001472D01*
X57233264Y-48395188D01*
X57001738Y-47834851D01*
X56573404Y-47405769D01*
X56538940Y-47391458D01*
X56538940Y-46672500D01*
X61646060Y-46672500D01*
X61646060Y-49085500D01*
X61690338Y-49320817D01*
X61829410Y-49536941D01*
X62041610Y-49681931D01*
X62293500Y-49732940D01*
X64706500Y-49732940D01*
X64941817Y-49688662D01*
X65157941Y-49549590D01*
X65302931Y-49337390D01*
X65353940Y-49085500D01*
X65353940Y-46672500D01*
X65309662Y-46437183D01*
X65170590Y-46221059D01*
X64958390Y-46076069D01*
X64706500Y-46025060D01*
X62293500Y-46025060D01*
X62058183Y-46069338D01*
X61842059Y-46208410D01*
X61697069Y-46420610D01*
X61646060Y-46672500D01*
X56538940Y-46672500D01*
X56538940Y-44973468D01*
X56954491Y-44558643D01*
X57188673Y-43994670D01*
X57189205Y-43384009D01*
X56956008Y-42819629D01*
X56524583Y-42387449D01*
X56511000Y-42381809D01*
X56511000Y-39350288D01*
X56711409Y-39216379D01*
X56896000Y-38940119D01*
X57080591Y-39216379D01*
X57578581Y-39549125D01*
X58166000Y-39665970D01*
X58753419Y-39549125D01*
X59251409Y-39216379D01*
X59436000Y-38940119D01*
X59620591Y-39216379D01*
X60118581Y-39549125D01*
X60706000Y-39665970D01*
X61293419Y-39549125D01*
X61791409Y-39216379D01*
X61976000Y-38940119D01*
X62160591Y-39216379D01*
X62658581Y-39549125D01*
X63246000Y-39665970D01*
X63833419Y-39549125D01*
X64331409Y-39216379D01*
X64516000Y-38940119D01*
X64700591Y-39216379D01*
X65198581Y-39549125D01*
X65786000Y-39665970D01*
X66373419Y-39549125D01*
X66871409Y-39216379D01*
X67204155Y-38718389D01*
X67321000Y-38130970D01*
X67321000Y-37561030D01*
X67204155Y-36973611D01*
X66871409Y-36475621D01*
X66719322Y-36374000D01*
X86330420Y-36374000D01*
X117054000Y-67097579D01*
X117054000Y-73234805D01*
X116890397Y-73479654D01*
X116804000Y-73914000D01*
X116804000Y-74224000D01*
X116890397Y-74658346D01*
X117136434Y-75026566D01*
X117504654Y-75272603D01*
X117939000Y-75359000D01*
X118373346Y-75272603D01*
X118741566Y-75026566D01*
X118987603Y-74658346D01*
X119074000Y-74224000D01*
X119074000Y-73914000D01*
X118987603Y-73479654D01*
X118824000Y-73234805D01*
X118824000Y-66731005D01*
X118824001Y-66731000D01*
X118756633Y-66392325D01*
X118723007Y-66342000D01*
X118564790Y-66105210D01*
X118564787Y-66105208D01*
X96956147Y-44496567D01*
X112902626Y-44496567D01*
X113230622Y-45290377D01*
X113837428Y-45898244D01*
X114630664Y-46227624D01*
X115489567Y-46228374D01*
X116283377Y-45900378D01*
X116891244Y-45293572D01*
X117220624Y-44500336D01*
X117221374Y-43641433D01*
X116893378Y-42847623D01*
X116286572Y-42239756D01*
X115493336Y-41910376D01*
X114634433Y-41909626D01*
X113840623Y-42237622D01*
X113232756Y-42844428D01*
X112903376Y-43637664D01*
X112902626Y-44496567D01*
X96956147Y-44496567D01*
X88245627Y-35786047D01*
X88267322Y-35800543D01*
X88893009Y-35925000D01*
X89160991Y-35925000D01*
X89786678Y-35800543D01*
X90317111Y-35446120D01*
X90671534Y-34915687D01*
X90795991Y-34290000D01*
X90671534Y-33664313D01*
X90317111Y-33133880D01*
X89786678Y-32779457D01*
X89160991Y-32655000D01*
X88893009Y-32655000D01*
X88267322Y-32779457D01*
X87736889Y-33133880D01*
X87382466Y-33664313D01*
X87258009Y-34290000D01*
X87382466Y-34915687D01*
X87396962Y-34937382D01*
X87322790Y-34863210D01*
X87167730Y-34759603D01*
X87035675Y-34671367D01*
X86979484Y-34660190D01*
X86697000Y-34603999D01*
X86696995Y-34604000D01*
X44533005Y-34604000D01*
X44533000Y-34603999D01*
X44194325Y-34671367D01*
X43907210Y-34863210D01*
X43907208Y-34863213D01*
X42699296Y-36071124D01*
X42338581Y-36142875D01*
X41840591Y-36475621D01*
X41656000Y-36751881D01*
X41471409Y-36475621D01*
X40973419Y-36142875D01*
X40386000Y-36026030D01*
X39798581Y-36142875D01*
X39300591Y-36475621D01*
X39116000Y-36751881D01*
X38931409Y-36475621D01*
X38433419Y-36142875D01*
X37846000Y-36026030D01*
X37258581Y-36142875D01*
X36760591Y-36475621D01*
X36576000Y-36751881D01*
X36391409Y-36475621D01*
X35893419Y-36142875D01*
X35306000Y-36026030D01*
X34718581Y-36142875D01*
X34220591Y-36475621D01*
X34036000Y-36751881D01*
X33851409Y-36475621D01*
X33353419Y-36142875D01*
X32766000Y-36026030D01*
X32178581Y-36142875D01*
X31680591Y-36475621D01*
X31347845Y-36973611D01*
X31231000Y-37561030D01*
X28648000Y-37561030D01*
X28648000Y-32132274D01*
X89957387Y-32132274D01*
X90187933Y-32726759D01*
X90628429Y-33187766D01*
X91186566Y-33440124D01*
X91440000Y-33320777D01*
X91440000Y-31877000D01*
X90091797Y-31877000D01*
X89957387Y-32132274D01*
X28648000Y-32132274D01*
X28648000Y-27551025D01*
X28861603Y-27231346D01*
X28948000Y-26797000D01*
X28948000Y-26416000D01*
X28861603Y-25981654D01*
X28615566Y-25613434D01*
X28247346Y-25367397D01*
X27813000Y-25281000D01*
X27378654Y-25367397D01*
X27010434Y-25613434D01*
X26764397Y-25981654D01*
X26678000Y-26416000D01*
X24963000Y-26416000D01*
X24963000Y-22904000D01*
X34350023Y-22904000D01*
X34128210Y-23052210D01*
X34128208Y-23052213D01*
X32140210Y-25040210D01*
X31948367Y-25327325D01*
X31948367Y-25327326D01*
X31880999Y-25666000D01*
X31881000Y-25666005D01*
X31881000Y-28721712D01*
X31680591Y-28855621D01*
X31347845Y-29353611D01*
X31231000Y-29941030D01*
X31231000Y-30510970D01*
X31347845Y-31098389D01*
X31680591Y-31596379D01*
X32178581Y-31929125D01*
X32766000Y-32045970D01*
X33353419Y-31929125D01*
X33851409Y-31596379D01*
X34036000Y-31320119D01*
X34220591Y-31596379D01*
X34718581Y-31929125D01*
X35306000Y-32045970D01*
X35893419Y-31929125D01*
X36391409Y-31596379D01*
X36576000Y-31320119D01*
X36760591Y-31596379D01*
X37258581Y-31929125D01*
X37846000Y-32045970D01*
X38433419Y-31929125D01*
X38931409Y-31596379D01*
X39116000Y-31320119D01*
X39300591Y-31596379D01*
X39798581Y-31929125D01*
X40386000Y-32045970D01*
X40973419Y-31929125D01*
X41471409Y-31596379D01*
X41656000Y-31320119D01*
X41840591Y-31596379D01*
X42338581Y-31929125D01*
X42926000Y-32045970D01*
X43513419Y-31929125D01*
X44011409Y-31596379D01*
X44196000Y-31320119D01*
X44380591Y-31596379D01*
X44878581Y-31929125D01*
X45466000Y-32045970D01*
X46053419Y-31929125D01*
X46551409Y-31596379D01*
X46736000Y-31320119D01*
X46920591Y-31596379D01*
X47418581Y-31929125D01*
X48006000Y-32045970D01*
X48593419Y-31929125D01*
X49091409Y-31596379D01*
X49276000Y-31320119D01*
X49460591Y-31596379D01*
X49958581Y-31929125D01*
X50546000Y-32045970D01*
X51133419Y-31929125D01*
X51631409Y-31596379D01*
X51816000Y-31320119D01*
X52000591Y-31596379D01*
X52498581Y-31929125D01*
X53086000Y-32045970D01*
X53673419Y-31929125D01*
X54171409Y-31596379D01*
X54358801Y-31315926D01*
X54621260Y-31649647D01*
X55146877Y-31944806D01*
X55261260Y-31967036D01*
X55499000Y-31846378D01*
X55499000Y-30353000D01*
X55479000Y-30353000D01*
X55479000Y-30099000D01*
X55499000Y-30099000D01*
X55499000Y-28605622D01*
X55753000Y-28605622D01*
X55753000Y-30099000D01*
X55773000Y-30099000D01*
X55773000Y-30353000D01*
X55753000Y-30353000D01*
X55753000Y-31846378D01*
X55990740Y-31967036D01*
X56105123Y-31944806D01*
X56630740Y-31649647D01*
X56893199Y-31315926D01*
X57080591Y-31596379D01*
X57578581Y-31929125D01*
X58166000Y-32045970D01*
X58753419Y-31929125D01*
X59251409Y-31596379D01*
X59436000Y-31320119D01*
X59620591Y-31596379D01*
X60118581Y-31929125D01*
X60706000Y-32045970D01*
X61293419Y-31929125D01*
X61791409Y-31596379D01*
X61976000Y-31320119D01*
X62160591Y-31596379D01*
X62658581Y-31929125D01*
X63246000Y-32045970D01*
X63833419Y-31929125D01*
X64331409Y-31596379D01*
X64516000Y-31320119D01*
X64700591Y-31596379D01*
X65198581Y-31929125D01*
X65786000Y-32045970D01*
X66373419Y-31929125D01*
X66871409Y-31596379D01*
X67024189Y-31367726D01*
X89957387Y-31367726D01*
X90091797Y-31623000D01*
X91440000Y-31623000D01*
X91440000Y-30179223D01*
X91186566Y-30059876D01*
X90628429Y-30312234D01*
X90187933Y-30773241D01*
X89957387Y-31367726D01*
X67024189Y-31367726D01*
X67204155Y-31098389D01*
X67321000Y-30510970D01*
X67321000Y-29941030D01*
X67204155Y-29353611D01*
X66871409Y-28855621D01*
X66373419Y-28522875D01*
X65786000Y-28406030D01*
X65198581Y-28522875D01*
X64700591Y-28855621D01*
X64516000Y-29131881D01*
X64331409Y-28855621D01*
X63833419Y-28522875D01*
X63246000Y-28406030D01*
X62658581Y-28522875D01*
X62160591Y-28855621D01*
X61976000Y-29131881D01*
X61791409Y-28855621D01*
X61293419Y-28522875D01*
X60706000Y-28406030D01*
X60118581Y-28522875D01*
X59620591Y-28855621D01*
X59436000Y-29131881D01*
X59251409Y-28855621D01*
X58753419Y-28522875D01*
X58166000Y-28406030D01*
X57578581Y-28522875D01*
X57080591Y-28855621D01*
X56893199Y-29136074D01*
X56630740Y-28802353D01*
X56105123Y-28507194D01*
X55990740Y-28484964D01*
X55753000Y-28605622D01*
X55499000Y-28605622D01*
X55261260Y-28484964D01*
X55146877Y-28507194D01*
X54621260Y-28802353D01*
X54358801Y-29136074D01*
X54171409Y-28855621D01*
X53673419Y-28522875D01*
X53086000Y-28406030D01*
X52498581Y-28522875D01*
X52000591Y-28855621D01*
X51816000Y-29131881D01*
X51631409Y-28855621D01*
X51133419Y-28522875D01*
X50546000Y-28406030D01*
X49958581Y-28522875D01*
X49460591Y-28855621D01*
X49276000Y-29131881D01*
X49091409Y-28855621D01*
X48593419Y-28522875D01*
X48006000Y-28406030D01*
X47418581Y-28522875D01*
X46920591Y-28855621D01*
X46736000Y-29131881D01*
X46551409Y-28855621D01*
X46053419Y-28522875D01*
X45466000Y-28406030D01*
X44878581Y-28522875D01*
X44380591Y-28855621D01*
X44196000Y-29131881D01*
X44011409Y-28855621D01*
X43761000Y-28688303D01*
X43761000Y-26126868D01*
X46954868Y-22933000D01*
X51816000Y-22933000D01*
X52135541Y-22869439D01*
X52406434Y-22688434D01*
X55073434Y-20021434D01*
X55254440Y-19750540D01*
X55318000Y-19431000D01*
X55318000Y-18542000D01*
X58940000Y-18542000D01*
X59045427Y-19072017D01*
X59345657Y-19521343D01*
X59794983Y-19821573D01*
X60325000Y-19927000D01*
X86675314Y-19927000D01*
X92722000Y-25973686D01*
X92722000Y-30538741D01*
X92505571Y-30312234D01*
X91947434Y-30059876D01*
X91694000Y-30179223D01*
X91694000Y-31623000D01*
X91714000Y-31623000D01*
X91714000Y-31877000D01*
X91694000Y-31877000D01*
X91694000Y-33320777D01*
X91947434Y-33440124D01*
X92505571Y-33187766D01*
X92722000Y-32961259D01*
X92722000Y-33275892D01*
X92462466Y-33664313D01*
X92338009Y-34290000D01*
X92462466Y-34915687D01*
X92816889Y-35446120D01*
X93347322Y-35800543D01*
X93973009Y-35925000D01*
X94240991Y-35925000D01*
X94866678Y-35800543D01*
X95397111Y-35446120D01*
X95751534Y-34915687D01*
X95875991Y-34290000D01*
X95751534Y-33664313D01*
X95492000Y-33275892D01*
X95492000Y-25400000D01*
X95477544Y-25327325D01*
X95386574Y-24869984D01*
X95086343Y-24420657D01*
X90613360Y-19947674D01*
X94611570Y-19947674D01*
X95163800Y-21284172D01*
X96185449Y-22307606D01*
X97520982Y-22862168D01*
X98967074Y-22863430D01*
X100303572Y-22311200D01*
X100503722Y-22111399D01*
X103623899Y-22111399D01*
X103887481Y-22749315D01*
X104375118Y-23237804D01*
X105012573Y-23502499D01*
X105702799Y-23503101D01*
X106340715Y-23239519D01*
X106756497Y-22824462D01*
X107150000Y-23218653D01*
X107150000Y-30244644D01*
X107075802Y-30318842D01*
X107007654Y-30332397D01*
X106639434Y-30578434D01*
X106595434Y-30622434D01*
X106349397Y-30990655D01*
X106263000Y-31425000D01*
X106349397Y-31859345D01*
X106595434Y-32227566D01*
X106963655Y-32473603D01*
X107398000Y-32560000D01*
X107832345Y-32473603D01*
X108200566Y-32227566D01*
X108244566Y-32183566D01*
X108490603Y-31815346D01*
X108504158Y-31747198D01*
X108874178Y-31377178D01*
X109093118Y-31049510D01*
X109170000Y-30663000D01*
X109170000Y-28948662D01*
X109503655Y-29171603D01*
X109938000Y-29258000D01*
X110372345Y-29171603D01*
X110740566Y-28925566D01*
X110784566Y-28881566D01*
X111030603Y-28513346D01*
X111044158Y-28445198D01*
X111541178Y-27948178D01*
X111760118Y-27620511D01*
X111837000Y-27234000D01*
X111837000Y-23204296D01*
X112217497Y-22824462D01*
X112630118Y-23237804D01*
X113267573Y-23502499D01*
X113957799Y-23503101D01*
X114595715Y-23239519D01*
X115068810Y-22767249D01*
X115183332Y-22813063D01*
X116228595Y-21767800D01*
X116214453Y-21753658D01*
X116394058Y-21574053D01*
X116408200Y-21588195D01*
X116422343Y-21574053D01*
X116601948Y-21753658D01*
X116587805Y-21767800D01*
X116601948Y-21781943D01*
X116422343Y-21961548D01*
X116408200Y-21947405D01*
X115362937Y-22992668D01*
X115473841Y-23269899D01*
X116119793Y-23513123D01*
X116809653Y-23490636D01*
X117310000Y-23283385D01*
X117310000Y-36467644D01*
X117108803Y-36668841D01*
X117040655Y-36682396D01*
X116672434Y-36928434D01*
X116374434Y-37226434D01*
X116128397Y-37594655D01*
X116042000Y-38029000D01*
X116128397Y-38463345D01*
X116374434Y-38831566D01*
X116742655Y-39077603D01*
X117177000Y-39164000D01*
X117611345Y-39077603D01*
X117979566Y-38831566D01*
X118277566Y-38533566D01*
X118523604Y-38165345D01*
X118537159Y-38097197D01*
X119034178Y-37600178D01*
X119253118Y-37272511D01*
X119330000Y-36886000D01*
X119330000Y-34706380D01*
X119409654Y-34759603D01*
X119844000Y-34846000D01*
X120278346Y-34759603D01*
X120646566Y-34513566D01*
X120892603Y-34145346D01*
X120979000Y-33711000D01*
X120979000Y-33274000D01*
X120892603Y-32839654D01*
X120854000Y-32781881D01*
X120854000Y-21574879D01*
X121585449Y-22307606D01*
X122920982Y-22862168D01*
X124367074Y-22863430D01*
X125703572Y-22311200D01*
X126727006Y-21289551D01*
X127281568Y-19954018D01*
X127282830Y-18507926D01*
X126730600Y-17171428D01*
X125708951Y-16147994D01*
X124373418Y-15593432D01*
X122927326Y-15592170D01*
X121590828Y-16144400D01*
X120579593Y-17153872D01*
X120558178Y-17121822D01*
X118653178Y-15216822D01*
X118325510Y-14997882D01*
X117939000Y-14921000D01*
X111208005Y-14921000D01*
X111208000Y-14920999D01*
X110821490Y-14997882D01*
X110493822Y-15216822D01*
X108842822Y-16867822D01*
X108623882Y-17195490D01*
X108547000Y-17582000D01*
X108547000Y-17777728D01*
X108152903Y-18171138D01*
X107740282Y-17757796D01*
X107102827Y-17493101D01*
X106412601Y-17492499D01*
X105774685Y-17756081D01*
X105286196Y-18243718D01*
X105021501Y-18881173D01*
X105020899Y-19571399D01*
X105211493Y-20032670D01*
X105015601Y-20032499D01*
X104377685Y-20296081D01*
X103889196Y-20783718D01*
X103624501Y-21421173D01*
X103623899Y-22111399D01*
X100503722Y-22111399D01*
X101327006Y-21289551D01*
X101881568Y-19954018D01*
X101882830Y-18507926D01*
X101330600Y-17171428D01*
X100308951Y-16147994D01*
X98973418Y-15593432D01*
X97527326Y-15592170D01*
X96190828Y-16144400D01*
X95167394Y-17166049D01*
X94612832Y-18501582D01*
X94611570Y-19947674D01*
X90613360Y-19947674D01*
X88228343Y-17562657D01*
X88123344Y-17492499D01*
X87779017Y-17262427D01*
X87249000Y-17157000D01*
X60325000Y-17157000D01*
X59794983Y-17262427D01*
X59345657Y-17562657D01*
X59045427Y-18011983D01*
X58940000Y-18542000D01*
X55318000Y-18542000D01*
X55318000Y-16407903D01*
X55451001Y-16319034D01*
X55468673Y-16361698D01*
X55647301Y-16540327D01*
X55880690Y-16637000D01*
X56737250Y-16637000D01*
X56896000Y-16478250D01*
X56896000Y-15113000D01*
X57150000Y-15113000D01*
X57150000Y-16478250D01*
X57308750Y-16637000D01*
X58165310Y-16637000D01*
X58398699Y-16540327D01*
X58577327Y-16361698D01*
X58674000Y-16128309D01*
X58674000Y-15271750D01*
X58515250Y-15113000D01*
X57150000Y-15113000D01*
X56896000Y-15113000D01*
X56876000Y-15113000D01*
X56876000Y-14859000D01*
X56896000Y-14859000D01*
X56896000Y-13493750D01*
X57150000Y-13493750D01*
X57150000Y-14859000D01*
X58515250Y-14859000D01*
X58674000Y-14700250D01*
X58674000Y-13843691D01*
X58577327Y-13610302D01*
X58398699Y-13431673D01*
X58165310Y-13335000D01*
X57308750Y-13335000D01*
X57150000Y-13493750D01*
X56896000Y-13493750D01*
X56737250Y-13335000D01*
X55880690Y-13335000D01*
X55647301Y-13431673D01*
X55468673Y-13610302D01*
X55451001Y-13652966D01*
X55114810Y-13428330D01*
X54483000Y-13302655D01*
X53851190Y-13428330D01*
X53315567Y-13786222D01*
X52957675Y-14321845D01*
X52832000Y-14953655D01*
X52832000Y-15018345D01*
X52957675Y-15650155D01*
X53315567Y-16185778D01*
X53648000Y-16407903D01*
X53648000Y-19085132D01*
X51470132Y-21263000D01*
X46609000Y-21263000D01*
X46289460Y-21326560D01*
X46018566Y-21507566D01*
X42335566Y-25190566D01*
X42154561Y-25461459D01*
X42091000Y-25781000D01*
X42091000Y-28688303D01*
X41840591Y-28855621D01*
X41656000Y-29131881D01*
X41471409Y-28855621D01*
X40973419Y-28522875D01*
X40386000Y-28406030D01*
X39798581Y-28522875D01*
X39300591Y-28855621D01*
X39116000Y-29131881D01*
X38931409Y-28855621D01*
X38433419Y-28522875D01*
X37846000Y-28406030D01*
X37258581Y-28522875D01*
X36760591Y-28855621D01*
X36576000Y-29131881D01*
X36391409Y-28855621D01*
X36191000Y-28721712D01*
X36191000Y-26794580D01*
X36390579Y-26595000D01*
X39325995Y-26595000D01*
X39326000Y-26595001D01*
X39608484Y-26538810D01*
X39664675Y-26527633D01*
X39951790Y-26335790D01*
X43551787Y-22735792D01*
X43551790Y-22735790D01*
X43743633Y-22448675D01*
X43771694Y-22307606D01*
X43811001Y-22110000D01*
X43811000Y-22109995D01*
X43811000Y-16406710D01*
X43859995Y-16386466D01*
X44196179Y-16050868D01*
X44529563Y-16384834D01*
X45136155Y-16636713D01*
X45792963Y-16637286D01*
X46399995Y-16386466D01*
X46864834Y-15922437D01*
X47116713Y-15315845D01*
X47117286Y-14659037D01*
X46866466Y-14052005D01*
X46402437Y-13587166D01*
X45795845Y-13335287D01*
X45139037Y-13334714D01*
X44532005Y-13585534D01*
X44195821Y-13921132D01*
X43862437Y-13587166D01*
X43255845Y-13335287D01*
X42599037Y-13334714D01*
X41992005Y-13585534D01*
X41655821Y-13921132D01*
X41322437Y-13587166D01*
X40715845Y-13335287D01*
X40059037Y-13334714D01*
X39452005Y-13585534D01*
X39028435Y-14008366D01*
X39010107Y-14001498D01*
X38025605Y-14986000D01*
X39010107Y-15970502D01*
X39028917Y-15963453D01*
X39449563Y-16384834D01*
X39501000Y-16406193D01*
X39501000Y-21616421D01*
X38324420Y-22793000D01*
X35407358Y-22793000D01*
X35848343Y-22498343D01*
X38825343Y-19521343D01*
X39125574Y-19072016D01*
X39231000Y-18542000D01*
X39125574Y-18011984D01*
X38825343Y-17562657D01*
X38376016Y-17262426D01*
X37846000Y-17157000D01*
X37315984Y-17262426D01*
X36866657Y-17562657D01*
X34295314Y-20134000D01*
X24528247Y-20134000D01*
X24514437Y-20120166D01*
X23907845Y-19868287D01*
X23251037Y-19867714D01*
X22644005Y-20118534D01*
X22179166Y-20582563D01*
X21927287Y-21189155D01*
X21926714Y-21845963D01*
X22177534Y-22452995D01*
X22193000Y-22468488D01*
X22193000Y-28565314D01*
X21730598Y-29027716D01*
X21129057Y-29276106D01*
X20668722Y-29735637D01*
X20419284Y-30336352D01*
X20418716Y-30986795D01*
X20667106Y-31587943D01*
X21126637Y-32048278D01*
X21727352Y-32297716D01*
X21730032Y-32297718D01*
X22193000Y-32760686D01*
X22193000Y-38295000D01*
X17863000Y-38295000D01*
X17332983Y-38400427D01*
X16883657Y-38700657D01*
X14851657Y-40732657D01*
X14551427Y-41181983D01*
X14446000Y-41712000D01*
X12775000Y-41712000D01*
X12775000Y-31815532D01*
X16081073Y-31815532D01*
X16179736Y-32082387D01*
X16789461Y-32308908D01*
X17439460Y-32284856D01*
X17928264Y-32082387D01*
X18026927Y-31815532D01*
X17054000Y-30842605D01*
X16081073Y-31815532D01*
X12775000Y-31815532D01*
X12775000Y-30398461D01*
X15408092Y-30398461D01*
X15432144Y-31048460D01*
X15634613Y-31537264D01*
X15901468Y-31635927D01*
X16874395Y-30663000D01*
X17233605Y-30663000D01*
X18206532Y-31635927D01*
X18473387Y-31537264D01*
X18699908Y-30927539D01*
X18675856Y-30277540D01*
X18473387Y-29788736D01*
X18206532Y-29690073D01*
X17233605Y-30663000D01*
X16874395Y-30663000D01*
X15901468Y-29690073D01*
X15634613Y-29788736D01*
X15408092Y-30398461D01*
X12775000Y-30398461D01*
X12775000Y-29510468D01*
X16081073Y-29510468D01*
X17054000Y-30483395D01*
X18026927Y-29510468D01*
X17928264Y-29243613D01*
X17318539Y-29017092D01*
X16668540Y-29041144D01*
X16179736Y-29243613D01*
X16081073Y-29510468D01*
X12775000Y-29510468D01*
X12775000Y-21845963D01*
X14306714Y-21845963D01*
X14557534Y-22452995D01*
X15021563Y-22917834D01*
X15628155Y-23169713D01*
X16284963Y-23170286D01*
X16891995Y-22919466D01*
X17356834Y-22455437D01*
X17608713Y-21848845D01*
X17609286Y-21192037D01*
X17358466Y-20585005D01*
X17343000Y-20569512D01*
X17343000Y-16635138D01*
X17482690Y-16693000D01*
X18339250Y-16693000D01*
X18498000Y-16534250D01*
X18498000Y-15169000D01*
X18752000Y-15169000D01*
X18752000Y-16534250D01*
X18910750Y-16693000D01*
X19767310Y-16693000D01*
X20000699Y-16596327D01*
X20179327Y-16417698D01*
X20276000Y-16184309D01*
X20276000Y-15327750D01*
X20117250Y-15169000D01*
X18752000Y-15169000D01*
X18498000Y-15169000D01*
X18478000Y-15169000D01*
X18478000Y-14953655D01*
X31115000Y-14953655D01*
X31115000Y-15018345D01*
X31240675Y-15650155D01*
X31598567Y-16185778D01*
X32134190Y-16543670D01*
X32766000Y-16669345D01*
X33397810Y-16543670D01*
X33933433Y-16185778D01*
X34028630Y-16043306D01*
X34369563Y-16384834D01*
X34976155Y-16636713D01*
X35632963Y-16637286D01*
X36239995Y-16386466D01*
X36476766Y-16150107D01*
X36861498Y-16150107D01*
X36962120Y-16418622D01*
X37577642Y-16647816D01*
X38234019Y-16624014D01*
X38729880Y-16418622D01*
X38830502Y-16150107D01*
X37846000Y-15165605D01*
X36861498Y-16150107D01*
X36476766Y-16150107D01*
X36663565Y-15963634D01*
X36681893Y-15970502D01*
X37666395Y-14986000D01*
X36681893Y-14001498D01*
X36663083Y-14008547D01*
X36476755Y-13821893D01*
X36861498Y-13821893D01*
X37846000Y-14806395D01*
X38830502Y-13821893D01*
X38729880Y-13553378D01*
X38114358Y-13324184D01*
X37457981Y-13347986D01*
X36962120Y-13553378D01*
X36861498Y-13821893D01*
X36476755Y-13821893D01*
X36242437Y-13587166D01*
X35635845Y-13335287D01*
X34979037Y-13334714D01*
X34372005Y-13585534D01*
X34028476Y-13928464D01*
X33933433Y-13786222D01*
X33397810Y-13428330D01*
X32766000Y-13302655D01*
X32134190Y-13428330D01*
X31598567Y-13786222D01*
X31240675Y-14321845D01*
X31115000Y-14953655D01*
X18478000Y-14953655D01*
X18478000Y-14915000D01*
X18498000Y-14915000D01*
X18498000Y-13549750D01*
X18752000Y-13549750D01*
X18752000Y-14915000D01*
X20117250Y-14915000D01*
X20276000Y-14756250D01*
X20276000Y-13899691D01*
X20179327Y-13666302D01*
X20000699Y-13487673D01*
X19767310Y-13391000D01*
X18910750Y-13391000D01*
X18752000Y-13549750D01*
X18498000Y-13549750D01*
X18339250Y-13391000D01*
X17482690Y-13391000D01*
X17249301Y-13487673D01*
X17070673Y-13666302D01*
X17053001Y-13708966D01*
X16716810Y-13484330D01*
X16085000Y-13358655D01*
X15453190Y-13484330D01*
X14917567Y-13842222D01*
X14559675Y-14377845D01*
X14434000Y-15009655D01*
X14434000Y-15074345D01*
X14559675Y-15706155D01*
X14573000Y-15726097D01*
X14573000Y-20568753D01*
X14559166Y-20582563D01*
X14307287Y-21189155D01*
X14306714Y-21845963D01*
X12775000Y-21845963D01*
X12775000Y-12775000D01*
X130481000Y-12775000D01*
X130481000Y-128703000D01*
X130481000Y-128703000D01*
G37*
X130481000Y-128703000D02*
X12775000Y-128703000D01*
X12775000Y-121163856D01*
X12907686Y-121163856D01*
X13372841Y-122286851D01*
X14236704Y-123152879D01*
X15366223Y-123622398D01*
X15854680Y-123522081D01*
X15854680Y-120675400D01*
X16108680Y-120675400D01*
X16108680Y-123522081D01*
X16597137Y-123622398D01*
X17726656Y-123152879D01*
X18590519Y-122286851D01*
X19055674Y-121163856D01*
X23105786Y-121163856D01*
X23570941Y-122286851D01*
X24434804Y-123152879D01*
X25564323Y-123622398D01*
X26052780Y-123522081D01*
X26052780Y-120675400D01*
X26306780Y-120675400D01*
X26306780Y-123522081D01*
X26795237Y-123622398D01*
X27924756Y-123152879D01*
X28788619Y-122286851D01*
X29253774Y-121163856D01*
X29239173Y-121092856D01*
X29246686Y-121092856D01*
X29711841Y-122215851D01*
X30575704Y-123081879D01*
X31705223Y-123551398D01*
X32193680Y-123451081D01*
X32193680Y-120604400D01*
X32447680Y-120604400D01*
X32447680Y-123451081D01*
X32936137Y-123551398D01*
X34065656Y-123081879D01*
X34929519Y-122215851D01*
X35394674Y-121092856D01*
X39444786Y-121092856D01*
X39909941Y-122215851D01*
X40773804Y-123081879D01*
X41903323Y-123551398D01*
X42391780Y-123451081D01*
X42391780Y-120604400D01*
X42645780Y-120604400D01*
X42645780Y-123451081D01*
X43134237Y-123551398D01*
X44263756Y-123081879D01*
X45127619Y-122215851D01*
X45563365Y-121163856D01*
X49864686Y-121163856D01*
X50329841Y-122286851D01*
X51193704Y-123152879D01*
X52323223Y-123622398D01*
X52811680Y-123522081D01*
X52811680Y-120675400D01*
X53065680Y-120675400D01*
X53065680Y-123522081D01*
X53554137Y-123622398D01*
X54683656Y-123152879D01*
X55547519Y-122286851D01*
X56012674Y-121163856D01*
X60062786Y-121163856D01*
X60527941Y-122286851D01*
X61391804Y-123152879D01*
X62521323Y-123622398D01*
X63009780Y-123522081D01*
X63009780Y-120675400D01*
X63263780Y-120675400D01*
X63263780Y-123522081D01*
X63752237Y-123622398D01*
X64881756Y-123152879D01*
X65431689Y-122601567D01*
X69849626Y-122601567D01*
X70177622Y-123395377D01*
X70784428Y-124003244D01*
X71577664Y-124332624D01*
X72436567Y-124333374D01*
X73230377Y-124005378D01*
X73838244Y-123398572D01*
X74167624Y-122605336D01*
X74168374Y-121746433D01*
X73840378Y-120952623D01*
X73233572Y-120344756D01*
X72440336Y-120015376D01*
X71581433Y-120014626D01*
X70787623Y-120342622D01*
X70179756Y-120949428D01*
X69850376Y-121742664D01*
X69849626Y-122601567D01*
X65431689Y-122601567D01*
X65745619Y-122286851D01*
X66210774Y-121163856D01*
X66110319Y-120675400D01*
X63263780Y-120675400D01*
X63009780Y-120675400D01*
X60163241Y-120675400D01*
X60062786Y-121163856D01*
X56012674Y-121163856D01*
X55912219Y-120675400D01*
X53065680Y-120675400D01*
X52811680Y-120675400D01*
X49965141Y-120675400D01*
X49864686Y-121163856D01*
X45563365Y-121163856D01*
X45592774Y-121092856D01*
X45492319Y-120604400D01*
X42645780Y-120604400D01*
X42391780Y-120604400D01*
X39545241Y-120604400D01*
X39444786Y-121092856D01*
X35394674Y-121092856D01*
X35294219Y-120604400D01*
X32447680Y-120604400D01*
X32193680Y-120604400D01*
X29347141Y-120604400D01*
X29246686Y-121092856D01*
X29239173Y-121092856D01*
X29153319Y-120675400D01*
X26306780Y-120675400D01*
X26052780Y-120675400D01*
X23206241Y-120675400D01*
X23105786Y-121163856D01*
X19055674Y-121163856D01*
X18955219Y-120675400D01*
X16108680Y-120675400D01*
X15854680Y-120675400D01*
X13008141Y-120675400D01*
X12907686Y-121163856D01*
X12775000Y-121163856D01*
X12775000Y-119932944D01*
X12907686Y-119932944D01*
X13008141Y-120421400D01*
X15854680Y-120421400D01*
X15854680Y-117574719D01*
X16108680Y-117574719D01*
X16108680Y-120421400D01*
X18955219Y-120421400D01*
X19055674Y-119932944D01*
X23105786Y-119932944D01*
X23206241Y-120421400D01*
X26052780Y-120421400D01*
X26052780Y-117574719D01*
X26306780Y-117574719D01*
X26306780Y-120421400D01*
X29153319Y-120421400D01*
X29253774Y-119932944D01*
X29224366Y-119861944D01*
X29246686Y-119861944D01*
X29347141Y-120350400D01*
X32193680Y-120350400D01*
X32193680Y-117503719D01*
X32447680Y-117503719D01*
X32447680Y-120350400D01*
X35294219Y-120350400D01*
X35394674Y-119861944D01*
X39444786Y-119861944D01*
X39545241Y-120350400D01*
X42391780Y-120350400D01*
X42391780Y-117503719D01*
X42645780Y-117503719D01*
X42645780Y-120350400D01*
X45492319Y-120350400D01*
X45578172Y-119932944D01*
X49864686Y-119932944D01*
X49965141Y-120421400D01*
X52811680Y-120421400D01*
X52811680Y-117574719D01*
X53065680Y-117574719D01*
X53065680Y-120421400D01*
X55912219Y-120421400D01*
X56012674Y-119932944D01*
X60062786Y-119932944D01*
X60163241Y-120421400D01*
X63009780Y-120421400D01*
X63009780Y-117574719D01*
X63263780Y-117574719D01*
X63263780Y-120421400D01*
X66110319Y-120421400D01*
X66210774Y-119932944D01*
X65745619Y-118809949D01*
X64881756Y-117943921D01*
X63752237Y-117474402D01*
X63263780Y-117574719D01*
X63009780Y-117574719D01*
X62521323Y-117474402D01*
X61391804Y-117943921D01*
X60527941Y-118809949D01*
X60062786Y-119932944D01*
X56012674Y-119932944D01*
X55547519Y-118809949D01*
X54683656Y-117943921D01*
X53554137Y-117474402D01*
X53065680Y-117574719D01*
X52811680Y-117574719D01*
X52323223Y-117474402D01*
X51193704Y-117943921D01*
X50329841Y-118809949D01*
X49864686Y-119932944D01*
X45578172Y-119932944D01*
X45592774Y-119861944D01*
X45127619Y-118738949D01*
X44263756Y-117872921D01*
X43134237Y-117403402D01*
X42645780Y-117503719D01*
X42391780Y-117503719D01*
X41903323Y-117403402D01*
X40773804Y-117872921D01*
X39909941Y-118738949D01*
X39444786Y-119861944D01*
X35394674Y-119861944D01*
X34929519Y-118738949D01*
X34065656Y-117872921D01*
X32936137Y-117403402D01*
X32447680Y-117503719D01*
X32193680Y-117503719D01*
X31705223Y-117403402D01*
X30575704Y-117872921D01*
X29711841Y-118738949D01*
X29246686Y-119861944D01*
X29224366Y-119861944D01*
X28788619Y-118809949D01*
X27924756Y-117943921D01*
X26795237Y-117474402D01*
X26306780Y-117574719D01*
X26052780Y-117574719D01*
X25564323Y-117474402D01*
X24434804Y-117943921D01*
X23570941Y-118809949D01*
X23105786Y-119932944D01*
X19055674Y-119932944D01*
X18590519Y-118809949D01*
X17726656Y-117943921D01*
X16597137Y-117474402D01*
X16108680Y-117574719D01*
X15854680Y-117574719D01*
X15366223Y-117474402D01*
X14236704Y-117943921D01*
X13372841Y-118809949D01*
X12907686Y-119932944D01*
X12775000Y-119932944D01*
X12775000Y-116046811D01*
X19397000Y-116046811D01*
X19397000Y-116520669D01*
X19525263Y-117165491D01*
X19890525Y-117712144D01*
X20437178Y-118077406D01*
X21082000Y-118205669D01*
X21726822Y-118077406D01*
X22273475Y-117712144D01*
X22351546Y-117595302D01*
X22530270Y-117806245D01*
X23116380Y-118107810D01*
X23193081Y-118123394D01*
X23454360Y-118004697D01*
X23454360Y-116410740D01*
X23708360Y-116410740D01*
X23708360Y-118004697D01*
X23969639Y-118123394D01*
X24046340Y-118107810D01*
X24632450Y-117806245D01*
X25058541Y-117303341D01*
X25259745Y-116675660D01*
X25110354Y-116410740D01*
X23708360Y-116410740D01*
X23454360Y-116410740D01*
X23434360Y-116410740D01*
X23434360Y-116156740D01*
X23454360Y-116156740D01*
X23454360Y-114562783D01*
X23708360Y-114562783D01*
X23708360Y-116156740D01*
X25110354Y-116156740D01*
X25212381Y-115975811D01*
X35736000Y-115975811D01*
X35736000Y-116449669D01*
X35864263Y-117094491D01*
X36229525Y-117641144D01*
X36776178Y-118006406D01*
X37421000Y-118134669D01*
X38065822Y-118006406D01*
X38612475Y-117641144D01*
X38690546Y-117524302D01*
X38869270Y-117735245D01*
X39455380Y-118036810D01*
X39532081Y-118052394D01*
X39793360Y-117933697D01*
X39793360Y-116339740D01*
X40047360Y-116339740D01*
X40047360Y-117933697D01*
X40308639Y-118052394D01*
X40385340Y-118036810D01*
X40971450Y-117735245D01*
X41397541Y-117232341D01*
X41598745Y-116604660D01*
X41449354Y-116339740D01*
X40047360Y-116339740D01*
X39793360Y-116339740D01*
X39773360Y-116339740D01*
X39773360Y-116085740D01*
X39793360Y-116085740D01*
X39793360Y-114491783D01*
X40047360Y-114491783D01*
X40047360Y-116085740D01*
X41449354Y-116085740D01*
X41471306Y-116046811D01*
X56354000Y-116046811D01*
X56354000Y-116520669D01*
X56482263Y-117165491D01*
X56847525Y-117712144D01*
X57394178Y-118077406D01*
X58039000Y-118205669D01*
X58683822Y-118077406D01*
X59230475Y-117712144D01*
X59308546Y-117595302D01*
X59487270Y-117806245D01*
X60073380Y-118107810D01*
X60150081Y-118123394D01*
X60411360Y-118004697D01*
X60411360Y-116410740D01*
X60665360Y-116410740D01*
X60665360Y-118004697D01*
X60926639Y-118123394D01*
X61003340Y-118107810D01*
X61589450Y-117806245D01*
X62015541Y-117303341D01*
X62216745Y-116675660D01*
X62067354Y-116410740D01*
X60665360Y-116410740D01*
X60411360Y-116410740D01*
X60391360Y-116410740D01*
X60391360Y-116156740D01*
X60411360Y-116156740D01*
X60411360Y-114562783D01*
X60665360Y-114562783D01*
X60665360Y-116156740D01*
X62067354Y-116156740D01*
X62216745Y-115891820D01*
X62015541Y-115264139D01*
X61589450Y-114761235D01*
X61003340Y-114459670D01*
X60926639Y-114444086D01*
X60665360Y-114562783D01*
X60411360Y-114562783D01*
X60150081Y-114444086D01*
X60073380Y-114459670D01*
X59487270Y-114761235D01*
X59308546Y-114972178D01*
X59230475Y-114855336D01*
X58683822Y-114490074D01*
X58039000Y-114361811D01*
X57394178Y-114490074D01*
X56847525Y-114855336D01*
X56482263Y-115401989D01*
X56354000Y-116046811D01*
X41471306Y-116046811D01*
X41598745Y-115820820D01*
X41397541Y-115193139D01*
X40971450Y-114690235D01*
X40385340Y-114388670D01*
X40308639Y-114373086D01*
X40047360Y-114491783D01*
X39793360Y-114491783D01*
X39532081Y-114373086D01*
X39455380Y-114388670D01*
X38869270Y-114690235D01*
X38690546Y-114901178D01*
X38612475Y-114784336D01*
X38065822Y-114419074D01*
X37421000Y-114290811D01*
X36776178Y-114419074D01*
X36229525Y-114784336D01*
X35864263Y-115330989D01*
X35736000Y-115975811D01*
X25212381Y-115975811D01*
X25259745Y-115891820D01*
X25058541Y-115264139D01*
X24632450Y-114761235D01*
X24046340Y-114459670D01*
X23969639Y-114444086D01*
X23708360Y-114562783D01*
X23454360Y-114562783D01*
X23193081Y-114444086D01*
X23116380Y-114459670D01*
X22530270Y-114761235D01*
X22351546Y-114972178D01*
X22273475Y-114855336D01*
X21726822Y-114490074D01*
X21082000Y-114361811D01*
X20437178Y-114490074D01*
X19890525Y-114855336D01*
X19525263Y-115401989D01*
X19397000Y-116046811D01*
X12775000Y-116046811D01*
X12775000Y-41712000D01*
X14446000Y-41712000D01*
X14446000Y-85400000D01*
X14551427Y-85930017D01*
X14851657Y-86379343D01*
X21074657Y-92602343D01*
X21523983Y-92902573D01*
X22054000Y-93008000D01*
X48912314Y-93008000D01*
X66921657Y-111017343D01*
X67370984Y-111317574D01*
X67901000Y-111423000D01*
X75963314Y-111423000D01*
X87566657Y-123026343D01*
X88015984Y-123326574D01*
X88546000Y-123432000D01*
X91631151Y-123432000D01*
X91913313Y-123620534D01*
X92539000Y-123744991D01*
X93164687Y-123620534D01*
X93695120Y-123266111D01*
X94049543Y-122735678D01*
X94174000Y-122109991D01*
X94174000Y-121842009D01*
X94049543Y-121216322D01*
X94014487Y-121163856D01*
X114050486Y-121163856D01*
X114515641Y-122286851D01*
X115379504Y-123152879D01*
X116509023Y-123622398D01*
X116997480Y-123522081D01*
X116997480Y-120675400D01*
X117251480Y-120675400D01*
X117251480Y-123522081D01*
X117739937Y-123622398D01*
X118869456Y-123152879D01*
X119733319Y-122286851D01*
X120198474Y-121163856D01*
X124248586Y-121163856D01*
X124713741Y-122286851D01*
X125577604Y-123152879D01*
X126707123Y-123622398D01*
X127195580Y-123522081D01*
X127195580Y-120675400D01*
X127449580Y-120675400D01*
X127449580Y-123522081D01*
X127938037Y-123622398D01*
X129067556Y-123152879D01*
X129931419Y-122286851D01*
X130396574Y-121163856D01*
X130296119Y-120675400D01*
X127449580Y-120675400D01*
X127195580Y-120675400D01*
X124349041Y-120675400D01*
X124248586Y-121163856D01*
X120198474Y-121163856D01*
X120098019Y-120675400D01*
X117251480Y-120675400D01*
X116997480Y-120675400D01*
X114150941Y-120675400D01*
X114050486Y-121163856D01*
X94014487Y-121163856D01*
X93695120Y-120685889D01*
X93164687Y-120331466D01*
X92539000Y-120207009D01*
X91913313Y-120331466D01*
X91418633Y-120662000D01*
X89119686Y-120662000D01*
X88274120Y-119816434D01*
X93388876Y-119816434D01*
X93641234Y-120374571D01*
X94102241Y-120815067D01*
X94696726Y-121045613D01*
X94952000Y-120911203D01*
X94952000Y-119563000D01*
X95206000Y-119563000D01*
X95206000Y-120911203D01*
X95461274Y-121045613D01*
X96055759Y-120815067D01*
X96516766Y-120374571D01*
X96716444Y-119932944D01*
X114050486Y-119932944D01*
X114150941Y-120421400D01*
X116997480Y-120421400D01*
X116997480Y-117574719D01*
X117251480Y-117574719D01*
X117251480Y-120421400D01*
X120098019Y-120421400D01*
X120198474Y-119932944D01*
X124248586Y-119932944D01*
X124349041Y-120421400D01*
X127195580Y-120421400D01*
X127195580Y-117574719D01*
X127449580Y-117574719D01*
X127449580Y-120421400D01*
X130296119Y-120421400D01*
X130396574Y-119932944D01*
X129931419Y-118809949D01*
X129067556Y-117943921D01*
X127938037Y-117474402D01*
X127449580Y-117574719D01*
X127195580Y-117574719D01*
X126707123Y-117474402D01*
X125577604Y-117943921D01*
X124713741Y-118809949D01*
X124248586Y-119932944D01*
X120198474Y-119932944D01*
X119733319Y-118809949D01*
X118869456Y-117943921D01*
X117739937Y-117474402D01*
X117251480Y-117574719D01*
X116997480Y-117574719D01*
X116509023Y-117474402D01*
X115379504Y-117943921D01*
X114515641Y-118809949D01*
X114050486Y-119932944D01*
X96716444Y-119932944D01*
X96769124Y-119816434D01*
X96649777Y-119563000D01*
X95206000Y-119563000D01*
X94952000Y-119563000D01*
X93508223Y-119563000D01*
X93388876Y-119816434D01*
X88274120Y-119816434D01*
X87513252Y-119055566D01*
X93388876Y-119055566D01*
X93508223Y-119309000D01*
X94952000Y-119309000D01*
X94952000Y-117960797D01*
X95206000Y-117960797D01*
X95206000Y-119309000D01*
X96649777Y-119309000D01*
X96769124Y-119055566D01*
X96516766Y-118497429D01*
X96055759Y-118056933D01*
X95461274Y-117826387D01*
X95206000Y-117960797D01*
X94952000Y-117960797D01*
X94696726Y-117826387D01*
X94102241Y-118056933D01*
X93641234Y-118497429D01*
X93388876Y-119055566D01*
X87513252Y-119055566D01*
X85219695Y-116762009D01*
X90904000Y-116762009D01*
X90904000Y-117029991D01*
X91028457Y-117655678D01*
X91382880Y-118186111D01*
X91913313Y-118540534D01*
X92539000Y-118664991D01*
X93164687Y-118540534D01*
X93695120Y-118186111D01*
X94049543Y-117655678D01*
X94174000Y-117029991D01*
X94174000Y-116762009D01*
X94049543Y-116136322D01*
X93989734Y-116046811D01*
X120539800Y-116046811D01*
X120539800Y-116520669D01*
X120668063Y-117165491D01*
X121033325Y-117712144D01*
X121579978Y-118077406D01*
X122224800Y-118205669D01*
X122869622Y-118077406D01*
X123416275Y-117712144D01*
X123494346Y-117595302D01*
X123673070Y-117806245D01*
X124259180Y-118107810D01*
X124335881Y-118123394D01*
X124597160Y-118004697D01*
X124597160Y-116410740D01*
X124851160Y-116410740D01*
X124851160Y-118004697D01*
X125112439Y-118123394D01*
X125189140Y-118107810D01*
X125775250Y-117806245D01*
X126201341Y-117303341D01*
X126402545Y-116675660D01*
X126253154Y-116410740D01*
X124851160Y-116410740D01*
X124597160Y-116410740D01*
X124577160Y-116410740D01*
X124577160Y-116156740D01*
X124597160Y-116156740D01*
X124597160Y-114562783D01*
X124851160Y-114562783D01*
X124851160Y-116156740D01*
X126253154Y-116156740D01*
X126402545Y-115891820D01*
X126201341Y-115264139D01*
X125775250Y-114761235D01*
X125189140Y-114459670D01*
X125112439Y-114444086D01*
X124851160Y-114562783D01*
X124597160Y-114562783D01*
X124335881Y-114444086D01*
X124259180Y-114459670D01*
X123673070Y-114761235D01*
X123494346Y-114972178D01*
X123416275Y-114855336D01*
X122869622Y-114490074D01*
X122224800Y-114361811D01*
X121579978Y-114490074D01*
X121033325Y-114855336D01*
X120668063Y-115401989D01*
X120539800Y-116046811D01*
X93989734Y-116046811D01*
X93695120Y-115605889D01*
X93164687Y-115251466D01*
X92539000Y-115127009D01*
X91913313Y-115251466D01*
X91382880Y-115605889D01*
X91028457Y-116136322D01*
X90904000Y-116762009D01*
X85219695Y-116762009D01*
X77516343Y-109058657D01*
X77067017Y-108758427D01*
X76537000Y-108653000D01*
X68474686Y-108653000D01*
X67161753Y-107340067D01*
X119651925Y-107340067D01*
X119945890Y-108051518D01*
X120489739Y-108596317D01*
X121200676Y-108891523D01*
X121970467Y-108892195D01*
X122681918Y-108598230D01*
X122954303Y-108326319D01*
X126396886Y-108326319D01*
X126532244Y-108624315D01*
X127250620Y-108900926D01*
X128020167Y-108881570D01*
X128641236Y-108624315D01*
X128776594Y-108326319D01*
X127586740Y-107136465D01*
X126396886Y-108326319D01*
X122954303Y-108326319D01*
X123226717Y-108054381D01*
X123521923Y-107343444D01*
X123522553Y-106620740D01*
X125642674Y-106620740D01*
X125662030Y-107390287D01*
X125919285Y-108011356D01*
X126217281Y-108146714D01*
X127407135Y-106956860D01*
X127766345Y-106956860D01*
X128956199Y-108146714D01*
X129254195Y-108011356D01*
X129530806Y-107292980D01*
X129511450Y-106523433D01*
X129254195Y-105902364D01*
X128956199Y-105767006D01*
X127766345Y-106956860D01*
X127407135Y-106956860D01*
X126217281Y-105767006D01*
X125919285Y-105902364D01*
X125642674Y-106620740D01*
X123522553Y-106620740D01*
X123522595Y-106573653D01*
X123228630Y-105862202D01*
X122954309Y-105587401D01*
X126396886Y-105587401D01*
X127586740Y-106777255D01*
X128776594Y-105587401D01*
X128641236Y-105289405D01*
X127922860Y-105012794D01*
X127153313Y-105032150D01*
X126532244Y-105289405D01*
X126396886Y-105587401D01*
X122954309Y-105587401D01*
X122684781Y-105317403D01*
X121973844Y-105022197D01*
X121204053Y-105021525D01*
X120492602Y-105315490D01*
X119947803Y-105859339D01*
X119652597Y-106570276D01*
X119651925Y-107340067D01*
X67161753Y-107340067D01*
X64793481Y-104971795D01*
X74437716Y-104971795D01*
X74686106Y-105572943D01*
X75145637Y-106033278D01*
X75746352Y-106282716D01*
X76396795Y-106283284D01*
X76997943Y-106034894D01*
X77458278Y-105575363D01*
X77707716Y-104974648D01*
X77707726Y-104962388D01*
X88455225Y-104962388D01*
X88696398Y-105546072D01*
X89142579Y-105993032D01*
X89725841Y-106235224D01*
X90357388Y-106235775D01*
X90941072Y-105994602D01*
X91388032Y-105548421D01*
X91630224Y-104965159D01*
X91630775Y-104333612D01*
X91389602Y-103749928D01*
X90943421Y-103302968D01*
X90360159Y-103060776D01*
X89728612Y-103060225D01*
X89144928Y-103301398D01*
X88697968Y-103747579D01*
X88455776Y-104330841D01*
X88455225Y-104962388D01*
X77707726Y-104962388D01*
X77708284Y-104324205D01*
X77459894Y-103723057D01*
X77000363Y-103262722D01*
X76399648Y-103013284D01*
X75749205Y-103012716D01*
X75148057Y-103261106D01*
X74687722Y-103720637D01*
X74438284Y-104321352D01*
X74437716Y-104971795D01*
X64793481Y-104971795D01*
X59713481Y-99891795D01*
X74437716Y-99891795D01*
X74686106Y-100492943D01*
X75145637Y-100953278D01*
X75746352Y-101202716D01*
X76396795Y-101203284D01*
X76997943Y-100954894D01*
X77458278Y-100495363D01*
X77707716Y-99894648D01*
X77707726Y-99882388D01*
X88455225Y-99882388D01*
X88696398Y-100466072D01*
X89142579Y-100913032D01*
X89725841Y-101155224D01*
X90357388Y-101155775D01*
X90941072Y-100914602D01*
X91388032Y-100468421D01*
X91630224Y-99885159D01*
X91630775Y-99253612D01*
X91389602Y-98669928D01*
X90943421Y-98222968D01*
X90360159Y-97980776D01*
X89728612Y-97980225D01*
X89144928Y-98221398D01*
X88697968Y-98667579D01*
X88455776Y-99250841D01*
X88455225Y-99882388D01*
X77707726Y-99882388D01*
X77708284Y-99244205D01*
X77459894Y-98643057D01*
X77000363Y-98182722D01*
X76399648Y-97933284D01*
X75749205Y-97932716D01*
X75148057Y-98181106D01*
X74687722Y-98640637D01*
X74438284Y-99241352D01*
X74437716Y-99891795D01*
X59713481Y-99891795D01*
X53363481Y-93541795D01*
X74437716Y-93541795D01*
X74686106Y-94142943D01*
X75145637Y-94603278D01*
X75746352Y-94852716D01*
X76396795Y-94853284D01*
X76997943Y-94604894D01*
X77458278Y-94145363D01*
X77707716Y-93544648D01*
X77707726Y-93532388D01*
X88455225Y-93532388D01*
X88696398Y-94116072D01*
X89142579Y-94563032D01*
X89725841Y-94805224D01*
X90357388Y-94805775D01*
X90941072Y-94564602D01*
X91165718Y-94340347D01*
X119651925Y-94340347D01*
X119945890Y-95051798D01*
X120489739Y-95596597D01*
X121200676Y-95891803D01*
X121970467Y-95892475D01*
X122681918Y-95598510D01*
X123226717Y-95054661D01*
X123521923Y-94343724D01*
X123521925Y-94340347D01*
X125651405Y-94340347D01*
X125945370Y-95051798D01*
X126489219Y-95596597D01*
X127200156Y-95891803D01*
X127969947Y-95892475D01*
X128681398Y-95598510D01*
X129226197Y-95054661D01*
X129521403Y-94343724D01*
X129522075Y-93573933D01*
X129228110Y-92862482D01*
X128684261Y-92317683D01*
X127973324Y-92022477D01*
X127203533Y-92021805D01*
X126492082Y-92315770D01*
X125947283Y-92859619D01*
X125652077Y-93570556D01*
X125651405Y-94340347D01*
X123521925Y-94340347D01*
X123522595Y-93573933D01*
X123228630Y-92862482D01*
X122684781Y-92317683D01*
X121973844Y-92022477D01*
X121204053Y-92021805D01*
X120492602Y-92315770D01*
X119947803Y-92859619D01*
X119652597Y-93570556D01*
X119651925Y-94340347D01*
X91165718Y-94340347D01*
X91388032Y-94118421D01*
X91630224Y-93535159D01*
X91630775Y-92903612D01*
X91389602Y-92319928D01*
X90943421Y-91872968D01*
X90360159Y-91630776D01*
X89728612Y-91630225D01*
X89144928Y-91871398D01*
X88697968Y-92317579D01*
X88455776Y-92900841D01*
X88455225Y-93532388D01*
X77707726Y-93532388D01*
X77708284Y-92894205D01*
X77459894Y-92293057D01*
X77000363Y-91832722D01*
X76399648Y-91583284D01*
X75749205Y-91582716D01*
X75148057Y-91831106D01*
X74687722Y-92290637D01*
X74438284Y-92891352D01*
X74437716Y-93541795D01*
X53363481Y-93541795D01*
X50465343Y-90643657D01*
X50016017Y-90343427D01*
X49486000Y-90238000D01*
X22627686Y-90238000D01*
X20851481Y-88461795D01*
X74437716Y-88461795D01*
X74686106Y-89062943D01*
X75145637Y-89523278D01*
X75746352Y-89772716D01*
X76396795Y-89773284D01*
X76997943Y-89524894D01*
X77458278Y-89065363D01*
X77707716Y-88464648D01*
X77707726Y-88452388D01*
X88455225Y-88452388D01*
X88696398Y-89036072D01*
X89142579Y-89483032D01*
X89725841Y-89725224D01*
X90357388Y-89725775D01*
X90941072Y-89484602D01*
X91388032Y-89038421D01*
X91630224Y-88455159D01*
X91630775Y-87823612D01*
X91389602Y-87239928D01*
X90943421Y-86792968D01*
X90360159Y-86550776D01*
X89728612Y-86550225D01*
X89144928Y-86791398D01*
X88697968Y-87237579D01*
X88455776Y-87820841D01*
X88455225Y-88452388D01*
X77707726Y-88452388D01*
X77708284Y-87814205D01*
X77459894Y-87213057D01*
X77000363Y-86752722D01*
X76399648Y-86503284D01*
X75749205Y-86502716D01*
X75148057Y-86751106D01*
X74687722Y-87210637D01*
X74438284Y-87811352D01*
X74437716Y-88461795D01*
X20851481Y-88461795D01*
X17216000Y-84826314D01*
X17216000Y-61010031D01*
X18502561Y-61010031D01*
X18887678Y-61942086D01*
X19600163Y-62655816D01*
X20531545Y-63042559D01*
X21540031Y-63043439D01*
X22472086Y-62658322D01*
X23185816Y-61945837D01*
X23572559Y-61014455D01*
X23573439Y-60005969D01*
X23188322Y-59073914D01*
X22475837Y-58360184D01*
X21544455Y-57973441D01*
X20535969Y-57972561D01*
X19603914Y-58357678D01*
X18890184Y-59070163D01*
X18503441Y-60001545D01*
X18502561Y-61010031D01*
X17216000Y-61010031D01*
X17216000Y-45482894D01*
X17363000Y-45702895D01*
X17363000Y-45903000D01*
X17449397Y-46337346D01*
X17673340Y-46672500D01*
X17695434Y-46705566D01*
X34482368Y-63492500D01*
X33570434Y-64404434D01*
X33324397Y-64772654D01*
X33238000Y-65207000D01*
X33238000Y-83241000D01*
X33324397Y-83675346D01*
X33570434Y-84043566D01*
X33938654Y-84289603D01*
X34373000Y-84376000D01*
X34807346Y-84289603D01*
X35175566Y-84043566D01*
X35421603Y-83675346D01*
X35508000Y-83241000D01*
X35508000Y-65677132D01*
X36621132Y-64564000D01*
X49396868Y-64564000D01*
X59351434Y-74518566D01*
X59719654Y-74764603D01*
X60154000Y-74851000D01*
X103588000Y-74851000D01*
X104022346Y-74764603D01*
X104390566Y-74518566D01*
X109773133Y-69136000D01*
X112605000Y-69136000D01*
X113039346Y-69049603D01*
X113407566Y-68803566D01*
X113653603Y-68435346D01*
X113740000Y-68001000D01*
X113653603Y-67566654D01*
X113407566Y-67198434D01*
X113039346Y-66952397D01*
X112605000Y-66866000D01*
X109303000Y-66866000D01*
X108868655Y-66952396D01*
X108500434Y-67198433D01*
X103117868Y-72581000D01*
X96468000Y-72581000D01*
X96468000Y-59746000D01*
X96381603Y-59311654D01*
X96135566Y-58943434D01*
X95767346Y-58697397D01*
X95333000Y-58611000D01*
X94898654Y-58697397D01*
X94530434Y-58943434D01*
X94284397Y-59311654D01*
X94198000Y-59746000D01*
X94198000Y-72581000D01*
X60624132Y-72581000D01*
X53829132Y-65786000D01*
X73668000Y-65786000D01*
X73754397Y-66220345D01*
X74000434Y-66588566D01*
X74368655Y-66834603D01*
X74803000Y-66921000D01*
X75237345Y-66834603D01*
X75605566Y-66588566D01*
X75859566Y-66334566D01*
X76105603Y-65966345D01*
X76180611Y-65589257D01*
X77180868Y-64589000D01*
X88554132Y-64589000D01*
X91182465Y-67217333D01*
X91281883Y-67457943D01*
X91544673Y-67721192D01*
X91888201Y-67863838D01*
X92260167Y-67864162D01*
X92603943Y-67722117D01*
X92867192Y-67459327D01*
X93009838Y-67115799D01*
X93010162Y-66743833D01*
X92868117Y-66400057D01*
X92605327Y-66136808D01*
X92363090Y-66036222D01*
X89490434Y-63163566D01*
X89332675Y-63058155D01*
X89219541Y-62982561D01*
X88900000Y-62919000D01*
X76835000Y-62919000D01*
X76515460Y-62982560D01*
X76244566Y-63163566D01*
X74999743Y-64408389D01*
X74622655Y-64483397D01*
X74254434Y-64729434D01*
X74000434Y-64983434D01*
X73754397Y-65351655D01*
X73668000Y-65786000D01*
X53829132Y-65786000D01*
X52495221Y-64452089D01*
X62346517Y-64452089D01*
X62475725Y-64744859D01*
X63175883Y-65013071D01*
X63925384Y-64992928D01*
X64524275Y-64744859D01*
X64653483Y-64452089D01*
X63500000Y-63298605D01*
X62346517Y-64452089D01*
X52495221Y-64452089D01*
X50838015Y-62794883D01*
X61605929Y-62794883D01*
X61626072Y-63544384D01*
X61874141Y-64143275D01*
X62166911Y-64272483D01*
X63320395Y-63119000D01*
X63679605Y-63119000D01*
X64833089Y-64272483D01*
X65125859Y-64143275D01*
X65375252Y-63492241D01*
X69234994Y-63492241D01*
X69521314Y-64185191D01*
X70051021Y-64715822D01*
X70743469Y-65003352D01*
X71493241Y-65004006D01*
X72186191Y-64717686D01*
X72716822Y-64187979D01*
X73004352Y-63495531D01*
X73005006Y-62745759D01*
X72718686Y-62052809D01*
X72188979Y-61522178D01*
X71496531Y-61234648D01*
X70746759Y-61233994D01*
X70053809Y-61520314D01*
X69523178Y-62050021D01*
X69235648Y-62742469D01*
X69234994Y-63492241D01*
X65375252Y-63492241D01*
X65394071Y-63443117D01*
X65373928Y-62693616D01*
X65125859Y-62094725D01*
X64833089Y-61965517D01*
X63679605Y-63119000D01*
X63320395Y-63119000D01*
X62166911Y-61965517D01*
X61874141Y-62094725D01*
X61605929Y-62794883D01*
X50838015Y-62794883D01*
X50669566Y-62626434D01*
X50396380Y-62443897D01*
X50301346Y-62380397D01*
X49867000Y-62294000D01*
X36494133Y-62294000D01*
X35986044Y-61785911D01*
X62346517Y-61785911D01*
X63500000Y-62939395D01*
X64653483Y-61785911D01*
X64524275Y-61493141D01*
X63824117Y-61224929D01*
X63074616Y-61245072D01*
X62475725Y-61493141D01*
X62346517Y-61785911D01*
X35986044Y-61785911D01*
X19741158Y-45541025D01*
X19777748Y-45486264D01*
X20042394Y-45819212D01*
X20567914Y-46110756D01*
X20673260Y-46135036D01*
X20911000Y-46014378D01*
X20911000Y-43871000D01*
X20891000Y-43871000D01*
X20891000Y-43617000D01*
X20911000Y-43617000D01*
X20911000Y-41473622D01*
X20673260Y-41352964D01*
X20567914Y-41377244D01*
X20042394Y-41668788D01*
X19777748Y-42001736D01*
X19583409Y-41710887D01*
X19085419Y-41378141D01*
X18498000Y-41261296D01*
X18176425Y-41325261D01*
X18436686Y-41065000D01*
X22193000Y-41065000D01*
X22193000Y-41869320D01*
X22033606Y-41668788D01*
X21508086Y-41377244D01*
X21402740Y-41352964D01*
X21165000Y-41473622D01*
X21165000Y-43617000D01*
X21185000Y-43617000D01*
X21185000Y-43871000D01*
X21165000Y-43871000D01*
X21165000Y-46014378D01*
X21402740Y-46135036D01*
X21508086Y-46110756D01*
X22033606Y-45819212D01*
X22298252Y-45486264D01*
X22492591Y-45777113D01*
X22990581Y-46109859D01*
X23578000Y-46226704D01*
X24165419Y-46109859D01*
X24663409Y-45777113D01*
X24996155Y-45279123D01*
X25113000Y-44691704D01*
X25113000Y-44496567D01*
X25907626Y-44496567D01*
X26235622Y-45290377D01*
X26842428Y-45898244D01*
X27635664Y-46227624D01*
X28494567Y-46228374D01*
X29288377Y-45900378D01*
X29896244Y-45293572D01*
X30225624Y-44500336D01*
X30226374Y-43641433D01*
X29898378Y-42847623D01*
X29291572Y-42239756D01*
X28498336Y-41910376D01*
X27639433Y-41909626D01*
X26845623Y-42237622D01*
X26237756Y-42844428D01*
X25908376Y-43637664D01*
X25907626Y-44496567D01*
X25113000Y-44496567D01*
X25113000Y-42796296D01*
X24996155Y-42208877D01*
X24963000Y-42159257D01*
X24963000Y-32187000D01*
X24857573Y-31656983D01*
X24557343Y-31207657D01*
X24012686Y-30663000D01*
X24557343Y-30118343D01*
X24670613Y-29948822D01*
X24857573Y-29669017D01*
X24963000Y-29139000D01*
X24963000Y-26416000D01*
X26678000Y-26416000D01*
X26678000Y-26797000D01*
X26764397Y-27231346D01*
X26978000Y-27551025D01*
X26978000Y-38735000D01*
X27041561Y-39054541D01*
X27149698Y-39216379D01*
X27222566Y-39325434D01*
X43605566Y-55708434D01*
X43876460Y-55889440D01*
X44196000Y-55953000D01*
X59055000Y-55953000D01*
X59374541Y-55889439D01*
X59645434Y-55708434D01*
X63718868Y-51635000D01*
X68199000Y-51635000D01*
X68518541Y-51571439D01*
X68789434Y-51390434D01*
X70512445Y-49667423D01*
X70743469Y-49763352D01*
X71493241Y-49764006D01*
X72186191Y-49477686D01*
X72716822Y-48947979D01*
X73004352Y-48255531D01*
X73005006Y-47505759D01*
X72718686Y-46812809D01*
X72188979Y-46282178D01*
X71496531Y-45994648D01*
X70746759Y-45993994D01*
X70053809Y-46280314D01*
X69523178Y-46810021D01*
X69235648Y-47502469D01*
X69234994Y-48252241D01*
X69331742Y-48486390D01*
X67853132Y-49965000D01*
X63373000Y-49965000D01*
X63053459Y-50028561D01*
X62849557Y-50164804D01*
X62782566Y-50209566D01*
X58709132Y-54283000D01*
X44541868Y-54283000D01*
X42568064Y-52309196D01*
X49863409Y-52309196D01*
X49948467Y-52564539D01*
X50517965Y-52772516D01*
X51123700Y-52746723D01*
X51563533Y-52564539D01*
X51648591Y-52309196D01*
X51608591Y-52269196D01*
X54816409Y-52269196D01*
X54901467Y-52524539D01*
X55470965Y-52732516D01*
X56076700Y-52706723D01*
X56516533Y-52524539D01*
X56601591Y-52269196D01*
X55709000Y-51376605D01*
X54816409Y-52269196D01*
X51608591Y-52269196D01*
X50756000Y-51416605D01*
X49863409Y-52309196D01*
X42568064Y-52309196D01*
X41257833Y-50998965D01*
X49220484Y-50998965D01*
X49246277Y-51604700D01*
X49428461Y-52044533D01*
X49683804Y-52129591D01*
X50576395Y-51237000D01*
X50935605Y-51237000D01*
X51828196Y-52129591D01*
X52083539Y-52044533D01*
X52291516Y-51475035D01*
X52269542Y-50958965D01*
X54173484Y-50958965D01*
X54199277Y-51564700D01*
X54381461Y-52004533D01*
X54636804Y-52089591D01*
X55529395Y-51197000D01*
X55888605Y-51197000D01*
X56781196Y-52089591D01*
X57036539Y-52004533D01*
X57244516Y-51435035D01*
X57218723Y-50829300D01*
X57036539Y-50389467D01*
X56781196Y-50304409D01*
X55888605Y-51197000D01*
X55529395Y-51197000D01*
X54636804Y-50304409D01*
X54381461Y-50389467D01*
X54173484Y-50958965D01*
X52269542Y-50958965D01*
X52265723Y-50869300D01*
X52083539Y-50429467D01*
X51828196Y-50344409D01*
X50935605Y-51237000D01*
X50576395Y-51237000D01*
X49683804Y-50344409D01*
X49428461Y-50429467D01*
X49220484Y-50998965D01*
X41257833Y-50998965D01*
X28648000Y-38389132D01*
X28648000Y-37561030D01*
X31231000Y-37561030D01*
X31231000Y-38130970D01*
X31347845Y-38718389D01*
X31680591Y-39216379D01*
X32178581Y-39549125D01*
X32766000Y-39665970D01*
X33353419Y-39549125D01*
X33851409Y-39216379D01*
X34036000Y-38940119D01*
X34220591Y-39216379D01*
X34718581Y-39549125D01*
X35306000Y-39665970D01*
X35893419Y-39549125D01*
X36391409Y-39216379D01*
X36576000Y-38940119D01*
X36760591Y-39216379D01*
X37258581Y-39549125D01*
X37846000Y-39665970D01*
X38433419Y-39549125D01*
X38931409Y-39216379D01*
X39116000Y-38940119D01*
X39300591Y-39216379D01*
X39798581Y-39549125D01*
X40386000Y-39665970D01*
X40973419Y-39549125D01*
X41471409Y-39216379D01*
X41656000Y-38940119D01*
X41840591Y-39216379D01*
X42338581Y-39549125D01*
X42926000Y-39665970D01*
X43513419Y-39549125D01*
X44011409Y-39216379D01*
X44196000Y-38940119D01*
X44380591Y-39216379D01*
X44878581Y-39549125D01*
X45466000Y-39665970D01*
X46053419Y-39549125D01*
X46551409Y-39216379D01*
X46736000Y-38940119D01*
X46920591Y-39216379D01*
X47418581Y-39549125D01*
X48006000Y-39665970D01*
X48593419Y-39549125D01*
X49091409Y-39216379D01*
X49278801Y-38935926D01*
X49541260Y-39269647D01*
X50066877Y-39564806D01*
X50181260Y-39587036D01*
X50419000Y-39466378D01*
X50419000Y-37973000D01*
X50399000Y-37973000D01*
X50399000Y-37719000D01*
X50419000Y-37719000D01*
X50419000Y-37699000D01*
X50673000Y-37699000D01*
X50673000Y-37719000D01*
X50693000Y-37719000D01*
X50693000Y-37973000D01*
X50673000Y-37973000D01*
X50673000Y-39466378D01*
X50910740Y-39587036D01*
X51025123Y-39564806D01*
X51550740Y-39269647D01*
X51813199Y-38935926D01*
X52000591Y-39216379D01*
X52201000Y-39350288D01*
X52201000Y-41007481D01*
X51055234Y-42153247D01*
X50468069Y-42152735D01*
X49903689Y-42385932D01*
X49471509Y-42817357D01*
X49237327Y-43381330D01*
X49236795Y-43991991D01*
X49469992Y-44556371D01*
X49887060Y-44974169D01*
X49887060Y-47451041D01*
X49464769Y-47872596D01*
X49232265Y-48432528D01*
X49231736Y-49038812D01*
X49463262Y-49599149D01*
X49891596Y-50028231D01*
X49906800Y-50034544D01*
X49863409Y-50164804D01*
X50756000Y-51057395D01*
X51648591Y-50164804D01*
X51605359Y-50035023D01*
X51618149Y-50029738D01*
X52047231Y-49601404D01*
X52279735Y-49041472D01*
X52280264Y-48435188D01*
X52048738Y-47874851D01*
X51657060Y-47482489D01*
X51657060Y-44973468D01*
X52072611Y-44558643D01*
X52306793Y-43994670D01*
X52307307Y-43404332D01*
X53711787Y-41999852D01*
X53711790Y-41999850D01*
X53903633Y-41712735D01*
X53971000Y-41374060D01*
X53971000Y-39350288D01*
X54171409Y-39216379D01*
X54356000Y-38940119D01*
X54540591Y-39216379D01*
X54741000Y-39350288D01*
X54741000Y-42430423D01*
X54353389Y-42817357D01*
X54119207Y-43381330D01*
X54118675Y-43991991D01*
X54351872Y-44556371D01*
X54768940Y-44974169D01*
X54768940Y-47482037D01*
X54417769Y-47832596D01*
X54185265Y-48392528D01*
X54184736Y-48998812D01*
X54416262Y-49559149D01*
X54844596Y-49988231D01*
X54859800Y-49994544D01*
X54816409Y-50124804D01*
X55709000Y-51017395D01*
X56601591Y-50124804D01*
X56558359Y-49995023D01*
X56571149Y-49989738D01*
X57000231Y-49561404D01*
X57232735Y-49001472D01*
X57233264Y-48395188D01*
X57001738Y-47834851D01*
X56573404Y-47405769D01*
X56538940Y-47391458D01*
X56538940Y-46672500D01*
X61646060Y-46672500D01*
X61646060Y-49085500D01*
X61690338Y-49320817D01*
X61829410Y-49536941D01*
X62041610Y-49681931D01*
X62293500Y-49732940D01*
X64706500Y-49732940D01*
X64941817Y-49688662D01*
X65157941Y-49549590D01*
X65302931Y-49337390D01*
X65353940Y-49085500D01*
X65353940Y-46672500D01*
X65309662Y-46437183D01*
X65170590Y-46221059D01*
X64958390Y-46076069D01*
X64706500Y-46025060D01*
X62293500Y-46025060D01*
X62058183Y-46069338D01*
X61842059Y-46208410D01*
X61697069Y-46420610D01*
X61646060Y-46672500D01*
X56538940Y-46672500D01*
X56538940Y-44973468D01*
X56954491Y-44558643D01*
X57188673Y-43994670D01*
X57189205Y-43384009D01*
X56956008Y-42819629D01*
X56524583Y-42387449D01*
X56511000Y-42381809D01*
X56511000Y-39350288D01*
X56711409Y-39216379D01*
X56896000Y-38940119D01*
X57080591Y-39216379D01*
X57578581Y-39549125D01*
X58166000Y-39665970D01*
X58753419Y-39549125D01*
X59251409Y-39216379D01*
X59436000Y-38940119D01*
X59620591Y-39216379D01*
X60118581Y-39549125D01*
X60706000Y-39665970D01*
X61293419Y-39549125D01*
X61791409Y-39216379D01*
X61976000Y-38940119D01*
X62160591Y-39216379D01*
X62658581Y-39549125D01*
X63246000Y-39665970D01*
X63833419Y-39549125D01*
X64331409Y-39216379D01*
X64516000Y-38940119D01*
X64700591Y-39216379D01*
X65198581Y-39549125D01*
X65786000Y-39665970D01*
X66373419Y-39549125D01*
X66871409Y-39216379D01*
X67204155Y-38718389D01*
X67321000Y-38130970D01*
X67321000Y-37561030D01*
X67204155Y-36973611D01*
X66871409Y-36475621D01*
X66719322Y-36374000D01*
X86330420Y-36374000D01*
X117054000Y-67097579D01*
X117054000Y-73234805D01*
X116890397Y-73479654D01*
X116804000Y-73914000D01*
X116804000Y-74224000D01*
X116890397Y-74658346D01*
X117136434Y-75026566D01*
X117504654Y-75272603D01*
X117939000Y-75359000D01*
X118373346Y-75272603D01*
X118741566Y-75026566D01*
X118987603Y-74658346D01*
X119074000Y-74224000D01*
X119074000Y-73914000D01*
X118987603Y-73479654D01*
X118824000Y-73234805D01*
X118824000Y-66731005D01*
X118824001Y-66731000D01*
X118756633Y-66392325D01*
X118723007Y-66342000D01*
X118564790Y-66105210D01*
X118564787Y-66105208D01*
X96956147Y-44496567D01*
X112902626Y-44496567D01*
X113230622Y-45290377D01*
X113837428Y-45898244D01*
X114630664Y-46227624D01*
X115489567Y-46228374D01*
X116283377Y-45900378D01*
X116891244Y-45293572D01*
X117220624Y-44500336D01*
X117221374Y-43641433D01*
X116893378Y-42847623D01*
X116286572Y-42239756D01*
X115493336Y-41910376D01*
X114634433Y-41909626D01*
X113840623Y-42237622D01*
X113232756Y-42844428D01*
X112903376Y-43637664D01*
X112902626Y-44496567D01*
X96956147Y-44496567D01*
X88245627Y-35786047D01*
X88267322Y-35800543D01*
X88893009Y-35925000D01*
X89160991Y-35925000D01*
X89786678Y-35800543D01*
X90317111Y-35446120D01*
X90671534Y-34915687D01*
X90795991Y-34290000D01*
X90671534Y-33664313D01*
X90317111Y-33133880D01*
X89786678Y-32779457D01*
X89160991Y-32655000D01*
X88893009Y-32655000D01*
X88267322Y-32779457D01*
X87736889Y-33133880D01*
X87382466Y-33664313D01*
X87258009Y-34290000D01*
X87382466Y-34915687D01*
X87396962Y-34937382D01*
X87322790Y-34863210D01*
X87167730Y-34759603D01*
X87035675Y-34671367D01*
X86979484Y-34660190D01*
X86697000Y-34603999D01*
X86696995Y-34604000D01*
X44533005Y-34604000D01*
X44533000Y-34603999D01*
X44194325Y-34671367D01*
X43907210Y-34863210D01*
X43907208Y-34863213D01*
X42699296Y-36071124D01*
X42338581Y-36142875D01*
X41840591Y-36475621D01*
X41656000Y-36751881D01*
X41471409Y-36475621D01*
X40973419Y-36142875D01*
X40386000Y-36026030D01*
X39798581Y-36142875D01*
X39300591Y-36475621D01*
X39116000Y-36751881D01*
X38931409Y-36475621D01*
X38433419Y-36142875D01*
X37846000Y-36026030D01*
X37258581Y-36142875D01*
X36760591Y-36475621D01*
X36576000Y-36751881D01*
X36391409Y-36475621D01*
X35893419Y-36142875D01*
X35306000Y-36026030D01*
X34718581Y-36142875D01*
X34220591Y-36475621D01*
X34036000Y-36751881D01*
X33851409Y-36475621D01*
X33353419Y-36142875D01*
X32766000Y-36026030D01*
X32178581Y-36142875D01*
X31680591Y-36475621D01*
X31347845Y-36973611D01*
X31231000Y-37561030D01*
X28648000Y-37561030D01*
X28648000Y-32132274D01*
X89957387Y-32132274D01*
X90187933Y-32726759D01*
X90628429Y-33187766D01*
X91186566Y-33440124D01*
X91440000Y-33320777D01*
X91440000Y-31877000D01*
X90091797Y-31877000D01*
X89957387Y-32132274D01*
X28648000Y-32132274D01*
X28648000Y-27551025D01*
X28861603Y-27231346D01*
X28948000Y-26797000D01*
X28948000Y-26416000D01*
X28861603Y-25981654D01*
X28615566Y-25613434D01*
X28247346Y-25367397D01*
X27813000Y-25281000D01*
X27378654Y-25367397D01*
X27010434Y-25613434D01*
X26764397Y-25981654D01*
X26678000Y-26416000D01*
X24963000Y-26416000D01*
X24963000Y-22904000D01*
X34350023Y-22904000D01*
X34128210Y-23052210D01*
X34128208Y-23052213D01*
X32140210Y-25040210D01*
X31948367Y-25327325D01*
X31948367Y-25327326D01*
X31880999Y-25666000D01*
X31881000Y-25666005D01*
X31881000Y-28721712D01*
X31680591Y-28855621D01*
X31347845Y-29353611D01*
X31231000Y-29941030D01*
X31231000Y-30510970D01*
X31347845Y-31098389D01*
X31680591Y-31596379D01*
X32178581Y-31929125D01*
X32766000Y-32045970D01*
X33353419Y-31929125D01*
X33851409Y-31596379D01*
X34036000Y-31320119D01*
X34220591Y-31596379D01*
X34718581Y-31929125D01*
X35306000Y-32045970D01*
X35893419Y-31929125D01*
X36391409Y-31596379D01*
X36576000Y-31320119D01*
X36760591Y-31596379D01*
X37258581Y-31929125D01*
X37846000Y-32045970D01*
X38433419Y-31929125D01*
X38931409Y-31596379D01*
X39116000Y-31320119D01*
X39300591Y-31596379D01*
X39798581Y-31929125D01*
X40386000Y-32045970D01*
X40973419Y-31929125D01*
X41471409Y-31596379D01*
X41656000Y-31320119D01*
X41840591Y-31596379D01*
X42338581Y-31929125D01*
X42926000Y-32045970D01*
X43513419Y-31929125D01*
X44011409Y-31596379D01*
X44196000Y-31320119D01*
X44380591Y-31596379D01*
X44878581Y-31929125D01*
X45466000Y-32045970D01*
X46053419Y-31929125D01*
X46551409Y-31596379D01*
X46736000Y-31320119D01*
X46920591Y-31596379D01*
X47418581Y-31929125D01*
X48006000Y-32045970D01*
X48593419Y-31929125D01*
X49091409Y-31596379D01*
X49276000Y-31320119D01*
X49460591Y-31596379D01*
X49958581Y-31929125D01*
X50546000Y-32045970D01*
X51133419Y-31929125D01*
X51631409Y-31596379D01*
X51816000Y-31320119D01*
X52000591Y-31596379D01*
X52498581Y-31929125D01*
X53086000Y-32045970D01*
X53673419Y-31929125D01*
X54171409Y-31596379D01*
X54358801Y-31315926D01*
X54621260Y-31649647D01*
X55146877Y-31944806D01*
X55261260Y-31967036D01*
X55499000Y-31846378D01*
X55499000Y-30353000D01*
X55479000Y-30353000D01*
X55479000Y-30099000D01*
X55499000Y-30099000D01*
X55499000Y-28605622D01*
X55753000Y-28605622D01*
X55753000Y-30099000D01*
X55773000Y-30099000D01*
X55773000Y-30353000D01*
X55753000Y-30353000D01*
X55753000Y-31846378D01*
X55990740Y-31967036D01*
X56105123Y-31944806D01*
X56630740Y-31649647D01*
X56893199Y-31315926D01*
X57080591Y-31596379D01*
X57578581Y-31929125D01*
X58166000Y-32045970D01*
X58753419Y-31929125D01*
X59251409Y-31596379D01*
X59436000Y-31320119D01*
X59620591Y-31596379D01*
X60118581Y-31929125D01*
X60706000Y-32045970D01*
X61293419Y-31929125D01*
X61791409Y-31596379D01*
X61976000Y-31320119D01*
X62160591Y-31596379D01*
X62658581Y-31929125D01*
X63246000Y-32045970D01*
X63833419Y-31929125D01*
X64331409Y-31596379D01*
X64516000Y-31320119D01*
X64700591Y-31596379D01*
X65198581Y-31929125D01*
X65786000Y-32045970D01*
X66373419Y-31929125D01*
X66871409Y-31596379D01*
X67024189Y-31367726D01*
X89957387Y-31367726D01*
X90091797Y-31623000D01*
X91440000Y-31623000D01*
X91440000Y-30179223D01*
X91186566Y-30059876D01*
X90628429Y-30312234D01*
X90187933Y-30773241D01*
X89957387Y-31367726D01*
X67024189Y-31367726D01*
X67204155Y-31098389D01*
X67321000Y-30510970D01*
X67321000Y-29941030D01*
X67204155Y-29353611D01*
X66871409Y-28855621D01*
X66373419Y-28522875D01*
X65786000Y-28406030D01*
X65198581Y-28522875D01*
X64700591Y-28855621D01*
X64516000Y-29131881D01*
X64331409Y-28855621D01*
X63833419Y-28522875D01*
X63246000Y-28406030D01*
X62658581Y-28522875D01*
X62160591Y-28855621D01*
X61976000Y-29131881D01*
X61791409Y-28855621D01*
X61293419Y-28522875D01*
X60706000Y-28406030D01*
X60118581Y-28522875D01*
X59620591Y-28855621D01*
X59436000Y-29131881D01*
X59251409Y-28855621D01*
X58753419Y-28522875D01*
X58166000Y-28406030D01*
X57578581Y-28522875D01*
X57080591Y-28855621D01*
X56893199Y-29136074D01*
X56630740Y-28802353D01*
X56105123Y-28507194D01*
X55990740Y-28484964D01*
X55753000Y-28605622D01*
X55499000Y-28605622D01*
X55261260Y-28484964D01*
X55146877Y-28507194D01*
X54621260Y-28802353D01*
X54358801Y-29136074D01*
X54171409Y-28855621D01*
X53673419Y-28522875D01*
X53086000Y-28406030D01*
X52498581Y-28522875D01*
X52000591Y-28855621D01*
X51816000Y-29131881D01*
X51631409Y-28855621D01*
X51133419Y-28522875D01*
X50546000Y-28406030D01*
X49958581Y-28522875D01*
X49460591Y-28855621D01*
X49276000Y-29131881D01*
X49091409Y-28855621D01*
X48593419Y-28522875D01*
X48006000Y-28406030D01*
X47418581Y-28522875D01*
X46920591Y-28855621D01*
X46736000Y-29131881D01*
X46551409Y-28855621D01*
X46053419Y-28522875D01*
X45466000Y-28406030D01*
X44878581Y-28522875D01*
X44380591Y-28855621D01*
X44196000Y-29131881D01*
X44011409Y-28855621D01*
X43761000Y-28688303D01*
X43761000Y-26126868D01*
X46954868Y-22933000D01*
X51816000Y-22933000D01*
X52135541Y-22869439D01*
X52406434Y-22688434D01*
X55073434Y-20021434D01*
X55254440Y-19750540D01*
X55318000Y-19431000D01*
X55318000Y-18542000D01*
X58940000Y-18542000D01*
X59045427Y-19072017D01*
X59345657Y-19521343D01*
X59794983Y-19821573D01*
X60325000Y-19927000D01*
X86675314Y-19927000D01*
X92722000Y-25973686D01*
X92722000Y-30538741D01*
X92505571Y-30312234D01*
X91947434Y-30059876D01*
X91694000Y-30179223D01*
X91694000Y-31623000D01*
X91714000Y-31623000D01*
X91714000Y-31877000D01*
X91694000Y-31877000D01*
X91694000Y-33320777D01*
X91947434Y-33440124D01*
X92505571Y-33187766D01*
X92722000Y-32961259D01*
X92722000Y-33275892D01*
X92462466Y-33664313D01*
X92338009Y-34290000D01*
X92462466Y-34915687D01*
X92816889Y-35446120D01*
X93347322Y-35800543D01*
X93973009Y-35925000D01*
X94240991Y-35925000D01*
X94866678Y-35800543D01*
X95397111Y-35446120D01*
X95751534Y-34915687D01*
X95875991Y-34290000D01*
X95751534Y-33664313D01*
X95492000Y-33275892D01*
X95492000Y-25400000D01*
X95477544Y-25327325D01*
X95386574Y-24869984D01*
X95086343Y-24420657D01*
X90613360Y-19947674D01*
X94611570Y-19947674D01*
X95163800Y-21284172D01*
X96185449Y-22307606D01*
X97520982Y-22862168D01*
X98967074Y-22863430D01*
X100303572Y-22311200D01*
X100503722Y-22111399D01*
X103623899Y-22111399D01*
X103887481Y-22749315D01*
X104375118Y-23237804D01*
X105012573Y-23502499D01*
X105702799Y-23503101D01*
X106340715Y-23239519D01*
X106756497Y-22824462D01*
X107150000Y-23218653D01*
X107150000Y-30244644D01*
X107075802Y-30318842D01*
X107007654Y-30332397D01*
X106639434Y-30578434D01*
X106595434Y-30622434D01*
X106349397Y-30990655D01*
X106263000Y-31425000D01*
X106349397Y-31859345D01*
X106595434Y-32227566D01*
X106963655Y-32473603D01*
X107398000Y-32560000D01*
X107832345Y-32473603D01*
X108200566Y-32227566D01*
X108244566Y-32183566D01*
X108490603Y-31815346D01*
X108504158Y-31747198D01*
X108874178Y-31377178D01*
X109093118Y-31049510D01*
X109170000Y-30663000D01*
X109170000Y-28948662D01*
X109503655Y-29171603D01*
X109938000Y-29258000D01*
X110372345Y-29171603D01*
X110740566Y-28925566D01*
X110784566Y-28881566D01*
X111030603Y-28513346D01*
X111044158Y-28445198D01*
X111541178Y-27948178D01*
X111760118Y-27620511D01*
X111837000Y-27234000D01*
X111837000Y-23204296D01*
X112217497Y-22824462D01*
X112630118Y-23237804D01*
X113267573Y-23502499D01*
X113957799Y-23503101D01*
X114595715Y-23239519D01*
X115068810Y-22767249D01*
X115183332Y-22813063D01*
X116228595Y-21767800D01*
X116214453Y-21753658D01*
X116394058Y-21574053D01*
X116408200Y-21588195D01*
X116422343Y-21574053D01*
X116601948Y-21753658D01*
X116587805Y-21767800D01*
X116601948Y-21781943D01*
X116422343Y-21961548D01*
X116408200Y-21947405D01*
X115362937Y-22992668D01*
X115473841Y-23269899D01*
X116119793Y-23513123D01*
X116809653Y-23490636D01*
X117310000Y-23283385D01*
X117310000Y-36467644D01*
X117108803Y-36668841D01*
X117040655Y-36682396D01*
X116672434Y-36928434D01*
X116374434Y-37226434D01*
X116128397Y-37594655D01*
X116042000Y-38029000D01*
X116128397Y-38463345D01*
X116374434Y-38831566D01*
X116742655Y-39077603D01*
X117177000Y-39164000D01*
X117611345Y-39077603D01*
X117979566Y-38831566D01*
X118277566Y-38533566D01*
X118523604Y-38165345D01*
X118537159Y-38097197D01*
X119034178Y-37600178D01*
X119253118Y-37272511D01*
X119330000Y-36886000D01*
X119330000Y-34706380D01*
X119409654Y-34759603D01*
X119844000Y-34846000D01*
X120278346Y-34759603D01*
X120646566Y-34513566D01*
X120892603Y-34145346D01*
X120979000Y-33711000D01*
X120979000Y-33274000D01*
X120892603Y-32839654D01*
X120854000Y-32781881D01*
X120854000Y-21574879D01*
X121585449Y-22307606D01*
X122920982Y-22862168D01*
X124367074Y-22863430D01*
X125703572Y-22311200D01*
X126727006Y-21289551D01*
X127281568Y-19954018D01*
X127282830Y-18507926D01*
X126730600Y-17171428D01*
X125708951Y-16147994D01*
X124373418Y-15593432D01*
X122927326Y-15592170D01*
X121590828Y-16144400D01*
X120579593Y-17153872D01*
X120558178Y-17121822D01*
X118653178Y-15216822D01*
X118325510Y-14997882D01*
X117939000Y-14921000D01*
X111208005Y-14921000D01*
X111208000Y-14920999D01*
X110821490Y-14997882D01*
X110493822Y-15216822D01*
X108842822Y-16867822D01*
X108623882Y-17195490D01*
X108547000Y-17582000D01*
X108547000Y-17777728D01*
X108152903Y-18171138D01*
X107740282Y-17757796D01*
X107102827Y-17493101D01*
X106412601Y-17492499D01*
X105774685Y-17756081D01*
X105286196Y-18243718D01*
X105021501Y-18881173D01*
X105020899Y-19571399D01*
X105211493Y-20032670D01*
X105015601Y-20032499D01*
X104377685Y-20296081D01*
X103889196Y-20783718D01*
X103624501Y-21421173D01*
X103623899Y-22111399D01*
X100503722Y-22111399D01*
X101327006Y-21289551D01*
X101881568Y-19954018D01*
X101882830Y-18507926D01*
X101330600Y-17171428D01*
X100308951Y-16147994D01*
X98973418Y-15593432D01*
X97527326Y-15592170D01*
X96190828Y-16144400D01*
X95167394Y-17166049D01*
X94612832Y-18501582D01*
X94611570Y-19947674D01*
X90613360Y-19947674D01*
X88228343Y-17562657D01*
X88123344Y-17492499D01*
X87779017Y-17262427D01*
X87249000Y-17157000D01*
X60325000Y-17157000D01*
X59794983Y-17262427D01*
X59345657Y-17562657D01*
X59045427Y-18011983D01*
X58940000Y-18542000D01*
X55318000Y-18542000D01*
X55318000Y-16407903D01*
X55451001Y-16319034D01*
X55468673Y-16361698D01*
X55647301Y-16540327D01*
X55880690Y-16637000D01*
X56737250Y-16637000D01*
X56896000Y-16478250D01*
X56896000Y-15113000D01*
X57150000Y-15113000D01*
X57150000Y-16478250D01*
X57308750Y-16637000D01*
X58165310Y-16637000D01*
X58398699Y-16540327D01*
X58577327Y-16361698D01*
X58674000Y-16128309D01*
X58674000Y-15271750D01*
X58515250Y-15113000D01*
X57150000Y-15113000D01*
X56896000Y-15113000D01*
X56876000Y-15113000D01*
X56876000Y-14859000D01*
X56896000Y-14859000D01*
X56896000Y-13493750D01*
X57150000Y-13493750D01*
X57150000Y-14859000D01*
X58515250Y-14859000D01*
X58674000Y-14700250D01*
X58674000Y-13843691D01*
X58577327Y-13610302D01*
X58398699Y-13431673D01*
X58165310Y-13335000D01*
X57308750Y-13335000D01*
X57150000Y-13493750D01*
X56896000Y-13493750D01*
X56737250Y-13335000D01*
X55880690Y-13335000D01*
X55647301Y-13431673D01*
X55468673Y-13610302D01*
X55451001Y-13652966D01*
X55114810Y-13428330D01*
X54483000Y-13302655D01*
X53851190Y-13428330D01*
X53315567Y-13786222D01*
X52957675Y-14321845D01*
X52832000Y-14953655D01*
X52832000Y-15018345D01*
X52957675Y-15650155D01*
X53315567Y-16185778D01*
X53648000Y-16407903D01*
X53648000Y-19085132D01*
X51470132Y-21263000D01*
X46609000Y-21263000D01*
X46289460Y-21326560D01*
X46018566Y-21507566D01*
X42335566Y-25190566D01*
X42154561Y-25461459D01*
X42091000Y-25781000D01*
X42091000Y-28688303D01*
X41840591Y-28855621D01*
X41656000Y-29131881D01*
X41471409Y-28855621D01*
X40973419Y-28522875D01*
X40386000Y-28406030D01*
X39798581Y-28522875D01*
X39300591Y-28855621D01*
X39116000Y-29131881D01*
X38931409Y-28855621D01*
X38433419Y-28522875D01*
X37846000Y-28406030D01*
X37258581Y-28522875D01*
X36760591Y-28855621D01*
X36576000Y-29131881D01*
X36391409Y-28855621D01*
X36191000Y-28721712D01*
X36191000Y-26794580D01*
X36390579Y-26595000D01*
X39325995Y-26595000D01*
X39326000Y-26595001D01*
X39608484Y-26538810D01*
X39664675Y-26527633D01*
X39951790Y-26335790D01*
X43551787Y-22735792D01*
X43551790Y-22735790D01*
X43743633Y-22448675D01*
X43771694Y-22307606D01*
X43811001Y-22110000D01*
X43811000Y-22109995D01*
X43811000Y-16406710D01*
X43859995Y-16386466D01*
X44196179Y-16050868D01*
X44529563Y-16384834D01*
X45136155Y-16636713D01*
X45792963Y-16637286D01*
X46399995Y-16386466D01*
X46864834Y-15922437D01*
X47116713Y-15315845D01*
X47117286Y-14659037D01*
X46866466Y-14052005D01*
X46402437Y-13587166D01*
X45795845Y-13335287D01*
X45139037Y-13334714D01*
X44532005Y-13585534D01*
X44195821Y-13921132D01*
X43862437Y-13587166D01*
X43255845Y-13335287D01*
X42599037Y-13334714D01*
X41992005Y-13585534D01*
X41655821Y-13921132D01*
X41322437Y-13587166D01*
X40715845Y-13335287D01*
X40059037Y-13334714D01*
X39452005Y-13585534D01*
X39028435Y-14008366D01*
X39010107Y-14001498D01*
X38025605Y-14986000D01*
X39010107Y-15970502D01*
X39028917Y-15963453D01*
X39449563Y-16384834D01*
X39501000Y-16406193D01*
X39501000Y-21616421D01*
X38324420Y-22793000D01*
X35407358Y-22793000D01*
X35848343Y-22498343D01*
X38825343Y-19521343D01*
X39125574Y-19072016D01*
X39231000Y-18542000D01*
X39125574Y-18011984D01*
X38825343Y-17562657D01*
X38376016Y-17262426D01*
X37846000Y-17157000D01*
X37315984Y-17262426D01*
X36866657Y-17562657D01*
X34295314Y-20134000D01*
X24528247Y-20134000D01*
X24514437Y-20120166D01*
X23907845Y-19868287D01*
X23251037Y-19867714D01*
X22644005Y-20118534D01*
X22179166Y-20582563D01*
X21927287Y-21189155D01*
X21926714Y-21845963D01*
X22177534Y-22452995D01*
X22193000Y-22468488D01*
X22193000Y-28565314D01*
X21730598Y-29027716D01*
X21129057Y-29276106D01*
X20668722Y-29735637D01*
X20419284Y-30336352D01*
X20418716Y-30986795D01*
X20667106Y-31587943D01*
X21126637Y-32048278D01*
X21727352Y-32297716D01*
X21730032Y-32297718D01*
X22193000Y-32760686D01*
X22193000Y-38295000D01*
X17863000Y-38295000D01*
X17332983Y-38400427D01*
X16883657Y-38700657D01*
X14851657Y-40732657D01*
X14551427Y-41181983D01*
X14446000Y-41712000D01*
X12775000Y-41712000D01*
X12775000Y-31815532D01*
X16081073Y-31815532D01*
X16179736Y-32082387D01*
X16789461Y-32308908D01*
X17439460Y-32284856D01*
X17928264Y-32082387D01*
X18026927Y-31815532D01*
X17054000Y-30842605D01*
X16081073Y-31815532D01*
X12775000Y-31815532D01*
X12775000Y-30398461D01*
X15408092Y-30398461D01*
X15432144Y-31048460D01*
X15634613Y-31537264D01*
X15901468Y-31635927D01*
X16874395Y-30663000D01*
X17233605Y-30663000D01*
X18206532Y-31635927D01*
X18473387Y-31537264D01*
X18699908Y-30927539D01*
X18675856Y-30277540D01*
X18473387Y-29788736D01*
X18206532Y-29690073D01*
X17233605Y-30663000D01*
X16874395Y-30663000D01*
X15901468Y-29690073D01*
X15634613Y-29788736D01*
X15408092Y-30398461D01*
X12775000Y-30398461D01*
X12775000Y-29510468D01*
X16081073Y-29510468D01*
X17054000Y-30483395D01*
X18026927Y-29510468D01*
X17928264Y-29243613D01*
X17318539Y-29017092D01*
X16668540Y-29041144D01*
X16179736Y-29243613D01*
X16081073Y-29510468D01*
X12775000Y-29510468D01*
X12775000Y-21845963D01*
X14306714Y-21845963D01*
X14557534Y-22452995D01*
X15021563Y-22917834D01*
X15628155Y-23169713D01*
X16284963Y-23170286D01*
X16891995Y-22919466D01*
X17356834Y-22455437D01*
X17608713Y-21848845D01*
X17609286Y-21192037D01*
X17358466Y-20585005D01*
X17343000Y-20569512D01*
X17343000Y-16635138D01*
X17482690Y-16693000D01*
X18339250Y-16693000D01*
X18498000Y-16534250D01*
X18498000Y-15169000D01*
X18752000Y-15169000D01*
X18752000Y-16534250D01*
X18910750Y-16693000D01*
X19767310Y-16693000D01*
X20000699Y-16596327D01*
X20179327Y-16417698D01*
X20276000Y-16184309D01*
X20276000Y-15327750D01*
X20117250Y-15169000D01*
X18752000Y-15169000D01*
X18498000Y-15169000D01*
X18478000Y-15169000D01*
X18478000Y-14953655D01*
X31115000Y-14953655D01*
X31115000Y-15018345D01*
X31240675Y-15650155D01*
X31598567Y-16185778D01*
X32134190Y-16543670D01*
X32766000Y-16669345D01*
X33397810Y-16543670D01*
X33933433Y-16185778D01*
X34028630Y-16043306D01*
X34369563Y-16384834D01*
X34976155Y-16636713D01*
X35632963Y-16637286D01*
X36239995Y-16386466D01*
X36476766Y-16150107D01*
X36861498Y-16150107D01*
X36962120Y-16418622D01*
X37577642Y-16647816D01*
X38234019Y-16624014D01*
X38729880Y-16418622D01*
X38830502Y-16150107D01*
X37846000Y-15165605D01*
X36861498Y-16150107D01*
X36476766Y-16150107D01*
X36663565Y-15963634D01*
X36681893Y-15970502D01*
X37666395Y-14986000D01*
X36681893Y-14001498D01*
X36663083Y-14008547D01*
X36476755Y-13821893D01*
X36861498Y-13821893D01*
X37846000Y-14806395D01*
X38830502Y-13821893D01*
X38729880Y-13553378D01*
X38114358Y-13324184D01*
X37457981Y-13347986D01*
X36962120Y-13553378D01*
X36861498Y-13821893D01*
X36476755Y-13821893D01*
X36242437Y-13587166D01*
X35635845Y-13335287D01*
X34979037Y-13334714D01*
X34372005Y-13585534D01*
X34028476Y-13928464D01*
X33933433Y-13786222D01*
X33397810Y-13428330D01*
X32766000Y-13302655D01*
X32134190Y-13428330D01*
X31598567Y-13786222D01*
X31240675Y-14321845D01*
X31115000Y-14953655D01*
X18478000Y-14953655D01*
X18478000Y-14915000D01*
X18498000Y-14915000D01*
X18498000Y-13549750D01*
X18752000Y-13549750D01*
X18752000Y-14915000D01*
X20117250Y-14915000D01*
X20276000Y-14756250D01*
X20276000Y-13899691D01*
X20179327Y-13666302D01*
X20000699Y-13487673D01*
X19767310Y-13391000D01*
X18910750Y-13391000D01*
X18752000Y-13549750D01*
X18498000Y-13549750D01*
X18339250Y-13391000D01*
X17482690Y-13391000D01*
X17249301Y-13487673D01*
X17070673Y-13666302D01*
X17053001Y-13708966D01*
X16716810Y-13484330D01*
X16085000Y-13358655D01*
X15453190Y-13484330D01*
X14917567Y-13842222D01*
X14559675Y-14377845D01*
X14434000Y-15009655D01*
X14434000Y-15074345D01*
X14559675Y-15706155D01*
X14573000Y-15726097D01*
X14573000Y-20568753D01*
X14559166Y-20582563D01*
X14307287Y-21189155D01*
X14306714Y-21845963D01*
X12775000Y-21845963D01*
X12775000Y-12775000D01*
X130481000Y-12775000D01*
X130481000Y-128703000D01*
M02*
