G04 #@! TF.FileFunction,Legend,Top*
%FSLAX46Y46*%
G04 Gerber Fmt 4.6, Leading zero omitted, Abs format (unit mm)*
G04 Created by KiCad (PCBNEW 4.0.2-stable) date 2021 June 25, Friday 22:27:55*
%MOMM*%
G01*
G04 APERTURE LIST*
%ADD10C,0.100000*%
%ADD11C,0.300000*%
%ADD12C,0.150000*%
G04 APERTURE END LIST*
D10*
D11*
X40699143Y-75690571D02*
X40699143Y-74190571D01*
X41556286Y-75690571D01*
X41556286Y-74190571D01*
X42127715Y-74190571D02*
X42484858Y-75690571D01*
X42770572Y-74619143D01*
X43056286Y-75690571D01*
X43413429Y-74190571D01*
X43770572Y-74190571D02*
X44627715Y-74190571D01*
X44199144Y-75690571D02*
X44199144Y-74190571D01*
X46127715Y-74190571D02*
X47127715Y-74190571D01*
X46484858Y-75690571D01*
X40699143Y-80490571D02*
X40699143Y-78990571D01*
X41270571Y-78990571D01*
X41413429Y-79062000D01*
X41484857Y-79133429D01*
X41556286Y-79276286D01*
X41556286Y-79490571D01*
X41484857Y-79633429D01*
X41413429Y-79704857D01*
X41270571Y-79776286D01*
X40699143Y-79776286D01*
X43056286Y-80347714D02*
X42984857Y-80419143D01*
X42770571Y-80490571D01*
X42627714Y-80490571D01*
X42413429Y-80419143D01*
X42270571Y-80276286D01*
X42199143Y-80133429D01*
X42127714Y-79847714D01*
X42127714Y-79633429D01*
X42199143Y-79347714D01*
X42270571Y-79204857D01*
X42413429Y-79062000D01*
X42627714Y-78990571D01*
X42770571Y-78990571D01*
X42984857Y-79062000D01*
X43056286Y-79133429D01*
X44199143Y-79704857D02*
X44413429Y-79776286D01*
X44484857Y-79847714D01*
X44556286Y-79990571D01*
X44556286Y-80204857D01*
X44484857Y-80347714D01*
X44413429Y-80419143D01*
X44270571Y-80490571D01*
X43699143Y-80490571D01*
X43699143Y-78990571D01*
X44199143Y-78990571D01*
X44342000Y-79062000D01*
X44413429Y-79133429D01*
X44484857Y-79276286D01*
X44484857Y-79419143D01*
X44413429Y-79562000D01*
X44342000Y-79633429D01*
X44199143Y-79704857D01*
X43699143Y-79704857D01*
X46984857Y-80490571D02*
X46984857Y-78990571D01*
X46984857Y-80419143D02*
X46842000Y-80490571D01*
X46556286Y-80490571D01*
X46413428Y-80419143D01*
X46342000Y-80347714D01*
X46270571Y-80204857D01*
X46270571Y-79776286D01*
X46342000Y-79633429D01*
X46413428Y-79562000D01*
X46556286Y-79490571D01*
X46842000Y-79490571D01*
X46984857Y-79562000D01*
X48270571Y-80419143D02*
X48127714Y-80490571D01*
X47842000Y-80490571D01*
X47699143Y-80419143D01*
X47627714Y-80276286D01*
X47627714Y-79704857D01*
X47699143Y-79562000D01*
X47842000Y-79490571D01*
X48127714Y-79490571D01*
X48270571Y-79562000D01*
X48342000Y-79704857D01*
X48342000Y-79847714D01*
X47627714Y-79990571D01*
X48913428Y-80419143D02*
X49056285Y-80490571D01*
X49342000Y-80490571D01*
X49484857Y-80419143D01*
X49556285Y-80276286D01*
X49556285Y-80204857D01*
X49484857Y-80062000D01*
X49342000Y-79990571D01*
X49127714Y-79990571D01*
X48984857Y-79919143D01*
X48913428Y-79776286D01*
X48913428Y-79704857D01*
X48984857Y-79562000D01*
X49127714Y-79490571D01*
X49342000Y-79490571D01*
X49484857Y-79562000D01*
X50199143Y-80490571D02*
X50199143Y-79490571D01*
X50199143Y-78990571D02*
X50127714Y-79062000D01*
X50199143Y-79133429D01*
X50270571Y-79062000D01*
X50199143Y-78990571D01*
X50199143Y-79133429D01*
X51556286Y-79490571D02*
X51556286Y-80704857D01*
X51484857Y-80847714D01*
X51413429Y-80919143D01*
X51270572Y-80990571D01*
X51056286Y-80990571D01*
X50913429Y-80919143D01*
X51556286Y-80419143D02*
X51413429Y-80490571D01*
X51127715Y-80490571D01*
X50984857Y-80419143D01*
X50913429Y-80347714D01*
X50842000Y-80204857D01*
X50842000Y-79776286D01*
X50913429Y-79633429D01*
X50984857Y-79562000D01*
X51127715Y-79490571D01*
X51413429Y-79490571D01*
X51556286Y-79562000D01*
X52270572Y-79490571D02*
X52270572Y-80490571D01*
X52270572Y-79633429D02*
X52342000Y-79562000D01*
X52484858Y-79490571D01*
X52699143Y-79490571D01*
X52842000Y-79562000D01*
X52913429Y-79704857D01*
X52913429Y-80490571D01*
X54770572Y-80490571D02*
X54770572Y-78990571D01*
X54770572Y-79562000D02*
X54913429Y-79490571D01*
X55199143Y-79490571D01*
X55342000Y-79562000D01*
X55413429Y-79633429D01*
X55484858Y-79776286D01*
X55484858Y-80204857D01*
X55413429Y-80347714D01*
X55342000Y-80419143D01*
X55199143Y-80490571D01*
X54913429Y-80490571D01*
X54770572Y-80419143D01*
X55984858Y-79490571D02*
X56342001Y-80490571D01*
X56699143Y-79490571D02*
X56342001Y-80490571D01*
X56199143Y-80847714D01*
X56127715Y-80919143D01*
X55984858Y-80990571D01*
X40699143Y-82890571D02*
X40699143Y-81390571D01*
X41270571Y-81390571D01*
X41413429Y-81462000D01*
X41484857Y-81533429D01*
X41556286Y-81676286D01*
X41556286Y-81890571D01*
X41484857Y-82033429D01*
X41413429Y-82104857D01*
X41270571Y-82176286D01*
X40699143Y-82176286D01*
X42842000Y-82890571D02*
X42842000Y-82104857D01*
X42770571Y-81962000D01*
X42627714Y-81890571D01*
X42342000Y-81890571D01*
X42199143Y-81962000D01*
X42842000Y-82819143D02*
X42699143Y-82890571D01*
X42342000Y-82890571D01*
X42199143Y-82819143D01*
X42127714Y-82676286D01*
X42127714Y-82533429D01*
X42199143Y-82390571D01*
X42342000Y-82319143D01*
X42699143Y-82319143D01*
X42842000Y-82247714D01*
X43413429Y-81890571D02*
X43699143Y-82890571D01*
X43984857Y-82176286D01*
X44270572Y-82890571D01*
X44556286Y-81890571D01*
X45699143Y-82819143D02*
X45556286Y-82890571D01*
X45270572Y-82890571D01*
X45127715Y-82819143D01*
X45056286Y-82676286D01*
X45056286Y-82104857D01*
X45127715Y-81962000D01*
X45270572Y-81890571D01*
X45556286Y-81890571D01*
X45699143Y-81962000D01*
X45770572Y-82104857D01*
X45770572Y-82247714D01*
X45056286Y-82390571D01*
X46627715Y-82890571D02*
X46484857Y-82819143D01*
X46413429Y-82676286D01*
X46413429Y-81390571D01*
X46199143Y-82176286D02*
X46627715Y-81890571D01*
X48270571Y-82462000D02*
X48984857Y-82462000D01*
X48127714Y-82890571D02*
X48627714Y-81390571D01*
X49127714Y-82890571D01*
X49627714Y-82747714D02*
X49699142Y-82819143D01*
X49627714Y-82890571D01*
X49556285Y-82819143D01*
X49627714Y-82747714D01*
X49627714Y-82890571D01*
X52342000Y-82890571D02*
X51842000Y-82176286D01*
X51484857Y-82890571D02*
X51484857Y-81390571D01*
X52056285Y-81390571D01*
X52199143Y-81462000D01*
X52270571Y-81533429D01*
X52342000Y-81676286D01*
X52342000Y-81890571D01*
X52270571Y-82033429D01*
X52199143Y-82104857D01*
X52056285Y-82176286D01*
X51484857Y-82176286D01*
X52842000Y-81890571D02*
X53199143Y-82890571D01*
X53556285Y-81890571D02*
X53199143Y-82890571D01*
X53056285Y-83247714D01*
X52984857Y-83319143D01*
X52842000Y-83390571D01*
X54056285Y-82819143D02*
X54199142Y-82890571D01*
X54484857Y-82890571D01*
X54627714Y-82819143D01*
X54699142Y-82676286D01*
X54699142Y-82604857D01*
X54627714Y-82462000D01*
X54484857Y-82390571D01*
X54270571Y-82390571D01*
X54127714Y-82319143D01*
X54056285Y-82176286D01*
X54056285Y-82104857D01*
X54127714Y-81962000D01*
X54270571Y-81890571D01*
X54484857Y-81890571D01*
X54627714Y-81962000D01*
X55199143Y-81890571D02*
X55984857Y-81890571D01*
X55199143Y-82890571D01*
X55984857Y-82890571D01*
X57199143Y-82890571D02*
X57199143Y-82104857D01*
X57127714Y-81962000D01*
X56984857Y-81890571D01*
X56699143Y-81890571D01*
X56556286Y-81962000D01*
X57199143Y-82819143D02*
X57056286Y-82890571D01*
X56699143Y-82890571D01*
X56556286Y-82819143D01*
X56484857Y-82676286D01*
X56484857Y-82533429D01*
X56556286Y-82390571D01*
X56699143Y-82319143D01*
X57056286Y-82319143D01*
X57199143Y-82247714D01*
X57770572Y-81890571D02*
X58056286Y-82890571D01*
X58342000Y-82176286D01*
X58627715Y-82890571D01*
X58913429Y-81890571D01*
X60127715Y-82890571D02*
X60127715Y-82104857D01*
X60056286Y-81962000D01*
X59913429Y-81890571D01*
X59627715Y-81890571D01*
X59484858Y-81962000D01*
X60127715Y-82819143D02*
X59984858Y-82890571D01*
X59627715Y-82890571D01*
X59484858Y-82819143D01*
X59413429Y-82676286D01*
X59413429Y-82533429D01*
X59484858Y-82390571D01*
X59627715Y-82319143D01*
X59984858Y-82319143D01*
X60127715Y-82247714D01*
X61913429Y-82819143D02*
X62127715Y-82890571D01*
X62484858Y-82890571D01*
X62627715Y-82819143D01*
X62699144Y-82747714D01*
X62770572Y-82604857D01*
X62770572Y-82462000D01*
X62699144Y-82319143D01*
X62627715Y-82247714D01*
X62484858Y-82176286D01*
X62199144Y-82104857D01*
X62056286Y-82033429D01*
X61984858Y-81962000D01*
X61913429Y-81819143D01*
X61913429Y-81676286D01*
X61984858Y-81533429D01*
X62056286Y-81462000D01*
X62199144Y-81390571D01*
X62556286Y-81390571D01*
X62770572Y-81462000D01*
X64413429Y-83033429D02*
X64270572Y-82962000D01*
X64127715Y-82819143D01*
X63913429Y-82604857D01*
X63770572Y-82533429D01*
X63627715Y-82533429D01*
X63699143Y-82890571D02*
X63556286Y-82819143D01*
X63413429Y-82676286D01*
X63342000Y-82390571D01*
X63342000Y-81890571D01*
X63413429Y-81604857D01*
X63556286Y-81462000D01*
X63699143Y-81390571D01*
X63984857Y-81390571D01*
X64127715Y-81462000D01*
X64270572Y-81604857D01*
X64342000Y-81890571D01*
X64342000Y-82390571D01*
X64270572Y-82676286D01*
X64127715Y-82819143D01*
X63984857Y-82890571D01*
X63699143Y-82890571D01*
X65699144Y-81390571D02*
X64984858Y-81390571D01*
X64913429Y-82104857D01*
X64984858Y-82033429D01*
X65127715Y-81962000D01*
X65484858Y-81962000D01*
X65627715Y-82033429D01*
X65699144Y-82104857D01*
X65770572Y-82247714D01*
X65770572Y-82604857D01*
X65699144Y-82747714D01*
X65627715Y-82819143D01*
X65484858Y-82890571D01*
X65127715Y-82890571D01*
X64984858Y-82819143D01*
X64913429Y-82747714D01*
X66413429Y-82890571D02*
X66413429Y-81390571D01*
X67270572Y-82890571D02*
X66627715Y-82033429D01*
X67270572Y-81390571D02*
X66413429Y-82247714D01*
X67699143Y-81390571D02*
X68199143Y-82890571D01*
X68699143Y-81390571D01*
X69199143Y-82890571D02*
X69199143Y-81390571D01*
X69770571Y-81390571D01*
X69913429Y-81462000D01*
X69984857Y-81533429D01*
X70056286Y-81676286D01*
X70056286Y-81890571D01*
X69984857Y-82033429D01*
X69913429Y-82104857D01*
X69770571Y-82176286D01*
X69199143Y-82176286D01*
X40699143Y-85290571D02*
X40699143Y-84290571D01*
X40699143Y-84576286D02*
X40770571Y-84433429D01*
X40842000Y-84362000D01*
X40984857Y-84290571D01*
X41127714Y-84290571D01*
X42199142Y-85219143D02*
X42056285Y-85290571D01*
X41770571Y-85290571D01*
X41627714Y-85219143D01*
X41556285Y-85076286D01*
X41556285Y-84504857D01*
X41627714Y-84362000D01*
X41770571Y-84290571D01*
X42056285Y-84290571D01*
X42199142Y-84362000D01*
X42270571Y-84504857D01*
X42270571Y-84647714D01*
X41556285Y-84790571D01*
X42770571Y-84290571D02*
X43127714Y-85290571D01*
X43484856Y-84290571D01*
X44056285Y-85147714D02*
X44127713Y-85219143D01*
X44056285Y-85290571D01*
X43984856Y-85219143D01*
X44056285Y-85147714D01*
X44056285Y-85290571D01*
X46699142Y-85290571D02*
X45841999Y-85290571D01*
X46270571Y-85290571D02*
X46270571Y-83790571D01*
X46127714Y-84004857D01*
X45984856Y-84147714D01*
X45841999Y-84219143D01*
X47341999Y-85147714D02*
X47413427Y-85219143D01*
X47341999Y-85290571D01*
X47270570Y-85219143D01*
X47341999Y-85147714D01*
X47341999Y-85290571D01*
X48841999Y-85290571D02*
X47984856Y-85290571D01*
X48413428Y-85290571D02*
X48413428Y-83790571D01*
X48270571Y-84004857D01*
X48127713Y-84147714D01*
X47984856Y-84219143D01*
D12*
X80183000Y-57667000D02*
X80183000Y-58317000D01*
X85933000Y-57667000D02*
X85933000Y-58317000D01*
X85933000Y-68317000D02*
X85933000Y-67667000D01*
X80183000Y-68317000D02*
X80183000Y-67667000D01*
X80183000Y-57667000D02*
X85933000Y-57667000D01*
X80183000Y-68317000D02*
X85933000Y-68317000D01*
X80183000Y-58317000D02*
X78583000Y-58317000D01*
X75556000Y-57801000D02*
X75556000Y-59801000D01*
X77606000Y-59801000D02*
X77606000Y-57801000D01*
X81085000Y-79264000D02*
X81085000Y-81264000D01*
X78935000Y-81264000D02*
X78935000Y-79264000D01*
X89145000Y-79264000D02*
X89145000Y-81264000D01*
X91195000Y-81264000D02*
X91195000Y-79264000D01*
X38497000Y-110118000D02*
X40497000Y-110118000D01*
X40497000Y-108068000D02*
X38497000Y-108068000D01*
X35442000Y-93456000D02*
X35442000Y-91456000D01*
X33392000Y-91456000D02*
X33392000Y-93456000D01*
X27321000Y-98688000D02*
X29321000Y-98688000D01*
X29321000Y-96638000D02*
X27321000Y-96638000D01*
X94878000Y-65897000D02*
X94878000Y-63897000D01*
X92828000Y-63897000D02*
X92828000Y-65897000D01*
X76971000Y-81264000D02*
X76971000Y-79264000D01*
X74921000Y-79264000D02*
X74921000Y-81264000D01*
X78978000Y-83938000D02*
X76978000Y-83938000D01*
X76978000Y-85988000D02*
X78978000Y-85988000D01*
X78978000Y-95368000D02*
X76978000Y-95368000D01*
X76978000Y-97418000D02*
X78978000Y-97418000D01*
X78978000Y-106798000D02*
X76978000Y-106798000D01*
X76978000Y-108848000D02*
X78978000Y-108848000D01*
X45431000Y-62397000D02*
X45431000Y-60397000D01*
X43381000Y-60397000D02*
X43381000Y-62397000D01*
X99076000Y-56397000D02*
X101076000Y-56397000D01*
X101076000Y-54347000D02*
X99076000Y-54347000D01*
X52467000Y-113166000D02*
X54467000Y-113166000D01*
X54467000Y-111116000D02*
X52467000Y-111116000D01*
X36821000Y-22622000D02*
X36821000Y-24622000D01*
X38871000Y-24622000D02*
X38871000Y-22622000D01*
X62341000Y-111116000D02*
X60341000Y-111116000D01*
X60341000Y-113166000D02*
X62341000Y-113166000D01*
X70088000Y-42536000D02*
X68088000Y-42536000D01*
X68088000Y-44586000D02*
X70088000Y-44586000D01*
X67453000Y-99323000D02*
X69453000Y-99323000D01*
X69453000Y-97273000D02*
X67453000Y-97273000D01*
X56778000Y-101203000D02*
X56778000Y-99203000D01*
X54728000Y-99203000D02*
X54728000Y-101203000D01*
X77606000Y-68818000D02*
X77606000Y-66818000D01*
X75556000Y-66818000D02*
X75556000Y-68818000D01*
X91322000Y-59547000D02*
X91322000Y-57547000D01*
X89272000Y-57547000D02*
X89272000Y-59547000D01*
X31106000Y-108855000D02*
X31106000Y-110855000D01*
X33156000Y-110855000D02*
X33156000Y-108855000D01*
X36966000Y-104759000D02*
X36966000Y-102759000D01*
X34916000Y-102759000D02*
X34916000Y-104759000D01*
X37481000Y-98688000D02*
X39481000Y-98688000D01*
X39481000Y-96638000D02*
X37481000Y-96638000D01*
X16018000Y-113166000D02*
X18018000Y-113166000D01*
X18018000Y-111116000D02*
X16018000Y-111116000D01*
X117230000Y-74787000D02*
X117230000Y-72787000D01*
X115180000Y-72787000D02*
X115180000Y-74787000D01*
X18272000Y-101210000D02*
X16272000Y-101210000D01*
X16272000Y-103260000D02*
X18272000Y-103260000D01*
X122412000Y-70857000D02*
X120412000Y-70857000D01*
X120412000Y-72907000D02*
X122412000Y-72907000D01*
X28203000Y-107807000D02*
X28203000Y-105807000D01*
X26153000Y-105807000D02*
X26153000Y-107807000D01*
X129676000Y-81899000D02*
X129676000Y-79899000D01*
X127626000Y-79899000D02*
X127626000Y-81899000D01*
X127626000Y-72787000D02*
X127626000Y-74787000D01*
X129676000Y-74787000D02*
X129676000Y-72787000D01*
X115180000Y-64913000D02*
X115180000Y-66913000D01*
X117230000Y-66913000D02*
X117230000Y-64913000D01*
X24146000Y-103260000D02*
X26146000Y-103260000D01*
X26146000Y-101210000D02*
X24146000Y-101210000D01*
X124349000Y-87004000D02*
X126349000Y-87004000D01*
X126349000Y-84954000D02*
X124349000Y-84954000D01*
X87138000Y-108848000D02*
X89138000Y-108848000D01*
X89138000Y-106798000D02*
X87138000Y-106798000D01*
X87138000Y-97418000D02*
X89138000Y-97418000D01*
X89138000Y-95368000D02*
X87138000Y-95368000D01*
X87138000Y-85988000D02*
X89138000Y-85988000D01*
X89138000Y-83938000D02*
X87138000Y-83938000D01*
X113395000Y-109338000D02*
X111395000Y-109338000D01*
X111395000Y-111388000D02*
X113395000Y-111388000D01*
X113395000Y-96384000D02*
X111395000Y-96384000D01*
X111395000Y-98434000D02*
X113395000Y-98434000D01*
X98663000Y-97273000D02*
X96663000Y-97273000D01*
X96663000Y-99323000D02*
X98663000Y-99323000D01*
X107832000Y-114919000D02*
X107832000Y-112919000D01*
X105782000Y-112919000D02*
X105782000Y-114919000D01*
X45656500Y-25654000D02*
X45275500Y-25654000D01*
X46672500Y-25654000D02*
X46291500Y-25654000D01*
X46291500Y-25654000D02*
X45656500Y-26035000D01*
X45656500Y-26035000D02*
X45656500Y-25273000D01*
X45656500Y-25273000D02*
X46291500Y-25654000D01*
X46291500Y-26162000D02*
X46291500Y-25146000D01*
X47974000Y-24754000D02*
X44434000Y-24754000D01*
X47974000Y-26554000D02*
X44434000Y-26554000D01*
X27813000Y-29527500D02*
X27813000Y-29146500D01*
X27813000Y-30543500D02*
X27813000Y-30162500D01*
X27813000Y-30162500D02*
X27432000Y-29527500D01*
X27432000Y-29527500D02*
X28194000Y-29527500D01*
X28194000Y-29527500D02*
X27813000Y-30162500D01*
X27305000Y-30162500D02*
X28321000Y-30162500D01*
X28713000Y-31845000D02*
X28713000Y-28305000D01*
X26913000Y-31845000D02*
X26913000Y-28305000D01*
X49403000Y-62738000D02*
X46228000Y-62738000D01*
X46228000Y-62738000D02*
X46228000Y-64516000D01*
X46228000Y-64516000D02*
X49403000Y-64516000D01*
X49403000Y-58166000D02*
X46228000Y-58166000D01*
X46228000Y-58166000D02*
X46228000Y-59944000D01*
X46228000Y-59944000D02*
X49403000Y-59944000D01*
X55499000Y-64770000D02*
X49403000Y-64770000D01*
X49403000Y-64770000D02*
X49403000Y-57912000D01*
X49403000Y-57912000D02*
X57277000Y-57912000D01*
X57404000Y-57912000D02*
X57404000Y-64770000D01*
X57277000Y-64770000D02*
X55499000Y-64770000D01*
X98679000Y-60452000D02*
X98679000Y-57277000D01*
X98679000Y-57277000D02*
X96901000Y-57277000D01*
X96901000Y-57277000D02*
X96901000Y-60452000D01*
X103251000Y-60452000D02*
X103251000Y-57277000D01*
X103251000Y-57277000D02*
X101473000Y-57277000D01*
X101473000Y-57277000D02*
X101473000Y-60452000D01*
X96647000Y-66548000D02*
X96647000Y-60452000D01*
X96647000Y-60452000D02*
X103505000Y-60452000D01*
X103505000Y-60452000D02*
X103505000Y-68326000D01*
X103505000Y-68453000D02*
X96647000Y-68453000D01*
X96647000Y-68326000D02*
X96647000Y-66548000D01*
X22649000Y-109382000D02*
X22649000Y-109237000D01*
X18499000Y-109382000D02*
X18499000Y-109237000D01*
X18499000Y-104232000D02*
X18499000Y-104377000D01*
X22649000Y-104232000D02*
X22649000Y-104377000D01*
X22649000Y-109382000D02*
X18499000Y-109382000D01*
X22649000Y-104232000D02*
X18499000Y-104232000D01*
X22649000Y-109237000D02*
X24049000Y-109237000D01*
X123987000Y-76792000D02*
X123842000Y-76792000D01*
X123987000Y-80942000D02*
X123842000Y-80942000D01*
X118837000Y-80942000D02*
X118982000Y-80942000D01*
X118837000Y-76792000D02*
X118982000Y-76792000D01*
X123987000Y-76792000D02*
X123987000Y-80942000D01*
X118837000Y-76792000D02*
X118837000Y-80942000D01*
X123842000Y-76792000D02*
X123842000Y-75392000D01*
X39600000Y-104418000D02*
X39850000Y-104418000D01*
X39600000Y-101068000D02*
X39850000Y-101068000D01*
X42950000Y-101068000D02*
X42700000Y-101068000D01*
X42950000Y-104418000D02*
X42700000Y-104418000D01*
X39600000Y-104418000D02*
X39600000Y-101068000D01*
X42950000Y-104418000D02*
X42950000Y-101068000D01*
X39850000Y-104418000D02*
X39850000Y-105668000D01*
X101572000Y-36954000D02*
X103572000Y-36954000D01*
X103572000Y-39104000D02*
X101572000Y-39104000D01*
X103572000Y-35802000D02*
X101572000Y-35802000D01*
X101572000Y-33652000D02*
X103572000Y-33652000D01*
X26865000Y-36814000D02*
X26865000Y-34814000D01*
X29015000Y-34814000D02*
X29015000Y-36814000D01*
X85031000Y-81264000D02*
X85031000Y-79264000D01*
X87181000Y-79264000D02*
X87181000Y-81264000D01*
X69612000Y-66743000D02*
X71612000Y-66743000D01*
X71612000Y-68893000D02*
X69612000Y-68893000D01*
X89222000Y-67675000D02*
X89222000Y-65675000D01*
X91372000Y-65675000D02*
X91372000Y-67675000D01*
X93996000Y-69537000D02*
X95996000Y-69537000D01*
X95996000Y-71687000D02*
X93996000Y-71687000D01*
X52467000Y-108018000D02*
X54467000Y-108018000D01*
X54467000Y-110168000D02*
X52467000Y-110168000D01*
X52467000Y-104716000D02*
X54467000Y-104716000D01*
X54467000Y-106866000D02*
X52467000Y-106866000D01*
X53526000Y-99203000D02*
X53526000Y-101203000D01*
X51376000Y-101203000D02*
X51376000Y-99203000D01*
X69453000Y-102548000D02*
X67453000Y-102548000D01*
X67453000Y-100398000D02*
X69453000Y-100398000D01*
X69453000Y-105723000D02*
X67453000Y-105723000D01*
X67453000Y-103573000D02*
X69453000Y-103573000D01*
X67453000Y-106748000D02*
X69453000Y-106748000D01*
X69453000Y-108898000D02*
X67453000Y-108898000D01*
X58234000Y-107299000D02*
X58234000Y-105299000D01*
X60384000Y-105299000D02*
X60384000Y-107299000D01*
X101572000Y-27048000D02*
X103572000Y-27048000D01*
X103572000Y-29198000D02*
X101572000Y-29198000D01*
X103572000Y-32500000D02*
X101572000Y-32500000D01*
X101572000Y-30350000D02*
X103572000Y-30350000D01*
X86471000Y-39175000D02*
X84471000Y-39175000D01*
X84471000Y-37025000D02*
X86471000Y-37025000D01*
X69791000Y-29321000D02*
X69791000Y-27321000D01*
X71941000Y-27321000D02*
X71941000Y-29321000D01*
X72839000Y-29321000D02*
X72839000Y-27321000D01*
X74989000Y-27321000D02*
X74989000Y-29321000D01*
X64711000Y-25892000D02*
X64711000Y-23892000D01*
X66861000Y-23892000D02*
X66861000Y-25892000D01*
X64321000Y-23892000D02*
X64321000Y-25892000D01*
X62171000Y-25892000D02*
X62171000Y-23892000D01*
X76640000Y-47641000D02*
X76640000Y-49641000D01*
X74490000Y-49641000D02*
X74490000Y-47641000D01*
X77538000Y-49641000D02*
X77538000Y-47641000D01*
X79688000Y-47641000D02*
X79688000Y-49641000D01*
X82661000Y-42477000D02*
X80661000Y-42477000D01*
X80661000Y-40327000D02*
X82661000Y-40327000D01*
X83962000Y-47570000D02*
X83962000Y-49570000D01*
X81812000Y-49570000D02*
X81812000Y-47570000D01*
X38497000Y-111066000D02*
X40497000Y-111066000D01*
X40497000Y-113216000D02*
X38497000Y-113216000D01*
X31056000Y-103489000D02*
X31056000Y-101489000D01*
X33206000Y-101489000D02*
X33206000Y-103489000D01*
X21828000Y-100389000D02*
X19828000Y-100389000D01*
X19828000Y-98239000D02*
X21828000Y-98239000D01*
X22876000Y-111066000D02*
X24876000Y-111066000D01*
X24876000Y-113216000D02*
X22876000Y-113216000D01*
X122063000Y-109288000D02*
X124063000Y-109288000D01*
X124063000Y-111438000D02*
X122063000Y-111438000D01*
X126349000Y-90864000D02*
X124349000Y-90864000D01*
X124349000Y-88714000D02*
X126349000Y-88714000D01*
X126932000Y-75962000D02*
X126932000Y-77962000D01*
X124782000Y-77962000D02*
X124782000Y-75962000D01*
X116908000Y-109331000D02*
X116908000Y-107331000D01*
X119058000Y-107331000D02*
X119058000Y-109331000D01*
X116908000Y-96885000D02*
X116908000Y-94885000D01*
X119058000Y-94885000D02*
X119058000Y-96885000D01*
X113395000Y-108136000D02*
X111395000Y-108136000D01*
X111395000Y-105986000D02*
X113395000Y-105986000D01*
X111395000Y-99382000D02*
X113395000Y-99382000D01*
X113395000Y-101532000D02*
X111395000Y-101532000D01*
X96663000Y-100398000D02*
X98663000Y-100398000D01*
X98663000Y-102548000D02*
X96663000Y-102548000D01*
X98663000Y-108898000D02*
X96663000Y-108898000D01*
X96663000Y-106748000D02*
X98663000Y-106748000D01*
X113395000Y-104834000D02*
X111395000Y-104834000D01*
X111395000Y-102684000D02*
X113395000Y-102684000D01*
X96663000Y-103573000D02*
X98663000Y-103573000D01*
X98663000Y-105723000D02*
X96663000Y-105723000D01*
X107882000Y-104791000D02*
X107882000Y-106791000D01*
X105732000Y-106791000D02*
X105732000Y-104791000D01*
X34036000Y-13716000D02*
X46736000Y-13716000D01*
X46736000Y-13716000D02*
X46736000Y-16256000D01*
X46736000Y-16256000D02*
X34036000Y-16256000D01*
X31216000Y-13436000D02*
X32766000Y-13436000D01*
X34036000Y-13716000D02*
X34036000Y-16256000D01*
X32766000Y-16536000D02*
X31216000Y-16536000D01*
X31216000Y-16536000D02*
X31216000Y-13436000D01*
X17355000Y-16312000D02*
X14815000Y-16312000D01*
X20175000Y-16592000D02*
X18625000Y-16592000D01*
X17355000Y-16312000D02*
X17355000Y-13772000D01*
X18625000Y-13492000D02*
X20175000Y-13492000D01*
X20175000Y-13492000D02*
X20175000Y-16592000D01*
X17355000Y-13772000D02*
X14815000Y-13772000D01*
X14815000Y-13772000D02*
X14815000Y-16312000D01*
X29210000Y-91059000D02*
X32385000Y-91059000D01*
X32385000Y-91059000D02*
X32385000Y-89281000D01*
X32385000Y-89281000D02*
X29210000Y-89281000D01*
X29210000Y-95631000D02*
X32385000Y-95631000D01*
X32385000Y-95631000D02*
X32385000Y-93853000D01*
X32385000Y-93853000D02*
X29210000Y-93853000D01*
X23114000Y-89027000D02*
X29210000Y-89027000D01*
X29210000Y-89027000D02*
X29210000Y-95885000D01*
X29210000Y-95885000D02*
X21336000Y-95885000D01*
X21209000Y-95885000D02*
X21209000Y-89027000D01*
X21336000Y-89027000D02*
X23114000Y-89027000D01*
X121285000Y-67310000D02*
X118110000Y-67310000D01*
X118110000Y-67310000D02*
X118110000Y-69088000D01*
X118110000Y-69088000D02*
X121285000Y-69088000D01*
X121285000Y-62738000D02*
X118110000Y-62738000D01*
X118110000Y-62738000D02*
X118110000Y-64516000D01*
X118110000Y-64516000D02*
X121285000Y-64516000D01*
X127381000Y-69342000D02*
X121285000Y-69342000D01*
X121285000Y-69342000D02*
X121285000Y-62484000D01*
X121285000Y-62484000D02*
X129159000Y-62484000D01*
X129286000Y-62484000D02*
X129286000Y-69342000D01*
X129159000Y-69342000D02*
X127381000Y-69342000D01*
X79883000Y-90678000D02*
G75*
G03X79883000Y-90678000I-3810000J0D01*
G01*
X79883000Y-102108000D02*
G75*
G03X79883000Y-102108000I-3810000J0D01*
G01*
X59984000Y-99195000D02*
X59984000Y-100195000D01*
X58634000Y-100195000D02*
X58634000Y-99195000D01*
X93853000Y-102108000D02*
G75*
G03X93853000Y-102108000I-3810000J0D01*
G01*
X93853000Y-90678000D02*
G75*
G03X93853000Y-90678000I-3810000J0D01*
G01*
X106132000Y-100195000D02*
X106132000Y-99195000D01*
X107482000Y-99195000D02*
X107482000Y-100195000D01*
X48514000Y-44688760D02*
X48313340Y-44287440D01*
X48313340Y-44287440D02*
X48211740Y-43688000D01*
X48211740Y-43688000D02*
X48313340Y-43187620D01*
X48313340Y-43187620D02*
X48712120Y-42489120D01*
X48712120Y-42489120D02*
X49314100Y-42087800D01*
X49314100Y-42087800D02*
X49913540Y-41887140D01*
X49913540Y-41887140D02*
X56512460Y-41887140D01*
X56512460Y-41887140D02*
X57213500Y-42087800D01*
X57213500Y-42087800D02*
X57612280Y-42387520D01*
X57612280Y-42387520D02*
X58013600Y-42887900D01*
X58013600Y-42887900D02*
X58214260Y-43487340D01*
X58214260Y-43487340D02*
X58214260Y-43987720D01*
X58214260Y-43987720D02*
X58013600Y-44488100D01*
X58013600Y-44488100D02*
X57513220Y-45087540D01*
X57513220Y-45087540D02*
X57012840Y-45387260D01*
X57012840Y-45387260D02*
X56512460Y-45488860D01*
X56413400Y-45488860D02*
X49811940Y-45488860D01*
X49811940Y-45488860D02*
X49413160Y-45387260D01*
X49413160Y-45387260D02*
X48912780Y-45087540D01*
X48912780Y-45087540D02*
X48412400Y-44587160D01*
X56403240Y-46017180D02*
X56862980Y-45968920D01*
X56862980Y-45968920D02*
X57261760Y-45857160D01*
X57261760Y-45857160D02*
X57693560Y-45638720D01*
X57693560Y-45638720D02*
X57983120Y-45407580D01*
X57983120Y-45407580D02*
X58313320Y-45057060D01*
X58313320Y-45057060D02*
X58602880Y-44518580D01*
X58602880Y-44518580D02*
X58732420Y-43919140D01*
X58732420Y-43919140D02*
X58732420Y-43408600D01*
X58732420Y-43408600D02*
X58562240Y-42707560D01*
X58562240Y-42707560D02*
X58163460Y-42118280D01*
X58163460Y-42118280D02*
X57703720Y-41747440D01*
X57703720Y-41747440D02*
X57282080Y-41539160D01*
X57282080Y-41539160D02*
X56832500Y-41379140D01*
X56832500Y-41379140D02*
X56393080Y-41348660D01*
X49052480Y-41567100D02*
X48674020Y-41788080D01*
X48674020Y-41788080D02*
X48353980Y-42067480D01*
X48353980Y-42067480D02*
X48102520Y-42397680D01*
X48102520Y-42397680D02*
X47802800Y-42948860D01*
X47802800Y-42948860D02*
X47693580Y-43418760D01*
X47693580Y-43418760D02*
X47673260Y-43878500D01*
X47673260Y-43878500D02*
X47762160Y-44338240D01*
X47762160Y-44338240D02*
X47952660Y-44787820D01*
X47952660Y-44787820D02*
X48313340Y-45257720D01*
X48313340Y-45257720D02*
X48663860Y-45577760D01*
X48663860Y-45577760D02*
X49052480Y-45808900D01*
X49052480Y-45808900D02*
X49481740Y-45948600D01*
X49481740Y-45948600D02*
X49923700Y-46017180D01*
X56413400Y-41358820D02*
X49961800Y-41358820D01*
X49961800Y-41358820D02*
X49542700Y-41396920D01*
X49542700Y-41396920D02*
X49052480Y-41567100D01*
X56413400Y-46017180D02*
X49961800Y-46017180D01*
X62230000Y-46101000D02*
G75*
G03X62230000Y-46101000I-254000J0D01*
G01*
X72710040Y-45100240D02*
X60711080Y-45100240D01*
X60711080Y-64899540D02*
X60711080Y-45100240D01*
X72910700Y-65897760D02*
X61810900Y-65897760D01*
X73908920Y-46398180D02*
X73908920Y-64899540D01*
X72910700Y-65897760D02*
G75*
G03X73908920Y-64899540I0J998220D01*
G01*
X73908920Y-46294040D02*
G75*
G03X72710040Y-45095160I-1198880J0D01*
G01*
X60711080Y-64899540D02*
G75*
G03X61709300Y-65897760I998220J0D01*
G01*
X23578000Y-47427000D02*
X23578000Y-46030000D01*
X21038000Y-47427000D02*
X21038000Y-46030000D01*
X18498000Y-47427000D02*
X18498000Y-46030000D01*
X23552472Y-60508000D02*
G75*
G03X23552472Y-60508000I-2514472J0D01*
G01*
X15704000Y-55936000D02*
X15704000Y-63937000D01*
X15704000Y-63937000D02*
X26372000Y-63937000D01*
X26372000Y-63937000D02*
X26372000Y-55936000D01*
X15704000Y-47427000D02*
X15704000Y-55936000D01*
X15704000Y-55936000D02*
X26372000Y-55936000D01*
X26372000Y-55936000D02*
X26372000Y-47427000D01*
X21038000Y-47427000D02*
X26372000Y-47427000D01*
X21038000Y-47427000D02*
X15704000Y-47427000D01*
X81724500Y-30543500D02*
X81724500Y-29781500D01*
X81724500Y-29781500D02*
X83248500Y-29781500D01*
X83248500Y-29781500D02*
X83248500Y-30543500D01*
X80200500Y-19367500D02*
X84772500Y-19367500D01*
X84772500Y-19367500D02*
X84772500Y-30543500D01*
X84772500Y-30543500D02*
X80200500Y-30543500D01*
X80200500Y-30543500D02*
X80200500Y-19367500D01*
X89265000Y-71619000D02*
X87265000Y-71619000D01*
X87265000Y-73669000D02*
X89265000Y-73669000D01*
X75810000Y-32020000D02*
X75810000Y-34020000D01*
X77860000Y-34020000D02*
X77860000Y-32020000D01*
X99279000Y-120944000D02*
X99279000Y-118944000D01*
X97229000Y-118944000D02*
X97229000Y-120944000D01*
X82058000Y-33410000D02*
X84058000Y-33410000D01*
X84058000Y-31360000D02*
X82058000Y-31360000D01*
X87240000Y-24781000D02*
X87240000Y-26781000D01*
X89290000Y-26781000D02*
X89290000Y-24781000D01*
X86935000Y-16303000D02*
X84935000Y-16303000D01*
X84935000Y-18353000D02*
X86935000Y-18353000D01*
X80280000Y-36204000D02*
X82280000Y-36204000D01*
X82280000Y-34154000D02*
X80280000Y-34154000D01*
X63202000Y-95306000D02*
G75*
G03X63202000Y-95306000I-76200J0D01*
G01*
X63456000Y-95306000D02*
G75*
G03X63456000Y-95306000I-1016000J0D01*
G01*
X102851400Y-95306000D02*
G75*
G03X102851400Y-95306000I-76200J0D01*
G01*
X104477000Y-95306000D02*
G75*
G03X104477000Y-95306000I-1016000J0D01*
G01*
X49506000Y-51487000D02*
X49506000Y-48487000D01*
X52006000Y-48487000D02*
X52006000Y-51487000D01*
X56959000Y-48447000D02*
X56959000Y-51447000D01*
X54459000Y-51447000D02*
X54459000Y-48447000D01*
X23578000Y-21519000D02*
X22816000Y-21519000D01*
X22816000Y-21519000D02*
X22816000Y-20503000D01*
X22816000Y-20503000D02*
X16720000Y-20503000D01*
X16720000Y-20503000D02*
X16720000Y-21519000D01*
X16720000Y-21519000D02*
X15958000Y-21519000D01*
X16720000Y-21519000D02*
X16720000Y-22535000D01*
X16720000Y-22535000D02*
X22816000Y-22535000D01*
X22816000Y-22535000D02*
X22816000Y-21519000D01*
X22308000Y-20503000D02*
X22308000Y-22535000D01*
X22054000Y-22535000D02*
X22054000Y-20503000D01*
X30471000Y-37711000D02*
X31741000Y-37711000D01*
X30471000Y-30361000D02*
X31741000Y-30361000D01*
X68081000Y-30361000D02*
X66811000Y-30361000D01*
X68081000Y-37711000D02*
X66811000Y-37711000D01*
X30471000Y-37711000D02*
X30471000Y-30361000D01*
X68081000Y-37711000D02*
X68081000Y-30361000D01*
X31741000Y-37711000D02*
X31741000Y-38996000D01*
X18779000Y-35603000D02*
X18779000Y-25723000D01*
X24591500Y-30663000D02*
G75*
G03X24591500Y-30663000I-5037500J0D01*
G01*
X28882340Y-114084100D02*
X13281660Y-114084100D01*
X13281660Y-114084100D02*
X13281660Y-128485900D01*
X13281660Y-128485900D02*
X28882340Y-128485900D01*
X28882340Y-128485900D02*
X28882340Y-114084100D01*
X130025140Y-114084100D02*
X114424460Y-114084100D01*
X114424460Y-114084100D02*
X114424460Y-128485900D01*
X114424460Y-128485900D02*
X130025140Y-128485900D01*
X130025140Y-128485900D02*
X130025140Y-114084100D01*
X45221340Y-114013100D02*
X29620660Y-114013100D01*
X29620660Y-114013100D02*
X29620660Y-128414900D01*
X29620660Y-128414900D02*
X45221340Y-128414900D01*
X45221340Y-128414900D02*
X45221340Y-114013100D01*
X65839340Y-114084100D02*
X50238660Y-114084100D01*
X50238660Y-114084100D02*
X50238660Y-128485900D01*
X50238660Y-128485900D02*
X65839340Y-128485900D01*
X65839340Y-128485900D02*
X65839340Y-114084100D01*
X125222000Y-98425000D02*
X127889000Y-96393000D01*
X124587000Y-98298000D02*
X126365000Y-95504000D01*
X123952000Y-98425000D02*
X124587000Y-95250000D01*
X123317000Y-98806000D02*
X122809000Y-95504000D01*
X121285000Y-104521000D02*
X123952000Y-102489000D01*
X122809000Y-105410000D02*
X124587000Y-102616000D01*
X124587000Y-105664000D02*
X125222000Y-102489000D01*
X126365000Y-105410000D02*
X125984000Y-102108000D01*
X127889000Y-96393000D02*
X125984000Y-98806000D01*
X126365000Y-105410000D02*
X125222000Y-102489000D01*
X127889000Y-104521000D02*
X125984000Y-102108000D01*
X123317000Y-98806000D02*
X121285000Y-96393000D01*
X123317000Y-102108000D02*
X121285000Y-104521000D01*
X124587000Y-98298000D02*
X124587000Y-95250000D01*
X125222000Y-98425000D02*
X126365000Y-95504000D01*
X123952000Y-98425000D02*
X122809000Y-95504000D01*
X123952000Y-102489000D02*
X122809000Y-105410000D01*
X124587000Y-102616000D02*
X124587000Y-105664000D01*
X126687580Y-100457000D02*
G75*
G03X126687580Y-100457000I-2100580J0D01*
G01*
X129887980Y-100457000D02*
G75*
G03X129887980Y-100457000I-5300980J0D01*
G01*
X94589000Y-118186001D02*
G75*
G03X93789000Y-117386000I-2050000J-1249999D01*
G01*
X94589000Y-120685999D02*
G75*
G02X93789000Y-121486000I-2050000J1249999D01*
G01*
X91264797Y-117397274D02*
G75*
G03X90839000Y-117736000I1274203J-2038726D01*
G01*
X91264797Y-121474726D02*
G75*
G02X90839000Y-121136000I1274203J2038726D01*
G01*
X90839000Y-117736000D02*
X90839000Y-121136000D01*
X94691200Y-23291800D02*
X127203200Y-23291800D01*
X127203200Y-23291800D02*
X127203200Y-13131800D01*
X94691200Y-13131800D02*
X94691200Y-23291800D01*
X94691200Y-13131800D02*
X127203200Y-13131800D01*
X22590000Y-38472000D02*
X20590000Y-38472000D01*
X20590000Y-40522000D02*
X22590000Y-40522000D01*
X95132000Y-41132000D02*
X95132000Y-39132000D01*
X93082000Y-39132000D02*
X93082000Y-41132000D01*
X89526000Y-39132000D02*
X89526000Y-41132000D01*
X91576000Y-41132000D02*
X91576000Y-39132000D01*
X90317001Y-32240000D02*
G75*
G03X89517000Y-33040000I1249999J-2050000D01*
G01*
X92816999Y-32240000D02*
G75*
G02X93617000Y-33040000I-1249999J-2050000D01*
G01*
X89528274Y-35564203D02*
G75*
G03X89867000Y-35990000I2038726J1274203D01*
G01*
X93605726Y-35564203D02*
G75*
G02X93267000Y-35990000I-2038726J1274203D01*
G01*
X89867000Y-35990000D02*
X93267000Y-35990000D01*
X55753000Y-16256000D02*
X53213000Y-16256000D01*
X58573000Y-16536000D02*
X57023000Y-16536000D01*
X55753000Y-16256000D02*
X55753000Y-13716000D01*
X57023000Y-13436000D02*
X58573000Y-13436000D01*
X58573000Y-13436000D02*
X58573000Y-16536000D01*
X55753000Y-13716000D02*
X53213000Y-13716000D01*
X53213000Y-13716000D02*
X53213000Y-16256000D01*
X80386810Y-69850381D02*
X80386810Y-68850381D01*
X81434429Y-69755143D02*
X81386810Y-69802762D01*
X81243953Y-69850381D01*
X81148715Y-69850381D01*
X81005857Y-69802762D01*
X80910619Y-69707524D01*
X80863000Y-69612286D01*
X80815381Y-69421810D01*
X80815381Y-69278952D01*
X80863000Y-69088476D01*
X80910619Y-68993238D01*
X81005857Y-68898000D01*
X81148715Y-68850381D01*
X81243953Y-68850381D01*
X81386810Y-68898000D01*
X81434429Y-68945619D01*
X82291572Y-68850381D02*
X82101095Y-68850381D01*
X82005857Y-68898000D01*
X81958238Y-68945619D01*
X81863000Y-69088476D01*
X81815381Y-69278952D01*
X81815381Y-69659905D01*
X81863000Y-69755143D01*
X81910619Y-69802762D01*
X82005857Y-69850381D01*
X82196334Y-69850381D01*
X82291572Y-69802762D01*
X82339191Y-69755143D01*
X82386810Y-69659905D01*
X82386810Y-69421810D01*
X82339191Y-69326571D01*
X82291572Y-69278952D01*
X82196334Y-69231333D01*
X82005857Y-69231333D01*
X81910619Y-69278952D01*
X81863000Y-69326571D01*
X81815381Y-69421810D01*
X76065143Y-55221143D02*
X76017524Y-55268762D01*
X75874667Y-55316381D01*
X75779429Y-55316381D01*
X75636571Y-55268762D01*
X75541333Y-55173524D01*
X75493714Y-55078286D01*
X75446095Y-54887810D01*
X75446095Y-54744952D01*
X75493714Y-54554476D01*
X75541333Y-54459238D01*
X75636571Y-54364000D01*
X75779429Y-54316381D01*
X75874667Y-54316381D01*
X76017524Y-54364000D01*
X76065143Y-54411619D01*
X76398476Y-54316381D02*
X77017524Y-54316381D01*
X76684190Y-54697333D01*
X76827048Y-54697333D01*
X76922286Y-54744952D01*
X76969905Y-54792571D01*
X77017524Y-54887810D01*
X77017524Y-55125905D01*
X76969905Y-55221143D01*
X76922286Y-55268762D01*
X76827048Y-55316381D01*
X76541333Y-55316381D01*
X76446095Y-55268762D01*
X76398476Y-55221143D01*
X77636571Y-54316381D02*
X77731810Y-54316381D01*
X77827048Y-54364000D01*
X77874667Y-54411619D01*
X77922286Y-54506857D01*
X77969905Y-54697333D01*
X77969905Y-54935429D01*
X77922286Y-55125905D01*
X77874667Y-55221143D01*
X77827048Y-55268762D01*
X77731810Y-55316381D01*
X77636571Y-55316381D01*
X77541333Y-55268762D01*
X77493714Y-55221143D01*
X77446095Y-55125905D01*
X77398476Y-54935429D01*
X77398476Y-54697333D01*
X77446095Y-54506857D01*
X77493714Y-54411619D01*
X77541333Y-54364000D01*
X77636571Y-54316381D01*
X79799334Y-76708381D02*
X79466000Y-76232190D01*
X79227905Y-76708381D02*
X79227905Y-75708381D01*
X79608858Y-75708381D01*
X79704096Y-75756000D01*
X79751715Y-75803619D01*
X79799334Y-75898857D01*
X79799334Y-76041714D01*
X79751715Y-76136952D01*
X79704096Y-76184571D01*
X79608858Y-76232190D01*
X79227905Y-76232190D01*
X80656477Y-76041714D02*
X80656477Y-76708381D01*
X80418381Y-75660762D02*
X80180286Y-76375048D01*
X80799334Y-76375048D01*
X89959334Y-76613143D02*
X89911715Y-76660762D01*
X89768858Y-76708381D01*
X89673620Y-76708381D01*
X89530762Y-76660762D01*
X89435524Y-76565524D01*
X89387905Y-76470286D01*
X89340286Y-76279810D01*
X89340286Y-76136952D01*
X89387905Y-75946476D01*
X89435524Y-75851238D01*
X89530762Y-75756000D01*
X89673620Y-75708381D01*
X89768858Y-75708381D01*
X89911715Y-75756000D01*
X89959334Y-75803619D01*
X90292667Y-75708381D02*
X90911715Y-75708381D01*
X90578381Y-76089333D01*
X90721239Y-76089333D01*
X90816477Y-76136952D01*
X90864096Y-76184571D01*
X90911715Y-76279810D01*
X90911715Y-76517905D01*
X90864096Y-76613143D01*
X90816477Y-76660762D01*
X90721239Y-76708381D01*
X90435524Y-76708381D01*
X90340286Y-76660762D01*
X90292667Y-76613143D01*
X43918143Y-109259666D02*
X43965762Y-109307285D01*
X44013381Y-109450142D01*
X44013381Y-109545380D01*
X43965762Y-109688238D01*
X43870524Y-109783476D01*
X43775286Y-109831095D01*
X43584810Y-109878714D01*
X43441952Y-109878714D01*
X43251476Y-109831095D01*
X43156238Y-109783476D01*
X43061000Y-109688238D01*
X43013381Y-109545380D01*
X43013381Y-109450142D01*
X43061000Y-109307285D01*
X43108619Y-109259666D01*
X43346714Y-108402523D02*
X44013381Y-108402523D01*
X42965762Y-108640619D02*
X43680048Y-108878714D01*
X43680048Y-108259666D01*
X32996143Y-92622666D02*
X33043762Y-92670285D01*
X33091381Y-92813142D01*
X33091381Y-92908380D01*
X33043762Y-93051238D01*
X32948524Y-93146476D01*
X32853286Y-93194095D01*
X32662810Y-93241714D01*
X32519952Y-93241714D01*
X32329476Y-93194095D01*
X32234238Y-93146476D01*
X32139000Y-93051238D01*
X32091381Y-92908380D01*
X32091381Y-92813142D01*
X32139000Y-92670285D01*
X32186619Y-92622666D01*
X32091381Y-91717904D02*
X32091381Y-92194095D01*
X32567571Y-92241714D01*
X32519952Y-92194095D01*
X32472333Y-92098857D01*
X32472333Y-91860761D01*
X32519952Y-91765523D01*
X32567571Y-91717904D01*
X32662810Y-91670285D01*
X32900905Y-91670285D01*
X32996143Y-91717904D01*
X33043762Y-91765523D01*
X33091381Y-91860761D01*
X33091381Y-92098857D01*
X33043762Y-92194095D01*
X32996143Y-92241714D01*
X32698143Y-98361857D02*
X32745762Y-98409476D01*
X32793381Y-98552333D01*
X32793381Y-98647571D01*
X32745762Y-98790429D01*
X32650524Y-98885667D01*
X32555286Y-98933286D01*
X32364810Y-98980905D01*
X32221952Y-98980905D01*
X32031476Y-98933286D01*
X31936238Y-98885667D01*
X31841000Y-98790429D01*
X31793381Y-98647571D01*
X31793381Y-98552333D01*
X31841000Y-98409476D01*
X31888619Y-98361857D01*
X32793381Y-97409476D02*
X32793381Y-97980905D01*
X32793381Y-97695191D02*
X31793381Y-97695191D01*
X31936238Y-97790429D01*
X32031476Y-97885667D01*
X32079095Y-97980905D01*
X31888619Y-97028524D02*
X31841000Y-96980905D01*
X31793381Y-96885667D01*
X31793381Y-96647571D01*
X31841000Y-96552333D01*
X31888619Y-96504714D01*
X31983857Y-96457095D01*
X32079095Y-96457095D01*
X32221952Y-96504714D01*
X32793381Y-97076143D01*
X32793381Y-96457095D01*
X93210143Y-61063143D02*
X93162524Y-61110762D01*
X93019667Y-61158381D01*
X92924429Y-61158381D01*
X92781571Y-61110762D01*
X92686333Y-61015524D01*
X92638714Y-60920286D01*
X92591095Y-60729810D01*
X92591095Y-60586952D01*
X92638714Y-60396476D01*
X92686333Y-60301238D01*
X92781571Y-60206000D01*
X92924429Y-60158381D01*
X93019667Y-60158381D01*
X93162524Y-60206000D01*
X93210143Y-60253619D01*
X94162524Y-61158381D02*
X93591095Y-61158381D01*
X93876809Y-61158381D02*
X93876809Y-60158381D01*
X93781571Y-60301238D01*
X93686333Y-60396476D01*
X93591095Y-60444095D01*
X94495857Y-60158381D02*
X95114905Y-60158381D01*
X94781571Y-60539333D01*
X94924429Y-60539333D01*
X95019667Y-60586952D01*
X95067286Y-60634571D01*
X95114905Y-60729810D01*
X95114905Y-60967905D01*
X95067286Y-61063143D01*
X95019667Y-61110762D01*
X94924429Y-61158381D01*
X94638714Y-61158381D01*
X94543476Y-61110762D01*
X94495857Y-61063143D01*
X75259143Y-76613143D02*
X75211524Y-76660762D01*
X75068667Y-76708381D01*
X74973429Y-76708381D01*
X74830571Y-76660762D01*
X74735333Y-76565524D01*
X74687714Y-76470286D01*
X74640095Y-76279810D01*
X74640095Y-76136952D01*
X74687714Y-75946476D01*
X74735333Y-75851238D01*
X74830571Y-75756000D01*
X74973429Y-75708381D01*
X75068667Y-75708381D01*
X75211524Y-75756000D01*
X75259143Y-75803619D01*
X76211524Y-76708381D02*
X75640095Y-76708381D01*
X75925809Y-76708381D02*
X75925809Y-75708381D01*
X75830571Y-75851238D01*
X75735333Y-75946476D01*
X75640095Y-75994095D01*
X77116286Y-75708381D02*
X76640095Y-75708381D01*
X76592476Y-76184571D01*
X76640095Y-76136952D01*
X76735333Y-76089333D01*
X76973429Y-76089333D01*
X77068667Y-76136952D01*
X77116286Y-76184571D01*
X77163905Y-76279810D01*
X77163905Y-76517905D01*
X77116286Y-76613143D01*
X77068667Y-76660762D01*
X76973429Y-76708381D01*
X76735333Y-76708381D01*
X76640095Y-76660762D01*
X76592476Y-76613143D01*
X82482143Y-85661857D02*
X82529762Y-85709476D01*
X82577381Y-85852333D01*
X82577381Y-85947571D01*
X82529762Y-86090429D01*
X82434524Y-86185667D01*
X82339286Y-86233286D01*
X82148810Y-86280905D01*
X82005952Y-86280905D01*
X81815476Y-86233286D01*
X81720238Y-86185667D01*
X81625000Y-86090429D01*
X81577381Y-85947571D01*
X81577381Y-85852333D01*
X81625000Y-85709476D01*
X81672619Y-85661857D01*
X82577381Y-84709476D02*
X82577381Y-85280905D01*
X82577381Y-84995191D02*
X81577381Y-84995191D01*
X81720238Y-85090429D01*
X81815476Y-85185667D01*
X81863095Y-85280905D01*
X81577381Y-83852333D02*
X81577381Y-84042810D01*
X81625000Y-84138048D01*
X81672619Y-84185667D01*
X81815476Y-84280905D01*
X82005952Y-84328524D01*
X82386905Y-84328524D01*
X82482143Y-84280905D01*
X82529762Y-84233286D01*
X82577381Y-84138048D01*
X82577381Y-83947571D01*
X82529762Y-83852333D01*
X82482143Y-83804714D01*
X82386905Y-83757095D01*
X82148810Y-83757095D01*
X82053571Y-83804714D01*
X82005952Y-83852333D01*
X81958333Y-83947571D01*
X81958333Y-84138048D01*
X82005952Y-84233286D01*
X82053571Y-84280905D01*
X82148810Y-84328524D01*
X82482143Y-97091857D02*
X82529762Y-97139476D01*
X82577381Y-97282333D01*
X82577381Y-97377571D01*
X82529762Y-97520429D01*
X82434524Y-97615667D01*
X82339286Y-97663286D01*
X82148810Y-97710905D01*
X82005952Y-97710905D01*
X81815476Y-97663286D01*
X81720238Y-97615667D01*
X81625000Y-97520429D01*
X81577381Y-97377571D01*
X81577381Y-97282333D01*
X81625000Y-97139476D01*
X81672619Y-97091857D01*
X82577381Y-96139476D02*
X82577381Y-96710905D01*
X82577381Y-96425191D02*
X81577381Y-96425191D01*
X81720238Y-96520429D01*
X81815476Y-96615667D01*
X81863095Y-96710905D01*
X81577381Y-95806143D02*
X81577381Y-95139476D01*
X82577381Y-95568048D01*
X82526143Y-108465857D02*
X82573762Y-108513476D01*
X82621381Y-108656333D01*
X82621381Y-108751571D01*
X82573762Y-108894429D01*
X82478524Y-108989667D01*
X82383286Y-109037286D01*
X82192810Y-109084905D01*
X82049952Y-109084905D01*
X81859476Y-109037286D01*
X81764238Y-108989667D01*
X81669000Y-108894429D01*
X81621381Y-108751571D01*
X81621381Y-108656333D01*
X81669000Y-108513476D01*
X81716619Y-108465857D01*
X82621381Y-107513476D02*
X82621381Y-108084905D01*
X82621381Y-107799191D02*
X81621381Y-107799191D01*
X81764238Y-107894429D01*
X81859476Y-107989667D01*
X81907095Y-108084905D01*
X82049952Y-106942048D02*
X82002333Y-107037286D01*
X81954714Y-107084905D01*
X81859476Y-107132524D01*
X81811857Y-107132524D01*
X81716619Y-107084905D01*
X81669000Y-107037286D01*
X81621381Y-106942048D01*
X81621381Y-106751571D01*
X81669000Y-106656333D01*
X81716619Y-106608714D01*
X81811857Y-106561095D01*
X81859476Y-106561095D01*
X81954714Y-106608714D01*
X82002333Y-106656333D01*
X82049952Y-106751571D01*
X82049952Y-106942048D01*
X82097571Y-107037286D01*
X82145190Y-107084905D01*
X82240429Y-107132524D01*
X82430905Y-107132524D01*
X82526143Y-107084905D01*
X82573762Y-107037286D01*
X82621381Y-106942048D01*
X82621381Y-106751571D01*
X82573762Y-106656333D01*
X82526143Y-106608714D01*
X82430905Y-106561095D01*
X82240429Y-106561095D01*
X82145190Y-106608714D01*
X82097571Y-106656333D01*
X82049952Y-106751571D01*
X43763143Y-66072143D02*
X43715524Y-66119762D01*
X43572667Y-66167381D01*
X43477429Y-66167381D01*
X43334571Y-66119762D01*
X43239333Y-66024524D01*
X43191714Y-65929286D01*
X43144095Y-65738810D01*
X43144095Y-65595952D01*
X43191714Y-65405476D01*
X43239333Y-65310238D01*
X43334571Y-65215000D01*
X43477429Y-65167381D01*
X43572667Y-65167381D01*
X43715524Y-65215000D01*
X43763143Y-65262619D01*
X44715524Y-66167381D02*
X44144095Y-66167381D01*
X44429809Y-66167381D02*
X44429809Y-65167381D01*
X44334571Y-65310238D01*
X44239333Y-65405476D01*
X44144095Y-65453095D01*
X45191714Y-66167381D02*
X45382190Y-66167381D01*
X45477429Y-66119762D01*
X45525048Y-66072143D01*
X45620286Y-65929286D01*
X45667905Y-65738810D01*
X45667905Y-65357857D01*
X45620286Y-65262619D01*
X45572667Y-65215000D01*
X45477429Y-65167381D01*
X45286952Y-65167381D01*
X45191714Y-65215000D01*
X45144095Y-65262619D01*
X45096476Y-65357857D01*
X45096476Y-65595952D01*
X45144095Y-65691190D01*
X45191714Y-65738810D01*
X45286952Y-65786429D01*
X45477429Y-65786429D01*
X45572667Y-65738810D01*
X45620286Y-65691190D01*
X45667905Y-65595952D01*
X96242143Y-56014857D02*
X96289762Y-56062476D01*
X96337381Y-56205333D01*
X96337381Y-56300571D01*
X96289762Y-56443429D01*
X96194524Y-56538667D01*
X96099286Y-56586286D01*
X95908810Y-56633905D01*
X95765952Y-56633905D01*
X95575476Y-56586286D01*
X95480238Y-56538667D01*
X95385000Y-56443429D01*
X95337381Y-56300571D01*
X95337381Y-56205333D01*
X95385000Y-56062476D01*
X95432619Y-56014857D01*
X95432619Y-55633905D02*
X95385000Y-55586286D01*
X95337381Y-55491048D01*
X95337381Y-55252952D01*
X95385000Y-55157714D01*
X95432619Y-55110095D01*
X95527857Y-55062476D01*
X95623095Y-55062476D01*
X95765952Y-55110095D01*
X96337381Y-55681524D01*
X96337381Y-55062476D01*
X96337381Y-54110095D02*
X96337381Y-54681524D01*
X96337381Y-54395810D02*
X95337381Y-54395810D01*
X95480238Y-54491048D01*
X95575476Y-54586286D01*
X95623095Y-54681524D01*
X49843143Y-112585857D02*
X49890762Y-112633476D01*
X49938381Y-112776333D01*
X49938381Y-112871571D01*
X49890762Y-113014429D01*
X49795524Y-113109667D01*
X49700286Y-113157286D01*
X49509810Y-113204905D01*
X49366952Y-113204905D01*
X49176476Y-113157286D01*
X49081238Y-113109667D01*
X48986000Y-113014429D01*
X48938381Y-112871571D01*
X48938381Y-112776333D01*
X48986000Y-112633476D01*
X49033619Y-112585857D01*
X49033619Y-112204905D02*
X48986000Y-112157286D01*
X48938381Y-112062048D01*
X48938381Y-111823952D01*
X48986000Y-111728714D01*
X49033619Y-111681095D01*
X49128857Y-111633476D01*
X49224095Y-111633476D01*
X49366952Y-111681095D01*
X49938381Y-112252524D01*
X49938381Y-111633476D01*
X49271714Y-110776333D02*
X49938381Y-110776333D01*
X48890762Y-111014429D02*
X49605048Y-111252524D01*
X49605048Y-110633476D01*
X36127143Y-24320857D02*
X36174762Y-24368476D01*
X36222381Y-24511333D01*
X36222381Y-24606571D01*
X36174762Y-24749429D01*
X36079524Y-24844667D01*
X35984286Y-24892286D01*
X35793810Y-24939905D01*
X35650952Y-24939905D01*
X35460476Y-24892286D01*
X35365238Y-24844667D01*
X35270000Y-24749429D01*
X35222381Y-24606571D01*
X35222381Y-24511333D01*
X35270000Y-24368476D01*
X35317619Y-24320857D01*
X35317619Y-23939905D02*
X35270000Y-23892286D01*
X35222381Y-23797048D01*
X35222381Y-23558952D01*
X35270000Y-23463714D01*
X35317619Y-23416095D01*
X35412857Y-23368476D01*
X35508095Y-23368476D01*
X35650952Y-23416095D01*
X36222381Y-23987524D01*
X36222381Y-23368476D01*
X35222381Y-22463714D02*
X35222381Y-22939905D01*
X35698571Y-22987524D01*
X35650952Y-22939905D01*
X35603333Y-22844667D01*
X35603333Y-22606571D01*
X35650952Y-22511333D01*
X35698571Y-22463714D01*
X35793810Y-22416095D01*
X36031905Y-22416095D01*
X36127143Y-22463714D01*
X36174762Y-22511333D01*
X36222381Y-22606571D01*
X36222381Y-22844667D01*
X36174762Y-22939905D01*
X36127143Y-22987524D01*
X65762143Y-112783857D02*
X65809762Y-112831476D01*
X65857381Y-112974333D01*
X65857381Y-113069571D01*
X65809762Y-113212429D01*
X65714524Y-113307667D01*
X65619286Y-113355286D01*
X65428810Y-113402905D01*
X65285952Y-113402905D01*
X65095476Y-113355286D01*
X65000238Y-113307667D01*
X64905000Y-113212429D01*
X64857381Y-113069571D01*
X64857381Y-112974333D01*
X64905000Y-112831476D01*
X64952619Y-112783857D01*
X64952619Y-112402905D02*
X64905000Y-112355286D01*
X64857381Y-112260048D01*
X64857381Y-112021952D01*
X64905000Y-111926714D01*
X64952619Y-111879095D01*
X65047857Y-111831476D01*
X65143095Y-111831476D01*
X65285952Y-111879095D01*
X65857381Y-112450524D01*
X65857381Y-111831476D01*
X64857381Y-110974333D02*
X64857381Y-111164810D01*
X64905000Y-111260048D01*
X64952619Y-111307667D01*
X65095476Y-111402905D01*
X65285952Y-111450524D01*
X65666905Y-111450524D01*
X65762143Y-111402905D01*
X65809762Y-111355286D01*
X65857381Y-111260048D01*
X65857381Y-111069571D01*
X65809762Y-110974333D01*
X65762143Y-110926714D01*
X65666905Y-110879095D01*
X65428810Y-110879095D01*
X65333571Y-110926714D01*
X65285952Y-110974333D01*
X65238333Y-111069571D01*
X65238333Y-111260048D01*
X65285952Y-111355286D01*
X65333571Y-111402905D01*
X65428810Y-111450524D01*
X65508143Y-44076857D02*
X65555762Y-44124476D01*
X65603381Y-44267333D01*
X65603381Y-44362571D01*
X65555762Y-44505429D01*
X65460524Y-44600667D01*
X65365286Y-44648286D01*
X65174810Y-44695905D01*
X65031952Y-44695905D01*
X64841476Y-44648286D01*
X64746238Y-44600667D01*
X64651000Y-44505429D01*
X64603381Y-44362571D01*
X64603381Y-44267333D01*
X64651000Y-44124476D01*
X64698619Y-44076857D01*
X64698619Y-43695905D02*
X64651000Y-43648286D01*
X64603381Y-43553048D01*
X64603381Y-43314952D01*
X64651000Y-43219714D01*
X64698619Y-43172095D01*
X64793857Y-43124476D01*
X64889095Y-43124476D01*
X65031952Y-43172095D01*
X65603381Y-43743524D01*
X65603381Y-43124476D01*
X64603381Y-42791143D02*
X64603381Y-42124476D01*
X65603381Y-42553048D01*
X64702143Y-98996857D02*
X64749762Y-99044476D01*
X64797381Y-99187333D01*
X64797381Y-99282571D01*
X64749762Y-99425429D01*
X64654524Y-99520667D01*
X64559286Y-99568286D01*
X64368810Y-99615905D01*
X64225952Y-99615905D01*
X64035476Y-99568286D01*
X63940238Y-99520667D01*
X63845000Y-99425429D01*
X63797381Y-99282571D01*
X63797381Y-99187333D01*
X63845000Y-99044476D01*
X63892619Y-98996857D01*
X63892619Y-98615905D02*
X63845000Y-98568286D01*
X63797381Y-98473048D01*
X63797381Y-98234952D01*
X63845000Y-98139714D01*
X63892619Y-98092095D01*
X63987857Y-98044476D01*
X64083095Y-98044476D01*
X64225952Y-98092095D01*
X64797381Y-98663524D01*
X64797381Y-98044476D01*
X64225952Y-97473048D02*
X64178333Y-97568286D01*
X64130714Y-97615905D01*
X64035476Y-97663524D01*
X63987857Y-97663524D01*
X63892619Y-97615905D01*
X63845000Y-97568286D01*
X63797381Y-97473048D01*
X63797381Y-97282571D01*
X63845000Y-97187333D01*
X63892619Y-97139714D01*
X63987857Y-97092095D01*
X64035476Y-97092095D01*
X64130714Y-97139714D01*
X64178333Y-97187333D01*
X64225952Y-97282571D01*
X64225952Y-97473048D01*
X64273571Y-97568286D01*
X64321190Y-97615905D01*
X64416429Y-97663524D01*
X64606905Y-97663524D01*
X64702143Y-97615905D01*
X64749762Y-97568286D01*
X64797381Y-97473048D01*
X64797381Y-97282571D01*
X64749762Y-97187333D01*
X64702143Y-97139714D01*
X64606905Y-97092095D01*
X64416429Y-97092095D01*
X64321190Y-97139714D01*
X64273571Y-97187333D01*
X64225952Y-97282571D01*
X55066143Y-96552143D02*
X55018524Y-96599762D01*
X54875667Y-96647381D01*
X54780429Y-96647381D01*
X54637571Y-96599762D01*
X54542333Y-96504524D01*
X54494714Y-96409286D01*
X54447095Y-96218810D01*
X54447095Y-96075952D01*
X54494714Y-95885476D01*
X54542333Y-95790238D01*
X54637571Y-95695000D01*
X54780429Y-95647381D01*
X54875667Y-95647381D01*
X55018524Y-95695000D01*
X55066143Y-95742619D01*
X55447095Y-95742619D02*
X55494714Y-95695000D01*
X55589952Y-95647381D01*
X55828048Y-95647381D01*
X55923286Y-95695000D01*
X55970905Y-95742619D01*
X56018524Y-95837857D01*
X56018524Y-95933095D01*
X55970905Y-96075952D01*
X55399476Y-96647381D01*
X56018524Y-96647381D01*
X56494714Y-96647381D02*
X56685190Y-96647381D01*
X56780429Y-96599762D01*
X56828048Y-96552143D01*
X56923286Y-96409286D01*
X56970905Y-96218810D01*
X56970905Y-95837857D01*
X56923286Y-95742619D01*
X56875667Y-95695000D01*
X56780429Y-95647381D01*
X56589952Y-95647381D01*
X56494714Y-95695000D01*
X56447095Y-95742619D01*
X56399476Y-95837857D01*
X56399476Y-96075952D01*
X56447095Y-96171190D01*
X56494714Y-96218810D01*
X56589952Y-96266429D01*
X56780429Y-96266429D01*
X56875667Y-96218810D01*
X56923286Y-96171190D01*
X56970905Y-96075952D01*
X76065143Y-72366143D02*
X76017524Y-72413762D01*
X75874667Y-72461381D01*
X75779429Y-72461381D01*
X75636571Y-72413762D01*
X75541333Y-72318524D01*
X75493714Y-72223286D01*
X75446095Y-72032810D01*
X75446095Y-71889952D01*
X75493714Y-71699476D01*
X75541333Y-71604238D01*
X75636571Y-71509000D01*
X75779429Y-71461381D01*
X75874667Y-71461381D01*
X76017524Y-71509000D01*
X76065143Y-71556619D01*
X76398476Y-71461381D02*
X77017524Y-71461381D01*
X76684190Y-71842333D01*
X76827048Y-71842333D01*
X76922286Y-71889952D01*
X76969905Y-71937571D01*
X77017524Y-72032810D01*
X77017524Y-72270905D01*
X76969905Y-72366143D01*
X76922286Y-72413762D01*
X76827048Y-72461381D01*
X76541333Y-72461381D01*
X76446095Y-72413762D01*
X76398476Y-72366143D01*
X77969905Y-72461381D02*
X77398476Y-72461381D01*
X77684190Y-72461381D02*
X77684190Y-71461381D01*
X77588952Y-71604238D01*
X77493714Y-71699476D01*
X77398476Y-71747095D01*
X89654143Y-62714143D02*
X89606524Y-62761762D01*
X89463667Y-62809381D01*
X89368429Y-62809381D01*
X89225571Y-62761762D01*
X89130333Y-62666524D01*
X89082714Y-62571286D01*
X89035095Y-62380810D01*
X89035095Y-62237952D01*
X89082714Y-62047476D01*
X89130333Y-61952238D01*
X89225571Y-61857000D01*
X89368429Y-61809381D01*
X89463667Y-61809381D01*
X89606524Y-61857000D01*
X89654143Y-61904619D01*
X89987476Y-61809381D02*
X90606524Y-61809381D01*
X90273190Y-62190333D01*
X90416048Y-62190333D01*
X90511286Y-62237952D01*
X90558905Y-62285571D01*
X90606524Y-62380810D01*
X90606524Y-62618905D01*
X90558905Y-62714143D01*
X90511286Y-62761762D01*
X90416048Y-62809381D01*
X90130333Y-62809381D01*
X90035095Y-62761762D01*
X89987476Y-62714143D01*
X90987476Y-61904619D02*
X91035095Y-61857000D01*
X91130333Y-61809381D01*
X91368429Y-61809381D01*
X91463667Y-61857000D01*
X91511286Y-61904619D01*
X91558905Y-61999857D01*
X91558905Y-62095095D01*
X91511286Y-62237952D01*
X90939857Y-62809381D01*
X91558905Y-62809381D01*
X30710143Y-110497857D02*
X30757762Y-110545476D01*
X30805381Y-110688333D01*
X30805381Y-110783571D01*
X30757762Y-110926429D01*
X30662524Y-111021667D01*
X30567286Y-111069286D01*
X30376810Y-111116905D01*
X30233952Y-111116905D01*
X30043476Y-111069286D01*
X29948238Y-111021667D01*
X29853000Y-110926429D01*
X29805381Y-110783571D01*
X29805381Y-110688333D01*
X29853000Y-110545476D01*
X29900619Y-110497857D01*
X29805381Y-110164524D02*
X29805381Y-109545476D01*
X30186333Y-109878810D01*
X30186333Y-109735952D01*
X30233952Y-109640714D01*
X30281571Y-109593095D01*
X30376810Y-109545476D01*
X30614905Y-109545476D01*
X30710143Y-109593095D01*
X30757762Y-109640714D01*
X30805381Y-109735952D01*
X30805381Y-110021667D01*
X30757762Y-110116905D01*
X30710143Y-110164524D01*
X29805381Y-109212143D02*
X29805381Y-108593095D01*
X30186333Y-108926429D01*
X30186333Y-108783571D01*
X30233952Y-108688333D01*
X30281571Y-108640714D01*
X30376810Y-108593095D01*
X30614905Y-108593095D01*
X30710143Y-108640714D01*
X30757762Y-108688333D01*
X30805381Y-108783571D01*
X30805381Y-109069286D01*
X30757762Y-109164524D01*
X30710143Y-109212143D01*
X35254143Y-100108143D02*
X35206524Y-100155762D01*
X35063667Y-100203381D01*
X34968429Y-100203381D01*
X34825571Y-100155762D01*
X34730333Y-100060524D01*
X34682714Y-99965286D01*
X34635095Y-99774810D01*
X34635095Y-99631952D01*
X34682714Y-99441476D01*
X34730333Y-99346238D01*
X34825571Y-99251000D01*
X34968429Y-99203381D01*
X35063667Y-99203381D01*
X35206524Y-99251000D01*
X35254143Y-99298619D01*
X35587476Y-99203381D02*
X36206524Y-99203381D01*
X35873190Y-99584333D01*
X36016048Y-99584333D01*
X36111286Y-99631952D01*
X36158905Y-99679571D01*
X36206524Y-99774810D01*
X36206524Y-100012905D01*
X36158905Y-100108143D01*
X36111286Y-100155762D01*
X36016048Y-100203381D01*
X35730333Y-100203381D01*
X35635095Y-100155762D01*
X35587476Y-100108143D01*
X37063667Y-99536714D02*
X37063667Y-100203381D01*
X36825571Y-99155762D02*
X36587476Y-99870048D01*
X37206524Y-99870048D01*
X42902143Y-98305857D02*
X42949762Y-98353476D01*
X42997381Y-98496333D01*
X42997381Y-98591571D01*
X42949762Y-98734429D01*
X42854524Y-98829667D01*
X42759286Y-98877286D01*
X42568810Y-98924905D01*
X42425952Y-98924905D01*
X42235476Y-98877286D01*
X42140238Y-98829667D01*
X42045000Y-98734429D01*
X41997381Y-98591571D01*
X41997381Y-98496333D01*
X42045000Y-98353476D01*
X42092619Y-98305857D01*
X41997381Y-97972524D02*
X41997381Y-97353476D01*
X42378333Y-97686810D01*
X42378333Y-97543952D01*
X42425952Y-97448714D01*
X42473571Y-97401095D01*
X42568810Y-97353476D01*
X42806905Y-97353476D01*
X42902143Y-97401095D01*
X42949762Y-97448714D01*
X42997381Y-97543952D01*
X42997381Y-97829667D01*
X42949762Y-97924905D01*
X42902143Y-97972524D01*
X41997381Y-96448714D02*
X41997381Y-96924905D01*
X42473571Y-96972524D01*
X42425952Y-96924905D01*
X42378333Y-96829667D01*
X42378333Y-96591571D01*
X42425952Y-96496333D01*
X42473571Y-96448714D01*
X42568810Y-96401095D01*
X42806905Y-96401095D01*
X42902143Y-96448714D01*
X42949762Y-96496333D01*
X42997381Y-96591571D01*
X42997381Y-96829667D01*
X42949762Y-96924905D01*
X42902143Y-96972524D01*
X17375143Y-113545857D02*
X17422762Y-113593476D01*
X17470381Y-113736333D01*
X17470381Y-113831571D01*
X17422762Y-113974429D01*
X17327524Y-114069667D01*
X17232286Y-114117286D01*
X17041810Y-114164905D01*
X16898952Y-114164905D01*
X16708476Y-114117286D01*
X16613238Y-114069667D01*
X16518000Y-113974429D01*
X16470381Y-113831571D01*
X16470381Y-113736333D01*
X16518000Y-113593476D01*
X16565619Y-113545857D01*
X16470381Y-113212524D02*
X16470381Y-112593476D01*
X16851333Y-112926810D01*
X16851333Y-112783952D01*
X16898952Y-112688714D01*
X16946571Y-112641095D01*
X17041810Y-112593476D01*
X17279905Y-112593476D01*
X17375143Y-112641095D01*
X17422762Y-112688714D01*
X17470381Y-112783952D01*
X17470381Y-113069667D01*
X17422762Y-113164905D01*
X17375143Y-113212524D01*
X16470381Y-111736333D02*
X16470381Y-111926810D01*
X16518000Y-112022048D01*
X16565619Y-112069667D01*
X16708476Y-112164905D01*
X16898952Y-112212524D01*
X17279905Y-112212524D01*
X17375143Y-112164905D01*
X17422762Y-112117286D01*
X17470381Y-112022048D01*
X17470381Y-111831571D01*
X17422762Y-111736333D01*
X17375143Y-111688714D01*
X17279905Y-111641095D01*
X17041810Y-111641095D01*
X16946571Y-111688714D01*
X16898952Y-111736333D01*
X16851333Y-111831571D01*
X16851333Y-112022048D01*
X16898952Y-112117286D01*
X16946571Y-112164905D01*
X17041810Y-112212524D01*
X115562143Y-78208143D02*
X115514524Y-78255762D01*
X115371667Y-78303381D01*
X115276429Y-78303381D01*
X115133571Y-78255762D01*
X115038333Y-78160524D01*
X114990714Y-78065286D01*
X114943095Y-77874810D01*
X114943095Y-77731952D01*
X114990714Y-77541476D01*
X115038333Y-77446238D01*
X115133571Y-77351000D01*
X115276429Y-77303381D01*
X115371667Y-77303381D01*
X115514524Y-77351000D01*
X115562143Y-77398619D01*
X115895476Y-77303381D02*
X116514524Y-77303381D01*
X116181190Y-77684333D01*
X116324048Y-77684333D01*
X116419286Y-77731952D01*
X116466905Y-77779571D01*
X116514524Y-77874810D01*
X116514524Y-78112905D01*
X116466905Y-78208143D01*
X116419286Y-78255762D01*
X116324048Y-78303381D01*
X116038333Y-78303381D01*
X115943095Y-78255762D01*
X115895476Y-78208143D01*
X116847857Y-77303381D02*
X117514524Y-77303381D01*
X117085952Y-78303381D01*
X14470143Y-100687143D02*
X14422524Y-100734762D01*
X14279667Y-100782381D01*
X14184429Y-100782381D01*
X14041571Y-100734762D01*
X13946333Y-100639524D01*
X13898714Y-100544286D01*
X13851095Y-100353810D01*
X13851095Y-100210952D01*
X13898714Y-100020476D01*
X13946333Y-99925238D01*
X14041571Y-99830000D01*
X14184429Y-99782381D01*
X14279667Y-99782381D01*
X14422524Y-99830000D01*
X14470143Y-99877619D01*
X15327286Y-100115714D02*
X15327286Y-100782381D01*
X15089190Y-99734762D02*
X14851095Y-100449048D01*
X15470143Y-100449048D01*
X16041571Y-99782381D02*
X16136810Y-99782381D01*
X16232048Y-99830000D01*
X16279667Y-99877619D01*
X16327286Y-99972857D01*
X16374905Y-100163333D01*
X16374905Y-100401429D01*
X16327286Y-100591905D01*
X16279667Y-100687143D01*
X16232048Y-100734762D01*
X16136810Y-100782381D01*
X16041571Y-100782381D01*
X15946333Y-100734762D01*
X15898714Y-100687143D01*
X15851095Y-100591905D01*
X15803476Y-100401429D01*
X15803476Y-100163333D01*
X15851095Y-99972857D01*
X15898714Y-99877619D01*
X15946333Y-99830000D01*
X16041571Y-99782381D01*
X122757143Y-70390143D02*
X122709524Y-70437762D01*
X122566667Y-70485381D01*
X122471429Y-70485381D01*
X122328571Y-70437762D01*
X122233333Y-70342524D01*
X122185714Y-70247286D01*
X122138095Y-70056810D01*
X122138095Y-69913952D01*
X122185714Y-69723476D01*
X122233333Y-69628238D01*
X122328571Y-69533000D01*
X122471429Y-69485381D01*
X122566667Y-69485381D01*
X122709524Y-69533000D01*
X122757143Y-69580619D01*
X123614286Y-69818714D02*
X123614286Y-70485381D01*
X123376190Y-69437762D02*
X123138095Y-70152048D01*
X123757143Y-70152048D01*
X124661905Y-70485381D02*
X124090476Y-70485381D01*
X124376190Y-70485381D02*
X124376190Y-69485381D01*
X124280952Y-69628238D01*
X124185714Y-69723476D01*
X124090476Y-69771095D01*
X29396143Y-107251857D02*
X29443762Y-107299476D01*
X29491381Y-107442333D01*
X29491381Y-107537571D01*
X29443762Y-107680429D01*
X29348524Y-107775667D01*
X29253286Y-107823286D01*
X29062810Y-107870905D01*
X28919952Y-107870905D01*
X28729476Y-107823286D01*
X28634238Y-107775667D01*
X28539000Y-107680429D01*
X28491381Y-107537571D01*
X28491381Y-107442333D01*
X28539000Y-107299476D01*
X28586619Y-107251857D01*
X28824714Y-106394714D02*
X29491381Y-106394714D01*
X28443762Y-106632810D02*
X29158048Y-106870905D01*
X29158048Y-106251857D01*
X28586619Y-105918524D02*
X28539000Y-105870905D01*
X28491381Y-105775667D01*
X28491381Y-105537571D01*
X28539000Y-105442333D01*
X28586619Y-105394714D01*
X28681857Y-105347095D01*
X28777095Y-105347095D01*
X28919952Y-105394714D01*
X29491381Y-105966143D01*
X29491381Y-105347095D01*
X127357143Y-82684857D02*
X127404762Y-82732476D01*
X127452381Y-82875333D01*
X127452381Y-82970571D01*
X127404762Y-83113429D01*
X127309524Y-83208667D01*
X127214286Y-83256286D01*
X127023810Y-83303905D01*
X126880952Y-83303905D01*
X126690476Y-83256286D01*
X126595238Y-83208667D01*
X126500000Y-83113429D01*
X126452381Y-82970571D01*
X126452381Y-82875333D01*
X126500000Y-82732476D01*
X126547619Y-82684857D01*
X126785714Y-81827714D02*
X127452381Y-81827714D01*
X126404762Y-82065810D02*
X127119048Y-82303905D01*
X127119048Y-81684857D01*
X126452381Y-81399143D02*
X126452381Y-80780095D01*
X126833333Y-81113429D01*
X126833333Y-80970571D01*
X126880952Y-80875333D01*
X126928571Y-80827714D01*
X127023810Y-80780095D01*
X127261905Y-80780095D01*
X127357143Y-80827714D01*
X127404762Y-80875333D01*
X127452381Y-80970571D01*
X127452381Y-81256286D01*
X127404762Y-81351524D01*
X127357143Y-81399143D01*
X128008143Y-70334143D02*
X127960524Y-70381762D01*
X127817667Y-70429381D01*
X127722429Y-70429381D01*
X127579571Y-70381762D01*
X127484333Y-70286524D01*
X127436714Y-70191286D01*
X127389095Y-70000810D01*
X127389095Y-69857952D01*
X127436714Y-69667476D01*
X127484333Y-69572238D01*
X127579571Y-69477000D01*
X127722429Y-69429381D01*
X127817667Y-69429381D01*
X127960524Y-69477000D01*
X128008143Y-69524619D01*
X128865286Y-69762714D02*
X128865286Y-70429381D01*
X128627190Y-69381762D02*
X128389095Y-70096048D01*
X129008143Y-70096048D01*
X129817667Y-69762714D02*
X129817667Y-70429381D01*
X129579571Y-69381762D02*
X129341476Y-70096048D01*
X129960524Y-70096048D01*
X115562143Y-62460143D02*
X115514524Y-62507762D01*
X115371667Y-62555381D01*
X115276429Y-62555381D01*
X115133571Y-62507762D01*
X115038333Y-62412524D01*
X114990714Y-62317286D01*
X114943095Y-62126810D01*
X114943095Y-61983952D01*
X114990714Y-61793476D01*
X115038333Y-61698238D01*
X115133571Y-61603000D01*
X115276429Y-61555381D01*
X115371667Y-61555381D01*
X115514524Y-61603000D01*
X115562143Y-61650619D01*
X116419286Y-61888714D02*
X116419286Y-62555381D01*
X116181190Y-61507762D02*
X115943095Y-62222048D01*
X116562143Y-62222048D01*
X117419286Y-61555381D02*
X116943095Y-61555381D01*
X116895476Y-62031571D01*
X116943095Y-61983952D01*
X117038333Y-61936333D01*
X117276429Y-61936333D01*
X117371667Y-61983952D01*
X117419286Y-62031571D01*
X117466905Y-62126810D01*
X117466905Y-62364905D01*
X117419286Y-62460143D01*
X117371667Y-62507762D01*
X117276429Y-62555381D01*
X117038333Y-62555381D01*
X116943095Y-62507762D01*
X116895476Y-62460143D01*
X25983143Y-100870143D02*
X25935524Y-100917762D01*
X25792667Y-100965381D01*
X25697429Y-100965381D01*
X25554571Y-100917762D01*
X25459333Y-100822524D01*
X25411714Y-100727286D01*
X25364095Y-100536810D01*
X25364095Y-100393952D01*
X25411714Y-100203476D01*
X25459333Y-100108238D01*
X25554571Y-100013000D01*
X25697429Y-99965381D01*
X25792667Y-99965381D01*
X25935524Y-100013000D01*
X25983143Y-100060619D01*
X26840286Y-100298714D02*
X26840286Y-100965381D01*
X26602190Y-99917762D02*
X26364095Y-100632048D01*
X26983143Y-100632048D01*
X27792667Y-99965381D02*
X27602190Y-99965381D01*
X27506952Y-100013000D01*
X27459333Y-100060619D01*
X27364095Y-100203476D01*
X27316476Y-100393952D01*
X27316476Y-100774905D01*
X27364095Y-100870143D01*
X27411714Y-100917762D01*
X27506952Y-100965381D01*
X27697429Y-100965381D01*
X27792667Y-100917762D01*
X27840286Y-100870143D01*
X27887905Y-100774905D01*
X27887905Y-100536810D01*
X27840286Y-100441571D01*
X27792667Y-100393952D01*
X27697429Y-100346333D01*
X27506952Y-100346333D01*
X27411714Y-100393952D01*
X27364095Y-100441571D01*
X27316476Y-100536810D01*
X121642143Y-86621857D02*
X121689762Y-86669476D01*
X121737381Y-86812333D01*
X121737381Y-86907571D01*
X121689762Y-87050429D01*
X121594524Y-87145667D01*
X121499286Y-87193286D01*
X121308810Y-87240905D01*
X121165952Y-87240905D01*
X120975476Y-87193286D01*
X120880238Y-87145667D01*
X120785000Y-87050429D01*
X120737381Y-86907571D01*
X120737381Y-86812333D01*
X120785000Y-86669476D01*
X120832619Y-86621857D01*
X121070714Y-85764714D02*
X121737381Y-85764714D01*
X120689762Y-86002810D02*
X121404048Y-86240905D01*
X121404048Y-85621857D01*
X120737381Y-85336143D02*
X120737381Y-84669476D01*
X121737381Y-85098048D01*
X84685143Y-108465857D02*
X84732762Y-108513476D01*
X84780381Y-108656333D01*
X84780381Y-108751571D01*
X84732762Y-108894429D01*
X84637524Y-108989667D01*
X84542286Y-109037286D01*
X84351810Y-109084905D01*
X84208952Y-109084905D01*
X84018476Y-109037286D01*
X83923238Y-108989667D01*
X83828000Y-108894429D01*
X83780381Y-108751571D01*
X83780381Y-108656333D01*
X83828000Y-108513476D01*
X83875619Y-108465857D01*
X84113714Y-107608714D02*
X84780381Y-107608714D01*
X83732762Y-107846810D02*
X84447048Y-108084905D01*
X84447048Y-107465857D01*
X84208952Y-106942048D02*
X84161333Y-107037286D01*
X84113714Y-107084905D01*
X84018476Y-107132524D01*
X83970857Y-107132524D01*
X83875619Y-107084905D01*
X83828000Y-107037286D01*
X83780381Y-106942048D01*
X83780381Y-106751571D01*
X83828000Y-106656333D01*
X83875619Y-106608714D01*
X83970857Y-106561095D01*
X84018476Y-106561095D01*
X84113714Y-106608714D01*
X84161333Y-106656333D01*
X84208952Y-106751571D01*
X84208952Y-106942048D01*
X84256571Y-107037286D01*
X84304190Y-107084905D01*
X84399429Y-107132524D01*
X84589905Y-107132524D01*
X84685143Y-107084905D01*
X84732762Y-107037286D01*
X84780381Y-106942048D01*
X84780381Y-106751571D01*
X84732762Y-106656333D01*
X84685143Y-106608714D01*
X84589905Y-106561095D01*
X84399429Y-106561095D01*
X84304190Y-106608714D01*
X84256571Y-106656333D01*
X84208952Y-106751571D01*
X84387143Y-97091857D02*
X84434762Y-97139476D01*
X84482381Y-97282333D01*
X84482381Y-97377571D01*
X84434762Y-97520429D01*
X84339524Y-97615667D01*
X84244286Y-97663286D01*
X84053810Y-97710905D01*
X83910952Y-97710905D01*
X83720476Y-97663286D01*
X83625238Y-97615667D01*
X83530000Y-97520429D01*
X83482381Y-97377571D01*
X83482381Y-97282333D01*
X83530000Y-97139476D01*
X83577619Y-97091857D01*
X83815714Y-96234714D02*
X84482381Y-96234714D01*
X83434762Y-96472810D02*
X84149048Y-96710905D01*
X84149048Y-96091857D01*
X84482381Y-95663286D02*
X84482381Y-95472810D01*
X84434762Y-95377571D01*
X84387143Y-95329952D01*
X84244286Y-95234714D01*
X84053810Y-95187095D01*
X83672857Y-95187095D01*
X83577619Y-95234714D01*
X83530000Y-95282333D01*
X83482381Y-95377571D01*
X83482381Y-95568048D01*
X83530000Y-95663286D01*
X83577619Y-95710905D01*
X83672857Y-95758524D01*
X83910952Y-95758524D01*
X84006190Y-95710905D01*
X84053810Y-95663286D01*
X84101429Y-95568048D01*
X84101429Y-95377571D01*
X84053810Y-95282333D01*
X84006190Y-95234714D01*
X83910952Y-95187095D01*
X84260143Y-85661857D02*
X84307762Y-85709476D01*
X84355381Y-85852333D01*
X84355381Y-85947571D01*
X84307762Y-86090429D01*
X84212524Y-86185667D01*
X84117286Y-86233286D01*
X83926810Y-86280905D01*
X83783952Y-86280905D01*
X83593476Y-86233286D01*
X83498238Y-86185667D01*
X83403000Y-86090429D01*
X83355381Y-85947571D01*
X83355381Y-85852333D01*
X83403000Y-85709476D01*
X83450619Y-85661857D01*
X83355381Y-84757095D02*
X83355381Y-85233286D01*
X83831571Y-85280905D01*
X83783952Y-85233286D01*
X83736333Y-85138048D01*
X83736333Y-84899952D01*
X83783952Y-84804714D01*
X83831571Y-84757095D01*
X83926810Y-84709476D01*
X84164905Y-84709476D01*
X84260143Y-84757095D01*
X84307762Y-84804714D01*
X84355381Y-84899952D01*
X84355381Y-85138048D01*
X84307762Y-85233286D01*
X84260143Y-85280905D01*
X83355381Y-84090429D02*
X83355381Y-83995190D01*
X83403000Y-83899952D01*
X83450619Y-83852333D01*
X83545857Y-83804714D01*
X83736333Y-83757095D01*
X83974429Y-83757095D01*
X84164905Y-83804714D01*
X84260143Y-83852333D01*
X84307762Y-83899952D01*
X84355381Y-83995190D01*
X84355381Y-84090429D01*
X84307762Y-84185667D01*
X84260143Y-84233286D01*
X84164905Y-84280905D01*
X83974429Y-84328524D01*
X83736333Y-84328524D01*
X83545857Y-84280905D01*
X83450619Y-84233286D01*
X83403000Y-84185667D01*
X83355381Y-84090429D01*
X108898143Y-110934857D02*
X108945762Y-110982476D01*
X108993381Y-111125333D01*
X108993381Y-111220571D01*
X108945762Y-111363429D01*
X108850524Y-111458667D01*
X108755286Y-111506286D01*
X108564810Y-111553905D01*
X108421952Y-111553905D01*
X108231476Y-111506286D01*
X108136238Y-111458667D01*
X108041000Y-111363429D01*
X107993381Y-111220571D01*
X107993381Y-111125333D01*
X108041000Y-110982476D01*
X108088619Y-110934857D01*
X107993381Y-110030095D02*
X107993381Y-110506286D01*
X108469571Y-110553905D01*
X108421952Y-110506286D01*
X108374333Y-110411048D01*
X108374333Y-110172952D01*
X108421952Y-110077714D01*
X108469571Y-110030095D01*
X108564810Y-109982476D01*
X108802905Y-109982476D01*
X108898143Y-110030095D01*
X108945762Y-110077714D01*
X108993381Y-110172952D01*
X108993381Y-110411048D01*
X108945762Y-110506286D01*
X108898143Y-110553905D01*
X108993381Y-109030095D02*
X108993381Y-109601524D01*
X108993381Y-109315810D02*
X107993381Y-109315810D01*
X108136238Y-109411048D01*
X108231476Y-109506286D01*
X108279095Y-109601524D01*
X108771143Y-97980857D02*
X108818762Y-98028476D01*
X108866381Y-98171333D01*
X108866381Y-98266571D01*
X108818762Y-98409429D01*
X108723524Y-98504667D01*
X108628286Y-98552286D01*
X108437810Y-98599905D01*
X108294952Y-98599905D01*
X108104476Y-98552286D01*
X108009238Y-98504667D01*
X107914000Y-98409429D01*
X107866381Y-98266571D01*
X107866381Y-98171333D01*
X107914000Y-98028476D01*
X107961619Y-97980857D01*
X107866381Y-97076095D02*
X107866381Y-97552286D01*
X108342571Y-97599905D01*
X108294952Y-97552286D01*
X108247333Y-97457048D01*
X108247333Y-97218952D01*
X108294952Y-97123714D01*
X108342571Y-97076095D01*
X108437810Y-97028476D01*
X108675905Y-97028476D01*
X108771143Y-97076095D01*
X108818762Y-97123714D01*
X108866381Y-97218952D01*
X108866381Y-97457048D01*
X108818762Y-97552286D01*
X108771143Y-97599905D01*
X107961619Y-96647524D02*
X107914000Y-96599905D01*
X107866381Y-96504667D01*
X107866381Y-96266571D01*
X107914000Y-96171333D01*
X107961619Y-96123714D01*
X108056857Y-96076095D01*
X108152095Y-96076095D01*
X108294952Y-96123714D01*
X108866381Y-96695143D01*
X108866381Y-96076095D01*
X101830143Y-98940857D02*
X101877762Y-98988476D01*
X101925381Y-99131333D01*
X101925381Y-99226571D01*
X101877762Y-99369429D01*
X101782524Y-99464667D01*
X101687286Y-99512286D01*
X101496810Y-99559905D01*
X101353952Y-99559905D01*
X101163476Y-99512286D01*
X101068238Y-99464667D01*
X100973000Y-99369429D01*
X100925381Y-99226571D01*
X100925381Y-99131333D01*
X100973000Y-98988476D01*
X101020619Y-98940857D01*
X100925381Y-98036095D02*
X100925381Y-98512286D01*
X101401571Y-98559905D01*
X101353952Y-98512286D01*
X101306333Y-98417048D01*
X101306333Y-98178952D01*
X101353952Y-98083714D01*
X101401571Y-98036095D01*
X101496810Y-97988476D01*
X101734905Y-97988476D01*
X101830143Y-98036095D01*
X101877762Y-98083714D01*
X101925381Y-98178952D01*
X101925381Y-98417048D01*
X101877762Y-98512286D01*
X101830143Y-98559905D01*
X100925381Y-97655143D02*
X100925381Y-97036095D01*
X101306333Y-97369429D01*
X101306333Y-97226571D01*
X101353952Y-97131333D01*
X101401571Y-97083714D01*
X101496810Y-97036095D01*
X101734905Y-97036095D01*
X101830143Y-97083714D01*
X101877762Y-97131333D01*
X101925381Y-97226571D01*
X101925381Y-97512286D01*
X101877762Y-97607524D01*
X101830143Y-97655143D01*
X106120143Y-118523143D02*
X106072524Y-118570762D01*
X105929667Y-118618381D01*
X105834429Y-118618381D01*
X105691571Y-118570762D01*
X105596333Y-118475524D01*
X105548714Y-118380286D01*
X105501095Y-118189810D01*
X105501095Y-118046952D01*
X105548714Y-117856476D01*
X105596333Y-117761238D01*
X105691571Y-117666000D01*
X105834429Y-117618381D01*
X105929667Y-117618381D01*
X106072524Y-117666000D01*
X106120143Y-117713619D01*
X107024905Y-117618381D02*
X106548714Y-117618381D01*
X106501095Y-118094571D01*
X106548714Y-118046952D01*
X106643952Y-117999333D01*
X106882048Y-117999333D01*
X106977286Y-118046952D01*
X107024905Y-118094571D01*
X107072524Y-118189810D01*
X107072524Y-118427905D01*
X107024905Y-118523143D01*
X106977286Y-118570762D01*
X106882048Y-118618381D01*
X106643952Y-118618381D01*
X106548714Y-118570762D01*
X106501095Y-118523143D01*
X107929667Y-117951714D02*
X107929667Y-118618381D01*
X107691571Y-117570762D02*
X107453476Y-118285048D01*
X108072524Y-118285048D01*
X46715905Y-28067381D02*
X46715905Y-27067381D01*
X46954000Y-27067381D01*
X47096858Y-27115000D01*
X47192096Y-27210238D01*
X47239715Y-27305476D01*
X47287334Y-27495952D01*
X47287334Y-27638810D01*
X47239715Y-27829286D01*
X47192096Y-27924524D01*
X47096858Y-28019762D01*
X46954000Y-28067381D01*
X46715905Y-28067381D01*
X48239715Y-28067381D02*
X47668286Y-28067381D01*
X47954000Y-28067381D02*
X47954000Y-27067381D01*
X47858762Y-27210238D01*
X47763524Y-27305476D01*
X47668286Y-27353095D01*
X30297381Y-31980095D02*
X29297381Y-31980095D01*
X29297381Y-31742000D01*
X29345000Y-31599142D01*
X29440238Y-31503904D01*
X29535476Y-31456285D01*
X29725952Y-31408666D01*
X29868810Y-31408666D01*
X30059286Y-31456285D01*
X30154524Y-31503904D01*
X30249762Y-31599142D01*
X30297381Y-31742000D01*
X30297381Y-31980095D01*
X29392619Y-31027714D02*
X29345000Y-30980095D01*
X29297381Y-30884857D01*
X29297381Y-30646761D01*
X29345000Y-30551523D01*
X29392619Y-30503904D01*
X29487857Y-30456285D01*
X29583095Y-30456285D01*
X29725952Y-30503904D01*
X30297381Y-31075333D01*
X30297381Y-30456285D01*
X46775810Y-61793381D02*
X46775810Y-60793381D01*
X47823429Y-61698143D02*
X47775810Y-61745762D01*
X47632953Y-61793381D01*
X47537715Y-61793381D01*
X47394857Y-61745762D01*
X47299619Y-61650524D01*
X47252000Y-61555286D01*
X47204381Y-61364810D01*
X47204381Y-61221952D01*
X47252000Y-61031476D01*
X47299619Y-60936238D01*
X47394857Y-60841000D01*
X47537715Y-60793381D01*
X47632953Y-60793381D01*
X47775810Y-60841000D01*
X47823429Y-60888619D01*
X48680572Y-61126714D02*
X48680572Y-61793381D01*
X48442476Y-60745762D02*
X48204381Y-61460048D01*
X48823429Y-61460048D01*
X101258810Y-69794381D02*
X101258810Y-68794381D01*
X102306429Y-69699143D02*
X102258810Y-69746762D01*
X102115953Y-69794381D01*
X102020715Y-69794381D01*
X101877857Y-69746762D01*
X101782619Y-69651524D01*
X101735000Y-69556286D01*
X101687381Y-69365810D01*
X101687381Y-69222952D01*
X101735000Y-69032476D01*
X101782619Y-68937238D01*
X101877857Y-68842000D01*
X102020715Y-68794381D01*
X102115953Y-68794381D01*
X102258810Y-68842000D01*
X102306429Y-68889619D01*
X103211191Y-68794381D02*
X102735000Y-68794381D01*
X102687381Y-69270571D01*
X102735000Y-69222952D01*
X102830238Y-69175333D01*
X103068334Y-69175333D01*
X103163572Y-69222952D01*
X103211191Y-69270571D01*
X103258810Y-69365810D01*
X103258810Y-69603905D01*
X103211191Y-69699143D01*
X103163572Y-69746762D01*
X103068334Y-69794381D01*
X102830238Y-69794381D01*
X102735000Y-69746762D01*
X102687381Y-69699143D01*
X20264381Y-107783190D02*
X19264381Y-107783190D01*
X20169143Y-106735571D02*
X20216762Y-106783190D01*
X20264381Y-106926047D01*
X20264381Y-107021285D01*
X20216762Y-107164143D01*
X20121524Y-107259381D01*
X20026286Y-107307000D01*
X19835810Y-107354619D01*
X19692952Y-107354619D01*
X19502476Y-107307000D01*
X19407238Y-107259381D01*
X19312000Y-107164143D01*
X19264381Y-107021285D01*
X19264381Y-106926047D01*
X19312000Y-106783190D01*
X19359619Y-106735571D01*
X20264381Y-106259381D02*
X20264381Y-106068905D01*
X20216762Y-105973666D01*
X20169143Y-105926047D01*
X20026286Y-105830809D01*
X19835810Y-105783190D01*
X19454857Y-105783190D01*
X19359619Y-105830809D01*
X19312000Y-105878428D01*
X19264381Y-105973666D01*
X19264381Y-106164143D01*
X19312000Y-106259381D01*
X19359619Y-106307000D01*
X19454857Y-106354619D01*
X19692952Y-106354619D01*
X19788190Y-106307000D01*
X19835810Y-106259381D01*
X19883429Y-106164143D01*
X19883429Y-105973666D01*
X19835810Y-105878428D01*
X19788190Y-105830809D01*
X19692952Y-105783190D01*
X118264381Y-81518381D02*
X117264381Y-81518381D01*
X118169143Y-80470762D02*
X118216762Y-80518381D01*
X118264381Y-80661238D01*
X118264381Y-80756476D01*
X118216762Y-80899334D01*
X118121524Y-80994572D01*
X118026286Y-81042191D01*
X117835810Y-81089810D01*
X117692952Y-81089810D01*
X117502476Y-81042191D01*
X117407238Y-80994572D01*
X117312000Y-80899334D01*
X117264381Y-80756476D01*
X117264381Y-80661238D01*
X117312000Y-80518381D01*
X117359619Y-80470762D01*
X118264381Y-79518381D02*
X118264381Y-80089810D01*
X118264381Y-79804096D02*
X117264381Y-79804096D01*
X117407238Y-79899334D01*
X117502476Y-79994572D01*
X117550095Y-80089810D01*
X117264381Y-78899334D02*
X117264381Y-78804095D01*
X117312000Y-78708857D01*
X117359619Y-78661238D01*
X117454857Y-78613619D01*
X117645333Y-78566000D01*
X117883429Y-78566000D01*
X118073905Y-78613619D01*
X118169143Y-78661238D01*
X118216762Y-78708857D01*
X118264381Y-78804095D01*
X118264381Y-78899334D01*
X118216762Y-78994572D01*
X118169143Y-79042191D01*
X118073905Y-79089810D01*
X117883429Y-79137429D01*
X117645333Y-79137429D01*
X117454857Y-79089810D01*
X117359619Y-79042191D01*
X117312000Y-78994572D01*
X117264381Y-78899334D01*
X39127381Y-104195381D02*
X38127381Y-104195381D01*
X39032143Y-103147762D02*
X39079762Y-103195381D01*
X39127381Y-103338238D01*
X39127381Y-103433476D01*
X39079762Y-103576334D01*
X38984524Y-103671572D01*
X38889286Y-103719191D01*
X38698810Y-103766810D01*
X38555952Y-103766810D01*
X38365476Y-103719191D01*
X38270238Y-103671572D01*
X38175000Y-103576334D01*
X38127381Y-103433476D01*
X38127381Y-103338238D01*
X38175000Y-103195381D01*
X38222619Y-103147762D01*
X39127381Y-102195381D02*
X39127381Y-102766810D01*
X39127381Y-102481096D02*
X38127381Y-102481096D01*
X38270238Y-102576334D01*
X38365476Y-102671572D01*
X38413095Y-102766810D01*
X38127381Y-101338238D02*
X38127381Y-101528715D01*
X38175000Y-101623953D01*
X38222619Y-101671572D01*
X38365476Y-101766810D01*
X38555952Y-101814429D01*
X38936905Y-101814429D01*
X39032143Y-101766810D01*
X39079762Y-101719191D01*
X39127381Y-101623953D01*
X39127381Y-101433476D01*
X39079762Y-101338238D01*
X39032143Y-101290619D01*
X38936905Y-101243000D01*
X38698810Y-101243000D01*
X38603571Y-101290619D01*
X38555952Y-101338238D01*
X38508333Y-101433476D01*
X38508333Y-101623953D01*
X38555952Y-101719191D01*
X38603571Y-101766810D01*
X38698810Y-101814429D01*
X98960381Y-38195666D02*
X98484190Y-38529000D01*
X98960381Y-38767095D02*
X97960381Y-38767095D01*
X97960381Y-38386142D01*
X98008000Y-38290904D01*
X98055619Y-38243285D01*
X98150857Y-38195666D01*
X98293714Y-38195666D01*
X98388952Y-38243285D01*
X98436571Y-38290904D01*
X98484190Y-38386142D01*
X98484190Y-38767095D01*
X98960381Y-37243285D02*
X98960381Y-37814714D01*
X98960381Y-37529000D02*
X97960381Y-37529000D01*
X98103238Y-37624238D01*
X98198476Y-37719476D01*
X98246095Y-37814714D01*
X98960381Y-34893666D02*
X98484190Y-35227000D01*
X98960381Y-35465095D02*
X97960381Y-35465095D01*
X97960381Y-35084142D01*
X98008000Y-34988904D01*
X98055619Y-34941285D01*
X98150857Y-34893666D01*
X98293714Y-34893666D01*
X98388952Y-34941285D01*
X98436571Y-34988904D01*
X98484190Y-35084142D01*
X98484190Y-35465095D01*
X98055619Y-34512714D02*
X98008000Y-34465095D01*
X97960381Y-34369857D01*
X97960381Y-34131761D01*
X98008000Y-34036523D01*
X98055619Y-33988904D01*
X98150857Y-33941285D01*
X98246095Y-33941285D01*
X98388952Y-33988904D01*
X98960381Y-34560333D01*
X98960381Y-33941285D01*
X27773334Y-40457381D02*
X27440000Y-39981190D01*
X27201905Y-40457381D02*
X27201905Y-39457381D01*
X27582858Y-39457381D01*
X27678096Y-39505000D01*
X27725715Y-39552619D01*
X27773334Y-39647857D01*
X27773334Y-39790714D01*
X27725715Y-39885952D01*
X27678096Y-39933571D01*
X27582858Y-39981190D01*
X27201905Y-39981190D01*
X28106667Y-39457381D02*
X28725715Y-39457381D01*
X28392381Y-39838333D01*
X28535239Y-39838333D01*
X28630477Y-39885952D01*
X28678096Y-39933571D01*
X28725715Y-40028810D01*
X28725715Y-40266905D01*
X28678096Y-40362143D01*
X28630477Y-40409762D01*
X28535239Y-40457381D01*
X28249524Y-40457381D01*
X28154286Y-40409762D01*
X28106667Y-40362143D01*
X85895334Y-76708381D02*
X85562000Y-76232190D01*
X85323905Y-76708381D02*
X85323905Y-75708381D01*
X85704858Y-75708381D01*
X85800096Y-75756000D01*
X85847715Y-75803619D01*
X85895334Y-75898857D01*
X85895334Y-76041714D01*
X85847715Y-76136952D01*
X85800096Y-76184571D01*
X85704858Y-76232190D01*
X85323905Y-76232190D01*
X86800096Y-75708381D02*
X86323905Y-75708381D01*
X86276286Y-76184571D01*
X86323905Y-76136952D01*
X86419143Y-76089333D01*
X86657239Y-76089333D01*
X86752477Y-76136952D01*
X86800096Y-76184571D01*
X86847715Y-76279810D01*
X86847715Y-76517905D01*
X86800096Y-76613143D01*
X86752477Y-76660762D01*
X86657239Y-76708381D01*
X86419143Y-76708381D01*
X86323905Y-76660762D01*
X86276286Y-76613143D01*
X67127381Y-67984666D02*
X66651190Y-68318000D01*
X67127381Y-68556095D02*
X66127381Y-68556095D01*
X66127381Y-68175142D01*
X66175000Y-68079904D01*
X66222619Y-68032285D01*
X66317857Y-67984666D01*
X66460714Y-67984666D01*
X66555952Y-68032285D01*
X66603571Y-68079904D01*
X66651190Y-68175142D01*
X66651190Y-68556095D01*
X66127381Y-67127523D02*
X66127381Y-67318000D01*
X66175000Y-67413238D01*
X66222619Y-67460857D01*
X66365476Y-67556095D01*
X66555952Y-67603714D01*
X66936905Y-67603714D01*
X67032143Y-67556095D01*
X67079762Y-67508476D01*
X67127381Y-67413238D01*
X67127381Y-67222761D01*
X67079762Y-67127523D01*
X67032143Y-67079904D01*
X66936905Y-67032285D01*
X66698810Y-67032285D01*
X66603571Y-67079904D01*
X66555952Y-67127523D01*
X66508333Y-67222761D01*
X66508333Y-67413238D01*
X66555952Y-67508476D01*
X66603571Y-67556095D01*
X66698810Y-67603714D01*
X90130334Y-71191381D02*
X89797000Y-70715190D01*
X89558905Y-71191381D02*
X89558905Y-70191381D01*
X89939858Y-70191381D01*
X90035096Y-70239000D01*
X90082715Y-70286619D01*
X90130334Y-70381857D01*
X90130334Y-70524714D01*
X90082715Y-70619952D01*
X90035096Y-70667571D01*
X89939858Y-70715190D01*
X89558905Y-70715190D01*
X90463667Y-70191381D02*
X91130334Y-70191381D01*
X90701762Y-71191381D01*
X99512381Y-70778666D02*
X99036190Y-71112000D01*
X99512381Y-71350095D02*
X98512381Y-71350095D01*
X98512381Y-70969142D01*
X98560000Y-70873904D01*
X98607619Y-70826285D01*
X98702857Y-70778666D01*
X98845714Y-70778666D01*
X98940952Y-70826285D01*
X98988571Y-70873904D01*
X99036190Y-70969142D01*
X99036190Y-71350095D01*
X98940952Y-70207238D02*
X98893333Y-70302476D01*
X98845714Y-70350095D01*
X98750476Y-70397714D01*
X98702857Y-70397714D01*
X98607619Y-70350095D01*
X98560000Y-70302476D01*
X98512381Y-70207238D01*
X98512381Y-70016761D01*
X98560000Y-69921523D01*
X98607619Y-69873904D01*
X98702857Y-69826285D01*
X98750476Y-69826285D01*
X98845714Y-69873904D01*
X98893333Y-69921523D01*
X98940952Y-70016761D01*
X98940952Y-70207238D01*
X98988571Y-70302476D01*
X99036190Y-70350095D01*
X99131429Y-70397714D01*
X99321905Y-70397714D01*
X99417143Y-70350095D01*
X99464762Y-70302476D01*
X99512381Y-70207238D01*
X99512381Y-70016761D01*
X99464762Y-69921523D01*
X99417143Y-69873904D01*
X99321905Y-69826285D01*
X99131429Y-69826285D01*
X99036190Y-69873904D01*
X98988571Y-69921523D01*
X98940952Y-70016761D01*
X49938381Y-109188666D02*
X49462190Y-109522000D01*
X49938381Y-109760095D02*
X48938381Y-109760095D01*
X48938381Y-109379142D01*
X48986000Y-109283904D01*
X49033619Y-109236285D01*
X49128857Y-109188666D01*
X49271714Y-109188666D01*
X49366952Y-109236285D01*
X49414571Y-109283904D01*
X49462190Y-109379142D01*
X49462190Y-109760095D01*
X49938381Y-108712476D02*
X49938381Y-108522000D01*
X49890762Y-108426761D01*
X49843143Y-108379142D01*
X49700286Y-108283904D01*
X49509810Y-108236285D01*
X49128857Y-108236285D01*
X49033619Y-108283904D01*
X48986000Y-108331523D01*
X48938381Y-108426761D01*
X48938381Y-108617238D01*
X48986000Y-108712476D01*
X49033619Y-108760095D01*
X49128857Y-108807714D01*
X49366952Y-108807714D01*
X49462190Y-108760095D01*
X49509810Y-108712476D01*
X49557429Y-108617238D01*
X49557429Y-108426761D01*
X49509810Y-108331523D01*
X49462190Y-108283904D01*
X49366952Y-108236285D01*
X49938381Y-106362857D02*
X49462190Y-106696191D01*
X49938381Y-106934286D02*
X48938381Y-106934286D01*
X48938381Y-106553333D01*
X48986000Y-106458095D01*
X49033619Y-106410476D01*
X49128857Y-106362857D01*
X49271714Y-106362857D01*
X49366952Y-106410476D01*
X49414571Y-106458095D01*
X49462190Y-106553333D01*
X49462190Y-106934286D01*
X49938381Y-105410476D02*
X49938381Y-105981905D01*
X49938381Y-105696191D02*
X48938381Y-105696191D01*
X49081238Y-105791429D01*
X49176476Y-105886667D01*
X49224095Y-105981905D01*
X48938381Y-104791429D02*
X48938381Y-104696190D01*
X48986000Y-104600952D01*
X49033619Y-104553333D01*
X49128857Y-104505714D01*
X49319333Y-104458095D01*
X49557429Y-104458095D01*
X49747905Y-104505714D01*
X49843143Y-104553333D01*
X49890762Y-104600952D01*
X49938381Y-104696190D01*
X49938381Y-104791429D01*
X49890762Y-104886667D01*
X49843143Y-104934286D01*
X49747905Y-104981905D01*
X49557429Y-105029524D01*
X49319333Y-105029524D01*
X49128857Y-104981905D01*
X49033619Y-104934286D01*
X48986000Y-104886667D01*
X48938381Y-104791429D01*
X51764143Y-96647381D02*
X51430809Y-96171190D01*
X51192714Y-96647381D02*
X51192714Y-95647381D01*
X51573667Y-95647381D01*
X51668905Y-95695000D01*
X51716524Y-95742619D01*
X51764143Y-95837857D01*
X51764143Y-95980714D01*
X51716524Y-96075952D01*
X51668905Y-96123571D01*
X51573667Y-96171190D01*
X51192714Y-96171190D01*
X52716524Y-96647381D02*
X52145095Y-96647381D01*
X52430809Y-96647381D02*
X52430809Y-95647381D01*
X52335571Y-95790238D01*
X52240333Y-95885476D01*
X52145095Y-95933095D01*
X53668905Y-96647381D02*
X53097476Y-96647381D01*
X53383190Y-96647381D02*
X53383190Y-95647381D01*
X53287952Y-95790238D01*
X53192714Y-95885476D01*
X53097476Y-95933095D01*
X64797381Y-102171857D02*
X64321190Y-102505191D01*
X64797381Y-102743286D02*
X63797381Y-102743286D01*
X63797381Y-102362333D01*
X63845000Y-102267095D01*
X63892619Y-102219476D01*
X63987857Y-102171857D01*
X64130714Y-102171857D01*
X64225952Y-102219476D01*
X64273571Y-102267095D01*
X64321190Y-102362333D01*
X64321190Y-102743286D01*
X64797381Y-101219476D02*
X64797381Y-101790905D01*
X64797381Y-101505191D02*
X63797381Y-101505191D01*
X63940238Y-101600429D01*
X64035476Y-101695667D01*
X64083095Y-101790905D01*
X63892619Y-100838524D02*
X63845000Y-100790905D01*
X63797381Y-100695667D01*
X63797381Y-100457571D01*
X63845000Y-100362333D01*
X63892619Y-100314714D01*
X63987857Y-100267095D01*
X64083095Y-100267095D01*
X64225952Y-100314714D01*
X64797381Y-100886143D01*
X64797381Y-100267095D01*
X64797381Y-105219857D02*
X64321190Y-105553191D01*
X64797381Y-105791286D02*
X63797381Y-105791286D01*
X63797381Y-105410333D01*
X63845000Y-105315095D01*
X63892619Y-105267476D01*
X63987857Y-105219857D01*
X64130714Y-105219857D01*
X64225952Y-105267476D01*
X64273571Y-105315095D01*
X64321190Y-105410333D01*
X64321190Y-105791286D01*
X64797381Y-104267476D02*
X64797381Y-104838905D01*
X64797381Y-104553191D02*
X63797381Y-104553191D01*
X63940238Y-104648429D01*
X64035476Y-104743667D01*
X64083095Y-104838905D01*
X63797381Y-103934143D02*
X63797381Y-103315095D01*
X64178333Y-103648429D01*
X64178333Y-103505571D01*
X64225952Y-103410333D01*
X64273571Y-103362714D01*
X64368810Y-103315095D01*
X64606905Y-103315095D01*
X64702143Y-103362714D01*
X64749762Y-103410333D01*
X64797381Y-103505571D01*
X64797381Y-103791286D01*
X64749762Y-103886524D01*
X64702143Y-103934143D01*
X64797381Y-108394857D02*
X64321190Y-108728191D01*
X64797381Y-108966286D02*
X63797381Y-108966286D01*
X63797381Y-108585333D01*
X63845000Y-108490095D01*
X63892619Y-108442476D01*
X63987857Y-108394857D01*
X64130714Y-108394857D01*
X64225952Y-108442476D01*
X64273571Y-108490095D01*
X64321190Y-108585333D01*
X64321190Y-108966286D01*
X64797381Y-107442476D02*
X64797381Y-108013905D01*
X64797381Y-107728191D02*
X63797381Y-107728191D01*
X63940238Y-107823429D01*
X64035476Y-107918667D01*
X64083095Y-108013905D01*
X64130714Y-106585333D02*
X64797381Y-106585333D01*
X63749762Y-106823429D02*
X64464048Y-107061524D01*
X64464048Y-106442476D01*
X58622143Y-110744381D02*
X58288809Y-110268190D01*
X58050714Y-110744381D02*
X58050714Y-109744381D01*
X58431667Y-109744381D01*
X58526905Y-109792000D01*
X58574524Y-109839619D01*
X58622143Y-109934857D01*
X58622143Y-110077714D01*
X58574524Y-110172952D01*
X58526905Y-110220571D01*
X58431667Y-110268190D01*
X58050714Y-110268190D01*
X59574524Y-110744381D02*
X59003095Y-110744381D01*
X59288809Y-110744381D02*
X59288809Y-109744381D01*
X59193571Y-109887238D01*
X59098333Y-109982476D01*
X59003095Y-110030095D01*
X60479286Y-109744381D02*
X60003095Y-109744381D01*
X59955476Y-110220571D01*
X60003095Y-110172952D01*
X60098333Y-110125333D01*
X60336429Y-110125333D01*
X60431667Y-110172952D01*
X60479286Y-110220571D01*
X60526905Y-110315810D01*
X60526905Y-110553905D01*
X60479286Y-110649143D01*
X60431667Y-110696762D01*
X60336429Y-110744381D01*
X60098333Y-110744381D01*
X60003095Y-110696762D01*
X59955476Y-110649143D01*
X98960381Y-28765857D02*
X98484190Y-29099191D01*
X98960381Y-29337286D02*
X97960381Y-29337286D01*
X97960381Y-28956333D01*
X98008000Y-28861095D01*
X98055619Y-28813476D01*
X98150857Y-28765857D01*
X98293714Y-28765857D01*
X98388952Y-28813476D01*
X98436571Y-28861095D01*
X98484190Y-28956333D01*
X98484190Y-29337286D01*
X98960381Y-27813476D02*
X98960381Y-28384905D01*
X98960381Y-28099191D02*
X97960381Y-28099191D01*
X98103238Y-28194429D01*
X98198476Y-28289667D01*
X98246095Y-28384905D01*
X97960381Y-26956333D02*
X97960381Y-27146810D01*
X98008000Y-27242048D01*
X98055619Y-27289667D01*
X98198476Y-27384905D01*
X98388952Y-27432524D01*
X98769905Y-27432524D01*
X98865143Y-27384905D01*
X98912762Y-27337286D01*
X98960381Y-27242048D01*
X98960381Y-27051571D01*
X98912762Y-26956333D01*
X98865143Y-26908714D01*
X98769905Y-26861095D01*
X98531810Y-26861095D01*
X98436571Y-26908714D01*
X98388952Y-26956333D01*
X98341333Y-27051571D01*
X98341333Y-27242048D01*
X98388952Y-27337286D01*
X98436571Y-27384905D01*
X98531810Y-27432524D01*
X98960381Y-32067857D02*
X98484190Y-32401191D01*
X98960381Y-32639286D02*
X97960381Y-32639286D01*
X97960381Y-32258333D01*
X98008000Y-32163095D01*
X98055619Y-32115476D01*
X98150857Y-32067857D01*
X98293714Y-32067857D01*
X98388952Y-32115476D01*
X98436571Y-32163095D01*
X98484190Y-32258333D01*
X98484190Y-32639286D01*
X98960381Y-31115476D02*
X98960381Y-31686905D01*
X98960381Y-31401191D02*
X97960381Y-31401191D01*
X98103238Y-31496429D01*
X98198476Y-31591667D01*
X98246095Y-31686905D01*
X97960381Y-30782143D02*
X97960381Y-30115476D01*
X98960381Y-30544048D01*
X81859381Y-38742857D02*
X81383190Y-39076191D01*
X81859381Y-39314286D02*
X80859381Y-39314286D01*
X80859381Y-38933333D01*
X80907000Y-38838095D01*
X80954619Y-38790476D01*
X81049857Y-38742857D01*
X81192714Y-38742857D01*
X81287952Y-38790476D01*
X81335571Y-38838095D01*
X81383190Y-38933333D01*
X81383190Y-39314286D01*
X81859381Y-37790476D02*
X81859381Y-38361905D01*
X81859381Y-38076191D02*
X80859381Y-38076191D01*
X81002238Y-38171429D01*
X81097476Y-38266667D01*
X81145095Y-38361905D01*
X81287952Y-37219048D02*
X81240333Y-37314286D01*
X81192714Y-37361905D01*
X81097476Y-37409524D01*
X81049857Y-37409524D01*
X80954619Y-37361905D01*
X80907000Y-37314286D01*
X80859381Y-37219048D01*
X80859381Y-37028571D01*
X80907000Y-36933333D01*
X80954619Y-36885714D01*
X81049857Y-36838095D01*
X81097476Y-36838095D01*
X81192714Y-36885714D01*
X81240333Y-36933333D01*
X81287952Y-37028571D01*
X81287952Y-37219048D01*
X81335571Y-37314286D01*
X81383190Y-37361905D01*
X81478429Y-37409524D01*
X81668905Y-37409524D01*
X81764143Y-37361905D01*
X81811762Y-37314286D01*
X81859381Y-37219048D01*
X81859381Y-37028571D01*
X81811762Y-36933333D01*
X81764143Y-36885714D01*
X81668905Y-36838095D01*
X81478429Y-36838095D01*
X81383190Y-36885714D01*
X81335571Y-36933333D01*
X81287952Y-37028571D01*
X70179143Y-24765381D02*
X69845809Y-24289190D01*
X69607714Y-24765381D02*
X69607714Y-23765381D01*
X69988667Y-23765381D01*
X70083905Y-23813000D01*
X70131524Y-23860619D01*
X70179143Y-23955857D01*
X70179143Y-24098714D01*
X70131524Y-24193952D01*
X70083905Y-24241571D01*
X69988667Y-24289190D01*
X69607714Y-24289190D01*
X71131524Y-24765381D02*
X70560095Y-24765381D01*
X70845809Y-24765381D02*
X70845809Y-23765381D01*
X70750571Y-23908238D01*
X70655333Y-24003476D01*
X70560095Y-24051095D01*
X71607714Y-24765381D02*
X71798190Y-24765381D01*
X71893429Y-24717762D01*
X71941048Y-24670143D01*
X72036286Y-24527286D01*
X72083905Y-24336810D01*
X72083905Y-23955857D01*
X72036286Y-23860619D01*
X71988667Y-23813000D01*
X71893429Y-23765381D01*
X71702952Y-23765381D01*
X71607714Y-23813000D01*
X71560095Y-23860619D01*
X71512476Y-23955857D01*
X71512476Y-24193952D01*
X71560095Y-24289190D01*
X71607714Y-24336810D01*
X71702952Y-24384429D01*
X71893429Y-24384429D01*
X71988667Y-24336810D01*
X72036286Y-24289190D01*
X72083905Y-24193952D01*
X73354143Y-24765381D02*
X73020809Y-24289190D01*
X72782714Y-24765381D02*
X72782714Y-23765381D01*
X73163667Y-23765381D01*
X73258905Y-23813000D01*
X73306524Y-23860619D01*
X73354143Y-23955857D01*
X73354143Y-24098714D01*
X73306524Y-24193952D01*
X73258905Y-24241571D01*
X73163667Y-24289190D01*
X72782714Y-24289190D01*
X73735095Y-23860619D02*
X73782714Y-23813000D01*
X73877952Y-23765381D01*
X74116048Y-23765381D01*
X74211286Y-23813000D01*
X74258905Y-23860619D01*
X74306524Y-23955857D01*
X74306524Y-24051095D01*
X74258905Y-24193952D01*
X73687476Y-24765381D01*
X74306524Y-24765381D01*
X74925571Y-23765381D02*
X75020810Y-23765381D01*
X75116048Y-23813000D01*
X75163667Y-23860619D01*
X75211286Y-23955857D01*
X75258905Y-24146333D01*
X75258905Y-24384429D01*
X75211286Y-24574905D01*
X75163667Y-24670143D01*
X75116048Y-24717762D01*
X75020810Y-24765381D01*
X74925571Y-24765381D01*
X74830333Y-24717762D01*
X74782714Y-24670143D01*
X74735095Y-24574905D01*
X74687476Y-24384429D01*
X74687476Y-24146333D01*
X74735095Y-23955857D01*
X74782714Y-23860619D01*
X74830333Y-23813000D01*
X74925571Y-23765381D01*
X65353143Y-21336381D02*
X65019809Y-20860190D01*
X64781714Y-21336381D02*
X64781714Y-20336381D01*
X65162667Y-20336381D01*
X65257905Y-20384000D01*
X65305524Y-20431619D01*
X65353143Y-20526857D01*
X65353143Y-20669714D01*
X65305524Y-20764952D01*
X65257905Y-20812571D01*
X65162667Y-20860190D01*
X64781714Y-20860190D01*
X65734095Y-20431619D02*
X65781714Y-20384000D01*
X65876952Y-20336381D01*
X66115048Y-20336381D01*
X66210286Y-20384000D01*
X66257905Y-20431619D01*
X66305524Y-20526857D01*
X66305524Y-20622095D01*
X66257905Y-20764952D01*
X65686476Y-21336381D01*
X66305524Y-21336381D01*
X67257905Y-21336381D02*
X66686476Y-21336381D01*
X66972190Y-21336381D02*
X66972190Y-20336381D01*
X66876952Y-20479238D01*
X66781714Y-20574476D01*
X66686476Y-20622095D01*
X62305143Y-21336381D02*
X61971809Y-20860190D01*
X61733714Y-21336381D02*
X61733714Y-20336381D01*
X62114667Y-20336381D01*
X62209905Y-20384000D01*
X62257524Y-20431619D01*
X62305143Y-20526857D01*
X62305143Y-20669714D01*
X62257524Y-20764952D01*
X62209905Y-20812571D01*
X62114667Y-20860190D01*
X61733714Y-20860190D01*
X62686095Y-20431619D02*
X62733714Y-20384000D01*
X62828952Y-20336381D01*
X63067048Y-20336381D01*
X63162286Y-20384000D01*
X63209905Y-20431619D01*
X63257524Y-20526857D01*
X63257524Y-20622095D01*
X63209905Y-20764952D01*
X62638476Y-21336381D01*
X63257524Y-21336381D01*
X63638476Y-20431619D02*
X63686095Y-20384000D01*
X63781333Y-20336381D01*
X64019429Y-20336381D01*
X64114667Y-20384000D01*
X64162286Y-20431619D01*
X64209905Y-20526857D01*
X64209905Y-20622095D01*
X64162286Y-20764952D01*
X63590857Y-21336381D01*
X64209905Y-21336381D01*
X74922143Y-45156381D02*
X74588809Y-44680190D01*
X74350714Y-45156381D02*
X74350714Y-44156381D01*
X74731667Y-44156381D01*
X74826905Y-44204000D01*
X74874524Y-44251619D01*
X74922143Y-44346857D01*
X74922143Y-44489714D01*
X74874524Y-44584952D01*
X74826905Y-44632571D01*
X74731667Y-44680190D01*
X74350714Y-44680190D01*
X75303095Y-44251619D02*
X75350714Y-44204000D01*
X75445952Y-44156381D01*
X75684048Y-44156381D01*
X75779286Y-44204000D01*
X75826905Y-44251619D01*
X75874524Y-44346857D01*
X75874524Y-44442095D01*
X75826905Y-44584952D01*
X75255476Y-45156381D01*
X75874524Y-45156381D01*
X76207857Y-44156381D02*
X76826905Y-44156381D01*
X76493571Y-44537333D01*
X76636429Y-44537333D01*
X76731667Y-44584952D01*
X76779286Y-44632571D01*
X76826905Y-44727810D01*
X76826905Y-44965905D01*
X76779286Y-45061143D01*
X76731667Y-45108762D01*
X76636429Y-45156381D01*
X76350714Y-45156381D01*
X76255476Y-45108762D01*
X76207857Y-45061143D01*
X77970143Y-45156381D02*
X77636809Y-44680190D01*
X77398714Y-45156381D02*
X77398714Y-44156381D01*
X77779667Y-44156381D01*
X77874905Y-44204000D01*
X77922524Y-44251619D01*
X77970143Y-44346857D01*
X77970143Y-44489714D01*
X77922524Y-44584952D01*
X77874905Y-44632571D01*
X77779667Y-44680190D01*
X77398714Y-44680190D01*
X78351095Y-44251619D02*
X78398714Y-44204000D01*
X78493952Y-44156381D01*
X78732048Y-44156381D01*
X78827286Y-44204000D01*
X78874905Y-44251619D01*
X78922524Y-44346857D01*
X78922524Y-44442095D01*
X78874905Y-44584952D01*
X78303476Y-45156381D01*
X78922524Y-45156381D01*
X79779667Y-44489714D02*
X79779667Y-45156381D01*
X79541571Y-44108762D02*
X79303476Y-44823048D01*
X79922524Y-44823048D01*
X78176381Y-42044857D02*
X77700190Y-42378191D01*
X78176381Y-42616286D02*
X77176381Y-42616286D01*
X77176381Y-42235333D01*
X77224000Y-42140095D01*
X77271619Y-42092476D01*
X77366857Y-42044857D01*
X77509714Y-42044857D01*
X77604952Y-42092476D01*
X77652571Y-42140095D01*
X77700190Y-42235333D01*
X77700190Y-42616286D01*
X77271619Y-41663905D02*
X77224000Y-41616286D01*
X77176381Y-41521048D01*
X77176381Y-41282952D01*
X77224000Y-41187714D01*
X77271619Y-41140095D01*
X77366857Y-41092476D01*
X77462095Y-41092476D01*
X77604952Y-41140095D01*
X78176381Y-41711524D01*
X78176381Y-41092476D01*
X77176381Y-40187714D02*
X77176381Y-40663905D01*
X77652571Y-40711524D01*
X77604952Y-40663905D01*
X77557333Y-40568667D01*
X77557333Y-40330571D01*
X77604952Y-40235333D01*
X77652571Y-40187714D01*
X77747810Y-40140095D01*
X77985905Y-40140095D01*
X78081143Y-40187714D01*
X78128762Y-40235333D01*
X78176381Y-40330571D01*
X78176381Y-40568667D01*
X78128762Y-40663905D01*
X78081143Y-40711524D01*
X82244143Y-45085381D02*
X81910809Y-44609190D01*
X81672714Y-45085381D02*
X81672714Y-44085381D01*
X82053667Y-44085381D01*
X82148905Y-44133000D01*
X82196524Y-44180619D01*
X82244143Y-44275857D01*
X82244143Y-44418714D01*
X82196524Y-44513952D01*
X82148905Y-44561571D01*
X82053667Y-44609190D01*
X81672714Y-44609190D01*
X82625095Y-44180619D02*
X82672714Y-44133000D01*
X82767952Y-44085381D01*
X83006048Y-44085381D01*
X83101286Y-44133000D01*
X83148905Y-44180619D01*
X83196524Y-44275857D01*
X83196524Y-44371095D01*
X83148905Y-44513952D01*
X82577476Y-45085381D01*
X83196524Y-45085381D01*
X84053667Y-44085381D02*
X83863190Y-44085381D01*
X83767952Y-44133000D01*
X83720333Y-44180619D01*
X83625095Y-44323476D01*
X83577476Y-44513952D01*
X83577476Y-44894905D01*
X83625095Y-44990143D01*
X83672714Y-45037762D01*
X83767952Y-45085381D01*
X83958429Y-45085381D01*
X84053667Y-45037762D01*
X84101286Y-44990143D01*
X84148905Y-44894905D01*
X84148905Y-44656810D01*
X84101286Y-44561571D01*
X84053667Y-44513952D01*
X83958429Y-44466333D01*
X83767952Y-44466333D01*
X83672714Y-44513952D01*
X83625095Y-44561571D01*
X83577476Y-44656810D01*
X44013381Y-112783857D02*
X43537190Y-113117191D01*
X44013381Y-113355286D02*
X43013381Y-113355286D01*
X43013381Y-112974333D01*
X43061000Y-112879095D01*
X43108619Y-112831476D01*
X43203857Y-112783857D01*
X43346714Y-112783857D01*
X43441952Y-112831476D01*
X43489571Y-112879095D01*
X43537190Y-112974333D01*
X43537190Y-113355286D01*
X43108619Y-112402905D02*
X43061000Y-112355286D01*
X43013381Y-112260048D01*
X43013381Y-112021952D01*
X43061000Y-111926714D01*
X43108619Y-111879095D01*
X43203857Y-111831476D01*
X43299095Y-111831476D01*
X43441952Y-111879095D01*
X44013381Y-112450524D01*
X44013381Y-111831476D01*
X43013381Y-111498143D02*
X43013381Y-110831476D01*
X44013381Y-111260048D01*
X30761381Y-103187857D02*
X30285190Y-103521191D01*
X30761381Y-103759286D02*
X29761381Y-103759286D01*
X29761381Y-103378333D01*
X29809000Y-103283095D01*
X29856619Y-103235476D01*
X29951857Y-103187857D01*
X30094714Y-103187857D01*
X30189952Y-103235476D01*
X30237571Y-103283095D01*
X30285190Y-103378333D01*
X30285190Y-103759286D01*
X29856619Y-102806905D02*
X29809000Y-102759286D01*
X29761381Y-102664048D01*
X29761381Y-102425952D01*
X29809000Y-102330714D01*
X29856619Y-102283095D01*
X29951857Y-102235476D01*
X30047095Y-102235476D01*
X30189952Y-102283095D01*
X30761381Y-102854524D01*
X30761381Y-102235476D01*
X30189952Y-101664048D02*
X30142333Y-101759286D01*
X30094714Y-101806905D01*
X29999476Y-101854524D01*
X29951857Y-101854524D01*
X29856619Y-101806905D01*
X29809000Y-101759286D01*
X29761381Y-101664048D01*
X29761381Y-101473571D01*
X29809000Y-101378333D01*
X29856619Y-101330714D01*
X29951857Y-101283095D01*
X29999476Y-101283095D01*
X30094714Y-101330714D01*
X30142333Y-101378333D01*
X30189952Y-101473571D01*
X30189952Y-101664048D01*
X30237571Y-101759286D01*
X30285190Y-101806905D01*
X30380429Y-101854524D01*
X30570905Y-101854524D01*
X30666143Y-101806905D01*
X30713762Y-101759286D01*
X30761381Y-101664048D01*
X30761381Y-101473571D01*
X30713762Y-101378333D01*
X30666143Y-101330714D01*
X30570905Y-101283095D01*
X30380429Y-101283095D01*
X30285190Y-101330714D01*
X30237571Y-101378333D01*
X30189952Y-101473571D01*
X18744143Y-97790381D02*
X18410809Y-97314190D01*
X18172714Y-97790381D02*
X18172714Y-96790381D01*
X18553667Y-96790381D01*
X18648905Y-96838000D01*
X18696524Y-96885619D01*
X18744143Y-96980857D01*
X18744143Y-97123714D01*
X18696524Y-97218952D01*
X18648905Y-97266571D01*
X18553667Y-97314190D01*
X18172714Y-97314190D01*
X19125095Y-96885619D02*
X19172714Y-96838000D01*
X19267952Y-96790381D01*
X19506048Y-96790381D01*
X19601286Y-96838000D01*
X19648905Y-96885619D01*
X19696524Y-96980857D01*
X19696524Y-97076095D01*
X19648905Y-97218952D01*
X19077476Y-97790381D01*
X19696524Y-97790381D01*
X20172714Y-97790381D02*
X20363190Y-97790381D01*
X20458429Y-97742762D01*
X20506048Y-97695143D01*
X20601286Y-97552286D01*
X20648905Y-97361810D01*
X20648905Y-96980857D01*
X20601286Y-96885619D01*
X20553667Y-96838000D01*
X20458429Y-96790381D01*
X20267952Y-96790381D01*
X20172714Y-96838000D01*
X20125095Y-96885619D01*
X20077476Y-96980857D01*
X20077476Y-97218952D01*
X20125095Y-97314190D01*
X20172714Y-97361810D01*
X20267952Y-97409429D01*
X20458429Y-97409429D01*
X20553667Y-97361810D01*
X20601286Y-97314190D01*
X20648905Y-97218952D01*
X28392381Y-112783857D02*
X27916190Y-113117191D01*
X28392381Y-113355286D02*
X27392381Y-113355286D01*
X27392381Y-112974333D01*
X27440000Y-112879095D01*
X27487619Y-112831476D01*
X27582857Y-112783857D01*
X27725714Y-112783857D01*
X27820952Y-112831476D01*
X27868571Y-112879095D01*
X27916190Y-112974333D01*
X27916190Y-113355286D01*
X27392381Y-112450524D02*
X27392381Y-111831476D01*
X27773333Y-112164810D01*
X27773333Y-112021952D01*
X27820952Y-111926714D01*
X27868571Y-111879095D01*
X27963810Y-111831476D01*
X28201905Y-111831476D01*
X28297143Y-111879095D01*
X28344762Y-111926714D01*
X28392381Y-112021952D01*
X28392381Y-112307667D01*
X28344762Y-112402905D01*
X28297143Y-112450524D01*
X27392381Y-111212429D02*
X27392381Y-111117190D01*
X27440000Y-111021952D01*
X27487619Y-110974333D01*
X27582857Y-110926714D01*
X27773333Y-110879095D01*
X28011429Y-110879095D01*
X28201905Y-110926714D01*
X28297143Y-110974333D01*
X28344762Y-111021952D01*
X28392381Y-111117190D01*
X28392381Y-111212429D01*
X28344762Y-111307667D01*
X28297143Y-111355286D01*
X28201905Y-111402905D01*
X28011429Y-111450524D01*
X27773333Y-111450524D01*
X27582857Y-111402905D01*
X27487619Y-111355286D01*
X27440000Y-111307667D01*
X27392381Y-111212429D01*
X127579381Y-111005857D02*
X127103190Y-111339191D01*
X127579381Y-111577286D02*
X126579381Y-111577286D01*
X126579381Y-111196333D01*
X126627000Y-111101095D01*
X126674619Y-111053476D01*
X126769857Y-111005857D01*
X126912714Y-111005857D01*
X127007952Y-111053476D01*
X127055571Y-111101095D01*
X127103190Y-111196333D01*
X127103190Y-111577286D01*
X126579381Y-110672524D02*
X126579381Y-110053476D01*
X126960333Y-110386810D01*
X126960333Y-110243952D01*
X127007952Y-110148714D01*
X127055571Y-110101095D01*
X127150810Y-110053476D01*
X127388905Y-110053476D01*
X127484143Y-110101095D01*
X127531762Y-110148714D01*
X127579381Y-110243952D01*
X127579381Y-110529667D01*
X127531762Y-110624905D01*
X127484143Y-110672524D01*
X127579381Y-109101095D02*
X127579381Y-109672524D01*
X127579381Y-109386810D02*
X126579381Y-109386810D01*
X126722238Y-109482048D01*
X126817476Y-109577286D01*
X126865095Y-109672524D01*
X121737381Y-90431857D02*
X121261190Y-90765191D01*
X121737381Y-91003286D02*
X120737381Y-91003286D01*
X120737381Y-90622333D01*
X120785000Y-90527095D01*
X120832619Y-90479476D01*
X120927857Y-90431857D01*
X121070714Y-90431857D01*
X121165952Y-90479476D01*
X121213571Y-90527095D01*
X121261190Y-90622333D01*
X121261190Y-91003286D01*
X120737381Y-90098524D02*
X120737381Y-89479476D01*
X121118333Y-89812810D01*
X121118333Y-89669952D01*
X121165952Y-89574714D01*
X121213571Y-89527095D01*
X121308810Y-89479476D01*
X121546905Y-89479476D01*
X121642143Y-89527095D01*
X121689762Y-89574714D01*
X121737381Y-89669952D01*
X121737381Y-89955667D01*
X121689762Y-90050905D01*
X121642143Y-90098524D01*
X120832619Y-89098524D02*
X120785000Y-89050905D01*
X120737381Y-88955667D01*
X120737381Y-88717571D01*
X120785000Y-88622333D01*
X120832619Y-88574714D01*
X120927857Y-88527095D01*
X121023095Y-88527095D01*
X121165952Y-88574714D01*
X121737381Y-89146143D01*
X121737381Y-88527095D01*
X125214143Y-73604381D02*
X124880809Y-73128190D01*
X124642714Y-73604381D02*
X124642714Y-72604381D01*
X125023667Y-72604381D01*
X125118905Y-72652000D01*
X125166524Y-72699619D01*
X125214143Y-72794857D01*
X125214143Y-72937714D01*
X125166524Y-73032952D01*
X125118905Y-73080571D01*
X125023667Y-73128190D01*
X124642714Y-73128190D01*
X125547476Y-72604381D02*
X126166524Y-72604381D01*
X125833190Y-72985333D01*
X125976048Y-72985333D01*
X126071286Y-73032952D01*
X126118905Y-73080571D01*
X126166524Y-73175810D01*
X126166524Y-73413905D01*
X126118905Y-73509143D01*
X126071286Y-73556762D01*
X125976048Y-73604381D01*
X125690333Y-73604381D01*
X125595095Y-73556762D01*
X125547476Y-73509143D01*
X126499857Y-72604381D02*
X127118905Y-72604381D01*
X126785571Y-72985333D01*
X126928429Y-72985333D01*
X127023667Y-73032952D01*
X127071286Y-73080571D01*
X127118905Y-73175810D01*
X127118905Y-73413905D01*
X127071286Y-73509143D01*
X127023667Y-73556762D01*
X126928429Y-73604381D01*
X126642714Y-73604381D01*
X126547476Y-73556762D01*
X126499857Y-73509143D01*
X117296143Y-104775381D02*
X116962809Y-104299190D01*
X116724714Y-104775381D02*
X116724714Y-103775381D01*
X117105667Y-103775381D01*
X117200905Y-103823000D01*
X117248524Y-103870619D01*
X117296143Y-103965857D01*
X117296143Y-104108714D01*
X117248524Y-104203952D01*
X117200905Y-104251571D01*
X117105667Y-104299190D01*
X116724714Y-104299190D01*
X117629476Y-103775381D02*
X118248524Y-103775381D01*
X117915190Y-104156333D01*
X118058048Y-104156333D01*
X118153286Y-104203952D01*
X118200905Y-104251571D01*
X118248524Y-104346810D01*
X118248524Y-104584905D01*
X118200905Y-104680143D01*
X118153286Y-104727762D01*
X118058048Y-104775381D01*
X117772333Y-104775381D01*
X117677095Y-104727762D01*
X117629476Y-104680143D01*
X119105667Y-104108714D02*
X119105667Y-104775381D01*
X118867571Y-103727762D02*
X118629476Y-104442048D01*
X119248524Y-104442048D01*
X117296143Y-92075381D02*
X116962809Y-91599190D01*
X116724714Y-92075381D02*
X116724714Y-91075381D01*
X117105667Y-91075381D01*
X117200905Y-91123000D01*
X117248524Y-91170619D01*
X117296143Y-91265857D01*
X117296143Y-91408714D01*
X117248524Y-91503952D01*
X117200905Y-91551571D01*
X117105667Y-91599190D01*
X116724714Y-91599190D01*
X117629476Y-91075381D02*
X118248524Y-91075381D01*
X117915190Y-91456333D01*
X118058048Y-91456333D01*
X118153286Y-91503952D01*
X118200905Y-91551571D01*
X118248524Y-91646810D01*
X118248524Y-91884905D01*
X118200905Y-91980143D01*
X118153286Y-92027762D01*
X118058048Y-92075381D01*
X117772333Y-92075381D01*
X117677095Y-92027762D01*
X117629476Y-91980143D01*
X119153286Y-91075381D02*
X118677095Y-91075381D01*
X118629476Y-91551571D01*
X118677095Y-91503952D01*
X118772333Y-91456333D01*
X119010429Y-91456333D01*
X119105667Y-91503952D01*
X119153286Y-91551571D01*
X119200905Y-91646810D01*
X119200905Y-91884905D01*
X119153286Y-91980143D01*
X119105667Y-92027762D01*
X119010429Y-92075381D01*
X118772333Y-92075381D01*
X118677095Y-92027762D01*
X118629476Y-91980143D01*
X109037381Y-107703857D02*
X108561190Y-108037191D01*
X109037381Y-108275286D02*
X108037381Y-108275286D01*
X108037381Y-107894333D01*
X108085000Y-107799095D01*
X108132619Y-107751476D01*
X108227857Y-107703857D01*
X108370714Y-107703857D01*
X108465952Y-107751476D01*
X108513571Y-107799095D01*
X108561190Y-107894333D01*
X108561190Y-108275286D01*
X108037381Y-107370524D02*
X108037381Y-106751476D01*
X108418333Y-107084810D01*
X108418333Y-106941952D01*
X108465952Y-106846714D01*
X108513571Y-106799095D01*
X108608810Y-106751476D01*
X108846905Y-106751476D01*
X108942143Y-106799095D01*
X108989762Y-106846714D01*
X109037381Y-106941952D01*
X109037381Y-107227667D01*
X108989762Y-107322905D01*
X108942143Y-107370524D01*
X108037381Y-105894333D02*
X108037381Y-106084810D01*
X108085000Y-106180048D01*
X108132619Y-106227667D01*
X108275476Y-106322905D01*
X108465952Y-106370524D01*
X108846905Y-106370524D01*
X108942143Y-106322905D01*
X108989762Y-106275286D01*
X109037381Y-106180048D01*
X109037381Y-105989571D01*
X108989762Y-105894333D01*
X108942143Y-105846714D01*
X108846905Y-105799095D01*
X108608810Y-105799095D01*
X108513571Y-105846714D01*
X108465952Y-105894333D01*
X108418333Y-105989571D01*
X108418333Y-106180048D01*
X108465952Y-106275286D01*
X108513571Y-106322905D01*
X108608810Y-106370524D01*
X108866381Y-101028857D02*
X108390190Y-101362191D01*
X108866381Y-101600286D02*
X107866381Y-101600286D01*
X107866381Y-101219333D01*
X107914000Y-101124095D01*
X107961619Y-101076476D01*
X108056857Y-101028857D01*
X108199714Y-101028857D01*
X108294952Y-101076476D01*
X108342571Y-101124095D01*
X108390190Y-101219333D01*
X108390190Y-101600286D01*
X107866381Y-100695524D02*
X107866381Y-100076476D01*
X108247333Y-100409810D01*
X108247333Y-100266952D01*
X108294952Y-100171714D01*
X108342571Y-100124095D01*
X108437810Y-100076476D01*
X108675905Y-100076476D01*
X108771143Y-100124095D01*
X108818762Y-100171714D01*
X108866381Y-100266952D01*
X108866381Y-100552667D01*
X108818762Y-100647905D01*
X108771143Y-100695524D01*
X107866381Y-99743143D02*
X107866381Y-99076476D01*
X108866381Y-99505048D01*
X101925381Y-102115857D02*
X101449190Y-102449191D01*
X101925381Y-102687286D02*
X100925381Y-102687286D01*
X100925381Y-102306333D01*
X100973000Y-102211095D01*
X101020619Y-102163476D01*
X101115857Y-102115857D01*
X101258714Y-102115857D01*
X101353952Y-102163476D01*
X101401571Y-102211095D01*
X101449190Y-102306333D01*
X101449190Y-102687286D01*
X100925381Y-101782524D02*
X100925381Y-101163476D01*
X101306333Y-101496810D01*
X101306333Y-101353952D01*
X101353952Y-101258714D01*
X101401571Y-101211095D01*
X101496810Y-101163476D01*
X101734905Y-101163476D01*
X101830143Y-101211095D01*
X101877762Y-101258714D01*
X101925381Y-101353952D01*
X101925381Y-101639667D01*
X101877762Y-101734905D01*
X101830143Y-101782524D01*
X101353952Y-100592048D02*
X101306333Y-100687286D01*
X101258714Y-100734905D01*
X101163476Y-100782524D01*
X101115857Y-100782524D01*
X101020619Y-100734905D01*
X100973000Y-100687286D01*
X100925381Y-100592048D01*
X100925381Y-100401571D01*
X100973000Y-100306333D01*
X101020619Y-100258714D01*
X101115857Y-100211095D01*
X101163476Y-100211095D01*
X101258714Y-100258714D01*
X101306333Y-100306333D01*
X101353952Y-100401571D01*
X101353952Y-100592048D01*
X101401571Y-100687286D01*
X101449190Y-100734905D01*
X101544429Y-100782524D01*
X101734905Y-100782524D01*
X101830143Y-100734905D01*
X101877762Y-100687286D01*
X101925381Y-100592048D01*
X101925381Y-100401571D01*
X101877762Y-100306333D01*
X101830143Y-100258714D01*
X101734905Y-100211095D01*
X101544429Y-100211095D01*
X101449190Y-100258714D01*
X101401571Y-100306333D01*
X101353952Y-100401571D01*
X102179381Y-108465857D02*
X101703190Y-108799191D01*
X102179381Y-109037286D02*
X101179381Y-109037286D01*
X101179381Y-108656333D01*
X101227000Y-108561095D01*
X101274619Y-108513476D01*
X101369857Y-108465857D01*
X101512714Y-108465857D01*
X101607952Y-108513476D01*
X101655571Y-108561095D01*
X101703190Y-108656333D01*
X101703190Y-109037286D01*
X101179381Y-108132524D02*
X101179381Y-107513476D01*
X101560333Y-107846810D01*
X101560333Y-107703952D01*
X101607952Y-107608714D01*
X101655571Y-107561095D01*
X101750810Y-107513476D01*
X101988905Y-107513476D01*
X102084143Y-107561095D01*
X102131762Y-107608714D01*
X102179381Y-107703952D01*
X102179381Y-107989667D01*
X102131762Y-108084905D01*
X102084143Y-108132524D01*
X102179381Y-107037286D02*
X102179381Y-106846810D01*
X102131762Y-106751571D01*
X102084143Y-106703952D01*
X101941286Y-106608714D01*
X101750810Y-106561095D01*
X101369857Y-106561095D01*
X101274619Y-106608714D01*
X101227000Y-106656333D01*
X101179381Y-106751571D01*
X101179381Y-106942048D01*
X101227000Y-107037286D01*
X101274619Y-107084905D01*
X101369857Y-107132524D01*
X101607952Y-107132524D01*
X101703190Y-107084905D01*
X101750810Y-107037286D01*
X101798429Y-106942048D01*
X101798429Y-106751571D01*
X101750810Y-106656333D01*
X101703190Y-106608714D01*
X101607952Y-106561095D01*
X109037381Y-104401857D02*
X108561190Y-104735191D01*
X109037381Y-104973286D02*
X108037381Y-104973286D01*
X108037381Y-104592333D01*
X108085000Y-104497095D01*
X108132619Y-104449476D01*
X108227857Y-104401857D01*
X108370714Y-104401857D01*
X108465952Y-104449476D01*
X108513571Y-104497095D01*
X108561190Y-104592333D01*
X108561190Y-104973286D01*
X108370714Y-103544714D02*
X109037381Y-103544714D01*
X107989762Y-103782810D02*
X108704048Y-104020905D01*
X108704048Y-103401857D01*
X108037381Y-102830429D02*
X108037381Y-102735190D01*
X108085000Y-102639952D01*
X108132619Y-102592333D01*
X108227857Y-102544714D01*
X108418333Y-102497095D01*
X108656429Y-102497095D01*
X108846905Y-102544714D01*
X108942143Y-102592333D01*
X108989762Y-102639952D01*
X109037381Y-102735190D01*
X109037381Y-102830429D01*
X108989762Y-102925667D01*
X108942143Y-102973286D01*
X108846905Y-103020905D01*
X108656429Y-103068524D01*
X108418333Y-103068524D01*
X108227857Y-103020905D01*
X108132619Y-102973286D01*
X108085000Y-102925667D01*
X108037381Y-102830429D01*
X101925381Y-105290857D02*
X101449190Y-105624191D01*
X101925381Y-105862286D02*
X100925381Y-105862286D01*
X100925381Y-105481333D01*
X100973000Y-105386095D01*
X101020619Y-105338476D01*
X101115857Y-105290857D01*
X101258714Y-105290857D01*
X101353952Y-105338476D01*
X101401571Y-105386095D01*
X101449190Y-105481333D01*
X101449190Y-105862286D01*
X101258714Y-104433714D02*
X101925381Y-104433714D01*
X100877762Y-104671810D02*
X101592048Y-104909905D01*
X101592048Y-104290857D01*
X101925381Y-103386095D02*
X101925381Y-103957524D01*
X101925381Y-103671810D02*
X100925381Y-103671810D01*
X101068238Y-103767048D01*
X101163476Y-103862286D01*
X101211095Y-103957524D01*
X105866143Y-110236381D02*
X105532809Y-109760190D01*
X105294714Y-110236381D02*
X105294714Y-109236381D01*
X105675667Y-109236381D01*
X105770905Y-109284000D01*
X105818524Y-109331619D01*
X105866143Y-109426857D01*
X105866143Y-109569714D01*
X105818524Y-109664952D01*
X105770905Y-109712571D01*
X105675667Y-109760190D01*
X105294714Y-109760190D01*
X106723286Y-109569714D02*
X106723286Y-110236381D01*
X106485190Y-109188762D02*
X106247095Y-109903048D01*
X106866143Y-109903048D01*
X107199476Y-109331619D02*
X107247095Y-109284000D01*
X107342333Y-109236381D01*
X107580429Y-109236381D01*
X107675667Y-109284000D01*
X107723286Y-109331619D01*
X107770905Y-109426857D01*
X107770905Y-109522095D01*
X107723286Y-109664952D01*
X107151857Y-110236381D01*
X107770905Y-110236381D01*
X30713762Y-16184857D02*
X30761381Y-16042000D01*
X30761381Y-15803904D01*
X30713762Y-15708666D01*
X30666143Y-15661047D01*
X30570905Y-15613428D01*
X30475667Y-15613428D01*
X30380429Y-15661047D01*
X30332810Y-15708666D01*
X30285190Y-15803904D01*
X30237571Y-15994381D01*
X30189952Y-16089619D01*
X30142333Y-16137238D01*
X30047095Y-16184857D01*
X29951857Y-16184857D01*
X29856619Y-16137238D01*
X29809000Y-16089619D01*
X29761381Y-15994381D01*
X29761381Y-15756285D01*
X29809000Y-15613428D01*
X29761381Y-15327714D02*
X29761381Y-14756285D01*
X30761381Y-15042000D02*
X29761381Y-15042000D01*
X29761381Y-13946761D02*
X29761381Y-14422952D01*
X30237571Y-14470571D01*
X30189952Y-14422952D01*
X30142333Y-14327714D01*
X30142333Y-14089618D01*
X30189952Y-13994380D01*
X30237571Y-13946761D01*
X30332810Y-13899142D01*
X30570905Y-13899142D01*
X30666143Y-13946761D01*
X30713762Y-13994380D01*
X30761381Y-14089618D01*
X30761381Y-14327714D01*
X30713762Y-14422952D01*
X30666143Y-14470571D01*
X21569762Y-16184857D02*
X21617381Y-16042000D01*
X21617381Y-15803904D01*
X21569762Y-15708666D01*
X21522143Y-15661047D01*
X21426905Y-15613428D01*
X21331667Y-15613428D01*
X21236429Y-15661047D01*
X21188810Y-15708666D01*
X21141190Y-15803904D01*
X21093571Y-15994381D01*
X21045952Y-16089619D01*
X20998333Y-16137238D01*
X20903095Y-16184857D01*
X20807857Y-16184857D01*
X20712619Y-16137238D01*
X20665000Y-16089619D01*
X20617381Y-15994381D01*
X20617381Y-15756285D01*
X20665000Y-15613428D01*
X20617381Y-15327714D02*
X20617381Y-14756285D01*
X21617381Y-15042000D02*
X20617381Y-15042000D01*
X20617381Y-14518190D02*
X20617381Y-13851523D01*
X21617381Y-14280095D01*
X20728381Y-93964381D02*
X19728381Y-93964381D01*
X20633143Y-92916762D02*
X20680762Y-92964381D01*
X20728381Y-93107238D01*
X20728381Y-93202476D01*
X20680762Y-93345334D01*
X20585524Y-93440572D01*
X20490286Y-93488191D01*
X20299810Y-93535810D01*
X20156952Y-93535810D01*
X19966476Y-93488191D01*
X19871238Y-93440572D01*
X19776000Y-93345334D01*
X19728381Y-93202476D01*
X19728381Y-93107238D01*
X19776000Y-92964381D01*
X19823619Y-92916762D01*
X20728381Y-91964381D02*
X20728381Y-92535810D01*
X20728381Y-92250096D02*
X19728381Y-92250096D01*
X19871238Y-92345334D01*
X19966476Y-92440572D01*
X20014095Y-92535810D01*
X19728381Y-91631048D02*
X19728381Y-91012000D01*
X20109333Y-91345334D01*
X20109333Y-91202476D01*
X20156952Y-91107238D01*
X20204571Y-91059619D01*
X20299810Y-91012000D01*
X20537905Y-91012000D01*
X20633143Y-91059619D01*
X20680762Y-91107238D01*
X20728381Y-91202476D01*
X20728381Y-91488191D01*
X20680762Y-91583429D01*
X20633143Y-91631048D01*
X126436619Y-62174381D02*
X126436619Y-61174381D01*
X127484238Y-62079143D02*
X127436619Y-62126762D01*
X127293762Y-62174381D01*
X127198524Y-62174381D01*
X127055666Y-62126762D01*
X126960428Y-62031524D01*
X126912809Y-61936286D01*
X126865190Y-61745810D01*
X126865190Y-61602952D01*
X126912809Y-61412476D01*
X126960428Y-61317238D01*
X127055666Y-61222000D01*
X127198524Y-61174381D01*
X127293762Y-61174381D01*
X127436619Y-61222000D01*
X127484238Y-61269619D01*
X128436619Y-62174381D02*
X127865190Y-62174381D01*
X128150904Y-62174381D02*
X128150904Y-61174381D01*
X128055666Y-61317238D01*
X127960428Y-61412476D01*
X127865190Y-61460095D01*
X129341381Y-61174381D02*
X128865190Y-61174381D01*
X128817571Y-61650571D01*
X128865190Y-61602952D01*
X128960428Y-61555333D01*
X129198524Y-61555333D01*
X129293762Y-61602952D01*
X129341381Y-61650571D01*
X129389000Y-61745810D01*
X129389000Y-61983905D01*
X129341381Y-62079143D01*
X129293762Y-62126762D01*
X129198524Y-62174381D01*
X128960428Y-62174381D01*
X128865190Y-62126762D01*
X128817571Y-62079143D01*
X78524361Y-90844666D02*
X78524361Y-91320857D01*
X77524361Y-91320857D01*
X78524361Y-89987523D02*
X78524361Y-90558952D01*
X78524361Y-90273238D02*
X77524361Y-90273238D01*
X77667218Y-90368476D01*
X77762456Y-90463714D01*
X77810075Y-90558952D01*
X78524361Y-102274666D02*
X78524361Y-102750857D01*
X77524361Y-102750857D01*
X77619599Y-101988952D02*
X77571980Y-101941333D01*
X77524361Y-101846095D01*
X77524361Y-101607999D01*
X77571980Y-101512761D01*
X77619599Y-101465142D01*
X77714837Y-101417523D01*
X77810075Y-101417523D01*
X77952932Y-101465142D01*
X78524361Y-102036571D01*
X78524361Y-101417523D01*
X61495381Y-101441666D02*
X61495381Y-101917857D01*
X60495381Y-101917857D01*
X60495381Y-101203571D02*
X60495381Y-100584523D01*
X60876333Y-100917857D01*
X60876333Y-100774999D01*
X60923952Y-100679761D01*
X60971571Y-100632142D01*
X61066810Y-100584523D01*
X61304905Y-100584523D01*
X61400143Y-100632142D01*
X61447762Y-100679761D01*
X61495381Y-100774999D01*
X61495381Y-101060714D01*
X61447762Y-101155952D01*
X61400143Y-101203571D01*
X92494361Y-102274666D02*
X92494361Y-102750857D01*
X91494361Y-102750857D01*
X91827694Y-101512761D02*
X92494361Y-101512761D01*
X91446742Y-101750857D02*
X92161028Y-101988952D01*
X92161028Y-101369904D01*
X92494361Y-90844666D02*
X92494361Y-91320857D01*
X91494361Y-91320857D01*
X91494361Y-90035142D02*
X91494361Y-90511333D01*
X91970551Y-90558952D01*
X91922932Y-90511333D01*
X91875313Y-90416095D01*
X91875313Y-90177999D01*
X91922932Y-90082761D01*
X91970551Y-90035142D01*
X92065790Y-89987523D01*
X92303885Y-89987523D01*
X92399123Y-90035142D01*
X92446742Y-90082761D01*
X92494361Y-90177999D01*
X92494361Y-90416095D01*
X92446742Y-90511333D01*
X92399123Y-90558952D01*
X105691381Y-101187666D02*
X105691381Y-101663857D01*
X104691381Y-101663857D01*
X104691381Y-100425761D02*
X104691381Y-100616238D01*
X104739000Y-100711476D01*
X104786619Y-100759095D01*
X104929476Y-100854333D01*
X105119952Y-100901952D01*
X105500905Y-100901952D01*
X105596143Y-100854333D01*
X105643762Y-100806714D01*
X105691381Y-100711476D01*
X105691381Y-100520999D01*
X105643762Y-100425761D01*
X105596143Y-100378142D01*
X105500905Y-100330523D01*
X105262810Y-100330523D01*
X105167571Y-100378142D01*
X105119952Y-100425761D01*
X105072333Y-100520999D01*
X105072333Y-100711476D01*
X105119952Y-100806714D01*
X105167571Y-100854333D01*
X105262810Y-100901952D01*
X53697119Y-43846738D02*
X53649500Y-43941976D01*
X53554262Y-44037214D01*
X53411405Y-44180071D01*
X53363786Y-44275310D01*
X53363786Y-44370548D01*
X53601881Y-44322929D02*
X53554262Y-44418167D01*
X53459024Y-44513405D01*
X53268548Y-44561024D01*
X52935214Y-44561024D01*
X52744738Y-44513405D01*
X52649500Y-44418167D01*
X52601881Y-44322929D01*
X52601881Y-44132452D01*
X52649500Y-44037214D01*
X52744738Y-43941976D01*
X52935214Y-43894357D01*
X53268548Y-43894357D01*
X53459024Y-43941976D01*
X53554262Y-44037214D01*
X53601881Y-44132452D01*
X53601881Y-44322929D01*
X53601881Y-42941976D02*
X53601881Y-43513405D01*
X53601881Y-43227691D02*
X52601881Y-43227691D01*
X52744738Y-43322929D01*
X52839976Y-43418167D01*
X52887595Y-43513405D01*
X66587762Y-55919619D02*
X66492524Y-55872000D01*
X66397286Y-55776762D01*
X66254429Y-55633905D01*
X66159190Y-55586286D01*
X66063952Y-55586286D01*
X66111571Y-55824381D02*
X66016333Y-55776762D01*
X65921095Y-55681524D01*
X65873476Y-55491048D01*
X65873476Y-55157714D01*
X65921095Y-54967238D01*
X66016333Y-54872000D01*
X66111571Y-54824381D01*
X66302048Y-54824381D01*
X66397286Y-54872000D01*
X66492524Y-54967238D01*
X66540143Y-55157714D01*
X66540143Y-55491048D01*
X66492524Y-55681524D01*
X66397286Y-55776762D01*
X66302048Y-55824381D01*
X66111571Y-55824381D01*
X67492524Y-54872000D02*
X67397286Y-54824381D01*
X67254429Y-54824381D01*
X67111571Y-54872000D01*
X67016333Y-54967238D01*
X66968714Y-55062476D01*
X66921095Y-55252952D01*
X66921095Y-55395810D01*
X66968714Y-55586286D01*
X67016333Y-55681524D01*
X67111571Y-55776762D01*
X67254429Y-55824381D01*
X67349667Y-55824381D01*
X67492524Y-55776762D01*
X67540143Y-55729143D01*
X67540143Y-55395810D01*
X67349667Y-55395810D01*
X68492524Y-55824381D02*
X67921095Y-55824381D01*
X68206809Y-55824381D02*
X68206809Y-54824381D01*
X68111571Y-54967238D01*
X68016333Y-55062476D01*
X67921095Y-55110095D01*
X24379810Y-65532381D02*
X24379810Y-64532381D01*
X25427429Y-65437143D02*
X25379810Y-65484762D01*
X25236953Y-65532381D01*
X25141715Y-65532381D01*
X24998857Y-65484762D01*
X24903619Y-65389524D01*
X24856000Y-65294286D01*
X24808381Y-65103810D01*
X24808381Y-64960952D01*
X24856000Y-64770476D01*
X24903619Y-64675238D01*
X24998857Y-64580000D01*
X25141715Y-64532381D01*
X25236953Y-64532381D01*
X25379810Y-64580000D01*
X25427429Y-64627619D01*
X25998857Y-64960952D02*
X25903619Y-64913333D01*
X25856000Y-64865714D01*
X25808381Y-64770476D01*
X25808381Y-64722857D01*
X25856000Y-64627619D01*
X25903619Y-64580000D01*
X25998857Y-64532381D01*
X26189334Y-64532381D01*
X26284572Y-64580000D01*
X26332191Y-64627619D01*
X26379810Y-64722857D01*
X26379810Y-64770476D01*
X26332191Y-64865714D01*
X26284572Y-64913333D01*
X26189334Y-64960952D01*
X25998857Y-64960952D01*
X25903619Y-65008571D01*
X25856000Y-65056190D01*
X25808381Y-65151429D01*
X25808381Y-65341905D01*
X25856000Y-65437143D01*
X25903619Y-65484762D01*
X25998857Y-65532381D01*
X26189334Y-65532381D01*
X26284572Y-65484762D01*
X26332191Y-65437143D01*
X26379810Y-65341905D01*
X26379810Y-65151429D01*
X26332191Y-65056190D01*
X26284572Y-65008571D01*
X26189334Y-64960952D01*
X80259810Y-18923381D02*
X80259810Y-17923381D01*
X81307429Y-18828143D02*
X81259810Y-18875762D01*
X81116953Y-18923381D01*
X81021715Y-18923381D01*
X80878857Y-18875762D01*
X80783619Y-18780524D01*
X80736000Y-18685286D01*
X80688381Y-18494810D01*
X80688381Y-18351952D01*
X80736000Y-18161476D01*
X80783619Y-18066238D01*
X80878857Y-17971000D01*
X81021715Y-17923381D01*
X81116953Y-17923381D01*
X81259810Y-17971000D01*
X81307429Y-18018619D01*
X81688381Y-18018619D02*
X81736000Y-17971000D01*
X81831238Y-17923381D01*
X82069334Y-17923381D01*
X82164572Y-17971000D01*
X82212191Y-18018619D01*
X82259810Y-18113857D01*
X82259810Y-18209095D01*
X82212191Y-18351952D01*
X81640762Y-18923381D01*
X82259810Y-18923381D01*
X84685143Y-73413857D02*
X84732762Y-73461476D01*
X84780381Y-73604333D01*
X84780381Y-73699571D01*
X84732762Y-73842429D01*
X84637524Y-73937667D01*
X84542286Y-73985286D01*
X84351810Y-74032905D01*
X84208952Y-74032905D01*
X84018476Y-73985286D01*
X83923238Y-73937667D01*
X83828000Y-73842429D01*
X83780381Y-73699571D01*
X83780381Y-73604333D01*
X83828000Y-73461476D01*
X83875619Y-73413857D01*
X84780381Y-72461476D02*
X84780381Y-73032905D01*
X84780381Y-72747191D02*
X83780381Y-72747191D01*
X83923238Y-72842429D01*
X84018476Y-72937667D01*
X84066095Y-73032905D01*
X84113714Y-71604333D02*
X84780381Y-71604333D01*
X83732762Y-71842429D02*
X84447048Y-72080524D01*
X84447048Y-71461476D01*
X76668334Y-37441143D02*
X76620715Y-37488762D01*
X76477858Y-37536381D01*
X76382620Y-37536381D01*
X76239762Y-37488762D01*
X76144524Y-37393524D01*
X76096905Y-37298286D01*
X76049286Y-37107810D01*
X76049286Y-36964952D01*
X76096905Y-36774476D01*
X76144524Y-36679238D01*
X76239762Y-36584000D01*
X76382620Y-36536381D01*
X76477858Y-36536381D01*
X76620715Y-36584000D01*
X76668334Y-36631619D01*
X77620715Y-37536381D02*
X77049286Y-37536381D01*
X77335000Y-37536381D02*
X77335000Y-36536381D01*
X77239762Y-36679238D01*
X77144524Y-36774476D01*
X77049286Y-36822095D01*
X98143334Y-116154143D02*
X98095715Y-116201762D01*
X97952858Y-116249381D01*
X97857620Y-116249381D01*
X97714762Y-116201762D01*
X97619524Y-116106524D01*
X97571905Y-116011286D01*
X97524286Y-115820810D01*
X97524286Y-115677952D01*
X97571905Y-115487476D01*
X97619524Y-115392238D01*
X97714762Y-115297000D01*
X97857620Y-115249381D01*
X97952858Y-115249381D01*
X98095715Y-115297000D01*
X98143334Y-115344619D01*
X98524286Y-115344619D02*
X98571905Y-115297000D01*
X98667143Y-115249381D01*
X98905239Y-115249381D01*
X99000477Y-115297000D01*
X99048096Y-115344619D01*
X99095715Y-115439857D01*
X99095715Y-115535095D01*
X99048096Y-115677952D01*
X98476667Y-116249381D01*
X99095715Y-116249381D01*
X87479143Y-32551666D02*
X87526762Y-32599285D01*
X87574381Y-32742142D01*
X87574381Y-32837380D01*
X87526762Y-32980238D01*
X87431524Y-33075476D01*
X87336286Y-33123095D01*
X87145810Y-33170714D01*
X87002952Y-33170714D01*
X86812476Y-33123095D01*
X86717238Y-33075476D01*
X86622000Y-32980238D01*
X86574381Y-32837380D01*
X86574381Y-32742142D01*
X86622000Y-32599285D01*
X86669619Y-32551666D01*
X86574381Y-31694523D02*
X86574381Y-31885000D01*
X86622000Y-31980238D01*
X86669619Y-32027857D01*
X86812476Y-32123095D01*
X87002952Y-32170714D01*
X87383905Y-32170714D01*
X87479143Y-32123095D01*
X87526762Y-32075476D01*
X87574381Y-31980238D01*
X87574381Y-31789761D01*
X87526762Y-31694523D01*
X87479143Y-31646904D01*
X87383905Y-31599285D01*
X87145810Y-31599285D01*
X87050571Y-31646904D01*
X87002952Y-31694523D01*
X86955333Y-31789761D01*
X86955333Y-31980238D01*
X87002952Y-32075476D01*
X87050571Y-32123095D01*
X87145810Y-32170714D01*
X88098334Y-30202143D02*
X88050715Y-30249762D01*
X87907858Y-30297381D01*
X87812620Y-30297381D01*
X87669762Y-30249762D01*
X87574524Y-30154524D01*
X87526905Y-30059286D01*
X87479286Y-29868810D01*
X87479286Y-29725952D01*
X87526905Y-29535476D01*
X87574524Y-29440238D01*
X87669762Y-29345000D01*
X87812620Y-29297381D01*
X87907858Y-29297381D01*
X88050715Y-29345000D01*
X88098334Y-29392619D01*
X88431667Y-29297381D02*
X89098334Y-29297381D01*
X88669762Y-30297381D01*
X90610143Y-17367666D02*
X90657762Y-17415285D01*
X90705381Y-17558142D01*
X90705381Y-17653380D01*
X90657762Y-17796238D01*
X90562524Y-17891476D01*
X90467286Y-17939095D01*
X90276810Y-17986714D01*
X90133952Y-17986714D01*
X89943476Y-17939095D01*
X89848238Y-17891476D01*
X89753000Y-17796238D01*
X89705381Y-17653380D01*
X89705381Y-17558142D01*
X89753000Y-17415285D01*
X89800619Y-17367666D01*
X90133952Y-16796238D02*
X90086333Y-16891476D01*
X90038714Y-16939095D01*
X89943476Y-16986714D01*
X89895857Y-16986714D01*
X89800619Y-16939095D01*
X89753000Y-16891476D01*
X89705381Y-16796238D01*
X89705381Y-16605761D01*
X89753000Y-16510523D01*
X89800619Y-16462904D01*
X89895857Y-16415285D01*
X89943476Y-16415285D01*
X90038714Y-16462904D01*
X90086333Y-16510523D01*
X90133952Y-16605761D01*
X90133952Y-16796238D01*
X90181571Y-16891476D01*
X90229190Y-16939095D01*
X90324429Y-16986714D01*
X90514905Y-16986714D01*
X90610143Y-16939095D01*
X90657762Y-16891476D01*
X90705381Y-16796238D01*
X90705381Y-16605761D01*
X90657762Y-16510523D01*
X90610143Y-16462904D01*
X90514905Y-16415285D01*
X90324429Y-16415285D01*
X90229190Y-16462904D01*
X90181571Y-16510523D01*
X90133952Y-16605761D01*
X85701143Y-35472666D02*
X85748762Y-35520285D01*
X85796381Y-35663142D01*
X85796381Y-35758380D01*
X85748762Y-35901238D01*
X85653524Y-35996476D01*
X85558286Y-36044095D01*
X85367810Y-36091714D01*
X85224952Y-36091714D01*
X85034476Y-36044095D01*
X84939238Y-35996476D01*
X84844000Y-35901238D01*
X84796381Y-35758380D01*
X84796381Y-35663142D01*
X84844000Y-35520285D01*
X84891619Y-35472666D01*
X85796381Y-34996476D02*
X85796381Y-34806000D01*
X85748762Y-34710761D01*
X85701143Y-34663142D01*
X85558286Y-34567904D01*
X85367810Y-34520285D01*
X84986857Y-34520285D01*
X84891619Y-34567904D01*
X84844000Y-34615523D01*
X84796381Y-34710761D01*
X84796381Y-34901238D01*
X84844000Y-34996476D01*
X84891619Y-35044095D01*
X84986857Y-35091714D01*
X85224952Y-35091714D01*
X85320190Y-35044095D01*
X85367810Y-34996476D01*
X85415429Y-34901238D01*
X85415429Y-34710761D01*
X85367810Y-34615523D01*
X85320190Y-34567904D01*
X85224952Y-34520285D01*
X58796810Y-93853381D02*
X58796810Y-92853381D01*
X59844429Y-93758143D02*
X59796810Y-93805762D01*
X59653953Y-93853381D01*
X59558715Y-93853381D01*
X59415857Y-93805762D01*
X59320619Y-93710524D01*
X59273000Y-93615286D01*
X59225381Y-93424810D01*
X59225381Y-93281952D01*
X59273000Y-93091476D01*
X59320619Y-92996238D01*
X59415857Y-92901000D01*
X59558715Y-92853381D01*
X59653953Y-92853381D01*
X59796810Y-92901000D01*
X59844429Y-92948619D01*
X60177762Y-92853381D02*
X60844429Y-92853381D01*
X60415857Y-93853381D01*
X104675619Y-93853381D02*
X104675619Y-92853381D01*
X105723238Y-93758143D02*
X105675619Y-93805762D01*
X105532762Y-93853381D01*
X105437524Y-93853381D01*
X105294666Y-93805762D01*
X105199428Y-93710524D01*
X105151809Y-93615286D01*
X105104190Y-93424810D01*
X105104190Y-93281952D01*
X105151809Y-93091476D01*
X105199428Y-92996238D01*
X105294666Y-92901000D01*
X105437524Y-92853381D01*
X105532762Y-92853381D01*
X105675619Y-92901000D01*
X105723238Y-92948619D01*
X106675619Y-93853381D02*
X106104190Y-93853381D01*
X106389904Y-93853381D02*
X106389904Y-92853381D01*
X106294666Y-92996238D01*
X106199428Y-93091476D01*
X106104190Y-93139095D01*
X107628000Y-93853381D02*
X107056571Y-93853381D01*
X107342285Y-93853381D02*
X107342285Y-92853381D01*
X107247047Y-92996238D01*
X107151809Y-93091476D01*
X107056571Y-93139095D01*
X50113143Y-53372143D02*
X50065524Y-53419762D01*
X49922667Y-53467381D01*
X49827429Y-53467381D01*
X49684571Y-53419762D01*
X49589333Y-53324524D01*
X49541714Y-53229286D01*
X49494095Y-53038810D01*
X49494095Y-52895952D01*
X49541714Y-52705476D01*
X49589333Y-52610238D01*
X49684571Y-52515000D01*
X49827429Y-52467381D01*
X49922667Y-52467381D01*
X50065524Y-52515000D01*
X50113143Y-52562619D01*
X51065524Y-53467381D02*
X50494095Y-53467381D01*
X50779809Y-53467381D02*
X50779809Y-52467381D01*
X50684571Y-52610238D01*
X50589333Y-52705476D01*
X50494095Y-52753095D01*
X51684571Y-52467381D02*
X51779810Y-52467381D01*
X51875048Y-52515000D01*
X51922667Y-52562619D01*
X51970286Y-52657857D01*
X52017905Y-52848333D01*
X52017905Y-53086429D01*
X51970286Y-53276905D01*
X51922667Y-53372143D01*
X51875048Y-53419762D01*
X51779810Y-53467381D01*
X51684571Y-53467381D01*
X51589333Y-53419762D01*
X51541714Y-53372143D01*
X51494095Y-53276905D01*
X51446476Y-53086429D01*
X51446476Y-52848333D01*
X51494095Y-52657857D01*
X51541714Y-52562619D01*
X51589333Y-52515000D01*
X51684571Y-52467381D01*
X55066143Y-53372143D02*
X55018524Y-53419762D01*
X54875667Y-53467381D01*
X54780429Y-53467381D01*
X54637571Y-53419762D01*
X54542333Y-53324524D01*
X54494714Y-53229286D01*
X54447095Y-53038810D01*
X54447095Y-52895952D01*
X54494714Y-52705476D01*
X54542333Y-52610238D01*
X54637571Y-52515000D01*
X54780429Y-52467381D01*
X54875667Y-52467381D01*
X55018524Y-52515000D01*
X55066143Y-52562619D01*
X56018524Y-53467381D02*
X55447095Y-53467381D01*
X55732809Y-53467381D02*
X55732809Y-52467381D01*
X55637571Y-52610238D01*
X55542333Y-52705476D01*
X55447095Y-52753095D01*
X56970905Y-53467381D02*
X56399476Y-53467381D01*
X56685190Y-53467381D02*
X56685190Y-52467381D01*
X56589952Y-52610238D01*
X56494714Y-52705476D01*
X56399476Y-52753095D01*
X19029905Y-24003381D02*
X19029905Y-23003381D01*
X19268000Y-23003381D01*
X19410858Y-23051000D01*
X19506096Y-23146238D01*
X19553715Y-23241476D01*
X19601334Y-23431952D01*
X19601334Y-23574810D01*
X19553715Y-23765286D01*
X19506096Y-23860524D01*
X19410858Y-23955762D01*
X19268000Y-24003381D01*
X19029905Y-24003381D01*
X19934667Y-23003381D02*
X20553715Y-23003381D01*
X20220381Y-23384333D01*
X20363239Y-23384333D01*
X20458477Y-23431952D01*
X20506096Y-23479571D01*
X20553715Y-23574810D01*
X20553715Y-23812905D01*
X20506096Y-23908143D01*
X20458477Y-23955762D01*
X20363239Y-24003381D01*
X20077524Y-24003381D01*
X19982286Y-23955762D01*
X19934667Y-23908143D01*
X69623381Y-34941190D02*
X68623381Y-34941190D01*
X69528143Y-33893571D02*
X69575762Y-33941190D01*
X69623381Y-34084047D01*
X69623381Y-34179285D01*
X69575762Y-34322143D01*
X69480524Y-34417381D01*
X69385286Y-34465000D01*
X69194810Y-34512619D01*
X69051952Y-34512619D01*
X68861476Y-34465000D01*
X68766238Y-34417381D01*
X68671000Y-34322143D01*
X68623381Y-34179285D01*
X68623381Y-34084047D01*
X68671000Y-33941190D01*
X68718619Y-33893571D01*
X69623381Y-32941190D02*
X69623381Y-33512619D01*
X69623381Y-33226905D02*
X68623381Y-33226905D01*
X68766238Y-33322143D01*
X68861476Y-33417381D01*
X68909095Y-33512619D01*
X17391143Y-36933143D02*
X17343524Y-36980762D01*
X17200667Y-37028381D01*
X17105429Y-37028381D01*
X16962571Y-36980762D01*
X16867333Y-36885524D01*
X16819714Y-36790286D01*
X16772095Y-36599810D01*
X16772095Y-36456952D01*
X16819714Y-36266476D01*
X16867333Y-36171238D01*
X16962571Y-36076000D01*
X17105429Y-36028381D01*
X17200667Y-36028381D01*
X17343524Y-36076000D01*
X17391143Y-36123619D01*
X17772095Y-36123619D02*
X17819714Y-36076000D01*
X17914952Y-36028381D01*
X18153048Y-36028381D01*
X18248286Y-36076000D01*
X18295905Y-36123619D01*
X18343524Y-36218857D01*
X18343524Y-36314095D01*
X18295905Y-36456952D01*
X17724476Y-37028381D01*
X18343524Y-37028381D01*
X18676857Y-36028381D02*
X19295905Y-36028381D01*
X18962571Y-36409333D01*
X19105429Y-36409333D01*
X19200667Y-36456952D01*
X19248286Y-36504571D01*
X19295905Y-36599810D01*
X19295905Y-36837905D01*
X19248286Y-36933143D01*
X19200667Y-36980762D01*
X19105429Y-37028381D01*
X18819714Y-37028381D01*
X18724476Y-36980762D01*
X18676857Y-36933143D01*
X13589143Y-115339762D02*
X13732000Y-115387381D01*
X13970096Y-115387381D01*
X14065334Y-115339762D01*
X14112953Y-115292143D01*
X14160572Y-115196905D01*
X14160572Y-115101667D01*
X14112953Y-115006429D01*
X14065334Y-114958810D01*
X13970096Y-114911190D01*
X13779619Y-114863571D01*
X13684381Y-114815952D01*
X13636762Y-114768333D01*
X13589143Y-114673095D01*
X13589143Y-114577857D01*
X13636762Y-114482619D01*
X13684381Y-114435000D01*
X13779619Y-114387381D01*
X14017715Y-114387381D01*
X14160572Y-114435000D01*
X14446286Y-114387381D02*
X15017715Y-114387381D01*
X14732000Y-115387381D02*
X14732000Y-114387381D01*
X15874858Y-115387381D02*
X15303429Y-115387381D01*
X15589143Y-115387381D02*
X15589143Y-114387381D01*
X15493905Y-114530238D01*
X15398667Y-114625476D01*
X15303429Y-114673095D01*
X114731943Y-115339762D02*
X114874800Y-115387381D01*
X115112896Y-115387381D01*
X115208134Y-115339762D01*
X115255753Y-115292143D01*
X115303372Y-115196905D01*
X115303372Y-115101667D01*
X115255753Y-115006429D01*
X115208134Y-114958810D01*
X115112896Y-114911190D01*
X114922419Y-114863571D01*
X114827181Y-114815952D01*
X114779562Y-114768333D01*
X114731943Y-114673095D01*
X114731943Y-114577857D01*
X114779562Y-114482619D01*
X114827181Y-114435000D01*
X114922419Y-114387381D01*
X115160515Y-114387381D01*
X115303372Y-114435000D01*
X115589086Y-114387381D02*
X116160515Y-114387381D01*
X115874800Y-115387381D02*
X115874800Y-114387381D01*
X116446229Y-114482619D02*
X116493848Y-114435000D01*
X116589086Y-114387381D01*
X116827182Y-114387381D01*
X116922420Y-114435000D01*
X116970039Y-114482619D01*
X117017658Y-114577857D01*
X117017658Y-114673095D01*
X116970039Y-114815952D01*
X116398610Y-115387381D01*
X117017658Y-115387381D01*
X29972143Y-115339762D02*
X30115000Y-115387381D01*
X30353096Y-115387381D01*
X30448334Y-115339762D01*
X30495953Y-115292143D01*
X30543572Y-115196905D01*
X30543572Y-115101667D01*
X30495953Y-115006429D01*
X30448334Y-114958810D01*
X30353096Y-114911190D01*
X30162619Y-114863571D01*
X30067381Y-114815952D01*
X30019762Y-114768333D01*
X29972143Y-114673095D01*
X29972143Y-114577857D01*
X30019762Y-114482619D01*
X30067381Y-114435000D01*
X30162619Y-114387381D01*
X30400715Y-114387381D01*
X30543572Y-114435000D01*
X30829286Y-114387381D02*
X31400715Y-114387381D01*
X31115000Y-115387381D02*
X31115000Y-114387381D01*
X32162620Y-114720714D02*
X32162620Y-115387381D01*
X31924524Y-114339762D02*
X31686429Y-115054048D01*
X32305477Y-115054048D01*
X50546143Y-115339762D02*
X50689000Y-115387381D01*
X50927096Y-115387381D01*
X51022334Y-115339762D01*
X51069953Y-115292143D01*
X51117572Y-115196905D01*
X51117572Y-115101667D01*
X51069953Y-115006429D01*
X51022334Y-114958810D01*
X50927096Y-114911190D01*
X50736619Y-114863571D01*
X50641381Y-114815952D01*
X50593762Y-114768333D01*
X50546143Y-114673095D01*
X50546143Y-114577857D01*
X50593762Y-114482619D01*
X50641381Y-114435000D01*
X50736619Y-114387381D01*
X50974715Y-114387381D01*
X51117572Y-114435000D01*
X51403286Y-114387381D02*
X51974715Y-114387381D01*
X51689000Y-115387381D02*
X51689000Y-114387381D01*
X52736620Y-114387381D02*
X52546143Y-114387381D01*
X52450905Y-114435000D01*
X52403286Y-114482619D01*
X52308048Y-114625476D01*
X52260429Y-114815952D01*
X52260429Y-115196905D01*
X52308048Y-115292143D01*
X52355667Y-115339762D01*
X52450905Y-115387381D01*
X52641382Y-115387381D01*
X52736620Y-115339762D01*
X52784239Y-115292143D01*
X52831858Y-115196905D01*
X52831858Y-114958810D01*
X52784239Y-114863571D01*
X52736620Y-114815952D01*
X52641382Y-114768333D01*
X52450905Y-114768333D01*
X52355667Y-114815952D01*
X52308048Y-114863571D01*
X52260429Y-114958810D01*
X123908095Y-99965381D02*
X124479524Y-99965381D01*
X124193809Y-100965381D02*
X124193809Y-99965381D01*
X125336667Y-100965381D02*
X124765238Y-100965381D01*
X125050952Y-100965381D02*
X125050952Y-99965381D01*
X124955714Y-100108238D01*
X124860476Y-100203476D01*
X124765238Y-100251095D01*
X91721619Y-114554381D02*
X91721619Y-113554381D01*
X92769238Y-114459143D02*
X92721619Y-114506762D01*
X92578762Y-114554381D01*
X92483524Y-114554381D01*
X92340666Y-114506762D01*
X92245428Y-114411524D01*
X92197809Y-114316286D01*
X92150190Y-114125810D01*
X92150190Y-113982952D01*
X92197809Y-113792476D01*
X92245428Y-113697238D01*
X92340666Y-113602000D01*
X92483524Y-113554381D01*
X92578762Y-113554381D01*
X92721619Y-113602000D01*
X92769238Y-113649619D01*
X93721619Y-114554381D02*
X93150190Y-114554381D01*
X93435904Y-114554381D02*
X93435904Y-113554381D01*
X93340666Y-113697238D01*
X93245428Y-113792476D01*
X93150190Y-113840095D01*
X94102571Y-113649619D02*
X94150190Y-113602000D01*
X94245428Y-113554381D01*
X94483524Y-113554381D01*
X94578762Y-113602000D01*
X94626381Y-113649619D01*
X94674000Y-113744857D01*
X94674000Y-113840095D01*
X94626381Y-113982952D01*
X94054952Y-114554381D01*
X94674000Y-114554381D01*
X96088343Y-14298562D02*
X96231200Y-14346181D01*
X96469296Y-14346181D01*
X96564534Y-14298562D01*
X96612153Y-14250943D01*
X96659772Y-14155705D01*
X96659772Y-14060467D01*
X96612153Y-13965229D01*
X96564534Y-13917610D01*
X96469296Y-13869990D01*
X96278819Y-13822371D01*
X96183581Y-13774752D01*
X96135962Y-13727133D01*
X96088343Y-13631895D01*
X96088343Y-13536657D01*
X96135962Y-13441419D01*
X96183581Y-13393800D01*
X96278819Y-13346181D01*
X96516915Y-13346181D01*
X96659772Y-13393800D01*
X96945486Y-13346181D02*
X97516915Y-13346181D01*
X97231200Y-14346181D02*
X97231200Y-13346181D01*
X97755010Y-13346181D02*
X98374058Y-13346181D01*
X98040724Y-13727133D01*
X98183582Y-13727133D01*
X98278820Y-13774752D01*
X98326439Y-13822371D01*
X98374058Y-13917610D01*
X98374058Y-14155705D01*
X98326439Y-14250943D01*
X98278820Y-14298562D01*
X98183582Y-14346181D01*
X97897867Y-14346181D01*
X97802629Y-14298562D01*
X97755010Y-14250943D01*
X21201143Y-38076143D02*
X21153524Y-38123762D01*
X21010667Y-38171381D01*
X20915429Y-38171381D01*
X20772571Y-38123762D01*
X20677333Y-38028524D01*
X20629714Y-37933286D01*
X20582095Y-37742810D01*
X20582095Y-37599952D01*
X20629714Y-37409476D01*
X20677333Y-37314238D01*
X20772571Y-37219000D01*
X20915429Y-37171381D01*
X21010667Y-37171381D01*
X21153524Y-37219000D01*
X21201143Y-37266619D01*
X21582095Y-37266619D02*
X21629714Y-37219000D01*
X21724952Y-37171381D01*
X21963048Y-37171381D01*
X22058286Y-37219000D01*
X22105905Y-37266619D01*
X22153524Y-37361857D01*
X22153524Y-37457095D01*
X22105905Y-37599952D01*
X21534476Y-38171381D01*
X22153524Y-38171381D01*
X22772571Y-37171381D02*
X22867810Y-37171381D01*
X22963048Y-37219000D01*
X23010667Y-37266619D01*
X23058286Y-37361857D01*
X23105905Y-37552333D01*
X23105905Y-37790429D01*
X23058286Y-37980905D01*
X23010667Y-38076143D01*
X22963048Y-38123762D01*
X22867810Y-38171381D01*
X22772571Y-38171381D01*
X22677333Y-38123762D01*
X22629714Y-38076143D01*
X22582095Y-37980905D01*
X22534476Y-37790429D01*
X22534476Y-37552333D01*
X22582095Y-37361857D01*
X22629714Y-37266619D01*
X22677333Y-37219000D01*
X22772571Y-37171381D01*
X93591143Y-44553143D02*
X93543524Y-44600762D01*
X93400667Y-44648381D01*
X93305429Y-44648381D01*
X93162571Y-44600762D01*
X93067333Y-44505524D01*
X93019714Y-44410286D01*
X92972095Y-44219810D01*
X92972095Y-44076952D01*
X93019714Y-43886476D01*
X93067333Y-43791238D01*
X93162571Y-43696000D01*
X93305429Y-43648381D01*
X93400667Y-43648381D01*
X93543524Y-43696000D01*
X93591143Y-43743619D01*
X93972095Y-43743619D02*
X94019714Y-43696000D01*
X94114952Y-43648381D01*
X94353048Y-43648381D01*
X94448286Y-43696000D01*
X94495905Y-43743619D01*
X94543524Y-43838857D01*
X94543524Y-43934095D01*
X94495905Y-44076952D01*
X93924476Y-44648381D01*
X94543524Y-44648381D01*
X94924476Y-43743619D02*
X94972095Y-43696000D01*
X95067333Y-43648381D01*
X95305429Y-43648381D01*
X95400667Y-43696000D01*
X95448286Y-43743619D01*
X95495905Y-43838857D01*
X95495905Y-43934095D01*
X95448286Y-44076952D01*
X94876857Y-44648381D01*
X95495905Y-44648381D01*
X89781143Y-44553143D02*
X89733524Y-44600762D01*
X89590667Y-44648381D01*
X89495429Y-44648381D01*
X89352571Y-44600762D01*
X89257333Y-44505524D01*
X89209714Y-44410286D01*
X89162095Y-44219810D01*
X89162095Y-44076952D01*
X89209714Y-43886476D01*
X89257333Y-43791238D01*
X89352571Y-43696000D01*
X89495429Y-43648381D01*
X89590667Y-43648381D01*
X89733524Y-43696000D01*
X89781143Y-43743619D01*
X90114476Y-43648381D02*
X90733524Y-43648381D01*
X90400190Y-44029333D01*
X90543048Y-44029333D01*
X90638286Y-44076952D01*
X90685905Y-44124571D01*
X90733524Y-44219810D01*
X90733524Y-44457905D01*
X90685905Y-44553143D01*
X90638286Y-44600762D01*
X90543048Y-44648381D01*
X90257333Y-44648381D01*
X90162095Y-44600762D01*
X90114476Y-44553143D01*
X91304952Y-44076952D02*
X91209714Y-44029333D01*
X91162095Y-43981714D01*
X91114476Y-43886476D01*
X91114476Y-43838857D01*
X91162095Y-43743619D01*
X91209714Y-43696000D01*
X91304952Y-43648381D01*
X91495429Y-43648381D01*
X91590667Y-43696000D01*
X91638286Y-43743619D01*
X91685905Y-43838857D01*
X91685905Y-43886476D01*
X91638286Y-43981714D01*
X91590667Y-44029333D01*
X91495429Y-44076952D01*
X91304952Y-44076952D01*
X91209714Y-44124571D01*
X91162095Y-44172190D01*
X91114476Y-44267429D01*
X91114476Y-44457905D01*
X91162095Y-44553143D01*
X91209714Y-44600762D01*
X91304952Y-44648381D01*
X91495429Y-44648381D01*
X91590667Y-44600762D01*
X91638286Y-44553143D01*
X91685905Y-44457905D01*
X91685905Y-44267429D01*
X91638286Y-44172190D01*
X91590667Y-44124571D01*
X91495429Y-44076952D01*
X90590810Y-29662381D02*
X90590810Y-28662381D01*
X91638429Y-29567143D02*
X91590810Y-29614762D01*
X91447953Y-29662381D01*
X91352715Y-29662381D01*
X91209857Y-29614762D01*
X91114619Y-29519524D01*
X91067000Y-29424286D01*
X91019381Y-29233810D01*
X91019381Y-29090952D01*
X91067000Y-28900476D01*
X91114619Y-28805238D01*
X91209857Y-28710000D01*
X91352715Y-28662381D01*
X91447953Y-28662381D01*
X91590810Y-28710000D01*
X91638429Y-28757619D01*
X91971762Y-28662381D02*
X92590810Y-28662381D01*
X92257476Y-29043333D01*
X92400334Y-29043333D01*
X92495572Y-29090952D01*
X92543191Y-29138571D01*
X92590810Y-29233810D01*
X92590810Y-29471905D01*
X92543191Y-29567143D01*
X92495572Y-29614762D01*
X92400334Y-29662381D01*
X92114619Y-29662381D01*
X92019381Y-29614762D01*
X91971762Y-29567143D01*
X51903381Y-15819333D02*
X52617667Y-15819333D01*
X52760524Y-15866953D01*
X52855762Y-15962191D01*
X52903381Y-16105048D01*
X52903381Y-16200286D01*
X52903381Y-15343143D02*
X51903381Y-15343143D01*
X51903381Y-14962190D01*
X51951000Y-14866952D01*
X51998619Y-14819333D01*
X52093857Y-14771714D01*
X52236714Y-14771714D01*
X52331952Y-14819333D01*
X52379571Y-14866952D01*
X52427190Y-14962190D01*
X52427190Y-15343143D01*
X52903381Y-13819333D02*
X52903381Y-14390762D01*
X52903381Y-14105048D02*
X51903381Y-14105048D01*
X52046238Y-14200286D01*
X52141476Y-14295524D01*
X52189095Y-14390762D01*
M02*
