G04 #@! TF.FileFunction,Copper,L2,Bot,Signal*
%FSLAX46Y46*%
G04 Gerber Fmt 4.6, Leading zero omitted, Abs format (unit mm)*
G04 Created by KiCad (PCBNEW 4.0.2-stable) date 2021 June 23, Wednesday 13:45:09*
%MOMM*%
G01*
G04 APERTURE LIST*
%ADD10C,0.100000*%
%ADD11O,2.032000X2.032000*%
%ADD12C,2.032000*%
%ADD13R,2.032000X2.032000*%
%ADD14O,3.000000X2.100000*%
%ADD15C,2.000000*%
%ADD16C,1.905000*%
%ADD17R,2.499360X2.499360*%
%ADD18C,2.499360*%
%ADD19C,2.600000*%
%ADD20O,1.800000X3.600000*%
%ADD21C,1.778000*%
%ADD22O,1.800000X2.300000*%
%ADD23C,6.000000*%
%ADD24C,2.200000*%
%ADD25O,5.000000X6.300000*%
%ADD26O,2.100000X2.500000*%
%ADD27C,0.600000*%
%ADD28C,0.400000*%
%ADD29C,0.500000*%
%ADD30C,1.500000*%
%ADD31C,1.000000*%
%ADD32C,0.254000*%
G04 APERTURE END LIST*
D10*
D11*
X34290000Y-15240000D03*
D12*
X36830000Y-15240000D03*
X39370000Y-15240000D03*
X41910000Y-15240000D03*
X44450000Y-15240000D03*
X46990000Y-15240000D03*
D13*
X20149000Y-15296000D03*
D11*
X17609000Y-15296000D03*
D14*
X94107000Y-119761000D03*
X94107000Y-122301000D03*
X94107000Y-117221000D03*
D15*
X77597000Y-93472000D03*
X77597000Y-88392000D03*
X77597000Y-104902000D03*
X77597000Y-99822000D03*
D16*
X91567000Y-104902000D03*
X91567000Y-99822000D03*
X91567000Y-93472000D03*
X91567000Y-88392000D03*
D15*
X57177940Y-43942000D03*
X52296060Y-43942000D03*
D17*
X65024000Y-48133000D03*
D18*
X65024000Y-63373000D03*
X72644000Y-63373000D03*
X72644000Y-48133000D03*
D19*
X129872740Y-107210860D03*
X129872740Y-94211140D03*
X123873260Y-107210860D03*
X123873260Y-94211140D03*
D20*
X19895000Y-43998000D03*
X22435000Y-43998000D03*
X17355000Y-43998000D03*
D21*
X52280000Y-51491000D03*
X52280000Y-48991000D03*
X57233000Y-48951000D03*
X57233000Y-51451000D03*
D13*
X25102000Y-21773000D03*
D12*
X17482000Y-21773000D03*
D22*
X34290000Y-38100000D03*
X36830000Y-38100000D03*
X39370000Y-38100000D03*
X41910000Y-38100000D03*
X44450000Y-38100000D03*
X46990000Y-38100000D03*
X49530000Y-38100000D03*
X52070000Y-38100000D03*
X54610000Y-38100000D03*
X57150000Y-38100000D03*
X59690000Y-38100000D03*
X62230000Y-38100000D03*
X64770000Y-38100000D03*
X67310000Y-38100000D03*
X67310000Y-30480000D03*
X64770000Y-30480000D03*
X62230000Y-30480000D03*
X59690000Y-30480000D03*
X57150000Y-30480000D03*
X54610000Y-30480000D03*
X52070000Y-30480000D03*
X49530000Y-30480000D03*
X46990000Y-30480000D03*
X44450000Y-30480000D03*
X41910000Y-30480000D03*
X39370000Y-30480000D03*
X36830000Y-30480000D03*
X34290000Y-30480000D03*
D15*
X23578000Y-30917000D03*
X18578000Y-30917000D03*
D23*
X125222000Y-27432000D03*
X99822000Y-27432000D03*
D24*
X117983000Y-29972000D03*
X115189000Y-29972000D03*
X112395000Y-29972000D03*
X109728000Y-29972000D03*
X106934000Y-29972000D03*
X108331000Y-27432000D03*
X111125000Y-27432000D03*
X113792000Y-27432000D03*
X116586000Y-27432000D03*
D25*
X26306780Y-120802400D03*
X16108680Y-120802400D03*
D26*
X21209000Y-116537740D03*
X23708360Y-116537740D03*
D25*
X128414780Y-120802400D03*
X118216680Y-120802400D03*
D26*
X123317000Y-116537740D03*
X125816360Y-116537740D03*
D25*
X44042780Y-120731400D03*
X33844680Y-120731400D03*
D26*
X38945000Y-116466740D03*
X41444360Y-116466740D03*
D25*
X64660780Y-120802400D03*
X54462680Y-120802400D03*
D26*
X59563000Y-116537740D03*
X62062360Y-116537740D03*
D27*
X75775000Y-70033000D03*
X128480000Y-83114000D03*
X128607000Y-72065000D03*
X128734000Y-70287000D03*
X120987000Y-70287000D03*
X91821000Y-74676000D03*
X82328000Y-70072000D03*
X90170000Y-64897000D03*
X88519000Y-57023000D03*
X80645000Y-57023000D03*
X93599000Y-67183000D03*
X76327000Y-66040000D03*
X35770000Y-84511000D03*
X96984000Y-59238000D03*
X114891000Y-68128000D03*
X43390000Y-63683000D03*
X119463000Y-74478000D03*
X47581000Y-27742000D03*
X88983000Y-33838000D03*
X74886000Y-43744000D03*
X88983000Y-42601000D03*
D28*
X80645000Y-57023000D02*
X76212000Y-57023000D01*
X74759000Y-69017000D02*
X75775000Y-70033000D01*
X74759000Y-58476000D02*
X74759000Y-69017000D01*
X76212000Y-57023000D02*
X74759000Y-58476000D01*
D29*
X128480000Y-72192000D02*
X128480000Y-83114000D01*
X128607000Y-72065000D02*
X128480000Y-72192000D01*
X120987000Y-70287000D02*
X128734000Y-70287000D01*
X20149000Y-15296000D02*
X20149000Y-29346000D01*
X20149000Y-29346000D02*
X18578000Y-30917000D01*
X20149000Y-15296000D02*
X23197000Y-18344000D01*
X23197000Y-18344000D02*
X37929000Y-18344000D01*
X53296000Y-34219000D02*
X33103000Y-34219000D01*
X39370000Y-16903000D02*
X39370000Y-15240000D01*
X31071000Y-25202000D02*
X37929000Y-18344000D01*
X37929000Y-18344000D02*
X39370000Y-16903000D01*
X31071000Y-32187000D02*
X31071000Y-25202000D01*
X33103000Y-34219000D02*
X31071000Y-32187000D01*
X57150000Y-30480000D02*
X57150000Y-32143000D01*
X55074000Y-34219000D02*
X53296000Y-34219000D01*
X57150000Y-32143000D02*
X55074000Y-34219000D01*
X52070000Y-38100000D02*
X52070000Y-40525000D01*
X52070000Y-40525000D02*
X49867000Y-42728000D01*
X49867000Y-42728000D02*
X49867000Y-50221000D01*
X49867000Y-50221000D02*
X51137000Y-51491000D01*
X51137000Y-51491000D02*
X52280000Y-51491000D01*
X57233000Y-51451000D02*
X52320000Y-51451000D01*
X52320000Y-51451000D02*
X52280000Y-51491000D01*
X65024000Y-63373000D02*
X65024000Y-56996000D01*
X59479000Y-51451000D02*
X57233000Y-51451000D01*
X65024000Y-56996000D02*
X59479000Y-51451000D01*
D28*
X82328000Y-70072000D02*
X90519000Y-70072000D01*
X91821000Y-71374000D02*
X91821000Y-74676000D01*
X90519000Y-70072000D02*
X91821000Y-71374000D01*
X87503000Y-64897000D02*
X90170000Y-64897000D01*
X82328000Y-70072000D02*
X87503000Y-64897000D01*
X80645000Y-57023000D02*
X88519000Y-57023000D01*
D30*
X22435000Y-32060000D02*
X14942000Y-39553000D01*
X23578000Y-91877000D02*
X14942000Y-83241000D01*
X51010000Y-91877000D02*
X23578000Y-91877000D01*
X69425000Y-110292000D02*
X51010000Y-91877000D01*
X78061000Y-110292000D02*
X69425000Y-110292000D01*
X90070000Y-122301000D02*
X78061000Y-110292000D01*
X90070000Y-122301000D02*
X94107000Y-122301000D01*
X14942000Y-39553000D02*
X14942000Y-83241000D01*
X22435000Y-43998000D02*
X22435000Y-32060000D01*
X22435000Y-32060000D02*
X23578000Y-30917000D01*
X25102000Y-21773000D02*
X25102000Y-29393000D01*
X25102000Y-29393000D02*
X23578000Y-30917000D01*
D29*
X52296060Y-43942000D02*
X52296060Y-48974940D01*
X52296060Y-48974940D02*
X52280000Y-48991000D01*
X54610000Y-38100000D02*
X54610000Y-41628060D01*
X54610000Y-41628060D02*
X52296060Y-43942000D01*
X57177940Y-43942000D02*
X57177940Y-48895940D01*
X57177940Y-48895940D02*
X57233000Y-48951000D01*
X57150000Y-38100000D02*
X57150000Y-43914060D01*
X57150000Y-43914060D02*
X57177940Y-43942000D01*
D28*
X90424000Y-64008000D02*
X93599000Y-67183000D01*
X78359000Y-64008000D02*
X90424000Y-64008000D01*
X76327000Y-66040000D02*
X78359000Y-64008000D01*
D31*
X34373000Y-63683000D02*
X34373000Y-83114000D01*
X34373000Y-83114000D02*
X35770000Y-84511000D01*
X96984000Y-73843000D02*
X94698000Y-76129000D01*
X96984000Y-59238000D02*
X96984000Y-73843000D01*
X43390000Y-63683000D02*
X55836000Y-76129000D01*
X106890000Y-76129000D02*
X114891000Y-68128000D01*
X55836000Y-76129000D02*
X94698000Y-76129000D01*
X94698000Y-76129000D02*
X106890000Y-76129000D01*
X17355000Y-46665000D02*
X34373000Y-63683000D01*
X34373000Y-63683000D02*
X43390000Y-63683000D01*
D29*
X17355000Y-46665000D02*
X17355000Y-46538000D01*
D31*
X17355000Y-46538000D02*
X17355000Y-43998000D01*
D29*
X44450000Y-38100000D02*
X44450000Y-37350000D01*
X44450000Y-37350000D02*
X46057000Y-35743000D01*
X46057000Y-35743000D02*
X88221000Y-35743000D01*
X88221000Y-35743000D02*
X119463000Y-66985000D01*
X119463000Y-66985000D02*
X119463000Y-74478000D01*
X17609000Y-15296000D02*
X17482000Y-15423000D01*
D30*
X17482000Y-15423000D02*
X17482000Y-21773000D01*
D29*
X36830000Y-30480000D02*
X36830000Y-26682000D01*
X44450000Y-22364000D02*
X44450000Y-15240000D01*
X40850000Y-25964000D02*
X44450000Y-22364000D01*
X37548000Y-25964000D02*
X40850000Y-25964000D01*
X36830000Y-26682000D02*
X37548000Y-25964000D01*
X34290000Y-30480000D02*
X34290000Y-25920000D01*
X41910000Y-22237000D02*
X41910000Y-15240000D01*
X40215000Y-23932000D02*
X41910000Y-22237000D01*
X36278000Y-23932000D02*
X40215000Y-23932000D01*
X34290000Y-25920000D02*
X36278000Y-23932000D01*
X82887000Y-27742000D02*
X47581000Y-27742000D01*
X88983000Y-33838000D02*
X82887000Y-27742000D01*
X87840000Y-43744000D02*
X74886000Y-43744000D01*
X88983000Y-42601000D02*
X87840000Y-43744000D01*
D32*
G36*
X132342000Y-129013000D02*
X13112000Y-129013000D01*
X13112000Y-122152468D01*
X13260918Y-122769445D01*
X13981702Y-123758982D01*
X15026299Y-124397363D01*
X15493224Y-124526394D01*
X15981680Y-124425939D01*
X15981680Y-120929400D01*
X16235680Y-120929400D01*
X16235680Y-124425939D01*
X16724136Y-124526394D01*
X17191061Y-124397363D01*
X18235658Y-123758982D01*
X18956442Y-122769445D01*
X19243680Y-121579400D01*
X19243680Y-120929400D01*
X23171780Y-120929400D01*
X23171780Y-121579400D01*
X23459018Y-122769445D01*
X24179802Y-123758982D01*
X25224399Y-124397363D01*
X25691324Y-124526394D01*
X26179780Y-124425939D01*
X26179780Y-120929400D01*
X26433780Y-120929400D01*
X26433780Y-124425939D01*
X26922236Y-124526394D01*
X27389161Y-124397363D01*
X28433758Y-123758982D01*
X29154542Y-122769445D01*
X29441780Y-121579400D01*
X29441780Y-120929400D01*
X26433780Y-120929400D01*
X26179780Y-120929400D01*
X23171780Y-120929400D01*
X19243680Y-120929400D01*
X16235680Y-120929400D01*
X15981680Y-120929400D01*
X15961680Y-120929400D01*
X15961680Y-120858400D01*
X30709680Y-120858400D01*
X30709680Y-121508400D01*
X30996918Y-122698445D01*
X31717702Y-123687982D01*
X32762299Y-124326363D01*
X33229224Y-124455394D01*
X33717680Y-124354939D01*
X33717680Y-120858400D01*
X33971680Y-120858400D01*
X33971680Y-124354939D01*
X34460136Y-124455394D01*
X34927061Y-124326363D01*
X35971658Y-123687982D01*
X36692442Y-122698445D01*
X36979680Y-121508400D01*
X36979680Y-120858400D01*
X40907780Y-120858400D01*
X40907780Y-121508400D01*
X41195018Y-122698445D01*
X41915802Y-123687982D01*
X42960399Y-124326363D01*
X43427324Y-124455394D01*
X43915780Y-124354939D01*
X43915780Y-120858400D01*
X44169780Y-120858400D01*
X44169780Y-124354939D01*
X44658236Y-124455394D01*
X45125161Y-124326363D01*
X46169758Y-123687982D01*
X46890542Y-122698445D01*
X47177780Y-121508400D01*
X47177780Y-120929400D01*
X51327680Y-120929400D01*
X51327680Y-121579400D01*
X51614918Y-122769445D01*
X52335702Y-123758982D01*
X53380299Y-124397363D01*
X53847224Y-124526394D01*
X54335680Y-124425939D01*
X54335680Y-120929400D01*
X54589680Y-120929400D01*
X54589680Y-124425939D01*
X55078136Y-124526394D01*
X55545061Y-124397363D01*
X56589658Y-123758982D01*
X57310442Y-122769445D01*
X57597680Y-121579400D01*
X57597680Y-120929400D01*
X61525780Y-120929400D01*
X61525780Y-121579400D01*
X61813018Y-122769445D01*
X62533802Y-123758982D01*
X63578399Y-124397363D01*
X64045324Y-124526394D01*
X64533780Y-124425939D01*
X64533780Y-120929400D01*
X64787780Y-120929400D01*
X64787780Y-124425939D01*
X65276236Y-124526394D01*
X65743161Y-124397363D01*
X66787758Y-123758982D01*
X67508542Y-122769445D01*
X67795780Y-121579400D01*
X67795780Y-120929400D01*
X64787780Y-120929400D01*
X64533780Y-120929400D01*
X61525780Y-120929400D01*
X57597680Y-120929400D01*
X54589680Y-120929400D01*
X54335680Y-120929400D01*
X51327680Y-120929400D01*
X47177780Y-120929400D01*
X47177780Y-120858400D01*
X44169780Y-120858400D01*
X43915780Y-120858400D01*
X40907780Y-120858400D01*
X36979680Y-120858400D01*
X33971680Y-120858400D01*
X33717680Y-120858400D01*
X30709680Y-120858400D01*
X15961680Y-120858400D01*
X15961680Y-120675400D01*
X15981680Y-120675400D01*
X15981680Y-117178861D01*
X16235680Y-117178861D01*
X16235680Y-120675400D01*
X19243680Y-120675400D01*
X19243680Y-120025400D01*
X23171780Y-120025400D01*
X23171780Y-120675400D01*
X26179780Y-120675400D01*
X26179780Y-117178861D01*
X26433780Y-117178861D01*
X26433780Y-120675400D01*
X29441780Y-120675400D01*
X29441780Y-120025400D01*
X29424643Y-119954400D01*
X30709680Y-119954400D01*
X30709680Y-120604400D01*
X33717680Y-120604400D01*
X33717680Y-117107861D01*
X33971680Y-117107861D01*
X33971680Y-120604400D01*
X36979680Y-120604400D01*
X36979680Y-119954400D01*
X40907780Y-119954400D01*
X40907780Y-120604400D01*
X43915780Y-120604400D01*
X43915780Y-117107861D01*
X44169780Y-117107861D01*
X44169780Y-120604400D01*
X47177780Y-120604400D01*
X47177780Y-120025400D01*
X51327680Y-120025400D01*
X51327680Y-120675400D01*
X54335680Y-120675400D01*
X54335680Y-117178861D01*
X54589680Y-117178861D01*
X54589680Y-120675400D01*
X57597680Y-120675400D01*
X57597680Y-120025400D01*
X61525780Y-120025400D01*
X61525780Y-120675400D01*
X64533780Y-120675400D01*
X64533780Y-117178861D01*
X64787780Y-117178861D01*
X64787780Y-120675400D01*
X67795780Y-120675400D01*
X67795780Y-120263015D01*
X74807641Y-120263015D01*
X75192746Y-121195041D01*
X75905208Y-121908748D01*
X76836561Y-122295479D01*
X77845015Y-122296359D01*
X78777041Y-121911254D01*
X79490748Y-121198792D01*
X79877479Y-120267439D01*
X79878359Y-119258985D01*
X79493254Y-118326959D01*
X78780792Y-117613252D01*
X77849439Y-117226521D01*
X76840985Y-117225641D01*
X75908959Y-117610746D01*
X75195252Y-118323208D01*
X74808521Y-119254561D01*
X74807641Y-120263015D01*
X67795780Y-120263015D01*
X67795780Y-120025400D01*
X67508542Y-118835355D01*
X66787758Y-117845818D01*
X65743161Y-117207437D01*
X65276236Y-117078406D01*
X64787780Y-117178861D01*
X64533780Y-117178861D01*
X64045324Y-117078406D01*
X63658828Y-117185211D01*
X63740745Y-116929660D01*
X63591354Y-116664740D01*
X62189360Y-116664740D01*
X62189360Y-118258697D01*
X62222194Y-118273613D01*
X61813018Y-118835355D01*
X61525780Y-120025400D01*
X57597680Y-120025400D01*
X57310442Y-118835355D01*
X56589658Y-117845818D01*
X55545061Y-117207437D01*
X55078136Y-117078406D01*
X54589680Y-117178861D01*
X54335680Y-117178861D01*
X53847224Y-117078406D01*
X53380299Y-117207437D01*
X52335702Y-117845818D01*
X51614918Y-118835355D01*
X51327680Y-120025400D01*
X47177780Y-120025400D01*
X47177780Y-119954400D01*
X46890542Y-118764355D01*
X46169758Y-117774818D01*
X45125161Y-117136437D01*
X44658236Y-117007406D01*
X44169780Y-117107861D01*
X43915780Y-117107861D01*
X43427324Y-117007406D01*
X43040828Y-117114211D01*
X43122745Y-116858660D01*
X42973354Y-116593740D01*
X41571360Y-116593740D01*
X41571360Y-118187697D01*
X41604194Y-118202613D01*
X41195018Y-118764355D01*
X40907780Y-119954400D01*
X36979680Y-119954400D01*
X36692442Y-118764355D01*
X35971658Y-117774818D01*
X34927061Y-117136437D01*
X34460136Y-117007406D01*
X33971680Y-117107861D01*
X33717680Y-117107861D01*
X33229224Y-117007406D01*
X32762299Y-117136437D01*
X31717702Y-117774818D01*
X30996918Y-118764355D01*
X30709680Y-119954400D01*
X29424643Y-119954400D01*
X29154542Y-118835355D01*
X28433758Y-117845818D01*
X27389161Y-117207437D01*
X26922236Y-117078406D01*
X26433780Y-117178861D01*
X26179780Y-117178861D01*
X25691324Y-117078406D01*
X25304828Y-117185211D01*
X25386745Y-116929660D01*
X25237354Y-116664740D01*
X23835360Y-116664740D01*
X23835360Y-118258697D01*
X23868194Y-118273613D01*
X23459018Y-118835355D01*
X23171780Y-120025400D01*
X19243680Y-120025400D01*
X18956442Y-118835355D01*
X18235658Y-117845818D01*
X17191061Y-117207437D01*
X16724136Y-117078406D01*
X16235680Y-117178861D01*
X15981680Y-117178861D01*
X15493224Y-117078406D01*
X15026299Y-117207437D01*
X13981702Y-117845818D01*
X13260918Y-118835355D01*
X13112000Y-119452332D01*
X13112000Y-116300811D01*
X19524000Y-116300811D01*
X19524000Y-116774669D01*
X19652263Y-117419491D01*
X20017525Y-117966144D01*
X20564178Y-118331406D01*
X21209000Y-118459669D01*
X21853822Y-118331406D01*
X22400475Y-117966144D01*
X22478546Y-117849302D01*
X22657270Y-118060245D01*
X23243380Y-118361810D01*
X23320081Y-118377394D01*
X23581360Y-118258697D01*
X23581360Y-116664740D01*
X23561360Y-116664740D01*
X23561360Y-116410740D01*
X23581360Y-116410740D01*
X23581360Y-114816783D01*
X23835360Y-114816783D01*
X23835360Y-116410740D01*
X25237354Y-116410740D01*
X25339381Y-116229811D01*
X37260000Y-116229811D01*
X37260000Y-116703669D01*
X37388263Y-117348491D01*
X37753525Y-117895144D01*
X38300178Y-118260406D01*
X38945000Y-118388669D01*
X39589822Y-118260406D01*
X40136475Y-117895144D01*
X40214546Y-117778302D01*
X40393270Y-117989245D01*
X40979380Y-118290810D01*
X41056081Y-118306394D01*
X41317360Y-118187697D01*
X41317360Y-116593740D01*
X41297360Y-116593740D01*
X41297360Y-116339740D01*
X41317360Y-116339740D01*
X41317360Y-114745783D01*
X41571360Y-114745783D01*
X41571360Y-116339740D01*
X42973354Y-116339740D01*
X42995306Y-116300811D01*
X57878000Y-116300811D01*
X57878000Y-116774669D01*
X58006263Y-117419491D01*
X58371525Y-117966144D01*
X58918178Y-118331406D01*
X59563000Y-118459669D01*
X60207822Y-118331406D01*
X60754475Y-117966144D01*
X60832546Y-117849302D01*
X61011270Y-118060245D01*
X61597380Y-118361810D01*
X61674081Y-118377394D01*
X61935360Y-118258697D01*
X61935360Y-116664740D01*
X61915360Y-116664740D01*
X61915360Y-116410740D01*
X61935360Y-116410740D01*
X61935360Y-114816783D01*
X62189360Y-114816783D01*
X62189360Y-116410740D01*
X63591354Y-116410740D01*
X63740745Y-116145820D01*
X63539541Y-115518139D01*
X63113450Y-115015235D01*
X62527340Y-114713670D01*
X62450639Y-114698086D01*
X62189360Y-114816783D01*
X61935360Y-114816783D01*
X61674081Y-114698086D01*
X61597380Y-114713670D01*
X61011270Y-115015235D01*
X60832546Y-115226178D01*
X60754475Y-115109336D01*
X60207822Y-114744074D01*
X59563000Y-114615811D01*
X58918178Y-114744074D01*
X58371525Y-115109336D01*
X58006263Y-115655989D01*
X57878000Y-116300811D01*
X42995306Y-116300811D01*
X43122745Y-116074820D01*
X42921541Y-115447139D01*
X42495450Y-114944235D01*
X41909340Y-114642670D01*
X41832639Y-114627086D01*
X41571360Y-114745783D01*
X41317360Y-114745783D01*
X41056081Y-114627086D01*
X40979380Y-114642670D01*
X40393270Y-114944235D01*
X40214546Y-115155178D01*
X40136475Y-115038336D01*
X39589822Y-114673074D01*
X38945000Y-114544811D01*
X38300178Y-114673074D01*
X37753525Y-115038336D01*
X37388263Y-115584989D01*
X37260000Y-116229811D01*
X25339381Y-116229811D01*
X25386745Y-116145820D01*
X25185541Y-115518139D01*
X24759450Y-115015235D01*
X24173340Y-114713670D01*
X24096639Y-114698086D01*
X23835360Y-114816783D01*
X23581360Y-114816783D01*
X23320081Y-114698086D01*
X23243380Y-114713670D01*
X22657270Y-115015235D01*
X22478546Y-115226178D01*
X22400475Y-115109336D01*
X21853822Y-114744074D01*
X21209000Y-114615811D01*
X20564178Y-114744074D01*
X20017525Y-115109336D01*
X19652263Y-115655989D01*
X19524000Y-116300811D01*
X13112000Y-116300811D01*
X13112000Y-39553000D01*
X13557000Y-39553000D01*
X13557000Y-83241000D01*
X13662427Y-83771017D01*
X13866647Y-84076654D01*
X13962657Y-84220343D01*
X22598657Y-92856343D01*
X23047983Y-93156573D01*
X23578000Y-93262000D01*
X50436314Y-93262000D01*
X68445657Y-111271343D01*
X68894984Y-111571574D01*
X69425000Y-111677000D01*
X77487314Y-111677000D01*
X89090657Y-123280343D01*
X89539984Y-123580574D01*
X90070000Y-123686000D01*
X92713329Y-123686000D01*
X92970351Y-123857737D01*
X93615173Y-123986000D01*
X94598827Y-123986000D01*
X95243649Y-123857737D01*
X95790302Y-123492475D01*
X96155564Y-122945822D01*
X96283827Y-122301000D01*
X96155564Y-121656178D01*
X95790302Y-121109525D01*
X95646080Y-121013159D01*
X95753054Y-120929400D01*
X115081680Y-120929400D01*
X115081680Y-121579400D01*
X115368918Y-122769445D01*
X116089702Y-123758982D01*
X117134299Y-124397363D01*
X117601224Y-124526394D01*
X118089680Y-124425939D01*
X118089680Y-120929400D01*
X118343680Y-120929400D01*
X118343680Y-124425939D01*
X118832136Y-124526394D01*
X119299061Y-124397363D01*
X120343658Y-123758982D01*
X121064442Y-122769445D01*
X121351680Y-121579400D01*
X121351680Y-120929400D01*
X125279780Y-120929400D01*
X125279780Y-121579400D01*
X125567018Y-122769445D01*
X126287802Y-123758982D01*
X127332399Y-124397363D01*
X127799324Y-124526394D01*
X128287780Y-124425939D01*
X128287780Y-120929400D01*
X128541780Y-120929400D01*
X128541780Y-124425939D01*
X129030236Y-124526394D01*
X129497161Y-124397363D01*
X130541758Y-123758982D01*
X131262542Y-122769445D01*
X131549780Y-121579400D01*
X131549780Y-120929400D01*
X128541780Y-120929400D01*
X128287780Y-120929400D01*
X125279780Y-120929400D01*
X121351680Y-120929400D01*
X118343680Y-120929400D01*
X118089680Y-120929400D01*
X115081680Y-120929400D01*
X95753054Y-120929400D01*
X95838277Y-120862672D01*
X96162337Y-120288489D01*
X96196654Y-120149279D01*
X96140377Y-120025400D01*
X115081680Y-120025400D01*
X115081680Y-120675400D01*
X118089680Y-120675400D01*
X118089680Y-117178861D01*
X118343680Y-117178861D01*
X118343680Y-120675400D01*
X121351680Y-120675400D01*
X121351680Y-120025400D01*
X125279780Y-120025400D01*
X125279780Y-120675400D01*
X128287780Y-120675400D01*
X128287780Y-117178861D01*
X128541780Y-117178861D01*
X128541780Y-120675400D01*
X131549780Y-120675400D01*
X131549780Y-120025400D01*
X131262542Y-118835355D01*
X130541758Y-117845818D01*
X129497161Y-117207437D01*
X129030236Y-117078406D01*
X128541780Y-117178861D01*
X128287780Y-117178861D01*
X127799324Y-117078406D01*
X127412828Y-117185211D01*
X127494745Y-116929660D01*
X127345354Y-116664740D01*
X125943360Y-116664740D01*
X125943360Y-118258697D01*
X125976194Y-118273613D01*
X125567018Y-118835355D01*
X125279780Y-120025400D01*
X121351680Y-120025400D01*
X121064442Y-118835355D01*
X120343658Y-117845818D01*
X119299061Y-117207437D01*
X118832136Y-117078406D01*
X118343680Y-117178861D01*
X118089680Y-117178861D01*
X117601224Y-117078406D01*
X117134299Y-117207437D01*
X116089702Y-117845818D01*
X115368918Y-118835355D01*
X115081680Y-120025400D01*
X96140377Y-120025400D01*
X96077957Y-119888000D01*
X94234000Y-119888000D01*
X94234000Y-119908000D01*
X93980000Y-119908000D01*
X93980000Y-119888000D01*
X92136043Y-119888000D01*
X92017346Y-120149279D01*
X92051663Y-120288489D01*
X92375723Y-120862672D01*
X92443832Y-120916000D01*
X90643686Y-120916000D01*
X86948686Y-117221000D01*
X91930173Y-117221000D01*
X92058436Y-117865822D01*
X92423698Y-118412475D01*
X92567920Y-118508841D01*
X92375723Y-118659328D01*
X92051663Y-119233511D01*
X92017346Y-119372721D01*
X92136043Y-119634000D01*
X93980000Y-119634000D01*
X93980000Y-119614000D01*
X94234000Y-119614000D01*
X94234000Y-119634000D01*
X96077957Y-119634000D01*
X96196654Y-119372721D01*
X96162337Y-119233511D01*
X95838277Y-118659328D01*
X95646080Y-118508841D01*
X95790302Y-118412475D01*
X96155564Y-117865822D01*
X96283827Y-117221000D01*
X96155564Y-116576178D01*
X95971570Y-116300811D01*
X121632000Y-116300811D01*
X121632000Y-116774669D01*
X121760263Y-117419491D01*
X122125525Y-117966144D01*
X122672178Y-118331406D01*
X123317000Y-118459669D01*
X123961822Y-118331406D01*
X124508475Y-117966144D01*
X124586546Y-117849302D01*
X124765270Y-118060245D01*
X125351380Y-118361810D01*
X125428081Y-118377394D01*
X125689360Y-118258697D01*
X125689360Y-116664740D01*
X125669360Y-116664740D01*
X125669360Y-116410740D01*
X125689360Y-116410740D01*
X125689360Y-114816783D01*
X125943360Y-114816783D01*
X125943360Y-116410740D01*
X127345354Y-116410740D01*
X127494745Y-116145820D01*
X127293541Y-115518139D01*
X126867450Y-115015235D01*
X126281340Y-114713670D01*
X126204639Y-114698086D01*
X125943360Y-114816783D01*
X125689360Y-114816783D01*
X125428081Y-114698086D01*
X125351380Y-114713670D01*
X124765270Y-115015235D01*
X124586546Y-115226178D01*
X124508475Y-115109336D01*
X123961822Y-114744074D01*
X123317000Y-114615811D01*
X122672178Y-114744074D01*
X122125525Y-115109336D01*
X121760263Y-115655989D01*
X121632000Y-116300811D01*
X95971570Y-116300811D01*
X95790302Y-116029525D01*
X95243649Y-115664263D01*
X94598827Y-115536000D01*
X93615173Y-115536000D01*
X92970351Y-115664263D01*
X92423698Y-116029525D01*
X92058436Y-116576178D01*
X91930173Y-117221000D01*
X86948686Y-117221000D01*
X79040343Y-109312657D01*
X78591017Y-109012427D01*
X78061000Y-108907000D01*
X69998686Y-108907000D01*
X68685753Y-107594067D01*
X121937925Y-107594067D01*
X122231890Y-108305518D01*
X122775739Y-108850317D01*
X123486676Y-109145523D01*
X124256467Y-109146195D01*
X124967918Y-108852230D01*
X125240303Y-108580319D01*
X128682886Y-108580319D01*
X128818244Y-108878315D01*
X129536620Y-109154926D01*
X130306167Y-109135570D01*
X130927236Y-108878315D01*
X131062594Y-108580319D01*
X129872740Y-107390465D01*
X128682886Y-108580319D01*
X125240303Y-108580319D01*
X125512717Y-108308381D01*
X125807923Y-107597444D01*
X125808553Y-106874740D01*
X127928674Y-106874740D01*
X127948030Y-107644287D01*
X128205285Y-108265356D01*
X128503281Y-108400714D01*
X129693135Y-107210860D01*
X130052345Y-107210860D01*
X131242199Y-108400714D01*
X131540195Y-108265356D01*
X131816806Y-107546980D01*
X131797450Y-106777433D01*
X131540195Y-106156364D01*
X131242199Y-106021006D01*
X130052345Y-107210860D01*
X129693135Y-107210860D01*
X128503281Y-106021006D01*
X128205285Y-106156364D01*
X127928674Y-106874740D01*
X125808553Y-106874740D01*
X125808595Y-106827653D01*
X125514630Y-106116202D01*
X125240309Y-105841401D01*
X128682886Y-105841401D01*
X129872740Y-107031255D01*
X131062594Y-105841401D01*
X130927236Y-105543405D01*
X130208860Y-105266794D01*
X129439313Y-105286150D01*
X128818244Y-105543405D01*
X128682886Y-105841401D01*
X125240309Y-105841401D01*
X124970781Y-105571403D01*
X124259844Y-105276197D01*
X123490053Y-105275525D01*
X122778602Y-105569490D01*
X122233803Y-106113339D01*
X121938597Y-106824276D01*
X121937925Y-107594067D01*
X68685753Y-107594067D01*
X66317481Y-105225795D01*
X75961716Y-105225795D01*
X76210106Y-105826943D01*
X76669637Y-106287278D01*
X77270352Y-106536716D01*
X77920795Y-106537284D01*
X78521943Y-106288894D01*
X78982278Y-105829363D01*
X79231716Y-105228648D01*
X79231726Y-105216388D01*
X89979225Y-105216388D01*
X90220398Y-105800072D01*
X90666579Y-106247032D01*
X91249841Y-106489224D01*
X91881388Y-106489775D01*
X92465072Y-106248602D01*
X92912032Y-105802421D01*
X93154224Y-105219159D01*
X93154775Y-104587612D01*
X92913602Y-104003928D01*
X92467421Y-103556968D01*
X91884159Y-103314776D01*
X91252612Y-103314225D01*
X90668928Y-103555398D01*
X90221968Y-104001579D01*
X89979776Y-104584841D01*
X89979225Y-105216388D01*
X79231726Y-105216388D01*
X79232284Y-104578205D01*
X78983894Y-103977057D01*
X78524363Y-103516722D01*
X77923648Y-103267284D01*
X77273205Y-103266716D01*
X76672057Y-103515106D01*
X76211722Y-103974637D01*
X75962284Y-104575352D01*
X75961716Y-105225795D01*
X66317481Y-105225795D01*
X61237481Y-100145795D01*
X75961716Y-100145795D01*
X76210106Y-100746943D01*
X76669637Y-101207278D01*
X77270352Y-101456716D01*
X77920795Y-101457284D01*
X78521943Y-101208894D01*
X78982278Y-100749363D01*
X79231716Y-100148648D01*
X79231726Y-100136388D01*
X89979225Y-100136388D01*
X90220398Y-100720072D01*
X90666579Y-101167032D01*
X91249841Y-101409224D01*
X91881388Y-101409775D01*
X92465072Y-101168602D01*
X92912032Y-100722421D01*
X93154224Y-100139159D01*
X93154775Y-99507612D01*
X92913602Y-98923928D01*
X92467421Y-98476968D01*
X91884159Y-98234776D01*
X91252612Y-98234225D01*
X90668928Y-98475398D01*
X90221968Y-98921579D01*
X89979776Y-99504841D01*
X89979225Y-100136388D01*
X79231726Y-100136388D01*
X79232284Y-99498205D01*
X78983894Y-98897057D01*
X78524363Y-98436722D01*
X77923648Y-98187284D01*
X77273205Y-98186716D01*
X76672057Y-98435106D01*
X76211722Y-98894637D01*
X75962284Y-99495352D01*
X75961716Y-100145795D01*
X61237481Y-100145795D01*
X54887481Y-93795795D01*
X75961716Y-93795795D01*
X76210106Y-94396943D01*
X76669637Y-94857278D01*
X77270352Y-95106716D01*
X77920795Y-95107284D01*
X78521943Y-94858894D01*
X78982278Y-94399363D01*
X79231716Y-93798648D01*
X79231726Y-93786388D01*
X89979225Y-93786388D01*
X90220398Y-94370072D01*
X90666579Y-94817032D01*
X91249841Y-95059224D01*
X91881388Y-95059775D01*
X92465072Y-94818602D01*
X92689718Y-94594347D01*
X121937925Y-94594347D01*
X122231890Y-95305798D01*
X122775739Y-95850597D01*
X123486676Y-96145803D01*
X124256467Y-96146475D01*
X124967918Y-95852510D01*
X125512717Y-95308661D01*
X125807923Y-94597724D01*
X125807925Y-94594347D01*
X127937405Y-94594347D01*
X128231370Y-95305798D01*
X128775219Y-95850597D01*
X129486156Y-96145803D01*
X130255947Y-96146475D01*
X130967398Y-95852510D01*
X131512197Y-95308661D01*
X131807403Y-94597724D01*
X131808075Y-93827933D01*
X131514110Y-93116482D01*
X130970261Y-92571683D01*
X130259324Y-92276477D01*
X129489533Y-92275805D01*
X128778082Y-92569770D01*
X128233283Y-93113619D01*
X127938077Y-93824556D01*
X127937405Y-94594347D01*
X125807925Y-94594347D01*
X125808595Y-93827933D01*
X125514630Y-93116482D01*
X124970781Y-92571683D01*
X124259844Y-92276477D01*
X123490053Y-92275805D01*
X122778602Y-92569770D01*
X122233803Y-93113619D01*
X121938597Y-93824556D01*
X121937925Y-94594347D01*
X92689718Y-94594347D01*
X92912032Y-94372421D01*
X93154224Y-93789159D01*
X93154775Y-93157612D01*
X92913602Y-92573928D01*
X92467421Y-92126968D01*
X91884159Y-91884776D01*
X91252612Y-91884225D01*
X90668928Y-92125398D01*
X90221968Y-92571579D01*
X89979776Y-93154841D01*
X89979225Y-93786388D01*
X79231726Y-93786388D01*
X79232284Y-93148205D01*
X78983894Y-92547057D01*
X78524363Y-92086722D01*
X77923648Y-91837284D01*
X77273205Y-91836716D01*
X76672057Y-92085106D01*
X76211722Y-92544637D01*
X75962284Y-93145352D01*
X75961716Y-93795795D01*
X54887481Y-93795795D01*
X51989343Y-90897657D01*
X51540017Y-90597427D01*
X51010000Y-90492000D01*
X24151686Y-90492000D01*
X22375481Y-88715795D01*
X75961716Y-88715795D01*
X76210106Y-89316943D01*
X76669637Y-89777278D01*
X77270352Y-90026716D01*
X77920795Y-90027284D01*
X78521943Y-89778894D01*
X78982278Y-89319363D01*
X79231716Y-88718648D01*
X79231726Y-88706388D01*
X89979225Y-88706388D01*
X90220398Y-89290072D01*
X90666579Y-89737032D01*
X91249841Y-89979224D01*
X91881388Y-89979775D01*
X92465072Y-89738602D01*
X92912032Y-89292421D01*
X93154224Y-88709159D01*
X93154775Y-88077612D01*
X92913602Y-87493928D01*
X92467421Y-87046968D01*
X91884159Y-86804776D01*
X91252612Y-86804225D01*
X90668928Y-87045398D01*
X90221968Y-87491579D01*
X89979776Y-88074841D01*
X89979225Y-88706388D01*
X79231726Y-88706388D01*
X79232284Y-88068205D01*
X78983894Y-87467057D01*
X78524363Y-87006722D01*
X77923648Y-86757284D01*
X77273205Y-86756716D01*
X76672057Y-87005106D01*
X76211722Y-87464637D01*
X75962284Y-88065352D01*
X75961716Y-88715795D01*
X22375481Y-88715795D01*
X16327000Y-82667314D01*
X16327000Y-61264015D01*
X17359641Y-61264015D01*
X17744746Y-62196041D01*
X18457208Y-62909748D01*
X19388561Y-63296479D01*
X20397015Y-63297359D01*
X21329041Y-62912254D01*
X22042748Y-62199792D01*
X22429479Y-61268439D01*
X22430359Y-60259985D01*
X22045254Y-59327959D01*
X21332792Y-58614252D01*
X20401439Y-58227521D01*
X19392985Y-58226641D01*
X18460959Y-58611746D01*
X17747252Y-59324208D01*
X17360521Y-60255561D01*
X17359641Y-61264015D01*
X16327000Y-61264015D01*
X16327000Y-47130180D01*
X16552434Y-47467566D01*
X33238000Y-64153132D01*
X33238000Y-83114000D01*
X33324397Y-83548346D01*
X33473181Y-83771017D01*
X33570434Y-83916566D01*
X34967434Y-85313566D01*
X35335654Y-85559603D01*
X35770000Y-85645999D01*
X36204345Y-85559603D01*
X36572566Y-85313566D01*
X36818603Y-84945345D01*
X36904999Y-84511000D01*
X36818603Y-84076654D01*
X36572566Y-83708434D01*
X35508000Y-82643868D01*
X35508000Y-64818000D01*
X42919868Y-64818000D01*
X55033434Y-76931566D01*
X55401654Y-77177603D01*
X55836000Y-77264000D01*
X106890000Y-77264000D01*
X107324346Y-77177603D01*
X107692566Y-76931566D01*
X115693566Y-68930566D01*
X115939603Y-68562345D01*
X116026000Y-68128000D01*
X115939603Y-67693655D01*
X115693566Y-67325434D01*
X115325345Y-67079397D01*
X114891000Y-66993000D01*
X114456655Y-67079397D01*
X114088434Y-67325434D01*
X106419868Y-74994000D01*
X97438132Y-74994000D01*
X97786566Y-74645566D01*
X97898530Y-74478000D01*
X98032603Y-74277346D01*
X98119000Y-73843000D01*
X98119000Y-59238000D01*
X98032603Y-58803654D01*
X97786566Y-58435434D01*
X97418346Y-58189397D01*
X96984000Y-58103000D01*
X96549654Y-58189397D01*
X96181434Y-58435434D01*
X95935397Y-58803654D01*
X95849000Y-59238000D01*
X95849000Y-73372868D01*
X94227868Y-74994000D01*
X56306132Y-74994000D01*
X47537299Y-66225167D01*
X75391838Y-66225167D01*
X75533883Y-66568943D01*
X75796673Y-66832192D01*
X76140201Y-66974838D01*
X76512167Y-66975162D01*
X76855943Y-66833117D01*
X77119192Y-66570327D01*
X77219778Y-66328090D01*
X78704868Y-64843000D01*
X90078132Y-64843000D01*
X92706465Y-67471333D01*
X92805883Y-67711943D01*
X93068673Y-67975192D01*
X93412201Y-68117838D01*
X93784167Y-68118162D01*
X94127943Y-67976117D01*
X94391192Y-67713327D01*
X94533838Y-67369799D01*
X94534162Y-66997833D01*
X94392117Y-66654057D01*
X94129327Y-66390808D01*
X93887090Y-66290222D01*
X91014434Y-63417566D01*
X90947736Y-63373000D01*
X90743541Y-63236561D01*
X90424000Y-63173000D01*
X78359000Y-63173000D01*
X78039459Y-63236561D01*
X77835264Y-63373000D01*
X77768566Y-63417566D01*
X76038667Y-65147465D01*
X75798057Y-65246883D01*
X75534808Y-65509673D01*
X75392162Y-65853201D01*
X75391838Y-66225167D01*
X47537299Y-66225167D01*
X46018221Y-64706089D01*
X63870517Y-64706089D01*
X63999725Y-64998859D01*
X64699883Y-65267071D01*
X65449384Y-65246928D01*
X66048275Y-64998859D01*
X66177483Y-64706089D01*
X65024000Y-63552605D01*
X63870517Y-64706089D01*
X46018221Y-64706089D01*
X44361015Y-63048883D01*
X63129929Y-63048883D01*
X63150072Y-63798384D01*
X63398141Y-64397275D01*
X63690911Y-64526483D01*
X64844395Y-63373000D01*
X65203605Y-63373000D01*
X66357089Y-64526483D01*
X66649859Y-64397275D01*
X66899252Y-63746241D01*
X70758994Y-63746241D01*
X71045314Y-64439191D01*
X71575021Y-64969822D01*
X72267469Y-65257352D01*
X73017241Y-65258006D01*
X73710191Y-64971686D01*
X74240822Y-64441979D01*
X74528352Y-63749531D01*
X74529006Y-62999759D01*
X74242686Y-62306809D01*
X73712979Y-61776178D01*
X73020531Y-61488648D01*
X72270759Y-61487994D01*
X71577809Y-61774314D01*
X71047178Y-62304021D01*
X70759648Y-62996469D01*
X70758994Y-63746241D01*
X66899252Y-63746241D01*
X66918071Y-63697117D01*
X66897928Y-62947616D01*
X66649859Y-62348725D01*
X66357089Y-62219517D01*
X65203605Y-63373000D01*
X64844395Y-63373000D01*
X63690911Y-62219517D01*
X63398141Y-62348725D01*
X63129929Y-63048883D01*
X44361015Y-63048883D01*
X44192566Y-62880434D01*
X43994122Y-62747838D01*
X43824346Y-62634397D01*
X43390000Y-62548000D01*
X34843132Y-62548000D01*
X34335043Y-62039911D01*
X63870517Y-62039911D01*
X65024000Y-63193395D01*
X66177483Y-62039911D01*
X66048275Y-61747141D01*
X65348117Y-61478929D01*
X64598616Y-61499072D01*
X63999725Y-61747141D01*
X63870517Y-62039911D01*
X34335043Y-62039911D01*
X24858328Y-52563196D01*
X51387409Y-52563196D01*
X51472467Y-52818539D01*
X52041965Y-53026516D01*
X52647700Y-53000723D01*
X53087533Y-52818539D01*
X53172591Y-52563196D01*
X53132591Y-52523196D01*
X56340409Y-52523196D01*
X56425467Y-52778539D01*
X56994965Y-52986516D01*
X57600700Y-52960723D01*
X58040533Y-52778539D01*
X58125591Y-52523196D01*
X57233000Y-51630605D01*
X56340409Y-52523196D01*
X53132591Y-52523196D01*
X52280000Y-51670605D01*
X51387409Y-52563196D01*
X24858328Y-52563196D01*
X23548097Y-51252965D01*
X50744484Y-51252965D01*
X50770277Y-51858700D01*
X50952461Y-52298533D01*
X51207804Y-52383591D01*
X52100395Y-51491000D01*
X52459605Y-51491000D01*
X53352196Y-52383591D01*
X53607539Y-52298533D01*
X53815516Y-51729035D01*
X53793542Y-51212965D01*
X55697484Y-51212965D01*
X55723277Y-51818700D01*
X55905461Y-52258533D01*
X56160804Y-52343591D01*
X57053395Y-51451000D01*
X57412605Y-51451000D01*
X58305196Y-52343591D01*
X58560539Y-52258533D01*
X58768516Y-51689035D01*
X58742723Y-51083300D01*
X58560539Y-50643467D01*
X58305196Y-50558409D01*
X57412605Y-51451000D01*
X57053395Y-51451000D01*
X56160804Y-50558409D01*
X55905461Y-50643467D01*
X55697484Y-51212965D01*
X53793542Y-51212965D01*
X53789723Y-51123300D01*
X53607539Y-50683467D01*
X53352196Y-50598409D01*
X52459605Y-51491000D01*
X52100395Y-51491000D01*
X51207804Y-50598409D01*
X50952461Y-50683467D01*
X50744484Y-51252965D01*
X23548097Y-51252965D01*
X18490000Y-46194868D01*
X18490000Y-45956895D01*
X18634748Y-45740264D01*
X18899394Y-46073212D01*
X19424914Y-46364756D01*
X19530260Y-46389036D01*
X19768000Y-46268378D01*
X19768000Y-44125000D01*
X19748000Y-44125000D01*
X19748000Y-43871000D01*
X19768000Y-43871000D01*
X19768000Y-41727622D01*
X19530260Y-41606964D01*
X19424914Y-41631244D01*
X18899394Y-41922788D01*
X18634748Y-42255736D01*
X18440409Y-41964887D01*
X17942419Y-41632141D01*
X17355000Y-41515296D01*
X16767581Y-41632141D01*
X16327000Y-41926528D01*
X16327000Y-40126686D01*
X21050000Y-35403686D01*
X21050000Y-42123320D01*
X20890606Y-41922788D01*
X20365086Y-41631244D01*
X20259740Y-41606964D01*
X20022000Y-41727622D01*
X20022000Y-43871000D01*
X20042000Y-43871000D01*
X20042000Y-44125000D01*
X20022000Y-44125000D01*
X20022000Y-46268378D01*
X20259740Y-46389036D01*
X20365086Y-46364756D01*
X20890606Y-46073212D01*
X21155252Y-45740264D01*
X21349591Y-46031113D01*
X21847581Y-46363859D01*
X22435000Y-46480704D01*
X23022419Y-46363859D01*
X23520409Y-46031113D01*
X23853155Y-45533123D01*
X23970000Y-44945704D01*
X23970000Y-43050296D01*
X23853155Y-42462877D01*
X23820000Y-42413257D01*
X23820000Y-37815030D01*
X32755000Y-37815030D01*
X32755000Y-38384970D01*
X32871845Y-38972389D01*
X33204591Y-39470379D01*
X33702581Y-39803125D01*
X34290000Y-39919970D01*
X34877419Y-39803125D01*
X35375409Y-39470379D01*
X35560000Y-39194119D01*
X35744591Y-39470379D01*
X36242581Y-39803125D01*
X36830000Y-39919970D01*
X37417419Y-39803125D01*
X37915409Y-39470379D01*
X38100000Y-39194119D01*
X38284591Y-39470379D01*
X38782581Y-39803125D01*
X39370000Y-39919970D01*
X39957419Y-39803125D01*
X40455409Y-39470379D01*
X40640000Y-39194119D01*
X40824591Y-39470379D01*
X41322581Y-39803125D01*
X41910000Y-39919970D01*
X42497419Y-39803125D01*
X42995409Y-39470379D01*
X43180000Y-39194119D01*
X43364591Y-39470379D01*
X43862581Y-39803125D01*
X44450000Y-39919970D01*
X45037419Y-39803125D01*
X45535409Y-39470379D01*
X45720000Y-39194119D01*
X45904591Y-39470379D01*
X46402581Y-39803125D01*
X46990000Y-39919970D01*
X47577419Y-39803125D01*
X48075409Y-39470379D01*
X48260000Y-39194119D01*
X48444591Y-39470379D01*
X48942581Y-39803125D01*
X49530000Y-39919970D01*
X50117419Y-39803125D01*
X50615409Y-39470379D01*
X50802801Y-39189926D01*
X51065260Y-39523647D01*
X51590877Y-39818806D01*
X51705260Y-39841036D01*
X51943000Y-39720378D01*
X51943000Y-38227000D01*
X51923000Y-38227000D01*
X51923000Y-37973000D01*
X51943000Y-37973000D01*
X51943000Y-37953000D01*
X52197000Y-37953000D01*
X52197000Y-37973000D01*
X52217000Y-37973000D01*
X52217000Y-38227000D01*
X52197000Y-38227000D01*
X52197000Y-39720378D01*
X52434740Y-39841036D01*
X52549123Y-39818806D01*
X53074740Y-39523647D01*
X53337199Y-39189926D01*
X53524591Y-39470379D01*
X53725000Y-39604288D01*
X53725000Y-41261481D01*
X52662623Y-42323858D01*
X52622708Y-42307284D01*
X51972265Y-42306716D01*
X51371117Y-42555106D01*
X50910782Y-43014637D01*
X50661344Y-43615352D01*
X50660776Y-44265795D01*
X50909166Y-44866943D01*
X51368697Y-45327278D01*
X51411060Y-45344869D01*
X51411060Y-47705041D01*
X50988769Y-48126596D01*
X50756265Y-48686528D01*
X50755736Y-49292812D01*
X50987262Y-49853149D01*
X51415596Y-50282231D01*
X51430800Y-50288544D01*
X51387409Y-50418804D01*
X52280000Y-51311395D01*
X53172591Y-50418804D01*
X53129359Y-50289023D01*
X53142149Y-50283738D01*
X53571231Y-49855404D01*
X53803735Y-49295472D01*
X53804264Y-48689188D01*
X53572738Y-48128851D01*
X53181060Y-47736489D01*
X53181060Y-45345398D01*
X53221003Y-45328894D01*
X53681338Y-44869363D01*
X53930776Y-44268648D01*
X53931344Y-43618205D01*
X53913828Y-43575812D01*
X55235787Y-42253852D01*
X55235790Y-42253850D01*
X55427633Y-41966735D01*
X55495000Y-41628060D01*
X55495000Y-39604288D01*
X55695409Y-39470379D01*
X55880000Y-39194119D01*
X56064591Y-39470379D01*
X56265000Y-39604288D01*
X56265000Y-42550146D01*
X56252997Y-42555106D01*
X55792662Y-43014637D01*
X55543224Y-43615352D01*
X55542656Y-44265795D01*
X55791046Y-44866943D01*
X56250577Y-45327278D01*
X56292940Y-45344869D01*
X56292940Y-47736037D01*
X55941769Y-48086596D01*
X55709265Y-48646528D01*
X55708736Y-49252812D01*
X55940262Y-49813149D01*
X56368596Y-50242231D01*
X56383800Y-50248544D01*
X56340409Y-50378804D01*
X57233000Y-51271395D01*
X58125591Y-50378804D01*
X58082359Y-50249023D01*
X58095149Y-50243738D01*
X58524231Y-49815404D01*
X58756735Y-49255472D01*
X58757264Y-48649188D01*
X58525738Y-48088851D01*
X58097404Y-47659769D01*
X58062940Y-47645458D01*
X58062940Y-46883320D01*
X63126880Y-46883320D01*
X63126880Y-49382680D01*
X63171158Y-49617997D01*
X63310230Y-49834121D01*
X63522430Y-49979111D01*
X63774320Y-50030120D01*
X66273680Y-50030120D01*
X66508997Y-49985842D01*
X66725121Y-49846770D01*
X66870111Y-49634570D01*
X66921120Y-49382680D01*
X66921120Y-48506241D01*
X70758994Y-48506241D01*
X71045314Y-49199191D01*
X71575021Y-49729822D01*
X72267469Y-50017352D01*
X73017241Y-50018006D01*
X73710191Y-49731686D01*
X74240822Y-49201979D01*
X74528352Y-48509531D01*
X74529006Y-47759759D01*
X74242686Y-47066809D01*
X73712979Y-46536178D01*
X73020531Y-46248648D01*
X72270759Y-46247994D01*
X71577809Y-46534314D01*
X71047178Y-47064021D01*
X70759648Y-47756469D01*
X70758994Y-48506241D01*
X66921120Y-48506241D01*
X66921120Y-46883320D01*
X66876842Y-46648003D01*
X66737770Y-46431879D01*
X66525570Y-46286889D01*
X66273680Y-46235880D01*
X63774320Y-46235880D01*
X63539003Y-46280158D01*
X63322879Y-46419230D01*
X63177889Y-46631430D01*
X63126880Y-46883320D01*
X58062940Y-46883320D01*
X58062940Y-45345398D01*
X58102883Y-45328894D01*
X58563218Y-44869363D01*
X58812656Y-44268648D01*
X58812952Y-43929167D01*
X73950838Y-43929167D01*
X74092883Y-44272943D01*
X74355673Y-44536192D01*
X74699201Y-44678838D01*
X75071167Y-44679162D01*
X75192569Y-44629000D01*
X87839995Y-44629000D01*
X87840000Y-44629001D01*
X88122484Y-44572810D01*
X88178675Y-44561633D01*
X88465790Y-44369790D01*
X89391834Y-43443745D01*
X89511943Y-43394117D01*
X89775192Y-43131327D01*
X89917838Y-42787799D01*
X89918162Y-42415833D01*
X89776117Y-42072057D01*
X89513327Y-41808808D01*
X89169799Y-41666162D01*
X88797833Y-41665838D01*
X88454057Y-41807883D01*
X88190808Y-42070673D01*
X88140434Y-42191987D01*
X87473420Y-42859000D01*
X75192822Y-42859000D01*
X75072799Y-42809162D01*
X74700833Y-42808838D01*
X74357057Y-42950883D01*
X74093808Y-43213673D01*
X73951162Y-43557201D01*
X73950838Y-43929167D01*
X58812952Y-43929167D01*
X58813224Y-43618205D01*
X58564834Y-43017057D01*
X58105303Y-42556722D01*
X58035000Y-42527530D01*
X58035000Y-39604288D01*
X58235409Y-39470379D01*
X58420000Y-39194119D01*
X58604591Y-39470379D01*
X59102581Y-39803125D01*
X59690000Y-39919970D01*
X60277419Y-39803125D01*
X60775409Y-39470379D01*
X60960000Y-39194119D01*
X61144591Y-39470379D01*
X61642581Y-39803125D01*
X62230000Y-39919970D01*
X62817419Y-39803125D01*
X63315409Y-39470379D01*
X63500000Y-39194119D01*
X63684591Y-39470379D01*
X64182581Y-39803125D01*
X64770000Y-39919970D01*
X65357419Y-39803125D01*
X65855409Y-39470379D01*
X66040000Y-39194119D01*
X66224591Y-39470379D01*
X66722581Y-39803125D01*
X67310000Y-39919970D01*
X67897419Y-39803125D01*
X68395409Y-39470379D01*
X68728155Y-38972389D01*
X68845000Y-38384970D01*
X68845000Y-37815030D01*
X68728155Y-37227611D01*
X68395409Y-36729621D01*
X68243322Y-36628000D01*
X87854420Y-36628000D01*
X118578000Y-67351579D01*
X118578000Y-74171178D01*
X118528162Y-74291201D01*
X118527838Y-74663167D01*
X118669883Y-75006943D01*
X118932673Y-75270192D01*
X119276201Y-75412838D01*
X119648167Y-75413162D01*
X119991943Y-75271117D01*
X120255192Y-75008327D01*
X120397838Y-74664799D01*
X120398162Y-74292833D01*
X120348000Y-74171431D01*
X120348000Y-66985005D01*
X120348001Y-66985000D01*
X120280633Y-66646325D01*
X120270015Y-66630434D01*
X120088790Y-66359210D01*
X120088787Y-66359208D01*
X88846790Y-35117210D01*
X88559675Y-34925367D01*
X88503484Y-34914190D01*
X88221000Y-34857999D01*
X88220995Y-34858000D01*
X46057005Y-34858000D01*
X46057000Y-34857999D01*
X45718325Y-34925367D01*
X45431210Y-35117210D01*
X45431208Y-35117213D01*
X44223296Y-36325124D01*
X43862581Y-36396875D01*
X43364591Y-36729621D01*
X43180000Y-37005881D01*
X42995409Y-36729621D01*
X42497419Y-36396875D01*
X41910000Y-36280030D01*
X41322581Y-36396875D01*
X40824591Y-36729621D01*
X40640000Y-37005881D01*
X40455409Y-36729621D01*
X39957419Y-36396875D01*
X39370000Y-36280030D01*
X38782581Y-36396875D01*
X38284591Y-36729621D01*
X38100000Y-37005881D01*
X37915409Y-36729621D01*
X37417419Y-36396875D01*
X36830000Y-36280030D01*
X36242581Y-36396875D01*
X35744591Y-36729621D01*
X35560000Y-37005881D01*
X35375409Y-36729621D01*
X34877419Y-36396875D01*
X34290000Y-36280030D01*
X33702581Y-36396875D01*
X33204591Y-36729621D01*
X32871845Y-37227611D01*
X32755000Y-37815030D01*
X23820000Y-37815030D01*
X23820000Y-32633686D01*
X23901402Y-32552284D01*
X23901795Y-32552284D01*
X24502943Y-32303894D01*
X24963278Y-31844363D01*
X25212716Y-31243648D01*
X25212718Y-31240968D01*
X26081343Y-30372343D01*
X26156136Y-30260407D01*
X26199819Y-30195030D01*
X32755000Y-30195030D01*
X32755000Y-30764970D01*
X32871845Y-31352389D01*
X33204591Y-31850379D01*
X33702581Y-32183125D01*
X34290000Y-32299970D01*
X34877419Y-32183125D01*
X35375409Y-31850379D01*
X35560000Y-31574119D01*
X35744591Y-31850379D01*
X36242581Y-32183125D01*
X36830000Y-32299970D01*
X37417419Y-32183125D01*
X37915409Y-31850379D01*
X38100000Y-31574119D01*
X38284591Y-31850379D01*
X38782581Y-32183125D01*
X39370000Y-32299970D01*
X39957419Y-32183125D01*
X40455409Y-31850379D01*
X40640000Y-31574119D01*
X40824591Y-31850379D01*
X41322581Y-32183125D01*
X41910000Y-32299970D01*
X42497419Y-32183125D01*
X42995409Y-31850379D01*
X43180000Y-31574119D01*
X43364591Y-31850379D01*
X43862581Y-32183125D01*
X44450000Y-32299970D01*
X45037419Y-32183125D01*
X45535409Y-31850379D01*
X45720000Y-31574119D01*
X45904591Y-31850379D01*
X46402581Y-32183125D01*
X46990000Y-32299970D01*
X47577419Y-32183125D01*
X48075409Y-31850379D01*
X48260000Y-31574119D01*
X48444591Y-31850379D01*
X48942581Y-32183125D01*
X49530000Y-32299970D01*
X50117419Y-32183125D01*
X50615409Y-31850379D01*
X50800000Y-31574119D01*
X50984591Y-31850379D01*
X51482581Y-32183125D01*
X52070000Y-32299970D01*
X52657419Y-32183125D01*
X53155409Y-31850379D01*
X53340000Y-31574119D01*
X53524591Y-31850379D01*
X54022581Y-32183125D01*
X54610000Y-32299970D01*
X55197419Y-32183125D01*
X55695409Y-31850379D01*
X55882801Y-31569926D01*
X56145260Y-31903647D01*
X56670877Y-32198806D01*
X56785260Y-32221036D01*
X57023000Y-32100378D01*
X57023000Y-30607000D01*
X57003000Y-30607000D01*
X57003000Y-30353000D01*
X57023000Y-30353000D01*
X57023000Y-28859622D01*
X57277000Y-28859622D01*
X57277000Y-30353000D01*
X57297000Y-30353000D01*
X57297000Y-30607000D01*
X57277000Y-30607000D01*
X57277000Y-32100378D01*
X57514740Y-32221036D01*
X57629123Y-32198806D01*
X58154740Y-31903647D01*
X58417199Y-31569926D01*
X58604591Y-31850379D01*
X59102581Y-32183125D01*
X59690000Y-32299970D01*
X60277419Y-32183125D01*
X60775409Y-31850379D01*
X60960000Y-31574119D01*
X61144591Y-31850379D01*
X61642581Y-32183125D01*
X62230000Y-32299970D01*
X62817419Y-32183125D01*
X63315409Y-31850379D01*
X63500000Y-31574119D01*
X63684591Y-31850379D01*
X64182581Y-32183125D01*
X64770000Y-32299970D01*
X65357419Y-32183125D01*
X65855409Y-31850379D01*
X66040000Y-31574119D01*
X66224591Y-31850379D01*
X66722581Y-32183125D01*
X67310000Y-32299970D01*
X67897419Y-32183125D01*
X68395409Y-31850379D01*
X68728155Y-31352389D01*
X68845000Y-30764970D01*
X68845000Y-30195030D01*
X68728155Y-29607611D01*
X68395409Y-29109621D01*
X67897419Y-28776875D01*
X67310000Y-28660030D01*
X66722581Y-28776875D01*
X66224591Y-29109621D01*
X66040000Y-29385881D01*
X65855409Y-29109621D01*
X65357419Y-28776875D01*
X64770000Y-28660030D01*
X64182581Y-28776875D01*
X63684591Y-29109621D01*
X63500000Y-29385881D01*
X63315409Y-29109621D01*
X62817419Y-28776875D01*
X62230000Y-28660030D01*
X61642581Y-28776875D01*
X61144591Y-29109621D01*
X60960000Y-29385881D01*
X60775409Y-29109621D01*
X60277419Y-28776875D01*
X59690000Y-28660030D01*
X59102581Y-28776875D01*
X58604591Y-29109621D01*
X58417199Y-29390074D01*
X58154740Y-29056353D01*
X57629123Y-28761194D01*
X57514740Y-28738964D01*
X57277000Y-28859622D01*
X57023000Y-28859622D01*
X56785260Y-28738964D01*
X56670877Y-28761194D01*
X56145260Y-29056353D01*
X55882801Y-29390074D01*
X55695409Y-29109621D01*
X55197419Y-28776875D01*
X54610000Y-28660030D01*
X54022581Y-28776875D01*
X53524591Y-29109621D01*
X53340000Y-29385881D01*
X53155409Y-29109621D01*
X52657419Y-28776875D01*
X52070000Y-28660030D01*
X51482581Y-28776875D01*
X50984591Y-29109621D01*
X50800000Y-29385881D01*
X50615409Y-29109621D01*
X50117419Y-28776875D01*
X49530000Y-28660030D01*
X48942581Y-28776875D01*
X48444591Y-29109621D01*
X48260000Y-29385881D01*
X48075409Y-29109621D01*
X47577419Y-28776875D01*
X46990000Y-28660030D01*
X46402581Y-28776875D01*
X45904591Y-29109621D01*
X45720000Y-29385881D01*
X45535409Y-29109621D01*
X45037419Y-28776875D01*
X44450000Y-28660030D01*
X43862581Y-28776875D01*
X43364591Y-29109621D01*
X43180000Y-29385881D01*
X42995409Y-29109621D01*
X42497419Y-28776875D01*
X41910000Y-28660030D01*
X41322581Y-28776875D01*
X40824591Y-29109621D01*
X40640000Y-29385881D01*
X40455409Y-29109621D01*
X39957419Y-28776875D01*
X39370000Y-28660030D01*
X38782581Y-28776875D01*
X38284591Y-29109621D01*
X38100000Y-29385881D01*
X37915409Y-29109621D01*
X37715000Y-28975712D01*
X37715000Y-27927167D01*
X46645838Y-27927167D01*
X46787883Y-28270943D01*
X47050673Y-28534192D01*
X47394201Y-28676838D01*
X47766167Y-28677162D01*
X47887569Y-28627000D01*
X82520420Y-28627000D01*
X88140255Y-34246834D01*
X88189883Y-34366943D01*
X88452673Y-34630192D01*
X88796201Y-34772838D01*
X89168167Y-34773162D01*
X89511943Y-34631117D01*
X89775192Y-34368327D01*
X89917838Y-34024799D01*
X89918162Y-33652833D01*
X89776117Y-33309057D01*
X89513327Y-33045808D01*
X89392013Y-32995434D01*
X87593448Y-31196868D01*
X105888737Y-31196868D01*
X105999641Y-31474099D01*
X106645593Y-31717323D01*
X107335453Y-31694836D01*
X107868359Y-31474099D01*
X107979263Y-31196868D01*
X106934000Y-30151605D01*
X105888737Y-31196868D01*
X87593448Y-31196868D01*
X84548454Y-28151874D01*
X96186370Y-28151874D01*
X96738600Y-29488372D01*
X97760249Y-30511806D01*
X99095782Y-31066368D01*
X100541874Y-31067630D01*
X101878372Y-30515400D01*
X102711632Y-29683593D01*
X105188677Y-29683593D01*
X105211164Y-30373453D01*
X105431901Y-30906359D01*
X105709132Y-31017263D01*
X106754395Y-29972000D01*
X105709132Y-28926737D01*
X105431901Y-29037641D01*
X105188677Y-29683593D01*
X102711632Y-29683593D01*
X102901806Y-29493751D01*
X103211829Y-28747132D01*
X105888737Y-28747132D01*
X106934000Y-29792395D01*
X106948143Y-29778253D01*
X107127748Y-29957858D01*
X107113605Y-29972000D01*
X108158868Y-31017263D01*
X108273957Y-30971222D01*
X108743918Y-31442004D01*
X109381373Y-31706699D01*
X110071599Y-31707301D01*
X110709515Y-31443719D01*
X111061686Y-31092162D01*
X111410918Y-31442004D01*
X112048373Y-31706699D01*
X112738599Y-31707301D01*
X113376515Y-31443719D01*
X113792297Y-31028662D01*
X114204918Y-31442004D01*
X114842373Y-31706699D01*
X115532599Y-31707301D01*
X116170515Y-31443719D01*
X116586297Y-31028662D01*
X116998918Y-31442004D01*
X117636373Y-31706699D01*
X118326599Y-31707301D01*
X118964515Y-31443719D01*
X119453004Y-30956082D01*
X119717699Y-30318627D01*
X119718301Y-29628401D01*
X119454719Y-28990485D01*
X118967082Y-28501996D01*
X118329627Y-28237301D01*
X118130313Y-28237127D01*
X118165713Y-28151874D01*
X121586370Y-28151874D01*
X122138600Y-29488372D01*
X123160249Y-30511806D01*
X124495782Y-31066368D01*
X125941874Y-31067630D01*
X127278372Y-30515400D01*
X128301806Y-29493751D01*
X128856368Y-28158218D01*
X128857630Y-26712126D01*
X128305400Y-25375628D01*
X127283751Y-24352194D01*
X125948218Y-23797632D01*
X124502126Y-23796370D01*
X123165628Y-24348600D01*
X122142194Y-25370249D01*
X121587632Y-26705782D01*
X121586370Y-28151874D01*
X118165713Y-28151874D01*
X118320699Y-27778627D01*
X118321301Y-27088401D01*
X118057719Y-26450485D01*
X117570082Y-25961996D01*
X116932627Y-25697301D01*
X116242401Y-25696699D01*
X115604485Y-25960281D01*
X115188703Y-26375338D01*
X114776082Y-25961996D01*
X114138627Y-25697301D01*
X113448401Y-25696699D01*
X112810485Y-25960281D01*
X112458314Y-26311838D01*
X112109082Y-25961996D01*
X111471627Y-25697301D01*
X110781401Y-25696699D01*
X110143485Y-25960281D01*
X109727703Y-26375338D01*
X109315082Y-25961996D01*
X108677627Y-25697301D01*
X107987401Y-25696699D01*
X107349485Y-25960281D01*
X106860996Y-26447918D01*
X106596301Y-27085373D01*
X106595699Y-27775599D01*
X106787933Y-28240839D01*
X106532547Y-28249164D01*
X105999641Y-28469901D01*
X105888737Y-28747132D01*
X103211829Y-28747132D01*
X103456368Y-28158218D01*
X103457630Y-26712126D01*
X102905400Y-25375628D01*
X101883751Y-24352194D01*
X100548218Y-23797632D01*
X99102126Y-23796370D01*
X97765628Y-24348600D01*
X96742194Y-25370249D01*
X96187632Y-26705782D01*
X96186370Y-28151874D01*
X84548454Y-28151874D01*
X83512790Y-27116210D01*
X83263750Y-26949808D01*
X83225675Y-26924367D01*
X83169484Y-26913190D01*
X82887000Y-26856999D01*
X82886995Y-26857000D01*
X47887822Y-26857000D01*
X47767799Y-26807162D01*
X47395833Y-26806838D01*
X47052057Y-26948883D01*
X46788808Y-27211673D01*
X46646162Y-27555201D01*
X46645838Y-27927167D01*
X37715000Y-27927167D01*
X37715000Y-27048580D01*
X37914579Y-26849000D01*
X40849995Y-26849000D01*
X40850000Y-26849001D01*
X41132484Y-26792810D01*
X41188675Y-26781633D01*
X41475790Y-26589790D01*
X45075787Y-22989792D01*
X45075790Y-22989790D01*
X45267633Y-22702675D01*
X45292895Y-22575674D01*
X45335001Y-22364000D01*
X45335000Y-22363995D01*
X45335000Y-16660710D01*
X45383995Y-16640466D01*
X45720179Y-16304868D01*
X46053563Y-16638834D01*
X46660155Y-16890713D01*
X47316963Y-16891286D01*
X47923995Y-16640466D01*
X48388834Y-16176437D01*
X48640713Y-15569845D01*
X48641286Y-14913037D01*
X48390466Y-14306005D01*
X47926437Y-13841166D01*
X47319845Y-13589287D01*
X46663037Y-13588714D01*
X46056005Y-13839534D01*
X45719821Y-14175132D01*
X45386437Y-13841166D01*
X44779845Y-13589287D01*
X44123037Y-13588714D01*
X43516005Y-13839534D01*
X43179821Y-14175132D01*
X42846437Y-13841166D01*
X42239845Y-13589287D01*
X41583037Y-13588714D01*
X40976005Y-13839534D01*
X40552435Y-14262366D01*
X40534107Y-14255498D01*
X39549605Y-15240000D01*
X40534107Y-16224502D01*
X40552917Y-16217453D01*
X40973563Y-16638834D01*
X41025000Y-16660193D01*
X41025000Y-21870421D01*
X39848420Y-23047000D01*
X36278005Y-23047000D01*
X36278000Y-23046999D01*
X35939326Y-23114366D01*
X35939324Y-23114367D01*
X35939325Y-23114367D01*
X35652210Y-23306210D01*
X35652208Y-23306213D01*
X33664210Y-25294210D01*
X33472367Y-25581325D01*
X33472367Y-25581326D01*
X33404999Y-25920000D01*
X33405000Y-25920005D01*
X33405000Y-28975712D01*
X33204591Y-29109621D01*
X32871845Y-29607611D01*
X32755000Y-30195030D01*
X26199819Y-30195030D01*
X26381573Y-29923017D01*
X26487000Y-29393000D01*
X26487000Y-23306139D01*
X26569441Y-23253090D01*
X26714431Y-23040890D01*
X26765440Y-22789000D01*
X26765440Y-20757000D01*
X26721162Y-20521683D01*
X26582090Y-20305559D01*
X26369890Y-20160569D01*
X26118000Y-20109560D01*
X24086000Y-20109560D01*
X23850683Y-20153838D01*
X23634559Y-20292910D01*
X23489569Y-20505110D01*
X23438560Y-20757000D01*
X23438560Y-22789000D01*
X23482838Y-23024317D01*
X23621910Y-23240441D01*
X23717000Y-23305413D01*
X23717000Y-28819314D01*
X23254598Y-29281716D01*
X22653057Y-29530106D01*
X22192722Y-29989637D01*
X21943284Y-30590352D01*
X21943282Y-30593032D01*
X13962657Y-38573657D01*
X13662427Y-39022983D01*
X13557000Y-39553000D01*
X13112000Y-39553000D01*
X13112000Y-32069532D01*
X17605073Y-32069532D01*
X17703736Y-32336387D01*
X18313461Y-32562908D01*
X18963460Y-32538856D01*
X19452264Y-32336387D01*
X19550927Y-32069532D01*
X18578000Y-31096605D01*
X17605073Y-32069532D01*
X13112000Y-32069532D01*
X13112000Y-30652461D01*
X16932092Y-30652461D01*
X16956144Y-31302460D01*
X17158613Y-31791264D01*
X17425468Y-31889927D01*
X18398395Y-30917000D01*
X18757605Y-30917000D01*
X19730532Y-31889927D01*
X19997387Y-31791264D01*
X20223908Y-31181539D01*
X20199856Y-30531540D01*
X19997387Y-30042736D01*
X19730532Y-29944073D01*
X18757605Y-30917000D01*
X18398395Y-30917000D01*
X17425468Y-29944073D01*
X17158613Y-30042736D01*
X16932092Y-30652461D01*
X13112000Y-30652461D01*
X13112000Y-29764468D01*
X17605073Y-29764468D01*
X18578000Y-30737395D01*
X19550927Y-29764468D01*
X19452264Y-29497613D01*
X18842539Y-29271092D01*
X18192540Y-29295144D01*
X17703736Y-29497613D01*
X17605073Y-29764468D01*
X13112000Y-29764468D01*
X13112000Y-22099963D01*
X15830714Y-22099963D01*
X16081534Y-22706995D01*
X16545563Y-23171834D01*
X17152155Y-23423713D01*
X17808963Y-23424286D01*
X18415995Y-23173466D01*
X18880834Y-22709437D01*
X19132713Y-22102845D01*
X19133286Y-21446037D01*
X18882466Y-20839005D01*
X18867000Y-20823512D01*
X18867000Y-16889138D01*
X19006690Y-16947000D01*
X19863250Y-16947000D01*
X20022000Y-16788250D01*
X20022000Y-15423000D01*
X20276000Y-15423000D01*
X20276000Y-16788250D01*
X20434750Y-16947000D01*
X21291310Y-16947000D01*
X21524699Y-16850327D01*
X21703327Y-16671698D01*
X21800000Y-16438309D01*
X21800000Y-15581750D01*
X21641250Y-15423000D01*
X20276000Y-15423000D01*
X20022000Y-15423000D01*
X20002000Y-15423000D01*
X20002000Y-15207655D01*
X32639000Y-15207655D01*
X32639000Y-15272345D01*
X32764675Y-15904155D01*
X33122567Y-16439778D01*
X33658190Y-16797670D01*
X34290000Y-16923345D01*
X34921810Y-16797670D01*
X35457433Y-16439778D01*
X35552630Y-16297306D01*
X35893563Y-16638834D01*
X36500155Y-16890713D01*
X37156963Y-16891286D01*
X37763995Y-16640466D01*
X38000766Y-16404107D01*
X38385498Y-16404107D01*
X38486120Y-16672622D01*
X39101642Y-16901816D01*
X39758019Y-16878014D01*
X40253880Y-16672622D01*
X40354502Y-16404107D01*
X39370000Y-15419605D01*
X38385498Y-16404107D01*
X38000766Y-16404107D01*
X38187565Y-16217634D01*
X38205893Y-16224502D01*
X39190395Y-15240000D01*
X38205893Y-14255498D01*
X38187083Y-14262547D01*
X38000755Y-14075893D01*
X38385498Y-14075893D01*
X39370000Y-15060395D01*
X40354502Y-14075893D01*
X40253880Y-13807378D01*
X39638358Y-13578184D01*
X38981981Y-13601986D01*
X38486120Y-13807378D01*
X38385498Y-14075893D01*
X38000755Y-14075893D01*
X37766437Y-13841166D01*
X37159845Y-13589287D01*
X36503037Y-13588714D01*
X35896005Y-13839534D01*
X35552476Y-14182464D01*
X35457433Y-14040222D01*
X34921810Y-13682330D01*
X34290000Y-13556655D01*
X33658190Y-13682330D01*
X33122567Y-14040222D01*
X32764675Y-14575845D01*
X32639000Y-15207655D01*
X20002000Y-15207655D01*
X20002000Y-15169000D01*
X20022000Y-15169000D01*
X20022000Y-13803750D01*
X20276000Y-13803750D01*
X20276000Y-15169000D01*
X21641250Y-15169000D01*
X21800000Y-15010250D01*
X21800000Y-14153691D01*
X21703327Y-13920302D01*
X21524699Y-13741673D01*
X21291310Y-13645000D01*
X20434750Y-13645000D01*
X20276000Y-13803750D01*
X20022000Y-13803750D01*
X19863250Y-13645000D01*
X19006690Y-13645000D01*
X18773301Y-13741673D01*
X18594673Y-13920302D01*
X18577001Y-13962966D01*
X18240810Y-13738330D01*
X17609000Y-13612655D01*
X16977190Y-13738330D01*
X16441567Y-14096222D01*
X16083675Y-14631845D01*
X15958000Y-15263655D01*
X15958000Y-15328345D01*
X16083675Y-15960155D01*
X16097000Y-15980097D01*
X16097000Y-20822753D01*
X16083166Y-20836563D01*
X15831287Y-21443155D01*
X15830714Y-22099963D01*
X13112000Y-22099963D01*
X13112000Y-13085000D01*
X132342000Y-13085000D01*
X132342000Y-129013000D01*
X132342000Y-129013000D01*
G37*
X132342000Y-129013000D02*
X13112000Y-129013000D01*
X13112000Y-122152468D01*
X13260918Y-122769445D01*
X13981702Y-123758982D01*
X15026299Y-124397363D01*
X15493224Y-124526394D01*
X15981680Y-124425939D01*
X15981680Y-120929400D01*
X16235680Y-120929400D01*
X16235680Y-124425939D01*
X16724136Y-124526394D01*
X17191061Y-124397363D01*
X18235658Y-123758982D01*
X18956442Y-122769445D01*
X19243680Y-121579400D01*
X19243680Y-120929400D01*
X23171780Y-120929400D01*
X23171780Y-121579400D01*
X23459018Y-122769445D01*
X24179802Y-123758982D01*
X25224399Y-124397363D01*
X25691324Y-124526394D01*
X26179780Y-124425939D01*
X26179780Y-120929400D01*
X26433780Y-120929400D01*
X26433780Y-124425939D01*
X26922236Y-124526394D01*
X27389161Y-124397363D01*
X28433758Y-123758982D01*
X29154542Y-122769445D01*
X29441780Y-121579400D01*
X29441780Y-120929400D01*
X26433780Y-120929400D01*
X26179780Y-120929400D01*
X23171780Y-120929400D01*
X19243680Y-120929400D01*
X16235680Y-120929400D01*
X15981680Y-120929400D01*
X15961680Y-120929400D01*
X15961680Y-120858400D01*
X30709680Y-120858400D01*
X30709680Y-121508400D01*
X30996918Y-122698445D01*
X31717702Y-123687982D01*
X32762299Y-124326363D01*
X33229224Y-124455394D01*
X33717680Y-124354939D01*
X33717680Y-120858400D01*
X33971680Y-120858400D01*
X33971680Y-124354939D01*
X34460136Y-124455394D01*
X34927061Y-124326363D01*
X35971658Y-123687982D01*
X36692442Y-122698445D01*
X36979680Y-121508400D01*
X36979680Y-120858400D01*
X40907780Y-120858400D01*
X40907780Y-121508400D01*
X41195018Y-122698445D01*
X41915802Y-123687982D01*
X42960399Y-124326363D01*
X43427324Y-124455394D01*
X43915780Y-124354939D01*
X43915780Y-120858400D01*
X44169780Y-120858400D01*
X44169780Y-124354939D01*
X44658236Y-124455394D01*
X45125161Y-124326363D01*
X46169758Y-123687982D01*
X46890542Y-122698445D01*
X47177780Y-121508400D01*
X47177780Y-120929400D01*
X51327680Y-120929400D01*
X51327680Y-121579400D01*
X51614918Y-122769445D01*
X52335702Y-123758982D01*
X53380299Y-124397363D01*
X53847224Y-124526394D01*
X54335680Y-124425939D01*
X54335680Y-120929400D01*
X54589680Y-120929400D01*
X54589680Y-124425939D01*
X55078136Y-124526394D01*
X55545061Y-124397363D01*
X56589658Y-123758982D01*
X57310442Y-122769445D01*
X57597680Y-121579400D01*
X57597680Y-120929400D01*
X61525780Y-120929400D01*
X61525780Y-121579400D01*
X61813018Y-122769445D01*
X62533802Y-123758982D01*
X63578399Y-124397363D01*
X64045324Y-124526394D01*
X64533780Y-124425939D01*
X64533780Y-120929400D01*
X64787780Y-120929400D01*
X64787780Y-124425939D01*
X65276236Y-124526394D01*
X65743161Y-124397363D01*
X66787758Y-123758982D01*
X67508542Y-122769445D01*
X67795780Y-121579400D01*
X67795780Y-120929400D01*
X64787780Y-120929400D01*
X64533780Y-120929400D01*
X61525780Y-120929400D01*
X57597680Y-120929400D01*
X54589680Y-120929400D01*
X54335680Y-120929400D01*
X51327680Y-120929400D01*
X47177780Y-120929400D01*
X47177780Y-120858400D01*
X44169780Y-120858400D01*
X43915780Y-120858400D01*
X40907780Y-120858400D01*
X36979680Y-120858400D01*
X33971680Y-120858400D01*
X33717680Y-120858400D01*
X30709680Y-120858400D01*
X15961680Y-120858400D01*
X15961680Y-120675400D01*
X15981680Y-120675400D01*
X15981680Y-117178861D01*
X16235680Y-117178861D01*
X16235680Y-120675400D01*
X19243680Y-120675400D01*
X19243680Y-120025400D01*
X23171780Y-120025400D01*
X23171780Y-120675400D01*
X26179780Y-120675400D01*
X26179780Y-117178861D01*
X26433780Y-117178861D01*
X26433780Y-120675400D01*
X29441780Y-120675400D01*
X29441780Y-120025400D01*
X29424643Y-119954400D01*
X30709680Y-119954400D01*
X30709680Y-120604400D01*
X33717680Y-120604400D01*
X33717680Y-117107861D01*
X33971680Y-117107861D01*
X33971680Y-120604400D01*
X36979680Y-120604400D01*
X36979680Y-119954400D01*
X40907780Y-119954400D01*
X40907780Y-120604400D01*
X43915780Y-120604400D01*
X43915780Y-117107861D01*
X44169780Y-117107861D01*
X44169780Y-120604400D01*
X47177780Y-120604400D01*
X47177780Y-120025400D01*
X51327680Y-120025400D01*
X51327680Y-120675400D01*
X54335680Y-120675400D01*
X54335680Y-117178861D01*
X54589680Y-117178861D01*
X54589680Y-120675400D01*
X57597680Y-120675400D01*
X57597680Y-120025400D01*
X61525780Y-120025400D01*
X61525780Y-120675400D01*
X64533780Y-120675400D01*
X64533780Y-117178861D01*
X64787780Y-117178861D01*
X64787780Y-120675400D01*
X67795780Y-120675400D01*
X67795780Y-120263015D01*
X74807641Y-120263015D01*
X75192746Y-121195041D01*
X75905208Y-121908748D01*
X76836561Y-122295479D01*
X77845015Y-122296359D01*
X78777041Y-121911254D01*
X79490748Y-121198792D01*
X79877479Y-120267439D01*
X79878359Y-119258985D01*
X79493254Y-118326959D01*
X78780792Y-117613252D01*
X77849439Y-117226521D01*
X76840985Y-117225641D01*
X75908959Y-117610746D01*
X75195252Y-118323208D01*
X74808521Y-119254561D01*
X74807641Y-120263015D01*
X67795780Y-120263015D01*
X67795780Y-120025400D01*
X67508542Y-118835355D01*
X66787758Y-117845818D01*
X65743161Y-117207437D01*
X65276236Y-117078406D01*
X64787780Y-117178861D01*
X64533780Y-117178861D01*
X64045324Y-117078406D01*
X63658828Y-117185211D01*
X63740745Y-116929660D01*
X63591354Y-116664740D01*
X62189360Y-116664740D01*
X62189360Y-118258697D01*
X62222194Y-118273613D01*
X61813018Y-118835355D01*
X61525780Y-120025400D01*
X57597680Y-120025400D01*
X57310442Y-118835355D01*
X56589658Y-117845818D01*
X55545061Y-117207437D01*
X55078136Y-117078406D01*
X54589680Y-117178861D01*
X54335680Y-117178861D01*
X53847224Y-117078406D01*
X53380299Y-117207437D01*
X52335702Y-117845818D01*
X51614918Y-118835355D01*
X51327680Y-120025400D01*
X47177780Y-120025400D01*
X47177780Y-119954400D01*
X46890542Y-118764355D01*
X46169758Y-117774818D01*
X45125161Y-117136437D01*
X44658236Y-117007406D01*
X44169780Y-117107861D01*
X43915780Y-117107861D01*
X43427324Y-117007406D01*
X43040828Y-117114211D01*
X43122745Y-116858660D01*
X42973354Y-116593740D01*
X41571360Y-116593740D01*
X41571360Y-118187697D01*
X41604194Y-118202613D01*
X41195018Y-118764355D01*
X40907780Y-119954400D01*
X36979680Y-119954400D01*
X36692442Y-118764355D01*
X35971658Y-117774818D01*
X34927061Y-117136437D01*
X34460136Y-117007406D01*
X33971680Y-117107861D01*
X33717680Y-117107861D01*
X33229224Y-117007406D01*
X32762299Y-117136437D01*
X31717702Y-117774818D01*
X30996918Y-118764355D01*
X30709680Y-119954400D01*
X29424643Y-119954400D01*
X29154542Y-118835355D01*
X28433758Y-117845818D01*
X27389161Y-117207437D01*
X26922236Y-117078406D01*
X26433780Y-117178861D01*
X26179780Y-117178861D01*
X25691324Y-117078406D01*
X25304828Y-117185211D01*
X25386745Y-116929660D01*
X25237354Y-116664740D01*
X23835360Y-116664740D01*
X23835360Y-118258697D01*
X23868194Y-118273613D01*
X23459018Y-118835355D01*
X23171780Y-120025400D01*
X19243680Y-120025400D01*
X18956442Y-118835355D01*
X18235658Y-117845818D01*
X17191061Y-117207437D01*
X16724136Y-117078406D01*
X16235680Y-117178861D01*
X15981680Y-117178861D01*
X15493224Y-117078406D01*
X15026299Y-117207437D01*
X13981702Y-117845818D01*
X13260918Y-118835355D01*
X13112000Y-119452332D01*
X13112000Y-116300811D01*
X19524000Y-116300811D01*
X19524000Y-116774669D01*
X19652263Y-117419491D01*
X20017525Y-117966144D01*
X20564178Y-118331406D01*
X21209000Y-118459669D01*
X21853822Y-118331406D01*
X22400475Y-117966144D01*
X22478546Y-117849302D01*
X22657270Y-118060245D01*
X23243380Y-118361810D01*
X23320081Y-118377394D01*
X23581360Y-118258697D01*
X23581360Y-116664740D01*
X23561360Y-116664740D01*
X23561360Y-116410740D01*
X23581360Y-116410740D01*
X23581360Y-114816783D01*
X23835360Y-114816783D01*
X23835360Y-116410740D01*
X25237354Y-116410740D01*
X25339381Y-116229811D01*
X37260000Y-116229811D01*
X37260000Y-116703669D01*
X37388263Y-117348491D01*
X37753525Y-117895144D01*
X38300178Y-118260406D01*
X38945000Y-118388669D01*
X39589822Y-118260406D01*
X40136475Y-117895144D01*
X40214546Y-117778302D01*
X40393270Y-117989245D01*
X40979380Y-118290810D01*
X41056081Y-118306394D01*
X41317360Y-118187697D01*
X41317360Y-116593740D01*
X41297360Y-116593740D01*
X41297360Y-116339740D01*
X41317360Y-116339740D01*
X41317360Y-114745783D01*
X41571360Y-114745783D01*
X41571360Y-116339740D01*
X42973354Y-116339740D01*
X42995306Y-116300811D01*
X57878000Y-116300811D01*
X57878000Y-116774669D01*
X58006263Y-117419491D01*
X58371525Y-117966144D01*
X58918178Y-118331406D01*
X59563000Y-118459669D01*
X60207822Y-118331406D01*
X60754475Y-117966144D01*
X60832546Y-117849302D01*
X61011270Y-118060245D01*
X61597380Y-118361810D01*
X61674081Y-118377394D01*
X61935360Y-118258697D01*
X61935360Y-116664740D01*
X61915360Y-116664740D01*
X61915360Y-116410740D01*
X61935360Y-116410740D01*
X61935360Y-114816783D01*
X62189360Y-114816783D01*
X62189360Y-116410740D01*
X63591354Y-116410740D01*
X63740745Y-116145820D01*
X63539541Y-115518139D01*
X63113450Y-115015235D01*
X62527340Y-114713670D01*
X62450639Y-114698086D01*
X62189360Y-114816783D01*
X61935360Y-114816783D01*
X61674081Y-114698086D01*
X61597380Y-114713670D01*
X61011270Y-115015235D01*
X60832546Y-115226178D01*
X60754475Y-115109336D01*
X60207822Y-114744074D01*
X59563000Y-114615811D01*
X58918178Y-114744074D01*
X58371525Y-115109336D01*
X58006263Y-115655989D01*
X57878000Y-116300811D01*
X42995306Y-116300811D01*
X43122745Y-116074820D01*
X42921541Y-115447139D01*
X42495450Y-114944235D01*
X41909340Y-114642670D01*
X41832639Y-114627086D01*
X41571360Y-114745783D01*
X41317360Y-114745783D01*
X41056081Y-114627086D01*
X40979380Y-114642670D01*
X40393270Y-114944235D01*
X40214546Y-115155178D01*
X40136475Y-115038336D01*
X39589822Y-114673074D01*
X38945000Y-114544811D01*
X38300178Y-114673074D01*
X37753525Y-115038336D01*
X37388263Y-115584989D01*
X37260000Y-116229811D01*
X25339381Y-116229811D01*
X25386745Y-116145820D01*
X25185541Y-115518139D01*
X24759450Y-115015235D01*
X24173340Y-114713670D01*
X24096639Y-114698086D01*
X23835360Y-114816783D01*
X23581360Y-114816783D01*
X23320081Y-114698086D01*
X23243380Y-114713670D01*
X22657270Y-115015235D01*
X22478546Y-115226178D01*
X22400475Y-115109336D01*
X21853822Y-114744074D01*
X21209000Y-114615811D01*
X20564178Y-114744074D01*
X20017525Y-115109336D01*
X19652263Y-115655989D01*
X19524000Y-116300811D01*
X13112000Y-116300811D01*
X13112000Y-39553000D01*
X13557000Y-39553000D01*
X13557000Y-83241000D01*
X13662427Y-83771017D01*
X13866647Y-84076654D01*
X13962657Y-84220343D01*
X22598657Y-92856343D01*
X23047983Y-93156573D01*
X23578000Y-93262000D01*
X50436314Y-93262000D01*
X68445657Y-111271343D01*
X68894984Y-111571574D01*
X69425000Y-111677000D01*
X77487314Y-111677000D01*
X89090657Y-123280343D01*
X89539984Y-123580574D01*
X90070000Y-123686000D01*
X92713329Y-123686000D01*
X92970351Y-123857737D01*
X93615173Y-123986000D01*
X94598827Y-123986000D01*
X95243649Y-123857737D01*
X95790302Y-123492475D01*
X96155564Y-122945822D01*
X96283827Y-122301000D01*
X96155564Y-121656178D01*
X95790302Y-121109525D01*
X95646080Y-121013159D01*
X95753054Y-120929400D01*
X115081680Y-120929400D01*
X115081680Y-121579400D01*
X115368918Y-122769445D01*
X116089702Y-123758982D01*
X117134299Y-124397363D01*
X117601224Y-124526394D01*
X118089680Y-124425939D01*
X118089680Y-120929400D01*
X118343680Y-120929400D01*
X118343680Y-124425939D01*
X118832136Y-124526394D01*
X119299061Y-124397363D01*
X120343658Y-123758982D01*
X121064442Y-122769445D01*
X121351680Y-121579400D01*
X121351680Y-120929400D01*
X125279780Y-120929400D01*
X125279780Y-121579400D01*
X125567018Y-122769445D01*
X126287802Y-123758982D01*
X127332399Y-124397363D01*
X127799324Y-124526394D01*
X128287780Y-124425939D01*
X128287780Y-120929400D01*
X128541780Y-120929400D01*
X128541780Y-124425939D01*
X129030236Y-124526394D01*
X129497161Y-124397363D01*
X130541758Y-123758982D01*
X131262542Y-122769445D01*
X131549780Y-121579400D01*
X131549780Y-120929400D01*
X128541780Y-120929400D01*
X128287780Y-120929400D01*
X125279780Y-120929400D01*
X121351680Y-120929400D01*
X118343680Y-120929400D01*
X118089680Y-120929400D01*
X115081680Y-120929400D01*
X95753054Y-120929400D01*
X95838277Y-120862672D01*
X96162337Y-120288489D01*
X96196654Y-120149279D01*
X96140377Y-120025400D01*
X115081680Y-120025400D01*
X115081680Y-120675400D01*
X118089680Y-120675400D01*
X118089680Y-117178861D01*
X118343680Y-117178861D01*
X118343680Y-120675400D01*
X121351680Y-120675400D01*
X121351680Y-120025400D01*
X125279780Y-120025400D01*
X125279780Y-120675400D01*
X128287780Y-120675400D01*
X128287780Y-117178861D01*
X128541780Y-117178861D01*
X128541780Y-120675400D01*
X131549780Y-120675400D01*
X131549780Y-120025400D01*
X131262542Y-118835355D01*
X130541758Y-117845818D01*
X129497161Y-117207437D01*
X129030236Y-117078406D01*
X128541780Y-117178861D01*
X128287780Y-117178861D01*
X127799324Y-117078406D01*
X127412828Y-117185211D01*
X127494745Y-116929660D01*
X127345354Y-116664740D01*
X125943360Y-116664740D01*
X125943360Y-118258697D01*
X125976194Y-118273613D01*
X125567018Y-118835355D01*
X125279780Y-120025400D01*
X121351680Y-120025400D01*
X121064442Y-118835355D01*
X120343658Y-117845818D01*
X119299061Y-117207437D01*
X118832136Y-117078406D01*
X118343680Y-117178861D01*
X118089680Y-117178861D01*
X117601224Y-117078406D01*
X117134299Y-117207437D01*
X116089702Y-117845818D01*
X115368918Y-118835355D01*
X115081680Y-120025400D01*
X96140377Y-120025400D01*
X96077957Y-119888000D01*
X94234000Y-119888000D01*
X94234000Y-119908000D01*
X93980000Y-119908000D01*
X93980000Y-119888000D01*
X92136043Y-119888000D01*
X92017346Y-120149279D01*
X92051663Y-120288489D01*
X92375723Y-120862672D01*
X92443832Y-120916000D01*
X90643686Y-120916000D01*
X86948686Y-117221000D01*
X91930173Y-117221000D01*
X92058436Y-117865822D01*
X92423698Y-118412475D01*
X92567920Y-118508841D01*
X92375723Y-118659328D01*
X92051663Y-119233511D01*
X92017346Y-119372721D01*
X92136043Y-119634000D01*
X93980000Y-119634000D01*
X93980000Y-119614000D01*
X94234000Y-119614000D01*
X94234000Y-119634000D01*
X96077957Y-119634000D01*
X96196654Y-119372721D01*
X96162337Y-119233511D01*
X95838277Y-118659328D01*
X95646080Y-118508841D01*
X95790302Y-118412475D01*
X96155564Y-117865822D01*
X96283827Y-117221000D01*
X96155564Y-116576178D01*
X95971570Y-116300811D01*
X121632000Y-116300811D01*
X121632000Y-116774669D01*
X121760263Y-117419491D01*
X122125525Y-117966144D01*
X122672178Y-118331406D01*
X123317000Y-118459669D01*
X123961822Y-118331406D01*
X124508475Y-117966144D01*
X124586546Y-117849302D01*
X124765270Y-118060245D01*
X125351380Y-118361810D01*
X125428081Y-118377394D01*
X125689360Y-118258697D01*
X125689360Y-116664740D01*
X125669360Y-116664740D01*
X125669360Y-116410740D01*
X125689360Y-116410740D01*
X125689360Y-114816783D01*
X125943360Y-114816783D01*
X125943360Y-116410740D01*
X127345354Y-116410740D01*
X127494745Y-116145820D01*
X127293541Y-115518139D01*
X126867450Y-115015235D01*
X126281340Y-114713670D01*
X126204639Y-114698086D01*
X125943360Y-114816783D01*
X125689360Y-114816783D01*
X125428081Y-114698086D01*
X125351380Y-114713670D01*
X124765270Y-115015235D01*
X124586546Y-115226178D01*
X124508475Y-115109336D01*
X123961822Y-114744074D01*
X123317000Y-114615811D01*
X122672178Y-114744074D01*
X122125525Y-115109336D01*
X121760263Y-115655989D01*
X121632000Y-116300811D01*
X95971570Y-116300811D01*
X95790302Y-116029525D01*
X95243649Y-115664263D01*
X94598827Y-115536000D01*
X93615173Y-115536000D01*
X92970351Y-115664263D01*
X92423698Y-116029525D01*
X92058436Y-116576178D01*
X91930173Y-117221000D01*
X86948686Y-117221000D01*
X79040343Y-109312657D01*
X78591017Y-109012427D01*
X78061000Y-108907000D01*
X69998686Y-108907000D01*
X68685753Y-107594067D01*
X121937925Y-107594067D01*
X122231890Y-108305518D01*
X122775739Y-108850317D01*
X123486676Y-109145523D01*
X124256467Y-109146195D01*
X124967918Y-108852230D01*
X125240303Y-108580319D01*
X128682886Y-108580319D01*
X128818244Y-108878315D01*
X129536620Y-109154926D01*
X130306167Y-109135570D01*
X130927236Y-108878315D01*
X131062594Y-108580319D01*
X129872740Y-107390465D01*
X128682886Y-108580319D01*
X125240303Y-108580319D01*
X125512717Y-108308381D01*
X125807923Y-107597444D01*
X125808553Y-106874740D01*
X127928674Y-106874740D01*
X127948030Y-107644287D01*
X128205285Y-108265356D01*
X128503281Y-108400714D01*
X129693135Y-107210860D01*
X130052345Y-107210860D01*
X131242199Y-108400714D01*
X131540195Y-108265356D01*
X131816806Y-107546980D01*
X131797450Y-106777433D01*
X131540195Y-106156364D01*
X131242199Y-106021006D01*
X130052345Y-107210860D01*
X129693135Y-107210860D01*
X128503281Y-106021006D01*
X128205285Y-106156364D01*
X127928674Y-106874740D01*
X125808553Y-106874740D01*
X125808595Y-106827653D01*
X125514630Y-106116202D01*
X125240309Y-105841401D01*
X128682886Y-105841401D01*
X129872740Y-107031255D01*
X131062594Y-105841401D01*
X130927236Y-105543405D01*
X130208860Y-105266794D01*
X129439313Y-105286150D01*
X128818244Y-105543405D01*
X128682886Y-105841401D01*
X125240309Y-105841401D01*
X124970781Y-105571403D01*
X124259844Y-105276197D01*
X123490053Y-105275525D01*
X122778602Y-105569490D01*
X122233803Y-106113339D01*
X121938597Y-106824276D01*
X121937925Y-107594067D01*
X68685753Y-107594067D01*
X66317481Y-105225795D01*
X75961716Y-105225795D01*
X76210106Y-105826943D01*
X76669637Y-106287278D01*
X77270352Y-106536716D01*
X77920795Y-106537284D01*
X78521943Y-106288894D01*
X78982278Y-105829363D01*
X79231716Y-105228648D01*
X79231726Y-105216388D01*
X89979225Y-105216388D01*
X90220398Y-105800072D01*
X90666579Y-106247032D01*
X91249841Y-106489224D01*
X91881388Y-106489775D01*
X92465072Y-106248602D01*
X92912032Y-105802421D01*
X93154224Y-105219159D01*
X93154775Y-104587612D01*
X92913602Y-104003928D01*
X92467421Y-103556968D01*
X91884159Y-103314776D01*
X91252612Y-103314225D01*
X90668928Y-103555398D01*
X90221968Y-104001579D01*
X89979776Y-104584841D01*
X89979225Y-105216388D01*
X79231726Y-105216388D01*
X79232284Y-104578205D01*
X78983894Y-103977057D01*
X78524363Y-103516722D01*
X77923648Y-103267284D01*
X77273205Y-103266716D01*
X76672057Y-103515106D01*
X76211722Y-103974637D01*
X75962284Y-104575352D01*
X75961716Y-105225795D01*
X66317481Y-105225795D01*
X61237481Y-100145795D01*
X75961716Y-100145795D01*
X76210106Y-100746943D01*
X76669637Y-101207278D01*
X77270352Y-101456716D01*
X77920795Y-101457284D01*
X78521943Y-101208894D01*
X78982278Y-100749363D01*
X79231716Y-100148648D01*
X79231726Y-100136388D01*
X89979225Y-100136388D01*
X90220398Y-100720072D01*
X90666579Y-101167032D01*
X91249841Y-101409224D01*
X91881388Y-101409775D01*
X92465072Y-101168602D01*
X92912032Y-100722421D01*
X93154224Y-100139159D01*
X93154775Y-99507612D01*
X92913602Y-98923928D01*
X92467421Y-98476968D01*
X91884159Y-98234776D01*
X91252612Y-98234225D01*
X90668928Y-98475398D01*
X90221968Y-98921579D01*
X89979776Y-99504841D01*
X89979225Y-100136388D01*
X79231726Y-100136388D01*
X79232284Y-99498205D01*
X78983894Y-98897057D01*
X78524363Y-98436722D01*
X77923648Y-98187284D01*
X77273205Y-98186716D01*
X76672057Y-98435106D01*
X76211722Y-98894637D01*
X75962284Y-99495352D01*
X75961716Y-100145795D01*
X61237481Y-100145795D01*
X54887481Y-93795795D01*
X75961716Y-93795795D01*
X76210106Y-94396943D01*
X76669637Y-94857278D01*
X77270352Y-95106716D01*
X77920795Y-95107284D01*
X78521943Y-94858894D01*
X78982278Y-94399363D01*
X79231716Y-93798648D01*
X79231726Y-93786388D01*
X89979225Y-93786388D01*
X90220398Y-94370072D01*
X90666579Y-94817032D01*
X91249841Y-95059224D01*
X91881388Y-95059775D01*
X92465072Y-94818602D01*
X92689718Y-94594347D01*
X121937925Y-94594347D01*
X122231890Y-95305798D01*
X122775739Y-95850597D01*
X123486676Y-96145803D01*
X124256467Y-96146475D01*
X124967918Y-95852510D01*
X125512717Y-95308661D01*
X125807923Y-94597724D01*
X125807925Y-94594347D01*
X127937405Y-94594347D01*
X128231370Y-95305798D01*
X128775219Y-95850597D01*
X129486156Y-96145803D01*
X130255947Y-96146475D01*
X130967398Y-95852510D01*
X131512197Y-95308661D01*
X131807403Y-94597724D01*
X131808075Y-93827933D01*
X131514110Y-93116482D01*
X130970261Y-92571683D01*
X130259324Y-92276477D01*
X129489533Y-92275805D01*
X128778082Y-92569770D01*
X128233283Y-93113619D01*
X127938077Y-93824556D01*
X127937405Y-94594347D01*
X125807925Y-94594347D01*
X125808595Y-93827933D01*
X125514630Y-93116482D01*
X124970781Y-92571683D01*
X124259844Y-92276477D01*
X123490053Y-92275805D01*
X122778602Y-92569770D01*
X122233803Y-93113619D01*
X121938597Y-93824556D01*
X121937925Y-94594347D01*
X92689718Y-94594347D01*
X92912032Y-94372421D01*
X93154224Y-93789159D01*
X93154775Y-93157612D01*
X92913602Y-92573928D01*
X92467421Y-92126968D01*
X91884159Y-91884776D01*
X91252612Y-91884225D01*
X90668928Y-92125398D01*
X90221968Y-92571579D01*
X89979776Y-93154841D01*
X89979225Y-93786388D01*
X79231726Y-93786388D01*
X79232284Y-93148205D01*
X78983894Y-92547057D01*
X78524363Y-92086722D01*
X77923648Y-91837284D01*
X77273205Y-91836716D01*
X76672057Y-92085106D01*
X76211722Y-92544637D01*
X75962284Y-93145352D01*
X75961716Y-93795795D01*
X54887481Y-93795795D01*
X51989343Y-90897657D01*
X51540017Y-90597427D01*
X51010000Y-90492000D01*
X24151686Y-90492000D01*
X22375481Y-88715795D01*
X75961716Y-88715795D01*
X76210106Y-89316943D01*
X76669637Y-89777278D01*
X77270352Y-90026716D01*
X77920795Y-90027284D01*
X78521943Y-89778894D01*
X78982278Y-89319363D01*
X79231716Y-88718648D01*
X79231726Y-88706388D01*
X89979225Y-88706388D01*
X90220398Y-89290072D01*
X90666579Y-89737032D01*
X91249841Y-89979224D01*
X91881388Y-89979775D01*
X92465072Y-89738602D01*
X92912032Y-89292421D01*
X93154224Y-88709159D01*
X93154775Y-88077612D01*
X92913602Y-87493928D01*
X92467421Y-87046968D01*
X91884159Y-86804776D01*
X91252612Y-86804225D01*
X90668928Y-87045398D01*
X90221968Y-87491579D01*
X89979776Y-88074841D01*
X89979225Y-88706388D01*
X79231726Y-88706388D01*
X79232284Y-88068205D01*
X78983894Y-87467057D01*
X78524363Y-87006722D01*
X77923648Y-86757284D01*
X77273205Y-86756716D01*
X76672057Y-87005106D01*
X76211722Y-87464637D01*
X75962284Y-88065352D01*
X75961716Y-88715795D01*
X22375481Y-88715795D01*
X16327000Y-82667314D01*
X16327000Y-61264015D01*
X17359641Y-61264015D01*
X17744746Y-62196041D01*
X18457208Y-62909748D01*
X19388561Y-63296479D01*
X20397015Y-63297359D01*
X21329041Y-62912254D01*
X22042748Y-62199792D01*
X22429479Y-61268439D01*
X22430359Y-60259985D01*
X22045254Y-59327959D01*
X21332792Y-58614252D01*
X20401439Y-58227521D01*
X19392985Y-58226641D01*
X18460959Y-58611746D01*
X17747252Y-59324208D01*
X17360521Y-60255561D01*
X17359641Y-61264015D01*
X16327000Y-61264015D01*
X16327000Y-47130180D01*
X16552434Y-47467566D01*
X33238000Y-64153132D01*
X33238000Y-83114000D01*
X33324397Y-83548346D01*
X33473181Y-83771017D01*
X33570434Y-83916566D01*
X34967434Y-85313566D01*
X35335654Y-85559603D01*
X35770000Y-85645999D01*
X36204345Y-85559603D01*
X36572566Y-85313566D01*
X36818603Y-84945345D01*
X36904999Y-84511000D01*
X36818603Y-84076654D01*
X36572566Y-83708434D01*
X35508000Y-82643868D01*
X35508000Y-64818000D01*
X42919868Y-64818000D01*
X55033434Y-76931566D01*
X55401654Y-77177603D01*
X55836000Y-77264000D01*
X106890000Y-77264000D01*
X107324346Y-77177603D01*
X107692566Y-76931566D01*
X115693566Y-68930566D01*
X115939603Y-68562345D01*
X116026000Y-68128000D01*
X115939603Y-67693655D01*
X115693566Y-67325434D01*
X115325345Y-67079397D01*
X114891000Y-66993000D01*
X114456655Y-67079397D01*
X114088434Y-67325434D01*
X106419868Y-74994000D01*
X97438132Y-74994000D01*
X97786566Y-74645566D01*
X97898530Y-74478000D01*
X98032603Y-74277346D01*
X98119000Y-73843000D01*
X98119000Y-59238000D01*
X98032603Y-58803654D01*
X97786566Y-58435434D01*
X97418346Y-58189397D01*
X96984000Y-58103000D01*
X96549654Y-58189397D01*
X96181434Y-58435434D01*
X95935397Y-58803654D01*
X95849000Y-59238000D01*
X95849000Y-73372868D01*
X94227868Y-74994000D01*
X56306132Y-74994000D01*
X47537299Y-66225167D01*
X75391838Y-66225167D01*
X75533883Y-66568943D01*
X75796673Y-66832192D01*
X76140201Y-66974838D01*
X76512167Y-66975162D01*
X76855943Y-66833117D01*
X77119192Y-66570327D01*
X77219778Y-66328090D01*
X78704868Y-64843000D01*
X90078132Y-64843000D01*
X92706465Y-67471333D01*
X92805883Y-67711943D01*
X93068673Y-67975192D01*
X93412201Y-68117838D01*
X93784167Y-68118162D01*
X94127943Y-67976117D01*
X94391192Y-67713327D01*
X94533838Y-67369799D01*
X94534162Y-66997833D01*
X94392117Y-66654057D01*
X94129327Y-66390808D01*
X93887090Y-66290222D01*
X91014434Y-63417566D01*
X90947736Y-63373000D01*
X90743541Y-63236561D01*
X90424000Y-63173000D01*
X78359000Y-63173000D01*
X78039459Y-63236561D01*
X77835264Y-63373000D01*
X77768566Y-63417566D01*
X76038667Y-65147465D01*
X75798057Y-65246883D01*
X75534808Y-65509673D01*
X75392162Y-65853201D01*
X75391838Y-66225167D01*
X47537299Y-66225167D01*
X46018221Y-64706089D01*
X63870517Y-64706089D01*
X63999725Y-64998859D01*
X64699883Y-65267071D01*
X65449384Y-65246928D01*
X66048275Y-64998859D01*
X66177483Y-64706089D01*
X65024000Y-63552605D01*
X63870517Y-64706089D01*
X46018221Y-64706089D01*
X44361015Y-63048883D01*
X63129929Y-63048883D01*
X63150072Y-63798384D01*
X63398141Y-64397275D01*
X63690911Y-64526483D01*
X64844395Y-63373000D01*
X65203605Y-63373000D01*
X66357089Y-64526483D01*
X66649859Y-64397275D01*
X66899252Y-63746241D01*
X70758994Y-63746241D01*
X71045314Y-64439191D01*
X71575021Y-64969822D01*
X72267469Y-65257352D01*
X73017241Y-65258006D01*
X73710191Y-64971686D01*
X74240822Y-64441979D01*
X74528352Y-63749531D01*
X74529006Y-62999759D01*
X74242686Y-62306809D01*
X73712979Y-61776178D01*
X73020531Y-61488648D01*
X72270759Y-61487994D01*
X71577809Y-61774314D01*
X71047178Y-62304021D01*
X70759648Y-62996469D01*
X70758994Y-63746241D01*
X66899252Y-63746241D01*
X66918071Y-63697117D01*
X66897928Y-62947616D01*
X66649859Y-62348725D01*
X66357089Y-62219517D01*
X65203605Y-63373000D01*
X64844395Y-63373000D01*
X63690911Y-62219517D01*
X63398141Y-62348725D01*
X63129929Y-63048883D01*
X44361015Y-63048883D01*
X44192566Y-62880434D01*
X43994122Y-62747838D01*
X43824346Y-62634397D01*
X43390000Y-62548000D01*
X34843132Y-62548000D01*
X34335043Y-62039911D01*
X63870517Y-62039911D01*
X65024000Y-63193395D01*
X66177483Y-62039911D01*
X66048275Y-61747141D01*
X65348117Y-61478929D01*
X64598616Y-61499072D01*
X63999725Y-61747141D01*
X63870517Y-62039911D01*
X34335043Y-62039911D01*
X24858328Y-52563196D01*
X51387409Y-52563196D01*
X51472467Y-52818539D01*
X52041965Y-53026516D01*
X52647700Y-53000723D01*
X53087533Y-52818539D01*
X53172591Y-52563196D01*
X53132591Y-52523196D01*
X56340409Y-52523196D01*
X56425467Y-52778539D01*
X56994965Y-52986516D01*
X57600700Y-52960723D01*
X58040533Y-52778539D01*
X58125591Y-52523196D01*
X57233000Y-51630605D01*
X56340409Y-52523196D01*
X53132591Y-52523196D01*
X52280000Y-51670605D01*
X51387409Y-52563196D01*
X24858328Y-52563196D01*
X23548097Y-51252965D01*
X50744484Y-51252965D01*
X50770277Y-51858700D01*
X50952461Y-52298533D01*
X51207804Y-52383591D01*
X52100395Y-51491000D01*
X52459605Y-51491000D01*
X53352196Y-52383591D01*
X53607539Y-52298533D01*
X53815516Y-51729035D01*
X53793542Y-51212965D01*
X55697484Y-51212965D01*
X55723277Y-51818700D01*
X55905461Y-52258533D01*
X56160804Y-52343591D01*
X57053395Y-51451000D01*
X57412605Y-51451000D01*
X58305196Y-52343591D01*
X58560539Y-52258533D01*
X58768516Y-51689035D01*
X58742723Y-51083300D01*
X58560539Y-50643467D01*
X58305196Y-50558409D01*
X57412605Y-51451000D01*
X57053395Y-51451000D01*
X56160804Y-50558409D01*
X55905461Y-50643467D01*
X55697484Y-51212965D01*
X53793542Y-51212965D01*
X53789723Y-51123300D01*
X53607539Y-50683467D01*
X53352196Y-50598409D01*
X52459605Y-51491000D01*
X52100395Y-51491000D01*
X51207804Y-50598409D01*
X50952461Y-50683467D01*
X50744484Y-51252965D01*
X23548097Y-51252965D01*
X18490000Y-46194868D01*
X18490000Y-45956895D01*
X18634748Y-45740264D01*
X18899394Y-46073212D01*
X19424914Y-46364756D01*
X19530260Y-46389036D01*
X19768000Y-46268378D01*
X19768000Y-44125000D01*
X19748000Y-44125000D01*
X19748000Y-43871000D01*
X19768000Y-43871000D01*
X19768000Y-41727622D01*
X19530260Y-41606964D01*
X19424914Y-41631244D01*
X18899394Y-41922788D01*
X18634748Y-42255736D01*
X18440409Y-41964887D01*
X17942419Y-41632141D01*
X17355000Y-41515296D01*
X16767581Y-41632141D01*
X16327000Y-41926528D01*
X16327000Y-40126686D01*
X21050000Y-35403686D01*
X21050000Y-42123320D01*
X20890606Y-41922788D01*
X20365086Y-41631244D01*
X20259740Y-41606964D01*
X20022000Y-41727622D01*
X20022000Y-43871000D01*
X20042000Y-43871000D01*
X20042000Y-44125000D01*
X20022000Y-44125000D01*
X20022000Y-46268378D01*
X20259740Y-46389036D01*
X20365086Y-46364756D01*
X20890606Y-46073212D01*
X21155252Y-45740264D01*
X21349591Y-46031113D01*
X21847581Y-46363859D01*
X22435000Y-46480704D01*
X23022419Y-46363859D01*
X23520409Y-46031113D01*
X23853155Y-45533123D01*
X23970000Y-44945704D01*
X23970000Y-43050296D01*
X23853155Y-42462877D01*
X23820000Y-42413257D01*
X23820000Y-37815030D01*
X32755000Y-37815030D01*
X32755000Y-38384970D01*
X32871845Y-38972389D01*
X33204591Y-39470379D01*
X33702581Y-39803125D01*
X34290000Y-39919970D01*
X34877419Y-39803125D01*
X35375409Y-39470379D01*
X35560000Y-39194119D01*
X35744591Y-39470379D01*
X36242581Y-39803125D01*
X36830000Y-39919970D01*
X37417419Y-39803125D01*
X37915409Y-39470379D01*
X38100000Y-39194119D01*
X38284591Y-39470379D01*
X38782581Y-39803125D01*
X39370000Y-39919970D01*
X39957419Y-39803125D01*
X40455409Y-39470379D01*
X40640000Y-39194119D01*
X40824591Y-39470379D01*
X41322581Y-39803125D01*
X41910000Y-39919970D01*
X42497419Y-39803125D01*
X42995409Y-39470379D01*
X43180000Y-39194119D01*
X43364591Y-39470379D01*
X43862581Y-39803125D01*
X44450000Y-39919970D01*
X45037419Y-39803125D01*
X45535409Y-39470379D01*
X45720000Y-39194119D01*
X45904591Y-39470379D01*
X46402581Y-39803125D01*
X46990000Y-39919970D01*
X47577419Y-39803125D01*
X48075409Y-39470379D01*
X48260000Y-39194119D01*
X48444591Y-39470379D01*
X48942581Y-39803125D01*
X49530000Y-39919970D01*
X50117419Y-39803125D01*
X50615409Y-39470379D01*
X50802801Y-39189926D01*
X51065260Y-39523647D01*
X51590877Y-39818806D01*
X51705260Y-39841036D01*
X51943000Y-39720378D01*
X51943000Y-38227000D01*
X51923000Y-38227000D01*
X51923000Y-37973000D01*
X51943000Y-37973000D01*
X51943000Y-37953000D01*
X52197000Y-37953000D01*
X52197000Y-37973000D01*
X52217000Y-37973000D01*
X52217000Y-38227000D01*
X52197000Y-38227000D01*
X52197000Y-39720378D01*
X52434740Y-39841036D01*
X52549123Y-39818806D01*
X53074740Y-39523647D01*
X53337199Y-39189926D01*
X53524591Y-39470379D01*
X53725000Y-39604288D01*
X53725000Y-41261481D01*
X52662623Y-42323858D01*
X52622708Y-42307284D01*
X51972265Y-42306716D01*
X51371117Y-42555106D01*
X50910782Y-43014637D01*
X50661344Y-43615352D01*
X50660776Y-44265795D01*
X50909166Y-44866943D01*
X51368697Y-45327278D01*
X51411060Y-45344869D01*
X51411060Y-47705041D01*
X50988769Y-48126596D01*
X50756265Y-48686528D01*
X50755736Y-49292812D01*
X50987262Y-49853149D01*
X51415596Y-50282231D01*
X51430800Y-50288544D01*
X51387409Y-50418804D01*
X52280000Y-51311395D01*
X53172591Y-50418804D01*
X53129359Y-50289023D01*
X53142149Y-50283738D01*
X53571231Y-49855404D01*
X53803735Y-49295472D01*
X53804264Y-48689188D01*
X53572738Y-48128851D01*
X53181060Y-47736489D01*
X53181060Y-45345398D01*
X53221003Y-45328894D01*
X53681338Y-44869363D01*
X53930776Y-44268648D01*
X53931344Y-43618205D01*
X53913828Y-43575812D01*
X55235787Y-42253852D01*
X55235790Y-42253850D01*
X55427633Y-41966735D01*
X55495000Y-41628060D01*
X55495000Y-39604288D01*
X55695409Y-39470379D01*
X55880000Y-39194119D01*
X56064591Y-39470379D01*
X56265000Y-39604288D01*
X56265000Y-42550146D01*
X56252997Y-42555106D01*
X55792662Y-43014637D01*
X55543224Y-43615352D01*
X55542656Y-44265795D01*
X55791046Y-44866943D01*
X56250577Y-45327278D01*
X56292940Y-45344869D01*
X56292940Y-47736037D01*
X55941769Y-48086596D01*
X55709265Y-48646528D01*
X55708736Y-49252812D01*
X55940262Y-49813149D01*
X56368596Y-50242231D01*
X56383800Y-50248544D01*
X56340409Y-50378804D01*
X57233000Y-51271395D01*
X58125591Y-50378804D01*
X58082359Y-50249023D01*
X58095149Y-50243738D01*
X58524231Y-49815404D01*
X58756735Y-49255472D01*
X58757264Y-48649188D01*
X58525738Y-48088851D01*
X58097404Y-47659769D01*
X58062940Y-47645458D01*
X58062940Y-46883320D01*
X63126880Y-46883320D01*
X63126880Y-49382680D01*
X63171158Y-49617997D01*
X63310230Y-49834121D01*
X63522430Y-49979111D01*
X63774320Y-50030120D01*
X66273680Y-50030120D01*
X66508997Y-49985842D01*
X66725121Y-49846770D01*
X66870111Y-49634570D01*
X66921120Y-49382680D01*
X66921120Y-48506241D01*
X70758994Y-48506241D01*
X71045314Y-49199191D01*
X71575021Y-49729822D01*
X72267469Y-50017352D01*
X73017241Y-50018006D01*
X73710191Y-49731686D01*
X74240822Y-49201979D01*
X74528352Y-48509531D01*
X74529006Y-47759759D01*
X74242686Y-47066809D01*
X73712979Y-46536178D01*
X73020531Y-46248648D01*
X72270759Y-46247994D01*
X71577809Y-46534314D01*
X71047178Y-47064021D01*
X70759648Y-47756469D01*
X70758994Y-48506241D01*
X66921120Y-48506241D01*
X66921120Y-46883320D01*
X66876842Y-46648003D01*
X66737770Y-46431879D01*
X66525570Y-46286889D01*
X66273680Y-46235880D01*
X63774320Y-46235880D01*
X63539003Y-46280158D01*
X63322879Y-46419230D01*
X63177889Y-46631430D01*
X63126880Y-46883320D01*
X58062940Y-46883320D01*
X58062940Y-45345398D01*
X58102883Y-45328894D01*
X58563218Y-44869363D01*
X58812656Y-44268648D01*
X58812952Y-43929167D01*
X73950838Y-43929167D01*
X74092883Y-44272943D01*
X74355673Y-44536192D01*
X74699201Y-44678838D01*
X75071167Y-44679162D01*
X75192569Y-44629000D01*
X87839995Y-44629000D01*
X87840000Y-44629001D01*
X88122484Y-44572810D01*
X88178675Y-44561633D01*
X88465790Y-44369790D01*
X89391834Y-43443745D01*
X89511943Y-43394117D01*
X89775192Y-43131327D01*
X89917838Y-42787799D01*
X89918162Y-42415833D01*
X89776117Y-42072057D01*
X89513327Y-41808808D01*
X89169799Y-41666162D01*
X88797833Y-41665838D01*
X88454057Y-41807883D01*
X88190808Y-42070673D01*
X88140434Y-42191987D01*
X87473420Y-42859000D01*
X75192822Y-42859000D01*
X75072799Y-42809162D01*
X74700833Y-42808838D01*
X74357057Y-42950883D01*
X74093808Y-43213673D01*
X73951162Y-43557201D01*
X73950838Y-43929167D01*
X58812952Y-43929167D01*
X58813224Y-43618205D01*
X58564834Y-43017057D01*
X58105303Y-42556722D01*
X58035000Y-42527530D01*
X58035000Y-39604288D01*
X58235409Y-39470379D01*
X58420000Y-39194119D01*
X58604591Y-39470379D01*
X59102581Y-39803125D01*
X59690000Y-39919970D01*
X60277419Y-39803125D01*
X60775409Y-39470379D01*
X60960000Y-39194119D01*
X61144591Y-39470379D01*
X61642581Y-39803125D01*
X62230000Y-39919970D01*
X62817419Y-39803125D01*
X63315409Y-39470379D01*
X63500000Y-39194119D01*
X63684591Y-39470379D01*
X64182581Y-39803125D01*
X64770000Y-39919970D01*
X65357419Y-39803125D01*
X65855409Y-39470379D01*
X66040000Y-39194119D01*
X66224591Y-39470379D01*
X66722581Y-39803125D01*
X67310000Y-39919970D01*
X67897419Y-39803125D01*
X68395409Y-39470379D01*
X68728155Y-38972389D01*
X68845000Y-38384970D01*
X68845000Y-37815030D01*
X68728155Y-37227611D01*
X68395409Y-36729621D01*
X68243322Y-36628000D01*
X87854420Y-36628000D01*
X118578000Y-67351579D01*
X118578000Y-74171178D01*
X118528162Y-74291201D01*
X118527838Y-74663167D01*
X118669883Y-75006943D01*
X118932673Y-75270192D01*
X119276201Y-75412838D01*
X119648167Y-75413162D01*
X119991943Y-75271117D01*
X120255192Y-75008327D01*
X120397838Y-74664799D01*
X120398162Y-74292833D01*
X120348000Y-74171431D01*
X120348000Y-66985005D01*
X120348001Y-66985000D01*
X120280633Y-66646325D01*
X120270015Y-66630434D01*
X120088790Y-66359210D01*
X120088787Y-66359208D01*
X88846790Y-35117210D01*
X88559675Y-34925367D01*
X88503484Y-34914190D01*
X88221000Y-34857999D01*
X88220995Y-34858000D01*
X46057005Y-34858000D01*
X46057000Y-34857999D01*
X45718325Y-34925367D01*
X45431210Y-35117210D01*
X45431208Y-35117213D01*
X44223296Y-36325124D01*
X43862581Y-36396875D01*
X43364591Y-36729621D01*
X43180000Y-37005881D01*
X42995409Y-36729621D01*
X42497419Y-36396875D01*
X41910000Y-36280030D01*
X41322581Y-36396875D01*
X40824591Y-36729621D01*
X40640000Y-37005881D01*
X40455409Y-36729621D01*
X39957419Y-36396875D01*
X39370000Y-36280030D01*
X38782581Y-36396875D01*
X38284591Y-36729621D01*
X38100000Y-37005881D01*
X37915409Y-36729621D01*
X37417419Y-36396875D01*
X36830000Y-36280030D01*
X36242581Y-36396875D01*
X35744591Y-36729621D01*
X35560000Y-37005881D01*
X35375409Y-36729621D01*
X34877419Y-36396875D01*
X34290000Y-36280030D01*
X33702581Y-36396875D01*
X33204591Y-36729621D01*
X32871845Y-37227611D01*
X32755000Y-37815030D01*
X23820000Y-37815030D01*
X23820000Y-32633686D01*
X23901402Y-32552284D01*
X23901795Y-32552284D01*
X24502943Y-32303894D01*
X24963278Y-31844363D01*
X25212716Y-31243648D01*
X25212718Y-31240968D01*
X26081343Y-30372343D01*
X26156136Y-30260407D01*
X26199819Y-30195030D01*
X32755000Y-30195030D01*
X32755000Y-30764970D01*
X32871845Y-31352389D01*
X33204591Y-31850379D01*
X33702581Y-32183125D01*
X34290000Y-32299970D01*
X34877419Y-32183125D01*
X35375409Y-31850379D01*
X35560000Y-31574119D01*
X35744591Y-31850379D01*
X36242581Y-32183125D01*
X36830000Y-32299970D01*
X37417419Y-32183125D01*
X37915409Y-31850379D01*
X38100000Y-31574119D01*
X38284591Y-31850379D01*
X38782581Y-32183125D01*
X39370000Y-32299970D01*
X39957419Y-32183125D01*
X40455409Y-31850379D01*
X40640000Y-31574119D01*
X40824591Y-31850379D01*
X41322581Y-32183125D01*
X41910000Y-32299970D01*
X42497419Y-32183125D01*
X42995409Y-31850379D01*
X43180000Y-31574119D01*
X43364591Y-31850379D01*
X43862581Y-32183125D01*
X44450000Y-32299970D01*
X45037419Y-32183125D01*
X45535409Y-31850379D01*
X45720000Y-31574119D01*
X45904591Y-31850379D01*
X46402581Y-32183125D01*
X46990000Y-32299970D01*
X47577419Y-32183125D01*
X48075409Y-31850379D01*
X48260000Y-31574119D01*
X48444591Y-31850379D01*
X48942581Y-32183125D01*
X49530000Y-32299970D01*
X50117419Y-32183125D01*
X50615409Y-31850379D01*
X50800000Y-31574119D01*
X50984591Y-31850379D01*
X51482581Y-32183125D01*
X52070000Y-32299970D01*
X52657419Y-32183125D01*
X53155409Y-31850379D01*
X53340000Y-31574119D01*
X53524591Y-31850379D01*
X54022581Y-32183125D01*
X54610000Y-32299970D01*
X55197419Y-32183125D01*
X55695409Y-31850379D01*
X55882801Y-31569926D01*
X56145260Y-31903647D01*
X56670877Y-32198806D01*
X56785260Y-32221036D01*
X57023000Y-32100378D01*
X57023000Y-30607000D01*
X57003000Y-30607000D01*
X57003000Y-30353000D01*
X57023000Y-30353000D01*
X57023000Y-28859622D01*
X57277000Y-28859622D01*
X57277000Y-30353000D01*
X57297000Y-30353000D01*
X57297000Y-30607000D01*
X57277000Y-30607000D01*
X57277000Y-32100378D01*
X57514740Y-32221036D01*
X57629123Y-32198806D01*
X58154740Y-31903647D01*
X58417199Y-31569926D01*
X58604591Y-31850379D01*
X59102581Y-32183125D01*
X59690000Y-32299970D01*
X60277419Y-32183125D01*
X60775409Y-31850379D01*
X60960000Y-31574119D01*
X61144591Y-31850379D01*
X61642581Y-32183125D01*
X62230000Y-32299970D01*
X62817419Y-32183125D01*
X63315409Y-31850379D01*
X63500000Y-31574119D01*
X63684591Y-31850379D01*
X64182581Y-32183125D01*
X64770000Y-32299970D01*
X65357419Y-32183125D01*
X65855409Y-31850379D01*
X66040000Y-31574119D01*
X66224591Y-31850379D01*
X66722581Y-32183125D01*
X67310000Y-32299970D01*
X67897419Y-32183125D01*
X68395409Y-31850379D01*
X68728155Y-31352389D01*
X68845000Y-30764970D01*
X68845000Y-30195030D01*
X68728155Y-29607611D01*
X68395409Y-29109621D01*
X67897419Y-28776875D01*
X67310000Y-28660030D01*
X66722581Y-28776875D01*
X66224591Y-29109621D01*
X66040000Y-29385881D01*
X65855409Y-29109621D01*
X65357419Y-28776875D01*
X64770000Y-28660030D01*
X64182581Y-28776875D01*
X63684591Y-29109621D01*
X63500000Y-29385881D01*
X63315409Y-29109621D01*
X62817419Y-28776875D01*
X62230000Y-28660030D01*
X61642581Y-28776875D01*
X61144591Y-29109621D01*
X60960000Y-29385881D01*
X60775409Y-29109621D01*
X60277419Y-28776875D01*
X59690000Y-28660030D01*
X59102581Y-28776875D01*
X58604591Y-29109621D01*
X58417199Y-29390074D01*
X58154740Y-29056353D01*
X57629123Y-28761194D01*
X57514740Y-28738964D01*
X57277000Y-28859622D01*
X57023000Y-28859622D01*
X56785260Y-28738964D01*
X56670877Y-28761194D01*
X56145260Y-29056353D01*
X55882801Y-29390074D01*
X55695409Y-29109621D01*
X55197419Y-28776875D01*
X54610000Y-28660030D01*
X54022581Y-28776875D01*
X53524591Y-29109621D01*
X53340000Y-29385881D01*
X53155409Y-29109621D01*
X52657419Y-28776875D01*
X52070000Y-28660030D01*
X51482581Y-28776875D01*
X50984591Y-29109621D01*
X50800000Y-29385881D01*
X50615409Y-29109621D01*
X50117419Y-28776875D01*
X49530000Y-28660030D01*
X48942581Y-28776875D01*
X48444591Y-29109621D01*
X48260000Y-29385881D01*
X48075409Y-29109621D01*
X47577419Y-28776875D01*
X46990000Y-28660030D01*
X46402581Y-28776875D01*
X45904591Y-29109621D01*
X45720000Y-29385881D01*
X45535409Y-29109621D01*
X45037419Y-28776875D01*
X44450000Y-28660030D01*
X43862581Y-28776875D01*
X43364591Y-29109621D01*
X43180000Y-29385881D01*
X42995409Y-29109621D01*
X42497419Y-28776875D01*
X41910000Y-28660030D01*
X41322581Y-28776875D01*
X40824591Y-29109621D01*
X40640000Y-29385881D01*
X40455409Y-29109621D01*
X39957419Y-28776875D01*
X39370000Y-28660030D01*
X38782581Y-28776875D01*
X38284591Y-29109621D01*
X38100000Y-29385881D01*
X37915409Y-29109621D01*
X37715000Y-28975712D01*
X37715000Y-27927167D01*
X46645838Y-27927167D01*
X46787883Y-28270943D01*
X47050673Y-28534192D01*
X47394201Y-28676838D01*
X47766167Y-28677162D01*
X47887569Y-28627000D01*
X82520420Y-28627000D01*
X88140255Y-34246834D01*
X88189883Y-34366943D01*
X88452673Y-34630192D01*
X88796201Y-34772838D01*
X89168167Y-34773162D01*
X89511943Y-34631117D01*
X89775192Y-34368327D01*
X89917838Y-34024799D01*
X89918162Y-33652833D01*
X89776117Y-33309057D01*
X89513327Y-33045808D01*
X89392013Y-32995434D01*
X87593448Y-31196868D01*
X105888737Y-31196868D01*
X105999641Y-31474099D01*
X106645593Y-31717323D01*
X107335453Y-31694836D01*
X107868359Y-31474099D01*
X107979263Y-31196868D01*
X106934000Y-30151605D01*
X105888737Y-31196868D01*
X87593448Y-31196868D01*
X84548454Y-28151874D01*
X96186370Y-28151874D01*
X96738600Y-29488372D01*
X97760249Y-30511806D01*
X99095782Y-31066368D01*
X100541874Y-31067630D01*
X101878372Y-30515400D01*
X102711632Y-29683593D01*
X105188677Y-29683593D01*
X105211164Y-30373453D01*
X105431901Y-30906359D01*
X105709132Y-31017263D01*
X106754395Y-29972000D01*
X105709132Y-28926737D01*
X105431901Y-29037641D01*
X105188677Y-29683593D01*
X102711632Y-29683593D01*
X102901806Y-29493751D01*
X103211829Y-28747132D01*
X105888737Y-28747132D01*
X106934000Y-29792395D01*
X106948143Y-29778253D01*
X107127748Y-29957858D01*
X107113605Y-29972000D01*
X108158868Y-31017263D01*
X108273957Y-30971222D01*
X108743918Y-31442004D01*
X109381373Y-31706699D01*
X110071599Y-31707301D01*
X110709515Y-31443719D01*
X111061686Y-31092162D01*
X111410918Y-31442004D01*
X112048373Y-31706699D01*
X112738599Y-31707301D01*
X113376515Y-31443719D01*
X113792297Y-31028662D01*
X114204918Y-31442004D01*
X114842373Y-31706699D01*
X115532599Y-31707301D01*
X116170515Y-31443719D01*
X116586297Y-31028662D01*
X116998918Y-31442004D01*
X117636373Y-31706699D01*
X118326599Y-31707301D01*
X118964515Y-31443719D01*
X119453004Y-30956082D01*
X119717699Y-30318627D01*
X119718301Y-29628401D01*
X119454719Y-28990485D01*
X118967082Y-28501996D01*
X118329627Y-28237301D01*
X118130313Y-28237127D01*
X118165713Y-28151874D01*
X121586370Y-28151874D01*
X122138600Y-29488372D01*
X123160249Y-30511806D01*
X124495782Y-31066368D01*
X125941874Y-31067630D01*
X127278372Y-30515400D01*
X128301806Y-29493751D01*
X128856368Y-28158218D01*
X128857630Y-26712126D01*
X128305400Y-25375628D01*
X127283751Y-24352194D01*
X125948218Y-23797632D01*
X124502126Y-23796370D01*
X123165628Y-24348600D01*
X122142194Y-25370249D01*
X121587632Y-26705782D01*
X121586370Y-28151874D01*
X118165713Y-28151874D01*
X118320699Y-27778627D01*
X118321301Y-27088401D01*
X118057719Y-26450485D01*
X117570082Y-25961996D01*
X116932627Y-25697301D01*
X116242401Y-25696699D01*
X115604485Y-25960281D01*
X115188703Y-26375338D01*
X114776082Y-25961996D01*
X114138627Y-25697301D01*
X113448401Y-25696699D01*
X112810485Y-25960281D01*
X112458314Y-26311838D01*
X112109082Y-25961996D01*
X111471627Y-25697301D01*
X110781401Y-25696699D01*
X110143485Y-25960281D01*
X109727703Y-26375338D01*
X109315082Y-25961996D01*
X108677627Y-25697301D01*
X107987401Y-25696699D01*
X107349485Y-25960281D01*
X106860996Y-26447918D01*
X106596301Y-27085373D01*
X106595699Y-27775599D01*
X106787933Y-28240839D01*
X106532547Y-28249164D01*
X105999641Y-28469901D01*
X105888737Y-28747132D01*
X103211829Y-28747132D01*
X103456368Y-28158218D01*
X103457630Y-26712126D01*
X102905400Y-25375628D01*
X101883751Y-24352194D01*
X100548218Y-23797632D01*
X99102126Y-23796370D01*
X97765628Y-24348600D01*
X96742194Y-25370249D01*
X96187632Y-26705782D01*
X96186370Y-28151874D01*
X84548454Y-28151874D01*
X83512790Y-27116210D01*
X83263750Y-26949808D01*
X83225675Y-26924367D01*
X83169484Y-26913190D01*
X82887000Y-26856999D01*
X82886995Y-26857000D01*
X47887822Y-26857000D01*
X47767799Y-26807162D01*
X47395833Y-26806838D01*
X47052057Y-26948883D01*
X46788808Y-27211673D01*
X46646162Y-27555201D01*
X46645838Y-27927167D01*
X37715000Y-27927167D01*
X37715000Y-27048580D01*
X37914579Y-26849000D01*
X40849995Y-26849000D01*
X40850000Y-26849001D01*
X41132484Y-26792810D01*
X41188675Y-26781633D01*
X41475790Y-26589790D01*
X45075787Y-22989792D01*
X45075790Y-22989790D01*
X45267633Y-22702675D01*
X45292895Y-22575674D01*
X45335001Y-22364000D01*
X45335000Y-22363995D01*
X45335000Y-16660710D01*
X45383995Y-16640466D01*
X45720179Y-16304868D01*
X46053563Y-16638834D01*
X46660155Y-16890713D01*
X47316963Y-16891286D01*
X47923995Y-16640466D01*
X48388834Y-16176437D01*
X48640713Y-15569845D01*
X48641286Y-14913037D01*
X48390466Y-14306005D01*
X47926437Y-13841166D01*
X47319845Y-13589287D01*
X46663037Y-13588714D01*
X46056005Y-13839534D01*
X45719821Y-14175132D01*
X45386437Y-13841166D01*
X44779845Y-13589287D01*
X44123037Y-13588714D01*
X43516005Y-13839534D01*
X43179821Y-14175132D01*
X42846437Y-13841166D01*
X42239845Y-13589287D01*
X41583037Y-13588714D01*
X40976005Y-13839534D01*
X40552435Y-14262366D01*
X40534107Y-14255498D01*
X39549605Y-15240000D01*
X40534107Y-16224502D01*
X40552917Y-16217453D01*
X40973563Y-16638834D01*
X41025000Y-16660193D01*
X41025000Y-21870421D01*
X39848420Y-23047000D01*
X36278005Y-23047000D01*
X36278000Y-23046999D01*
X35939326Y-23114366D01*
X35939324Y-23114367D01*
X35939325Y-23114367D01*
X35652210Y-23306210D01*
X35652208Y-23306213D01*
X33664210Y-25294210D01*
X33472367Y-25581325D01*
X33472367Y-25581326D01*
X33404999Y-25920000D01*
X33405000Y-25920005D01*
X33405000Y-28975712D01*
X33204591Y-29109621D01*
X32871845Y-29607611D01*
X32755000Y-30195030D01*
X26199819Y-30195030D01*
X26381573Y-29923017D01*
X26487000Y-29393000D01*
X26487000Y-23306139D01*
X26569441Y-23253090D01*
X26714431Y-23040890D01*
X26765440Y-22789000D01*
X26765440Y-20757000D01*
X26721162Y-20521683D01*
X26582090Y-20305559D01*
X26369890Y-20160569D01*
X26118000Y-20109560D01*
X24086000Y-20109560D01*
X23850683Y-20153838D01*
X23634559Y-20292910D01*
X23489569Y-20505110D01*
X23438560Y-20757000D01*
X23438560Y-22789000D01*
X23482838Y-23024317D01*
X23621910Y-23240441D01*
X23717000Y-23305413D01*
X23717000Y-28819314D01*
X23254598Y-29281716D01*
X22653057Y-29530106D01*
X22192722Y-29989637D01*
X21943284Y-30590352D01*
X21943282Y-30593032D01*
X13962657Y-38573657D01*
X13662427Y-39022983D01*
X13557000Y-39553000D01*
X13112000Y-39553000D01*
X13112000Y-32069532D01*
X17605073Y-32069532D01*
X17703736Y-32336387D01*
X18313461Y-32562908D01*
X18963460Y-32538856D01*
X19452264Y-32336387D01*
X19550927Y-32069532D01*
X18578000Y-31096605D01*
X17605073Y-32069532D01*
X13112000Y-32069532D01*
X13112000Y-30652461D01*
X16932092Y-30652461D01*
X16956144Y-31302460D01*
X17158613Y-31791264D01*
X17425468Y-31889927D01*
X18398395Y-30917000D01*
X18757605Y-30917000D01*
X19730532Y-31889927D01*
X19997387Y-31791264D01*
X20223908Y-31181539D01*
X20199856Y-30531540D01*
X19997387Y-30042736D01*
X19730532Y-29944073D01*
X18757605Y-30917000D01*
X18398395Y-30917000D01*
X17425468Y-29944073D01*
X17158613Y-30042736D01*
X16932092Y-30652461D01*
X13112000Y-30652461D01*
X13112000Y-29764468D01*
X17605073Y-29764468D01*
X18578000Y-30737395D01*
X19550927Y-29764468D01*
X19452264Y-29497613D01*
X18842539Y-29271092D01*
X18192540Y-29295144D01*
X17703736Y-29497613D01*
X17605073Y-29764468D01*
X13112000Y-29764468D01*
X13112000Y-22099963D01*
X15830714Y-22099963D01*
X16081534Y-22706995D01*
X16545563Y-23171834D01*
X17152155Y-23423713D01*
X17808963Y-23424286D01*
X18415995Y-23173466D01*
X18880834Y-22709437D01*
X19132713Y-22102845D01*
X19133286Y-21446037D01*
X18882466Y-20839005D01*
X18867000Y-20823512D01*
X18867000Y-16889138D01*
X19006690Y-16947000D01*
X19863250Y-16947000D01*
X20022000Y-16788250D01*
X20022000Y-15423000D01*
X20276000Y-15423000D01*
X20276000Y-16788250D01*
X20434750Y-16947000D01*
X21291310Y-16947000D01*
X21524699Y-16850327D01*
X21703327Y-16671698D01*
X21800000Y-16438309D01*
X21800000Y-15581750D01*
X21641250Y-15423000D01*
X20276000Y-15423000D01*
X20022000Y-15423000D01*
X20002000Y-15423000D01*
X20002000Y-15207655D01*
X32639000Y-15207655D01*
X32639000Y-15272345D01*
X32764675Y-15904155D01*
X33122567Y-16439778D01*
X33658190Y-16797670D01*
X34290000Y-16923345D01*
X34921810Y-16797670D01*
X35457433Y-16439778D01*
X35552630Y-16297306D01*
X35893563Y-16638834D01*
X36500155Y-16890713D01*
X37156963Y-16891286D01*
X37763995Y-16640466D01*
X38000766Y-16404107D01*
X38385498Y-16404107D01*
X38486120Y-16672622D01*
X39101642Y-16901816D01*
X39758019Y-16878014D01*
X40253880Y-16672622D01*
X40354502Y-16404107D01*
X39370000Y-15419605D01*
X38385498Y-16404107D01*
X38000766Y-16404107D01*
X38187565Y-16217634D01*
X38205893Y-16224502D01*
X39190395Y-15240000D01*
X38205893Y-14255498D01*
X38187083Y-14262547D01*
X38000755Y-14075893D01*
X38385498Y-14075893D01*
X39370000Y-15060395D01*
X40354502Y-14075893D01*
X40253880Y-13807378D01*
X39638358Y-13578184D01*
X38981981Y-13601986D01*
X38486120Y-13807378D01*
X38385498Y-14075893D01*
X38000755Y-14075893D01*
X37766437Y-13841166D01*
X37159845Y-13589287D01*
X36503037Y-13588714D01*
X35896005Y-13839534D01*
X35552476Y-14182464D01*
X35457433Y-14040222D01*
X34921810Y-13682330D01*
X34290000Y-13556655D01*
X33658190Y-13682330D01*
X33122567Y-14040222D01*
X32764675Y-14575845D01*
X32639000Y-15207655D01*
X20002000Y-15207655D01*
X20002000Y-15169000D01*
X20022000Y-15169000D01*
X20022000Y-13803750D01*
X20276000Y-13803750D01*
X20276000Y-15169000D01*
X21641250Y-15169000D01*
X21800000Y-15010250D01*
X21800000Y-14153691D01*
X21703327Y-13920302D01*
X21524699Y-13741673D01*
X21291310Y-13645000D01*
X20434750Y-13645000D01*
X20276000Y-13803750D01*
X20022000Y-13803750D01*
X19863250Y-13645000D01*
X19006690Y-13645000D01*
X18773301Y-13741673D01*
X18594673Y-13920302D01*
X18577001Y-13962966D01*
X18240810Y-13738330D01*
X17609000Y-13612655D01*
X16977190Y-13738330D01*
X16441567Y-14096222D01*
X16083675Y-14631845D01*
X15958000Y-15263655D01*
X15958000Y-15328345D01*
X16083675Y-15960155D01*
X16097000Y-15980097D01*
X16097000Y-20822753D01*
X16083166Y-20836563D01*
X15831287Y-21443155D01*
X15830714Y-22099963D01*
X13112000Y-22099963D01*
X13112000Y-13085000D01*
X132342000Y-13085000D01*
X132342000Y-129013000D01*
M02*
