G04 #@! TF.FileFunction,Soldermask,Top*
%FSLAX46Y46*%
G04 Gerber Fmt 4.6, Leading zero omitted, Abs format (unit mm)*
G04 Created by KiCad (PCBNEW 4.0.2-stable) date 2021 June 24, Thursday 17:58:14*
%MOMM*%
G01*
G04 APERTURE LIST*
%ADD10C,0.100000*%
%ADD11R,1.800000X2.200000*%
%ADD12R,1.900000X2.200000*%
%ADD13R,2.200000X1.800000*%
%ADD14R,1.110000X1.420000*%
%ADD15R,3.248000X1.851000*%
%ADD16R,6.296000X6.296000*%
%ADD17R,1.851000X3.248000*%
%ADD18R,1.950000X0.650000*%
%ADD19R,1.750000X0.800000*%
%ADD20R,0.800000X1.750000*%
%ADD21R,0.650000X1.650000*%
%ADD22R,2.200000X1.900000*%
%ADD23O,2.232000X2.232000*%
%ADD24C,2.232000*%
%ADD25R,2.232000X2.232000*%
%ADD26C,2.200000*%
%ADD27R,1.100000X1.400000*%
%ADD28C,2.105000*%
%ADD29C,1.700000*%
%ADD30R,2.699360X2.699360*%
%ADD31C,2.699360*%
%ADD32O,2.000000X3.800000*%
%ADD33C,4.000000*%
%ADD34R,1.343000X0.708000*%
%ADD35R,0.962000X2.740000*%
%ADD36R,4.010000X0.962000*%
%ADD37R,2.740000X0.962000*%
%ADD38C,1.978000*%
%ADD39O,2.000000X2.500000*%
%ADD40O,5.200000X6.500000*%
%ADD41O,2.300000X2.700000*%
%ADD42C,2.800000*%
%ADD43O,2.400000X2.200000*%
%ADD44O,2.200000X2.400000*%
%ADD45C,5.788000*%
%ADD46C,2.400000*%
G04 APERTURE END LIST*
D10*
D11*
X78105000Y-61055000D03*
X78105000Y-57055000D03*
D12*
X81534000Y-82518000D03*
X81534000Y-78518000D03*
D11*
X91694000Y-82518000D03*
X91694000Y-78518000D03*
D13*
X43021000Y-109347000D03*
X39021000Y-109347000D03*
D11*
X35941000Y-90710000D03*
X35941000Y-94710000D03*
D13*
X31845000Y-97917000D03*
X27845000Y-97917000D03*
D11*
X95377000Y-63151000D03*
X95377000Y-67151000D03*
X77470000Y-78518000D03*
X77470000Y-82518000D03*
D13*
X77502000Y-85217000D03*
X81502000Y-85217000D03*
X77502000Y-96647000D03*
X81502000Y-96647000D03*
X77502000Y-108077000D03*
X81502000Y-108077000D03*
D11*
X45930000Y-59651000D03*
X45930000Y-63651000D03*
D13*
X103600000Y-55626000D03*
X99600000Y-55626000D03*
X56991000Y-112395000D03*
X52991000Y-112395000D03*
D11*
X39370000Y-25876000D03*
X39370000Y-21876000D03*
D13*
X60865000Y-112395000D03*
X64865000Y-112395000D03*
X68612000Y-43815000D03*
X72612000Y-43815000D03*
X71977000Y-98552000D03*
X67977000Y-98552000D03*
D11*
X57277000Y-98457000D03*
X57277000Y-102457000D03*
X78105000Y-66072000D03*
X78105000Y-70072000D03*
X91821000Y-56801000D03*
X91821000Y-60801000D03*
X33655000Y-112109000D03*
X33655000Y-108109000D03*
X37465000Y-102013000D03*
X37465000Y-106013000D03*
D13*
X42005000Y-97917000D03*
X38005000Y-97917000D03*
X19145000Y-112395000D03*
X15145000Y-112395000D03*
D11*
X117729000Y-72041000D03*
X117729000Y-76041000D03*
D13*
X15399000Y-102489000D03*
X19399000Y-102489000D03*
X120936000Y-72136000D03*
X124936000Y-72136000D03*
D11*
X27305000Y-105061000D03*
X27305000Y-109061000D03*
X130175000Y-79153000D03*
X130175000Y-83153000D03*
X130175000Y-76041000D03*
X130175000Y-72041000D03*
X117729000Y-68167000D03*
X117729000Y-64167000D03*
D13*
X27273000Y-102489000D03*
X23273000Y-102489000D03*
X128873000Y-86233000D03*
X124873000Y-86233000D03*
X91662000Y-108077000D03*
X87662000Y-108077000D03*
X91662000Y-96647000D03*
X87662000Y-96647000D03*
X91662000Y-85217000D03*
X87662000Y-85217000D03*
X111919000Y-110617000D03*
X115919000Y-110617000D03*
X111919000Y-97663000D03*
X115919000Y-97663000D03*
X97187000Y-98552000D03*
X101187000Y-98552000D03*
D11*
X108331000Y-112173000D03*
X108331000Y-116173000D03*
D14*
X49133000Y-25908000D03*
X45863000Y-25908000D03*
X31595000Y-25964000D03*
X34865000Y-25964000D03*
D15*
X49403000Y-59309000D03*
D16*
X55753000Y-61595000D03*
D15*
X49403000Y-63881000D03*
D17*
X103886000Y-59182000D03*
D16*
X101600000Y-65532000D03*
D17*
X99314000Y-59182000D03*
D18*
X80982000Y-59021000D03*
X80982000Y-59671000D03*
X80982000Y-60321000D03*
X80982000Y-60971000D03*
X80982000Y-61621000D03*
X80982000Y-62271000D03*
X80982000Y-62921000D03*
X80982000Y-63571000D03*
X80982000Y-64221000D03*
X80982000Y-64871000D03*
X80982000Y-65521000D03*
X80982000Y-66171000D03*
X80982000Y-66821000D03*
X80982000Y-67471000D03*
X88182000Y-67471000D03*
X88182000Y-66821000D03*
X88182000Y-66171000D03*
X88182000Y-65521000D03*
X88182000Y-64871000D03*
X88182000Y-64221000D03*
X88182000Y-63571000D03*
X88182000Y-62921000D03*
X88182000Y-62271000D03*
X88182000Y-61621000D03*
X88182000Y-60971000D03*
X88182000Y-60321000D03*
X88182000Y-59671000D03*
X88182000Y-59021000D03*
D19*
X23401000Y-108966000D03*
X23401000Y-107696000D03*
X23401000Y-106426000D03*
X23401000Y-105156000D03*
X18001000Y-105156000D03*
X18001000Y-106426000D03*
X18001000Y-107696000D03*
X18001000Y-108966000D03*
D20*
X124841000Y-76421000D03*
X123571000Y-76421000D03*
X122301000Y-76421000D03*
X121031000Y-76421000D03*
X121031000Y-81821000D03*
X122301000Y-81821000D03*
X123571000Y-81821000D03*
X124841000Y-81821000D03*
D21*
X41824000Y-105197000D03*
X42474000Y-105197000D03*
X43124000Y-105197000D03*
X43774000Y-105197000D03*
X43774000Y-100797000D03*
X43124000Y-100797000D03*
X42474000Y-100797000D03*
X41824000Y-100797000D03*
D22*
X106096000Y-38283000D03*
X102096000Y-38283000D03*
X102096000Y-34981000D03*
X106096000Y-34981000D03*
D12*
X29420000Y-31076000D03*
X29420000Y-35076000D03*
X87630000Y-78518000D03*
X87630000Y-82518000D03*
D22*
X74136000Y-68072000D03*
X70136000Y-68072000D03*
D12*
X91821000Y-64929000D03*
X91821000Y-68929000D03*
D22*
X98520000Y-70866000D03*
X94520000Y-70866000D03*
X56991000Y-109347000D03*
X52991000Y-109347000D03*
X56991000Y-106045000D03*
X52991000Y-106045000D03*
D12*
X53975000Y-102457000D03*
X53975000Y-98457000D03*
D22*
X67977000Y-101727000D03*
X71977000Y-101727000D03*
X67977000Y-104902000D03*
X71977000Y-104902000D03*
X71977000Y-108077000D03*
X67977000Y-108077000D03*
D12*
X60833000Y-104553000D03*
X60833000Y-108553000D03*
D22*
X106096000Y-28377000D03*
X102096000Y-28377000D03*
X102096000Y-31679000D03*
X106096000Y-31679000D03*
X84995000Y-38354000D03*
X88995000Y-38354000D03*
D12*
X72390000Y-26575000D03*
X72390000Y-30575000D03*
X75438000Y-26575000D03*
X75438000Y-30575000D03*
X67310000Y-23146000D03*
X67310000Y-27146000D03*
X64770000Y-27146000D03*
X64770000Y-23146000D03*
X77089000Y-50895000D03*
X77089000Y-46895000D03*
X80137000Y-46895000D03*
X80137000Y-50895000D03*
D22*
X81185000Y-41656000D03*
X85185000Y-41656000D03*
D12*
X84411000Y-50824000D03*
X84411000Y-46824000D03*
D22*
X43021000Y-112395000D03*
X39021000Y-112395000D03*
D12*
X33655000Y-100743000D03*
X33655000Y-104743000D03*
D22*
X18955000Y-99568000D03*
X22955000Y-99568000D03*
X26003000Y-112395000D03*
X22003000Y-112395000D03*
X126587000Y-110617000D03*
X122587000Y-110617000D03*
X124873000Y-90043000D03*
X128873000Y-90043000D03*
D12*
X127381000Y-79216000D03*
X127381000Y-75216000D03*
X119507000Y-106585000D03*
X119507000Y-110585000D03*
X119507000Y-94139000D03*
X119507000Y-98139000D03*
D22*
X111919000Y-107315000D03*
X115919000Y-107315000D03*
X115919000Y-100711000D03*
X111919000Y-100711000D03*
X101187000Y-101727000D03*
X97187000Y-101727000D03*
X97187000Y-108077000D03*
X101187000Y-108077000D03*
X111919000Y-104013000D03*
X115919000Y-104013000D03*
X101187000Y-104902000D03*
X97187000Y-104902000D03*
D12*
X108331000Y-108045000D03*
X108331000Y-104045000D03*
D23*
X34290000Y-15240000D03*
D24*
X36830000Y-15240000D03*
X39370000Y-15240000D03*
X41910000Y-15240000D03*
X44450000Y-15240000D03*
X46990000Y-15240000D03*
D25*
X20149000Y-15296000D03*
D23*
X17609000Y-15296000D03*
D15*
X32258000Y-94996000D03*
D16*
X25908000Y-92710000D03*
D15*
X32258000Y-90424000D03*
X121285000Y-63881000D03*
D16*
X127635000Y-66167000D03*
D15*
X121285000Y-68453000D03*
D26*
X77597000Y-93472000D03*
X77597000Y-88392000D03*
X77597000Y-104902000D03*
X77597000Y-99822000D03*
D27*
X60833000Y-101049000D03*
X60833000Y-98849000D03*
D28*
X91567000Y-104902000D03*
X91567000Y-99822000D03*
X91567000Y-93472000D03*
X91567000Y-88392000D03*
D27*
X108331000Y-98849000D03*
X108331000Y-101049000D03*
D29*
X57177940Y-43942000D03*
X52296060Y-43942000D03*
D30*
X65024000Y-48133000D03*
D31*
X65024000Y-63373000D03*
X72644000Y-63373000D03*
X72644000Y-48133000D03*
D32*
X19895000Y-43998000D03*
X22435000Y-43998000D03*
X17355000Y-43998000D03*
D33*
X19895000Y-60762000D03*
D34*
X80835500Y-29654500D03*
X80835500Y-27114500D03*
X80835500Y-25844500D03*
X80835500Y-24574500D03*
X80835500Y-23304500D03*
X80835500Y-22034500D03*
X80835500Y-20764500D03*
X87185500Y-20764500D03*
X87185500Y-22034500D03*
X87185500Y-23304500D03*
X87185500Y-24574500D03*
X87185500Y-25844500D03*
X87185500Y-27114500D03*
X87185500Y-28384500D03*
X87185500Y-29654500D03*
X80835500Y-28384500D03*
D13*
X87789000Y-72898000D03*
X91789000Y-72898000D03*
D11*
X78359000Y-35274000D03*
X78359000Y-31274000D03*
X99778000Y-118198000D03*
X99778000Y-122198000D03*
D13*
X86582000Y-32639000D03*
X82582000Y-32639000D03*
D11*
X89789000Y-28035000D03*
X89789000Y-24035000D03*
D13*
X85459000Y-17582000D03*
X89459000Y-17582000D03*
X84804000Y-35433000D03*
X80804000Y-35433000D03*
D35*
X63964000Y-98100000D03*
X63964000Y-93020000D03*
D36*
X67139000Y-95560000D03*
D37*
X61424000Y-95560000D03*
D35*
X104985000Y-93020000D03*
X104985000Y-98100000D03*
D36*
X101810000Y-95560000D03*
D37*
X107525000Y-95560000D03*
D38*
X52280000Y-51491000D03*
X52280000Y-48991000D03*
X57233000Y-48951000D03*
X57233000Y-51451000D03*
D25*
X25102000Y-21773000D03*
D24*
X17482000Y-21773000D03*
D39*
X34290000Y-38100000D03*
X36830000Y-38100000D03*
X39370000Y-38100000D03*
X41910000Y-38100000D03*
X44450000Y-38100000D03*
X46990000Y-38100000D03*
X49530000Y-38100000D03*
X52070000Y-38100000D03*
X54610000Y-38100000D03*
X57150000Y-38100000D03*
X59690000Y-38100000D03*
X62230000Y-38100000D03*
X64770000Y-38100000D03*
X67310000Y-38100000D03*
X67310000Y-30480000D03*
X64770000Y-30480000D03*
X62230000Y-30480000D03*
X59690000Y-30480000D03*
X57150000Y-30480000D03*
X54610000Y-30480000D03*
X52070000Y-30480000D03*
X49530000Y-30480000D03*
X46990000Y-30480000D03*
X44450000Y-30480000D03*
X41910000Y-30480000D03*
X39370000Y-30480000D03*
X36830000Y-30480000D03*
X34290000Y-30480000D03*
D26*
X23578000Y-30917000D03*
X18578000Y-30917000D03*
D40*
X26306780Y-120802400D03*
X16108680Y-120802400D03*
D41*
X21209000Y-116537740D03*
X23708360Y-116537740D03*
D40*
X128414780Y-120802400D03*
X118216680Y-120802400D03*
D41*
X123317000Y-116537740D03*
X125816360Y-116537740D03*
D40*
X44042780Y-120731400D03*
X33844680Y-120731400D03*
D41*
X38945000Y-116466740D03*
X41444360Y-116466740D03*
D40*
X64660780Y-120802400D03*
X54462680Y-120802400D03*
D41*
X59563000Y-116537740D03*
X62062360Y-116537740D03*
D42*
X129872740Y-107210860D03*
X129872740Y-94211140D03*
X123873260Y-107210860D03*
X123873260Y-94211140D03*
D43*
X96603000Y-119690000D03*
D44*
X94063000Y-117150000D03*
X94063000Y-122230000D03*
D45*
X125178000Y-19487000D03*
X99778000Y-19487000D03*
D46*
X117939000Y-22027000D03*
X115145000Y-22027000D03*
X112351000Y-22027000D03*
X109684000Y-22027000D03*
X106890000Y-22027000D03*
X108287000Y-19487000D03*
X111081000Y-19487000D03*
X113748000Y-19487000D03*
X116542000Y-19487000D03*
M02*
