M48
INCH,TZ
T1C0.016
T2C0.031
T3C0.032
T4C0.032
T5C0.039
T6C0.039
T7C0.040
T8C0.087
T9C0.120
%
G90
G05
T1
X19633Y-40222
X22633Y-32022
X24283Y-17872
X35033Y-24172
X35383Y-34522
X35600Y-32950
X37300Y-29400
X37963Y-34537
X40400Y-29400
X40583Y-20272
X40583Y-23722
X41050Y-32500
X41700Y-36350
X42400Y-33400
X43733Y-30272
X50783Y-33772
X52583Y-36272
X53183Y-34622
X56133Y-39672
X56183Y-35322
X56233Y-34622
T2
X12433Y-15522
X12483Y-12972
X12864Y-19122
X13483Y-12972
X14833Y-19122
X15433Y-15522
X19050Y-12950
X19050Y-18950
X19050Y-21950
X20050Y-12950
X20050Y-18950
X20050Y-21950
X21050Y-12950
X21050Y-18950
X21050Y-21950
X22050Y-12950
X22050Y-18950
X22050Y-21950
X23050Y-12950
X23050Y-18950
X23050Y-21950
X24050Y-12950
X24050Y-18950
X24050Y-21950
X25050Y-18950
X25050Y-21950
X26050Y-18950
X26050Y-21950
X26133Y-27222
X27050Y-18950
X27050Y-21950
X28050Y-18950
X28050Y-21950
X28083Y-26222
X29050Y-18950
X29050Y-21950
X30050Y-18950
X30050Y-21950
X31050Y-18950
X31050Y-21950
X32050Y-18950
X32050Y-21950
X54319Y-44041
X54319Y-49159
X56681Y-44041
X56681Y-49159
T3
X26133Y-26238
X26139Y-24250
X28061Y-24250
X28083Y-27206
T4
X36100Y-41750
X36100Y-43750
X36100Y-46250
X36100Y-48250
X41600Y-41750
X41600Y-43750
X41600Y-46250
X41600Y-48250
T5
X12383Y-24272
X13383Y-24272
X13900Y-52831
X14383Y-24272
X14884Y-52831
X20900Y-52831
X21884Y-52831
X29000Y-52831
X29984Y-52831
X42600Y-53100
X42600Y-54100
X42600Y-55100
X54100Y-52831
X55084Y-52831
T6
X31150Y-25900
X31150Y-31900
X34150Y-25900
X34150Y-31900
T7
X47650Y-18750
X48200Y-17750
X48750Y-18750
X49300Y-17750
X49800Y-18750
X50350Y-17750
X50900Y-18750
X51450Y-17750
X52000Y-18750
T8
X11892Y-54510
X15907Y-54510
X18892Y-54510
X22907Y-54510
X26992Y-54510
X31007Y-54510
X52092Y-54510
X56107Y-54510
T9
X44850Y-17750
X54850Y-17750
T0
M30
