G04 #@! TF.FileFunction,Copper,L2,Bot,Signal*
%FSLAX46Y46*%
G04 Gerber Fmt 4.6, Leading zero omitted, Abs format (unit mm)*
G04 Created by KiCad (PCBNEW 4.0.2-stable) date 2021 June 24, Thursday 19:16:41*
%MOMM*%
G01*
G04 APERTURE LIST*
%ADD10C,0.100000*%
%ADD11O,2.032000X2.032000*%
%ADD12C,2.032000*%
%ADD13R,2.032000X2.032000*%
%ADD14C,2.000000*%
%ADD15C,1.905000*%
%ADD16C,1.500000*%
%ADD17R,2.499360X2.499360*%
%ADD18C,2.499360*%
%ADD19O,1.800000X3.600000*%
%ADD20C,1.778000*%
%ADD21O,1.800000X2.300000*%
%ADD22O,5.000000X5.000000*%
%ADD23O,2.100000X2.500000*%
%ADD24C,2.600000*%
%ADD25O,2.200000X2.000000*%
%ADD26O,2.000000X2.200000*%
%ADD27C,5.588000*%
%ADD28C,2.200000*%
%ADD29C,0.600000*%
%ADD30C,1.000000*%
%ADD31C,0.500000*%
%ADD32C,1.500000*%
%ADD33C,0.400000*%
%ADD34C,0.750000*%
%ADD35C,0.254000*%
G04 APERTURE END LIST*
D10*
D11*
X34290000Y-15240000D03*
D12*
X36830000Y-15240000D03*
X39370000Y-15240000D03*
X41910000Y-15240000D03*
X44450000Y-15240000D03*
X46990000Y-15240000D03*
D13*
X20149000Y-15296000D03*
D11*
X17609000Y-15296000D03*
D14*
X77597000Y-93472000D03*
X77597000Y-88392000D03*
X77597000Y-104902000D03*
X77597000Y-99822000D03*
D15*
X91567000Y-104902000D03*
X91567000Y-99822000D03*
X91567000Y-93472000D03*
X91567000Y-88392000D03*
D16*
X57177940Y-43942000D03*
X52296060Y-43942000D03*
D17*
X65024000Y-48133000D03*
D18*
X65024000Y-63373000D03*
X72644000Y-63373000D03*
X72644000Y-48133000D03*
D19*
X22562000Y-43998000D03*
X25102000Y-43998000D03*
X20022000Y-43998000D03*
D20*
X52280000Y-51491000D03*
X52280000Y-48991000D03*
X57233000Y-48951000D03*
X57233000Y-51451000D03*
D12*
X25102000Y-21773000D03*
X17482000Y-21773000D03*
D21*
X34290000Y-38100000D03*
X36830000Y-38100000D03*
X39370000Y-38100000D03*
X41910000Y-38100000D03*
X44450000Y-38100000D03*
X46990000Y-38100000D03*
X49530000Y-38100000D03*
X52070000Y-38100000D03*
X54610000Y-38100000D03*
X57150000Y-38100000D03*
X59690000Y-38100000D03*
X62230000Y-38100000D03*
X64770000Y-38100000D03*
X67310000Y-38100000D03*
X67310000Y-30480000D03*
X64770000Y-30480000D03*
X62230000Y-30480000D03*
X59690000Y-30480000D03*
X57150000Y-30480000D03*
X54610000Y-30480000D03*
X52070000Y-30480000D03*
X49530000Y-30480000D03*
X46990000Y-30480000D03*
X44450000Y-30480000D03*
X41910000Y-30480000D03*
X39370000Y-30480000D03*
X36830000Y-30480000D03*
X34290000Y-30480000D03*
D14*
X23578000Y-30917000D03*
X18578000Y-30917000D03*
D22*
X27703780Y-120802400D03*
X17505680Y-120802400D03*
D23*
X22606000Y-116537740D03*
X25105360Y-116537740D03*
D22*
X128414780Y-120802400D03*
X118216680Y-120802400D03*
D23*
X123317000Y-116537740D03*
X125816360Y-116537740D03*
D22*
X44042780Y-120731400D03*
X33844680Y-120731400D03*
D23*
X38945000Y-116466740D03*
X41444360Y-116466740D03*
D22*
X64660780Y-120802400D03*
X54462680Y-120802400D03*
D23*
X59563000Y-116537740D03*
X62062360Y-116537740D03*
D24*
X129110740Y-107210860D03*
X129110740Y-94211140D03*
X123111260Y-107210860D03*
X123111260Y-94211140D03*
D25*
X96603000Y-119690000D03*
D26*
X94063000Y-117150000D03*
X94063000Y-122230000D03*
D27*
X125178000Y-19487000D03*
X99778000Y-19487000D03*
D28*
X117939000Y-22027000D03*
X115145000Y-22027000D03*
X112351000Y-22027000D03*
X109684000Y-22027000D03*
X106890000Y-22027000D03*
X108287000Y-19487000D03*
X111081000Y-19487000D03*
X113748000Y-19487000D03*
X116542000Y-19487000D03*
D29*
X88348000Y-70160000D03*
X80982000Y-70160000D03*
X88182000Y-57753000D03*
X80982000Y-57714000D03*
X128480000Y-83114000D03*
X128607000Y-72065000D03*
X128734000Y-70287000D03*
X120987000Y-70287000D03*
X93599000Y-67183000D03*
X76327000Y-66040000D03*
X96857000Y-60000000D03*
X114129000Y-68255000D03*
X35897000Y-83495000D03*
X41993000Y-63683000D03*
X119463000Y-74478000D03*
X118701000Y-38283000D03*
X121368000Y-33965000D03*
X111462000Y-28377000D03*
X108922000Y-31679000D03*
X47581000Y-27742000D03*
X88983000Y-33838000D03*
X74886000Y-43744000D03*
X88983000Y-42601000D03*
D30*
X80982000Y-70160000D02*
X88348000Y-70160000D01*
X88143000Y-57714000D02*
X80982000Y-57714000D01*
X88182000Y-57753000D02*
X88143000Y-57714000D01*
D31*
X128480000Y-72192000D02*
X128480000Y-83114000D01*
X128607000Y-72065000D02*
X128480000Y-72192000D01*
X120987000Y-70287000D02*
X128734000Y-70287000D01*
X52320000Y-51451000D02*
X52280000Y-51491000D01*
D32*
X51010000Y-91877000D02*
X23578000Y-91877000D01*
X25102000Y-39934000D02*
X19387000Y-39934000D01*
X17355000Y-41966000D02*
X17355000Y-85654000D01*
X19387000Y-39934000D02*
X17355000Y-41966000D01*
X17355000Y-85654000D02*
X17355000Y-85527000D01*
X17355000Y-85527000D02*
X17355000Y-85654000D01*
X25102000Y-43998000D02*
X25102000Y-39934000D01*
X25102000Y-39934000D02*
X25102000Y-32441000D01*
X25102000Y-32441000D02*
X23578000Y-30917000D01*
X23578000Y-91877000D02*
X17355000Y-85654000D01*
X69425000Y-110292000D02*
X51010000Y-91877000D01*
X78061000Y-110292000D02*
X69425000Y-110292000D01*
X90070000Y-122301000D02*
X78061000Y-110292000D01*
X90070000Y-122301000D02*
X94107000Y-122301000D01*
X25102000Y-21773000D02*
X25102000Y-29393000D01*
X25102000Y-29393000D02*
X23578000Y-30917000D01*
D31*
X52296060Y-43942000D02*
X52296060Y-48974940D01*
X52296060Y-48974940D02*
X52280000Y-48991000D01*
X54610000Y-38100000D02*
X54610000Y-41628060D01*
X54610000Y-41628060D02*
X52296060Y-43942000D01*
X57177940Y-43942000D02*
X57177940Y-48895940D01*
X57177940Y-48895940D02*
X57233000Y-48951000D01*
X57150000Y-38100000D02*
X57150000Y-43914060D01*
X57150000Y-43914060D02*
X57177940Y-43942000D01*
D33*
X90424000Y-64008000D02*
X93599000Y-67183000D01*
X78359000Y-64008000D02*
X90424000Y-64008000D01*
X76327000Y-66040000D02*
X78359000Y-64008000D01*
D30*
X20022000Y-43998000D02*
X20022000Y-46157000D01*
X20022000Y-46157000D02*
X37611500Y-63746500D01*
X96857000Y-60000000D02*
X96857000Y-73970000D01*
X105112000Y-73970000D02*
X110827000Y-68255000D01*
X110827000Y-68255000D02*
X114129000Y-68255000D01*
X96857000Y-73970000D02*
X105112000Y-73970000D01*
X51391000Y-63683000D02*
X61678000Y-73970000D01*
X41993000Y-63683000D02*
X51391000Y-63683000D01*
X61678000Y-73970000D02*
X96857000Y-73970000D01*
X35897000Y-83495000D02*
X35897000Y-65461000D01*
X35897000Y-65461000D02*
X37611500Y-63746500D01*
X37611500Y-63746500D02*
X37675000Y-63683000D01*
X37675000Y-63683000D02*
X41993000Y-63683000D01*
D31*
X44450000Y-38100000D02*
X44450000Y-37350000D01*
X44450000Y-37350000D02*
X46057000Y-35743000D01*
X46057000Y-35743000D02*
X88221000Y-35743000D01*
X88221000Y-35743000D02*
X119463000Y-66985000D01*
X119463000Y-66985000D02*
X119463000Y-74478000D01*
X17609000Y-15296000D02*
X17482000Y-15423000D01*
D32*
X17482000Y-15423000D02*
X17482000Y-21773000D01*
D31*
X36830000Y-30480000D02*
X36830000Y-26682000D01*
X44450000Y-22364000D02*
X44450000Y-15240000D01*
X40850000Y-25964000D02*
X44450000Y-22364000D01*
X37548000Y-25964000D02*
X40850000Y-25964000D01*
X36830000Y-26682000D02*
X37548000Y-25964000D01*
X34290000Y-30480000D02*
X34290000Y-25920000D01*
X41910000Y-22237000D02*
X41910000Y-15240000D01*
X40215000Y-23932000D02*
X41910000Y-22237000D01*
X36278000Y-23932000D02*
X40215000Y-23932000D01*
X34290000Y-25920000D02*
X36278000Y-23932000D01*
D34*
X113748000Y-18217000D02*
X113748000Y-19487000D01*
X114383000Y-17582000D02*
X113748000Y-18217000D01*
X118828000Y-17582000D02*
X114383000Y-17582000D01*
X119844000Y-18598000D02*
X118828000Y-17582000D01*
X119844000Y-37140000D02*
X119844000Y-18598000D01*
X118701000Y-38283000D02*
X119844000Y-37140000D01*
X111081000Y-17836000D02*
X111081000Y-19487000D01*
X112732000Y-16185000D02*
X111081000Y-17836000D01*
X119463000Y-16185000D02*
X112732000Y-16185000D01*
X121368000Y-18090000D02*
X119463000Y-16185000D01*
X121368000Y-33965000D02*
X121368000Y-18090000D01*
X112351000Y-27488000D02*
X112351000Y-22027000D01*
X111462000Y-28377000D02*
X112351000Y-27488000D01*
X109684000Y-30917000D02*
X109684000Y-22027000D01*
X108922000Y-31679000D02*
X109684000Y-30917000D01*
D31*
X82887000Y-27742000D02*
X47581000Y-27742000D01*
X88983000Y-33838000D02*
X82887000Y-27742000D01*
X87840000Y-43744000D02*
X74886000Y-43744000D01*
X88983000Y-42601000D02*
X87840000Y-43744000D01*
D35*
G36*
X131326000Y-119793969D02*
X131023619Y-119063949D01*
X130159756Y-118197921D01*
X129030237Y-117728402D01*
X128541780Y-117828719D01*
X128541780Y-120675400D01*
X128561780Y-120675400D01*
X128561780Y-120929400D01*
X128541780Y-120929400D01*
X128541780Y-123776081D01*
X129030237Y-123876398D01*
X130159756Y-123406879D01*
X131023619Y-122540851D01*
X131326000Y-121810831D01*
X131326000Y-129013000D01*
X14382000Y-129013000D01*
X14382000Y-120929402D01*
X14532141Y-120929402D01*
X14431686Y-121417856D01*
X14896841Y-122540851D01*
X15760704Y-123406879D01*
X16890223Y-123876398D01*
X17378680Y-123776081D01*
X17378680Y-120929400D01*
X17632680Y-120929400D01*
X17632680Y-123776081D01*
X18121137Y-123876398D01*
X19250656Y-123406879D01*
X20114519Y-122540851D01*
X20579674Y-121417856D01*
X24629786Y-121417856D01*
X25094941Y-122540851D01*
X25958804Y-123406879D01*
X27088323Y-123876398D01*
X27576780Y-123776081D01*
X27576780Y-120929400D01*
X27830780Y-120929400D01*
X27830780Y-123776081D01*
X28319237Y-123876398D01*
X29448756Y-123406879D01*
X30312619Y-122540851D01*
X30777774Y-121417856D01*
X30763173Y-121346856D01*
X30770686Y-121346856D01*
X31235841Y-122469851D01*
X32099704Y-123335879D01*
X33229223Y-123805398D01*
X33717680Y-123705081D01*
X33717680Y-120858400D01*
X33971680Y-120858400D01*
X33971680Y-123705081D01*
X34460137Y-123805398D01*
X35589656Y-123335879D01*
X36453519Y-122469851D01*
X36918674Y-121346856D01*
X40968786Y-121346856D01*
X41433941Y-122469851D01*
X42297804Y-123335879D01*
X43427323Y-123805398D01*
X43915780Y-123705081D01*
X43915780Y-120858400D01*
X44169780Y-120858400D01*
X44169780Y-123705081D01*
X44658237Y-123805398D01*
X45787756Y-123335879D01*
X46651619Y-122469851D01*
X47087365Y-121417856D01*
X51388686Y-121417856D01*
X51853841Y-122540851D01*
X52717704Y-123406879D01*
X53847223Y-123876398D01*
X54335680Y-123776081D01*
X54335680Y-120929400D01*
X54589680Y-120929400D01*
X54589680Y-123776081D01*
X55078137Y-123876398D01*
X56207656Y-123406879D01*
X57071519Y-122540851D01*
X57536674Y-121417856D01*
X61586786Y-121417856D01*
X62051941Y-122540851D01*
X62915804Y-123406879D01*
X64045323Y-123876398D01*
X64533780Y-123776081D01*
X64533780Y-120929400D01*
X64787780Y-120929400D01*
X64787780Y-123776081D01*
X65276237Y-123876398D01*
X66405756Y-123406879D01*
X67269619Y-122540851D01*
X67734774Y-121417856D01*
X67634319Y-120929400D01*
X64787780Y-120929400D01*
X64533780Y-120929400D01*
X61687241Y-120929400D01*
X61586786Y-121417856D01*
X57536674Y-121417856D01*
X57436219Y-120929400D01*
X54589680Y-120929400D01*
X54335680Y-120929400D01*
X51489141Y-120929400D01*
X51388686Y-121417856D01*
X47087365Y-121417856D01*
X47116774Y-121346856D01*
X47016319Y-120858400D01*
X44169780Y-120858400D01*
X43915780Y-120858400D01*
X41069241Y-120858400D01*
X40968786Y-121346856D01*
X36918674Y-121346856D01*
X36818219Y-120858400D01*
X33971680Y-120858400D01*
X33717680Y-120858400D01*
X30871141Y-120858400D01*
X30770686Y-121346856D01*
X30763173Y-121346856D01*
X30677319Y-120929400D01*
X27830780Y-120929400D01*
X27576780Y-120929400D01*
X24730241Y-120929400D01*
X24629786Y-121417856D01*
X20579674Y-121417856D01*
X20479219Y-120929400D01*
X17632680Y-120929400D01*
X17378680Y-120929400D01*
X17358680Y-120929400D01*
X17358680Y-120675400D01*
X17378680Y-120675400D01*
X17378680Y-117828719D01*
X17632680Y-117828719D01*
X17632680Y-120675400D01*
X20479219Y-120675400D01*
X20579674Y-120186944D01*
X24629786Y-120186944D01*
X24730241Y-120675400D01*
X27576780Y-120675400D01*
X27576780Y-117828719D01*
X27830780Y-117828719D01*
X27830780Y-120675400D01*
X30677319Y-120675400D01*
X30777774Y-120186944D01*
X30748366Y-120115944D01*
X30770686Y-120115944D01*
X30871141Y-120604400D01*
X33717680Y-120604400D01*
X33717680Y-117757719D01*
X33971680Y-117757719D01*
X33971680Y-120604400D01*
X36818219Y-120604400D01*
X36918674Y-120115944D01*
X40968786Y-120115944D01*
X41069241Y-120604400D01*
X43915780Y-120604400D01*
X43915780Y-117757719D01*
X44169780Y-117757719D01*
X44169780Y-120604400D01*
X47016319Y-120604400D01*
X47102172Y-120186944D01*
X51388686Y-120186944D01*
X51489141Y-120675400D01*
X54335680Y-120675400D01*
X54335680Y-117828719D01*
X54589680Y-117828719D01*
X54589680Y-120675400D01*
X57436219Y-120675400D01*
X57536674Y-120186944D01*
X61586786Y-120186944D01*
X61687241Y-120675400D01*
X64533780Y-120675400D01*
X64533780Y-117828719D01*
X64787780Y-117828719D01*
X64787780Y-120675400D01*
X67634319Y-120675400D01*
X67734774Y-120186944D01*
X67269619Y-119063949D01*
X66405756Y-118197921D01*
X65276237Y-117728402D01*
X64787780Y-117828719D01*
X64533780Y-117828719D01*
X64045323Y-117728402D01*
X62915804Y-118197921D01*
X62051941Y-119063949D01*
X61586786Y-120186944D01*
X57536674Y-120186944D01*
X57071519Y-119063949D01*
X56207656Y-118197921D01*
X55078137Y-117728402D01*
X54589680Y-117828719D01*
X54335680Y-117828719D01*
X53847223Y-117728402D01*
X52717704Y-118197921D01*
X51853841Y-119063949D01*
X51388686Y-120186944D01*
X47102172Y-120186944D01*
X47116774Y-120115944D01*
X46651619Y-118992949D01*
X45787756Y-118126921D01*
X44658237Y-117657402D01*
X44169780Y-117757719D01*
X43915780Y-117757719D01*
X43427323Y-117657402D01*
X42297804Y-118126921D01*
X41433941Y-118992949D01*
X40968786Y-120115944D01*
X36918674Y-120115944D01*
X36453519Y-118992949D01*
X35589656Y-118126921D01*
X34460137Y-117657402D01*
X33971680Y-117757719D01*
X33717680Y-117757719D01*
X33229223Y-117657402D01*
X32099704Y-118126921D01*
X31235841Y-118992949D01*
X30770686Y-120115944D01*
X30748366Y-120115944D01*
X30312619Y-119063949D01*
X29448756Y-118197921D01*
X28319237Y-117728402D01*
X27830780Y-117828719D01*
X27576780Y-117828719D01*
X27088323Y-117728402D01*
X25958804Y-118197921D01*
X25094941Y-119063949D01*
X24629786Y-120186944D01*
X20579674Y-120186944D01*
X20114519Y-119063949D01*
X19250656Y-118197921D01*
X18121137Y-117728402D01*
X17632680Y-117828719D01*
X17378680Y-117828719D01*
X16890223Y-117728402D01*
X15760704Y-118197921D01*
X14896841Y-119063949D01*
X14431686Y-120186944D01*
X14532141Y-120675398D01*
X14382000Y-120675398D01*
X14382000Y-116300811D01*
X20921000Y-116300811D01*
X20921000Y-116774669D01*
X21049263Y-117419491D01*
X21414525Y-117966144D01*
X21961178Y-118331406D01*
X22606000Y-118459669D01*
X23250822Y-118331406D01*
X23797475Y-117966144D01*
X23875546Y-117849302D01*
X24054270Y-118060245D01*
X24640380Y-118361810D01*
X24717081Y-118377394D01*
X24978360Y-118258697D01*
X24978360Y-116664740D01*
X25232360Y-116664740D01*
X25232360Y-118258697D01*
X25493639Y-118377394D01*
X25570340Y-118361810D01*
X26156450Y-118060245D01*
X26582541Y-117557341D01*
X26783745Y-116929660D01*
X26634354Y-116664740D01*
X25232360Y-116664740D01*
X24978360Y-116664740D01*
X24958360Y-116664740D01*
X24958360Y-116410740D01*
X24978360Y-116410740D01*
X24978360Y-114816783D01*
X25232360Y-114816783D01*
X25232360Y-116410740D01*
X26634354Y-116410740D01*
X26736381Y-116229811D01*
X37260000Y-116229811D01*
X37260000Y-116703669D01*
X37388263Y-117348491D01*
X37753525Y-117895144D01*
X38300178Y-118260406D01*
X38945000Y-118388669D01*
X39589822Y-118260406D01*
X40136475Y-117895144D01*
X40214546Y-117778302D01*
X40393270Y-117989245D01*
X40979380Y-118290810D01*
X41056081Y-118306394D01*
X41317360Y-118187697D01*
X41317360Y-116593740D01*
X41571360Y-116593740D01*
X41571360Y-118187697D01*
X41832639Y-118306394D01*
X41909340Y-118290810D01*
X42495450Y-117989245D01*
X42921541Y-117486341D01*
X43122745Y-116858660D01*
X42973354Y-116593740D01*
X41571360Y-116593740D01*
X41317360Y-116593740D01*
X41297360Y-116593740D01*
X41297360Y-116339740D01*
X41317360Y-116339740D01*
X41317360Y-114745783D01*
X41571360Y-114745783D01*
X41571360Y-116339740D01*
X42973354Y-116339740D01*
X42995306Y-116300811D01*
X57878000Y-116300811D01*
X57878000Y-116774669D01*
X58006263Y-117419491D01*
X58371525Y-117966144D01*
X58918178Y-118331406D01*
X59563000Y-118459669D01*
X60207822Y-118331406D01*
X60754475Y-117966144D01*
X60832546Y-117849302D01*
X61011270Y-118060245D01*
X61597380Y-118361810D01*
X61674081Y-118377394D01*
X61935360Y-118258697D01*
X61935360Y-116664740D01*
X62189360Y-116664740D01*
X62189360Y-118258697D01*
X62450639Y-118377394D01*
X62527340Y-118361810D01*
X63113450Y-118060245D01*
X63539541Y-117557341D01*
X63740745Y-116929660D01*
X63591354Y-116664740D01*
X62189360Y-116664740D01*
X61935360Y-116664740D01*
X61915360Y-116664740D01*
X61915360Y-116410740D01*
X61935360Y-116410740D01*
X61935360Y-114816783D01*
X62189360Y-114816783D01*
X62189360Y-116410740D01*
X63591354Y-116410740D01*
X63740745Y-116145820D01*
X63539541Y-115518139D01*
X63113450Y-115015235D01*
X62527340Y-114713670D01*
X62450639Y-114698086D01*
X62189360Y-114816783D01*
X61935360Y-114816783D01*
X61674081Y-114698086D01*
X61597380Y-114713670D01*
X61011270Y-115015235D01*
X60832546Y-115226178D01*
X60754475Y-115109336D01*
X60207822Y-114744074D01*
X59563000Y-114615811D01*
X58918178Y-114744074D01*
X58371525Y-115109336D01*
X58006263Y-115655989D01*
X57878000Y-116300811D01*
X42995306Y-116300811D01*
X43122745Y-116074820D01*
X42921541Y-115447139D01*
X42495450Y-114944235D01*
X41909340Y-114642670D01*
X41832639Y-114627086D01*
X41571360Y-114745783D01*
X41317360Y-114745783D01*
X41056081Y-114627086D01*
X40979380Y-114642670D01*
X40393270Y-114944235D01*
X40214546Y-115155178D01*
X40136475Y-115038336D01*
X39589822Y-114673074D01*
X38945000Y-114544811D01*
X38300178Y-114673074D01*
X37753525Y-115038336D01*
X37388263Y-115584989D01*
X37260000Y-116229811D01*
X26736381Y-116229811D01*
X26783745Y-116145820D01*
X26582541Y-115518139D01*
X26156450Y-115015235D01*
X25570340Y-114713670D01*
X25493639Y-114698086D01*
X25232360Y-114816783D01*
X24978360Y-114816783D01*
X24717081Y-114698086D01*
X24640380Y-114713670D01*
X24054270Y-115015235D01*
X23875546Y-115226178D01*
X23797475Y-115109336D01*
X23250822Y-114744074D01*
X22606000Y-114615811D01*
X21961178Y-114744074D01*
X21414525Y-115109336D01*
X21049263Y-115655989D01*
X20921000Y-116300811D01*
X14382000Y-116300811D01*
X14382000Y-41966000D01*
X15970000Y-41966000D01*
X15970000Y-85654000D01*
X16075427Y-86184017D01*
X16375657Y-86633343D01*
X22598657Y-92856343D01*
X23047983Y-93156573D01*
X23578000Y-93262000D01*
X50436314Y-93262000D01*
X68445657Y-111271343D01*
X68894984Y-111571574D01*
X69425000Y-111677000D01*
X77487314Y-111677000D01*
X89090657Y-123280343D01*
X89539984Y-123580574D01*
X90070000Y-123686000D01*
X93155151Y-123686000D01*
X93437313Y-123874534D01*
X94063000Y-123998991D01*
X94688687Y-123874534D01*
X95219120Y-123520111D01*
X95573543Y-122989678D01*
X95698000Y-122363991D01*
X95698000Y-122096009D01*
X95573543Y-121470322D01*
X95538487Y-121417856D01*
X115142686Y-121417856D01*
X115607841Y-122540851D01*
X116471704Y-123406879D01*
X117601223Y-123876398D01*
X118089680Y-123776081D01*
X118089680Y-120929400D01*
X118343680Y-120929400D01*
X118343680Y-123776081D01*
X118832137Y-123876398D01*
X119961656Y-123406879D01*
X120825519Y-122540851D01*
X121290674Y-121417856D01*
X125340786Y-121417856D01*
X125805941Y-122540851D01*
X126669804Y-123406879D01*
X127799323Y-123876398D01*
X128287780Y-123776081D01*
X128287780Y-120929400D01*
X125441241Y-120929400D01*
X125340786Y-121417856D01*
X121290674Y-121417856D01*
X121190219Y-120929400D01*
X118343680Y-120929400D01*
X118089680Y-120929400D01*
X115243141Y-120929400D01*
X115142686Y-121417856D01*
X95538487Y-121417856D01*
X95219120Y-120939889D01*
X94688687Y-120585466D01*
X94063000Y-120461009D01*
X93437313Y-120585466D01*
X92942633Y-120916000D01*
X90643686Y-120916000D01*
X89798120Y-120070434D01*
X94912876Y-120070434D01*
X95165234Y-120628571D01*
X95626241Y-121069067D01*
X96220726Y-121299613D01*
X96476000Y-121165203D01*
X96476000Y-119817000D01*
X96730000Y-119817000D01*
X96730000Y-121165203D01*
X96985274Y-121299613D01*
X97579759Y-121069067D01*
X98040766Y-120628571D01*
X98240444Y-120186944D01*
X115142686Y-120186944D01*
X115243141Y-120675400D01*
X118089680Y-120675400D01*
X118089680Y-117828719D01*
X118343680Y-117828719D01*
X118343680Y-120675400D01*
X121190219Y-120675400D01*
X121290674Y-120186944D01*
X125340786Y-120186944D01*
X125441241Y-120675400D01*
X128287780Y-120675400D01*
X128287780Y-117828719D01*
X127799323Y-117728402D01*
X126669804Y-118197921D01*
X125805941Y-119063949D01*
X125340786Y-120186944D01*
X121290674Y-120186944D01*
X120825519Y-119063949D01*
X119961656Y-118197921D01*
X118832137Y-117728402D01*
X118343680Y-117828719D01*
X118089680Y-117828719D01*
X117601223Y-117728402D01*
X116471704Y-118197921D01*
X115607841Y-119063949D01*
X115142686Y-120186944D01*
X98240444Y-120186944D01*
X98293124Y-120070434D01*
X98173777Y-119817000D01*
X96730000Y-119817000D01*
X96476000Y-119817000D01*
X95032223Y-119817000D01*
X94912876Y-120070434D01*
X89798120Y-120070434D01*
X89037252Y-119309566D01*
X94912876Y-119309566D01*
X95032223Y-119563000D01*
X96476000Y-119563000D01*
X96476000Y-118214797D01*
X96730000Y-118214797D01*
X96730000Y-119563000D01*
X98173777Y-119563000D01*
X98293124Y-119309566D01*
X98040766Y-118751429D01*
X97579759Y-118310933D01*
X96985274Y-118080387D01*
X96730000Y-118214797D01*
X96476000Y-118214797D01*
X96220726Y-118080387D01*
X95626241Y-118310933D01*
X95165234Y-118751429D01*
X94912876Y-119309566D01*
X89037252Y-119309566D01*
X86743695Y-117016009D01*
X92428000Y-117016009D01*
X92428000Y-117283991D01*
X92552457Y-117909678D01*
X92906880Y-118440111D01*
X93437313Y-118794534D01*
X94063000Y-118918991D01*
X94688687Y-118794534D01*
X95219120Y-118440111D01*
X95573543Y-117909678D01*
X95698000Y-117283991D01*
X95698000Y-117016009D01*
X95573543Y-116390322D01*
X95513734Y-116300811D01*
X121632000Y-116300811D01*
X121632000Y-116774669D01*
X121760263Y-117419491D01*
X122125525Y-117966144D01*
X122672178Y-118331406D01*
X123317000Y-118459669D01*
X123961822Y-118331406D01*
X124508475Y-117966144D01*
X124586546Y-117849302D01*
X124765270Y-118060245D01*
X125351380Y-118361810D01*
X125428081Y-118377394D01*
X125689360Y-118258697D01*
X125689360Y-116664740D01*
X125943360Y-116664740D01*
X125943360Y-118258697D01*
X126204639Y-118377394D01*
X126281340Y-118361810D01*
X126867450Y-118060245D01*
X127293541Y-117557341D01*
X127494745Y-116929660D01*
X127345354Y-116664740D01*
X125943360Y-116664740D01*
X125689360Y-116664740D01*
X125669360Y-116664740D01*
X125669360Y-116410740D01*
X125689360Y-116410740D01*
X125689360Y-114816783D01*
X125943360Y-114816783D01*
X125943360Y-116410740D01*
X127345354Y-116410740D01*
X127494745Y-116145820D01*
X127293541Y-115518139D01*
X126867450Y-115015235D01*
X126281340Y-114713670D01*
X126204639Y-114698086D01*
X125943360Y-114816783D01*
X125689360Y-114816783D01*
X125428081Y-114698086D01*
X125351380Y-114713670D01*
X124765270Y-115015235D01*
X124586546Y-115226178D01*
X124508475Y-115109336D01*
X123961822Y-114744074D01*
X123317000Y-114615811D01*
X122672178Y-114744074D01*
X122125525Y-115109336D01*
X121760263Y-115655989D01*
X121632000Y-116300811D01*
X95513734Y-116300811D01*
X95219120Y-115859889D01*
X94688687Y-115505466D01*
X94063000Y-115381009D01*
X93437313Y-115505466D01*
X92906880Y-115859889D01*
X92552457Y-116390322D01*
X92428000Y-117016009D01*
X86743695Y-117016009D01*
X79040343Y-109312657D01*
X78591017Y-109012427D01*
X78061000Y-108907000D01*
X69998686Y-108907000D01*
X68685753Y-107594067D01*
X121175925Y-107594067D01*
X121469890Y-108305518D01*
X122013739Y-108850317D01*
X122724676Y-109145523D01*
X123494467Y-109146195D01*
X124205918Y-108852230D01*
X124478303Y-108580319D01*
X127920886Y-108580319D01*
X128056244Y-108878315D01*
X128774620Y-109154926D01*
X129544167Y-109135570D01*
X130165236Y-108878315D01*
X130300594Y-108580319D01*
X129110740Y-107390465D01*
X127920886Y-108580319D01*
X124478303Y-108580319D01*
X124750717Y-108308381D01*
X125045923Y-107597444D01*
X125046553Y-106874740D01*
X127166674Y-106874740D01*
X127186030Y-107644287D01*
X127443285Y-108265356D01*
X127741281Y-108400714D01*
X128931135Y-107210860D01*
X129290345Y-107210860D01*
X130480199Y-108400714D01*
X130778195Y-108265356D01*
X131054806Y-107546980D01*
X131035450Y-106777433D01*
X130778195Y-106156364D01*
X130480199Y-106021006D01*
X129290345Y-107210860D01*
X128931135Y-107210860D01*
X127741281Y-106021006D01*
X127443285Y-106156364D01*
X127166674Y-106874740D01*
X125046553Y-106874740D01*
X125046595Y-106827653D01*
X124752630Y-106116202D01*
X124478309Y-105841401D01*
X127920886Y-105841401D01*
X129110740Y-107031255D01*
X130300594Y-105841401D01*
X130165236Y-105543405D01*
X129446860Y-105266794D01*
X128677313Y-105286150D01*
X128056244Y-105543405D01*
X127920886Y-105841401D01*
X124478309Y-105841401D01*
X124208781Y-105571403D01*
X123497844Y-105276197D01*
X122728053Y-105275525D01*
X122016602Y-105569490D01*
X121471803Y-106113339D01*
X121176597Y-106824276D01*
X121175925Y-107594067D01*
X68685753Y-107594067D01*
X66317481Y-105225795D01*
X75961716Y-105225795D01*
X76210106Y-105826943D01*
X76669637Y-106287278D01*
X77270352Y-106536716D01*
X77920795Y-106537284D01*
X78521943Y-106288894D01*
X78982278Y-105829363D01*
X79231716Y-105228648D01*
X79231726Y-105216388D01*
X89979225Y-105216388D01*
X90220398Y-105800072D01*
X90666579Y-106247032D01*
X91249841Y-106489224D01*
X91881388Y-106489775D01*
X92465072Y-106248602D01*
X92912032Y-105802421D01*
X93154224Y-105219159D01*
X93154775Y-104587612D01*
X92913602Y-104003928D01*
X92467421Y-103556968D01*
X91884159Y-103314776D01*
X91252612Y-103314225D01*
X90668928Y-103555398D01*
X90221968Y-104001579D01*
X89979776Y-104584841D01*
X89979225Y-105216388D01*
X79231726Y-105216388D01*
X79232284Y-104578205D01*
X78983894Y-103977057D01*
X78524363Y-103516722D01*
X77923648Y-103267284D01*
X77273205Y-103266716D01*
X76672057Y-103515106D01*
X76211722Y-103974637D01*
X75962284Y-104575352D01*
X75961716Y-105225795D01*
X66317481Y-105225795D01*
X61237481Y-100145795D01*
X75961716Y-100145795D01*
X76210106Y-100746943D01*
X76669637Y-101207278D01*
X77270352Y-101456716D01*
X77920795Y-101457284D01*
X78521943Y-101208894D01*
X78982278Y-100749363D01*
X79231716Y-100148648D01*
X79231726Y-100136388D01*
X89979225Y-100136388D01*
X90220398Y-100720072D01*
X90666579Y-101167032D01*
X91249841Y-101409224D01*
X91881388Y-101409775D01*
X92465072Y-101168602D01*
X92912032Y-100722421D01*
X93154224Y-100139159D01*
X93154775Y-99507612D01*
X92913602Y-98923928D01*
X92467421Y-98476968D01*
X91884159Y-98234776D01*
X91252612Y-98234225D01*
X90668928Y-98475398D01*
X90221968Y-98921579D01*
X89979776Y-99504841D01*
X89979225Y-100136388D01*
X79231726Y-100136388D01*
X79232284Y-99498205D01*
X78983894Y-98897057D01*
X78524363Y-98436722D01*
X77923648Y-98187284D01*
X77273205Y-98186716D01*
X76672057Y-98435106D01*
X76211722Y-98894637D01*
X75962284Y-99495352D01*
X75961716Y-100145795D01*
X61237481Y-100145795D01*
X54887481Y-93795795D01*
X75961716Y-93795795D01*
X76210106Y-94396943D01*
X76669637Y-94857278D01*
X77270352Y-95106716D01*
X77920795Y-95107284D01*
X78521943Y-94858894D01*
X78982278Y-94399363D01*
X79231716Y-93798648D01*
X79231726Y-93786388D01*
X89979225Y-93786388D01*
X90220398Y-94370072D01*
X90666579Y-94817032D01*
X91249841Y-95059224D01*
X91881388Y-95059775D01*
X92465072Y-94818602D01*
X92689718Y-94594347D01*
X121175925Y-94594347D01*
X121469890Y-95305798D01*
X122013739Y-95850597D01*
X122724676Y-96145803D01*
X123494467Y-96146475D01*
X124205918Y-95852510D01*
X124750717Y-95308661D01*
X125045923Y-94597724D01*
X125045925Y-94594347D01*
X127175405Y-94594347D01*
X127469370Y-95305798D01*
X128013219Y-95850597D01*
X128724156Y-96145803D01*
X129493947Y-96146475D01*
X130205398Y-95852510D01*
X130750197Y-95308661D01*
X131045403Y-94597724D01*
X131046075Y-93827933D01*
X130752110Y-93116482D01*
X130208261Y-92571683D01*
X129497324Y-92276477D01*
X128727533Y-92275805D01*
X128016082Y-92569770D01*
X127471283Y-93113619D01*
X127176077Y-93824556D01*
X127175405Y-94594347D01*
X125045925Y-94594347D01*
X125046595Y-93827933D01*
X124752630Y-93116482D01*
X124208781Y-92571683D01*
X123497844Y-92276477D01*
X122728053Y-92275805D01*
X122016602Y-92569770D01*
X121471803Y-93113619D01*
X121176597Y-93824556D01*
X121175925Y-94594347D01*
X92689718Y-94594347D01*
X92912032Y-94372421D01*
X93154224Y-93789159D01*
X93154775Y-93157612D01*
X92913602Y-92573928D01*
X92467421Y-92126968D01*
X91884159Y-91884776D01*
X91252612Y-91884225D01*
X90668928Y-92125398D01*
X90221968Y-92571579D01*
X89979776Y-93154841D01*
X89979225Y-93786388D01*
X79231726Y-93786388D01*
X79232284Y-93148205D01*
X78983894Y-92547057D01*
X78524363Y-92086722D01*
X77923648Y-91837284D01*
X77273205Y-91836716D01*
X76672057Y-92085106D01*
X76211722Y-92544637D01*
X75962284Y-93145352D01*
X75961716Y-93795795D01*
X54887481Y-93795795D01*
X51989343Y-90897657D01*
X51540017Y-90597427D01*
X51010000Y-90492000D01*
X24151686Y-90492000D01*
X22375481Y-88715795D01*
X75961716Y-88715795D01*
X76210106Y-89316943D01*
X76669637Y-89777278D01*
X77270352Y-90026716D01*
X77920795Y-90027284D01*
X78521943Y-89778894D01*
X78982278Y-89319363D01*
X79231716Y-88718648D01*
X79231726Y-88706388D01*
X89979225Y-88706388D01*
X90220398Y-89290072D01*
X90666579Y-89737032D01*
X91249841Y-89979224D01*
X91881388Y-89979775D01*
X92465072Y-89738602D01*
X92912032Y-89292421D01*
X93154224Y-88709159D01*
X93154775Y-88077612D01*
X92913602Y-87493928D01*
X92467421Y-87046968D01*
X91884159Y-86804776D01*
X91252612Y-86804225D01*
X90668928Y-87045398D01*
X90221968Y-87491579D01*
X89979776Y-88074841D01*
X89979225Y-88706388D01*
X79231726Y-88706388D01*
X79232284Y-88068205D01*
X78983894Y-87467057D01*
X78524363Y-87006722D01*
X77923648Y-86757284D01*
X77273205Y-86756716D01*
X76672057Y-87005106D01*
X76211722Y-87464637D01*
X75962284Y-88065352D01*
X75961716Y-88715795D01*
X22375481Y-88715795D01*
X18740000Y-85080314D01*
X18740000Y-61264031D01*
X20026561Y-61264031D01*
X20411678Y-62196086D01*
X21124163Y-62909816D01*
X22055545Y-63296559D01*
X23064031Y-63297439D01*
X23996086Y-62912322D01*
X24709816Y-62199837D01*
X25096559Y-61268455D01*
X25097439Y-60259969D01*
X24712322Y-59327914D01*
X23999837Y-58614184D01*
X23068455Y-58227441D01*
X22059969Y-58226561D01*
X21127914Y-58611678D01*
X20414184Y-59324163D01*
X20027441Y-60255545D01*
X20026561Y-61264031D01*
X18740000Y-61264031D01*
X18740000Y-45736894D01*
X18887000Y-45956895D01*
X18887000Y-46157000D01*
X18973397Y-46591346D01*
X19168488Y-46883320D01*
X19219434Y-46959566D01*
X36006368Y-63746500D01*
X35094434Y-64658434D01*
X34848397Y-65026654D01*
X34762000Y-65461000D01*
X34762000Y-83495000D01*
X34848397Y-83929346D01*
X35094434Y-84297566D01*
X35462654Y-84543603D01*
X35897000Y-84630000D01*
X36331346Y-84543603D01*
X36699566Y-84297566D01*
X36945603Y-83929346D01*
X37032000Y-83495000D01*
X37032000Y-65931132D01*
X38145132Y-64818000D01*
X50920868Y-64818000D01*
X60875434Y-74772566D01*
X61243654Y-75018603D01*
X61678000Y-75105000D01*
X105112000Y-75105000D01*
X105546346Y-75018603D01*
X105914566Y-74772566D01*
X111297133Y-69390000D01*
X114129000Y-69390000D01*
X114563346Y-69303603D01*
X114931566Y-69057566D01*
X115177603Y-68689346D01*
X115264000Y-68255000D01*
X115177603Y-67820654D01*
X114931566Y-67452434D01*
X114563346Y-67206397D01*
X114129000Y-67120000D01*
X110827000Y-67120000D01*
X110392655Y-67206396D01*
X110024434Y-67452433D01*
X104641868Y-72835000D01*
X97992000Y-72835000D01*
X97992000Y-60000000D01*
X97905603Y-59565654D01*
X97659566Y-59197434D01*
X97291346Y-58951397D01*
X96857000Y-58865000D01*
X96422654Y-58951397D01*
X96054434Y-59197434D01*
X95808397Y-59565654D01*
X95722000Y-60000000D01*
X95722000Y-72835000D01*
X62148132Y-72835000D01*
X55538299Y-66225167D01*
X75391838Y-66225167D01*
X75533883Y-66568943D01*
X75796673Y-66832192D01*
X76140201Y-66974838D01*
X76512167Y-66975162D01*
X76855943Y-66833117D01*
X77119192Y-66570327D01*
X77219778Y-66328090D01*
X78704868Y-64843000D01*
X90078132Y-64843000D01*
X92706465Y-67471333D01*
X92805883Y-67711943D01*
X93068673Y-67975192D01*
X93412201Y-68117838D01*
X93784167Y-68118162D01*
X94127943Y-67976117D01*
X94391192Y-67713327D01*
X94533838Y-67369799D01*
X94534162Y-66997833D01*
X94392117Y-66654057D01*
X94129327Y-66390808D01*
X93887090Y-66290222D01*
X91014434Y-63417566D01*
X90856675Y-63312155D01*
X90743541Y-63236561D01*
X90424000Y-63173000D01*
X78359000Y-63173000D01*
X78039459Y-63236561D01*
X77926325Y-63312155D01*
X77768566Y-63417566D01*
X76038667Y-65147465D01*
X75798057Y-65246883D01*
X75534808Y-65509673D01*
X75392162Y-65853201D01*
X75391838Y-66225167D01*
X55538299Y-66225167D01*
X54019221Y-64706089D01*
X63870517Y-64706089D01*
X63999725Y-64998859D01*
X64699883Y-65267071D01*
X65449384Y-65246928D01*
X66048275Y-64998859D01*
X66177483Y-64706089D01*
X65024000Y-63552605D01*
X63870517Y-64706089D01*
X54019221Y-64706089D01*
X52362015Y-63048883D01*
X63129929Y-63048883D01*
X63150072Y-63798384D01*
X63398141Y-64397275D01*
X63690911Y-64526483D01*
X64844395Y-63373000D01*
X65203605Y-63373000D01*
X66357089Y-64526483D01*
X66649859Y-64397275D01*
X66899252Y-63746241D01*
X70758994Y-63746241D01*
X71045314Y-64439191D01*
X71575021Y-64969822D01*
X72267469Y-65257352D01*
X73017241Y-65258006D01*
X73710191Y-64971686D01*
X74240822Y-64441979D01*
X74528352Y-63749531D01*
X74529006Y-62999759D01*
X74242686Y-62306809D01*
X73712979Y-61776178D01*
X73020531Y-61488648D01*
X72270759Y-61487994D01*
X71577809Y-61774314D01*
X71047178Y-62304021D01*
X70759648Y-62996469D01*
X70758994Y-63746241D01*
X66899252Y-63746241D01*
X66918071Y-63697117D01*
X66897928Y-62947616D01*
X66649859Y-62348725D01*
X66357089Y-62219517D01*
X65203605Y-63373000D01*
X64844395Y-63373000D01*
X63690911Y-62219517D01*
X63398141Y-62348725D01*
X63129929Y-63048883D01*
X52362015Y-63048883D01*
X52193566Y-62880434D01*
X51920380Y-62697897D01*
X51825346Y-62634397D01*
X51391000Y-62548000D01*
X38018133Y-62548000D01*
X37510044Y-62039911D01*
X63870517Y-62039911D01*
X65024000Y-63193395D01*
X66177483Y-62039911D01*
X66048275Y-61747141D01*
X65348117Y-61478929D01*
X64598616Y-61499072D01*
X63999725Y-61747141D01*
X63870517Y-62039911D01*
X37510044Y-62039911D01*
X28033329Y-52563196D01*
X51387409Y-52563196D01*
X51472467Y-52818539D01*
X52041965Y-53026516D01*
X52647700Y-53000723D01*
X53087533Y-52818539D01*
X53172591Y-52563196D01*
X53132591Y-52523196D01*
X56340409Y-52523196D01*
X56425467Y-52778539D01*
X56994965Y-52986516D01*
X57600700Y-52960723D01*
X58040533Y-52778539D01*
X58125591Y-52523196D01*
X57233000Y-51630605D01*
X56340409Y-52523196D01*
X53132591Y-52523196D01*
X52280000Y-51670605D01*
X51387409Y-52563196D01*
X28033329Y-52563196D01*
X26723098Y-51252965D01*
X50744484Y-51252965D01*
X50770277Y-51858700D01*
X50952461Y-52298533D01*
X51207804Y-52383591D01*
X52100395Y-51491000D01*
X52459605Y-51491000D01*
X53352196Y-52383591D01*
X53607539Y-52298533D01*
X53815516Y-51729035D01*
X53793542Y-51212965D01*
X55697484Y-51212965D01*
X55723277Y-51818700D01*
X55905461Y-52258533D01*
X56160804Y-52343591D01*
X57053395Y-51451000D01*
X57412605Y-51451000D01*
X58305196Y-52343591D01*
X58560539Y-52258533D01*
X58768516Y-51689035D01*
X58742723Y-51083300D01*
X58560539Y-50643467D01*
X58305196Y-50558409D01*
X57412605Y-51451000D01*
X57053395Y-51451000D01*
X56160804Y-50558409D01*
X55905461Y-50643467D01*
X55697484Y-51212965D01*
X53793542Y-51212965D01*
X53789723Y-51123300D01*
X53607539Y-50683467D01*
X53352196Y-50598409D01*
X52459605Y-51491000D01*
X52100395Y-51491000D01*
X51207804Y-50598409D01*
X50952461Y-50683467D01*
X50744484Y-51252965D01*
X26723098Y-51252965D01*
X21265158Y-45795025D01*
X21301748Y-45740264D01*
X21566394Y-46073212D01*
X22091914Y-46364756D01*
X22197260Y-46389036D01*
X22435000Y-46268378D01*
X22435000Y-44125000D01*
X22415000Y-44125000D01*
X22415000Y-43871000D01*
X22435000Y-43871000D01*
X22435000Y-41727622D01*
X22197260Y-41606964D01*
X22091914Y-41631244D01*
X21566394Y-41922788D01*
X21301748Y-42255736D01*
X21107409Y-41964887D01*
X20609419Y-41632141D01*
X20022000Y-41515296D01*
X19700425Y-41579261D01*
X19960686Y-41319000D01*
X23717000Y-41319000D01*
X23717000Y-42123320D01*
X23557606Y-41922788D01*
X23032086Y-41631244D01*
X22926740Y-41606964D01*
X22689000Y-41727622D01*
X22689000Y-43871000D01*
X22709000Y-43871000D01*
X22709000Y-44125000D01*
X22689000Y-44125000D01*
X22689000Y-46268378D01*
X22926740Y-46389036D01*
X23032086Y-46364756D01*
X23557606Y-46073212D01*
X23822252Y-45740264D01*
X24016591Y-46031113D01*
X24514581Y-46363859D01*
X25102000Y-46480704D01*
X25689419Y-46363859D01*
X26187409Y-46031113D01*
X26520155Y-45533123D01*
X26637000Y-44945704D01*
X26637000Y-43050296D01*
X26520155Y-42462877D01*
X26487000Y-42413257D01*
X26487000Y-37815030D01*
X32755000Y-37815030D01*
X32755000Y-38384970D01*
X32871845Y-38972389D01*
X33204591Y-39470379D01*
X33702581Y-39803125D01*
X34290000Y-39919970D01*
X34877419Y-39803125D01*
X35375409Y-39470379D01*
X35560000Y-39194119D01*
X35744591Y-39470379D01*
X36242581Y-39803125D01*
X36830000Y-39919970D01*
X37417419Y-39803125D01*
X37915409Y-39470379D01*
X38100000Y-39194119D01*
X38284591Y-39470379D01*
X38782581Y-39803125D01*
X39370000Y-39919970D01*
X39957419Y-39803125D01*
X40455409Y-39470379D01*
X40640000Y-39194119D01*
X40824591Y-39470379D01*
X41322581Y-39803125D01*
X41910000Y-39919970D01*
X42497419Y-39803125D01*
X42995409Y-39470379D01*
X43180000Y-39194119D01*
X43364591Y-39470379D01*
X43862581Y-39803125D01*
X44450000Y-39919970D01*
X45037419Y-39803125D01*
X45535409Y-39470379D01*
X45720000Y-39194119D01*
X45904591Y-39470379D01*
X46402581Y-39803125D01*
X46990000Y-39919970D01*
X47577419Y-39803125D01*
X48075409Y-39470379D01*
X48260000Y-39194119D01*
X48444591Y-39470379D01*
X48942581Y-39803125D01*
X49530000Y-39919970D01*
X50117419Y-39803125D01*
X50615409Y-39470379D01*
X50802801Y-39189926D01*
X51065260Y-39523647D01*
X51590877Y-39818806D01*
X51705260Y-39841036D01*
X51943000Y-39720378D01*
X51943000Y-38227000D01*
X51923000Y-38227000D01*
X51923000Y-37973000D01*
X51943000Y-37973000D01*
X51943000Y-37953000D01*
X52197000Y-37953000D01*
X52197000Y-37973000D01*
X52217000Y-37973000D01*
X52217000Y-38227000D01*
X52197000Y-38227000D01*
X52197000Y-39720378D01*
X52434740Y-39841036D01*
X52549123Y-39818806D01*
X53074740Y-39523647D01*
X53337199Y-39189926D01*
X53524591Y-39470379D01*
X53725000Y-39604288D01*
X53725000Y-41261481D01*
X52429365Y-42557116D01*
X52021775Y-42556760D01*
X51512545Y-42767169D01*
X51122599Y-43156436D01*
X50911301Y-43665298D01*
X50910820Y-44216285D01*
X51121229Y-44725515D01*
X51411060Y-45015852D01*
X51411060Y-47705041D01*
X50988769Y-48126596D01*
X50756265Y-48686528D01*
X50755736Y-49292812D01*
X50987262Y-49853149D01*
X51415596Y-50282231D01*
X51430800Y-50288544D01*
X51387409Y-50418804D01*
X52280000Y-51311395D01*
X53172591Y-50418804D01*
X53129359Y-50289023D01*
X53142149Y-50283738D01*
X53571231Y-49855404D01*
X53803735Y-49295472D01*
X53804264Y-48689188D01*
X53572738Y-48128851D01*
X53181060Y-47736489D01*
X53181060Y-45015523D01*
X53469521Y-44727564D01*
X53680819Y-44218702D01*
X53681177Y-43808463D01*
X55235787Y-42253852D01*
X55235790Y-42253850D01*
X55427633Y-41966735D01*
X55495000Y-41628060D01*
X55495000Y-39604288D01*
X55695409Y-39470379D01*
X55880000Y-39194119D01*
X56064591Y-39470379D01*
X56265000Y-39604288D01*
X56265000Y-42896369D01*
X56004479Y-43156436D01*
X55793181Y-43665298D01*
X55792700Y-44216285D01*
X56003109Y-44725515D01*
X56292940Y-45015852D01*
X56292940Y-47736037D01*
X55941769Y-48086596D01*
X55709265Y-48646528D01*
X55708736Y-49252812D01*
X55940262Y-49813149D01*
X56368596Y-50242231D01*
X56383800Y-50248544D01*
X56340409Y-50378804D01*
X57233000Y-51271395D01*
X58125591Y-50378804D01*
X58082359Y-50249023D01*
X58095149Y-50243738D01*
X58524231Y-49815404D01*
X58756735Y-49255472D01*
X58757264Y-48649188D01*
X58525738Y-48088851D01*
X58097404Y-47659769D01*
X58062940Y-47645458D01*
X58062940Y-46883320D01*
X63126880Y-46883320D01*
X63126880Y-49382680D01*
X63171158Y-49617997D01*
X63310230Y-49834121D01*
X63522430Y-49979111D01*
X63774320Y-50030120D01*
X66273680Y-50030120D01*
X66508997Y-49985842D01*
X66725121Y-49846770D01*
X66870111Y-49634570D01*
X66921120Y-49382680D01*
X66921120Y-48506241D01*
X70758994Y-48506241D01*
X71045314Y-49199191D01*
X71575021Y-49729822D01*
X72267469Y-50017352D01*
X73017241Y-50018006D01*
X73710191Y-49731686D01*
X74240822Y-49201979D01*
X74528352Y-48509531D01*
X74529006Y-47759759D01*
X74242686Y-47066809D01*
X73712979Y-46536178D01*
X73020531Y-46248648D01*
X72270759Y-46247994D01*
X71577809Y-46534314D01*
X71047178Y-47064021D01*
X70759648Y-47756469D01*
X70758994Y-48506241D01*
X66921120Y-48506241D01*
X66921120Y-46883320D01*
X66876842Y-46648003D01*
X66737770Y-46431879D01*
X66525570Y-46286889D01*
X66273680Y-46235880D01*
X63774320Y-46235880D01*
X63539003Y-46280158D01*
X63322879Y-46419230D01*
X63177889Y-46631430D01*
X63126880Y-46883320D01*
X58062940Y-46883320D01*
X58062940Y-45015523D01*
X58351401Y-44727564D01*
X58562699Y-44218702D01*
X58562951Y-43929167D01*
X73950838Y-43929167D01*
X74092883Y-44272943D01*
X74355673Y-44536192D01*
X74699201Y-44678838D01*
X75071167Y-44679162D01*
X75192569Y-44629000D01*
X87839995Y-44629000D01*
X87840000Y-44629001D01*
X88122484Y-44572810D01*
X88178675Y-44561633D01*
X88465790Y-44369790D01*
X89391834Y-43443745D01*
X89511943Y-43394117D01*
X89775192Y-43131327D01*
X89917838Y-42787799D01*
X89918162Y-42415833D01*
X89776117Y-42072057D01*
X89513327Y-41808808D01*
X89169799Y-41666162D01*
X88797833Y-41665838D01*
X88454057Y-41807883D01*
X88190808Y-42070673D01*
X88140434Y-42191987D01*
X87473420Y-42859000D01*
X75192822Y-42859000D01*
X75072799Y-42809162D01*
X74700833Y-42808838D01*
X74357057Y-42950883D01*
X74093808Y-43213673D01*
X73951162Y-43557201D01*
X73950838Y-43929167D01*
X58562951Y-43929167D01*
X58563180Y-43667715D01*
X58352771Y-43158485D01*
X58035000Y-42840160D01*
X58035000Y-39604288D01*
X58235409Y-39470379D01*
X58420000Y-39194119D01*
X58604591Y-39470379D01*
X59102581Y-39803125D01*
X59690000Y-39919970D01*
X60277419Y-39803125D01*
X60775409Y-39470379D01*
X60960000Y-39194119D01*
X61144591Y-39470379D01*
X61642581Y-39803125D01*
X62230000Y-39919970D01*
X62817419Y-39803125D01*
X63315409Y-39470379D01*
X63500000Y-39194119D01*
X63684591Y-39470379D01*
X64182581Y-39803125D01*
X64770000Y-39919970D01*
X65357419Y-39803125D01*
X65855409Y-39470379D01*
X66040000Y-39194119D01*
X66224591Y-39470379D01*
X66722581Y-39803125D01*
X67310000Y-39919970D01*
X67897419Y-39803125D01*
X68395409Y-39470379D01*
X68728155Y-38972389D01*
X68845000Y-38384970D01*
X68845000Y-37815030D01*
X68728155Y-37227611D01*
X68395409Y-36729621D01*
X68243322Y-36628000D01*
X87854420Y-36628000D01*
X118578000Y-67351579D01*
X118578000Y-74171178D01*
X118528162Y-74291201D01*
X118527838Y-74663167D01*
X118669883Y-75006943D01*
X118932673Y-75270192D01*
X119276201Y-75412838D01*
X119648167Y-75413162D01*
X119991943Y-75271117D01*
X120255192Y-75008327D01*
X120397838Y-74664799D01*
X120398162Y-74292833D01*
X120348000Y-74171431D01*
X120348000Y-66985005D01*
X120348001Y-66985000D01*
X120280633Y-66646325D01*
X120247007Y-66596000D01*
X120088790Y-66359210D01*
X120088787Y-66359208D01*
X88846790Y-35117210D01*
X88633956Y-34975000D01*
X88559675Y-34925367D01*
X88503484Y-34914190D01*
X88221000Y-34857999D01*
X88220995Y-34858000D01*
X46057005Y-34858000D01*
X46057000Y-34857999D01*
X45718325Y-34925367D01*
X45431210Y-35117210D01*
X45431208Y-35117213D01*
X44223296Y-36325124D01*
X43862581Y-36396875D01*
X43364591Y-36729621D01*
X43180000Y-37005881D01*
X42995409Y-36729621D01*
X42497419Y-36396875D01*
X41910000Y-36280030D01*
X41322581Y-36396875D01*
X40824591Y-36729621D01*
X40640000Y-37005881D01*
X40455409Y-36729621D01*
X39957419Y-36396875D01*
X39370000Y-36280030D01*
X38782581Y-36396875D01*
X38284591Y-36729621D01*
X38100000Y-37005881D01*
X37915409Y-36729621D01*
X37417419Y-36396875D01*
X36830000Y-36280030D01*
X36242581Y-36396875D01*
X35744591Y-36729621D01*
X35560000Y-37005881D01*
X35375409Y-36729621D01*
X34877419Y-36396875D01*
X34290000Y-36280030D01*
X33702581Y-36396875D01*
X33204591Y-36729621D01*
X32871845Y-37227611D01*
X32755000Y-37815030D01*
X26487000Y-37815030D01*
X26487000Y-32441000D01*
X26381573Y-31910983D01*
X26081343Y-31461657D01*
X25536686Y-30917000D01*
X26081343Y-30372343D01*
X26194613Y-30202822D01*
X26199819Y-30195030D01*
X32755000Y-30195030D01*
X32755000Y-30764970D01*
X32871845Y-31352389D01*
X33204591Y-31850379D01*
X33702581Y-32183125D01*
X34290000Y-32299970D01*
X34877419Y-32183125D01*
X35375409Y-31850379D01*
X35560000Y-31574119D01*
X35744591Y-31850379D01*
X36242581Y-32183125D01*
X36830000Y-32299970D01*
X37417419Y-32183125D01*
X37915409Y-31850379D01*
X38100000Y-31574119D01*
X38284591Y-31850379D01*
X38782581Y-32183125D01*
X39370000Y-32299970D01*
X39957419Y-32183125D01*
X40455409Y-31850379D01*
X40640000Y-31574119D01*
X40824591Y-31850379D01*
X41322581Y-32183125D01*
X41910000Y-32299970D01*
X42497419Y-32183125D01*
X42995409Y-31850379D01*
X43180000Y-31574119D01*
X43364591Y-31850379D01*
X43862581Y-32183125D01*
X44450000Y-32299970D01*
X45037419Y-32183125D01*
X45535409Y-31850379D01*
X45720000Y-31574119D01*
X45904591Y-31850379D01*
X46402581Y-32183125D01*
X46990000Y-32299970D01*
X47577419Y-32183125D01*
X48075409Y-31850379D01*
X48260000Y-31574119D01*
X48444591Y-31850379D01*
X48942581Y-32183125D01*
X49530000Y-32299970D01*
X50117419Y-32183125D01*
X50615409Y-31850379D01*
X50800000Y-31574119D01*
X50984591Y-31850379D01*
X51482581Y-32183125D01*
X52070000Y-32299970D01*
X52657419Y-32183125D01*
X53155409Y-31850379D01*
X53340000Y-31574119D01*
X53524591Y-31850379D01*
X54022581Y-32183125D01*
X54610000Y-32299970D01*
X55197419Y-32183125D01*
X55695409Y-31850379D01*
X55882801Y-31569926D01*
X56145260Y-31903647D01*
X56670877Y-32198806D01*
X56785260Y-32221036D01*
X57023000Y-32100378D01*
X57023000Y-30607000D01*
X57003000Y-30607000D01*
X57003000Y-30353000D01*
X57023000Y-30353000D01*
X57023000Y-28859622D01*
X57277000Y-28859622D01*
X57277000Y-30353000D01*
X57297000Y-30353000D01*
X57297000Y-30607000D01*
X57277000Y-30607000D01*
X57277000Y-32100378D01*
X57514740Y-32221036D01*
X57629123Y-32198806D01*
X58154740Y-31903647D01*
X58417199Y-31569926D01*
X58604591Y-31850379D01*
X59102581Y-32183125D01*
X59690000Y-32299970D01*
X60277419Y-32183125D01*
X60775409Y-31850379D01*
X60960000Y-31574119D01*
X61144591Y-31850379D01*
X61642581Y-32183125D01*
X62230000Y-32299970D01*
X62817419Y-32183125D01*
X63315409Y-31850379D01*
X63500000Y-31574119D01*
X63684591Y-31850379D01*
X64182581Y-32183125D01*
X64770000Y-32299970D01*
X65357419Y-32183125D01*
X65855409Y-31850379D01*
X66040000Y-31574119D01*
X66224591Y-31850379D01*
X66722581Y-32183125D01*
X67310000Y-32299970D01*
X67897419Y-32183125D01*
X68395409Y-31850379D01*
X68728155Y-31352389D01*
X68845000Y-30764970D01*
X68845000Y-30195030D01*
X68728155Y-29607611D01*
X68395409Y-29109621D01*
X67897419Y-28776875D01*
X67310000Y-28660030D01*
X66722581Y-28776875D01*
X66224591Y-29109621D01*
X66040000Y-29385881D01*
X65855409Y-29109621D01*
X65357419Y-28776875D01*
X64770000Y-28660030D01*
X64182581Y-28776875D01*
X63684591Y-29109621D01*
X63500000Y-29385881D01*
X63315409Y-29109621D01*
X62817419Y-28776875D01*
X62230000Y-28660030D01*
X61642581Y-28776875D01*
X61144591Y-29109621D01*
X60960000Y-29385881D01*
X60775409Y-29109621D01*
X60277419Y-28776875D01*
X59690000Y-28660030D01*
X59102581Y-28776875D01*
X58604591Y-29109621D01*
X58417199Y-29390074D01*
X58154740Y-29056353D01*
X57629123Y-28761194D01*
X57514740Y-28738964D01*
X57277000Y-28859622D01*
X57023000Y-28859622D01*
X56785260Y-28738964D01*
X56670877Y-28761194D01*
X56145260Y-29056353D01*
X55882801Y-29390074D01*
X55695409Y-29109621D01*
X55197419Y-28776875D01*
X54610000Y-28660030D01*
X54022581Y-28776875D01*
X53524591Y-29109621D01*
X53340000Y-29385881D01*
X53155409Y-29109621D01*
X52657419Y-28776875D01*
X52070000Y-28660030D01*
X51482581Y-28776875D01*
X50984591Y-29109621D01*
X50800000Y-29385881D01*
X50615409Y-29109621D01*
X50117419Y-28776875D01*
X49530000Y-28660030D01*
X48942581Y-28776875D01*
X48444591Y-29109621D01*
X48260000Y-29385881D01*
X48075409Y-29109621D01*
X47577419Y-28776875D01*
X46990000Y-28660030D01*
X46402581Y-28776875D01*
X45904591Y-29109621D01*
X45720000Y-29385881D01*
X45535409Y-29109621D01*
X45037419Y-28776875D01*
X44450000Y-28660030D01*
X43862581Y-28776875D01*
X43364591Y-29109621D01*
X43180000Y-29385881D01*
X42995409Y-29109621D01*
X42497419Y-28776875D01*
X41910000Y-28660030D01*
X41322581Y-28776875D01*
X40824591Y-29109621D01*
X40640000Y-29385881D01*
X40455409Y-29109621D01*
X39957419Y-28776875D01*
X39370000Y-28660030D01*
X38782581Y-28776875D01*
X38284591Y-29109621D01*
X38100000Y-29385881D01*
X37915409Y-29109621D01*
X37715000Y-28975712D01*
X37715000Y-27927167D01*
X46645838Y-27927167D01*
X46787883Y-28270943D01*
X47050673Y-28534192D01*
X47394201Y-28676838D01*
X47766167Y-28677162D01*
X47887569Y-28627000D01*
X82520420Y-28627000D01*
X88140255Y-34246834D01*
X88189883Y-34366943D01*
X88452673Y-34630192D01*
X88796201Y-34772838D01*
X89168167Y-34773162D01*
X89511943Y-34631117D01*
X89775192Y-34368327D01*
X89917838Y-34024799D01*
X89918162Y-33652833D01*
X89776117Y-33309057D01*
X89513327Y-33045808D01*
X89392013Y-32995434D01*
X83512790Y-27116210D01*
X83263750Y-26949808D01*
X83225675Y-26924367D01*
X83169484Y-26913190D01*
X82887000Y-26856999D01*
X82886995Y-26857000D01*
X47887822Y-26857000D01*
X47767799Y-26807162D01*
X47395833Y-26806838D01*
X47052057Y-26948883D01*
X46788808Y-27211673D01*
X46646162Y-27555201D01*
X46645838Y-27927167D01*
X37715000Y-27927167D01*
X37715000Y-27048580D01*
X37914579Y-26849000D01*
X40849995Y-26849000D01*
X40850000Y-26849001D01*
X41132484Y-26792810D01*
X41188675Y-26781633D01*
X41475790Y-26589790D01*
X45075787Y-22989792D01*
X45075790Y-22989790D01*
X45267633Y-22702675D01*
X45292895Y-22575674D01*
X45335001Y-22364000D01*
X45335000Y-22363995D01*
X45335000Y-20166078D01*
X96348406Y-20166078D01*
X96869340Y-21426835D01*
X97833092Y-22392270D01*
X99092937Y-22915403D01*
X100457078Y-22916594D01*
X101717835Y-22395660D01*
X101742939Y-22370599D01*
X105154699Y-22370599D01*
X105418281Y-23008515D01*
X105905918Y-23497004D01*
X106543373Y-23761699D01*
X107233599Y-23762301D01*
X107871515Y-23498719D01*
X108287297Y-23083662D01*
X108674000Y-23471041D01*
X108674000Y-30498644D01*
X108207822Y-30964822D01*
X107988882Y-31292490D01*
X107912000Y-31679000D01*
X107988882Y-32065510D01*
X108207822Y-32393178D01*
X108535490Y-32612118D01*
X108922000Y-32689000D01*
X109308510Y-32612118D01*
X109636178Y-32393178D01*
X110398178Y-31631178D01*
X110617118Y-31303510D01*
X110694000Y-30917000D01*
X110694000Y-29010627D01*
X110747822Y-29091178D01*
X111075490Y-29310118D01*
X111462000Y-29387000D01*
X111848510Y-29310118D01*
X112176178Y-29091178D01*
X113065178Y-28202178D01*
X113284118Y-27874510D01*
X113361000Y-27488000D01*
X113361000Y-23470284D01*
X113748297Y-23083662D01*
X114160918Y-23497004D01*
X114798373Y-23761699D01*
X115488599Y-23762301D01*
X116126515Y-23498719D01*
X116599610Y-23026449D01*
X116714132Y-23072263D01*
X117759395Y-22027000D01*
X117745253Y-22012858D01*
X117924858Y-21833253D01*
X117939000Y-21847395D01*
X117953143Y-21833253D01*
X118132748Y-22012858D01*
X118118605Y-22027000D01*
X118132748Y-22041143D01*
X117953143Y-22220748D01*
X117939000Y-22206605D01*
X116893737Y-23251868D01*
X117004641Y-23529099D01*
X117650593Y-23772323D01*
X118340453Y-23749836D01*
X118834000Y-23545402D01*
X118834000Y-36721644D01*
X117986822Y-37568822D01*
X117767882Y-37896490D01*
X117691000Y-38283000D01*
X117767882Y-38669510D01*
X117986822Y-38997178D01*
X118314490Y-39216118D01*
X118701000Y-39293000D01*
X119087510Y-39216118D01*
X119415178Y-38997178D01*
X120558178Y-37854178D01*
X120777118Y-37526510D01*
X120854000Y-37140000D01*
X120854000Y-34812932D01*
X120981490Y-34898118D01*
X121368000Y-34975000D01*
X121754510Y-34898118D01*
X122082178Y-34679178D01*
X122301118Y-34351510D01*
X122378000Y-33965000D01*
X122378000Y-21535685D01*
X123233092Y-22392270D01*
X124492937Y-22915403D01*
X125857078Y-22916594D01*
X127117835Y-22395660D01*
X128083270Y-21431908D01*
X128606403Y-20172063D01*
X128607594Y-18807922D01*
X128086660Y-17547165D01*
X127122908Y-16581730D01*
X125863063Y-16058597D01*
X124498922Y-16057406D01*
X123238165Y-16578340D01*
X122272730Y-17542092D01*
X122242278Y-17615429D01*
X122082178Y-17375822D01*
X120177178Y-15470822D01*
X119849510Y-15251882D01*
X119463000Y-15175000D01*
X112732005Y-15175000D01*
X112732000Y-15174999D01*
X112345490Y-15251882D01*
X112017822Y-15470822D01*
X110366822Y-17121822D01*
X110147882Y-17449490D01*
X110071000Y-17836000D01*
X110071000Y-18043716D01*
X109683703Y-18430338D01*
X109271082Y-18016996D01*
X108633627Y-17752301D01*
X107943401Y-17751699D01*
X107305485Y-18015281D01*
X106816996Y-18502918D01*
X106552301Y-19140373D01*
X106551699Y-19830599D01*
X106742293Y-20291870D01*
X106546401Y-20291699D01*
X105908485Y-20555281D01*
X105419996Y-21042918D01*
X105155301Y-21680373D01*
X105154699Y-22370599D01*
X101742939Y-22370599D01*
X102683270Y-21431908D01*
X103206403Y-20172063D01*
X103207594Y-18807922D01*
X102686660Y-17547165D01*
X101722908Y-16581730D01*
X100463063Y-16058597D01*
X99098922Y-16057406D01*
X97838165Y-16578340D01*
X96872730Y-17542092D01*
X96349597Y-18801937D01*
X96348406Y-20166078D01*
X45335000Y-20166078D01*
X45335000Y-16660710D01*
X45383995Y-16640466D01*
X45720179Y-16304868D01*
X46053563Y-16638834D01*
X46660155Y-16890713D01*
X47316963Y-16891286D01*
X47923995Y-16640466D01*
X48388834Y-16176437D01*
X48640713Y-15569845D01*
X48641286Y-14913037D01*
X48390466Y-14306005D01*
X47926437Y-13841166D01*
X47319845Y-13589287D01*
X46663037Y-13588714D01*
X46056005Y-13839534D01*
X45719821Y-14175132D01*
X45386437Y-13841166D01*
X44779845Y-13589287D01*
X44123037Y-13588714D01*
X43516005Y-13839534D01*
X43179821Y-14175132D01*
X42846437Y-13841166D01*
X42239845Y-13589287D01*
X41583037Y-13588714D01*
X40976005Y-13839534D01*
X40552435Y-14262366D01*
X40534107Y-14255498D01*
X39549605Y-15240000D01*
X40534107Y-16224502D01*
X40552917Y-16217453D01*
X40973563Y-16638834D01*
X41025000Y-16660193D01*
X41025000Y-21870421D01*
X39848420Y-23047000D01*
X36278005Y-23047000D01*
X36278000Y-23046999D01*
X35939326Y-23114366D01*
X35939324Y-23114367D01*
X35939325Y-23114367D01*
X35652210Y-23306210D01*
X35652208Y-23306213D01*
X33664210Y-25294210D01*
X33472367Y-25581325D01*
X33472367Y-25581326D01*
X33404999Y-25920000D01*
X33405000Y-25920005D01*
X33405000Y-28975712D01*
X33204591Y-29109621D01*
X32871845Y-29607611D01*
X32755000Y-30195030D01*
X26199819Y-30195030D01*
X26381573Y-29923017D01*
X26487000Y-29393000D01*
X26487000Y-22723247D01*
X26500834Y-22709437D01*
X26752713Y-22102845D01*
X26753286Y-21446037D01*
X26502466Y-20839005D01*
X26038437Y-20374166D01*
X25431845Y-20122287D01*
X24775037Y-20121714D01*
X24168005Y-20372534D01*
X23703166Y-20836563D01*
X23451287Y-21443155D01*
X23450714Y-22099963D01*
X23701534Y-22706995D01*
X23717000Y-22722488D01*
X23717000Y-28819314D01*
X23254598Y-29281716D01*
X22653057Y-29530106D01*
X22192722Y-29989637D01*
X21943284Y-30590352D01*
X21942716Y-31240795D01*
X22191106Y-31841943D01*
X22650637Y-32302278D01*
X23251352Y-32551716D01*
X23254032Y-32551718D01*
X23717000Y-33014686D01*
X23717000Y-38549000D01*
X19387000Y-38549000D01*
X18856983Y-38654427D01*
X18463067Y-38917633D01*
X18407657Y-38954657D01*
X16375657Y-40986657D01*
X16075427Y-41435983D01*
X15970000Y-41966000D01*
X14382000Y-41966000D01*
X14382000Y-32069532D01*
X17605073Y-32069532D01*
X17703736Y-32336387D01*
X18313461Y-32562908D01*
X18963460Y-32538856D01*
X19452264Y-32336387D01*
X19550927Y-32069532D01*
X18578000Y-31096605D01*
X17605073Y-32069532D01*
X14382000Y-32069532D01*
X14382000Y-30652461D01*
X16932092Y-30652461D01*
X16956144Y-31302460D01*
X17158613Y-31791264D01*
X17425468Y-31889927D01*
X18398395Y-30917000D01*
X18757605Y-30917000D01*
X19730532Y-31889927D01*
X19997387Y-31791264D01*
X20223908Y-31181539D01*
X20199856Y-30531540D01*
X19997387Y-30042736D01*
X19730532Y-29944073D01*
X18757605Y-30917000D01*
X18398395Y-30917000D01*
X17425468Y-29944073D01*
X17158613Y-30042736D01*
X16932092Y-30652461D01*
X14382000Y-30652461D01*
X14382000Y-29764468D01*
X17605073Y-29764468D01*
X18578000Y-30737395D01*
X19550927Y-29764468D01*
X19452264Y-29497613D01*
X18842539Y-29271092D01*
X18192540Y-29295144D01*
X17703736Y-29497613D01*
X17605073Y-29764468D01*
X14382000Y-29764468D01*
X14382000Y-22099963D01*
X15830714Y-22099963D01*
X16081534Y-22706995D01*
X16545563Y-23171834D01*
X17152155Y-23423713D01*
X17808963Y-23424286D01*
X18415995Y-23173466D01*
X18880834Y-22709437D01*
X19132713Y-22102845D01*
X19133286Y-21446037D01*
X18882466Y-20839005D01*
X18867000Y-20823512D01*
X18867000Y-16889138D01*
X19006690Y-16947000D01*
X19863250Y-16947000D01*
X20022000Y-16788250D01*
X20022000Y-15423000D01*
X20276000Y-15423000D01*
X20276000Y-16788250D01*
X20434750Y-16947000D01*
X21291310Y-16947000D01*
X21524699Y-16850327D01*
X21703327Y-16671698D01*
X21800000Y-16438309D01*
X21800000Y-15581750D01*
X21641250Y-15423000D01*
X20276000Y-15423000D01*
X20022000Y-15423000D01*
X20002000Y-15423000D01*
X20002000Y-15207655D01*
X32639000Y-15207655D01*
X32639000Y-15272345D01*
X32764675Y-15904155D01*
X33122567Y-16439778D01*
X33658190Y-16797670D01*
X34290000Y-16923345D01*
X34921810Y-16797670D01*
X35457433Y-16439778D01*
X35552630Y-16297306D01*
X35893563Y-16638834D01*
X36500155Y-16890713D01*
X37156963Y-16891286D01*
X37763995Y-16640466D01*
X38000766Y-16404107D01*
X38385498Y-16404107D01*
X38486120Y-16672622D01*
X39101642Y-16901816D01*
X39758019Y-16878014D01*
X40253880Y-16672622D01*
X40354502Y-16404107D01*
X39370000Y-15419605D01*
X38385498Y-16404107D01*
X38000766Y-16404107D01*
X38187565Y-16217634D01*
X38205893Y-16224502D01*
X39190395Y-15240000D01*
X38205893Y-14255498D01*
X38187083Y-14262547D01*
X38000755Y-14075893D01*
X38385498Y-14075893D01*
X39370000Y-15060395D01*
X40354502Y-14075893D01*
X40253880Y-13807378D01*
X39638358Y-13578184D01*
X38981981Y-13601986D01*
X38486120Y-13807378D01*
X38385498Y-14075893D01*
X38000755Y-14075893D01*
X37766437Y-13841166D01*
X37159845Y-13589287D01*
X36503037Y-13588714D01*
X35896005Y-13839534D01*
X35552476Y-14182464D01*
X35457433Y-14040222D01*
X34921810Y-13682330D01*
X34290000Y-13556655D01*
X33658190Y-13682330D01*
X33122567Y-14040222D01*
X32764675Y-14575845D01*
X32639000Y-15207655D01*
X20002000Y-15207655D01*
X20002000Y-15169000D01*
X20022000Y-15169000D01*
X20022000Y-13803750D01*
X20276000Y-13803750D01*
X20276000Y-15169000D01*
X21641250Y-15169000D01*
X21800000Y-15010250D01*
X21800000Y-14153691D01*
X21703327Y-13920302D01*
X21524699Y-13741673D01*
X21291310Y-13645000D01*
X20434750Y-13645000D01*
X20276000Y-13803750D01*
X20022000Y-13803750D01*
X19863250Y-13645000D01*
X19006690Y-13645000D01*
X18773301Y-13741673D01*
X18594673Y-13920302D01*
X18577001Y-13962966D01*
X18240810Y-13738330D01*
X17609000Y-13612655D01*
X16977190Y-13738330D01*
X16441567Y-14096222D01*
X16083675Y-14631845D01*
X15958000Y-15263655D01*
X15958000Y-15328345D01*
X16083675Y-15960155D01*
X16097000Y-15980097D01*
X16097000Y-20822753D01*
X16083166Y-20836563D01*
X15831287Y-21443155D01*
X15830714Y-22099963D01*
X14382000Y-22099963D01*
X14382000Y-13085000D01*
X131326000Y-13085000D01*
X131326000Y-119793969D01*
X131326000Y-119793969D01*
G37*
X131326000Y-119793969D02*
X131023619Y-119063949D01*
X130159756Y-118197921D01*
X129030237Y-117728402D01*
X128541780Y-117828719D01*
X128541780Y-120675400D01*
X128561780Y-120675400D01*
X128561780Y-120929400D01*
X128541780Y-120929400D01*
X128541780Y-123776081D01*
X129030237Y-123876398D01*
X130159756Y-123406879D01*
X131023619Y-122540851D01*
X131326000Y-121810831D01*
X131326000Y-129013000D01*
X14382000Y-129013000D01*
X14382000Y-120929402D01*
X14532141Y-120929402D01*
X14431686Y-121417856D01*
X14896841Y-122540851D01*
X15760704Y-123406879D01*
X16890223Y-123876398D01*
X17378680Y-123776081D01*
X17378680Y-120929400D01*
X17632680Y-120929400D01*
X17632680Y-123776081D01*
X18121137Y-123876398D01*
X19250656Y-123406879D01*
X20114519Y-122540851D01*
X20579674Y-121417856D01*
X24629786Y-121417856D01*
X25094941Y-122540851D01*
X25958804Y-123406879D01*
X27088323Y-123876398D01*
X27576780Y-123776081D01*
X27576780Y-120929400D01*
X27830780Y-120929400D01*
X27830780Y-123776081D01*
X28319237Y-123876398D01*
X29448756Y-123406879D01*
X30312619Y-122540851D01*
X30777774Y-121417856D01*
X30763173Y-121346856D01*
X30770686Y-121346856D01*
X31235841Y-122469851D01*
X32099704Y-123335879D01*
X33229223Y-123805398D01*
X33717680Y-123705081D01*
X33717680Y-120858400D01*
X33971680Y-120858400D01*
X33971680Y-123705081D01*
X34460137Y-123805398D01*
X35589656Y-123335879D01*
X36453519Y-122469851D01*
X36918674Y-121346856D01*
X40968786Y-121346856D01*
X41433941Y-122469851D01*
X42297804Y-123335879D01*
X43427323Y-123805398D01*
X43915780Y-123705081D01*
X43915780Y-120858400D01*
X44169780Y-120858400D01*
X44169780Y-123705081D01*
X44658237Y-123805398D01*
X45787756Y-123335879D01*
X46651619Y-122469851D01*
X47087365Y-121417856D01*
X51388686Y-121417856D01*
X51853841Y-122540851D01*
X52717704Y-123406879D01*
X53847223Y-123876398D01*
X54335680Y-123776081D01*
X54335680Y-120929400D01*
X54589680Y-120929400D01*
X54589680Y-123776081D01*
X55078137Y-123876398D01*
X56207656Y-123406879D01*
X57071519Y-122540851D01*
X57536674Y-121417856D01*
X61586786Y-121417856D01*
X62051941Y-122540851D01*
X62915804Y-123406879D01*
X64045323Y-123876398D01*
X64533780Y-123776081D01*
X64533780Y-120929400D01*
X64787780Y-120929400D01*
X64787780Y-123776081D01*
X65276237Y-123876398D01*
X66405756Y-123406879D01*
X67269619Y-122540851D01*
X67734774Y-121417856D01*
X67634319Y-120929400D01*
X64787780Y-120929400D01*
X64533780Y-120929400D01*
X61687241Y-120929400D01*
X61586786Y-121417856D01*
X57536674Y-121417856D01*
X57436219Y-120929400D01*
X54589680Y-120929400D01*
X54335680Y-120929400D01*
X51489141Y-120929400D01*
X51388686Y-121417856D01*
X47087365Y-121417856D01*
X47116774Y-121346856D01*
X47016319Y-120858400D01*
X44169780Y-120858400D01*
X43915780Y-120858400D01*
X41069241Y-120858400D01*
X40968786Y-121346856D01*
X36918674Y-121346856D01*
X36818219Y-120858400D01*
X33971680Y-120858400D01*
X33717680Y-120858400D01*
X30871141Y-120858400D01*
X30770686Y-121346856D01*
X30763173Y-121346856D01*
X30677319Y-120929400D01*
X27830780Y-120929400D01*
X27576780Y-120929400D01*
X24730241Y-120929400D01*
X24629786Y-121417856D01*
X20579674Y-121417856D01*
X20479219Y-120929400D01*
X17632680Y-120929400D01*
X17378680Y-120929400D01*
X17358680Y-120929400D01*
X17358680Y-120675400D01*
X17378680Y-120675400D01*
X17378680Y-117828719D01*
X17632680Y-117828719D01*
X17632680Y-120675400D01*
X20479219Y-120675400D01*
X20579674Y-120186944D01*
X24629786Y-120186944D01*
X24730241Y-120675400D01*
X27576780Y-120675400D01*
X27576780Y-117828719D01*
X27830780Y-117828719D01*
X27830780Y-120675400D01*
X30677319Y-120675400D01*
X30777774Y-120186944D01*
X30748366Y-120115944D01*
X30770686Y-120115944D01*
X30871141Y-120604400D01*
X33717680Y-120604400D01*
X33717680Y-117757719D01*
X33971680Y-117757719D01*
X33971680Y-120604400D01*
X36818219Y-120604400D01*
X36918674Y-120115944D01*
X40968786Y-120115944D01*
X41069241Y-120604400D01*
X43915780Y-120604400D01*
X43915780Y-117757719D01*
X44169780Y-117757719D01*
X44169780Y-120604400D01*
X47016319Y-120604400D01*
X47102172Y-120186944D01*
X51388686Y-120186944D01*
X51489141Y-120675400D01*
X54335680Y-120675400D01*
X54335680Y-117828719D01*
X54589680Y-117828719D01*
X54589680Y-120675400D01*
X57436219Y-120675400D01*
X57536674Y-120186944D01*
X61586786Y-120186944D01*
X61687241Y-120675400D01*
X64533780Y-120675400D01*
X64533780Y-117828719D01*
X64787780Y-117828719D01*
X64787780Y-120675400D01*
X67634319Y-120675400D01*
X67734774Y-120186944D01*
X67269619Y-119063949D01*
X66405756Y-118197921D01*
X65276237Y-117728402D01*
X64787780Y-117828719D01*
X64533780Y-117828719D01*
X64045323Y-117728402D01*
X62915804Y-118197921D01*
X62051941Y-119063949D01*
X61586786Y-120186944D01*
X57536674Y-120186944D01*
X57071519Y-119063949D01*
X56207656Y-118197921D01*
X55078137Y-117728402D01*
X54589680Y-117828719D01*
X54335680Y-117828719D01*
X53847223Y-117728402D01*
X52717704Y-118197921D01*
X51853841Y-119063949D01*
X51388686Y-120186944D01*
X47102172Y-120186944D01*
X47116774Y-120115944D01*
X46651619Y-118992949D01*
X45787756Y-118126921D01*
X44658237Y-117657402D01*
X44169780Y-117757719D01*
X43915780Y-117757719D01*
X43427323Y-117657402D01*
X42297804Y-118126921D01*
X41433941Y-118992949D01*
X40968786Y-120115944D01*
X36918674Y-120115944D01*
X36453519Y-118992949D01*
X35589656Y-118126921D01*
X34460137Y-117657402D01*
X33971680Y-117757719D01*
X33717680Y-117757719D01*
X33229223Y-117657402D01*
X32099704Y-118126921D01*
X31235841Y-118992949D01*
X30770686Y-120115944D01*
X30748366Y-120115944D01*
X30312619Y-119063949D01*
X29448756Y-118197921D01*
X28319237Y-117728402D01*
X27830780Y-117828719D01*
X27576780Y-117828719D01*
X27088323Y-117728402D01*
X25958804Y-118197921D01*
X25094941Y-119063949D01*
X24629786Y-120186944D01*
X20579674Y-120186944D01*
X20114519Y-119063949D01*
X19250656Y-118197921D01*
X18121137Y-117728402D01*
X17632680Y-117828719D01*
X17378680Y-117828719D01*
X16890223Y-117728402D01*
X15760704Y-118197921D01*
X14896841Y-119063949D01*
X14431686Y-120186944D01*
X14532141Y-120675398D01*
X14382000Y-120675398D01*
X14382000Y-116300811D01*
X20921000Y-116300811D01*
X20921000Y-116774669D01*
X21049263Y-117419491D01*
X21414525Y-117966144D01*
X21961178Y-118331406D01*
X22606000Y-118459669D01*
X23250822Y-118331406D01*
X23797475Y-117966144D01*
X23875546Y-117849302D01*
X24054270Y-118060245D01*
X24640380Y-118361810D01*
X24717081Y-118377394D01*
X24978360Y-118258697D01*
X24978360Y-116664740D01*
X25232360Y-116664740D01*
X25232360Y-118258697D01*
X25493639Y-118377394D01*
X25570340Y-118361810D01*
X26156450Y-118060245D01*
X26582541Y-117557341D01*
X26783745Y-116929660D01*
X26634354Y-116664740D01*
X25232360Y-116664740D01*
X24978360Y-116664740D01*
X24958360Y-116664740D01*
X24958360Y-116410740D01*
X24978360Y-116410740D01*
X24978360Y-114816783D01*
X25232360Y-114816783D01*
X25232360Y-116410740D01*
X26634354Y-116410740D01*
X26736381Y-116229811D01*
X37260000Y-116229811D01*
X37260000Y-116703669D01*
X37388263Y-117348491D01*
X37753525Y-117895144D01*
X38300178Y-118260406D01*
X38945000Y-118388669D01*
X39589822Y-118260406D01*
X40136475Y-117895144D01*
X40214546Y-117778302D01*
X40393270Y-117989245D01*
X40979380Y-118290810D01*
X41056081Y-118306394D01*
X41317360Y-118187697D01*
X41317360Y-116593740D01*
X41571360Y-116593740D01*
X41571360Y-118187697D01*
X41832639Y-118306394D01*
X41909340Y-118290810D01*
X42495450Y-117989245D01*
X42921541Y-117486341D01*
X43122745Y-116858660D01*
X42973354Y-116593740D01*
X41571360Y-116593740D01*
X41317360Y-116593740D01*
X41297360Y-116593740D01*
X41297360Y-116339740D01*
X41317360Y-116339740D01*
X41317360Y-114745783D01*
X41571360Y-114745783D01*
X41571360Y-116339740D01*
X42973354Y-116339740D01*
X42995306Y-116300811D01*
X57878000Y-116300811D01*
X57878000Y-116774669D01*
X58006263Y-117419491D01*
X58371525Y-117966144D01*
X58918178Y-118331406D01*
X59563000Y-118459669D01*
X60207822Y-118331406D01*
X60754475Y-117966144D01*
X60832546Y-117849302D01*
X61011270Y-118060245D01*
X61597380Y-118361810D01*
X61674081Y-118377394D01*
X61935360Y-118258697D01*
X61935360Y-116664740D01*
X62189360Y-116664740D01*
X62189360Y-118258697D01*
X62450639Y-118377394D01*
X62527340Y-118361810D01*
X63113450Y-118060245D01*
X63539541Y-117557341D01*
X63740745Y-116929660D01*
X63591354Y-116664740D01*
X62189360Y-116664740D01*
X61935360Y-116664740D01*
X61915360Y-116664740D01*
X61915360Y-116410740D01*
X61935360Y-116410740D01*
X61935360Y-114816783D01*
X62189360Y-114816783D01*
X62189360Y-116410740D01*
X63591354Y-116410740D01*
X63740745Y-116145820D01*
X63539541Y-115518139D01*
X63113450Y-115015235D01*
X62527340Y-114713670D01*
X62450639Y-114698086D01*
X62189360Y-114816783D01*
X61935360Y-114816783D01*
X61674081Y-114698086D01*
X61597380Y-114713670D01*
X61011270Y-115015235D01*
X60832546Y-115226178D01*
X60754475Y-115109336D01*
X60207822Y-114744074D01*
X59563000Y-114615811D01*
X58918178Y-114744074D01*
X58371525Y-115109336D01*
X58006263Y-115655989D01*
X57878000Y-116300811D01*
X42995306Y-116300811D01*
X43122745Y-116074820D01*
X42921541Y-115447139D01*
X42495450Y-114944235D01*
X41909340Y-114642670D01*
X41832639Y-114627086D01*
X41571360Y-114745783D01*
X41317360Y-114745783D01*
X41056081Y-114627086D01*
X40979380Y-114642670D01*
X40393270Y-114944235D01*
X40214546Y-115155178D01*
X40136475Y-115038336D01*
X39589822Y-114673074D01*
X38945000Y-114544811D01*
X38300178Y-114673074D01*
X37753525Y-115038336D01*
X37388263Y-115584989D01*
X37260000Y-116229811D01*
X26736381Y-116229811D01*
X26783745Y-116145820D01*
X26582541Y-115518139D01*
X26156450Y-115015235D01*
X25570340Y-114713670D01*
X25493639Y-114698086D01*
X25232360Y-114816783D01*
X24978360Y-114816783D01*
X24717081Y-114698086D01*
X24640380Y-114713670D01*
X24054270Y-115015235D01*
X23875546Y-115226178D01*
X23797475Y-115109336D01*
X23250822Y-114744074D01*
X22606000Y-114615811D01*
X21961178Y-114744074D01*
X21414525Y-115109336D01*
X21049263Y-115655989D01*
X20921000Y-116300811D01*
X14382000Y-116300811D01*
X14382000Y-41966000D01*
X15970000Y-41966000D01*
X15970000Y-85654000D01*
X16075427Y-86184017D01*
X16375657Y-86633343D01*
X22598657Y-92856343D01*
X23047983Y-93156573D01*
X23578000Y-93262000D01*
X50436314Y-93262000D01*
X68445657Y-111271343D01*
X68894984Y-111571574D01*
X69425000Y-111677000D01*
X77487314Y-111677000D01*
X89090657Y-123280343D01*
X89539984Y-123580574D01*
X90070000Y-123686000D01*
X93155151Y-123686000D01*
X93437313Y-123874534D01*
X94063000Y-123998991D01*
X94688687Y-123874534D01*
X95219120Y-123520111D01*
X95573543Y-122989678D01*
X95698000Y-122363991D01*
X95698000Y-122096009D01*
X95573543Y-121470322D01*
X95538487Y-121417856D01*
X115142686Y-121417856D01*
X115607841Y-122540851D01*
X116471704Y-123406879D01*
X117601223Y-123876398D01*
X118089680Y-123776081D01*
X118089680Y-120929400D01*
X118343680Y-120929400D01*
X118343680Y-123776081D01*
X118832137Y-123876398D01*
X119961656Y-123406879D01*
X120825519Y-122540851D01*
X121290674Y-121417856D01*
X125340786Y-121417856D01*
X125805941Y-122540851D01*
X126669804Y-123406879D01*
X127799323Y-123876398D01*
X128287780Y-123776081D01*
X128287780Y-120929400D01*
X125441241Y-120929400D01*
X125340786Y-121417856D01*
X121290674Y-121417856D01*
X121190219Y-120929400D01*
X118343680Y-120929400D01*
X118089680Y-120929400D01*
X115243141Y-120929400D01*
X115142686Y-121417856D01*
X95538487Y-121417856D01*
X95219120Y-120939889D01*
X94688687Y-120585466D01*
X94063000Y-120461009D01*
X93437313Y-120585466D01*
X92942633Y-120916000D01*
X90643686Y-120916000D01*
X89798120Y-120070434D01*
X94912876Y-120070434D01*
X95165234Y-120628571D01*
X95626241Y-121069067D01*
X96220726Y-121299613D01*
X96476000Y-121165203D01*
X96476000Y-119817000D01*
X96730000Y-119817000D01*
X96730000Y-121165203D01*
X96985274Y-121299613D01*
X97579759Y-121069067D01*
X98040766Y-120628571D01*
X98240444Y-120186944D01*
X115142686Y-120186944D01*
X115243141Y-120675400D01*
X118089680Y-120675400D01*
X118089680Y-117828719D01*
X118343680Y-117828719D01*
X118343680Y-120675400D01*
X121190219Y-120675400D01*
X121290674Y-120186944D01*
X125340786Y-120186944D01*
X125441241Y-120675400D01*
X128287780Y-120675400D01*
X128287780Y-117828719D01*
X127799323Y-117728402D01*
X126669804Y-118197921D01*
X125805941Y-119063949D01*
X125340786Y-120186944D01*
X121290674Y-120186944D01*
X120825519Y-119063949D01*
X119961656Y-118197921D01*
X118832137Y-117728402D01*
X118343680Y-117828719D01*
X118089680Y-117828719D01*
X117601223Y-117728402D01*
X116471704Y-118197921D01*
X115607841Y-119063949D01*
X115142686Y-120186944D01*
X98240444Y-120186944D01*
X98293124Y-120070434D01*
X98173777Y-119817000D01*
X96730000Y-119817000D01*
X96476000Y-119817000D01*
X95032223Y-119817000D01*
X94912876Y-120070434D01*
X89798120Y-120070434D01*
X89037252Y-119309566D01*
X94912876Y-119309566D01*
X95032223Y-119563000D01*
X96476000Y-119563000D01*
X96476000Y-118214797D01*
X96730000Y-118214797D01*
X96730000Y-119563000D01*
X98173777Y-119563000D01*
X98293124Y-119309566D01*
X98040766Y-118751429D01*
X97579759Y-118310933D01*
X96985274Y-118080387D01*
X96730000Y-118214797D01*
X96476000Y-118214797D01*
X96220726Y-118080387D01*
X95626241Y-118310933D01*
X95165234Y-118751429D01*
X94912876Y-119309566D01*
X89037252Y-119309566D01*
X86743695Y-117016009D01*
X92428000Y-117016009D01*
X92428000Y-117283991D01*
X92552457Y-117909678D01*
X92906880Y-118440111D01*
X93437313Y-118794534D01*
X94063000Y-118918991D01*
X94688687Y-118794534D01*
X95219120Y-118440111D01*
X95573543Y-117909678D01*
X95698000Y-117283991D01*
X95698000Y-117016009D01*
X95573543Y-116390322D01*
X95513734Y-116300811D01*
X121632000Y-116300811D01*
X121632000Y-116774669D01*
X121760263Y-117419491D01*
X122125525Y-117966144D01*
X122672178Y-118331406D01*
X123317000Y-118459669D01*
X123961822Y-118331406D01*
X124508475Y-117966144D01*
X124586546Y-117849302D01*
X124765270Y-118060245D01*
X125351380Y-118361810D01*
X125428081Y-118377394D01*
X125689360Y-118258697D01*
X125689360Y-116664740D01*
X125943360Y-116664740D01*
X125943360Y-118258697D01*
X126204639Y-118377394D01*
X126281340Y-118361810D01*
X126867450Y-118060245D01*
X127293541Y-117557341D01*
X127494745Y-116929660D01*
X127345354Y-116664740D01*
X125943360Y-116664740D01*
X125689360Y-116664740D01*
X125669360Y-116664740D01*
X125669360Y-116410740D01*
X125689360Y-116410740D01*
X125689360Y-114816783D01*
X125943360Y-114816783D01*
X125943360Y-116410740D01*
X127345354Y-116410740D01*
X127494745Y-116145820D01*
X127293541Y-115518139D01*
X126867450Y-115015235D01*
X126281340Y-114713670D01*
X126204639Y-114698086D01*
X125943360Y-114816783D01*
X125689360Y-114816783D01*
X125428081Y-114698086D01*
X125351380Y-114713670D01*
X124765270Y-115015235D01*
X124586546Y-115226178D01*
X124508475Y-115109336D01*
X123961822Y-114744074D01*
X123317000Y-114615811D01*
X122672178Y-114744074D01*
X122125525Y-115109336D01*
X121760263Y-115655989D01*
X121632000Y-116300811D01*
X95513734Y-116300811D01*
X95219120Y-115859889D01*
X94688687Y-115505466D01*
X94063000Y-115381009D01*
X93437313Y-115505466D01*
X92906880Y-115859889D01*
X92552457Y-116390322D01*
X92428000Y-117016009D01*
X86743695Y-117016009D01*
X79040343Y-109312657D01*
X78591017Y-109012427D01*
X78061000Y-108907000D01*
X69998686Y-108907000D01*
X68685753Y-107594067D01*
X121175925Y-107594067D01*
X121469890Y-108305518D01*
X122013739Y-108850317D01*
X122724676Y-109145523D01*
X123494467Y-109146195D01*
X124205918Y-108852230D01*
X124478303Y-108580319D01*
X127920886Y-108580319D01*
X128056244Y-108878315D01*
X128774620Y-109154926D01*
X129544167Y-109135570D01*
X130165236Y-108878315D01*
X130300594Y-108580319D01*
X129110740Y-107390465D01*
X127920886Y-108580319D01*
X124478303Y-108580319D01*
X124750717Y-108308381D01*
X125045923Y-107597444D01*
X125046553Y-106874740D01*
X127166674Y-106874740D01*
X127186030Y-107644287D01*
X127443285Y-108265356D01*
X127741281Y-108400714D01*
X128931135Y-107210860D01*
X129290345Y-107210860D01*
X130480199Y-108400714D01*
X130778195Y-108265356D01*
X131054806Y-107546980D01*
X131035450Y-106777433D01*
X130778195Y-106156364D01*
X130480199Y-106021006D01*
X129290345Y-107210860D01*
X128931135Y-107210860D01*
X127741281Y-106021006D01*
X127443285Y-106156364D01*
X127166674Y-106874740D01*
X125046553Y-106874740D01*
X125046595Y-106827653D01*
X124752630Y-106116202D01*
X124478309Y-105841401D01*
X127920886Y-105841401D01*
X129110740Y-107031255D01*
X130300594Y-105841401D01*
X130165236Y-105543405D01*
X129446860Y-105266794D01*
X128677313Y-105286150D01*
X128056244Y-105543405D01*
X127920886Y-105841401D01*
X124478309Y-105841401D01*
X124208781Y-105571403D01*
X123497844Y-105276197D01*
X122728053Y-105275525D01*
X122016602Y-105569490D01*
X121471803Y-106113339D01*
X121176597Y-106824276D01*
X121175925Y-107594067D01*
X68685753Y-107594067D01*
X66317481Y-105225795D01*
X75961716Y-105225795D01*
X76210106Y-105826943D01*
X76669637Y-106287278D01*
X77270352Y-106536716D01*
X77920795Y-106537284D01*
X78521943Y-106288894D01*
X78982278Y-105829363D01*
X79231716Y-105228648D01*
X79231726Y-105216388D01*
X89979225Y-105216388D01*
X90220398Y-105800072D01*
X90666579Y-106247032D01*
X91249841Y-106489224D01*
X91881388Y-106489775D01*
X92465072Y-106248602D01*
X92912032Y-105802421D01*
X93154224Y-105219159D01*
X93154775Y-104587612D01*
X92913602Y-104003928D01*
X92467421Y-103556968D01*
X91884159Y-103314776D01*
X91252612Y-103314225D01*
X90668928Y-103555398D01*
X90221968Y-104001579D01*
X89979776Y-104584841D01*
X89979225Y-105216388D01*
X79231726Y-105216388D01*
X79232284Y-104578205D01*
X78983894Y-103977057D01*
X78524363Y-103516722D01*
X77923648Y-103267284D01*
X77273205Y-103266716D01*
X76672057Y-103515106D01*
X76211722Y-103974637D01*
X75962284Y-104575352D01*
X75961716Y-105225795D01*
X66317481Y-105225795D01*
X61237481Y-100145795D01*
X75961716Y-100145795D01*
X76210106Y-100746943D01*
X76669637Y-101207278D01*
X77270352Y-101456716D01*
X77920795Y-101457284D01*
X78521943Y-101208894D01*
X78982278Y-100749363D01*
X79231716Y-100148648D01*
X79231726Y-100136388D01*
X89979225Y-100136388D01*
X90220398Y-100720072D01*
X90666579Y-101167032D01*
X91249841Y-101409224D01*
X91881388Y-101409775D01*
X92465072Y-101168602D01*
X92912032Y-100722421D01*
X93154224Y-100139159D01*
X93154775Y-99507612D01*
X92913602Y-98923928D01*
X92467421Y-98476968D01*
X91884159Y-98234776D01*
X91252612Y-98234225D01*
X90668928Y-98475398D01*
X90221968Y-98921579D01*
X89979776Y-99504841D01*
X89979225Y-100136388D01*
X79231726Y-100136388D01*
X79232284Y-99498205D01*
X78983894Y-98897057D01*
X78524363Y-98436722D01*
X77923648Y-98187284D01*
X77273205Y-98186716D01*
X76672057Y-98435106D01*
X76211722Y-98894637D01*
X75962284Y-99495352D01*
X75961716Y-100145795D01*
X61237481Y-100145795D01*
X54887481Y-93795795D01*
X75961716Y-93795795D01*
X76210106Y-94396943D01*
X76669637Y-94857278D01*
X77270352Y-95106716D01*
X77920795Y-95107284D01*
X78521943Y-94858894D01*
X78982278Y-94399363D01*
X79231716Y-93798648D01*
X79231726Y-93786388D01*
X89979225Y-93786388D01*
X90220398Y-94370072D01*
X90666579Y-94817032D01*
X91249841Y-95059224D01*
X91881388Y-95059775D01*
X92465072Y-94818602D01*
X92689718Y-94594347D01*
X121175925Y-94594347D01*
X121469890Y-95305798D01*
X122013739Y-95850597D01*
X122724676Y-96145803D01*
X123494467Y-96146475D01*
X124205918Y-95852510D01*
X124750717Y-95308661D01*
X125045923Y-94597724D01*
X125045925Y-94594347D01*
X127175405Y-94594347D01*
X127469370Y-95305798D01*
X128013219Y-95850597D01*
X128724156Y-96145803D01*
X129493947Y-96146475D01*
X130205398Y-95852510D01*
X130750197Y-95308661D01*
X131045403Y-94597724D01*
X131046075Y-93827933D01*
X130752110Y-93116482D01*
X130208261Y-92571683D01*
X129497324Y-92276477D01*
X128727533Y-92275805D01*
X128016082Y-92569770D01*
X127471283Y-93113619D01*
X127176077Y-93824556D01*
X127175405Y-94594347D01*
X125045925Y-94594347D01*
X125046595Y-93827933D01*
X124752630Y-93116482D01*
X124208781Y-92571683D01*
X123497844Y-92276477D01*
X122728053Y-92275805D01*
X122016602Y-92569770D01*
X121471803Y-93113619D01*
X121176597Y-93824556D01*
X121175925Y-94594347D01*
X92689718Y-94594347D01*
X92912032Y-94372421D01*
X93154224Y-93789159D01*
X93154775Y-93157612D01*
X92913602Y-92573928D01*
X92467421Y-92126968D01*
X91884159Y-91884776D01*
X91252612Y-91884225D01*
X90668928Y-92125398D01*
X90221968Y-92571579D01*
X89979776Y-93154841D01*
X89979225Y-93786388D01*
X79231726Y-93786388D01*
X79232284Y-93148205D01*
X78983894Y-92547057D01*
X78524363Y-92086722D01*
X77923648Y-91837284D01*
X77273205Y-91836716D01*
X76672057Y-92085106D01*
X76211722Y-92544637D01*
X75962284Y-93145352D01*
X75961716Y-93795795D01*
X54887481Y-93795795D01*
X51989343Y-90897657D01*
X51540017Y-90597427D01*
X51010000Y-90492000D01*
X24151686Y-90492000D01*
X22375481Y-88715795D01*
X75961716Y-88715795D01*
X76210106Y-89316943D01*
X76669637Y-89777278D01*
X77270352Y-90026716D01*
X77920795Y-90027284D01*
X78521943Y-89778894D01*
X78982278Y-89319363D01*
X79231716Y-88718648D01*
X79231726Y-88706388D01*
X89979225Y-88706388D01*
X90220398Y-89290072D01*
X90666579Y-89737032D01*
X91249841Y-89979224D01*
X91881388Y-89979775D01*
X92465072Y-89738602D01*
X92912032Y-89292421D01*
X93154224Y-88709159D01*
X93154775Y-88077612D01*
X92913602Y-87493928D01*
X92467421Y-87046968D01*
X91884159Y-86804776D01*
X91252612Y-86804225D01*
X90668928Y-87045398D01*
X90221968Y-87491579D01*
X89979776Y-88074841D01*
X89979225Y-88706388D01*
X79231726Y-88706388D01*
X79232284Y-88068205D01*
X78983894Y-87467057D01*
X78524363Y-87006722D01*
X77923648Y-86757284D01*
X77273205Y-86756716D01*
X76672057Y-87005106D01*
X76211722Y-87464637D01*
X75962284Y-88065352D01*
X75961716Y-88715795D01*
X22375481Y-88715795D01*
X18740000Y-85080314D01*
X18740000Y-61264031D01*
X20026561Y-61264031D01*
X20411678Y-62196086D01*
X21124163Y-62909816D01*
X22055545Y-63296559D01*
X23064031Y-63297439D01*
X23996086Y-62912322D01*
X24709816Y-62199837D01*
X25096559Y-61268455D01*
X25097439Y-60259969D01*
X24712322Y-59327914D01*
X23999837Y-58614184D01*
X23068455Y-58227441D01*
X22059969Y-58226561D01*
X21127914Y-58611678D01*
X20414184Y-59324163D01*
X20027441Y-60255545D01*
X20026561Y-61264031D01*
X18740000Y-61264031D01*
X18740000Y-45736894D01*
X18887000Y-45956895D01*
X18887000Y-46157000D01*
X18973397Y-46591346D01*
X19168488Y-46883320D01*
X19219434Y-46959566D01*
X36006368Y-63746500D01*
X35094434Y-64658434D01*
X34848397Y-65026654D01*
X34762000Y-65461000D01*
X34762000Y-83495000D01*
X34848397Y-83929346D01*
X35094434Y-84297566D01*
X35462654Y-84543603D01*
X35897000Y-84630000D01*
X36331346Y-84543603D01*
X36699566Y-84297566D01*
X36945603Y-83929346D01*
X37032000Y-83495000D01*
X37032000Y-65931132D01*
X38145132Y-64818000D01*
X50920868Y-64818000D01*
X60875434Y-74772566D01*
X61243654Y-75018603D01*
X61678000Y-75105000D01*
X105112000Y-75105000D01*
X105546346Y-75018603D01*
X105914566Y-74772566D01*
X111297133Y-69390000D01*
X114129000Y-69390000D01*
X114563346Y-69303603D01*
X114931566Y-69057566D01*
X115177603Y-68689346D01*
X115264000Y-68255000D01*
X115177603Y-67820654D01*
X114931566Y-67452434D01*
X114563346Y-67206397D01*
X114129000Y-67120000D01*
X110827000Y-67120000D01*
X110392655Y-67206396D01*
X110024434Y-67452433D01*
X104641868Y-72835000D01*
X97992000Y-72835000D01*
X97992000Y-60000000D01*
X97905603Y-59565654D01*
X97659566Y-59197434D01*
X97291346Y-58951397D01*
X96857000Y-58865000D01*
X96422654Y-58951397D01*
X96054434Y-59197434D01*
X95808397Y-59565654D01*
X95722000Y-60000000D01*
X95722000Y-72835000D01*
X62148132Y-72835000D01*
X55538299Y-66225167D01*
X75391838Y-66225167D01*
X75533883Y-66568943D01*
X75796673Y-66832192D01*
X76140201Y-66974838D01*
X76512167Y-66975162D01*
X76855943Y-66833117D01*
X77119192Y-66570327D01*
X77219778Y-66328090D01*
X78704868Y-64843000D01*
X90078132Y-64843000D01*
X92706465Y-67471333D01*
X92805883Y-67711943D01*
X93068673Y-67975192D01*
X93412201Y-68117838D01*
X93784167Y-68118162D01*
X94127943Y-67976117D01*
X94391192Y-67713327D01*
X94533838Y-67369799D01*
X94534162Y-66997833D01*
X94392117Y-66654057D01*
X94129327Y-66390808D01*
X93887090Y-66290222D01*
X91014434Y-63417566D01*
X90856675Y-63312155D01*
X90743541Y-63236561D01*
X90424000Y-63173000D01*
X78359000Y-63173000D01*
X78039459Y-63236561D01*
X77926325Y-63312155D01*
X77768566Y-63417566D01*
X76038667Y-65147465D01*
X75798057Y-65246883D01*
X75534808Y-65509673D01*
X75392162Y-65853201D01*
X75391838Y-66225167D01*
X55538299Y-66225167D01*
X54019221Y-64706089D01*
X63870517Y-64706089D01*
X63999725Y-64998859D01*
X64699883Y-65267071D01*
X65449384Y-65246928D01*
X66048275Y-64998859D01*
X66177483Y-64706089D01*
X65024000Y-63552605D01*
X63870517Y-64706089D01*
X54019221Y-64706089D01*
X52362015Y-63048883D01*
X63129929Y-63048883D01*
X63150072Y-63798384D01*
X63398141Y-64397275D01*
X63690911Y-64526483D01*
X64844395Y-63373000D01*
X65203605Y-63373000D01*
X66357089Y-64526483D01*
X66649859Y-64397275D01*
X66899252Y-63746241D01*
X70758994Y-63746241D01*
X71045314Y-64439191D01*
X71575021Y-64969822D01*
X72267469Y-65257352D01*
X73017241Y-65258006D01*
X73710191Y-64971686D01*
X74240822Y-64441979D01*
X74528352Y-63749531D01*
X74529006Y-62999759D01*
X74242686Y-62306809D01*
X73712979Y-61776178D01*
X73020531Y-61488648D01*
X72270759Y-61487994D01*
X71577809Y-61774314D01*
X71047178Y-62304021D01*
X70759648Y-62996469D01*
X70758994Y-63746241D01*
X66899252Y-63746241D01*
X66918071Y-63697117D01*
X66897928Y-62947616D01*
X66649859Y-62348725D01*
X66357089Y-62219517D01*
X65203605Y-63373000D01*
X64844395Y-63373000D01*
X63690911Y-62219517D01*
X63398141Y-62348725D01*
X63129929Y-63048883D01*
X52362015Y-63048883D01*
X52193566Y-62880434D01*
X51920380Y-62697897D01*
X51825346Y-62634397D01*
X51391000Y-62548000D01*
X38018133Y-62548000D01*
X37510044Y-62039911D01*
X63870517Y-62039911D01*
X65024000Y-63193395D01*
X66177483Y-62039911D01*
X66048275Y-61747141D01*
X65348117Y-61478929D01*
X64598616Y-61499072D01*
X63999725Y-61747141D01*
X63870517Y-62039911D01*
X37510044Y-62039911D01*
X28033329Y-52563196D01*
X51387409Y-52563196D01*
X51472467Y-52818539D01*
X52041965Y-53026516D01*
X52647700Y-53000723D01*
X53087533Y-52818539D01*
X53172591Y-52563196D01*
X53132591Y-52523196D01*
X56340409Y-52523196D01*
X56425467Y-52778539D01*
X56994965Y-52986516D01*
X57600700Y-52960723D01*
X58040533Y-52778539D01*
X58125591Y-52523196D01*
X57233000Y-51630605D01*
X56340409Y-52523196D01*
X53132591Y-52523196D01*
X52280000Y-51670605D01*
X51387409Y-52563196D01*
X28033329Y-52563196D01*
X26723098Y-51252965D01*
X50744484Y-51252965D01*
X50770277Y-51858700D01*
X50952461Y-52298533D01*
X51207804Y-52383591D01*
X52100395Y-51491000D01*
X52459605Y-51491000D01*
X53352196Y-52383591D01*
X53607539Y-52298533D01*
X53815516Y-51729035D01*
X53793542Y-51212965D01*
X55697484Y-51212965D01*
X55723277Y-51818700D01*
X55905461Y-52258533D01*
X56160804Y-52343591D01*
X57053395Y-51451000D01*
X57412605Y-51451000D01*
X58305196Y-52343591D01*
X58560539Y-52258533D01*
X58768516Y-51689035D01*
X58742723Y-51083300D01*
X58560539Y-50643467D01*
X58305196Y-50558409D01*
X57412605Y-51451000D01*
X57053395Y-51451000D01*
X56160804Y-50558409D01*
X55905461Y-50643467D01*
X55697484Y-51212965D01*
X53793542Y-51212965D01*
X53789723Y-51123300D01*
X53607539Y-50683467D01*
X53352196Y-50598409D01*
X52459605Y-51491000D01*
X52100395Y-51491000D01*
X51207804Y-50598409D01*
X50952461Y-50683467D01*
X50744484Y-51252965D01*
X26723098Y-51252965D01*
X21265158Y-45795025D01*
X21301748Y-45740264D01*
X21566394Y-46073212D01*
X22091914Y-46364756D01*
X22197260Y-46389036D01*
X22435000Y-46268378D01*
X22435000Y-44125000D01*
X22415000Y-44125000D01*
X22415000Y-43871000D01*
X22435000Y-43871000D01*
X22435000Y-41727622D01*
X22197260Y-41606964D01*
X22091914Y-41631244D01*
X21566394Y-41922788D01*
X21301748Y-42255736D01*
X21107409Y-41964887D01*
X20609419Y-41632141D01*
X20022000Y-41515296D01*
X19700425Y-41579261D01*
X19960686Y-41319000D01*
X23717000Y-41319000D01*
X23717000Y-42123320D01*
X23557606Y-41922788D01*
X23032086Y-41631244D01*
X22926740Y-41606964D01*
X22689000Y-41727622D01*
X22689000Y-43871000D01*
X22709000Y-43871000D01*
X22709000Y-44125000D01*
X22689000Y-44125000D01*
X22689000Y-46268378D01*
X22926740Y-46389036D01*
X23032086Y-46364756D01*
X23557606Y-46073212D01*
X23822252Y-45740264D01*
X24016591Y-46031113D01*
X24514581Y-46363859D01*
X25102000Y-46480704D01*
X25689419Y-46363859D01*
X26187409Y-46031113D01*
X26520155Y-45533123D01*
X26637000Y-44945704D01*
X26637000Y-43050296D01*
X26520155Y-42462877D01*
X26487000Y-42413257D01*
X26487000Y-37815030D01*
X32755000Y-37815030D01*
X32755000Y-38384970D01*
X32871845Y-38972389D01*
X33204591Y-39470379D01*
X33702581Y-39803125D01*
X34290000Y-39919970D01*
X34877419Y-39803125D01*
X35375409Y-39470379D01*
X35560000Y-39194119D01*
X35744591Y-39470379D01*
X36242581Y-39803125D01*
X36830000Y-39919970D01*
X37417419Y-39803125D01*
X37915409Y-39470379D01*
X38100000Y-39194119D01*
X38284591Y-39470379D01*
X38782581Y-39803125D01*
X39370000Y-39919970D01*
X39957419Y-39803125D01*
X40455409Y-39470379D01*
X40640000Y-39194119D01*
X40824591Y-39470379D01*
X41322581Y-39803125D01*
X41910000Y-39919970D01*
X42497419Y-39803125D01*
X42995409Y-39470379D01*
X43180000Y-39194119D01*
X43364591Y-39470379D01*
X43862581Y-39803125D01*
X44450000Y-39919970D01*
X45037419Y-39803125D01*
X45535409Y-39470379D01*
X45720000Y-39194119D01*
X45904591Y-39470379D01*
X46402581Y-39803125D01*
X46990000Y-39919970D01*
X47577419Y-39803125D01*
X48075409Y-39470379D01*
X48260000Y-39194119D01*
X48444591Y-39470379D01*
X48942581Y-39803125D01*
X49530000Y-39919970D01*
X50117419Y-39803125D01*
X50615409Y-39470379D01*
X50802801Y-39189926D01*
X51065260Y-39523647D01*
X51590877Y-39818806D01*
X51705260Y-39841036D01*
X51943000Y-39720378D01*
X51943000Y-38227000D01*
X51923000Y-38227000D01*
X51923000Y-37973000D01*
X51943000Y-37973000D01*
X51943000Y-37953000D01*
X52197000Y-37953000D01*
X52197000Y-37973000D01*
X52217000Y-37973000D01*
X52217000Y-38227000D01*
X52197000Y-38227000D01*
X52197000Y-39720378D01*
X52434740Y-39841036D01*
X52549123Y-39818806D01*
X53074740Y-39523647D01*
X53337199Y-39189926D01*
X53524591Y-39470379D01*
X53725000Y-39604288D01*
X53725000Y-41261481D01*
X52429365Y-42557116D01*
X52021775Y-42556760D01*
X51512545Y-42767169D01*
X51122599Y-43156436D01*
X50911301Y-43665298D01*
X50910820Y-44216285D01*
X51121229Y-44725515D01*
X51411060Y-45015852D01*
X51411060Y-47705041D01*
X50988769Y-48126596D01*
X50756265Y-48686528D01*
X50755736Y-49292812D01*
X50987262Y-49853149D01*
X51415596Y-50282231D01*
X51430800Y-50288544D01*
X51387409Y-50418804D01*
X52280000Y-51311395D01*
X53172591Y-50418804D01*
X53129359Y-50289023D01*
X53142149Y-50283738D01*
X53571231Y-49855404D01*
X53803735Y-49295472D01*
X53804264Y-48689188D01*
X53572738Y-48128851D01*
X53181060Y-47736489D01*
X53181060Y-45015523D01*
X53469521Y-44727564D01*
X53680819Y-44218702D01*
X53681177Y-43808463D01*
X55235787Y-42253852D01*
X55235790Y-42253850D01*
X55427633Y-41966735D01*
X55495000Y-41628060D01*
X55495000Y-39604288D01*
X55695409Y-39470379D01*
X55880000Y-39194119D01*
X56064591Y-39470379D01*
X56265000Y-39604288D01*
X56265000Y-42896369D01*
X56004479Y-43156436D01*
X55793181Y-43665298D01*
X55792700Y-44216285D01*
X56003109Y-44725515D01*
X56292940Y-45015852D01*
X56292940Y-47736037D01*
X55941769Y-48086596D01*
X55709265Y-48646528D01*
X55708736Y-49252812D01*
X55940262Y-49813149D01*
X56368596Y-50242231D01*
X56383800Y-50248544D01*
X56340409Y-50378804D01*
X57233000Y-51271395D01*
X58125591Y-50378804D01*
X58082359Y-50249023D01*
X58095149Y-50243738D01*
X58524231Y-49815404D01*
X58756735Y-49255472D01*
X58757264Y-48649188D01*
X58525738Y-48088851D01*
X58097404Y-47659769D01*
X58062940Y-47645458D01*
X58062940Y-46883320D01*
X63126880Y-46883320D01*
X63126880Y-49382680D01*
X63171158Y-49617997D01*
X63310230Y-49834121D01*
X63522430Y-49979111D01*
X63774320Y-50030120D01*
X66273680Y-50030120D01*
X66508997Y-49985842D01*
X66725121Y-49846770D01*
X66870111Y-49634570D01*
X66921120Y-49382680D01*
X66921120Y-48506241D01*
X70758994Y-48506241D01*
X71045314Y-49199191D01*
X71575021Y-49729822D01*
X72267469Y-50017352D01*
X73017241Y-50018006D01*
X73710191Y-49731686D01*
X74240822Y-49201979D01*
X74528352Y-48509531D01*
X74529006Y-47759759D01*
X74242686Y-47066809D01*
X73712979Y-46536178D01*
X73020531Y-46248648D01*
X72270759Y-46247994D01*
X71577809Y-46534314D01*
X71047178Y-47064021D01*
X70759648Y-47756469D01*
X70758994Y-48506241D01*
X66921120Y-48506241D01*
X66921120Y-46883320D01*
X66876842Y-46648003D01*
X66737770Y-46431879D01*
X66525570Y-46286889D01*
X66273680Y-46235880D01*
X63774320Y-46235880D01*
X63539003Y-46280158D01*
X63322879Y-46419230D01*
X63177889Y-46631430D01*
X63126880Y-46883320D01*
X58062940Y-46883320D01*
X58062940Y-45015523D01*
X58351401Y-44727564D01*
X58562699Y-44218702D01*
X58562951Y-43929167D01*
X73950838Y-43929167D01*
X74092883Y-44272943D01*
X74355673Y-44536192D01*
X74699201Y-44678838D01*
X75071167Y-44679162D01*
X75192569Y-44629000D01*
X87839995Y-44629000D01*
X87840000Y-44629001D01*
X88122484Y-44572810D01*
X88178675Y-44561633D01*
X88465790Y-44369790D01*
X89391834Y-43443745D01*
X89511943Y-43394117D01*
X89775192Y-43131327D01*
X89917838Y-42787799D01*
X89918162Y-42415833D01*
X89776117Y-42072057D01*
X89513327Y-41808808D01*
X89169799Y-41666162D01*
X88797833Y-41665838D01*
X88454057Y-41807883D01*
X88190808Y-42070673D01*
X88140434Y-42191987D01*
X87473420Y-42859000D01*
X75192822Y-42859000D01*
X75072799Y-42809162D01*
X74700833Y-42808838D01*
X74357057Y-42950883D01*
X74093808Y-43213673D01*
X73951162Y-43557201D01*
X73950838Y-43929167D01*
X58562951Y-43929167D01*
X58563180Y-43667715D01*
X58352771Y-43158485D01*
X58035000Y-42840160D01*
X58035000Y-39604288D01*
X58235409Y-39470379D01*
X58420000Y-39194119D01*
X58604591Y-39470379D01*
X59102581Y-39803125D01*
X59690000Y-39919970D01*
X60277419Y-39803125D01*
X60775409Y-39470379D01*
X60960000Y-39194119D01*
X61144591Y-39470379D01*
X61642581Y-39803125D01*
X62230000Y-39919970D01*
X62817419Y-39803125D01*
X63315409Y-39470379D01*
X63500000Y-39194119D01*
X63684591Y-39470379D01*
X64182581Y-39803125D01*
X64770000Y-39919970D01*
X65357419Y-39803125D01*
X65855409Y-39470379D01*
X66040000Y-39194119D01*
X66224591Y-39470379D01*
X66722581Y-39803125D01*
X67310000Y-39919970D01*
X67897419Y-39803125D01*
X68395409Y-39470379D01*
X68728155Y-38972389D01*
X68845000Y-38384970D01*
X68845000Y-37815030D01*
X68728155Y-37227611D01*
X68395409Y-36729621D01*
X68243322Y-36628000D01*
X87854420Y-36628000D01*
X118578000Y-67351579D01*
X118578000Y-74171178D01*
X118528162Y-74291201D01*
X118527838Y-74663167D01*
X118669883Y-75006943D01*
X118932673Y-75270192D01*
X119276201Y-75412838D01*
X119648167Y-75413162D01*
X119991943Y-75271117D01*
X120255192Y-75008327D01*
X120397838Y-74664799D01*
X120398162Y-74292833D01*
X120348000Y-74171431D01*
X120348000Y-66985005D01*
X120348001Y-66985000D01*
X120280633Y-66646325D01*
X120247007Y-66596000D01*
X120088790Y-66359210D01*
X120088787Y-66359208D01*
X88846790Y-35117210D01*
X88633956Y-34975000D01*
X88559675Y-34925367D01*
X88503484Y-34914190D01*
X88221000Y-34857999D01*
X88220995Y-34858000D01*
X46057005Y-34858000D01*
X46057000Y-34857999D01*
X45718325Y-34925367D01*
X45431210Y-35117210D01*
X45431208Y-35117213D01*
X44223296Y-36325124D01*
X43862581Y-36396875D01*
X43364591Y-36729621D01*
X43180000Y-37005881D01*
X42995409Y-36729621D01*
X42497419Y-36396875D01*
X41910000Y-36280030D01*
X41322581Y-36396875D01*
X40824591Y-36729621D01*
X40640000Y-37005881D01*
X40455409Y-36729621D01*
X39957419Y-36396875D01*
X39370000Y-36280030D01*
X38782581Y-36396875D01*
X38284591Y-36729621D01*
X38100000Y-37005881D01*
X37915409Y-36729621D01*
X37417419Y-36396875D01*
X36830000Y-36280030D01*
X36242581Y-36396875D01*
X35744591Y-36729621D01*
X35560000Y-37005881D01*
X35375409Y-36729621D01*
X34877419Y-36396875D01*
X34290000Y-36280030D01*
X33702581Y-36396875D01*
X33204591Y-36729621D01*
X32871845Y-37227611D01*
X32755000Y-37815030D01*
X26487000Y-37815030D01*
X26487000Y-32441000D01*
X26381573Y-31910983D01*
X26081343Y-31461657D01*
X25536686Y-30917000D01*
X26081343Y-30372343D01*
X26194613Y-30202822D01*
X26199819Y-30195030D01*
X32755000Y-30195030D01*
X32755000Y-30764970D01*
X32871845Y-31352389D01*
X33204591Y-31850379D01*
X33702581Y-32183125D01*
X34290000Y-32299970D01*
X34877419Y-32183125D01*
X35375409Y-31850379D01*
X35560000Y-31574119D01*
X35744591Y-31850379D01*
X36242581Y-32183125D01*
X36830000Y-32299970D01*
X37417419Y-32183125D01*
X37915409Y-31850379D01*
X38100000Y-31574119D01*
X38284591Y-31850379D01*
X38782581Y-32183125D01*
X39370000Y-32299970D01*
X39957419Y-32183125D01*
X40455409Y-31850379D01*
X40640000Y-31574119D01*
X40824591Y-31850379D01*
X41322581Y-32183125D01*
X41910000Y-32299970D01*
X42497419Y-32183125D01*
X42995409Y-31850379D01*
X43180000Y-31574119D01*
X43364591Y-31850379D01*
X43862581Y-32183125D01*
X44450000Y-32299970D01*
X45037419Y-32183125D01*
X45535409Y-31850379D01*
X45720000Y-31574119D01*
X45904591Y-31850379D01*
X46402581Y-32183125D01*
X46990000Y-32299970D01*
X47577419Y-32183125D01*
X48075409Y-31850379D01*
X48260000Y-31574119D01*
X48444591Y-31850379D01*
X48942581Y-32183125D01*
X49530000Y-32299970D01*
X50117419Y-32183125D01*
X50615409Y-31850379D01*
X50800000Y-31574119D01*
X50984591Y-31850379D01*
X51482581Y-32183125D01*
X52070000Y-32299970D01*
X52657419Y-32183125D01*
X53155409Y-31850379D01*
X53340000Y-31574119D01*
X53524591Y-31850379D01*
X54022581Y-32183125D01*
X54610000Y-32299970D01*
X55197419Y-32183125D01*
X55695409Y-31850379D01*
X55882801Y-31569926D01*
X56145260Y-31903647D01*
X56670877Y-32198806D01*
X56785260Y-32221036D01*
X57023000Y-32100378D01*
X57023000Y-30607000D01*
X57003000Y-30607000D01*
X57003000Y-30353000D01*
X57023000Y-30353000D01*
X57023000Y-28859622D01*
X57277000Y-28859622D01*
X57277000Y-30353000D01*
X57297000Y-30353000D01*
X57297000Y-30607000D01*
X57277000Y-30607000D01*
X57277000Y-32100378D01*
X57514740Y-32221036D01*
X57629123Y-32198806D01*
X58154740Y-31903647D01*
X58417199Y-31569926D01*
X58604591Y-31850379D01*
X59102581Y-32183125D01*
X59690000Y-32299970D01*
X60277419Y-32183125D01*
X60775409Y-31850379D01*
X60960000Y-31574119D01*
X61144591Y-31850379D01*
X61642581Y-32183125D01*
X62230000Y-32299970D01*
X62817419Y-32183125D01*
X63315409Y-31850379D01*
X63500000Y-31574119D01*
X63684591Y-31850379D01*
X64182581Y-32183125D01*
X64770000Y-32299970D01*
X65357419Y-32183125D01*
X65855409Y-31850379D01*
X66040000Y-31574119D01*
X66224591Y-31850379D01*
X66722581Y-32183125D01*
X67310000Y-32299970D01*
X67897419Y-32183125D01*
X68395409Y-31850379D01*
X68728155Y-31352389D01*
X68845000Y-30764970D01*
X68845000Y-30195030D01*
X68728155Y-29607611D01*
X68395409Y-29109621D01*
X67897419Y-28776875D01*
X67310000Y-28660030D01*
X66722581Y-28776875D01*
X66224591Y-29109621D01*
X66040000Y-29385881D01*
X65855409Y-29109621D01*
X65357419Y-28776875D01*
X64770000Y-28660030D01*
X64182581Y-28776875D01*
X63684591Y-29109621D01*
X63500000Y-29385881D01*
X63315409Y-29109621D01*
X62817419Y-28776875D01*
X62230000Y-28660030D01*
X61642581Y-28776875D01*
X61144591Y-29109621D01*
X60960000Y-29385881D01*
X60775409Y-29109621D01*
X60277419Y-28776875D01*
X59690000Y-28660030D01*
X59102581Y-28776875D01*
X58604591Y-29109621D01*
X58417199Y-29390074D01*
X58154740Y-29056353D01*
X57629123Y-28761194D01*
X57514740Y-28738964D01*
X57277000Y-28859622D01*
X57023000Y-28859622D01*
X56785260Y-28738964D01*
X56670877Y-28761194D01*
X56145260Y-29056353D01*
X55882801Y-29390074D01*
X55695409Y-29109621D01*
X55197419Y-28776875D01*
X54610000Y-28660030D01*
X54022581Y-28776875D01*
X53524591Y-29109621D01*
X53340000Y-29385881D01*
X53155409Y-29109621D01*
X52657419Y-28776875D01*
X52070000Y-28660030D01*
X51482581Y-28776875D01*
X50984591Y-29109621D01*
X50800000Y-29385881D01*
X50615409Y-29109621D01*
X50117419Y-28776875D01*
X49530000Y-28660030D01*
X48942581Y-28776875D01*
X48444591Y-29109621D01*
X48260000Y-29385881D01*
X48075409Y-29109621D01*
X47577419Y-28776875D01*
X46990000Y-28660030D01*
X46402581Y-28776875D01*
X45904591Y-29109621D01*
X45720000Y-29385881D01*
X45535409Y-29109621D01*
X45037419Y-28776875D01*
X44450000Y-28660030D01*
X43862581Y-28776875D01*
X43364591Y-29109621D01*
X43180000Y-29385881D01*
X42995409Y-29109621D01*
X42497419Y-28776875D01*
X41910000Y-28660030D01*
X41322581Y-28776875D01*
X40824591Y-29109621D01*
X40640000Y-29385881D01*
X40455409Y-29109621D01*
X39957419Y-28776875D01*
X39370000Y-28660030D01*
X38782581Y-28776875D01*
X38284591Y-29109621D01*
X38100000Y-29385881D01*
X37915409Y-29109621D01*
X37715000Y-28975712D01*
X37715000Y-27927167D01*
X46645838Y-27927167D01*
X46787883Y-28270943D01*
X47050673Y-28534192D01*
X47394201Y-28676838D01*
X47766167Y-28677162D01*
X47887569Y-28627000D01*
X82520420Y-28627000D01*
X88140255Y-34246834D01*
X88189883Y-34366943D01*
X88452673Y-34630192D01*
X88796201Y-34772838D01*
X89168167Y-34773162D01*
X89511943Y-34631117D01*
X89775192Y-34368327D01*
X89917838Y-34024799D01*
X89918162Y-33652833D01*
X89776117Y-33309057D01*
X89513327Y-33045808D01*
X89392013Y-32995434D01*
X83512790Y-27116210D01*
X83263750Y-26949808D01*
X83225675Y-26924367D01*
X83169484Y-26913190D01*
X82887000Y-26856999D01*
X82886995Y-26857000D01*
X47887822Y-26857000D01*
X47767799Y-26807162D01*
X47395833Y-26806838D01*
X47052057Y-26948883D01*
X46788808Y-27211673D01*
X46646162Y-27555201D01*
X46645838Y-27927167D01*
X37715000Y-27927167D01*
X37715000Y-27048580D01*
X37914579Y-26849000D01*
X40849995Y-26849000D01*
X40850000Y-26849001D01*
X41132484Y-26792810D01*
X41188675Y-26781633D01*
X41475790Y-26589790D01*
X45075787Y-22989792D01*
X45075790Y-22989790D01*
X45267633Y-22702675D01*
X45292895Y-22575674D01*
X45335001Y-22364000D01*
X45335000Y-22363995D01*
X45335000Y-20166078D01*
X96348406Y-20166078D01*
X96869340Y-21426835D01*
X97833092Y-22392270D01*
X99092937Y-22915403D01*
X100457078Y-22916594D01*
X101717835Y-22395660D01*
X101742939Y-22370599D01*
X105154699Y-22370599D01*
X105418281Y-23008515D01*
X105905918Y-23497004D01*
X106543373Y-23761699D01*
X107233599Y-23762301D01*
X107871515Y-23498719D01*
X108287297Y-23083662D01*
X108674000Y-23471041D01*
X108674000Y-30498644D01*
X108207822Y-30964822D01*
X107988882Y-31292490D01*
X107912000Y-31679000D01*
X107988882Y-32065510D01*
X108207822Y-32393178D01*
X108535490Y-32612118D01*
X108922000Y-32689000D01*
X109308510Y-32612118D01*
X109636178Y-32393178D01*
X110398178Y-31631178D01*
X110617118Y-31303510D01*
X110694000Y-30917000D01*
X110694000Y-29010627D01*
X110747822Y-29091178D01*
X111075490Y-29310118D01*
X111462000Y-29387000D01*
X111848510Y-29310118D01*
X112176178Y-29091178D01*
X113065178Y-28202178D01*
X113284118Y-27874510D01*
X113361000Y-27488000D01*
X113361000Y-23470284D01*
X113748297Y-23083662D01*
X114160918Y-23497004D01*
X114798373Y-23761699D01*
X115488599Y-23762301D01*
X116126515Y-23498719D01*
X116599610Y-23026449D01*
X116714132Y-23072263D01*
X117759395Y-22027000D01*
X117745253Y-22012858D01*
X117924858Y-21833253D01*
X117939000Y-21847395D01*
X117953143Y-21833253D01*
X118132748Y-22012858D01*
X118118605Y-22027000D01*
X118132748Y-22041143D01*
X117953143Y-22220748D01*
X117939000Y-22206605D01*
X116893737Y-23251868D01*
X117004641Y-23529099D01*
X117650593Y-23772323D01*
X118340453Y-23749836D01*
X118834000Y-23545402D01*
X118834000Y-36721644D01*
X117986822Y-37568822D01*
X117767882Y-37896490D01*
X117691000Y-38283000D01*
X117767882Y-38669510D01*
X117986822Y-38997178D01*
X118314490Y-39216118D01*
X118701000Y-39293000D01*
X119087510Y-39216118D01*
X119415178Y-38997178D01*
X120558178Y-37854178D01*
X120777118Y-37526510D01*
X120854000Y-37140000D01*
X120854000Y-34812932D01*
X120981490Y-34898118D01*
X121368000Y-34975000D01*
X121754510Y-34898118D01*
X122082178Y-34679178D01*
X122301118Y-34351510D01*
X122378000Y-33965000D01*
X122378000Y-21535685D01*
X123233092Y-22392270D01*
X124492937Y-22915403D01*
X125857078Y-22916594D01*
X127117835Y-22395660D01*
X128083270Y-21431908D01*
X128606403Y-20172063D01*
X128607594Y-18807922D01*
X128086660Y-17547165D01*
X127122908Y-16581730D01*
X125863063Y-16058597D01*
X124498922Y-16057406D01*
X123238165Y-16578340D01*
X122272730Y-17542092D01*
X122242278Y-17615429D01*
X122082178Y-17375822D01*
X120177178Y-15470822D01*
X119849510Y-15251882D01*
X119463000Y-15175000D01*
X112732005Y-15175000D01*
X112732000Y-15174999D01*
X112345490Y-15251882D01*
X112017822Y-15470822D01*
X110366822Y-17121822D01*
X110147882Y-17449490D01*
X110071000Y-17836000D01*
X110071000Y-18043716D01*
X109683703Y-18430338D01*
X109271082Y-18016996D01*
X108633627Y-17752301D01*
X107943401Y-17751699D01*
X107305485Y-18015281D01*
X106816996Y-18502918D01*
X106552301Y-19140373D01*
X106551699Y-19830599D01*
X106742293Y-20291870D01*
X106546401Y-20291699D01*
X105908485Y-20555281D01*
X105419996Y-21042918D01*
X105155301Y-21680373D01*
X105154699Y-22370599D01*
X101742939Y-22370599D01*
X102683270Y-21431908D01*
X103206403Y-20172063D01*
X103207594Y-18807922D01*
X102686660Y-17547165D01*
X101722908Y-16581730D01*
X100463063Y-16058597D01*
X99098922Y-16057406D01*
X97838165Y-16578340D01*
X96872730Y-17542092D01*
X96349597Y-18801937D01*
X96348406Y-20166078D01*
X45335000Y-20166078D01*
X45335000Y-16660710D01*
X45383995Y-16640466D01*
X45720179Y-16304868D01*
X46053563Y-16638834D01*
X46660155Y-16890713D01*
X47316963Y-16891286D01*
X47923995Y-16640466D01*
X48388834Y-16176437D01*
X48640713Y-15569845D01*
X48641286Y-14913037D01*
X48390466Y-14306005D01*
X47926437Y-13841166D01*
X47319845Y-13589287D01*
X46663037Y-13588714D01*
X46056005Y-13839534D01*
X45719821Y-14175132D01*
X45386437Y-13841166D01*
X44779845Y-13589287D01*
X44123037Y-13588714D01*
X43516005Y-13839534D01*
X43179821Y-14175132D01*
X42846437Y-13841166D01*
X42239845Y-13589287D01*
X41583037Y-13588714D01*
X40976005Y-13839534D01*
X40552435Y-14262366D01*
X40534107Y-14255498D01*
X39549605Y-15240000D01*
X40534107Y-16224502D01*
X40552917Y-16217453D01*
X40973563Y-16638834D01*
X41025000Y-16660193D01*
X41025000Y-21870421D01*
X39848420Y-23047000D01*
X36278005Y-23047000D01*
X36278000Y-23046999D01*
X35939326Y-23114366D01*
X35939324Y-23114367D01*
X35939325Y-23114367D01*
X35652210Y-23306210D01*
X35652208Y-23306213D01*
X33664210Y-25294210D01*
X33472367Y-25581325D01*
X33472367Y-25581326D01*
X33404999Y-25920000D01*
X33405000Y-25920005D01*
X33405000Y-28975712D01*
X33204591Y-29109621D01*
X32871845Y-29607611D01*
X32755000Y-30195030D01*
X26199819Y-30195030D01*
X26381573Y-29923017D01*
X26487000Y-29393000D01*
X26487000Y-22723247D01*
X26500834Y-22709437D01*
X26752713Y-22102845D01*
X26753286Y-21446037D01*
X26502466Y-20839005D01*
X26038437Y-20374166D01*
X25431845Y-20122287D01*
X24775037Y-20121714D01*
X24168005Y-20372534D01*
X23703166Y-20836563D01*
X23451287Y-21443155D01*
X23450714Y-22099963D01*
X23701534Y-22706995D01*
X23717000Y-22722488D01*
X23717000Y-28819314D01*
X23254598Y-29281716D01*
X22653057Y-29530106D01*
X22192722Y-29989637D01*
X21943284Y-30590352D01*
X21942716Y-31240795D01*
X22191106Y-31841943D01*
X22650637Y-32302278D01*
X23251352Y-32551716D01*
X23254032Y-32551718D01*
X23717000Y-33014686D01*
X23717000Y-38549000D01*
X19387000Y-38549000D01*
X18856983Y-38654427D01*
X18463067Y-38917633D01*
X18407657Y-38954657D01*
X16375657Y-40986657D01*
X16075427Y-41435983D01*
X15970000Y-41966000D01*
X14382000Y-41966000D01*
X14382000Y-32069532D01*
X17605073Y-32069532D01*
X17703736Y-32336387D01*
X18313461Y-32562908D01*
X18963460Y-32538856D01*
X19452264Y-32336387D01*
X19550927Y-32069532D01*
X18578000Y-31096605D01*
X17605073Y-32069532D01*
X14382000Y-32069532D01*
X14382000Y-30652461D01*
X16932092Y-30652461D01*
X16956144Y-31302460D01*
X17158613Y-31791264D01*
X17425468Y-31889927D01*
X18398395Y-30917000D01*
X18757605Y-30917000D01*
X19730532Y-31889927D01*
X19997387Y-31791264D01*
X20223908Y-31181539D01*
X20199856Y-30531540D01*
X19997387Y-30042736D01*
X19730532Y-29944073D01*
X18757605Y-30917000D01*
X18398395Y-30917000D01*
X17425468Y-29944073D01*
X17158613Y-30042736D01*
X16932092Y-30652461D01*
X14382000Y-30652461D01*
X14382000Y-29764468D01*
X17605073Y-29764468D01*
X18578000Y-30737395D01*
X19550927Y-29764468D01*
X19452264Y-29497613D01*
X18842539Y-29271092D01*
X18192540Y-29295144D01*
X17703736Y-29497613D01*
X17605073Y-29764468D01*
X14382000Y-29764468D01*
X14382000Y-22099963D01*
X15830714Y-22099963D01*
X16081534Y-22706995D01*
X16545563Y-23171834D01*
X17152155Y-23423713D01*
X17808963Y-23424286D01*
X18415995Y-23173466D01*
X18880834Y-22709437D01*
X19132713Y-22102845D01*
X19133286Y-21446037D01*
X18882466Y-20839005D01*
X18867000Y-20823512D01*
X18867000Y-16889138D01*
X19006690Y-16947000D01*
X19863250Y-16947000D01*
X20022000Y-16788250D01*
X20022000Y-15423000D01*
X20276000Y-15423000D01*
X20276000Y-16788250D01*
X20434750Y-16947000D01*
X21291310Y-16947000D01*
X21524699Y-16850327D01*
X21703327Y-16671698D01*
X21800000Y-16438309D01*
X21800000Y-15581750D01*
X21641250Y-15423000D01*
X20276000Y-15423000D01*
X20022000Y-15423000D01*
X20002000Y-15423000D01*
X20002000Y-15207655D01*
X32639000Y-15207655D01*
X32639000Y-15272345D01*
X32764675Y-15904155D01*
X33122567Y-16439778D01*
X33658190Y-16797670D01*
X34290000Y-16923345D01*
X34921810Y-16797670D01*
X35457433Y-16439778D01*
X35552630Y-16297306D01*
X35893563Y-16638834D01*
X36500155Y-16890713D01*
X37156963Y-16891286D01*
X37763995Y-16640466D01*
X38000766Y-16404107D01*
X38385498Y-16404107D01*
X38486120Y-16672622D01*
X39101642Y-16901816D01*
X39758019Y-16878014D01*
X40253880Y-16672622D01*
X40354502Y-16404107D01*
X39370000Y-15419605D01*
X38385498Y-16404107D01*
X38000766Y-16404107D01*
X38187565Y-16217634D01*
X38205893Y-16224502D01*
X39190395Y-15240000D01*
X38205893Y-14255498D01*
X38187083Y-14262547D01*
X38000755Y-14075893D01*
X38385498Y-14075893D01*
X39370000Y-15060395D01*
X40354502Y-14075893D01*
X40253880Y-13807378D01*
X39638358Y-13578184D01*
X38981981Y-13601986D01*
X38486120Y-13807378D01*
X38385498Y-14075893D01*
X38000755Y-14075893D01*
X37766437Y-13841166D01*
X37159845Y-13589287D01*
X36503037Y-13588714D01*
X35896005Y-13839534D01*
X35552476Y-14182464D01*
X35457433Y-14040222D01*
X34921810Y-13682330D01*
X34290000Y-13556655D01*
X33658190Y-13682330D01*
X33122567Y-14040222D01*
X32764675Y-14575845D01*
X32639000Y-15207655D01*
X20002000Y-15207655D01*
X20002000Y-15169000D01*
X20022000Y-15169000D01*
X20022000Y-13803750D01*
X20276000Y-13803750D01*
X20276000Y-15169000D01*
X21641250Y-15169000D01*
X21800000Y-15010250D01*
X21800000Y-14153691D01*
X21703327Y-13920302D01*
X21524699Y-13741673D01*
X21291310Y-13645000D01*
X20434750Y-13645000D01*
X20276000Y-13803750D01*
X20022000Y-13803750D01*
X19863250Y-13645000D01*
X19006690Y-13645000D01*
X18773301Y-13741673D01*
X18594673Y-13920302D01*
X18577001Y-13962966D01*
X18240810Y-13738330D01*
X17609000Y-13612655D01*
X16977190Y-13738330D01*
X16441567Y-14096222D01*
X16083675Y-14631845D01*
X15958000Y-15263655D01*
X15958000Y-15328345D01*
X16083675Y-15960155D01*
X16097000Y-15980097D01*
X16097000Y-20822753D01*
X16083166Y-20836563D01*
X15831287Y-21443155D01*
X15830714Y-22099963D01*
X14382000Y-22099963D01*
X14382000Y-13085000D01*
X131326000Y-13085000D01*
X131326000Y-119793969D01*
M02*
