G04 #@! TF.FileFunction,Soldermask,Bot*
%FSLAX46Y46*%
G04 Gerber Fmt 4.6, Leading zero omitted, Abs format (unit mm)*
G04 Created by KiCad (PCBNEW 4.0.2-stable) date 2021 June 25, Friday 12:52:06*
%MOMM*%
G01*
G04 APERTURE LIST*
%ADD10C,0.100000*%
%ADD11O,2.232000X2.232000*%
%ADD12C,2.232000*%
%ADD13R,2.232000X2.232000*%
%ADD14C,2.200000*%
%ADD15C,2.105000*%
%ADD16C,2.000000*%
%ADD17R,2.613000X2.613000*%
%ADD18C,2.699360*%
%ADD19O,2.000000X3.800000*%
%ADD20C,4.000000*%
%ADD21C,1.978000*%
%ADD22O,2.000000X2.500000*%
%ADD23O,5.200000X5.200000*%
%ADD24O,2.300000X2.700000*%
%ADD25C,2.800000*%
%ADD26O,2.400000X2.200000*%
%ADD27O,2.200000X2.400000*%
%ADD28C,6.200000*%
%ADD29C,2.400000*%
%ADD30C,3.248000*%
G04 APERTURE END LIST*
D10*
D11*
X32766000Y-14986000D03*
D12*
X35306000Y-14986000D03*
X37846000Y-14986000D03*
X40386000Y-14986000D03*
X42926000Y-14986000D03*
X45466000Y-14986000D03*
D13*
X18625000Y-15042000D03*
D11*
X16085000Y-15042000D03*
D14*
X76073000Y-93218000D03*
X76073000Y-88138000D03*
X76073000Y-104648000D03*
X76073000Y-99568000D03*
D15*
X90043000Y-104648000D03*
X90043000Y-99568000D03*
X90043000Y-93218000D03*
X90043000Y-88138000D03*
D16*
X55653940Y-43688000D03*
X50772060Y-43688000D03*
D17*
X63500000Y-47879000D03*
D18*
X63500000Y-63119000D03*
X71120000Y-63119000D03*
X71120000Y-47879000D03*
D19*
X21038000Y-43744000D03*
X23578000Y-43744000D03*
X18498000Y-43744000D03*
D20*
X21038000Y-60508000D03*
D21*
X50756000Y-51237000D03*
X50756000Y-48737000D03*
X55709000Y-48697000D03*
X55709000Y-51197000D03*
D12*
X23578000Y-21519000D03*
X15958000Y-21519000D03*
D22*
X32766000Y-37846000D03*
X35306000Y-37846000D03*
X37846000Y-37846000D03*
X40386000Y-37846000D03*
X42926000Y-37846000D03*
X45466000Y-37846000D03*
X48006000Y-37846000D03*
X50546000Y-37846000D03*
X53086000Y-37846000D03*
X55626000Y-37846000D03*
X58166000Y-37846000D03*
X60706000Y-37846000D03*
X63246000Y-37846000D03*
X65786000Y-37846000D03*
X65786000Y-30226000D03*
X63246000Y-30226000D03*
X60706000Y-30226000D03*
X58166000Y-30226000D03*
X55626000Y-30226000D03*
X53086000Y-30226000D03*
X50546000Y-30226000D03*
X48006000Y-30226000D03*
X45466000Y-30226000D03*
X42926000Y-30226000D03*
X40386000Y-30226000D03*
X37846000Y-30226000D03*
X35306000Y-30226000D03*
X32766000Y-30226000D03*
D14*
X22054000Y-30663000D03*
X17054000Y-30663000D03*
D23*
X26179780Y-120548400D03*
X15981680Y-120548400D03*
D24*
X21082000Y-116283740D03*
X23581360Y-116283740D03*
D23*
X127322580Y-120548400D03*
X117124480Y-120548400D03*
D24*
X122224800Y-116283740D03*
X124724160Y-116283740D03*
D23*
X42518780Y-120477400D03*
X32320680Y-120477400D03*
D24*
X37421000Y-116212740D03*
X39920360Y-116212740D03*
D23*
X63136780Y-120548400D03*
X52938680Y-120548400D03*
D24*
X58039000Y-116283740D03*
X60538360Y-116283740D03*
D25*
X127586740Y-106956860D03*
X127586740Y-93957140D03*
X121587260Y-106956860D03*
X121587260Y-93957140D03*
D26*
X95079000Y-119436000D03*
D27*
X92539000Y-116896000D03*
X92539000Y-121976000D03*
D28*
X123647200Y-19227800D03*
X98247200Y-19227800D03*
D29*
X116408200Y-21767800D03*
X113614200Y-21767800D03*
X110820200Y-21767800D03*
X108153200Y-21767800D03*
X105359200Y-21767800D03*
X106756200Y-19227800D03*
X109550200Y-19227800D03*
X112217200Y-19227800D03*
X115011200Y-19227800D03*
D30*
X28067000Y-44069000D03*
X115062000Y-44069000D03*
X72009000Y-122174000D03*
D27*
X91567000Y-31750000D03*
D26*
X89027000Y-34290000D03*
X94107000Y-34290000D03*
M02*
