G04 #@! TF.FileFunction,Soldermask,Bot*
%FSLAX46Y46*%
G04 Gerber Fmt 4.6, Leading zero omitted, Abs format (unit mm)*
G04 Created by KiCad (PCBNEW 4.0.2-stable) date 2021 June 23, Wednesday 03:37:08*
%MOMM*%
G01*
G04 APERTURE LIST*
%ADD10C,0.100000*%
%ADD11C,0.150000*%
%ADD12O,5.200000X6.500000*%
%ADD13O,2.300000X2.700000*%
%ADD14C,6.200000*%
%ADD15C,2.400000*%
%ADD16O,2.232000X2.232000*%
%ADD17C,2.232000*%
%ADD18R,2.232000X2.232000*%
%ADD19O,3.200000X2.300000*%
%ADD20C,3.999840*%
%ADD21C,2.200000*%
%ADD22C,2.105000*%
%ADD23R,2.699360X2.699360*%
%ADD24C,2.699360*%
%ADD25C,2.800000*%
%ADD26O,2.000000X3.800000*%
%ADD27C,1.978000*%
%ADD28O,2.000000X2.500000*%
G04 APERTURE END LIST*
D10*
D11*
X147149000Y-30028000D02*
X26499000Y-30028000D01*
X147149000Y-147376000D02*
X147149000Y-30028000D01*
X26499000Y-147376000D02*
X147149000Y-147376000D01*
X26499000Y-30028000D02*
X26499000Y-147376000D01*
D12*
X58183780Y-138455400D03*
X47985680Y-138455400D03*
D13*
X53086000Y-134190740D03*
X55585360Y-134190740D03*
D12*
X40403780Y-138455400D03*
X30205680Y-138455400D03*
D13*
X35306000Y-134190740D03*
X37805360Y-134190740D03*
D12*
X142511780Y-138455400D03*
X132313680Y-138455400D03*
D13*
X137414000Y-134190740D03*
X139913360Y-134190740D03*
D14*
X139319000Y-45085000D03*
X113919000Y-45085000D03*
D15*
X132080000Y-47625000D03*
X129286000Y-47625000D03*
X126492000Y-47625000D03*
X123825000Y-47625000D03*
X121031000Y-47625000D03*
X122428000Y-45085000D03*
X125222000Y-45085000D03*
X127889000Y-45085000D03*
X130683000Y-45085000D03*
D16*
X48387000Y-32893000D03*
D17*
X50927000Y-32893000D03*
X53467000Y-32893000D03*
X56007000Y-32893000D03*
X58547000Y-32893000D03*
X61087000Y-32893000D03*
D12*
X78757780Y-138455400D03*
X68559680Y-138455400D03*
D13*
X73660000Y-134190740D03*
X76159360Y-134190740D03*
D18*
X34246000Y-32949000D03*
D16*
X31706000Y-32949000D03*
D19*
X108204000Y-137414000D03*
X108204000Y-139954000D03*
X108204000Y-134874000D03*
D20*
X91440000Y-137414000D03*
D21*
X91694000Y-111125000D03*
X91694000Y-106045000D03*
X91694000Y-122555000D03*
X91694000Y-117475000D03*
D22*
X105664000Y-122555000D03*
X105664000Y-117475000D03*
X105664000Y-111125000D03*
X105664000Y-106045000D03*
D21*
X71274940Y-61595000D03*
X66393060Y-61595000D03*
D23*
X79121000Y-65786000D03*
D24*
X79121000Y-81026000D03*
X86741000Y-81026000D03*
X86741000Y-65786000D03*
D25*
X143969740Y-124863860D03*
X143969740Y-111864140D03*
X137970260Y-124863860D03*
X137970260Y-111864140D03*
D26*
X33992000Y-61651000D03*
X36532000Y-61651000D03*
X31452000Y-61651000D03*
D20*
X33992000Y-78415000D03*
D27*
X66377000Y-69144000D03*
X66377000Y-66644000D03*
X71330000Y-66604000D03*
X71330000Y-69104000D03*
D18*
X39199000Y-39426000D03*
D17*
X31579000Y-39426000D03*
D28*
X48387000Y-55753000D03*
X50927000Y-55753000D03*
X53467000Y-55753000D03*
X56007000Y-55753000D03*
X58547000Y-55753000D03*
X61087000Y-55753000D03*
X63627000Y-55753000D03*
X66167000Y-55753000D03*
X68707000Y-55753000D03*
X71247000Y-55753000D03*
X73787000Y-55753000D03*
X76327000Y-55753000D03*
X78867000Y-55753000D03*
X81407000Y-55753000D03*
X81407000Y-48133000D03*
X78867000Y-48133000D03*
X76327000Y-48133000D03*
X73787000Y-48133000D03*
X71247000Y-48133000D03*
X68707000Y-48133000D03*
X66167000Y-48133000D03*
X63627000Y-48133000D03*
X61087000Y-48133000D03*
X58547000Y-48133000D03*
X56007000Y-48133000D03*
X53467000Y-48133000D03*
X50927000Y-48133000D03*
X48387000Y-48133000D03*
D21*
X37675000Y-48570000D03*
X32675000Y-48570000D03*
M02*
