M48
INCH,TZ
T1C0.016
T2C0.031
T3C0.032
T4C0.039
T5C0.040
T6C0.087
T7C0.120
%
G90
G05
T1
X14133Y-32872
X16533Y-25072
X18733Y-10922
X29483Y-17222
X30050Y-26000
X31883Y-22722
X31883Y-27622
X34717Y-22737
X34783Y-27622
X35033Y-13322
X35033Y-16772
X36850Y-26450
X38133Y-23622
X42883Y-12472
X43883Y-11172
X44933Y-26872
X46733Y-15072
X47033Y-29322
X47633Y-27672
X47783Y-13372
X50583Y-32722
X50633Y-28372
X50683Y-27672
T2
X6883Y-8572
X6933Y-6022
X7314Y-12172
X7933Y-6022
X8350Y-45881
X9283Y-12172
X9334Y-45881
X9883Y-8572
X13500Y-6000
X13500Y-12000
X13500Y-15000
X14500Y-6000
X14500Y-12000
X14500Y-15000
X15333Y-45853
X15500Y-6000
X15500Y-12000
X15500Y-15000
X16317Y-45853
X16500Y-6000
X16500Y-12000
X16500Y-15000
X17500Y-6000
X17500Y-12000
X17500Y-15000
X18500Y-6000
X18500Y-12000
X18500Y-15000
X19500Y-12000
X19500Y-15000
X20500Y-12000
X20500Y-15000
X20583Y-20272
X21500Y-12000
X21500Y-15000
X22500Y-12000
X22500Y-15000
X22533Y-19272
X23450Y-45881
X23500Y-12000
X23500Y-15000
X24434Y-45881
X24500Y-12000
X24500Y-15000
X25500Y-12000
X25500Y-15000
X25600Y-18950
X25600Y-24950
X26500Y-12000
X26500Y-15000
X28600Y-18950
X28600Y-24950
X30550Y-34800
X30550Y-36800
X30550Y-39300
X30550Y-41300
X36050Y-34800
X36050Y-36800
X36050Y-39300
X36050Y-41300
X37033Y-46122
X37033Y-48122
X38033Y-47122
X48550Y-45881
X48769Y-37091
X48769Y-42209
X49534Y-45881
X51131Y-37091
X51131Y-42209
T3
X20583Y-19288
X20589Y-17300
X22511Y-17300
X22533Y-20256
T4
X6833Y-17322
X7833Y-17322
X8833Y-17322
T5
X42083Y-8672
X42633Y-7672
X43183Y-8672
X43733Y-7672
X44233Y-8672
X44783Y-7672
X45333Y-8672
X45883Y-7672
X46433Y-8672
T6
X6342Y-47560
X10357Y-47560
X13325Y-47532
X17340Y-47532
X21442Y-47560
X25457Y-47560
X46542Y-47560
X50557Y-47560
T7
X39283Y-7672
X49283Y-7672
T0
M30
