M48
INCH,TZ
T1C0.016
T2C0.031
T3C0.032
T4C0.039
T5C0.040
T6C0.087
T7C0.120
%
G90
G05
T1
X13533Y-32772
X15933Y-24972
X18133Y-10822
X28883Y-17122
X29450Y-25900
X31283Y-22622
X31283Y-27522
X34117Y-22637
X34183Y-27522
X34433Y-13222
X34433Y-16672
X36250Y-26350
X37533Y-23522
X42283Y-12372
X43283Y-11072
X44333Y-26772
X46133Y-14972
X46433Y-29222
X47033Y-27572
X47183Y-13272
X49983Y-32622
X50033Y-28272
X50083Y-27572
T2
X6283Y-8472
X6333Y-5922
X6714Y-12072
X7333Y-5922
X8300Y-45781
X8683Y-12072
X9283Y-8472
X9284Y-45781
X12900Y-5900
X12900Y-11900
X12900Y-14900
X13900Y-5900
X13900Y-11900
X13900Y-14900
X14733Y-45753
X14900Y-5900
X14900Y-11900
X14900Y-14900
X15717Y-45753
X15900Y-5900
X15900Y-11900
X15900Y-14900
X16900Y-5900
X16900Y-11900
X16900Y-14900
X17900Y-5900
X17900Y-11900
X17900Y-14900
X18900Y-11900
X18900Y-14900
X19900Y-11900
X19900Y-14900
X19983Y-20172
X20900Y-11900
X20900Y-14900
X21900Y-11900
X21900Y-14900
X21933Y-19172
X22850Y-45781
X22900Y-11900
X22900Y-14900
X23834Y-45781
X23900Y-11900
X23900Y-14900
X24900Y-11900
X24900Y-14900
X25000Y-18850
X25000Y-24850
X25900Y-11900
X25900Y-14900
X28000Y-18850
X28000Y-24850
X29950Y-34700
X29950Y-36700
X29950Y-39200
X29950Y-41200
X35450Y-34700
X35450Y-36700
X35450Y-39200
X35450Y-41200
X36433Y-46022
X36433Y-48022
X37433Y-47022
X47869Y-36991
X47869Y-42109
X48120Y-45781
X49104Y-45781
X50231Y-36991
X50231Y-42109
T3
X19983Y-19188
X19989Y-17200
X21911Y-17200
X21933Y-20156
T4
X7283Y-17222
X8283Y-17222
X9283Y-17222
T5
X41480Y-8570
X42030Y-7570
X42580Y-8570
X43130Y-7570
X43630Y-8570
X44180Y-7570
X44730Y-8570
X45280Y-7570
X45830Y-8570
T6
X6292Y-47460
X10307Y-47460
X12725Y-47432
X16740Y-47432
X20842Y-47460
X24857Y-47460
X46112Y-47460
X50127Y-47460
T7
X38680Y-7570
X48680Y-7570
T0
M30
