G04 #@! TF.FileFunction,Soldermask,Bot*
%FSLAX46Y46*%
G04 Gerber Fmt 4.6, Leading zero omitted, Abs format (unit mm)*
G04 Created by KiCad (PCBNEW 4.0.2-stable) date 2021 June 23, Wednesday 13:45:09*
%MOMM*%
G01*
G04 APERTURE LIST*
%ADD10C,0.100000*%
%ADD11O,2.232000X2.232000*%
%ADD12C,2.232000*%
%ADD13R,2.232000X2.232000*%
%ADD14O,3.200000X2.300000*%
%ADD15C,3.999840*%
%ADD16C,2.200000*%
%ADD17C,2.105000*%
%ADD18R,2.699360X2.699360*%
%ADD19C,2.699360*%
%ADD20C,2.800000*%
%ADD21O,2.000000X3.800000*%
%ADD22C,1.978000*%
%ADD23O,2.000000X2.500000*%
%ADD24C,6.200000*%
%ADD25C,2.400000*%
%ADD26O,5.200000X6.500000*%
%ADD27O,2.300000X2.700000*%
G04 APERTURE END LIST*
D10*
D11*
X34290000Y-15240000D03*
D12*
X36830000Y-15240000D03*
X39370000Y-15240000D03*
X41910000Y-15240000D03*
X44450000Y-15240000D03*
X46990000Y-15240000D03*
D13*
X20149000Y-15296000D03*
D11*
X17609000Y-15296000D03*
D14*
X94107000Y-119761000D03*
X94107000Y-122301000D03*
X94107000Y-117221000D03*
D15*
X77343000Y-119761000D03*
D16*
X77597000Y-93472000D03*
X77597000Y-88392000D03*
X77597000Y-104902000D03*
X77597000Y-99822000D03*
D17*
X91567000Y-104902000D03*
X91567000Y-99822000D03*
X91567000Y-93472000D03*
X91567000Y-88392000D03*
D16*
X57177940Y-43942000D03*
X52296060Y-43942000D03*
D18*
X65024000Y-48133000D03*
D19*
X65024000Y-63373000D03*
X72644000Y-63373000D03*
X72644000Y-48133000D03*
D20*
X129872740Y-107210860D03*
X129872740Y-94211140D03*
X123873260Y-107210860D03*
X123873260Y-94211140D03*
D21*
X19895000Y-43998000D03*
X22435000Y-43998000D03*
X17355000Y-43998000D03*
D15*
X19895000Y-60762000D03*
D22*
X52280000Y-51491000D03*
X52280000Y-48991000D03*
X57233000Y-48951000D03*
X57233000Y-51451000D03*
D13*
X25102000Y-21773000D03*
D12*
X17482000Y-21773000D03*
D23*
X34290000Y-38100000D03*
X36830000Y-38100000D03*
X39370000Y-38100000D03*
X41910000Y-38100000D03*
X44450000Y-38100000D03*
X46990000Y-38100000D03*
X49530000Y-38100000D03*
X52070000Y-38100000D03*
X54610000Y-38100000D03*
X57150000Y-38100000D03*
X59690000Y-38100000D03*
X62230000Y-38100000D03*
X64770000Y-38100000D03*
X67310000Y-38100000D03*
X67310000Y-30480000D03*
X64770000Y-30480000D03*
X62230000Y-30480000D03*
X59690000Y-30480000D03*
X57150000Y-30480000D03*
X54610000Y-30480000D03*
X52070000Y-30480000D03*
X49530000Y-30480000D03*
X46990000Y-30480000D03*
X44450000Y-30480000D03*
X41910000Y-30480000D03*
X39370000Y-30480000D03*
X36830000Y-30480000D03*
X34290000Y-30480000D03*
D16*
X23578000Y-30917000D03*
X18578000Y-30917000D03*
D24*
X125222000Y-27432000D03*
X99822000Y-27432000D03*
D25*
X117983000Y-29972000D03*
X115189000Y-29972000D03*
X112395000Y-29972000D03*
X109728000Y-29972000D03*
X106934000Y-29972000D03*
X108331000Y-27432000D03*
X111125000Y-27432000D03*
X113792000Y-27432000D03*
X116586000Y-27432000D03*
D26*
X26306780Y-120802400D03*
X16108680Y-120802400D03*
D27*
X21209000Y-116537740D03*
X23708360Y-116537740D03*
D26*
X128414780Y-120802400D03*
X118216680Y-120802400D03*
D27*
X123317000Y-116537740D03*
X125816360Y-116537740D03*
D26*
X44042780Y-120731400D03*
X33844680Y-120731400D03*
D27*
X38945000Y-116466740D03*
X41444360Y-116466740D03*
D26*
X64660780Y-120802400D03*
X54462680Y-120802400D03*
D27*
X59563000Y-116537740D03*
X62062360Y-116537740D03*
M02*
