M48
METRIC,TZ
T1C0.400
T2C0.800
T3C0.800
T4C1.000
T5C1.016
T6C2.200
T7C3.048
%
G90
G05
T1
X27813Y-26416
X34373Y-83241
X37846Y-18542
X40469Y-63429
X60325Y-18542
X74803Y-65786
X79458Y-57460
X79458Y-69906
X86658Y-57499
X86824Y-69906
X92075Y-66929
X95333Y-59746
X107398Y-31425
X109938Y-28123
X112605Y-68001
X117177Y-38029
X117939Y-74224
X119463Y-70033
X119844Y-33711
X126956Y-82860
X127083Y-71811
X127210Y-70033
T2
X15958Y-21519
X16085Y-15042
X17054Y-30663
X18625Y-15042
X21082Y-116284
X22054Y-30663
X23578Y-21519
X23581Y-116284
X32766Y-14986
X32766Y-30226
X32766Y-37846
X35306Y-14986
X35306Y-30226
X35306Y-37846
X37421Y-116213
X37846Y-14986
X37846Y-30226
X37846Y-37846
X39920Y-116213
X40386Y-14986
X40386Y-30226
X40386Y-37846
X42926Y-14986
X42926Y-30226
X42926Y-37846
X45466Y-14986
X45466Y-30226
X45466Y-37846
X48006Y-30226
X48006Y-37846
X50546Y-30226
X50546Y-37846
X50756Y-51237
X53086Y-30226
X53086Y-37846
X54483Y-14986
X55626Y-30226
X55626Y-37846
X55709Y-48697
X57023Y-14986
X58039Y-116284
X58166Y-30226
X58166Y-37846
X60538Y-116284
X60706Y-30226
X60706Y-37846
X63246Y-30226
X63246Y-37846
X63500Y-47879
X63500Y-63119
X65786Y-30226
X65786Y-37846
X71120Y-47879
X71120Y-63119
X76073Y-88138
X76073Y-93218
X76073Y-99568
X76073Y-104648
X89027Y-34290
X90043Y-88138
X90043Y-93218
X90043Y-99568
X90043Y-104648
X91567Y-31750
X92539Y-116896
X92539Y-121976
X94107Y-34290
X95079Y-119436
X121587Y-93957
X121587Y-106957
X122225Y-116284
X124724Y-116284
X127587Y-93957
X127587Y-106957
T3
X50756Y-48737
X50772Y-43688
X55654Y-43688
X55709Y-51197
T4
X18498Y-43744
X21038Y-43744
X23578Y-43744
T5
X105359Y-21768
X106756Y-19228
X108153Y-21768
X109550Y-19228
X110820Y-21768
X112217Y-19228
X113614Y-21768
X115011Y-19228
X116408Y-21768
T6
X15982Y-120548
X26180Y-120548
X32321Y-120477
X42519Y-120477
X52939Y-120548
X63137Y-120548
X117124Y-120548
X127323Y-120548
T7
X98247Y-19228
X123647Y-19228
T0
M30
