G04 #@! TF.FileFunction,Soldermask,Top*
%FSLAX46Y46*%
G04 Gerber Fmt 4.6, Leading zero omitted, Abs format (unit mm)*
G04 Created by KiCad (PCBNEW 4.0.2-stable) date 2021 June 23, Wednesday 03:44:45*
%MOMM*%
G01*
G04 APERTURE LIST*
%ADD10C,0.100000*%
%ADD11R,1.900000X2.200000*%
%ADD12R,1.800000X2.200000*%
%ADD13R,2.200000X1.800000*%
%ADD14R,1.110000X1.420000*%
%ADD15R,3.248000X1.851000*%
%ADD16R,6.296000X6.296000*%
%ADD17R,1.851000X3.248000*%
%ADD18R,1.950000X0.650000*%
%ADD19R,1.750000X0.800000*%
%ADD20R,0.800000X1.750000*%
%ADD21R,0.650000X1.650000*%
%ADD22O,5.200000X6.500000*%
%ADD23O,2.300000X2.700000*%
%ADD24R,2.200000X1.900000*%
%ADD25C,6.200000*%
%ADD26C,2.400000*%
%ADD27O,2.232000X2.232000*%
%ADD28C,2.232000*%
%ADD29R,2.232000X2.232000*%
%ADD30O,3.200000X2.300000*%
%ADD31C,3.999840*%
%ADD32C,2.200000*%
%ADD33R,1.100000X1.400000*%
%ADD34C,2.105000*%
%ADD35R,2.699360X2.699360*%
%ADD36C,2.699360*%
%ADD37C,2.800000*%
%ADD38O,2.000000X3.800000*%
%ADD39R,1.343000X0.708000*%
%ADD40R,0.962000X2.740000*%
%ADD41R,4.010000X0.962000*%
%ADD42R,2.740000X0.962000*%
%ADD43C,1.978000*%
%ADD44O,2.000000X2.500000*%
G04 APERTURE END LIST*
D10*
D11*
X95631000Y-100171000D03*
X95631000Y-96171000D03*
D12*
X105791000Y-100171000D03*
X105791000Y-96171000D03*
D13*
X57118000Y-127000000D03*
X53118000Y-127000000D03*
D12*
X50038000Y-108363000D03*
X50038000Y-112363000D03*
D13*
X45942000Y-115570000D03*
X41942000Y-115570000D03*
D12*
X109474000Y-80804000D03*
X109474000Y-84804000D03*
X91567000Y-96171000D03*
X91567000Y-100171000D03*
D13*
X91599000Y-102870000D03*
X95599000Y-102870000D03*
X91599000Y-114300000D03*
X95599000Y-114300000D03*
X91599000Y-125730000D03*
X95599000Y-125730000D03*
D12*
X60027000Y-77304000D03*
X60027000Y-81304000D03*
D13*
X117697000Y-73279000D03*
X113697000Y-73279000D03*
X71088000Y-130048000D03*
X67088000Y-130048000D03*
D12*
X53467000Y-43529000D03*
X53467000Y-39529000D03*
D13*
X74962000Y-130048000D03*
X78962000Y-130048000D03*
X82709000Y-61468000D03*
X86709000Y-61468000D03*
X86074000Y-116205000D03*
X82074000Y-116205000D03*
D12*
X71374000Y-116110000D03*
X71374000Y-120110000D03*
X92202000Y-78708000D03*
X92202000Y-74708000D03*
X92202000Y-83725000D03*
X92202000Y-87725000D03*
X105918000Y-74454000D03*
X105918000Y-78454000D03*
X47752000Y-129762000D03*
X47752000Y-125762000D03*
X51562000Y-119666000D03*
X51562000Y-123666000D03*
D13*
X56102000Y-115570000D03*
X52102000Y-115570000D03*
X33242000Y-130048000D03*
X29242000Y-130048000D03*
D12*
X131826000Y-89694000D03*
X131826000Y-93694000D03*
D13*
X29496000Y-120142000D03*
X33496000Y-120142000D03*
X135033000Y-89789000D03*
X139033000Y-89789000D03*
D12*
X41402000Y-122714000D03*
X41402000Y-126714000D03*
X144272000Y-96806000D03*
X144272000Y-100806000D03*
X144272000Y-93694000D03*
X144272000Y-89694000D03*
X131826000Y-85820000D03*
X131826000Y-81820000D03*
D13*
X41370000Y-120142000D03*
X37370000Y-120142000D03*
X142970000Y-103886000D03*
X138970000Y-103886000D03*
X105759000Y-125730000D03*
X101759000Y-125730000D03*
X105759000Y-114300000D03*
X101759000Y-114300000D03*
X105759000Y-102870000D03*
X101759000Y-102870000D03*
X126016000Y-128270000D03*
X130016000Y-128270000D03*
X126016000Y-115316000D03*
X130016000Y-115316000D03*
X111284000Y-116205000D03*
X115284000Y-116205000D03*
D12*
X122428000Y-129826000D03*
X122428000Y-133826000D03*
D14*
X63230000Y-43561000D03*
X59960000Y-43561000D03*
X45692000Y-43617000D03*
X48962000Y-43617000D03*
D15*
X63500000Y-76962000D03*
D16*
X69850000Y-79248000D03*
D15*
X63500000Y-81534000D03*
D17*
X117983000Y-76835000D03*
D16*
X115697000Y-83185000D03*
D17*
X113411000Y-76835000D03*
D18*
X95079000Y-76674000D03*
X95079000Y-77324000D03*
X95079000Y-77974000D03*
X95079000Y-78624000D03*
X95079000Y-79274000D03*
X95079000Y-79924000D03*
X95079000Y-80574000D03*
X95079000Y-81224000D03*
X95079000Y-81874000D03*
X95079000Y-82524000D03*
X95079000Y-83174000D03*
X95079000Y-83824000D03*
X95079000Y-84474000D03*
X95079000Y-85124000D03*
X102279000Y-85124000D03*
X102279000Y-84474000D03*
X102279000Y-83824000D03*
X102279000Y-83174000D03*
X102279000Y-82524000D03*
X102279000Y-81874000D03*
X102279000Y-81224000D03*
X102279000Y-80574000D03*
X102279000Y-79924000D03*
X102279000Y-79274000D03*
X102279000Y-78624000D03*
X102279000Y-77974000D03*
X102279000Y-77324000D03*
X102279000Y-76674000D03*
D19*
X37498000Y-126619000D03*
X37498000Y-125349000D03*
X37498000Y-124079000D03*
X37498000Y-122809000D03*
X32098000Y-122809000D03*
X32098000Y-124079000D03*
X32098000Y-125349000D03*
X32098000Y-126619000D03*
D20*
X138938000Y-94074000D03*
X137668000Y-94074000D03*
X136398000Y-94074000D03*
X135128000Y-94074000D03*
X135128000Y-99474000D03*
X136398000Y-99474000D03*
X137668000Y-99474000D03*
X138938000Y-99474000D03*
D21*
X55921000Y-122850000D03*
X56571000Y-122850000D03*
X57221000Y-122850000D03*
X57871000Y-122850000D03*
X57871000Y-118450000D03*
X57221000Y-118450000D03*
X56571000Y-118450000D03*
X55921000Y-118450000D03*
D22*
X58183780Y-138455400D03*
X47985680Y-138455400D03*
D23*
X53086000Y-134190740D03*
X55585360Y-134190740D03*
D24*
X122269000Y-59817000D03*
X118269000Y-59817000D03*
X118269000Y-57023000D03*
X122269000Y-57023000D03*
D11*
X43517000Y-48729000D03*
X43517000Y-52729000D03*
X101727000Y-96171000D03*
X101727000Y-100171000D03*
D24*
X88233000Y-85725000D03*
X84233000Y-85725000D03*
D11*
X105918000Y-82582000D03*
X105918000Y-86582000D03*
D24*
X112617000Y-88519000D03*
X108617000Y-88519000D03*
X71088000Y-127000000D03*
X67088000Y-127000000D03*
X71088000Y-123698000D03*
X67088000Y-123698000D03*
D11*
X68072000Y-120110000D03*
X68072000Y-116110000D03*
D24*
X82074000Y-119380000D03*
X86074000Y-119380000D03*
X82074000Y-122555000D03*
X86074000Y-122555000D03*
X86074000Y-125730000D03*
X82074000Y-125730000D03*
D11*
X74930000Y-122206000D03*
X74930000Y-126206000D03*
D24*
X122269000Y-51435000D03*
X118269000Y-51435000D03*
X118269000Y-54229000D03*
X122269000Y-54229000D03*
X99092000Y-56007000D03*
X103092000Y-56007000D03*
D11*
X86487000Y-44228000D03*
X86487000Y-48228000D03*
X89535000Y-44228000D03*
X89535000Y-48228000D03*
X81407000Y-40799000D03*
X81407000Y-44799000D03*
X78867000Y-44799000D03*
X78867000Y-40799000D03*
X91186000Y-68548000D03*
X91186000Y-64548000D03*
X94234000Y-64548000D03*
X94234000Y-68548000D03*
D24*
X95282000Y-59309000D03*
X99282000Y-59309000D03*
D11*
X98508000Y-68477000D03*
X98508000Y-64477000D03*
D24*
X57118000Y-130048000D03*
X53118000Y-130048000D03*
D11*
X47752000Y-118396000D03*
X47752000Y-122396000D03*
D24*
X33052000Y-117221000D03*
X37052000Y-117221000D03*
X40100000Y-130048000D03*
X36100000Y-130048000D03*
X140684000Y-128270000D03*
X136684000Y-128270000D03*
X138970000Y-107696000D03*
X142970000Y-107696000D03*
D11*
X141478000Y-96869000D03*
X141478000Y-92869000D03*
X133604000Y-124238000D03*
X133604000Y-128238000D03*
X133604000Y-111792000D03*
X133604000Y-115792000D03*
D24*
X126016000Y-124968000D03*
X130016000Y-124968000D03*
X130016000Y-118364000D03*
X126016000Y-118364000D03*
X115284000Y-119380000D03*
X111284000Y-119380000D03*
X111284000Y-125730000D03*
X115284000Y-125730000D03*
X126016000Y-121666000D03*
X130016000Y-121666000D03*
X115284000Y-122555000D03*
X111284000Y-122555000D03*
D11*
X122428000Y-125698000D03*
X122428000Y-121698000D03*
D22*
X40403780Y-138455400D03*
X30205680Y-138455400D03*
D23*
X35306000Y-134190740D03*
X37805360Y-134190740D03*
D22*
X142511780Y-138455400D03*
X132313680Y-138455400D03*
D23*
X137414000Y-134190740D03*
X139913360Y-134190740D03*
D25*
X139319000Y-45085000D03*
X113919000Y-45085000D03*
D26*
X132080000Y-47625000D03*
X129286000Y-47625000D03*
X126492000Y-47625000D03*
X123825000Y-47625000D03*
X121031000Y-47625000D03*
X122428000Y-45085000D03*
X125222000Y-45085000D03*
X127889000Y-45085000D03*
X130683000Y-45085000D03*
D27*
X48387000Y-32893000D03*
D28*
X50927000Y-32893000D03*
X53467000Y-32893000D03*
X56007000Y-32893000D03*
X58547000Y-32893000D03*
X61087000Y-32893000D03*
D22*
X78757780Y-138455400D03*
X68559680Y-138455400D03*
D23*
X73660000Y-134190740D03*
X76159360Y-134190740D03*
D29*
X34246000Y-32949000D03*
D27*
X31706000Y-32949000D03*
D30*
X108204000Y-137414000D03*
X108204000Y-139954000D03*
X108204000Y-134874000D03*
D31*
X91440000Y-137414000D03*
D15*
X46355000Y-112649000D03*
D16*
X40005000Y-110363000D03*
D15*
X46355000Y-108077000D03*
X135382000Y-81534000D03*
D16*
X141732000Y-83820000D03*
D15*
X135382000Y-86106000D03*
D32*
X91694000Y-111125000D03*
X91694000Y-106045000D03*
X91694000Y-122555000D03*
X91694000Y-117475000D03*
D33*
X74930000Y-118702000D03*
X74930000Y-116502000D03*
D34*
X105664000Y-122555000D03*
X105664000Y-117475000D03*
X105664000Y-111125000D03*
X105664000Y-106045000D03*
D33*
X122428000Y-116502000D03*
X122428000Y-118702000D03*
D32*
X71274940Y-61595000D03*
X66393060Y-61595000D03*
D35*
X79121000Y-65786000D03*
D36*
X79121000Y-81026000D03*
X86741000Y-81026000D03*
X86741000Y-65786000D03*
D37*
X143969740Y-124863860D03*
X143969740Y-111864140D03*
X137970260Y-124863860D03*
X137970260Y-111864140D03*
D38*
X33992000Y-61651000D03*
X36532000Y-61651000D03*
X31452000Y-61651000D03*
D31*
X33992000Y-78415000D03*
D39*
X94932500Y-47307500D03*
X94932500Y-44767500D03*
X94932500Y-43497500D03*
X94932500Y-42227500D03*
X94932500Y-40957500D03*
X94932500Y-39687500D03*
X94932500Y-38417500D03*
X101282500Y-38417500D03*
X101282500Y-39687500D03*
X101282500Y-40957500D03*
X101282500Y-42227500D03*
X101282500Y-43497500D03*
X101282500Y-44767500D03*
X101282500Y-46037500D03*
X101282500Y-47307500D03*
X94932500Y-46037500D03*
D13*
X101886000Y-90551000D03*
X105886000Y-90551000D03*
D12*
X92456000Y-52927000D03*
X92456000Y-48927000D03*
D13*
X112236000Y-142875000D03*
X108236000Y-142875000D03*
X100679000Y-50292000D03*
X96679000Y-50292000D03*
D12*
X103886000Y-45688000D03*
X103886000Y-41688000D03*
D13*
X99556000Y-35235000D03*
X103556000Y-35235000D03*
X98901000Y-53086000D03*
X94901000Y-53086000D03*
D40*
X78061000Y-115753000D03*
X78061000Y-110673000D03*
D41*
X81236000Y-113213000D03*
D42*
X75521000Y-113213000D03*
D40*
X119082000Y-110673000D03*
X119082000Y-115753000D03*
D41*
X115907000Y-113213000D03*
D42*
X121622000Y-113213000D03*
D43*
X66377000Y-69144000D03*
X66377000Y-66644000D03*
X71330000Y-66604000D03*
X71330000Y-69104000D03*
D29*
X39199000Y-39426000D03*
D28*
X31579000Y-39426000D03*
D44*
X48387000Y-55753000D03*
X50927000Y-55753000D03*
X53467000Y-55753000D03*
X56007000Y-55753000D03*
X58547000Y-55753000D03*
X61087000Y-55753000D03*
X63627000Y-55753000D03*
X66167000Y-55753000D03*
X68707000Y-55753000D03*
X71247000Y-55753000D03*
X73787000Y-55753000D03*
X76327000Y-55753000D03*
X78867000Y-55753000D03*
X81407000Y-55753000D03*
X81407000Y-48133000D03*
X78867000Y-48133000D03*
X76327000Y-48133000D03*
X73787000Y-48133000D03*
X71247000Y-48133000D03*
X68707000Y-48133000D03*
X66167000Y-48133000D03*
X63627000Y-48133000D03*
X61087000Y-48133000D03*
X58547000Y-48133000D03*
X56007000Y-48133000D03*
X53467000Y-48133000D03*
X50927000Y-48133000D03*
X48387000Y-48133000D03*
D32*
X37675000Y-48570000D03*
X32675000Y-48570000D03*
M02*
